<svg xmlns="http://www.w3.org/2000/svg" xmlns:xlink="http://www.w3.org/1999/xlink" width="38.014" height="46.382" viewBox="0 0 38.014 46.382">
  <defs>
    <clipPath id="clip-path">
      <rect id="Rectángulo_351159" data-name="Rectángulo 351159" width="2.233" height="1.821" transform="translate(0 0)" fill="#ff9d00"/>
    </clipPath>
  </defs>
  <g id="Grupo_1008479" data-name="Grupo 1008479" transform="translate(-176.987 -1533.156)">
    <g id="Inventory" transform="translate(168.327 1533.156)">
      <path id="Trazado_720703" data-name="Trazado 720703" d="M52.734,8.47h-26.2a1.778,1.778,0,0,0-1.773,1.778V48.5a1.778,1.778,0,0,0,1.773,1.778h26.2A1.778,1.778,0,0,0,54.507,48.5V10.248A1.778,1.778,0,0,0,52.734,8.47Zm-.8,39.241H27.325V11.035H51.932Z" transform="translate(-8.322 -4.378)" fill="#c37f50"/>
      <path id="Trazado_720704" data-name="Trazado 720704" d="M27.325,20.239V11.06H51.932v9.18H54.5V10.248A1.778,1.778,0,0,0,52.724,8.47H26.533a1.778,1.778,0,0,0-1.773,1.778v9.991Z" transform="translate(-8.322 -4.378)" fill="#dca764"/>
      <path id="Trazado_720705" data-name="Trazado 720705" d="M39.37,8.47H54.99v2.565H39.37Z" transform="translate(-15.873 -4.378)" fill="#c37f50"/>
      <path id="Trazado_720706" data-name="Trazado 720706" d="M62.7,89.69h8.01v2.565H62.7Z" transform="translate(-27.931 -46.357)" fill="#af6650"/>
      <path id="Trazado_720707" data-name="Trazado 720707" d="M30.07,13.78H54.686V50.455H30.07Z" transform="translate(-11.066 -7.122)" fill="#cfd6ff"/>
      <path id="Trazado_720708" data-name="Trazado 720708" d="M34.07,17.78H54.821V50.59H34.07Z" transform="translate(-13.134 -9.19)" fill="#e8efff"/>
      <rect id="Rectángulo_351149" data-name="Rectángulo 351149" width="8.523" height="11.76" rx="1.92" transform="translate(30.749 11.006)" fill="#fff"/>
      <path id="Trazado_720709" data-name="Trazado 720709" d="M68.286,74.3v7.155H58V74.3a.546.546,0,0,1,.541-.546h9.18a.551.551,0,0,1,.565.546Z" transform="translate(-25.502 -38.118)" fill="#cfd6ff"/>
      <rect id="Rectángulo_351150" data-name="Rectángulo 351150" width="10.267" height="10.267" rx="1.13" transform="translate(24.057 25.37)" fill="#cfd6ff"/>
      <path id="Trazado_720710" data-name="Trazado 720710" d="M55.068,4.382V6.527a.623.623,0,0,1-.618.628H42.158a.623.623,0,0,1-.628-.628V4.382a.623.623,0,0,1,.628-.628h1.933A1.565,1.565,0,0,0,45.622,2.2V1.657A.657.657,0,0,1,46.3,1h4.01a.652.652,0,0,1,.652.657V2.2a1.575,1.575,0,0,0,1.57,1.57h1.933A.623.623,0,0,1,55.068,4.382Z" transform="translate(-16.989 -0.517)" fill="#7481a9"/>
      <path id="Trazado_720711" data-name="Trazado 720711" d="M55.068,4.382V5.594a.623.623,0,0,1-.618.623H42.158a.623.623,0,0,1-.628-.623V4.382a.623.623,0,0,1,.628-.628h1.933A1.565,1.565,0,0,0,45.622,2.2V1.657A.657.657,0,0,1,46.3,1h4.01a.652.652,0,0,1,.652.657V2.2a1.575,1.575,0,0,0,1.57,1.57h1.933A.623.623,0,0,1,55.068,4.382Z" transform="translate(-16.989 -0.517)" fill="#81d4fa"/>
      <rect id="Rectángulo_351151" data-name="Rectángulo 351151" width="10.267" height="10.267" rx="1.13" transform="translate(21.246 25.37)" fill="#ff9d50"/>
      <path id="Trazado_720712" data-name="Trazado 720712" d="M45.29,53.2v7.9a.633.633,0,0,1-.546.686h-7.4A.623.623,0,0,1,36.8,61.1V53.2a.623.623,0,0,1,.546-.686h7.4a.633.633,0,0,1,.546.686Z" transform="translate(-14.541 -27.14)" fill="#ffb15f"/>
      <path id="Trazado_720713" data-name="Trazado 720713" d="M45.29,53.481V53.2a.633.633,0,0,0-.546-.686h-7.4a.623.623,0,0,0-.546.686v.285Z" transform="translate(-14.541 -27.14)" fill="#ffde82"/>
      <path id="Trazado_720714" data-name="Trazado 720714" d="M41.68,52.51h3.532V56.6H41.68Z" transform="translate(-17.067 -27.14)" fill="#ff703c"/>
      <path id="Trazado_720715" data-name="Trazado 720715" d="M41.68,52.51h3.532v.976H41.68Z" transform="translate(-17.067 -27.14)" fill="#ff8941"/>
      <rect id="Rectángulo_351152" data-name="Rectángulo 351152" width="10.267" height="10.267" rx="1.13" transform="translate(29.638 35.632)" fill="#ffca87"/>
      <rect id="Rectángulo_351153" data-name="Rectángulo 351153" width="6.933" height="6.933" rx="0.76" transform="translate(31.305 37.298)" fill="#ffe8aa"/>
      <path id="Trazado_720716" data-name="Trazado 720716" d="M62.332,74.653V74.3a.546.546,0,0,0-.546-.546h-9.18a.546.546,0,0,0-.546.546v.358Z" transform="translate(-22.432 -38.118)" fill="#ffb17d"/>
      <path id="Trazado_720717" data-name="Trazado 720717" d="M59.05,73.75h3.532v4.092H59.05Z" transform="translate(-26.045 -38.118)" fill="#ffa769"/>
      <path id="Trazado_720718" data-name="Trazado 720718" d="M59.05,77.2h3.532v2.425H59.05Z" transform="translate(-26.045 -39.902)" fill="#ffc582"/>
      <path id="Trazado_720719" data-name="Trazado 720719" d="M59.05,73.75h3.532v.9H59.05Z" transform="translate(-26.045 -38.118)" fill="#ff8e5f"/>
      <rect id="Rectángulo_351154" data-name="Rectángulo 351154" width="10.267" height="10.267" rx="1.13" transform="translate(19.371 35.632)" fill="#ffc050"/>
      <path id="Trazado_720720" data-name="Trazado 720720" d="M41.117,74.653V74.3a.551.551,0,0,0-.522-.546h-9.18a.551.551,0,0,0-.546.546v.358Z" transform="translate(-11.48 -38.118)" fill="#ff9350"/>
      <rect id="Rectángulo_351155" data-name="Rectángulo 351155" width="6.933" height="6.933" rx="0.76" transform="translate(21.038 37.298)" fill="#ffd469"/>
      <path id="Trazado_720721" data-name="Trazado 720721" d="M37.8,73.75h3.532v4.092H37.8Z" transform="translate(-15.062 -38.118)" fill="#ff9350"/>
      <path id="Trazado_720722" data-name="Trazado 720722" d="M37.8,77.2h3.532v2.425H37.8Z" transform="translate(-15.062 -39.902)" fill="#ffc050"/>
      <path id="Trazado_720723" data-name="Trazado 720723" d="M37.8,73.75h3.532v.9H37.8Z" transform="translate(-15.062 -38.118)" fill="#cd523c"/>
      <rect id="Rectángulo_351156" data-name="Rectángulo 351156" width="10.267" height="10.267" rx="1.13" transform="translate(9.104 35.632)" fill="#ff9d50"/>
      <path id="Trazado_720724" data-name="Trazado 720724" d="M19.842,74.653V74.3a.551.551,0,0,0-.546-.546h-9.18a.551.551,0,0,0-.546.546v.358Z" transform="translate(-0.471 -38.118)" fill="#f06b41"/>
      <rect id="Rectángulo_351157" data-name="Rectángulo 351157" width="6.933" height="6.933" rx="0.76" transform="translate(10.771 37.298)" fill="#ffb15f"/>
      <path id="Trazado_720725" data-name="Trazado 720725" d="M16.55,73.75h3.532v4.092H16.55Z" transform="translate(-4.078 -38.118)" fill="#ff703c"/>
      <path id="Trazado_720726" data-name="Trazado 720726" d="M16.55,73.75h3.532v.9H16.55Z" transform="translate(-4.078 -38.118)" fill="#cd523c"/>
      <path id="Trazado_720727" data-name="Trazado 720727" d="M16.55,77.2h3.532v2.425H16.55Z" transform="translate(-4.078 -39.902)" fill="#ff8941"/>
      <rect id="Rectángulo_351158" data-name="Rectángulo 351158" width="10.267" height="10.267" rx="1.13" transform="translate(10.979 25.37)" fill="#ffc050"/>
      <path id="Trazado_720728" data-name="Trazado 720728" d="M23.7,53.2v7.9a.628.628,0,0,1-.546.686h-7.4a.623.623,0,0,1-.546-.686V53.2a.623.623,0,0,1,.546-.686h7.4A.628.628,0,0,1,23.7,53.2Z" transform="translate(-3.387 -27.14)" fill="#ffd469"/>
      <path id="Trazado_720729" data-name="Trazado 720729" d="M20.43,52.51h3.532V56.6H20.43Z" transform="translate(-6.084 -27.14)" fill="#ff9350"/>
      <path id="Trazado_720730" data-name="Trazado 720730" d="M23.7,53.481V53.2a.628.628,0,0,0-.546-.686h-7.4a.623.623,0,0,0-.546.686v.285Z" transform="translate(-3.387 -27.14)" fill="#fffacd"/>
      <path id="Trazado_720731" data-name="Trazado 720731" d="M20.47,52.51h3.512v.976H20.47Z" transform="translate(-6.104 -27.14)" fill="#ffc050"/>
      <path id="Trazado_720732" data-name="Trazado 720732" d="M23.635,63.693H22.311a.391.391,0,0,1-.391-.391.4.4,0,0,1,.391-.391h1.324a.391.391,0,1,1,0,.783Z" transform="translate(-6.854 -32.516)" fill="#fff"/>
      <path id="Trazado_720733" data-name="Trazado 720733" d="M44.886,63.693h-1.3a.391.391,0,1,1,0-.783h1.3a.391.391,0,1,1,0,.783Z" transform="translate(-17.847 -32.516)" fill="#fff"/>
      <g id="Grupo_1008476" data-name="Grupo 1008476" transform="translate(8.659 0)">
        <path id="Trazado_720734" data-name="Trazado 720734" d="M44.412,3.609H38.528a1.1,1.1,0,0,0-1.068-.836H35.527A1.092,1.092,0,0,1,34.44,1.686V1.14A1.14,1.14,0,0,0,33.319,0h-4.01a1.145,1.145,0,0,0-1.16,1.14v.546a1.087,1.087,0,0,1-1.087,1.087H25.13a1.106,1.106,0,0,0-1.039.836h-5.88A2.261,2.261,0,0,0,15.955,5.87V24.887H11.563A1.068,1.068,0,0,0,10.5,25.954v9.18H9.732a1.077,1.077,0,0,0-1.073,1.1v9.078a1.073,1.073,0,0,0,1.073,1.068h34.68a2.266,2.266,0,0,0,2.261-2.261V5.87a2.266,2.266,0,0,0-2.261-2.261Zm-15.3-1.923V1.14a.179.179,0,0,1,.193-.174h4.01a.169.169,0,0,1,.169.174v.546a2.053,2.053,0,0,0,1.348,1.933c.435.174.589.13,2.623.13a.145.145,0,0,1,.135.145V6.039a.14.14,0,0,1-.135.145H25.169a.14.14,0,0,1-.145-.145V3.865a.145.145,0,0,1,.145-.145H27.1a2.058,2.058,0,0,0,2.015-2.034ZM39.349,35.148H32.015v-9.18A1.073,1.073,0,0,0,30.937,24.9c-10.006,0-9.305-.063-9.663.179a1.063,1.063,0,0,0-.589-.179h-1.2V7.141h23.64V42.85H40.421V36.236a1.073,1.073,0,0,0-1.073-1.087Zm-3.261.966v3.126H33.522V36.12ZM21.83,35.148a.1.1,0,0,1-.1-.1V25.954a.1.1,0,0,1,.1-.1h2.3v3.619a.483.483,0,0,0,.483.483H28.15a.483.483,0,0,0,.483-.483V25.853h2.295a.106.106,0,0,1,.111.1v9.093a.106.106,0,0,1-.111.1Zm3.991.966v3.126H23.26V36.12Zm1.846-10.262v3.136H25.106V25.853ZM16.921,5.87a1.3,1.3,0,0,1,1.29-1.295h5.846v1.6H19a.483.483,0,0,0-.483.483V24.887h-1.6ZM14.829,25.853h2.565v3.136H14.829Zm-3.382,9.18V25.954a.1.1,0,0,1,.1-.1h2.3v3.619a.483.483,0,0,0,.483.483h3.532a.483.483,0,0,0,.483-.483V25.853h2.295a.1.1,0,0,1,.106.1v9.093a.1.1,0,0,1-.106.1H11.563a.1.1,0,0,1-.1-.1Zm4.092,1.073v3.126H12.993V36.12Zm-5.807,9.31a.106.106,0,0,1-.106-.1V36.236a.106.106,0,0,1,.106-.106h2.295v3.614a.483.483,0,0,0,.483.483h3.532a.483.483,0,0,0,.483-.483V36.115h2.3a.1.1,0,0,1,.1.106v9.093a.1.1,0,0,1-.1.1Zm10.262,0a.106.106,0,0,1-.1-.1V36.236a.106.106,0,0,1,.1-.106h2.3v3.614a.483.483,0,0,0,.483.483H26.3a.483.483,0,0,0,.483-.483V36.115h2.295a.111.111,0,0,1,.111.106v9.093a.111.111,0,0,1-.111.1Zm10.262,0a.1.1,0,0,1-.1-.1V36.236a.1.1,0,0,1,.1-.106h2.3v3.614a.483.483,0,0,0,.483.483h3.532a.483.483,0,0,0,.483-.483V36.115h2.295a.106.106,0,0,1,.106.106v9.093a.106.106,0,0,1-.106.1ZM45.717,44.12a1.3,1.3,0,0,1-1.3,1.295h-4v-1.6H43.61a.483.483,0,0,0,.483-.483V6.658a.483.483,0,0,0-.483-.483H38.557v-1.6h5.856A1.3,1.3,0,0,1,45.707,5.87Z" transform="translate(-8.659 0)" fill="#302d3d"/>
        <path id="Trazado_720735" data-name="Trazado 720735" d="M37.754,24.073h2.329a1.16,1.16,0,0,0,1.155-1.164V20.584a1.16,1.16,0,0,0-1.155-1.164H37.754a1.164,1.164,0,0,0-1.164,1.164v2.324A1.164,1.164,0,0,0,37.754,24.073Zm-.2-3.488a.2.2,0,0,1,.2-.2h2.329a.193.193,0,0,1,.188.2v2.324a.193.193,0,0,1-.188.2H37.754a.2.2,0,0,1-.2-.2Z" transform="translate(-23.096 -10.037)" fill="#302d3d"/>
        <path id="Trazado_720736" data-name="Trazado 720736" d="M40.054,33.18h-2.3a1.16,1.16,0,0,0-1.164,1.16v2.324a1.164,1.164,0,0,0,1.164,1.164h2.324a1.164,1.164,0,0,0,1.164-1.164V34.339a1.16,1.16,0,0,0-1.189-1.16Zm.2,3.483a.2.2,0,0,1-.2.2h-2.3a.2.2,0,0,1-.2-.2V34.339a.2.2,0,0,1,.2-.193h2.324a.193.193,0,0,1,.2.193Z" transform="translate(-23.096 -17.149)" fill="#302d3d"/>
        <path id="Trazado_720737" data-name="Trazado 720737" d="M19.689,87.31H17.563a.483.483,0,0,0,0,.966h2.126a.483.483,0,0,0,0-.966Z" transform="translate(-13.012 -45.127)" fill="#302d3d"/>
        <path id="Trazado_720738" data-name="Trazado 720738" d="M40.939,87.31H38.813a.483.483,0,1,0,0,.966h2.126a.483.483,0,1,0,0-.966Z" transform="translate(-23.995 -45.127)" fill="#302d3d"/>
        <path id="Trazado_720739" data-name="Trazado 720739" d="M62.209,87.31H60.083a.483.483,0,0,0,0,.966h2.126a.483.483,0,0,0,0-.966Z" transform="translate(-34.989 -45.127)" fill="#302d3d"/>
        <path id="Trazado_720740" data-name="Trazado 720740" d="M23.972,66.553a.483.483,0,0,0-.483-.483H21.363a.483.483,0,0,0,0,.966h2.126A.483.483,0,0,0,23.972,66.553Z" transform="translate(-14.976 -34.149)" fill="#302d3d"/>
        <path id="Trazado_720741" data-name="Trazado 720741" d="M44.739,66.07H42.613a.483.483,0,0,0,0,.966h2.126a.483.483,0,0,0,0-.966Z" transform="translate(-25.959 -34.149)" fill="#302d3d"/>
        <path id="Trazado_720742" data-name="Trazado 720742" d="M51.633,21.966H61.9a.483.483,0,1,0,0-.966H51.633a.483.483,0,0,0,0,.966Z" transform="translate(-30.621 -10.854)" fill="#302d3d"/>
        <path id="Trazado_720743" data-name="Trazado 720743" d="M51.633,26.446h7.378a.483.483,0,1,0,0-.966H51.633a.483.483,0,1,0,0,.966Z" transform="translate(-30.621 -13.169)" fill="#302d3d"/>
        <path id="Trazado_720744" data-name="Trazado 720744" d="M61.9,34.74H51.633a.483.483,0,0,0,0,.966H61.9a.483.483,0,1,0,0-.966Z" transform="translate(-30.621 -17.956)" fill="#302d3d"/>
        <path id="Trazado_720745" data-name="Trazado 720745" d="M59.011,39.23H51.633a.483.483,0,1,0,0,.966h7.378a.483.483,0,1,0,0-.966Z" transform="translate(-30.621 -20.276)" fill="#302d3d"/>
      </g>
    </g>
    <g id="Grupo_1008478" data-name="Grupo 1008478" transform="translate(191.68 1544)">
      <g id="Grupo_1008477" data-name="Grupo 1008477" transform="translate(0 0)" clip-path="url(#clip-path)">
        <path id="Trazado_720746" data-name="Trazado 720746" d="M2.153.59l-.889,1.1A.361.361,0,0,1,1,1.821H.983a.362.362,0,0,1-.256-.106L.1,1.094A.362.362,0,0,1,.616.581L.955.918,1.588.134A.363.363,0,0,1,2.153.59" transform="translate(0 0)" fill="#ff9d00" fill-rule="evenodd"/>
      </g>
    </g>
  </g>
</svg>
