<svg xmlns="http://www.w3.org/2000/svg" width="90" height="90" viewBox="0 0 90 90">
  <g id="Grupo_1008851" data-name="Grupo 1008851" transform="translate(-1220 -4721)">
    <rect id="Rectángulo_350967" data-name="Rectángulo 350967" width="90" height="90" transform="translate(1220 4721)" fill="none"/>
    <g id="_074-hiring-1" data-name="074-hiring-1" transform="translate(1228 4729)">
      <ellipse id="Elipse_5055" data-name="Elipse 5055" cx="37.33" cy="37.33" rx="37.33" ry="37.33" transform="translate(0 0)" fill="#e0e4e8"/>
      <ellipse id="Elipse_5056" data-name="Elipse 5056" cx="8.426" cy="8.426" rx="8.426" ry="8.426" transform="translate(30.777 27.032)" fill="#fff"/>
      <path id="Trazado_722708" data-name="Trazado 722708" d="M209.276,194.059a9.6,9.6,0,1,1,9.6-9.6A9.639,9.639,0,0,1,209.276,194.059Zm0-16.968a7.255,7.255,0,1,0,7.255,7.255A7.292,7.292,0,0,0,209.276,177.091Z" transform="translate(-170.073 -148.888)" fill="#183651"/>
      <path id="Trazado_722709" data-name="Trazado 722709" d="M168.365,296.172a16.731,16.731,0,0,0-16.734,16.734H185.1A16.731,16.731,0,0,0,168.365,296.172Z" transform="translate(-129.163 -252.171)" fill="#ff9d00"/>
      <g id="Grupo_1008842" data-name="Grupo 1008842" transform="translate(5.266 5.032)">
        <path id="Trazado_722710" data-name="Trazado 722710" d="M178.393,306.583H144.924a1.106,1.106,0,0,1-1.17-1.17,17.9,17.9,0,1,1,35.809,0A1.173,1.173,0,0,1,178.393,306.583Zm-32.3-2.34h31.011a15.558,15.558,0,0,0-15.447-14.394A15.844,15.844,0,0,0,146.094,304.242Z" transform="translate(-127.722 -249.827)" fill="#183651"/>
        <rect id="Rectángulo_351434" data-name="Rectángulo 351434" width="2.34" height="2.34" transform="translate(21.415)" fill="#183651"/>
        <rect id="Rectángulo_351435" data-name="Rectángulo 351435" width="2.34" height="2.34" transform="translate(30.894)" fill="#183651"/>
        <rect id="Rectángulo_351436" data-name="Rectángulo 351436" width="2.34" height="2.34" transform="translate(40.256)" fill="#183651"/>
        <rect id="Rectángulo_351437" data-name="Rectángulo 351437" width="2.34" height="2.34" transform="translate(21.415 61.671)" fill="#183651"/>
        <rect id="Rectángulo_351438" data-name="Rectángulo 351438" width="2.34" height="2.34" transform="translate(30.894 61.671)" fill="#183651"/>
        <rect id="Rectángulo_351439" data-name="Rectángulo 351439" width="2.34" height="2.34" transform="translate(40.256 61.671)" fill="#183651"/>
        <rect id="Rectángulo_351440" data-name="Rectángulo 351440" width="2.34" height="2.34" transform="translate(61.671 21.415)" fill="#183651"/>
        <rect id="Rectángulo_351441" data-name="Rectángulo 351441" width="2.34" height="2.34" transform="translate(61.671 30.894)" fill="#183651"/>
        <rect id="Rectángulo_351442" data-name="Rectángulo 351442" width="2.34" height="2.34" transform="translate(61.671 40.373)" fill="#183651"/>
        <rect id="Rectángulo_351443" data-name="Rectángulo 351443" width="2.34" height="2.34" transform="translate(0 21.415)" fill="#183651"/>
        <rect id="Rectángulo_351444" data-name="Rectángulo 351444" width="2.34" height="2.34" transform="translate(0 30.894)" fill="#183651"/>
        <rect id="Rectángulo_351445" data-name="Rectángulo 351445" width="2.34" height="2.34" transform="translate(0 40.373)" fill="#183651"/>
      </g>
      <path id="Trazado_722711" data-name="Trazado 722711" d="M36.153,320.577l-15.8,18.841a5.977,5.977,0,1,1-8.426-8.426L30.77,315.077A18.569,18.569,0,0,0,36.153,320.577Z" transform="translate(-8.418 -268.268)" fill="#fff"/>
      <g id="Grupo_1008843" data-name="Grupo 1008843" transform="translate(0.285 13.926)">
        <path id="Trazado_722712" data-name="Trazado 722712" d="M4.368,334.289a7.091,7.091,0,0,1,.468-10.415L23.56,307.959a.91.91,0,0,1,.936-.234,1.184,1.184,0,0,1,.819.468,19.586,19.586,0,0,0,5.149,5.149,1.185,1.185,0,0,1,.468.819,1.261,1.261,0,0,1-.234.936L14.783,333.821A7.087,7.087,0,0,1,4.368,334.289Zm19.777-23.756-17.788,15.1a4.881,4.881,0,0,0-.351,7.021,4.7,4.7,0,0,0,7.021-.351l15.1-17.9A17.767,17.767,0,0,1,24.145,310.533Z" transform="translate(-2.312 -275.895)" fill="#183651"/>
        <path id="Trazado_722713" data-name="Trazado 722713" d="M140.868,136.8a21.532,21.532,0,1,1,15.213-6.319A21.334,21.334,0,0,1,140.868,136.8Zm0-40.724a19.192,19.192,0,1,0,13.575,5.617A19.026,19.026,0,0,0,140.868,96.076Z" transform="translate(-101.95 -93.736)" fill="#183651"/>
      </g>
      <ellipse id="Elipse_5057" data-name="Elipse 5057" cx="5.032" cy="5.032" rx="5.032" ry="5.032" transform="translate(6.085 1.17)" fill="#fff"/>
      <path id="Trazado_722714" data-name="Trazado 722714" d="M39.679,12.4a6.243,6.243,0,0,1-6.2-6.2,6.2,6.2,0,0,1,12.4,0A6.168,6.168,0,0,1,39.679,12.4Zm0-10.064A3.9,3.9,0,0,0,35.817,6.2a3.862,3.862,0,1,0,7.724,0A3.821,3.821,0,0,0,39.679,2.34Z" transform="translate(-28.562 0)" fill="#183651"/>
      <path id="Trazado_722715" data-name="Trazado 722715" d="M18.218,75.618a9.939,9.939,0,0,0-9.947,9.947H28.165A9.865,9.865,0,0,0,18.218,75.618Z" transform="translate(-7.101 -64.384)" fill="#81d4fa"/>
      <path id="Trazado_722716" data-name="Trazado 722716" d="M22.245,80.028H2.351a1.106,1.106,0,0,1-1.17-1.17A11.188,11.188,0,0,1,12.3,67.741,11.188,11.188,0,0,1,23.415,78.858,1.173,1.173,0,0,1,22.245,80.028ZM3.521,77.688H20.958a8.751,8.751,0,0,0-8.777-7.606A8.635,8.635,0,0,0,3.521,77.688Z" transform="translate(-1.064 -57.677)" fill="#183651"/>
      <ellipse id="Elipse_5058" data-name="Elipse 5058" cx="5.032" cy="5.032" rx="5.032" ry="5.032" transform="translate(58.511 53.714)" fill="#fff"/>
      <path id="Trazado_722717" data-name="Trazado 722717" d="M392.565,366.078a6.2,6.2,0,1,1,6.2-6.2A6.168,6.168,0,0,1,392.565,366.078Zm0-10.064a3.862,3.862,0,1,0,3.862,3.862A3.821,3.821,0,0,0,392.565,356.014Z" transform="translate(-329.022 -301.13)" fill="#183651"/>
      <path id="Trazado_722718" data-name="Trazado 722718" d="M371.1,429.292a9.939,9.939,0,0,0-9.947,9.947h19.894A9.865,9.865,0,0,0,371.1,429.292Z" transform="translate(-307.561 -365.515)" fill="#00bcd4"/>
      <path id="Trazado_722719" data-name="Trazado 722719" d="M375.132,433.7H355.238a1.106,1.106,0,0,1-1.17-1.17,11.117,11.117,0,0,1,22.234,0A1.173,1.173,0,0,1,375.132,433.7Zm-18.724-2.34h17.436a8.751,8.751,0,0,0-8.777-7.606A8.634,8.634,0,0,0,356.408,431.362Z" transform="translate(-301.525 -358.808)" fill="#183651"/>
      <ellipse id="Elipse_5059" data-name="Elipse 5059" cx="5.032" cy="5.032" rx="5.032" ry="5.032" transform="translate(58.511 1.17)" fill="#fff"/>
      <path id="Trazado_722720" data-name="Trazado 722720" d="M392.565,12.4a6.243,6.243,0,0,1-6.2-6.2,6.2,6.2,0,0,1,12.4,0A6.168,6.168,0,0,1,392.565,12.4Zm0-10.064A3.9,3.9,0,0,0,388.7,6.2a3.862,3.862,0,0,0,7.724,0A3.821,3.821,0,0,0,392.565,2.34Z" transform="translate(-329.022 0)" fill="#183651"/>
      <path id="Trazado_722721" data-name="Trazado 722721" d="M371.1,75.618a9.939,9.939,0,0,0-9.947,9.947h19.894A9.865,9.865,0,0,0,371.1,75.618Z" transform="translate(-307.561 -64.384)" fill="#b29eee"/>
      <g id="Grupo_1008844" data-name="Grupo 1008844" transform="translate(7.141 10.064)">
        <path id="Trazado_722722" data-name="Trazado 722722" d="M375.132,80.028H355.238a1.106,1.106,0,0,1-1.17-1.17,11.117,11.117,0,0,1,22.234,0A1.173,1.173,0,0,1,375.132,80.028Zm-18.724-2.34h17.436a8.751,8.751,0,0,0-8.777-7.606A8.634,8.634,0,0,0,356.408,77.688Z" transform="translate(-308.666 -67.741)" fill="#183651"/>
        <rect id="Rectángulo_351446" data-name="Rectángulo 351446" width="2.34" height="2.34" transform="translate(1.655 57.522) rotate(-135)" fill="#183651"/>
        <rect id="Rectángulo_351447" data-name="Rectángulo 351447" width="2.34" height="2.34" transform="translate(6.199 52.912) rotate(-135)" fill="#183651"/>
        <rect id="Rectángulo_351448" data-name="Rectángulo 351448" width="2.34" height="2.34" transform="translate(10.745 48.305) rotate(-135)" fill="#183651"/>
      </g>
    </g>
  </g>
</svg>
