<svg xmlns="http://www.w3.org/2000/svg" width="90" height="90" viewBox="0 0 90 90">
  <g id="Grupo_1008852" data-name="Grupo 1008852" transform="translate(-910 -4721)">
    <rect id="Rectángulo_350966" data-name="Rectángulo 350966" width="90" height="90" transform="translate(910 4721)" fill="none"/>
    <g id="_117-hierarchical-structure-1" data-name="117-hierarchical-structure-1" transform="translate(917 4729)">
      <ellipse id="Elipse_5060" data-name="Elipse 5060" cx="37.447" cy="37.447" rx="37.447" ry="37.447" transform="translate(0 0)" fill="#e1e6e7"/>
      <path id="Trazado_722723" data-name="Trazado 722723" d="M29.962,406.361l-9.245-5.032-9.245,5.032a5.417,5.417,0,0,0-2.809,4.8v4.33H32.888v-4.33A5.771,5.771,0,0,0,29.962,406.361Z" transform="translate(-7.377 -341.764)" fill="#b29eee"/>
      <path id="Trazado_722724" data-name="Trazado 722724" d="M25.394,409.617H1.17A1.106,1.106,0,0,1,0,408.446v-4.33a6.642,6.642,0,0,1,3.394-5.851l9.245-5.032a1.063,1.063,0,0,1,1.17,0l9.245,5.032a6.642,6.642,0,0,1,3.394,5.851v4.33A1.019,1.019,0,0,1,25.394,409.617ZM2.34,407.276H24.224v-3.16A4.194,4.194,0,0,0,22,400.372l-8.777-4.8-8.777,4.8a4.194,4.194,0,0,0-2.223,3.745v3.16Z" transform="translate(0 -334.722)" fill="#183651"/>
      <path id="Trazado_722725" data-name="Trazado 722725" d="M192.227,406.361l-9.245-5.032-9.245,5.032a5.417,5.417,0,0,0-2.809,4.8v4.33h24.224v-4.33A5.771,5.771,0,0,0,192.227,406.361Z" transform="translate(-145.535 -341.764)" fill="#ff9d00"/>
      <path id="Trazado_722726" data-name="Trazado 722726" d="M188.329,409.617H164.222a1.106,1.106,0,0,1-1.17-1.17v-4.33a6.642,6.642,0,0,1,3.394-5.851l9.245-5.032a1.063,1.063,0,0,1,1.17,0l9.245,5.032a6.642,6.642,0,0,1,3.394,5.851v4.33A1.106,1.106,0,0,1,188.329,409.617Zm-22.937-2.34h21.883v-3.16a4.194,4.194,0,0,0-2.223-3.745l-8.777-4.8-8.777,4.8a4.194,4.194,0,0,0-2.223,3.745v3.16Z" transform="translate(-138.828 -334.722)" fill="#183651"/>
      <path id="Trazado_722727" data-name="Trazado 722727" d="M35.54,408.819a5.662,5.662,0,0,0-2.223-2.458l-9.245-5.032-9.245,5.032a5.034,5.034,0,0,0-2.223,2.458" transform="translate(-10.731 -341.764)" fill="#fff"/>
      <path id="Trazado_722728" data-name="Trazado 722728" d="M27.649,403.617a1.124,1.124,0,0,1-1.053-.7,3.915,3.915,0,0,0-1.755-1.872l-8.777-4.8-8.777,4.8a3.883,3.883,0,0,0-1.755,1.872,1.073,1.073,0,0,1-1.521.585,1.161,1.161,0,0,1-.585-1.521,5.707,5.707,0,0,1,2.809-2.926l9.245-5.032a1.063,1.063,0,0,1,1.17,0l9.245,5.032a6.783,6.783,0,0,1,2.809,2.926,1.161,1.161,0,0,1-.585,1.521C28,403.617,27.883,403.617,27.649,403.617Z" transform="translate(-2.84 -335.393)" fill="#183651"/>
      <path id="Trazado_722729" data-name="Trazado 722729" d="M198.592,408.819a5.662,5.662,0,0,0-2.223-2.458l-9.245-5.032-9.245,5.032a5.034,5.034,0,0,0-2.223,2.458" transform="translate(-149.56 -341.764)" fill="#fff"/>
      <g id="Grupo_1008845" data-name="Grupo 1008845" transform="translate(18.607 40.256)">
        <path id="Trazado_722730" data-name="Trazado 722730" d="M167.53,403.617a.7.7,0,0,1-.468-.117,1.161,1.161,0,0,1-.585-1.521,5.707,5.707,0,0,1,2.809-2.926l9.245-5.032a1.063,1.063,0,0,1,1.17,0l9.245,5.032a6.782,6.782,0,0,1,2.809,2.926,1.153,1.153,0,0,1-2.106.936,3.915,3.915,0,0,0-1.755-1.872l-8.777-4.8-8.777,4.8a3.883,3.883,0,0,0-1.755,1.872A1.125,1.125,0,0,1,167.53,403.617Z" transform="translate(-160.275 -375.649)" fill="#183651"/>
        <rect id="Rectángulo_351449" data-name="Rectángulo 351449" width="2.34" height="2.34" transform="translate(24.224)" fill="#183651"/>
        <rect id="Rectángulo_351450" data-name="Rectángulo 351450" width="2.34" height="2.34" transform="translate(29.841)" fill="#183651"/>
        <rect id="Rectángulo_351451" data-name="Rectángulo 351451" width="2.34" height="2.34" transform="translate(35.341)" fill="#183651"/>
        <rect id="Rectángulo_351452" data-name="Rectángulo 351452" width="2.34" height="2.34" fill="#183651"/>
        <rect id="Rectángulo_351453" data-name="Rectángulo 351453" width="2.34" height="2.34" transform="translate(5.5)" fill="#183651"/>
        <rect id="Rectángulo_351454" data-name="Rectángulo 351454" width="2.34" height="2.34" transform="translate(11.117)" fill="#183651"/>
      </g>
      <path id="Trazado_722731" data-name="Trazado 722731" d="M61.007,328.762c0,4.1-2.692,8.777-6.085,8.777s-6.085-4.564-6.085-8.777,2.692-6.2,6.085-6.2S61.007,324.666,61.007,328.762Z" transform="translate(-41.582 -274.698)" fill="#fff"/>
      <path id="Trazado_722732" data-name="Trazado 722732" d="M47.427,332c-4.213,0-7.255-5.266-7.255-9.947,0-4.447,2.926-7.372,7.255-7.372s7.255,2.926,7.255,7.372C54.8,326.736,51.64,332,47.427,332Zm0-14.979c-3.043,0-4.915,1.872-4.915,5.032,0,3.745,2.458,7.606,4.915,7.606s4.915-3.862,4.915-7.606C52.459,318.9,50.587,317.023,47.427,317.023Z" transform="translate(-34.204 -267.991)" fill="#183651"/>
      <path id="Trazado_722733" data-name="Trazado 722733" d="M223.272,328.762c0,4.1-2.692,8.777-6.085,8.777s-6.085-4.564-6.085-8.777,2.692-6.2,6.085-6.2S223.272,324.666,223.272,328.762Z" transform="translate(-179.74 -274.698)" fill="#fff"/>
      <path id="Trazado_722734" data-name="Trazado 722734" d="M210.48,332c-4.213,0-7.255-5.266-7.255-9.947,0-4.447,2.926-7.372,7.255-7.372s7.255,2.926,7.255,7.372C217.736,326.736,214.693,332,210.48,332Zm0-14.979c-3.043,0-4.915,1.872-4.915,5.032,0,3.745,2.458,7.606,4.915,7.606s4.915-3.862,4.915-7.606C215.4,318.9,213.523,317.023,210.48,317.023Z" transform="translate(-173.033 -267.991)" fill="#183651"/>
      <path id="Trazado_722735" data-name="Trazado 722735" d="M355.279,406.361l-9.245-5.032-9.245,5.032a5.417,5.417,0,0,0-2.809,4.8v4.33H358.2v-4.33A5.771,5.771,0,0,0,355.279,406.361Z" transform="translate(-284.363 -341.764)" fill="#cbbff4"/>
      <path id="Trazado_722736" data-name="Trazado 722736" d="M350.711,409.617H326.487a1.106,1.106,0,0,1-1.17-1.17v-4.33a6.642,6.642,0,0,1,3.394-5.851l9.362-5.032a1.063,1.063,0,0,1,1.17,0l9.362,5.032A6.642,6.642,0,0,1,352,404.116v4.33A1.276,1.276,0,0,1,350.711,409.617Zm-23.053-2.34h21.883v-3.16a4.194,4.194,0,0,0-2.223-3.745l-8.777-4.8-8.777,4.8a4.194,4.194,0,0,0-2.223,3.745v3.16Z" transform="translate(-276.987 -334.722)" fill="#183651"/>
      <path id="Trazado_722737" data-name="Trazado 722737" d="M361.644,408.819a5.662,5.662,0,0,0-2.223-2.458l-9.245-5.032-9.245,5.032a5.034,5.034,0,0,0-2.223,2.458" transform="translate(-288.388 -341.764)" fill="#fff"/>
      <path id="Trazado_722738" data-name="Trazado 722738" d="M353.753,403.617a1.124,1.124,0,0,1-1.053-.7,3.915,3.915,0,0,0-1.755-1.872l-8.777-4.8-8.777,4.8a3.883,3.883,0,0,0-1.755,1.872,1.153,1.153,0,1,1-2.106-.936,5.707,5.707,0,0,1,2.809-2.926l9.362-5.032a1.063,1.063,0,0,1,1.17,0l9.362,5.032a6.783,6.783,0,0,1,2.809,2.926,1.161,1.161,0,0,1-.585,1.521A2.508,2.508,0,0,1,353.753,403.617Z" transform="translate(-280.497 -335.393)" fill="#183651"/>
      <path id="Trazado_722739" data-name="Trazado 722739" d="M386.324,328.762c0,4.1-2.692,8.777-6.085,8.777s-6.085-4.564-6.085-8.777,2.692-6.2,6.085-6.2A5.8,5.8,0,0,1,386.324,328.762Z" transform="translate(-318.568 -274.698)" fill="#fff"/>
      <path id="Trazado_722740" data-name="Trazado 722740" d="M373.532,332c-4.213,0-7.255-5.266-7.255-9.947,0-4.447,2.926-7.372,7.255-7.372s7.255,2.926,7.255,7.372C380.788,326.736,377.628,332,373.532,332Zm0-14.979c-3.043,0-4.915,1.872-4.915,5.032,0,3.745,2.458,7.606,4.915,7.606s4.915-3.862,4.915-7.606C378.447,318.9,376.575,317.023,373.532,317.023Z" transform="translate(-311.861 -267.991)" fill="#183651"/>
      <path id="Trazado_722741" data-name="Trazado 722741" d="M313.649,92.072,304.4,87.04l-9.362,5.032a5.417,5.417,0,0,0-2.809,4.8v4.33h24.224V96.87A5.417,5.417,0,0,0,313.649,92.072Z" transform="translate(-248.819 -74.167)" fill="#00bcd4"/>
      <path id="Trazado_722742" data-name="Trazado 722742" d="M309.751,95.328H285.527a1.106,1.106,0,0,1-1.17-1.17v-4.33a6.642,6.642,0,0,1,3.394-5.851l9.362-5.032a1.063,1.063,0,0,1,1.17,0l9.362,5.032a6.642,6.642,0,0,1,3.394,5.851v4.33A1.489,1.489,0,0,1,309.751,95.328ZM286.7,92.987h21.883v-3.16a4.194,4.194,0,0,0-2.223-3.745l-8.777-4.8-8.777,4.8a4.194,4.194,0,0,0-2.223,3.745v3.16Z" transform="translate(-242.112 -67.125)" fill="#183651"/>
      <path id="Trazado_722743" data-name="Trazado 722743" d="M319.226,94.529A5.662,5.662,0,0,0,317,92.072l-9.245-5.032L298.4,92.072a5.034,5.034,0,0,0-2.223,2.458" transform="translate(-252.172 -74.167)" fill="#fff"/>
      <path id="Trazado_722744" data-name="Trazado 722744" d="M288.835,89.328a.7.7,0,0,1-.468-.117,1.161,1.161,0,0,1-.585-1.521,5.707,5.707,0,0,1,2.809-2.926l9.362-5.032a1.063,1.063,0,0,1,1.17,0l9.362,5.032a6.783,6.783,0,0,1,2.809,2.926,1.153,1.153,0,0,1-2.106.936,3.915,3.915,0,0,0-1.755-1.872l-8.777-4.8-8.777,4.8a3.883,3.883,0,0,0-1.755,1.872A1.617,1.617,0,0,1,288.835,89.328Z" transform="translate(-244.951 -67.796)" fill="#183651"/>
      <path id="Trazado_722745" data-name="Trazado 722745" d="M345.364,14.472c0,4.1-2.692,8.777-6.085,8.777s-6.085-4.564-6.085-8.777,2.692-6.2,6.085-6.2A5.8,5.8,0,0,1,345.364,14.472Z" transform="translate(-283.693 -7.1)" fill="#fff"/>
      <path id="Trazado_722746" data-name="Trazado 722746" d="M331.784,17.712c-4.213,0-7.255-5.266-7.255-9.947,0-4.447,2.926-7.373,7.255-7.373s7.255,2.926,7.255,7.373C339.157,12.446,336,17.712,331.784,17.712Zm0-14.979c-3.043,0-4.915,1.872-4.915,5.032,0,3.745,2.458,7.606,4.915,7.606S336.7,11.51,336.7,7.766C336.816,4.606,334.944,2.734,331.784,2.734Z" transform="translate(-276.316 -0.393)" fill="#183651"/>
      <path id="Trazado_722747" data-name="Trazado 722747" d="M70.251,92.072,60.889,87.04l-9.245,5.032a5.417,5.417,0,0,0-2.809,4.8v4.33H73.06V96.87A5.658,5.658,0,0,0,70.251,92.072Z" transform="translate(-41.581 -74.167)" fill="#00bcd4"/>
      <path id="Trazado_722748" data-name="Trazado 722748" d="M66.354,95.328H42.13a1.106,1.106,0,0,1-1.17-1.17v-4.33a6.642,6.642,0,0,1,3.394-5.851l9.362-5.032a1.063,1.063,0,0,1,1.17,0l9.245,5.032a6.642,6.642,0,0,1,3.394,5.851v4.33A1.258,1.258,0,0,1,66.354,95.328ZM43.3,92.987H65.184v-3.16a4.194,4.194,0,0,0-2.223-3.745l-8.777-4.8-8.777,4.8a4.194,4.194,0,0,0-2.223,3.745v3.16Z" transform="translate(-34.875 -67.125)" fill="#183651"/>
      <path id="Trazado_722749" data-name="Trazado 722749" d="M75.829,94.529a5.662,5.662,0,0,0-2.223-2.458L64.243,87.04,55,92.072a5.034,5.034,0,0,0-2.223,2.458" transform="translate(-44.935 -74.167)" fill="#fff"/>
      <path id="Trazado_722750" data-name="Trazado 722750" d="M68.608,89.328a1.124,1.124,0,0,1-1.053-.7A3.915,3.915,0,0,0,65.8,86.754l-8.777-4.8-8.777,4.8a3.915,3.915,0,0,0-1.755,1.872,1.153,1.153,0,0,1-2.106-.936,5.707,5.707,0,0,1,2.809-2.926l9.245-5.032a1.063,1.063,0,0,1,1.17,0l9.245,5.032a6.783,6.783,0,0,1,2.809,2.926,1.161,1.161,0,0,1-.585,1.521C68.959,89.328,68.842,89.328,68.608,89.328Z" transform="translate(-37.714 -67.796)" fill="#183651"/>
      <path id="Trazado_722751" data-name="Trazado 722751" d="M101.179,14.472c0,4.1-2.692,8.777-6.085,8.777s-6.085-4.564-6.085-8.777,2.692-6.2,6.085-6.2S101.179,10.376,101.179,14.472Z" transform="translate(-75.785 -7.1)" fill="#fff"/>
      <path id="Trazado_722752" data-name="Trazado 722752" d="M88.387,17.712c-4.213,0-7.255-5.266-7.255-9.947,0-4.447,2.926-7.373,7.255-7.373s7.255,2.926,7.255,7.373C95.643,12.446,92.6,17.712,88.387,17.712Zm0-14.979c-3.043,0-4.915,1.872-4.915,5.032,0,3.745,2.458,7.606,4.915,7.606S93.3,11.51,93.3,7.766C93.3,4.606,91.43,2.734,88.387,2.734Z" transform="translate(-69.079 -0.393)" fill="#183651"/>
      <path id="Trazado_722753" data-name="Trazado 722753" d="M366.659,186.058a1.106,1.106,0,0,1-1.17-1.17v-9.245a1.17,1.17,0,0,1,2.341,0v9.245A1.106,1.106,0,0,1,366.659,186.058Z" transform="translate(-311.19 -148.611)" fill="#183651"/>
      <g id="Grupo_1008846" data-name="Grupo 1008846" transform="translate(12.053 25.862)">
        <path id="Trazado_722754" data-name="Trazado 722754" d="M123.262,186.058a1.106,1.106,0,0,1-1.17-1.17v-9.245a1.17,1.17,0,1,1,2.34,0v9.245A1.106,1.106,0,0,1,123.262,186.058Z" transform="translate(-116.007 -174.473)" fill="#183651"/>
        <path id="Trazado_722755" data-name="Trazado 722755" d="M130.75,250.627a1.106,1.106,0,0,1-1.17-1.17V239.041H83.472v10.415a1.17,1.17,0,1,1-2.34,0V237.871a1.106,1.106,0,0,1,1.17-1.17h48.33a1.106,1.106,0,0,1,1.17,1.17v11.585A1.019,1.019,0,0,1,130.75,250.627Z" transform="translate(-81.132 -227.456)" fill="#183651"/>
      </g>
      <path id="Trazado_722756" data-name="Trazado 722756" d="M245.355,250.627a1.106,1.106,0,0,1-1.17-1.17V237.871a1.17,1.17,0,1,1,2.34,0v11.585A1.106,1.106,0,0,1,245.355,250.627Z" transform="translate(-207.908 -201.594)" fill="#183651"/>
    </g>
  </g>
</svg>
