<svg xmlns="http://www.w3.org/2000/svg" xmlns:xlink="http://www.w3.org/1999/xlink" width="676.592" height="291.733" viewBox="0 0 676.592 291.733">
  <defs>
    <filter id="Trazado_724685" x="0" y="43.782" width="210.607" height="189.948" filterUnits="userSpaceOnUse">
      <feOffset dx="3" dy="3" input="SourceAlpha"/>
      <feGaussianBlur stdDeviation="3" result="blur"/>
      <feFlood flood-opacity="0.161"/>
      <feComposite operator="in" in2="blur"/>
      <feComposite in="SourceGraphic"/>
    </filter>
    <filter id="Trazado_724687" x="17.863" y="190.029" width="173.328" height="65.472" filterUnits="userSpaceOnUse">
      <feOffset dx="3" dy="3" input="SourceAlpha"/>
      <feGaussianBlur stdDeviation="3" result="blur-2"/>
      <feFlood flood-opacity="0.161"/>
      <feComposite operator="in" in2="blur-2"/>
      <feComposite in="SourceGraphic"/>
    </filter>
    <filter id="Trazado_724689" x="233.029" y="64.072" width="210.607" height="189.929" filterUnits="userSpaceOnUse">
      <feOffset dx="3" dy="3" input="SourceAlpha"/>
      <feGaussianBlur stdDeviation="3" result="blur-3"/>
      <feFlood flood-opacity="0.161"/>
      <feComposite operator="in" in2="blur-3"/>
      <feComposite in="SourceGraphic"/>
    </filter>
    <filter id="Trazado_724691" x="251.632" y="43.782" width="173.328" height="65.453" filterUnits="userSpaceOnUse">
      <feOffset dx="3" dy="3" input="SourceAlpha"/>
      <feGaussianBlur stdDeviation="3" result="blur-4"/>
      <feFlood flood-opacity="0.161"/>
      <feComposite operator="in" in2="blur-4"/>
      <feComposite in="SourceGraphic"/>
    </filter>
    <filter id="Trazado_724504" x="465.985" y="43.782" width="210.607" height="189.948" filterUnits="userSpaceOnUse">
      <feOffset dx="3" dy="3" input="SourceAlpha"/>
      <feGaussianBlur stdDeviation="3" result="blur-5"/>
      <feFlood flood-opacity="0.161"/>
      <feComposite operator="in" in2="blur-5"/>
      <feComposite in="SourceGraphic"/>
    </filter>
    <filter id="Trazado_724694" x="483.848" y="190.47" width="173.328" height="65.472" filterUnits="userSpaceOnUse">
      <feOffset dx="3" dy="3" input="SourceAlpha"/>
      <feGaussianBlur stdDeviation="3" result="blur-6"/>
      <feFlood flood-opacity="0.161"/>
      <feComposite operator="in" in2="blur-6"/>
      <feComposite in="SourceGraphic"/>
    </filter>
  </defs>
  <g id="Grupo_1009259" data-name="Grupo 1009259" transform="translate(5311 6758)">
    <g transform="matrix(1, 0, 0, 1, -5311, -6758)" filter="url(#Trazado_724685)">
      <path id="Trazado_724685-2" data-name="Trazado 724685" d="M6,0H186.607a6,6,0,0,1,6,6V165.948a6,6,0,0,1-6,6H6a6,6,0,0,1-6-6V6A6,6,0,0,1,6,0Z" transform="translate(6 49.78)" fill="#fff"/>
    </g>
    <path id="Trazado_724686" data-name="Trazado 724686" d="M6,0H186.607a6,6,0,0,1,6,6V165.948a6,6,0,0,1-6,6H6a6,6,0,0,1-6-6V6A6,6,0,0,1,6,0Z" transform="translate(-5305 -6708.218)" fill="none" stroke="#00bcd4" stroke-width="2"/>
    <g transform="matrix(1, 0, 0, 1, -5311, -6758)" filter="url(#Trazado_724687)">
      <path id="Trazado_724687-2" data-name="Trazado 724687" d="M6,0H149.328a6,6,0,0,1,6,6V41.472a6,6,0,0,1-6,6H6a6,6,0,0,1-6-6V6A6,6,0,0,1,6,0Z" transform="translate(23.86 196.03)" fill="#00bcd4"/>
    </g>
    <path id="Trazado_724688" data-name="Trazado 724688" d="M6,0H149.328a6,6,0,0,1,6,6V41.472a6,6,0,0,1-6,6H6a6,6,0,0,1-6-6V6A6,6,0,0,1,6,0Z" transform="translate(-5287.137 -6561.53)" fill="none" stroke="#fff" stroke-width="2"/>
    <g transform="matrix(1, 0, 0, 1, -5311, -6758)" filter="url(#Trazado_724689)">
      <path id="Trazado_724689-2" data-name="Trazado 724689" d="M6,0H186.607a6,6,0,0,1,6,6V165.929a6,6,0,0,1-6,6H6a6,6,0,0,1-6-6V6A6,6,0,0,1,6,0Z" transform="translate(239.03 70.07)" fill="#fff"/>
    </g>
    <path id="Trazado_724690" data-name="Trazado 724690" d="M6,0H186.607a6,6,0,0,1,6,6V165.929a6,6,0,0,1-6,6H6a6,6,0,0,1-6-6V6A6,6,0,0,1,6,0Z" transform="translate(-5072.008 -6687.928)" fill="none" stroke="#7e5ee3" stroke-width="2"/>
    <g transform="matrix(1, 0, 0, 1, -5311, -6758)" filter="url(#Trazado_724691)">
      <path id="Trazado_724691-2" data-name="Trazado 724691" d="M6,0H149.328a6,6,0,0,1,6,6V41.453a6,6,0,0,1-6,6H6a6,6,0,0,1-6-6V6A6,6,0,0,1,6,0Z" transform="translate(257.63 49.78)" fill="#7e5ee3"/>
    </g>
    <path id="Trazado_724692" data-name="Trazado 724692" d="M6,0H149.328a6,6,0,0,1,6,6V41.453a6,6,0,0,1-6,6H6a6,6,0,0,1-6-6V6A6,6,0,0,1,6,0Z" transform="translate(-5053.368 -6708.218)" fill="none" stroke="#fff" stroke-width="2"/>
    <g transform="matrix(1, 0, 0, 1, -5311, -6758)" filter="url(#Trazado_724504)">
      <path id="Trazado_724504-2" data-name="Trazado 724504" d="M6,0H186.607a6,6,0,0,1,6,6V165.948a6,6,0,0,1-6,6H6a6,6,0,0,1-6-6V6A6,6,0,0,1,6,0Z" transform="translate(471.98 49.78)" fill="#fff"/>
    </g>
    <path id="Trazado_724693" data-name="Trazado 724693" d="M6,0H186.607a6,6,0,0,1,6,6V165.948a6,6,0,0,1-6,6H6a6,6,0,0,1-6-6V6A6,6,0,0,1,6,0Z" transform="translate(-4839.015 -6708.218)" fill="none" stroke="#4cebff" stroke-width="2"/>
    <g transform="matrix(1, 0, 0, 1, -5311, -6758)" filter="url(#Trazado_724694)">
      <path id="Trazado_724694-2" data-name="Trazado 724694" d="M6,0H149.328a6,6,0,0,1,6,6V41.472a6,6,0,0,1-6,6H6a6,6,0,0,1-6-6V6A6,6,0,0,1,6,0Z" transform="translate(489.85 196.47)" fill="#4cebff"/>
    </g>
    <path id="Trazado_724695" data-name="Trazado 724695" d="M6,0H149.328a6,6,0,0,1,6,6V41.472a6,6,0,0,1-6,6H6a6,6,0,0,1-6-6V6A6,6,0,0,1,6,0Z" transform="translate(-4821.152 -6561.53)" fill="none" stroke="#fff" stroke-width="2"/>
    <path id="Trazado_724500" data-name="Trazado 724500" d="M99.087,253.093c27.044,27.438,68.5,45,115,45,41.865,0,79.651-14.242,106.5-37.112" transform="translate(-5308.864 -6765.361)" fill="none" stroke="#727997" stroke-miterlimit="10" stroke-width="2"/>
    <path id="Trazado_724501" data-name="Trazado 724501" d="M327.734,269.895l-2.592-7.369-7.1-3.25,17.435-6.183Z" transform="translate(-5315.257 -6765.361)" fill="#727997"/>
    <path id="Trazado_724502" data-name="Trazado 724502" d="M340.314,46c27.044-27.438,68.5-45,115-45,41.865,0,79.651,14.242,106.5,37.112" transform="translate(-5315.907 -6758)" fill="none" stroke="#727997" stroke-miterlimit="10" stroke-width="2"/>
    <path id="Trazado_724503" data-name="Trazado 724503" d="M559.265,40.667l7.1-3.25,2.592-7.369,7.738,16.8Z" transform="translate(-5322.301 -6758.848)" fill="#727997"/>
    <path id="Trazado_724696" data-name="Trazado 724696" d="M55.74,5.116H52.473V14h-2.2V5.116H47.053V3.336H55.74ZM55,9.964a4.7,4.7,0,0,1,.454-2.1,3.324,3.324,0,0,1,1.307-1.428,3.814,3.814,0,0,1,1.981-.505,3.609,3.609,0,0,1,2.618.981,3.939,3.939,0,0,1,1.132,2.666l.015.542a4.142,4.142,0,0,1-1.018,2.926,3.946,3.946,0,0,1-5.468,0A4.215,4.215,0,0,1,55,10.06Zm2.117.15a2.962,2.962,0,0,0,.425,1.727,1.526,1.526,0,0,0,2.417.007,3.241,3.241,0,0,0,.432-1.889,2.933,2.933,0,0,0-.432-1.716,1.4,1.4,0,0,0-1.216-.609,1.382,1.382,0,0,0-1.2.605A3.3,3.3,0,0,0,57.116,10.115Zm6.365-.136a4.776,4.776,0,0,1,.831-2.952,2.7,2.7,0,0,1,2.274-1.1,2.427,2.427,0,0,1,1.912.864V2.75h2.124V14H68.711l-.1-.842a2.491,2.491,0,0,1-2.036.989,2.69,2.69,0,0,1-2.245-1.1A4.93,4.93,0,0,1,63.481,9.979Zm2.117.151a3.146,3.146,0,0,0,.388,1.714,1.263,1.263,0,0,0,1.128.6,1.416,1.416,0,0,0,1.384-.831V8.467a1.4,1.4,0,0,0-1.37-.831Q65.6,7.635,65.6,10.13Zm6.335-.165a4.7,4.7,0,0,1,.454-2.1,3.324,3.324,0,0,1,1.307-1.428,3.814,3.814,0,0,1,1.981-.505,3.609,3.609,0,0,1,2.618.981,3.939,3.939,0,0,1,1.132,2.666l.015.542a4.142,4.142,0,0,1-1.018,2.926,3.946,3.946,0,0,1-5.468,0,4.215,4.215,0,0,1-1.022-2.988Zm2.117.15a2.962,2.962,0,0,0,.425,1.727,1.526,1.526,0,0,0,2.417.007,3.241,3.241,0,0,0,.432-1.889,2.933,2.933,0,0,0-.432-1.716,1.4,1.4,0,0,0-1.216-.609,1.382,1.382,0,0,0-1.2.605A3.3,3.3,0,0,0,74.05,10.115Zm6.79-.451a11.24,11.24,0,0,1,.447-3.193A8.427,8.427,0,0,1,82.6,3.786a4.923,4.923,0,0,1,1.89-1.622l.41,1.143a5.1,5.1,0,0,0-1.67,2.446,11.327,11.327,0,0,0-.6,3.867v.227a11.543,11.543,0,0,0,.593,3.882A5.2,5.2,0,0,0,84.9,16.212l-.41,1.121a4.925,4.925,0,0,1-1.857-1.578,8.286,8.286,0,0,1-1.315-2.611,11.173,11.173,0,0,1-.483-3.091ZM90.6,14a2.351,2.351,0,0,1-.212-.71,2.561,2.561,0,0,1-2,.857,2.814,2.814,0,0,1-1.93-.674,2.167,2.167,0,0,1-.765-1.7,2.24,2.24,0,0,1,.934-1.934,4.608,4.608,0,0,1,2.7-.681H90.3V8.7a1.306,1.306,0,0,0-.282-.879,1.109,1.109,0,0,0-.89-.33,1.261,1.261,0,0,0-.839.256.871.871,0,0,0-.3.7H85.871A2.126,2.126,0,0,1,86.3,7.181a2.808,2.808,0,0,1,1.2-.919,4.378,4.378,0,0,1,1.743-.333,3.459,3.459,0,0,1,2.325.736,2.575,2.575,0,0,1,.861,2.069v3.435a3.789,3.789,0,0,0,.315,1.707V14Zm-1.75-1.472a1.823,1.823,0,0,0,.864-.209,1.371,1.371,0,0,0,.586-.56V10.4h-.791q-1.589,0-1.692,1.1l-.007.125a.847.847,0,0,0,.278.652A1.081,1.081,0,0,0,88.852,12.528Zm8.848-2.7a10.666,10.666,0,0,1-.476,3.186,8.648,8.648,0,0,1-1.37,2.7,4.935,4.935,0,0,1-1.912,1.611l-.41-1.121a5.15,5.15,0,0,0,1.641-2.417,11.192,11.192,0,0,0,.623-3.757V9.649a11.445,11.445,0,0,0-.6-3.86,5.369,5.369,0,0,0-1.666-2.5l.41-1.121a4.936,4.936,0,0,1,1.879,1.567,8.537,8.537,0,0,1,1.37,2.644A10.59,10.59,0,0,1,97.7,9.5Zm5.933,1.978a.682.682,0,0,0-.385-.612,4.368,4.368,0,0,0-1.234-.4q-2.827-.593-2.827-2.4a2.178,2.178,0,0,1,.875-1.761,3.531,3.531,0,0,1,2.289-.707,3.8,3.8,0,0,1,2.413.71,2.239,2.239,0,0,1,.9,1.846h-2.117a1.024,1.024,0,0,0-.293-.751,1.24,1.24,0,0,0-.916-.3,1.267,1.267,0,0,0-.828.242.763.763,0,0,0-.293.615.652.652,0,0,0,.333.568,3.428,3.428,0,0,0,1.124.374,9.183,9.183,0,0,1,1.333.355,2.19,2.19,0,0,1,1.677,2.131,2.067,2.067,0,0,1-.93,1.754,4.013,4.013,0,0,1-2.4.67,4.191,4.191,0,0,1-1.769-.355,2.968,2.968,0,0,1-1.212-.974,2.263,2.263,0,0,1-.439-1.337h2.007a1.105,1.105,0,0,0,.417.864,1.656,1.656,0,0,0,1.04.3,1.533,1.533,0,0,0,.919-.231A.718.718,0,0,0,103.633,11.81Z" transform="translate(-5286.971 -6546.971)" fill="#fff"/>
    <path id="Trazado_724697" data-name="Trazado 724697" d="M37.469,14V3.336H40.75a4.983,4.983,0,0,1,2.516.634A4.418,4.418,0,0,1,45,5.771a5.557,5.557,0,0,1,.623,2.655v.491a5.573,5.573,0,0,1-.612,2.644,4.38,4.38,0,0,1-1.725,1.794A5.021,5.021,0,0,1,40.772,14Zm2.2-8.884v7.119h1.062a2.386,2.386,0,0,0,1.97-.842,3.806,3.806,0,0,0,.7-2.41V8.419a3.867,3.867,0,0,0-.674-2.465,2.378,2.378,0,0,0-1.97-.839Zm11.06,9.031a3.89,3.89,0,0,1-2.838-1.069,3.8,3.8,0,0,1-1.095-2.849v-.205a4.787,4.787,0,0,1,.461-2.135,3.386,3.386,0,0,1,1.307-1.45,3.669,3.669,0,0,1,1.93-.509,3.289,3.289,0,0,1,2.56,1.025,4.167,4.167,0,0,1,.934,2.908v.864H48.939a1.966,1.966,0,0,0,.619,1.245,1.871,1.871,0,0,0,1.307.469,2.285,2.285,0,0,0,1.912-.886l1.04,1.165a3.178,3.178,0,0,1-1.289,1.051A4.229,4.229,0,0,1,50.726,14.146Zm-.242-6.511a1.323,1.323,0,0,0-1.022.427,2.209,2.209,0,0,0-.5,1.221h2.944V9.114a1.576,1.576,0,0,0-.381-1.092A1.365,1.365,0,0,0,50.484,7.635Zm8.994,4.175a.682.682,0,0,0-.385-.612,4.368,4.368,0,0,0-1.234-.4q-2.827-.593-2.827-2.4a2.178,2.178,0,0,1,.875-1.761A3.531,3.531,0,0,1,58.2,5.929a3.8,3.8,0,0,1,2.413.71,2.239,2.239,0,0,1,.9,1.846H59.4a1.024,1.024,0,0,0-.293-.751,1.24,1.24,0,0,0-.916-.3,1.267,1.267,0,0,0-.828.242.763.763,0,0,0-.293.615.652.652,0,0,0,.333.568,3.428,3.428,0,0,0,1.124.374,9.183,9.183,0,0,1,1.333.355,2.19,2.19,0,0,1,1.677,2.131,2.067,2.067,0,0,1-.93,1.754,4.013,4.013,0,0,1-2.4.67,4.191,4.191,0,0,1-1.769-.355,2.968,2.968,0,0,1-1.212-.974,2.263,2.263,0,0,1-.439-1.337h2.007a1.105,1.105,0,0,0,.417.864,1.656,1.656,0,0,0,1.04.3,1.533,1.533,0,0,0,.919-.231A.718.718,0,0,0,59.479,11.81Zm6.716.63a1.388,1.388,0,0,0,.952-.322,1.129,1.129,0,0,0,.381-.857h1.985a2.715,2.715,0,0,1-.439,1.476,2.9,2.9,0,0,1-1.183,1.04,3.7,3.7,0,0,1-1.659.37,3.44,3.44,0,0,1-2.681-1.08,4.275,4.275,0,0,1-.981-2.985V9.942a4.226,4.226,0,0,1,.974-2.922,3.4,3.4,0,0,1,2.673-1.091,3.333,3.333,0,0,1,2.384.846,3,3,0,0,1,.912,2.252H67.528a1.455,1.455,0,0,0-.381-1.005,1.416,1.416,0,0,0-2.084.153,3.125,3.125,0,0,0-.377,1.749v.22A3.164,3.164,0,0,0,65.06,11.9,1.291,1.291,0,0,0,66.195,12.44Zm8.979-4.38A5.751,5.751,0,0,0,74.413,8a1.55,1.55,0,0,0-1.575.813V14H70.721V6.075h2l.059.945a1.961,1.961,0,0,1,1.765-1.091,2.218,2.218,0,0,1,.659.1ZM78.426,14H76.3V6.075h2.124ZM76.178,4.024a1.042,1.042,0,0,1,.319-.784,1.373,1.373,0,0,1,1.732,0,1.036,1.036,0,0,1,.322.784,1.039,1.039,0,0,1-.326.791,1.358,1.358,0,0,1-1.721,0A1.039,1.039,0,0,1,76.178,4.024ZM87.3,10.111a4.753,4.753,0,0,1-.831,2.933,2.665,2.665,0,0,1-2.245,1.1,2.469,2.469,0,0,1-1.941-.835v3.735H80.169V6.075h1.963l.073.776a2.488,2.488,0,0,1,2.007-.923A2.683,2.683,0,0,1,86.49,7.013,4.882,4.882,0,0,1,87.3,10Zm-2.117-.161a3.136,3.136,0,0,0-.392-1.712,1.275,1.275,0,0,0-1.139-.6,1.385,1.385,0,0,0-1.37.764v3.255a1.409,1.409,0,0,0,1.384.786Q85.187,12.44,85.187,9.949Zm6.724,2.49a1.388,1.388,0,0,0,.952-.322,1.129,1.129,0,0,0,.381-.857h1.985a2.715,2.715,0,0,1-.439,1.476,2.9,2.9,0,0,1-1.183,1.04,3.7,3.7,0,0,1-1.659.37,3.44,3.44,0,0,1-2.681-1.08,4.275,4.275,0,0,1-.981-2.985V9.942a4.226,4.226,0,0,1,.974-2.922,3.4,3.4,0,0,1,2.673-1.091,3.333,3.333,0,0,1,2.384.846,3,3,0,0,1,.912,2.252H93.243a1.455,1.455,0,0,0-.381-1.005,1.416,1.416,0,0,0-2.084.153A3.125,3.125,0,0,0,90.4,9.924v.22a3.164,3.164,0,0,0,.374,1.761A1.291,1.291,0,0,0,91.91,12.44ZM98.67,14H96.546V6.075H98.67ZM96.422,4.024a1.042,1.042,0,0,1,.319-.784,1.373,1.373,0,0,1,1.732,0,1.036,1.036,0,0,1,.322.784,1.039,1.039,0,0,1-.326.791,1.358,1.358,0,0,1-1.721,0A1.039,1.039,0,0,1,96.422,4.024Zm3.662,5.94a4.7,4.7,0,0,1,.454-2.1,3.324,3.324,0,0,1,1.307-1.428,3.814,3.814,0,0,1,1.981-.505,3.609,3.609,0,0,1,2.618.981,3.939,3.939,0,0,1,1.132,2.666l.015.542a4.142,4.142,0,0,1-1.018,2.926,3.946,3.946,0,0,1-5.468,0,4.215,4.215,0,0,1-1.022-2.988Zm2.117.15a2.962,2.962,0,0,0,.425,1.727,1.526,1.526,0,0,0,2.417.007,3.241,3.241,0,0,0,.432-1.889,2.933,2.933,0,0,0-.432-1.716,1.4,1.4,0,0,0-1.216-.609,1.382,1.382,0,0,0-1.2.605A3.3,3.3,0,0,0,102.2,10.115Zm2.043-7.365h2.307l-2.029,2.271H102.8Zm6.6,3.325.066.916a2.767,2.767,0,0,1,2.278-1.062,2.3,2.3,0,0,1,1.875.74,3.451,3.451,0,0,1,.63,2.212V14h-2.117V8.92a1.379,1.379,0,0,0-.293-.98,1.31,1.31,0,0,0-.974-.3,1.456,1.456,0,0,0-1.34.763V14h-2.117V6.075Zm-77.5,21.9a4.776,4.776,0,0,1,.831-2.952,2.7,2.7,0,0,1,2.274-1.1,2.427,2.427,0,0,1,1.912.864V20.75h2.124V32H38.568l-.1-.842a2.491,2.491,0,0,1-2.036.989,2.69,2.69,0,0,1-2.245-1.1A4.93,4.93,0,0,1,33.338,27.979Zm2.117.151a3.146,3.146,0,0,0,.388,1.714,1.263,1.263,0,0,0,1.128.6,1.416,1.416,0,0,0,1.384-.831V26.467a1.4,1.4,0,0,0-1.37-.831Q35.455,25.635,35.455,28.13Zm10.313,4.017a3.89,3.89,0,0,1-2.838-1.069,3.8,3.8,0,0,1-1.095-2.849v-.205a4.787,4.787,0,0,1,.461-2.135,3.386,3.386,0,0,1,1.307-1.45,3.669,3.669,0,0,1,1.93-.509,3.289,3.289,0,0,1,2.56,1.025,4.167,4.167,0,0,1,.934,2.908v.864H43.98a1.966,1.966,0,0,0,.619,1.245,1.871,1.871,0,0,0,1.307.469,2.285,2.285,0,0,0,1.912-.886l1.04,1.165a3.178,3.178,0,0,1-1.289,1.051A4.229,4.229,0,0,1,45.768,32.146Zm-.242-6.511a1.323,1.323,0,0,0-1.022.427,2.209,2.209,0,0,0-.5,1.221h2.944v-.169a1.576,1.576,0,0,0-.381-1.092A1.365,1.365,0,0,0,45.526,25.635ZM52.462,32H50.338V20.75h2.124Zm9.126.146a3.89,3.89,0,0,1-2.838-1.069,3.8,3.8,0,0,1-1.095-2.849v-.205a4.787,4.787,0,0,1,.461-2.135,3.386,3.386,0,0,1,1.307-1.45,3.669,3.669,0,0,1,1.93-.509,3.289,3.289,0,0,1,2.56,1.025,4.167,4.167,0,0,1,.934,2.908v.864H59.8a1.966,1.966,0,0,0,.619,1.245,1.871,1.871,0,0,0,1.307.469,2.285,2.285,0,0,0,1.912-.886l1.04,1.165a3.178,3.178,0,0,1-1.289,1.051A4.229,4.229,0,0,1,61.588,32.146Zm-.242-6.511a1.323,1.323,0,0,0-1.022.427,2.209,2.209,0,0,0-.5,1.221h2.944v-.169a1.576,1.576,0,0,0-.381-1.092A1.365,1.365,0,0,0,61.346,25.635ZM68.282,32H66.158V20.75h2.124Zm5.391.146a3.89,3.89,0,0,1-2.838-1.069,3.8,3.8,0,0,1-1.095-2.849v-.205a4.787,4.787,0,0,1,.461-2.135,3.386,3.386,0,0,1,1.307-1.45,3.669,3.669,0,0,1,1.93-.509A3.289,3.289,0,0,1,76,24.954a4.167,4.167,0,0,1,.934,2.908v.864H71.886a1.966,1.966,0,0,0,.619,1.245,1.871,1.871,0,0,0,1.307.469,2.285,2.285,0,0,0,1.912-.886l1.04,1.165a3.178,3.178,0,0,1-1.289,1.051A4.229,4.229,0,0,1,73.673,32.146Zm-.242-6.511a1.323,1.323,0,0,0-1.022.427,2.209,2.209,0,0,0-.5,1.221h2.944v-.169a1.576,1.576,0,0,0-.381-1.092A1.365,1.365,0,0,0,73.431,25.635Zm6.687-1.56.066.886a2.785,2.785,0,0,1,2.278-1.033,2.114,2.114,0,0,1,2.1,1.208,2.721,2.721,0,0,1,2.38-1.208,2.364,2.364,0,0,1,1.919.751,3.451,3.451,0,0,1,.63,2.26V32H87.369V26.935a1.515,1.515,0,0,0-.264-.987,1.167,1.167,0,0,0-.93-.312,1.321,1.321,0,0,0-1.318.91L84.864,32H82.748V26.942a1.5,1.5,0,0,0-.271-1,1.178,1.178,0,0,0-.923-.308,1.371,1.371,0,0,0-1.3.749V32H78.133V24.075Zm14.648,8.071a3.89,3.89,0,0,1-2.838-1.069,3.8,3.8,0,0,1-1.095-2.849v-.205a4.787,4.787,0,0,1,.461-2.135,3.386,3.386,0,0,1,1.307-1.45,3.669,3.669,0,0,1,1.93-.509,3.289,3.289,0,0,1,2.56,1.025,4.167,4.167,0,0,1,.934,2.908v.864H92.979a1.966,1.966,0,0,0,.619,1.245,1.871,1.871,0,0,0,1.307.469,2.285,2.285,0,0,0,1.912-.886l1.04,1.165a3.178,3.178,0,0,1-1.289,1.051A4.229,4.229,0,0,1,94.767,32.146Zm-.242-6.511a1.323,1.323,0,0,0-1.022.427,2.209,2.209,0,0,0-.5,1.221h2.944v-.169a1.576,1.576,0,0,0-.381-1.092A1.365,1.365,0,0,0,94.525,25.635Zm6.65-1.56.066.916a2.767,2.767,0,0,1,2.278-1.062,2.3,2.3,0,0,1,1.875.74,3.451,3.451,0,0,1,.63,2.212V32h-2.117V26.92a1.379,1.379,0,0,0-.293-.98,1.31,1.31,0,0,0-.974-.3,1.456,1.456,0,0,0-1.34.763V32H99.183V24.075Zm8.987-1.948v1.948h1.355v1.553h-1.355v3.955a.944.944,0,0,0,.168.63.846.846,0,0,0,.645.19,3.376,3.376,0,0,0,.623-.051v1.6a4.358,4.358,0,0,1-1.282.19,2.021,2.021,0,0,1-2.271-2.249v-4.27h-1.157V24.075h1.157V22.127Zm1.985,5.837a4.7,4.7,0,0,1,.454-2.1,3.324,3.324,0,0,1,1.307-1.428,3.814,3.814,0,0,1,1.981-.505,3.609,3.609,0,0,1,2.618.981,3.939,3.939,0,0,1,1.132,2.666l.015.542a4.142,4.142,0,0,1-1.018,2.926,3.946,3.946,0,0,1-5.468,0,4.215,4.215,0,0,1-1.022-2.988Zm2.117.15a2.962,2.962,0,0,0,.425,1.727,1.526,1.526,0,0,0,2.417.007,3.241,3.241,0,0,0,.432-1.889,2.933,2.933,0,0,0-.432-1.716,1.4,1.4,0,0,0-1.216-.609,1.382,1.382,0,0,0-1.2.605A3.3,3.3,0,0,0,114.264,28.115Z" transform="translate(-5050.971 -6702.971)" fill="#fff"/>
    <path id="Trazado_724698" data-name="Trazado 724698" d="M51.92,10.448a3.774,3.774,0,0,1-1.271,2.71,4.463,4.463,0,0,1-3.021.989A4.013,4.013,0,0,1,44.4,12.766a5.661,5.661,0,0,1-1.176-3.79V8.324a6.393,6.393,0,0,1,.542-2.71,4.062,4.062,0,0,1,1.549-1.8,4.841,4.841,0,0,1,5.314.363,4.055,4.055,0,0,1,1.3,2.776h-2.2a2.227,2.227,0,0,0-.575-1.5,2.129,2.129,0,0,0-1.505-.465,1.867,1.867,0,0,0-1.644.787,4.413,4.413,0,0,0-.56,2.443v.806a4.723,4.723,0,0,0,.524,2.527,1.832,1.832,0,0,0,1.652.8,2.169,2.169,0,0,0,1.52-.465,2.1,2.1,0,0,0,.575-1.439Zm.974-.483a4.7,4.7,0,0,1,.454-2.1,3.324,3.324,0,0,1,1.307-1.428,3.814,3.814,0,0,1,1.981-.505,3.609,3.609,0,0,1,2.618.981,3.939,3.939,0,0,1,1.132,2.666l.015.542a4.142,4.142,0,0,1-1.018,2.926,3.946,3.946,0,0,1-5.468,0,4.215,4.215,0,0,1-1.022-2.988Zm2.117.15a2.962,2.962,0,0,0,.425,1.727,1.526,1.526,0,0,0,2.417.007,3.241,3.241,0,0,0,.432-1.889,2.933,2.933,0,0,0-.432-1.716,1.4,1.4,0,0,0-1.216-.609,1.382,1.382,0,0,0-1.2.605A3.3,3.3,0,0,0,55.011,10.115Zm8.643-4.039.066.916A2.767,2.767,0,0,1,66,5.929a2.3,2.3,0,0,1,1.875.74A3.451,3.451,0,0,1,68.5,8.88V14H66.385V8.92a1.379,1.379,0,0,0-.293-.98,1.31,1.31,0,0,0-.974-.3,1.456,1.456,0,0,0-1.34.763V14H61.661V6.075Zm6.123,3.9a4.776,4.776,0,0,1,.831-2.952,2.7,2.7,0,0,1,2.274-1.1,2.427,2.427,0,0,1,1.912.864V2.75h2.124V14H75.006l-.1-.842a2.491,2.491,0,0,1-2.036.989,2.69,2.69,0,0,1-2.245-1.1A4.93,4.93,0,0,1,69.776,9.979Zm2.117.151a3.146,3.146,0,0,0,.388,1.714,1.263,1.263,0,0,0,1.128.6,1.416,1.416,0,0,0,1.384-.831V8.467a1.4,1.4,0,0,0-1.37-.831Q71.893,7.635,71.893,10.13Zm8.9,3.87H78.668V6.075h2.124ZM78.543,4.024a1.042,1.042,0,0,1,.319-.784,1.373,1.373,0,0,1,1.732,0,1.036,1.036,0,0,1,.322.784,1.039,1.039,0,0,1-.326.791,1.358,1.358,0,0,1-1.721,0A1.039,1.039,0,0,1,78.543,4.024Zm7.288,8.416a1.388,1.388,0,0,0,.952-.322,1.129,1.129,0,0,0,.381-.857h1.985a2.715,2.715,0,0,1-.439,1.476,2.9,2.9,0,0,1-1.183,1.04,3.7,3.7,0,0,1-1.659.37,3.44,3.44,0,0,1-2.681-1.08,4.275,4.275,0,0,1-.981-2.985V9.942A4.226,4.226,0,0,1,83.18,7.02a3.4,3.4,0,0,1,2.673-1.091,3.333,3.333,0,0,1,2.384.846,3,3,0,0,1,.912,2.252H87.164a1.455,1.455,0,0,0-.381-1.005,1.416,1.416,0,0,0-2.084.153,3.125,3.125,0,0,0-.377,1.749v.22A3.164,3.164,0,0,0,84.7,11.9,1.291,1.291,0,0,0,85.831,12.44ZM92.591,14H90.467V6.075h2.124ZM90.343,4.024a1.042,1.042,0,0,1,.319-.784,1.373,1.373,0,0,1,1.732,0,1.036,1.036,0,0,1,.322.784,1.039,1.039,0,0,1-.326.791,1.358,1.358,0,0,1-1.721,0A1.039,1.039,0,0,1,90.343,4.024ZM94,9.964a4.7,4.7,0,0,1,.454-2.1,3.324,3.324,0,0,1,1.307-1.428,3.814,3.814,0,0,1,1.981-.505,3.609,3.609,0,0,1,2.618.981A3.939,3.939,0,0,1,101.5,9.576l.015.542a4.142,4.142,0,0,1-1.018,2.926,3.946,3.946,0,0,1-5.468,0A4.215,4.215,0,0,1,94,10.06Zm2.117.15a2.962,2.962,0,0,0,.425,1.727,1.526,1.526,0,0,0,2.417.007A3.241,3.241,0,0,0,99.4,9.961a2.933,2.933,0,0,0-.432-1.716,1.4,1.4,0,0,0-1.216-.609,1.382,1.382,0,0,0-1.2.605A3.3,3.3,0,0,0,96.122,10.115ZM98.165,2.75h2.307L98.443,5.021H96.722Zm6.6,3.325.066.916a2.767,2.767,0,0,1,2.278-1.062,2.3,2.3,0,0,1,1.875.74,3.451,3.451,0,0,1,.63,2.212V14H107.5V8.92a1.379,1.379,0,0,0-.293-.98,1.31,1.31,0,0,0-.974-.3,1.456,1.456,0,0,0-1.34.763V14h-2.117V6.075ZM47.741,26.06A5.75,5.75,0,0,0,46.98,26a1.55,1.55,0,0,0-1.575.813V32H43.288V24.075h2l.059.945a1.961,1.961,0,0,1,1.765-1.091,2.218,2.218,0,0,1,.659.1Zm4.526,6.086a3.89,3.89,0,0,1-2.838-1.069,3.8,3.8,0,0,1-1.095-2.849v-.205a4.787,4.787,0,0,1,.461-2.135,3.386,3.386,0,0,1,1.307-1.45,3.669,3.669,0,0,1,1.93-.509,3.289,3.289,0,0,1,2.56,1.025,4.167,4.167,0,0,1,.934,2.908v.864H50.481a1.966,1.966,0,0,0,.619,1.245,1.871,1.871,0,0,0,1.307.469,2.285,2.285,0,0,0,1.912-.886l1.04,1.165a3.178,3.178,0,0,1-1.289,1.051A4.229,4.229,0,0,1,52.268,32.146Zm-.242-6.511A1.323,1.323,0,0,0,51,26.062a2.209,2.209,0,0,0-.5,1.221h2.944v-.169a1.576,1.576,0,0,0-.381-1.092A1.365,1.365,0,0,0,52.026,25.635ZM61.02,29.81a.682.682,0,0,0-.385-.612,4.368,4.368,0,0,0-1.234-.4q-2.827-.593-2.827-2.4a2.178,2.178,0,0,1,.875-1.761,3.531,3.531,0,0,1,2.289-.707,3.8,3.8,0,0,1,2.413.71,2.239,2.239,0,0,1,.9,1.846H60.94a1.024,1.024,0,0,0-.293-.751,1.24,1.24,0,0,0-.916-.3,1.267,1.267,0,0,0-.828.242.763.763,0,0,0-.293.615.652.652,0,0,0,.333.568,3.428,3.428,0,0,0,1.124.374,9.183,9.183,0,0,1,1.333.355,2.19,2.19,0,0,1,1.677,2.131,2.067,2.067,0,0,1-.93,1.754,4.013,4.013,0,0,1-2.4.67,4.191,4.191,0,0,1-1.769-.355,2.968,2.968,0,0,1-1.212-.974,2.263,2.263,0,0,1-.439-1.337h2.007a1.105,1.105,0,0,0,.417.864,1.656,1.656,0,0,0,1.04.3,1.533,1.533,0,0,0,.919-.231A.718.718,0,0,0,61.02,29.81Zm5.955-7.683v1.948H68.33v1.553H66.975v3.955a.944.944,0,0,0,.168.63.846.846,0,0,0,.645.19,3.376,3.376,0,0,0,.623-.051v1.6a4.358,4.358,0,0,1-1.282.19A2.021,2.021,0,0,1,64.858,29.9v-4.27H63.7V24.075h1.157V22.127Zm6.987,3.933A5.75,5.75,0,0,0,73.2,26a1.55,1.55,0,0,0-1.575.813V32H69.509V24.075h2l.059.945a1.961,1.961,0,0,1,1.765-1.091,2.218,2.218,0,0,1,.659.1ZM77.214,32H75.09V24.075h2.124Zm-2.249-9.976a1.042,1.042,0,0,1,.319-.784,1.373,1.373,0,0,1,1.732,0,1.118,1.118,0,0,1,0,1.575,1.358,1.358,0,0,1-1.721,0A1.039,1.039,0,0,1,74.966,22.024Zm7.288,8.416a1.388,1.388,0,0,0,.952-.322,1.129,1.129,0,0,0,.381-.857h1.985a2.715,2.715,0,0,1-.439,1.476,2.9,2.9,0,0,1-1.183,1.04,3.7,3.7,0,0,1-1.659.37,3.44,3.44,0,0,1-2.681-1.08,4.275,4.275,0,0,1-.981-2.985v-.139A4.226,4.226,0,0,1,79.6,25.02a3.4,3.4,0,0,1,2.673-1.091,3.333,3.333,0,0,1,2.384.846,3,3,0,0,1,.912,2.252H83.586a1.455,1.455,0,0,0-.381-1.005,1.416,1.416,0,0,0-2.084.153,3.125,3.125,0,0,0-.377,1.749v.22a3.164,3.164,0,0,0,.374,1.761A1.291,1.291,0,0,0,82.253,30.44Zm7.061-8.313v1.948h1.355v1.553H89.314v3.955a.944.944,0,0,0,.168.63.846.846,0,0,0,.645.19,3.376,3.376,0,0,0,.623-.051v1.6a4.358,4.358,0,0,1-1.282.19A2.021,2.021,0,0,1,87.2,29.9v-4.27H86.04V24.075H87.2V22.127ZM94.082,32H91.958V24.075h2.124Zm-2.249-9.976a1.042,1.042,0,0,1,.319-.784,1.373,1.373,0,0,1,1.732,0,1.118,1.118,0,0,1,0,1.575,1.358,1.358,0,0,1-1.721,0A1.039,1.039,0,0,1,91.833,22.024Zm6.958,7.39,1.472-5.339h2.212L99.8,32H97.781l-2.673-7.925h2.212Zm9.1,2.585a2.351,2.351,0,0,1-.212-.71,2.561,2.561,0,0,1-2,.857,2.814,2.814,0,0,1-1.93-.674,2.167,2.167,0,0,1-.765-1.7,2.24,2.24,0,0,1,.934-1.934,4.608,4.608,0,0,1,2.7-.681h.974V26.7a1.306,1.306,0,0,0-.282-.879,1.109,1.109,0,0,0-.89-.33,1.261,1.261,0,0,0-.839.256.871.871,0,0,0-.3.7h-2.117a2.126,2.126,0,0,1,.425-1.274,2.808,2.808,0,0,1,1.2-.919,4.378,4.378,0,0,1,1.743-.333,3.459,3.459,0,0,1,2.325.736,2.575,2.575,0,0,1,.861,2.069v3.435a3.789,3.789,0,0,0,.315,1.707V32Zm-1.75-1.472a1.823,1.823,0,0,0,.864-.209,1.371,1.371,0,0,0,.586-.56V28.4H106.8q-1.589,0-1.692,1.1l-.007.125a.847.847,0,0,0,.278.652A1.081,1.081,0,0,0,106.137,30.528Z" transform="translate(-4818.971 -6554.971)" fill="#12263f"/>
    <path id="Trazado_724699" data-name="Trazado 724699" d="M12.705,4.83H9.38V14H7.542V4.83h-3.3V3.336h8.459Zm-.63,5.134a4.673,4.673,0,0,1,.461-2.1,3.37,3.37,0,0,1,1.3-1.436,3.653,3.653,0,0,1,1.919-.5,3.462,3.462,0,0,1,2.6,1.033A4.062,4.062,0,0,1,19.436,9.7l.007.417a4.715,4.715,0,0,1-.45,2.095A3.329,3.329,0,0,1,17.7,13.641a3.679,3.679,0,0,1-1.937.505,3.438,3.438,0,0,1-2.684-1.117,4.278,4.278,0,0,1-1.007-2.977Zm1.78.154a3.193,3.193,0,0,0,.505,1.915,1.643,1.643,0,0,0,1.406.692,1.625,1.625,0,0,0,1.4-.7,3.527,3.527,0,0,0,.5-2.058,3.152,3.152,0,0,0-.516-1.9,1.74,1.74,0,0,0-2.787-.011A3.46,3.46,0,0,0,13.855,10.118Zm6.76-.139a4.712,4.712,0,0,1,.85-2.941,2.722,2.722,0,0,1,2.278-1.11,2.587,2.587,0,0,1,2.036.879V2.75h1.78V14H25.948l-.088-.82a2.624,2.624,0,0,1-2.131.967,2.707,2.707,0,0,1-2.252-1.121A4.884,4.884,0,0,1,20.615,9.979Zm1.78.154a3.3,3.3,0,0,0,.465,1.886,1.509,1.509,0,0,0,1.322.677,1.681,1.681,0,0,0,1.6-.974V8.338A1.655,1.655,0,0,0,24.2,7.386a1.52,1.52,0,0,0-1.333.685A3.674,3.674,0,0,0,22.4,10.133ZM34.151,14a2.747,2.747,0,0,1-.205-.74,2.994,2.994,0,0,1-4.028.205,2.179,2.179,0,0,1-.754-1.685A2.25,2.25,0,0,1,30.1,9.836,4.561,4.561,0,0,1,32.8,9.159h1.091v-.52a1.388,1.388,0,0,0-.344-.985,1.365,1.365,0,0,0-1.047-.37,1.568,1.568,0,0,0-1,.3.941.941,0,0,0-.388.773h-1.78a1.975,1.975,0,0,1,.432-1.219,2.879,2.879,0,0,1,1.176-.89A4.129,4.129,0,0,1,32.6,5.929a3.325,3.325,0,0,1,2.219.7,2.494,2.494,0,0,1,.85,1.967v3.574a4.051,4.051,0,0,0,.3,1.707V14ZM32.2,12.718a2.025,2.025,0,0,0,.992-.256,1.713,1.713,0,0,0,.7-.688V10.279h-.959a2.624,2.624,0,0,0-1.487.344,1.115,1.115,0,0,0-.5.974,1.04,1.04,0,0,0,.341.817A1.319,1.319,0,0,0,32.2,12.718Zm8.738-2.739a4.712,4.712,0,0,1,.85-2.941,2.722,2.722,0,0,1,2.278-1.11,2.587,2.587,0,0,1,2.036.879V2.75h1.78V14H46.265l-.088-.82a2.624,2.624,0,0,1-2.131.967,2.707,2.707,0,0,1-2.252-1.121A4.884,4.884,0,0,1,40.933,9.979Zm1.78.154a3.3,3.3,0,0,0,.465,1.886A1.509,1.509,0,0,0,44.5,12.7a1.681,1.681,0,0,0,1.6-.974V8.338a1.655,1.655,0,0,0-1.582-.952,1.52,1.52,0,0,0-1.333.685A3.674,3.674,0,0,0,42.713,10.133Zm10.51,4.014a3.682,3.682,0,0,1-2.743-1.066,3.866,3.866,0,0,1-1.051-2.838v-.22a4.755,4.755,0,0,1,.458-2.12,3.484,3.484,0,0,1,1.285-1.454,3.4,3.4,0,0,1,1.846-.52,3.11,3.11,0,0,1,2.5,1.033A4.367,4.367,0,0,1,56.4,9.884V10.6H51.223a2.38,2.38,0,0,0,.656,1.553,1.968,1.968,0,0,0,1.447.571,2.41,2.41,0,0,0,1.992-.989l.959.916a3.2,3.2,0,0,1-1.271,1.1A3.978,3.978,0,0,1,53.223,14.146Zm-.212-6.79a1.5,1.5,0,0,0-1.183.513A2.657,2.657,0,0,0,51.253,9.3h3.391V9.166a2.163,2.163,0,0,0-.476-1.351A1.487,1.487,0,0,0,53.01,7.357ZM58.255,14V7.394H57.046V6.075h1.208V5.533a3.17,3.17,0,0,1,.4-1.6,2.46,2.46,0,0,1,1.1-1A3.955,3.955,0,0,1,61.455,2.6a4.975,4.975,0,0,1,1.124.125q.538.125,1.117.315l-.271,1.472a5.666,5.666,0,0,0-1.846-.352,1.649,1.649,0,0,0-1.179.355,1.421,1.421,0,0,0-.366,1.066v.5h1.56V7.394h-1.56V14Zm6.284,0h-1.78V6.075h1.78Zm3.625-7.925.051.916a2.849,2.849,0,0,1,2.307-1.062q2.476,0,2.52,2.834V14h-1.78V8.866a1.632,1.632,0,0,0-.326-1.117,1.371,1.371,0,0,0-1.066-.363,1.715,1.715,0,0,0-1.6.974V14h-1.78V6.075ZM76.748,14h-1.78V6.075h1.78Zm-1.89-9.99a.956.956,0,0,1,.26-.686.978.978,0,0,1,.743-.273.99.99,0,0,1,.747.273.949.949,0,0,1,.264.686.927.927,0,0,1-.264.675,1,1,0,0,1-.747.269.985.985,0,0,1-.743-.269A.934.934,0,0,1,74.859,4.01Zm7.083,8.716a1.609,1.609,0,0,0,1.106-.388,1.326,1.326,0,0,0,.469-.959h1.677a2.614,2.614,0,0,1-.461,1.381,3.027,3.027,0,0,1-1.172,1.014,3.492,3.492,0,0,1-1.6.374,3.379,3.379,0,0,1-2.637-1.077,4.27,4.27,0,0,1-.974-2.974V9.913a4.2,4.2,0,0,1,.967-2.9,3.348,3.348,0,0,1,2.637-1.088,3.256,3.256,0,0,1,2.3.824,2.952,2.952,0,0,1,.934,2.164H83.516A1.63,1.63,0,0,0,83.051,7.8a1.5,1.5,0,0,0-1.11-.439,1.566,1.566,0,0,0-1.333.626,3.2,3.2,0,0,0-.476,1.9v.286a3.248,3.248,0,0,0,.465,1.923A1.565,1.565,0,0,0,81.941,12.726ZM88.43,14h-1.78V6.075h1.78Zm-1.89-9.99a.956.956,0,0,1,.26-.686.978.978,0,0,1,.743-.273.99.99,0,0,1,.747.273.949.949,0,0,1,.264.686.927.927,0,0,1-.264.675,1,1,0,0,1-.747.269.985.985,0,0,1-.743-.269A.934.934,0,0,1,86.541,4.01Zm3.494,5.955a4.673,4.673,0,0,1,.461-2.1,3.37,3.37,0,0,1,1.3-1.436,3.653,3.653,0,0,1,1.919-.5,3.462,3.462,0,0,1,2.6,1.033A4.062,4.062,0,0,1,97.4,9.7l.007.417a4.715,4.715,0,0,1-.45,2.095,3.329,3.329,0,0,1-1.289,1.428,3.679,3.679,0,0,1-1.937.505,3.438,3.438,0,0,1-2.684-1.117,4.278,4.278,0,0,1-1.007-2.977Zm1.78.154a3.193,3.193,0,0,0,.505,1.915,1.643,1.643,0,0,0,1.406.692,1.625,1.625,0,0,0,1.4-.7,3.527,3.527,0,0,0,.5-2.058,3.152,3.152,0,0,0-.516-1.9,1.74,1.74,0,0,0-2.787-.011A3.46,3.46,0,0,0,91.814,10.118ZM94.2,2.75h2.029L94.2,4.969l-1.428,0Zm6.357,3.325.051.916a2.849,2.849,0,0,1,2.307-1.062q2.476,0,2.52,2.834V14h-1.78V8.866a1.632,1.632,0,0,0-.326-1.117,1.371,1.371,0,0,0-1.066-.363,1.715,1.715,0,0,0-1.6.974V14h-1.78V6.075Zm10.093,3.9a4.712,4.712,0,0,1,.85-2.941,2.722,2.722,0,0,1,2.278-1.11,2.587,2.587,0,0,1,2.036.879V2.75h1.78V14h-1.611l-.088-.82a2.624,2.624,0,0,1-2.131.967,2.707,2.707,0,0,1-2.252-1.121A4.884,4.884,0,0,1,110.652,9.979Zm1.78.154a3.3,3.3,0,0,0,.465,1.886,1.509,1.509,0,0,0,1.322.677,1.681,1.681,0,0,0,1.6-.974V8.338a1.655,1.655,0,0,0-1.582-.952,1.52,1.52,0,0,0-1.333.685A3.674,3.674,0,0,0,112.432,10.133Zm10.51,4.014a3.682,3.682,0,0,1-2.743-1.066,3.866,3.866,0,0,1-1.051-2.838v-.22a4.755,4.755,0,0,1,.458-2.12,3.484,3.484,0,0,1,1.285-1.454,3.4,3.4,0,0,1,1.846-.52,3.11,3.11,0,0,1,2.5,1.033,4.367,4.367,0,0,1,.883,2.922V10.6h-5.178a2.38,2.38,0,0,0,.656,1.553,1.968,1.968,0,0,0,1.447.571,2.41,2.41,0,0,0,1.992-.989l.959.916a3.2,3.2,0,0,1-1.271,1.1A3.978,3.978,0,0,1,122.942,14.146Zm-.212-6.79a1.5,1.5,0,0,0-1.183.513,2.657,2.657,0,0,0-.575,1.428h3.391V9.166a2.163,2.163,0,0,0-.476-1.351A1.487,1.487,0,0,0,122.73,7.357Zm11.726,2.761a4.76,4.76,0,0,1-.824,2.937,2.684,2.684,0,0,1-2.267,1.091,2.585,2.585,0,0,1-2.168-1l-.088.857H127.5V2.75h1.78V6.837a2.576,2.576,0,0,1,2.073-.908,2.715,2.715,0,0,1,2.278,1.077,4.839,4.839,0,0,1,.828,3.01Zm-1.78-.154a3.365,3.365,0,0,0-.454-1.934,1.512,1.512,0,0,0-1.318-.645A1.652,1.652,0,0,0,129.278,8.4v3.267a1.669,1.669,0,0,0,1.641,1.033,1.5,1.5,0,0,0,1.289-.623,3.26,3.26,0,0,0,.469-1.882Zm6.76,4.182a3.682,3.682,0,0,1-2.743-1.066,3.866,3.866,0,0,1-1.051-2.838v-.22A4.755,4.755,0,0,1,136.1,7.9a3.484,3.484,0,0,1,1.285-1.454,3.4,3.4,0,0,1,1.846-.52,3.11,3.11,0,0,1,2.5,1.033,4.367,4.367,0,0,1,.883,2.922V10.6h-5.178a2.38,2.38,0,0,0,.656,1.553,1.968,1.968,0,0,0,1.447.571,2.41,2.41,0,0,0,1.992-.989l.959.916a3.2,3.2,0,0,1-1.271,1.1A3.978,3.978,0,0,1,139.436,14.146Zm-.212-6.79a1.5,1.5,0,0,0-1.183.513,2.657,2.657,0,0,0-.575,1.428h3.391V9.166a2.163,2.163,0,0,0-.476-1.351A1.487,1.487,0,0,0,139.224,7.357ZM26.457,32h-1.78V24.075h1.78Zm-1.89-9.99a.956.956,0,0,1,.26-.686.978.978,0,0,1,.743-.273.99.99,0,0,1,.747.273.949.949,0,0,1,.264.686.927.927,0,0,1-.264.675,1,1,0,0,1-.747.269.985.985,0,0,1-.743-.269A.934.934,0,0,1,24.567,22.01Zm5.479,2.065.051.916A2.849,2.849,0,0,1,32.4,23.929q2.476,0,2.52,2.834V32h-1.78V26.866a1.632,1.632,0,0,0-.326-1.117,1.371,1.371,0,0,0-1.066-.363,1.715,1.715,0,0,0-1.6.974V32h-1.78V24.075ZM38.629,32H36.85V24.075h1.78Zm-1.89-9.99a.956.956,0,0,1,.26-.686.978.978,0,0,1,.743-.273.99.99,0,0,1,.747.273.949.949,0,0,1,.264.686.927.927,0,0,1-.264.675,1,1,0,0,1-.747.269A.985.985,0,0,1,37,22.685.934.934,0,0,1,36.74,22.01Zm7.083,8.716a1.609,1.609,0,0,0,1.106-.388,1.326,1.326,0,0,0,.469-.959h1.677a2.614,2.614,0,0,1-.461,1.381,3.027,3.027,0,0,1-1.172,1.014,3.492,3.492,0,0,1-1.6.374,3.379,3.379,0,0,1-2.637-1.077,4.27,4.27,0,0,1-.974-2.974v-.183a4.2,4.2,0,0,1,.967-2.9,3.348,3.348,0,0,1,2.637-1.088,3.256,3.256,0,0,1,2.3.824,2.952,2.952,0,0,1,.934,2.164H45.4a1.63,1.63,0,0,0-.465-1.121,1.5,1.5,0,0,0-1.11-.439,1.566,1.566,0,0,0-1.333.626,3.2,3.2,0,0,0-.476,1.9v.286a3.248,3.248,0,0,0,.465,1.923A1.565,1.565,0,0,0,43.822,30.726ZM50.312,32h-1.78V24.075h1.78Zm-1.89-9.99a.956.956,0,0,1,.26-.686.978.978,0,0,1,.743-.273.99.99,0,0,1,.747.273.949.949,0,0,1,.264.686.927.927,0,0,1-.264.675,1,1,0,0,1-.747.269.985.985,0,0,1-.743-.269A.934.934,0,0,1,48.422,22.01ZM56.984,32a2.747,2.747,0,0,1-.205-.74,2.994,2.994,0,0,1-4.028.205A2.179,2.179,0,0,1,52,29.781a2.25,2.25,0,0,1,.941-1.945,4.561,4.561,0,0,1,2.692-.677H56.72v-.52a1.388,1.388,0,0,0-.344-.985,1.365,1.365,0,0,0-1.047-.37,1.568,1.568,0,0,0-1,.3.941.941,0,0,0-.388.773h-1.78a1.975,1.975,0,0,1,.432-1.219,2.879,2.879,0,0,1,1.176-.89,4.129,4.129,0,0,1,1.659-.322,3.325,3.325,0,0,1,2.219.7,2.494,2.494,0,0,1,.85,1.967v3.574a4.051,4.051,0,0,0,.3,1.707V32Zm-1.956-1.282a2.025,2.025,0,0,0,.992-.256,1.713,1.713,0,0,0,.7-.688V28.279h-.959a2.624,2.624,0,0,0-1.487.344,1.115,1.115,0,0,0-.5.974,1.04,1.04,0,0,0,.341.817A1.319,1.319,0,0,0,55.028,30.718ZM64.513,25.7a4.4,4.4,0,0,0-.725-.059,1.633,1.633,0,0,0-1.648.938V32H60.36V24.075h1.7l.044.886a2.005,2.005,0,0,1,1.787-1.033,1.666,1.666,0,0,1,.63.1Zm11.8,2.417a4.718,4.718,0,0,1-.835,2.933,2.9,2.9,0,0,1-4.329.238v3.757h-1.78V24.075H71.01l.073.806a2.614,2.614,0,0,1,2.131-.952,2.7,2.7,0,0,1,2.274,1.08,4.844,4.844,0,0,1,.824,3Zm-1.772-.154a3.305,3.305,0,0,0-.472-1.882,1.536,1.536,0,0,0-1.351-.7,1.638,1.638,0,0,0-1.567.9V29.8a1.653,1.653,0,0,0,1.582.923,1.534,1.534,0,0,0,1.329-.685A3.638,3.638,0,0,0,74.54,27.964Zm2.944,0a4.673,4.673,0,0,1,.461-2.1,3.37,3.37,0,0,1,1.3-1.436,3.653,3.653,0,0,1,1.919-.5,3.462,3.462,0,0,1,2.6,1.033,4.062,4.062,0,0,1,1.08,2.739l.007.417a4.715,4.715,0,0,1-.45,2.095,3.329,3.329,0,0,1-1.289,1.428,3.679,3.679,0,0,1-1.937.505,3.438,3.438,0,0,1-2.684-1.117,4.278,4.278,0,0,1-1.007-2.977Zm1.78.154a3.193,3.193,0,0,0,.505,1.915,1.643,1.643,0,0,0,1.406.692,1.625,1.625,0,0,0,1.4-.7,3.527,3.527,0,0,0,.5-2.058,3.152,3.152,0,0,0-.516-1.9,1.74,1.74,0,0,0-2.787-.011A3.46,3.46,0,0,0,79.264,28.118ZM90.507,25.7a4.4,4.4,0,0,0-.725-.059,1.633,1.633,0,0,0-1.648.938V32h-1.78V24.075h1.7l.044.886a2.005,2.005,0,0,1,1.787-1.033,1.666,1.666,0,0,1,.63.1Zm8.35,6.445a3.682,3.682,0,0,1-2.743-1.066,3.866,3.866,0,0,1-1.051-2.838v-.22a4.755,4.755,0,0,1,.458-2.12,3.484,3.484,0,0,1,1.285-1.454,3.4,3.4,0,0,1,1.846-.52,3.11,3.11,0,0,1,2.5,1.033,4.367,4.367,0,0,1,.883,2.922V28.6H96.857a2.38,2.38,0,0,0,.656,1.553,1.968,1.968,0,0,0,1.447.571,2.41,2.41,0,0,0,1.992-.989l.959.916a3.2,3.2,0,0,1-1.271,1.1A3.978,3.978,0,0,1,98.856,32.146Zm-.212-6.79a1.5,1.5,0,0,0-1.183.513,2.657,2.657,0,0,0-.575,1.428h3.391v-.132a2.163,2.163,0,0,0-.476-1.351A1.487,1.487,0,0,0,98.644,25.357Zm9.214,4.49a.807.807,0,0,0-.392-.725,4.167,4.167,0,0,0-1.3-.439,6.683,6.683,0,0,1-1.516-.483,2.023,2.023,0,0,1-1.333-1.868,2.109,2.109,0,0,1,.864-1.714,3.417,3.417,0,0,1,2.2-.688,3.555,3.555,0,0,1,2.3.7,2.231,2.231,0,0,1,.875,1.824h-1.78a1.1,1.1,0,0,0-.381-.853,1.46,1.46,0,0,0-1.011-.341,1.577,1.577,0,0,0-.956.271.854.854,0,0,0-.37.725.721.721,0,0,0,.344.637,4.734,4.734,0,0,0,1.392.458,6.587,6.587,0,0,1,1.644.549,2.328,2.328,0,0,1,.886.765,1.952,1.952,0,0,1,.289,1.084,2.065,2.065,0,0,1-.886,1.732,3.779,3.779,0,0,1-2.322.663,4.1,4.1,0,0,1-1.736-.352,2.857,2.857,0,0,1-1.187-.967,2.288,2.288,0,0,1-.425-1.326h1.729a1.254,1.254,0,0,0,.476.97,1.85,1.85,0,0,0,1.165.341,1.8,1.8,0,0,0,1.069-.267A.827.827,0,0,0,107.858,29.847Zm5.53-7.7v1.926h1.4v1.318h-1.4v4.424a.974.974,0,0,0,.179.656.832.832,0,0,0,.641.2,2.742,2.742,0,0,0,.623-.073v1.377a4.383,4.383,0,0,1-1.172.168q-2.051,0-2.051-2.263v-4.49h-1.3V24.075h1.3V22.149ZM120.88,32a2.747,2.747,0,0,1-.205-.74,2.994,2.994,0,0,1-4.028.205,2.179,2.179,0,0,1-.754-1.685,2.25,2.25,0,0,1,.941-1.945,4.561,4.561,0,0,1,2.692-.677h1.091v-.52a1.388,1.388,0,0,0-.344-.985,1.365,1.365,0,0,0-1.047-.37,1.568,1.568,0,0,0-1,.3.941.941,0,0,0-.388.773h-1.78a1.975,1.975,0,0,1,.432-1.219,2.879,2.879,0,0,1,1.176-.89,4.129,4.129,0,0,1,1.659-.322,3.325,3.325,0,0,1,2.219.7,2.494,2.494,0,0,1,.85,1.967v3.574a4.051,4.051,0,0,0,.3,1.707V32Zm-1.956-1.282a2.025,2.025,0,0,0,.992-.256,1.713,1.713,0,0,0,.7-.688V28.279h-.959a2.624,2.624,0,0,0-1.487.344,1.115,1.115,0,0,0-.5.974,1.04,1.04,0,0,0,.341.817A1.319,1.319,0,0,0,118.925,30.718ZM54.2,46.118a4.718,4.718,0,0,1-.835,2.933,2.9,2.9,0,0,1-4.329.238v3.757h-1.78V42.075h1.641l.073.806a2.614,2.614,0,0,1,2.131-.952,2.7,2.7,0,0,1,2.274,1.08,4.844,4.844,0,0,1,.824,3Zm-1.772-.154a3.305,3.305,0,0,0-.472-1.882,1.536,1.536,0,0,0-1.351-.7,1.638,1.638,0,0,0-1.567.9V47.8a1.653,1.653,0,0,0,1.582.923,1.534,1.534,0,0,0,1.329-.685A3.638,3.638,0,0,0,52.425,45.964ZM60.437,50a2.747,2.747,0,0,1-.205-.74,2.994,2.994,0,0,1-4.028.205,2.179,2.179,0,0,1-.754-1.685,2.25,2.25,0,0,1,.941-1.945,4.561,4.561,0,0,1,2.692-.677h1.091v-.52a1.388,1.388,0,0,0-.344-.985,1.365,1.365,0,0,0-1.047-.37,1.568,1.568,0,0,0-1,.3.941.941,0,0,0-.388.773h-1.78a1.975,1.975,0,0,1,.432-1.219,2.879,2.879,0,0,1,1.176-.89,4.129,4.129,0,0,1,1.659-.322,3.325,3.325,0,0,1,2.219.7,2.494,2.494,0,0,1,.85,1.967v3.574a4.051,4.051,0,0,0,.3,1.707V50Zm-1.956-1.282a2.025,2.025,0,0,0,.992-.256,1.713,1.713,0,0,0,.7-.688V46.279h-.959a2.624,2.624,0,0,0-1.487.344,1.115,1.115,0,0,0-.5.974,1.04,1.04,0,0,0,.341.817A1.319,1.319,0,0,0,58.482,48.718ZM65.711,50h-1.78V38.75h1.78Zm6.672,0a2.747,2.747,0,0,1-.205-.74,2.994,2.994,0,0,1-4.028.205,2.179,2.179,0,0,1-.754-1.685,2.25,2.25,0,0,1,.941-1.945,4.561,4.561,0,0,1,2.692-.677h1.091v-.52a1.388,1.388,0,0,0-.344-.985,1.365,1.365,0,0,0-1.047-.37,1.568,1.568,0,0,0-1,.3.941.941,0,0,0-.388.773h-1.78A1.975,1.975,0,0,1,68,43.141a2.879,2.879,0,0,1,1.176-.89,4.129,4.129,0,0,1,1.659-.322,3.325,3.325,0,0,1,2.219.7,2.494,2.494,0,0,1,.85,1.967v3.574a4.051,4.051,0,0,0,.3,1.707V50Zm-1.956-1.282a2.025,2.025,0,0,0,.992-.256,1.713,1.713,0,0,0,.7-.688V46.279H71.16a2.624,2.624,0,0,0-1.487.344,1.115,1.115,0,0,0-.5.974,1.04,1.04,0,0,0,.341.817A1.319,1.319,0,0,0,70.427,48.718Zm12.29-2.6a4.76,4.76,0,0,1-.824,2.937,2.684,2.684,0,0,1-2.267,1.091,2.585,2.585,0,0,1-2.168-1L77.371,50H75.76V38.75h1.78v4.087a2.576,2.576,0,0,1,2.073-.908,2.715,2.715,0,0,1,2.278,1.077,4.839,4.839,0,0,1,.828,3.01Zm-1.78-.154a3.365,3.365,0,0,0-.454-1.934,1.512,1.512,0,0,0-1.318-.645A1.652,1.652,0,0,0,77.539,44.4v3.267A1.669,1.669,0,0,0,79.18,48.7a1.5,1.5,0,0,0,1.289-.623,3.26,3.26,0,0,0,.469-1.882ZM88.357,43.7a4.4,4.4,0,0,0-.725-.059,1.633,1.633,0,0,0-1.648.938V50H84.2V42.075h1.7l.044.886a2.005,2.005,0,0,1,1.787-1.033,1.666,1.666,0,0,1,.63.1ZM94,50a2.747,2.747,0,0,1-.205-.74,2.994,2.994,0,0,1-4.028.205,2.179,2.179,0,0,1-.754-1.685,2.25,2.25,0,0,1,.941-1.945,4.561,4.561,0,0,1,2.692-.677h1.091v-.52a1.388,1.388,0,0,0-.344-.985,1.365,1.365,0,0,0-1.047-.37,1.568,1.568,0,0,0-1,.3.941.941,0,0,0-.388.773h-1.78a1.975,1.975,0,0,1,.432-1.219,2.879,2.879,0,0,1,1.176-.89,4.129,4.129,0,0,1,1.659-.322,3.325,3.325,0,0,1,2.219.7,2.494,2.494,0,0,1,.85,1.967v3.574a4.051,4.051,0,0,0,.3,1.707V50Zm-1.956-1.282a2.025,2.025,0,0,0,.992-.256,1.713,1.713,0,0,0,.7-.688V46.279h-.959a2.624,2.624,0,0,0-1.487.344,1.115,1.115,0,0,0-.5.974,1.04,1.04,0,0,0,.341.817A1.319,1.319,0,0,0,92.041,48.718Zm6.445-.593a1.017,1.017,0,0,1,.769.282.979.979,0,0,1,.271.707.945.945,0,0,1-.271.692,1.2,1.2,0,0,1-1.523,0,.929.929,0,0,1-.278-.7.979.979,0,0,1,.271-.707A1.007,1.007,0,0,1,98.487,48.125Z" transform="translate(-5284.971 -6642.971)" fill="#12263f"/>
    <path id="Trazado_724700" data-name="Trazado 724700" d="M30.855,11.253a1.288,1.288,0,0,0-.494-1.084A5.948,5.948,0,0,0,28.577,9.4a8.612,8.612,0,0,1-2.051-.864,2.737,2.737,0,0,1-1.458-2.388A2.6,2.6,0,0,1,26.12,4.024a4.254,4.254,0,0,1,2.728-.835,4.608,4.608,0,0,1,1.985.41A3.258,3.258,0,0,1,32.2,4.768a3,3,0,0,1,.5,1.681H30.855a1.65,1.65,0,0,0-.524-1.3,2.173,2.173,0,0,0-1.5-.469,2.264,2.264,0,0,0-1.41.387,1.285,1.285,0,0,0-.5,1.08,1.163,1.163,0,0,0,.542.974,6.257,6.257,0,0,0,1.787.759,8.185,8.185,0,0,1,2,.841,3.18,3.18,0,0,1,1.106,1.084,2.823,2.823,0,0,1,.352,1.432,2.538,2.538,0,0,1-1.022,2.12,4.432,4.432,0,0,1-2.772.787,5.209,5.209,0,0,1-2.128-.428,3.574,3.574,0,0,1-1.509-1.183,2.948,2.948,0,0,1-.538-1.758h1.853a1.725,1.725,0,0,0,.6,1.406,2.63,2.63,0,0,0,1.721.5,2.285,2.285,0,0,0,1.454-.392A1.264,1.264,0,0,0,30.855,11.253Zm6.8,2.893a3.682,3.682,0,0,1-2.743-1.066,3.866,3.866,0,0,1-1.051-2.838v-.22a4.755,4.755,0,0,1,.458-2.12A3.484,3.484,0,0,1,35.6,6.449a3.4,3.4,0,0,1,1.846-.52,3.11,3.11,0,0,1,2.5,1.033,4.367,4.367,0,0,1,.883,2.922V10.6H35.652a2.38,2.38,0,0,0,.656,1.553,1.968,1.968,0,0,0,1.447.571,2.41,2.41,0,0,0,1.992-.989l.959.916a3.2,3.2,0,0,1-1.271,1.1A3.978,3.978,0,0,1,37.652,14.146Zm-.212-6.79a1.5,1.5,0,0,0-1.183.513A2.657,2.657,0,0,0,35.681,9.3h3.391V9.166A2.163,2.163,0,0,0,38.6,7.815,1.487,1.487,0,0,0,37.439,7.357Zm12,6.79a3.682,3.682,0,0,1-2.743-1.066,3.866,3.866,0,0,1-1.051-2.838v-.22A4.755,4.755,0,0,1,46.1,7.9a3.484,3.484,0,0,1,1.285-1.454,3.4,3.4,0,0,1,1.846-.52,3.11,3.11,0,0,1,2.5,1.033,4.367,4.367,0,0,1,.883,2.922V10.6H47.437a2.38,2.38,0,0,0,.656,1.553,1.968,1.968,0,0,0,1.447.571,2.41,2.41,0,0,0,1.992-.989l.959.916a3.2,3.2,0,0,1-1.271,1.1A3.978,3.978,0,0,1,49.436,14.146Zm-.212-6.79a1.5,1.5,0,0,0-1.183.513A2.657,2.657,0,0,0,47.466,9.3h3.391V9.166a2.163,2.163,0,0,0-.476-1.351A1.487,1.487,0,0,0,49.224,7.357Zm9.214,4.49a.807.807,0,0,0-.392-.725,4.167,4.167,0,0,0-1.3-.439A6.683,6.683,0,0,1,55.23,10.2,2.023,2.023,0,0,1,53.9,8.331a2.109,2.109,0,0,1,.864-1.714,3.417,3.417,0,0,1,2.2-.688,3.555,3.555,0,0,1,2.3.7,2.231,2.231,0,0,1,.875,1.824H58.35a1.1,1.1,0,0,0-.381-.853,1.46,1.46,0,0,0-1.011-.341A1.577,1.577,0,0,0,56,7.533a.854.854,0,0,0-.37.725.721.721,0,0,0,.344.637,4.734,4.734,0,0,0,1.392.458,6.587,6.587,0,0,1,1.644.549,2.328,2.328,0,0,1,.886.765,1.952,1.952,0,0,1,.289,1.084,2.065,2.065,0,0,1-.886,1.732,3.779,3.779,0,0,1-2.322.663,4.1,4.1,0,0,1-1.736-.352,2.857,2.857,0,0,1-1.187-.967,2.288,2.288,0,0,1-.425-1.326h1.729a1.254,1.254,0,0,0,.476.97A1.85,1.85,0,0,0,57,12.813a1.8,1.8,0,0,0,1.069-.267A.827.827,0,0,0,58.438,11.847Zm6.555.879a1.609,1.609,0,0,0,1.106-.388,1.326,1.326,0,0,0,.469-.959h1.677a2.614,2.614,0,0,1-.461,1.381,3.027,3.027,0,0,1-1.172,1.014,3.492,3.492,0,0,1-1.6.374,3.379,3.379,0,0,1-2.637-1.077A4.27,4.27,0,0,1,61.4,10.1V9.913a4.2,4.2,0,0,1,.967-2.9,3.348,3.348,0,0,1,2.637-1.088,3.256,3.256,0,0,1,2.3.824,2.952,2.952,0,0,1,.934,2.164H66.568A1.63,1.63,0,0,0,66.1,7.8a1.5,1.5,0,0,0-1.11-.439,1.566,1.566,0,0,0-1.333.626,3.2,3.2,0,0,0-.476,1.9v.286a3.248,3.248,0,0,0,.465,1.923A1.565,1.565,0,0,0,64.993,12.726ZM73.738,7.7a4.4,4.4,0,0,0-.725-.059,1.633,1.633,0,0,0-1.648.938V14h-1.78V6.075h1.7l.044.886a2.005,2.005,0,0,1,1.787-1.033,1.666,1.666,0,0,1,.63.1ZM76.756,14h-1.78V6.075h1.78Zm-1.89-9.99a.956.956,0,0,1,.26-.686.978.978,0,0,1,.743-.273.99.99,0,0,1,.747.273.949.949,0,0,1,.264.686.927.927,0,0,1-.264.675,1,1,0,0,1-.747.269.985.985,0,0,1-.743-.269A.934.934,0,0,1,74.866,4.01Zm10.781,6.108a4.76,4.76,0,0,1-.824,2.937,2.684,2.684,0,0,1-2.267,1.091,2.585,2.585,0,0,1-2.168-1L80.3,14H78.689V2.75h1.78V6.837a2.576,2.576,0,0,1,2.073-.908A2.715,2.715,0,0,1,84.82,7.005a4.839,4.839,0,0,1,.828,3.01Zm-1.78-.154a3.365,3.365,0,0,0-.454-1.934,1.512,1.512,0,0,0-1.318-.645A1.652,1.652,0,0,0,80.469,8.4v3.267A1.669,1.669,0,0,0,82.11,12.7a1.5,1.5,0,0,0,1.289-.623,3.26,3.26,0,0,0,.469-1.882Zm6.76,4.182a3.682,3.682,0,0,1-2.743-1.066,3.866,3.866,0,0,1-1.051-2.838v-.22a4.755,4.755,0,0,1,.458-2.12,3.484,3.484,0,0,1,1.285-1.454,3.4,3.4,0,0,1,1.846-.52,3.11,3.11,0,0,1,2.5,1.033,4.367,4.367,0,0,1,.883,2.922V10.6H88.628a2.38,2.38,0,0,0,.656,1.553,1.968,1.968,0,0,0,1.447.571,2.41,2.41,0,0,0,1.992-.989l.959.916a3.2,3.2,0,0,1-1.271,1.1A3.978,3.978,0,0,1,90.628,14.146Zm-.212-6.79a1.5,1.5,0,0,0-1.183.513A2.657,2.657,0,0,0,88.657,9.3h3.391V9.166a2.163,2.163,0,0,0-.476-1.351A1.487,1.487,0,0,0,90.415,7.357Zm13.308,5.867a2.76,2.76,0,0,1-2.227.923,2.46,2.46,0,0,1-1.952-.754,3.209,3.209,0,0,1-.663-2.183V6.075h1.78v5.112q0,1.509,1.252,1.509a1.759,1.759,0,0,0,1.75-.93V6.075h1.78V14h-1.677Zm5.186-7.148.051.916a2.849,2.849,0,0,1,2.307-1.062q2.476,0,2.52,2.834V14h-1.78V8.866a1.632,1.632,0,0,0-.326-1.117,1.371,1.371,0,0,0-1.066-.363,1.715,1.715,0,0,0-1.6.974V14h-1.78V6.075ZM120.335,14a2.747,2.747,0,0,1-.205-.74,2.994,2.994,0,0,1-4.028.205,2.179,2.179,0,0,1-.754-1.685,2.25,2.25,0,0,1,.941-1.945,4.561,4.561,0,0,1,2.692-.677h1.091v-.52a1.388,1.388,0,0,0-.344-.985,1.365,1.365,0,0,0-1.047-.37,1.568,1.568,0,0,0-1,.3.941.941,0,0,0-.388.773h-1.78a1.975,1.975,0,0,1,.432-1.219,2.879,2.879,0,0,1,1.176-.89,4.129,4.129,0,0,1,1.659-.322,3.325,3.325,0,0,1,2.219.7,2.494,2.494,0,0,1,.85,1.967v3.574a4.051,4.051,0,0,0,.3,1.707V14Zm-1.956-1.282a2.025,2.025,0,0,0,.992-.256,1.713,1.713,0,0,0,.7-.688V10.279h-.959a2.624,2.624,0,0,0-1.487.344,1.115,1.115,0,0,0-.5.974,1.04,1.04,0,0,0,.341.817A1.319,1.319,0,0,0,118.379,12.718ZM28.526,25.7a4.4,4.4,0,0,0-.725-.059,1.633,1.633,0,0,0-1.648.938V32h-1.78V24.075h1.7l.044.886A2.005,2.005,0,0,1,27.9,23.929a1.666,1.666,0,0,1,.63.1ZM33,32.146a3.682,3.682,0,0,1-2.743-1.066,3.866,3.866,0,0,1-1.051-2.838v-.22a4.755,4.755,0,0,1,.458-2.12,3.484,3.484,0,0,1,1.285-1.454,3.4,3.4,0,0,1,1.846-.52,3.11,3.11,0,0,1,2.5,1.033,4.367,4.367,0,0,1,.883,2.922V28.6H31a2.38,2.38,0,0,0,.656,1.553,1.968,1.968,0,0,0,1.447.571,2.41,2.41,0,0,0,1.992-.989l.959.916a3.2,3.2,0,0,1-1.271,1.1A3.978,3.978,0,0,1,33,32.146Zm-.212-6.79a1.5,1.5,0,0,0-1.183.513,2.657,2.657,0,0,0-.575,1.428h3.391v-.132a2.163,2.163,0,0,0-.476-1.351A1.487,1.487,0,0,0,32.788,25.357ZM42,29.847a.807.807,0,0,0-.392-.725,4.167,4.167,0,0,0-1.3-.439,6.683,6.683,0,0,1-1.516-.483,2.023,2.023,0,0,1-1.333-1.868,2.109,2.109,0,0,1,.864-1.714,3.417,3.417,0,0,1,2.2-.688,3.555,3.555,0,0,1,2.3.7,2.231,2.231,0,0,1,.875,1.824h-1.78a1.1,1.1,0,0,0-.381-.853,1.46,1.46,0,0,0-1.011-.341,1.577,1.577,0,0,0-.956.271.854.854,0,0,0-.37.725.721.721,0,0,0,.344.637,4.734,4.734,0,0,0,1.392.458,6.587,6.587,0,0,1,1.644.549,2.328,2.328,0,0,1,.886.765,1.952,1.952,0,0,1,.289,1.084,2.065,2.065,0,0,1-.886,1.732,3.779,3.779,0,0,1-2.322.663,4.1,4.1,0,0,1-1.736-.352,2.857,2.857,0,0,1-1.187-.967A2.288,2.288,0,0,1,37.2,29.5h1.729a1.254,1.254,0,0,0,.476.97,1.85,1.85,0,0,0,1.165.341,1.8,1.8,0,0,0,1.069-.267A.827.827,0,0,0,42,29.847Zm5.53-7.7v1.926h1.4v1.318h-1.4v4.424a.974.974,0,0,0,.179.656.832.832,0,0,0,.641.2,2.742,2.742,0,0,0,.623-.073v1.377a4.383,4.383,0,0,1-1.172.168q-2.051,0-2.051-2.263v-4.49h-1.3V24.075h1.3V22.149ZM54.439,25.7a4.4,4.4,0,0,0-.725-.059,1.633,1.633,0,0,0-1.648.938V32h-1.78V24.075h1.7l.044.886a2.005,2.005,0,0,1,1.787-1.033,1.666,1.666,0,0,1,.63.1ZM57.456,32h-1.78V24.075h1.78Zm-1.89-9.99a.956.956,0,0,1,.26-.686.978.978,0,0,1,.743-.273.99.99,0,0,1,.747.273.949.949,0,0,1,.264.686.927.927,0,0,1-.264.675,1,1,0,0,1-.747.269.985.985,0,0,1-.743-.269A.934.934,0,0,1,55.567,22.01Zm7.083,8.716a1.609,1.609,0,0,0,1.106-.388,1.326,1.326,0,0,0,.469-.959H65.9a2.614,2.614,0,0,1-.461,1.381,3.027,3.027,0,0,1-1.172,1.014,3.492,3.492,0,0,1-1.6.374,3.379,3.379,0,0,1-2.637-1.077A4.27,4.27,0,0,1,59.06,28.1v-.183a4.2,4.2,0,0,1,.967-2.9,3.348,3.348,0,0,1,2.637-1.088,3.256,3.256,0,0,1,2.3.824,2.952,2.952,0,0,1,.934,2.164H64.224a1.63,1.63,0,0,0-.465-1.121,1.5,1.5,0,0,0-1.11-.439,1.566,1.566,0,0,0-1.333.626,3.2,3.2,0,0,0-.476,1.9v.286a3.248,3.248,0,0,0,.465,1.923A1.565,1.565,0,0,0,62.649,30.726Zm7.852,0a1.609,1.609,0,0,0,1.106-.388,1.326,1.326,0,0,0,.469-.959h1.677a2.614,2.614,0,0,1-.461,1.381,3.027,3.027,0,0,1-1.172,1.014,3.492,3.492,0,0,1-1.6.374,3.379,3.379,0,0,1-2.637-1.077,4.27,4.27,0,0,1-.974-2.974v-.183a4.2,4.2,0,0,1,.967-2.9,3.348,3.348,0,0,1,2.637-1.088,3.256,3.256,0,0,1,2.3.824,2.952,2.952,0,0,1,.934,2.164H72.075A1.63,1.63,0,0,0,71.61,25.8a1.5,1.5,0,0,0-1.11-.439,1.566,1.566,0,0,0-1.333.626,3.2,3.2,0,0,0-.476,1.9v.286a3.248,3.248,0,0,0,.465,1.923A1.565,1.565,0,0,0,70.5,30.726ZM76.99,32H75.21V24.075h1.78ZM75.1,22.01a.956.956,0,0,1,.26-.686.978.978,0,0,1,.743-.273.99.99,0,0,1,.747.273.949.949,0,0,1,.264.686.927.927,0,0,1-.264.675,1,1,0,0,1-.747.269.985.985,0,0,1-.743-.269A.934.934,0,0,1,75.1,22.01Zm3.494,5.955a4.673,4.673,0,0,1,.461-2.1,3.37,3.37,0,0,1,1.3-1.436,3.653,3.653,0,0,1,1.919-.5,3.462,3.462,0,0,1,2.6,1.033,4.062,4.062,0,0,1,1.08,2.739l.007.417a4.715,4.715,0,0,1-.45,2.095,3.329,3.329,0,0,1-1.289,1.428,3.679,3.679,0,0,1-1.937.505A3.438,3.438,0,0,1,79.6,31.03a4.278,4.278,0,0,1-1.007-2.977Zm1.78.154a3.193,3.193,0,0,0,.505,1.915,1.643,1.643,0,0,0,1.406.692,1.625,1.625,0,0,0,1.4-.7,3.527,3.527,0,0,0,.5-2.058,3.152,3.152,0,0,0-.516-1.9,1.74,1.74,0,0,0-2.787-.011A3.46,3.46,0,0,0,80.374,28.118Zm2.388-7.368H84.79l-2.029,2.219-1.428,0Zm6.357,3.325.051.916a2.849,2.849,0,0,1,2.307-1.062q2.476,0,2.52,2.834V32h-1.78V26.866a1.632,1.632,0,0,0-.326-1.117,1.371,1.371,0,0,0-1.066-.363,1.715,1.715,0,0,0-1.6.974V32h-1.78V24.075Zm10.093,3.9a4.683,4.683,0,0,1,.85-2.952,2.761,2.761,0,0,1,2.3-1.091,2.6,2.6,0,0,1,2.1.93l.1-.784h1.582V35.047h-1.78V31.326a2.656,2.656,0,0,1-2.021.82,2.735,2.735,0,0,1-2.278-1.11A4.9,4.9,0,0,1,99.212,27.972Zm1.78.154a3.307,3.307,0,0,0,.48,1.908,1.529,1.529,0,0,0,1.329.692,1.686,1.686,0,0,0,1.567-.9v-3.6a1.687,1.687,0,0,0-1.553-.864,1.555,1.555,0,0,0-1.337.681A3.608,3.608,0,0,0,100.991,28.125Zm11.873,3.1a2.76,2.76,0,0,1-2.227.923,2.46,2.46,0,0,1-1.952-.754,3.209,3.209,0,0,1-.663-2.183V24.075h1.78v5.112q0,1.509,1.252,1.509a1.759,1.759,0,0,0,1.75-.93V24.075h1.78V32h-1.677Zm7.024.923a3.682,3.682,0,0,1-2.743-1.066,3.866,3.866,0,0,1-1.051-2.838v-.22a4.755,4.755,0,0,1,.458-2.12,3.484,3.484,0,0,1,1.285-1.454,3.4,3.4,0,0,1,1.846-.52,3.11,3.11,0,0,1,2.5,1.033,4.367,4.367,0,0,1,.883,2.922V28.6h-5.178a2.38,2.38,0,0,0,.656,1.553,1.968,1.968,0,0,0,1.447.571,2.41,2.41,0,0,0,1.992-.989l.959.916a3.2,3.2,0,0,1-1.271,1.1A3.978,3.978,0,0,1,119.888,32.146Zm-.212-6.79a1.5,1.5,0,0,0-1.183.513,2.657,2.657,0,0,0-.575,1.428h3.391v-.132a2.163,2.163,0,0,0-.476-1.351A1.487,1.487,0,0,0,119.676,25.357ZM17.023,50a2.747,2.747,0,0,1-.205-.74,2.77,2.77,0,0,1-2.08.886,2.8,2.8,0,0,1-1.948-.681,2.179,2.179,0,0,1-.754-1.685,2.25,2.25,0,0,1,.941-1.945,4.561,4.561,0,0,1,2.692-.677h1.091v-.52a1.388,1.388,0,0,0-.344-.985,1.365,1.365,0,0,0-1.047-.37,1.568,1.568,0,0,0-1,.3.941.941,0,0,0-.388.773H12.2a1.975,1.975,0,0,1,.432-1.219,2.879,2.879,0,0,1,1.176-.89,4.129,4.129,0,0,1,1.659-.322,3.325,3.325,0,0,1,2.219.7,2.494,2.494,0,0,1,.85,1.967v3.574a4.051,4.051,0,0,0,.3,1.707V50Zm-1.956-1.282a2.025,2.025,0,0,0,.992-.256,1.713,1.713,0,0,0,.7-.688V46.279H15.8a2.624,2.624,0,0,0-1.487.344,1.115,1.115,0,0,0-.5.974,1.04,1.04,0,0,0,.341.817A1.319,1.319,0,0,0,15.067,48.718Zm12.29-2.6a4.76,4.76,0,0,1-.824,2.937,2.684,2.684,0,0,1-2.267,1.091,2.585,2.585,0,0,1-2.168-1L22.011,50H20.4V38.75h1.78v4.087a2.576,2.576,0,0,1,2.073-.908,2.715,2.715,0,0,1,2.278,1.077,4.839,4.839,0,0,1,.828,3.01Zm-1.78-.154a3.365,3.365,0,0,0-.454-1.934,1.512,1.512,0,0,0-1.318-.645A1.652,1.652,0,0,0,22.179,44.4v3.267A1.669,1.669,0,0,0,23.82,48.7a1.5,1.5,0,0,0,1.289-.623,3.26,3.26,0,0,0,.469-1.882ZM33.583,50a2.747,2.747,0,0,1-.205-.74,2.994,2.994,0,0,1-4.028.205,2.179,2.179,0,0,1-.754-1.685,2.25,2.25,0,0,1,.941-1.945,4.561,4.561,0,0,1,2.692-.677h1.091v-.52a1.388,1.388,0,0,0-.344-.985,1.365,1.365,0,0,0-1.047-.37,1.568,1.568,0,0,0-1,.3.941.941,0,0,0-.388.773h-1.78a1.975,1.975,0,0,1,.432-1.219,2.879,2.879,0,0,1,1.176-.89,4.129,4.129,0,0,1,1.659-.322,3.325,3.325,0,0,1,2.219.7,2.494,2.494,0,0,1,.85,1.967v3.574a4.051,4.051,0,0,0,.3,1.707V50Zm-1.956-1.282a2.025,2.025,0,0,0,.992-.256,1.713,1.713,0,0,0,.7-.688V46.279H32.36a2.624,2.624,0,0,0-1.487.344,1.115,1.115,0,0,0-.5.974,1.04,1.04,0,0,0,.341.817A1.319,1.319,0,0,0,31.627,48.718ZM41.112,43.7a4.4,4.4,0,0,0-.725-.059,1.633,1.633,0,0,0-1.648.938V50h-1.78V42.075h1.7l.044.886a2.005,2.005,0,0,1,1.787-1.033,1.666,1.666,0,0,1,.63.1Zm.652,2.271a4.683,4.683,0,0,1,.85-2.952,2.761,2.761,0,0,1,2.3-1.091,2.6,2.6,0,0,1,2.1.93l.1-.784H48.7V53.047H46.92V49.326a2.656,2.656,0,0,1-2.021.82,2.735,2.735,0,0,1-2.278-1.11A4.9,4.9,0,0,1,41.764,45.972Zm1.78.154a3.307,3.307,0,0,0,.48,1.908,1.529,1.529,0,0,0,1.329.692,1.686,1.686,0,0,0,1.567-.9v-3.6a1.687,1.687,0,0,0-1.553-.864,1.555,1.555,0,0,0-1.337.681A3.608,3.608,0,0,0,43.544,46.125Zm11.873,3.1a2.76,2.76,0,0,1-2.227.923,2.46,2.46,0,0,1-1.952-.754,3.209,3.209,0,0,1-.663-2.183V42.075h1.78v5.112q0,1.509,1.252,1.509a1.759,1.759,0,0,0,1.75-.93V42.075h1.78V50H55.46Zm7.024.923A3.682,3.682,0,0,1,59.7,49.081a3.866,3.866,0,0,1-1.051-2.838v-.22A4.755,4.755,0,0,1,59.1,43.9a3.484,3.484,0,0,1,1.285-1.454,3.4,3.4,0,0,1,1.846-.52,3.11,3.11,0,0,1,2.5,1.033,4.367,4.367,0,0,1,.883,2.922V46.6H60.441a2.38,2.38,0,0,0,.656,1.553,1.968,1.968,0,0,0,1.447.571,2.41,2.41,0,0,0,1.992-.989l.959.916a3.2,3.2,0,0,1-1.271,1.1A3.978,3.978,0,0,1,62.44,50.146Zm-.212-6.79a1.5,1.5,0,0,0-1.183.513A2.657,2.657,0,0,0,60.47,45.3h3.391v-.132a2.163,2.163,0,0,0-.476-1.351A1.487,1.487,0,0,0,62.228,43.357ZM72.628,50h-1.78V38.75h1.78ZM79.3,50a2.747,2.747,0,0,1-.205-.74,2.994,2.994,0,0,1-4.028.205,2.179,2.179,0,0,1-.754-1.685,2.25,2.25,0,0,1,.941-1.945,4.561,4.561,0,0,1,2.692-.677h1.091v-.52a1.388,1.388,0,0,0-.344-.985,1.365,1.365,0,0,0-1.047-.37,1.568,1.568,0,0,0-1,.3.941.941,0,0,0-.388.773h-1.78a1.975,1.975,0,0,1,.432-1.219,2.879,2.879,0,0,1,1.176-.89,4.129,4.129,0,0,1,1.659-.322,3.325,3.325,0,0,1,2.219.7,2.494,2.494,0,0,1,.85,1.967v3.574a4.051,4.051,0,0,0,.3,1.707V50Zm-1.956-1.282a2.025,2.025,0,0,0,.992-.256,1.713,1.713,0,0,0,.7-.688V46.279h-.959a2.624,2.624,0,0,0-1.487.344,1.115,1.115,0,0,0-.5.974,1.04,1.04,0,0,0,.341.817A1.319,1.319,0,0,0,77.345,48.718Zm16.011-2.6a4.718,4.718,0,0,1-.835,2.933,2.9,2.9,0,0,1-4.329.238v3.757h-1.78V42.075h1.641l.073.806a2.614,2.614,0,0,1,2.131-.952,2.7,2.7,0,0,1,2.274,1.08,4.844,4.844,0,0,1,.824,3Zm-1.772-.154a3.305,3.305,0,0,0-.472-1.882,1.536,1.536,0,0,0-1.351-.7,1.638,1.638,0,0,0-1.567.9V47.8a1.653,1.653,0,0,0,1.582.923,1.534,1.534,0,0,0,1.329-.685A3.638,3.638,0,0,0,91.583,45.964ZM99.6,50a2.747,2.747,0,0,1-.205-.74,2.994,2.994,0,0,1-4.028.205,2.179,2.179,0,0,1-.754-1.685,2.25,2.25,0,0,1,.941-1.945,4.561,4.561,0,0,1,2.692-.677h1.091v-.52a1.388,1.388,0,0,0-.344-.985,1.365,1.365,0,0,0-1.047-.37,1.568,1.568,0,0,0-1,.3.941.941,0,0,0-.388.773h-1.78a1.975,1.975,0,0,1,.432-1.219,2.879,2.879,0,0,1,1.176-.89,4.129,4.129,0,0,1,1.659-.322,3.325,3.325,0,0,1,2.219.7,2.494,2.494,0,0,1,.85,1.967v3.574a4.051,4.051,0,0,0,.3,1.707V50Zm-1.956-1.282a2.025,2.025,0,0,0,.992-.256,1.713,1.713,0,0,0,.7-.688V46.279h-.959a2.624,2.624,0,0,0-1.487.344,1.115,1.115,0,0,0-.5.974,1.04,1.04,0,0,0,.341.817A1.319,1.319,0,0,0,97.641,48.718ZM104.87,50h-1.78V38.75h1.78Zm6.672,0a2.747,2.747,0,0,1-.205-.74,2.994,2.994,0,0,1-4.028.205,2.179,2.179,0,0,1-.754-1.685,2.25,2.25,0,0,1,.941-1.945,4.561,4.561,0,0,1,2.692-.677h1.091v-.52a1.388,1.388,0,0,0-.344-.985,1.365,1.365,0,0,0-1.047-.37,1.568,1.568,0,0,0-1,.3.941.941,0,0,0-.388.773h-1.78a1.975,1.975,0,0,1,.432-1.219,2.879,2.879,0,0,1,1.176-.89,4.129,4.129,0,0,1,1.659-.322,3.325,3.325,0,0,1,2.219.7,2.494,2.494,0,0,1,.85,1.967v3.574a4.051,4.051,0,0,0,.3,1.707V50Zm-1.956-1.282a2.025,2.025,0,0,0,.992-.256,1.713,1.713,0,0,0,.7-.688V46.279h-.959a2.624,2.624,0,0,0-1.487.344,1.115,1.115,0,0,0-.5.974,1.04,1.04,0,0,0,.341.817A1.319,1.319,0,0,0,109.586,48.718Zm12.29-2.6a4.76,4.76,0,0,1-.824,2.937,2.684,2.684,0,0,1-2.267,1.091,2.585,2.585,0,0,1-2.168-1L116.53,50h-1.611V38.75h1.78v4.087a2.576,2.576,0,0,1,2.073-.908,2.715,2.715,0,0,1,2.278,1.077,4.839,4.839,0,0,1,.828,3.01Zm-1.78-.154a3.365,3.365,0,0,0-.454-1.934,1.512,1.512,0,0,0-1.318-.645A1.652,1.652,0,0,0,116.7,44.4v3.267a1.669,1.669,0,0,0,1.641,1.033,1.5,1.5,0,0,0,1.289-.623,3.26,3.26,0,0,0,.469-1.882Zm7.419-2.263a4.4,4.4,0,0,0-.725-.059,1.633,1.633,0,0,0-1.648.938V50h-1.78V42.075h1.7l.044.886a2.005,2.005,0,0,1,1.787-1.033,1.666,1.666,0,0,1,.63.1Zm5.64,6.3a2.747,2.747,0,0,1-.205-.74,2.994,2.994,0,0,1-4.028.205,2.179,2.179,0,0,1-.754-1.685,2.25,2.25,0,0,1,.941-1.945,4.561,4.561,0,0,1,2.692-.677h1.091v-.52a1.388,1.388,0,0,0-.344-.985,1.365,1.365,0,0,0-1.047-.37,1.568,1.568,0,0,0-1,.3.941.941,0,0,0-.388.773h-1.78a1.975,1.975,0,0,1,.432-1.219,2.879,2.879,0,0,1,1.176-.89,4.129,4.129,0,0,1,1.659-.322,3.325,3.325,0,0,1,2.219.7,2.494,2.494,0,0,1,.85,1.967v3.574a4.051,4.051,0,0,0,.3,1.707V50ZM131.2,48.718a2.025,2.025,0,0,0,.992-.256,1.713,1.713,0,0,0,.7-.688V46.279h-.959a2.624,2.624,0,0,0-1.487.344,1.115,1.115,0,0,0-.5.974,1.04,1.04,0,0,0,.341.817A1.319,1.319,0,0,0,131.2,48.718Zm-85,9.431v1.926h1.4v1.318H46.2v4.424a.974.974,0,0,0,.179.656.832.832,0,0,0,.641.2,2.742,2.742,0,0,0,.623-.073v1.377a4.383,4.383,0,0,1-1.172.168q-2.051,0-2.051-2.263v-4.49h-1.3V60.075h1.3V58.149Zm2.2,5.815a4.673,4.673,0,0,1,.461-2.1,3.37,3.37,0,0,1,1.3-1.436,3.653,3.653,0,0,1,1.919-.5,3.462,3.462,0,0,1,2.6,1.033,4.062,4.062,0,0,1,1.08,2.739l.007.417a4.715,4.715,0,0,1-.45,2.095,3.329,3.329,0,0,1-1.289,1.428,3.679,3.679,0,0,1-1.937.505,3.438,3.438,0,0,1-2.684-1.117,4.278,4.278,0,0,1-1.007-2.977Zm1.78.154a3.193,3.193,0,0,0,.505,1.915,1.643,1.643,0,0,0,1.406.692,1.625,1.625,0,0,0,1.4-.7,3.527,3.527,0,0,0,.5-2.058,3.152,3.152,0,0,0-.516-1.9,1.74,1.74,0,0,0-2.787-.011A3.46,3.46,0,0,0,50.187,64.118Zm6.76-.139a4.712,4.712,0,0,1,.85-2.941,2.722,2.722,0,0,1,2.278-1.11,2.587,2.587,0,0,1,2.036.879V56.75h1.78V68H62.279l-.088-.82a2.624,2.624,0,0,1-2.131.967,2.707,2.707,0,0,1-2.252-1.121A4.884,4.884,0,0,1,56.947,63.979Zm1.78.154a3.3,3.3,0,0,0,.465,1.886,1.509,1.509,0,0,0,1.322.677,1.681,1.681,0,0,0,1.6-.974V62.338a1.655,1.655,0,0,0-1.582-.952,1.52,1.52,0,0,0-1.333.685A3.674,3.674,0,0,0,58.727,64.133Zm6.687-.168a4.673,4.673,0,0,1,.461-2.1,3.37,3.37,0,0,1,1.3-1.436,3.653,3.653,0,0,1,1.919-.5,3.462,3.462,0,0,1,2.6,1.033,4.062,4.062,0,0,1,1.08,2.739l.007.417a4.715,4.715,0,0,1-.45,2.095,3.329,3.329,0,0,1-1.289,1.428,3.679,3.679,0,0,1-1.937.505,3.438,3.438,0,0,1-2.684-1.117,4.278,4.278,0,0,1-1.007-2.977Zm1.78.154a3.193,3.193,0,0,0,.505,1.915,1.643,1.643,0,0,0,1.406.692,1.625,1.625,0,0,0,1.4-.7,3.527,3.527,0,0,0,.5-2.058,3.152,3.152,0,0,0-.516-1.9,1.74,1.74,0,0,0-2.787-.011A3.46,3.46,0,0,0,67.194,64.118Zm7.119-.454a11.161,11.161,0,0,1,.454-3.212A8.815,8.815,0,0,1,76.1,57.735a5.293,5.293,0,0,1,1.86-1.681l.352,1.04a5.437,5.437,0,0,0-1.674,2.391,10.71,10.71,0,0,0-.7,3.68l-.007.63a11.643,11.643,0,0,0,.626,3.959A5.835,5.835,0,0,0,78.312,70.4l-.352.989A5.3,5.3,0,0,1,76.1,69.7a8.814,8.814,0,0,1-1.333-2.717A11.6,11.6,0,0,1,74.313,63.664ZM84.252,68a2.747,2.747,0,0,1-.205-.74,2.994,2.994,0,0,1-4.028.205,2.179,2.179,0,0,1-.754-1.685,2.25,2.25,0,0,1,.941-1.945,4.561,4.561,0,0,1,2.692-.677h1.091v-.52a1.388,1.388,0,0,0-.344-.985,1.365,1.365,0,0,0-1.047-.37,1.568,1.568,0,0,0-1,.3.941.941,0,0,0-.388.773h-1.78a1.975,1.975,0,0,1,.432-1.219,2.879,2.879,0,0,1,1.176-.89,4.129,4.129,0,0,1,1.659-.322,3.325,3.325,0,0,1,2.219.7,2.494,2.494,0,0,1,.85,1.967v3.574a4.051,4.051,0,0,0,.3,1.707V68ZM82.3,66.718a2.025,2.025,0,0,0,.992-.256,1.713,1.713,0,0,0,.7-.688V64.279h-.959a2.624,2.624,0,0,0-1.487.344,1.115,1.115,0,0,0-.5.974,1.04,1.04,0,0,0,.341.817A1.319,1.319,0,0,0,82.3,66.718Zm8.767-2.937a11.02,11.02,0,0,1-.447,3.138,8.892,8.892,0,0,1-1.355,2.754,5.306,5.306,0,0,1-1.9,1.718l-.352-.989a5.629,5.629,0,0,0,1.74-2.6,11.533,11.533,0,0,0,.641-3.988v-.168a11.7,11.7,0,0,0-.557-3.71,6.544,6.544,0,0,0-1.6-2.684l-.227-.205.352-1a5.251,5.251,0,0,1,1.816,1.611,8.743,8.743,0,0,1,1.348,2.589,10.785,10.785,0,0,1,.527,2.955Zm6.3,2.065a.807.807,0,0,0-.392-.725,4.167,4.167,0,0,0-1.3-.439,6.683,6.683,0,0,1-1.516-.483,2.023,2.023,0,0,1-1.333-1.868,2.109,2.109,0,0,1,.864-1.714,3.417,3.417,0,0,1,2.2-.688,3.555,3.555,0,0,1,2.3.7,2.231,2.231,0,0,1,.875,1.824h-1.78a1.1,1.1,0,0,0-.381-.853,1.46,1.46,0,0,0-1.011-.341,1.577,1.577,0,0,0-.956.271.854.854,0,0,0-.37.725.721.721,0,0,0,.344.637,4.734,4.734,0,0,0,1.392.458,6.587,6.587,0,0,1,1.644.549,2.328,2.328,0,0,1,.886.765,1.952,1.952,0,0,1,.289,1.084,2.065,2.065,0,0,1-.886,1.732,3.779,3.779,0,0,1-2.322.663,4.1,4.1,0,0,1-1.736-.352,2.857,2.857,0,0,1-1.187-.967,2.288,2.288,0,0,1-.425-1.326h1.729a1.254,1.254,0,0,0,.476.97,1.85,1.85,0,0,0,1.165.341A1.8,1.8,0,0,0,97,66.546.827.827,0,0,0,97.362,65.847Zm4.409.278a1.017,1.017,0,0,1,.769.282.979.979,0,0,1,.271.707.945.945,0,0,1-.271.692,1.2,1.2,0,0,1-1.523,0,.929.929,0,0,1-.278-.7.979.979,0,0,1,.271-.707A1.007,1.007,0,0,1,101.771,66.125Z" transform="translate(-4811.971 -6651.971)" fill="#12263f"/>
    <path id="Trazado_724701" data-name="Trazado 724701" d="M12.885,11.253a1.288,1.288,0,0,0-.494-1.084A5.948,5.948,0,0,0,10.607,9.4a8.612,8.612,0,0,1-2.051-.864A2.737,2.737,0,0,1,7.1,6.148,2.6,2.6,0,0,1,8.15,4.024a4.254,4.254,0,0,1,2.728-.835,4.608,4.608,0,0,1,1.985.41,3.258,3.258,0,0,1,1.37,1.168,3,3,0,0,1,.5,1.681H12.885a1.65,1.65,0,0,0-.524-1.3,2.173,2.173,0,0,0-1.5-.469,2.264,2.264,0,0,0-1.41.387,1.285,1.285,0,0,0-.5,1.08,1.163,1.163,0,0,0,.542.974,6.257,6.257,0,0,0,1.787.759,8.185,8.185,0,0,1,2,.841,3.18,3.18,0,0,1,1.106,1.084,2.823,2.823,0,0,1,.352,1.432,2.538,2.538,0,0,1-1.022,2.12,4.432,4.432,0,0,1-2.772.787,5.209,5.209,0,0,1-2.128-.428,3.574,3.574,0,0,1-1.509-1.183,2.948,2.948,0,0,1-.538-1.758H8.623a1.725,1.725,0,0,0,.6,1.406,2.63,2.63,0,0,0,1.721.5A2.285,2.285,0,0,0,12.4,12.29,1.264,1.264,0,0,0,12.885,11.253Zm6.8,2.893a3.682,3.682,0,0,1-2.743-1.066,3.866,3.866,0,0,1-1.051-2.838v-.22a4.755,4.755,0,0,1,.458-2.12,3.484,3.484,0,0,1,1.285-1.454,3.4,3.4,0,0,1,1.846-.52,3.11,3.11,0,0,1,2.5,1.033,4.367,4.367,0,0,1,.883,2.922V10.6H17.683a2.38,2.38,0,0,0,.656,1.553,1.968,1.968,0,0,0,1.447.571,2.41,2.41,0,0,0,1.992-.989l.959.916a3.2,3.2,0,0,1-1.271,1.1A3.978,3.978,0,0,1,19.682,14.146Zm-.212-6.79a1.5,1.5,0,0,0-1.183.513A2.657,2.657,0,0,0,17.712,9.3H21.1V9.166a2.163,2.163,0,0,0-.476-1.351A1.487,1.487,0,0,0,19.47,7.357Zm8.174,2.622a4.712,4.712,0,0,1,.85-2.941,2.722,2.722,0,0,1,2.278-1.11,2.587,2.587,0,0,1,2.036.879V2.75h1.78V14H32.976l-.088-.82a2.624,2.624,0,0,1-2.131.967A2.707,2.707,0,0,1,28.5,13.026,4.884,4.884,0,0,1,27.644,9.979Zm1.78.154a3.3,3.3,0,0,0,.465,1.886,1.509,1.509,0,0,0,1.322.677,1.681,1.681,0,0,0,1.6-.974V8.338a1.655,1.655,0,0,0-1.582-.952,1.52,1.52,0,0,0-1.333.685A3.674,3.674,0,0,0,29.423,10.133Zm10.51,4.014a3.682,3.682,0,0,1-2.743-1.066,3.866,3.866,0,0,1-1.051-2.838v-.22A4.755,4.755,0,0,1,36.6,7.9a3.484,3.484,0,0,1,1.285-1.454,3.4,3.4,0,0,1,1.846-.52,3.11,3.11,0,0,1,2.5,1.033,4.367,4.367,0,0,1,.883,2.922V10.6H37.934a2.38,2.38,0,0,0,.656,1.553,1.968,1.968,0,0,0,1.447.571,2.41,2.41,0,0,0,1.992-.989l.959.916a3.2,3.2,0,0,1-1.271,1.1A3.978,3.978,0,0,1,39.934,14.146Zm-.212-6.79a1.5,1.5,0,0,0-1.183.513A2.657,2.657,0,0,0,37.963,9.3h3.391V9.166a2.163,2.163,0,0,0-.476-1.351A1.487,1.487,0,0,0,39.721,7.357Zm9.214,4.49a.807.807,0,0,0-.392-.725,4.167,4.167,0,0,0-1.3-.439,6.683,6.683,0,0,1-1.516-.483,2.023,2.023,0,0,1-1.333-1.868,2.109,2.109,0,0,1,.864-1.714,3.417,3.417,0,0,1,2.2-.688,3.555,3.555,0,0,1,2.3.7,2.231,2.231,0,0,1,.875,1.824h-1.78a1.1,1.1,0,0,0-.381-.853,1.46,1.46,0,0,0-1.011-.341,1.577,1.577,0,0,0-.956.271.854.854,0,0,0-.37.725.721.721,0,0,0,.344.637,4.734,4.734,0,0,0,1.392.458A6.587,6.587,0,0,1,49.51,9.9a2.328,2.328,0,0,1,.886.765,1.952,1.952,0,0,1,.289,1.084,2.065,2.065,0,0,1-.886,1.732,3.779,3.779,0,0,1-2.322.663,4.1,4.1,0,0,1-1.736-.352,2.857,2.857,0,0,1-1.187-.967A2.288,2.288,0,0,1,44.13,11.5h1.729a1.254,1.254,0,0,0,.476.97,1.85,1.85,0,0,0,1.165.341,1.8,1.8,0,0,0,1.069-.267A.827.827,0,0,0,48.935,11.847Zm6.555.879a1.609,1.609,0,0,0,1.106-.388,1.326,1.326,0,0,0,.469-.959h1.677a2.614,2.614,0,0,1-.461,1.381,3.027,3.027,0,0,1-1.172,1.014,3.492,3.492,0,0,1-1.6.374,3.379,3.379,0,0,1-2.637-1.077A4.27,4.27,0,0,1,51.9,10.1V9.913a4.2,4.2,0,0,1,.967-2.9A3.348,3.348,0,0,1,55.5,5.929a3.256,3.256,0,0,1,2.3.824,2.952,2.952,0,0,1,.934,2.164H57.065A1.63,1.63,0,0,0,56.6,7.8a1.5,1.5,0,0,0-1.11-.439,1.566,1.566,0,0,0-1.333.626,3.2,3.2,0,0,0-.476,1.9v.286a3.248,3.248,0,0,0,.465,1.923A1.565,1.565,0,0,0,55.49,12.726ZM64.235,7.7a4.4,4.4,0,0,0-.725-.059,1.633,1.633,0,0,0-1.648.938V14h-1.78V6.075h1.7l.044.886a2.005,2.005,0,0,1,1.787-1.033,1.666,1.666,0,0,1,.63.1ZM67.253,14h-1.78V6.075h1.78Zm-1.89-9.99a.956.956,0,0,1,.26-.686.978.978,0,0,1,.743-.273.99.99,0,0,1,.747.273.949.949,0,0,1,.264.686.927.927,0,0,1-.264.675,1,1,0,0,1-.747.269.985.985,0,0,1-.743-.269A.934.934,0,0,1,65.363,4.01Zm10.781,6.108a4.76,4.76,0,0,1-.824,2.937,2.684,2.684,0,0,1-2.267,1.091,2.585,2.585,0,0,1-2.168-1L70.8,14H69.187V2.75h1.78V6.837a2.576,2.576,0,0,1,2.073-.908,2.715,2.715,0,0,1,2.278,1.077,4.839,4.839,0,0,1,.828,3.01Zm-1.78-.154a3.365,3.365,0,0,0-.454-1.934,1.512,1.512,0,0,0-1.318-.645A1.652,1.652,0,0,0,70.966,8.4v3.267A1.669,1.669,0,0,0,72.607,12.7a1.5,1.5,0,0,0,1.289-.623,3.26,3.26,0,0,0,.469-1.882Zm6.76,4.182a3.682,3.682,0,0,1-2.743-1.066,3.866,3.866,0,0,1-1.051-2.838v-.22a4.755,4.755,0,0,1,.458-2.12,3.484,3.484,0,0,1,1.285-1.454,3.4,3.4,0,0,1,1.846-.52,3.11,3.11,0,0,1,2.5,1.033A4.367,4.367,0,0,1,84.3,9.884V10.6H79.125a2.38,2.38,0,0,0,.656,1.553,1.968,1.968,0,0,0,1.447.571,2.41,2.41,0,0,0,1.992-.989l.959.916a3.2,3.2,0,0,1-1.271,1.1A3.978,3.978,0,0,1,81.125,14.146Zm-.212-6.79a1.5,1.5,0,0,0-1.183.513A2.657,2.657,0,0,0,79.155,9.3h3.391V9.166a2.163,2.163,0,0,0-.476-1.351A1.487,1.487,0,0,0,80.913,7.357ZM10.754,32.146a3.682,3.682,0,0,1-2.743-1.066A3.866,3.866,0,0,1,6.96,28.243v-.22a4.755,4.755,0,0,1,.458-2.12A3.484,3.484,0,0,1,8.7,24.449a3.4,3.4,0,0,1,1.846-.52,3.11,3.11,0,0,1,2.5,1.033,4.367,4.367,0,0,1,.883,2.922V28.6H8.754a2.38,2.38,0,0,0,.656,1.553,1.968,1.968,0,0,0,1.447.571,2.41,2.41,0,0,0,1.992-.989l.959.916a3.2,3.2,0,0,1-1.271,1.1A3.978,3.978,0,0,1,10.754,32.146Zm-.212-6.79a1.5,1.5,0,0,0-1.183.513A2.657,2.657,0,0,0,8.784,27.3h3.391v-.132a2.163,2.163,0,0,0-.476-1.351A1.487,1.487,0,0,0,10.542,25.357ZM17.207,32h-1.78V20.75h1.78Zm9.163.146a3.682,3.682,0,0,1-2.743-1.066,3.866,3.866,0,0,1-1.051-2.838v-.22a4.755,4.755,0,0,1,.458-2.12,3.484,3.484,0,0,1,1.285-1.454,3.4,3.4,0,0,1,1.846-.52,3.11,3.11,0,0,1,2.5,1.033,4.367,4.367,0,0,1,.883,2.922V28.6H24.37a2.38,2.38,0,0,0,.656,1.553,1.968,1.968,0,0,0,1.447.571,2.41,2.41,0,0,0,1.992-.989l.959.916a3.2,3.2,0,0,1-1.271,1.1A3.978,3.978,0,0,1,26.369,32.146Zm-.212-6.79a1.5,1.5,0,0,0-1.183.513A2.657,2.657,0,0,0,24.4,27.3H27.79v-.132a2.163,2.163,0,0,0-.476-1.351A1.487,1.487,0,0,0,26.157,25.357ZM32.822,32h-1.78V20.75h1.78Zm5.427.146a3.682,3.682,0,0,1-2.743-1.066,3.866,3.866,0,0,1-1.051-2.838v-.22a4.755,4.755,0,0,1,.458-2.12A3.484,3.484,0,0,1,36.2,24.449a3.4,3.4,0,0,1,1.846-.52,3.11,3.11,0,0,1,2.5,1.033,4.367,4.367,0,0,1,.883,2.922V28.6H36.25a2.38,2.38,0,0,0,.656,1.553,1.968,1.968,0,0,0,1.447.571,2.41,2.41,0,0,0,1.992-.989l.959.916a3.2,3.2,0,0,1-1.271,1.1A3.978,3.978,0,0,1,38.249,32.146Zm-.212-6.79a1.5,1.5,0,0,0-1.183.513,2.657,2.657,0,0,0-.575,1.428H39.67v-.132a2.163,2.163,0,0,0-.476-1.351A1.487,1.487,0,0,0,38.037,25.357Zm6.445-1.282.051.828a2.852,2.852,0,0,1,2.285-.974,2.191,2.191,0,0,1,2.175,1.216,2.811,2.811,0,0,1,2.432-1.216,2.471,2.471,0,0,1,1.952.725,3.192,3.192,0,0,1,.656,2.139V32h-1.78V26.844a1.576,1.576,0,0,0-.33-1.106,1.443,1.443,0,0,0-1.091-.352,1.482,1.482,0,0,0-.992.326,1.719,1.719,0,0,0-.538.853L49.309,32h-1.78V26.785a1.27,1.27,0,0,0-1.428-1.4,1.567,1.567,0,0,0-1.516.872V32H42.8V24.075ZM59.35,32.146a3.682,3.682,0,0,1-2.743-1.066,3.866,3.866,0,0,1-1.051-2.838v-.22a4.755,4.755,0,0,1,.458-2.12A3.484,3.484,0,0,1,57.3,24.449a3.4,3.4,0,0,1,1.846-.52,3.11,3.11,0,0,1,2.5,1.033,4.367,4.367,0,0,1,.883,2.922V28.6H57.351a2.38,2.38,0,0,0,.656,1.553,1.968,1.968,0,0,0,1.447.571,2.41,2.41,0,0,0,1.992-.989l.959.916a3.2,3.2,0,0,1-1.271,1.1A3.978,3.978,0,0,1,59.35,32.146Zm-.212-6.79a1.5,1.5,0,0,0-1.183.513A2.657,2.657,0,0,0,57.38,27.3h3.391v-.132a2.163,2.163,0,0,0-.476-1.351A1.487,1.487,0,0,0,59.138,25.357Zm6.423-1.282.051.916a2.849,2.849,0,0,1,2.307-1.062q2.476,0,2.52,2.834V32h-1.78V26.866a1.632,1.632,0,0,0-.326-1.117,1.371,1.371,0,0,0-1.066-.363,1.715,1.715,0,0,0-1.6.974V32h-1.78V24.075Zm8.921-1.926v1.926h1.4v1.318h-1.4v4.424a.974.974,0,0,0,.179.656.832.832,0,0,0,.641.2,2.742,2.742,0,0,0,.623-.073v1.377a4.383,4.383,0,0,1-1.172.168q-2.051,0-2.051-2.263v-4.49H71.4V24.075h1.3V22.149Zm2.2,5.815a4.673,4.673,0,0,1,.461-2.1,3.37,3.37,0,0,1,1.3-1.436,3.653,3.653,0,0,1,1.919-.5,3.462,3.462,0,0,1,2.6,1.033,4.062,4.062,0,0,1,1.08,2.739l.007.417a4.715,4.715,0,0,1-.45,2.095,3.329,3.329,0,0,1-1.289,1.428,3.679,3.679,0,0,1-1.937.505,3.438,3.438,0,0,1-2.684-1.117,4.278,4.278,0,0,1-1.007-2.977Zm1.78.154a3.193,3.193,0,0,0,.505,1.915,1.643,1.643,0,0,0,1.406.692,1.625,1.625,0,0,0,1.4-.7,3.527,3.527,0,0,0,.5-2.058,3.152,3.152,0,0,0-.516-1.9,1.74,1.74,0,0,0-2.787-.011A3.46,3.46,0,0,0,78.466,28.118ZM10.772,45.964a4.673,4.673,0,0,1,.461-2.1,3.37,3.37,0,0,1,1.3-1.436,3.653,3.653,0,0,1,1.919-.5,3.462,3.462,0,0,1,2.6,1.033,4.062,4.062,0,0,1,1.08,2.739l.007.417a4.715,4.715,0,0,1-.45,2.095A3.329,3.329,0,0,1,16.4,49.641a3.679,3.679,0,0,1-1.937.505,3.438,3.438,0,0,1-2.684-1.117,4.278,4.278,0,0,1-1.007-2.977Zm1.78.154a3.193,3.193,0,0,0,.505,1.915,1.643,1.643,0,0,0,1.406.692,1.625,1.625,0,0,0,1.4-.7,3.527,3.527,0,0,0,.5-2.058,3.152,3.152,0,0,0-.516-1.9,1.74,1.74,0,0,0-2.787-.011A3.46,3.46,0,0,0,12.552,46.118Zm14.048,0a4.76,4.76,0,0,1-.824,2.937,2.684,2.684,0,0,1-2.267,1.091,2.585,2.585,0,0,1-2.168-1L21.253,50H19.642V38.75h1.78v4.087a2.576,2.576,0,0,1,2.073-.908,2.715,2.715,0,0,1,2.278,1.077,4.839,4.839,0,0,1,.828,3.01Zm-1.78-.154a3.365,3.365,0,0,0-.454-1.934,1.512,1.512,0,0,0-1.318-.645A1.652,1.652,0,0,0,21.422,44.4v3.267A1.669,1.669,0,0,0,23.062,48.7a1.5,1.5,0,0,0,1.289-.623,3.26,3.26,0,0,0,.469-1.882Zm7.712,1.882a.807.807,0,0,0-.392-.725,4.167,4.167,0,0,0-1.3-.439,6.683,6.683,0,0,1-1.516-.483,2.023,2.023,0,0,1-1.333-1.868,2.109,2.109,0,0,1,.864-1.714,3.417,3.417,0,0,1,2.2-.688,3.555,3.555,0,0,1,2.3.7,2.231,2.231,0,0,1,.875,1.824h-1.78a1.1,1.1,0,0,0-.381-.853,1.46,1.46,0,0,0-1.011-.341,1.577,1.577,0,0,0-.956.271.854.854,0,0,0-.37.725.721.721,0,0,0,.344.637,4.734,4.734,0,0,0,1.392.458,6.587,6.587,0,0,1,1.644.549,2.328,2.328,0,0,1,.886.765,1.952,1.952,0,0,1,.289,1.084,2.065,2.065,0,0,1-.886,1.732,3.779,3.779,0,0,1-2.322.663,4.1,4.1,0,0,1-1.736-.352,2.857,2.857,0,0,1-1.187-.967,2.288,2.288,0,0,1-.425-1.326h1.729a1.254,1.254,0,0,0,.476.97,1.85,1.85,0,0,0,1.165.341,1.8,1.8,0,0,0,1.069-.267A.827.827,0,0,0,32.532,47.847Zm6.79,2.3a3.682,3.682,0,0,1-2.743-1.066,3.866,3.866,0,0,1-1.051-2.838v-.22a4.755,4.755,0,0,1,.458-2.12,3.484,3.484,0,0,1,1.285-1.454,3.4,3.4,0,0,1,1.846-.52,3.11,3.11,0,0,1,2.5,1.033,4.367,4.367,0,0,1,.883,2.922V46.6H37.323a2.38,2.38,0,0,0,.656,1.553,1.968,1.968,0,0,0,1.447.571,2.41,2.41,0,0,0,1.992-.989l.959.916a3.2,3.2,0,0,1-1.271,1.1A3.978,3.978,0,0,1,39.322,50.146Zm-.212-6.79a1.5,1.5,0,0,0-1.183.513,2.657,2.657,0,0,0-.575,1.428h3.391v-.132a2.163,2.163,0,0,0-.476-1.351A1.487,1.487,0,0,0,39.11,43.357Zm8.921.344a4.4,4.4,0,0,0-.725-.059,1.633,1.633,0,0,0-1.648.938V50h-1.78V42.075h1.7l.044.886a2.005,2.005,0,0,1,1.787-1.033,1.666,1.666,0,0,1,.63.1Zm4.05,4.043,1.677-5.669H55.6L52.85,50H51.3l-2.769-7.925h1.846ZM61.331,50a2.747,2.747,0,0,1-.205-.74,2.994,2.994,0,0,1-4.028.205,2.179,2.179,0,0,1-.754-1.685,2.25,2.25,0,0,1,.941-1.945,4.561,4.561,0,0,1,2.692-.677h1.091v-.52a1.388,1.388,0,0,0-.344-.985,1.365,1.365,0,0,0-1.047-.37,1.568,1.568,0,0,0-1,.3.941.941,0,0,0-.388.773h-1.78a1.975,1.975,0,0,1,.432-1.219,2.879,2.879,0,0,1,1.176-.89,4.129,4.129,0,0,1,1.659-.322,3.325,3.325,0,0,1,2.219.7,2.494,2.494,0,0,1,.85,1.967v3.574a4.051,4.051,0,0,0,.3,1.707V50Zm-1.956-1.282a2.025,2.025,0,0,0,.992-.256,1.713,1.713,0,0,0,.7-.688V46.279h-.959a2.624,2.624,0,0,0-1.487.344,1.115,1.115,0,0,0-.5.974,1.04,1.04,0,0,0,.341.817A1.319,1.319,0,0,0,59.376,48.718Zm5-2.739a4.712,4.712,0,0,1,.85-2.941,2.722,2.722,0,0,1,2.278-1.11,2.587,2.587,0,0,1,2.036.879V38.75h1.78V50H69.71l-.088-.82a2.624,2.624,0,0,1-2.131.967,2.707,2.707,0,0,1-2.252-1.121A4.884,4.884,0,0,1,64.378,45.979Zm1.78.154a3.3,3.3,0,0,0,.465,1.886,1.509,1.509,0,0,0,1.322.677,1.681,1.681,0,0,0,1.6-.974V44.338a1.655,1.655,0,0,0-1.582-.952,1.52,1.52,0,0,0-1.333.685A3.674,3.674,0,0,0,66.158,46.133Zm6.687-.168a4.673,4.673,0,0,1,.461-2.1,3.37,3.37,0,0,1,1.3-1.436,3.653,3.653,0,0,1,1.919-.5,3.462,3.462,0,0,1,2.6,1.033,4.062,4.062,0,0,1,1.08,2.739l.007.417a4.715,4.715,0,0,1-.45,2.095,3.329,3.329,0,0,1-1.289,1.428,3.679,3.679,0,0,1-1.937.505,3.438,3.438,0,0,1-2.684-1.117,4.278,4.278,0,0,1-1.007-2.977Zm1.78.154a3.193,3.193,0,0,0,.505,1.915,1.643,1.643,0,0,0,1.406.692,1.625,1.625,0,0,0,1.4-.7,3.527,3.527,0,0,0,.5-2.058,3.152,3.152,0,0,0-.516-1.9,1.74,1.74,0,0,0-2.787-.011A3.46,3.46,0,0,0,74.625,46.118Z" transform="translate(-5020.971 -6621.971)" fill="#12263f"/>
  </g>
</svg>
