<svg xmlns="http://www.w3.org/2000/svg" width="116.227" height="116.19" viewBox="0 0 116.227 116.19">
  <g id="_132-analytics-1" data-name="132-analytics-1" transform="translate(0 -0.078)">
    <path id="Trazado_722769" data-name="Trazado 722769" d="M40.485,0A40.485,40.485,0,1,1,0,40.485,40.485,40.485,0,0,1,40.485,0Z" transform="translate(35.256 35.298)" fill="#fff" opacity="0.5"/>
    <circle id="Elipse_5062" data-name="Elipse 5062" cx="33.223" cy="33.223" r="33.223" transform="translate(42.518 42.56)" fill="#fff"/>
    <path id="Trazado_722758" data-name="Trazado 722758" d="M211.639,246.6a35.039,35.039,0,1,1,35.039-35.039A35.177,35.177,0,0,1,211.639,246.6Zm0-66.447a31.408,31.408,0,1,0,31.408,31.408A31.535,31.535,0,0,0,211.639,180.152Z" transform="translate(-135.897 -135.776)" fill="#183651"/>
    <path id="Trazado_722759" data-name="Trazado 722759" d="M214.409,328.546a26.343,26.343,0,0,0,26.324,26.324,26.06,26.06,0,0,0,18.518-7.625l-18.518-18.7Z" transform="translate(-164.992 -252.762)" fill="#2ea0da"/>
    <path id="Trazado_722760" data-name="Trazado 722760" d="M240.734,214.331a26.343,26.343,0,0,0-26.324,26.324h26.324Z" transform="translate(-164.993 -164.872)" fill="#e1e6e7"/>
    <path id="Trazado_722761" data-name="Trazado 722761" d="M346.536,347.064a26.06,26.06,0,0,0,7.625-18.518H327.837Z" transform="translate(-252.277 -252.763)" fill="#ff9d00"/>
    <path id="Trazado_722762" data-name="Trazado 722762" d="M328.625,214.331v26.324h26.324A26.343,26.343,0,0,0,328.625,214.331Z" transform="translate(-252.883 -164.872)" fill="#4fbf9f"/>
    <path id="Trazado_722763" data-name="Trazado 722763" d="M41.7,286.488,32.99,280.5,9.752,308.637a8.426,8.426,0,1,0,13.8,9.622Z" transform="translate(-6.085 -215.788)" fill="#fbbd5e"/>
    <path id="Trazado_722764" data-name="Trazado 722764" d="M10.2,318.162h0a9.977,9.977,0,0,1-5.809-1.816,10.177,10.177,0,0,1-2.179-14.705L25.453,273.5a1.721,1.721,0,0,1,2.36-.363l8.714,5.991a1.767,1.767,0,0,1,.545,2.36L19.1,313.26A10.278,10.278,0,0,1,10.2,318.162Zm17.065-41.03L5.119,304a6.424,6.424,0,0,0,1.452,9.44,6.63,6.63,0,0,0,9.44-2l17.428-30.137Z" transform="translate(0 -209.882)" fill="#183651"/>
    <rect id="Rectángulo_351455" data-name="Rectángulo 351455" width="7.444" height="11.982" transform="matrix(-0.823, -0.568, 0.568, -0.823, 34.51, 69.806)" fill="#fff"/>
    <path id="Trazado_722765" data-name="Trazado 722765" d="M121.944,250.61a2.582,2.582,0,0,1-1.089-.363l-6.173-4.176a1.786,1.786,0,0,1-.545-2.542l6.9-9.985a1.786,1.786,0,0,1,2.542-.545l6.173,4.176c.363.363.726.726.726,1.089a1.532,1.532,0,0,1-.363,1.271l-6.9,9.985c-.363.363-.726.726-1.089.726C122.125,250.61,122.125,250.61,121.944,250.61Zm-3.631-6.354,3.086,2.178,4.72-6.9-3.086-2.178Z" transform="translate(-87.595 -179.002)" fill="#183651"/>
    <circle id="Elipse_5063" data-name="Elipse 5063" cx="31.589" cy="31.589" r="31.589" transform="translate(23.456 1.894)" fill="#fff"/>
    <path id="Trazado_722766" data-name="Trazado 722766" d="M127.3,66.888a33.4,33.4,0,1,1,33.4-33.4A33.55,33.55,0,0,1,127.3,66.888Zm0-63.179a29.774,29.774,0,1,0,29.774,29.774A29.909,29.909,0,0,0,127.3,3.709Z" transform="translate(-72.253)" fill="#183651"/>
    <path id="Trazado_722767" data-name="Trazado 722767" d="M157.6,88.118A24.327,24.327,0,1,1,181.932,63.79,24.329,24.329,0,0,1,157.6,88.118Z" transform="translate(-102.559 -30.308)" fill="#b29eee"/>
    <path id="Trazado_722768" data-name="Trazado 722768" d="M253.048,87.793a1.715,1.715,0,0,1-1.816-1.815,12.164,12.164,0,0,0-12.164-12.164,1.815,1.815,0,1,1,0-3.631,15.806,15.806,0,0,1,15.795,15.795A1.819,1.819,0,0,1,253.048,87.793Z" transform="translate(-182.571 -53.947)" fill="#fff"/>
    <g id="Grupo_1008857" data-name="Grupo 1008857" transform="translate(3.848 6.432)">
      <rect id="Rectángulo_351456" data-name="Rectángulo 351456" width="3.631" height="3.631" transform="translate(0 54.464)" fill="#183651"/>
      <rect id="Rectángulo_351457" data-name="Rectángulo 351457" width="3.631" height="3.631" transform="translate(0 43.571)" fill="#183651"/>
      <rect id="Rectángulo_351458" data-name="Rectángulo 351458" width="3.631" height="3.631" transform="translate(0 32.678)" fill="#183651"/>
      <rect id="Rectángulo_351459" data-name="Rectángulo 351459" width="3.631" height="3.631" transform="translate(0 21.786)" fill="#183651"/>
      <rect id="Rectángulo_351460" data-name="Rectángulo 351460" width="3.631" height="3.631" transform="translate(0 10.893)" fill="#183651"/>
      <rect id="Rectángulo_351461" data-name="Rectángulo 351461" width="3.631" height="3.631" fill="#183651"/>
    </g>
  </g>
</svg>
