<svg xmlns="http://www.w3.org/2000/svg" width="90" height="90" viewBox="0 0 90 90">
  <g id="Grupo_1009022" data-name="Grupo 1009022" transform="translate(-290 -965.885)">
    <rect id="Rectángulo_346076" data-name="Rectángulo 346076" width="90" height="90" transform="translate(290 965.885)" fill="none"/>
    <g id="_015-analytics-6" data-name="015-analytics-6" transform="translate(298 974)">
      <path id="Trazado_723679" data-name="Trazado 723679" d="M19.606,0A19.606,19.606,0,1,1,0,19.606,19.606,19.606,0,0,1,19.606,0Z" transform="translate(26.486 7.674)" fill="#b29eee"/>
      <path id="Trazado_723631" data-name="Trazado 723631" d="M90.485,166.15h-57.9a3.378,3.378,0,0,0-3.44,3.44v38.983H93.81V169.59A3.352,3.352,0,0,0,90.485,166.15Z" transform="translate(-24.902 -141.965)" fill="#ff9d00"/>
      <path id="Trazado_723632" data-name="Trazado 723632" d="M87.2,202.988H22.415a1.083,1.083,0,0,1-1.147-1.147V162.858a4.6,4.6,0,0,1,4.586-4.586H83.641a4.6,4.6,0,0,1,4.586,4.586v38.983A1,1,0,0,1,87.2,202.988ZM23.561,200.7H85.934V162.858a2.3,2.3,0,0,0-2.293-2.293H25.854a2.3,2.3,0,0,0-2.293,2.293V200.7Z" transform="translate(-18.172 -135.234)" fill="#183651"/>
      <g id="Grupo_1009008" data-name="Grupo 1009008" transform="translate(1.147 28.771)">
        <rect id="Rectángulo_351593" data-name="Rectángulo 351593" width="55.494" height="37.837" transform="translate(7.682)" fill="#fff"/>
        <path id="Trazado_723633" data-name="Trazado 723633" d="M51.217,419.786v4.472H35.509v-4.472H7.877v3.1a7.976,7.976,0,0,0,8.026,8.026H70.824a7.976,7.976,0,0,0,8.026-8.026v-3.1Z" transform="translate(-7.877 -387.453)" fill="#fff"/>
      </g>
      <g id="Grupo_1009009" data-name="Grupo 1009009" transform="translate(0 36.339)">
        <path id="Trazado_723634" data-name="Trazado 723634" d="M64.093,425.324H9.172A9.2,9.2,0,0,1,0,416.151v-3.1a1.083,1.083,0,0,1,1.147-1.147H28.779a1.083,1.083,0,0,1,1.147,1.147v3.325H43.34v-3.325a1.083,1.083,0,0,1,1.147-1.147H72.119a1.083,1.083,0,0,1,1.147,1.147v3.1A9.2,9.2,0,0,1,64.093,425.324ZM2.293,414.2v1.949a6.9,6.9,0,0,0,6.879,6.879h54.92a6.9,6.9,0,0,0,6.879-6.879V414.2H45.633v3.325a1.083,1.083,0,0,1-1.147,1.147H28.779a1.083,1.083,0,0,1-1.147-1.147V414.2Z" transform="translate(0 -388.29)" fill="#183651"/>
        <rect id="Rectángulo_351594" data-name="Rectángulo 351594" width="2.293" height="2.293" transform="translate(50.449 29.123)" fill="#183651"/>
        <rect id="Rectángulo_351595" data-name="Rectángulo 351595" width="2.293" height="2.293" transform="translate(56.182 29.123)" fill="#183651"/>
        <rect id="Rectángulo_351596" data-name="Rectángulo 351596" width="2.293" height="2.293" transform="translate(61.8 29.123)" fill="#183651"/>
        <rect id="Rectángulo_351597" data-name="Rectángulo 351597" width="2.293" height="2.293" transform="translate(9.172 29.123)" fill="#183651"/>
        <rect id="Rectángulo_351598" data-name="Rectángulo 351598" width="2.293" height="2.293" transform="translate(14.905 29.123)" fill="#183651"/>
        <rect id="Rectángulo_351599" data-name="Rectángulo 351599" width="2.293" height="2.293" transform="translate(20.524 29.123)" fill="#183651"/>
        <path id="Trazado_723635" data-name="Trazado 723635" d="M111.786,265.7H88.969V249.645H87.135V265.7H85.071v1.834h2.064v1.261h1.834v-1.261h22.817Z" transform="translate(-72.688 -249.645)" fill="#183651"/>
      </g>
      <g id="Grupo_1009010" data-name="Grupo 1009010" transform="translate(18.689 38.402)">
        <rect id="Rectángulo_351600" data-name="Rectángulo 351600" width="2.522" height="5.045" transform="translate(0 6.879)" fill="#f06151"/>
        <rect id="Rectángulo_351601" data-name="Rectángulo 351601" width="2.522" height="11.351" transform="translate(5.045 0.573)" fill="#f06151"/>
        <rect id="Rectángulo_351602" data-name="Rectángulo 351602" width="2.522" height="9.402" transform="translate(9.975 2.637)" fill="#f06151"/>
        <rect id="Rectángulo_351603" data-name="Rectángulo 351603" width="2.522" height="12.039" transform="translate(15.02)" fill="#f06151"/>
      </g>
      <path id="Trazado_723636" data-name="Trazado 723636" d="M338.708,27.461l3.1,3.1,18.345-15.249a4.438,4.438,0,0,0,.344-6.421,4.266,4.266,0,0,0-6.421.344Z" transform="translate(-289.406 -6.487)" fill="#fff"/>
      <path id="Trazado_723637" data-name="Trazado 723637" d="M334.192,25.216a1.041,1.041,0,0,1-.8-.344l-3.1-3.1a1.084,1.084,0,0,1-.115-1.491L345.543,1.941a5.584,5.584,0,0,1,8.141-.344,5.584,5.584,0,0,1-.344,8.141L334.995,24.987A.967.967,0,0,1,334.192,25.216ZM332.7,20.974l1.605,1.605L351.849,7.9a3.2,3.2,0,0,0,.229-4.7,3.292,3.292,0,0,0-4.7.229Z" transform="translate(-281.908 0.001)" fill="#183651"/>
      <circle id="Elipse_5071" data-name="Elipse 5071" cx="13.071" cy="13.071" r="13.071" transform="translate(33.021 14.21)" fill="#fff"/>
      <path id="Trazado_723638" data-name="Trazado 723638" d="M233.2,118.178a14.521,14.521,0,0,1-10.09-4.128,14.318,14.318,0,0,1-4.128-10.09,14.521,14.521,0,0,1,4.128-10.09,14.318,14.318,0,0,1,10.09-4.128,14.521,14.521,0,0,1,10.09,4.128,14.275,14.275,0,0,1-10.09,24.307Zm0-26.142a12.265,12.265,0,0,0-8.485,3.44,11.776,11.776,0,0,0-3.44,8.485,12.265,12.265,0,0,0,3.44,8.485,11.589,11.589,0,0,0,8.485,3.44,12.265,12.265,0,0,0,8.485-3.44,11.835,11.835,0,0,0,0-16.855A12.29,12.29,0,0,0,233.2,92.036Z" transform="translate(-187.104 -76.68)" fill="#183651"/>
      <circle id="Elipse_5072" data-name="Elipse 5072" cx="9.287" cy="9.287" r="9.287" transform="translate(36.805 17.993)" fill="#00bcd4"/>
      <path id="Trazado_723639" data-name="Trazado 723639" d="M271.959,163.124a6.713,6.713,0,0,1,0-9.516.892.892,0,1,1,1.261,1.261,4.914,4.914,0,0,0,0,6.994.892.892,0,1,1-1.261,1.261Z" transform="translate(-230.683 -131.028)" fill="#fff"/>
    </g>
  </g>
</svg>
