<svg xmlns="http://www.w3.org/2000/svg" width="90" height="90" viewBox="0 0 90 90">
  <g id="Grupo_1009024" data-name="Grupo 1009024" transform="translate(-600 -965.885)">
    <rect id="Rectángulo_346077" data-name="Rectángulo 346077" width="90" height="90" transform="translate(600 965.885)" fill="none"/>
    <g id="_014-analytics-7" data-name="014-analytics-7" transform="translate(608 974)">
      <ellipse id="Elipse_5073" data-name="Elipse 5073" cx="36.69" cy="36.69" rx="36.69" ry="36.69" transform="translate(0 0)" fill="#81d4fa"/>
      <rect id="Rectángulo_351604" data-name="Rectángulo 351604" width="52.627" height="39.557" transform="translate(19.606 1.147)" fill="#ff9d00"/>
      <path id="Trazado_723640" data-name="Trazado 723640" d="M180.592,41.85H159.151a1.147,1.147,0,0,1,0-2.293h20.294V2.293H129.111v23.39a1.147,1.147,0,1,1-2.293,0V1.147A1.083,1.083,0,0,1,127.965,0h52.627a1.083,1.083,0,0,1,1.147,1.147V40.7A1.083,1.083,0,0,1,180.592,41.85Z" transform="translate(-108.358 0)" fill="#183651"/>
      <rect id="Rectángulo_351605" data-name="Rectángulo 351605" width="43.455" height="30.384" transform="translate(24.193 5.733)" fill="#fff"/>
      <path id="Trazado_723641" data-name="Trazado 723641" d="M48.809,212.677H10.973a3.083,3.083,0,0,0-3.1,3.1v27.862a3.083,3.083,0,0,0,3.1,3.1H48.809a3.083,3.083,0,0,0,3.1-3.1V215.773A3.083,3.083,0,0,0,48.809,212.677Z" transform="translate(-6.73 -181.719)" fill="#cecfd0"/>
      <path id="Trazado_723642" data-name="Trazado 723642" d="M42.079,241.146H4.242A4.308,4.308,0,0,1,0,236.9V209.042A4.308,4.308,0,0,1,4.242,204.8H42.079a4.308,4.308,0,0,1,4.242,4.242V236.9A4.232,4.232,0,0,1,42.079,241.146ZM4.242,207.093a2.009,2.009,0,0,0-1.949,1.949V236.9a2.009,2.009,0,0,0,1.949,1.949H42.079a2.009,2.009,0,0,0,1.949-1.949V209.042a2.009,2.009,0,0,0-1.949-1.949Z" transform="translate(0 -174.989)" fill="#183651"/>
      <g id="Grupo_1009011" data-name="Grupo 1009011" transform="translate(5.274 35.2)">
        <rect id="Rectángulo_351606" data-name="Rectángulo 351606" width="35.773" height="22.587" fill="#fff"/>
        <path id="Trazado_723643" data-name="Trazado 723643" d="M119.469,453.845H103.188l3.21-7.223h9.861Z" transform="translate(-93.442 -416.811)" fill="#fff"/>
      </g>
      <path id="Trazado_723644" data-name="Trazado 723644" d="M112.97,448.261H96.688a1.021,1.021,0,0,1-.917-.573,1.115,1.115,0,0,1-.115-1.032l3.21-7.223a1.1,1.1,0,0,1,1.032-.688h9.861a1,1,0,0,1,1.032.688l3.1,6.994a1.629,1.629,0,0,1,.229.688A1.083,1.083,0,0,1,112.97,448.261Zm-14.561-2.293h12.727l-2.178-4.93h-8.37Z" transform="translate(-81.668 -374.881)" fill="#183651"/>
      <g id="Grupo_1009012" data-name="Grupo 1009012" transform="translate(11.81 17.428)">
        <path id="Trazado_723645" data-name="Trazado 723645" d="M102.687,490.662H82.279a1.147,1.147,0,0,1,0-2.293h20.294a1.083,1.083,0,0,1,1.147,1.147A1.059,1.059,0,0,1,102.687,490.662Z" transform="translate(-81.132 -434.71)" fill="#183651"/>
        <rect id="Rectángulo_351607" data-name="Rectángulo 351607" width="2.752" height="6.535" transform="translate(49.761 6.306)" fill="#183651"/>
        <rect id="Rectángulo_351608" data-name="Rectángulo 351608" width="2.752" height="9.172" transform="translate(44.372 3.669)" fill="#183651"/>
        <rect id="Rectángulo_351609" data-name="Rectángulo 351609" width="2.752" height="12.727" transform="translate(38.983)" fill="#183651"/>
      </g>
      <g id="Grupo_1009013" data-name="Grupo 1009013" transform="translate(28.091 9.402)">
        <rect id="Rectángulo_351610" data-name="Rectángulo 351610" width="15.593" height="2.178" fill="#e0e4e8"/>
        <rect id="Rectángulo_351611" data-name="Rectángulo 351611" width="15.593" height="2.178" transform="translate(0 4.816)" fill="#e0e4e8"/>
      </g>
      <g id="Grupo_1009014" data-name="Grupo 1009014" transform="translate(16.969 59.507)">
        <ellipse id="Elipse_5074" data-name="Elipse 5074" cx="1.376" cy="1.376" rx="1.376" ry="1.376" fill="#183651"/>
        <ellipse id="Elipse_5075" data-name="Elipse 5075" cx="1.376" cy="1.376" rx="1.376" ry="1.376" transform="translate(4.816)" fill="#183651"/>
        <ellipse id="Elipse_5076" data-name="Elipse 5076" cx="1.376" cy="1.376" rx="1.376" ry="1.376" transform="translate(9.631)" fill="#183651"/>
      </g>
      <ellipse id="Elipse_5077" data-name="Elipse 5077" cx="8.714" cy="8.714" rx="8.714" ry="8.714" transform="translate(14.447 37.722)" fill="#00bcd4"/>
      <path id="Trazado_723646" data-name="Trazado 723646" d="M154.247,278.733h-2.981v-5.389a.8.8,0,1,0-1.605,0v6.077a.784.784,0,0,0,.8.8h3.784a.784.784,0,0,0,.8-.8C155.05,279.077,154.591,278.733,154.247,278.733Z" transform="translate(-127.876 -232.87)" fill="#fff"/>
      <g id="Grupo_1009015" data-name="Grupo 1009015" transform="translate(28.435 19.607)">
        <rect id="Rectángulo_351612" data-name="Rectángulo 351612" width="2.293" height="2.293" fill="#183651"/>
        <rect id="Rectángulo_351613" data-name="Rectángulo 351613" width="2.293" height="2.293" transform="translate(6.306)" fill="#183651"/>
        <rect id="Rectángulo_351614" data-name="Rectángulo 351614" width="2.293" height="2.293" transform="translate(12.612)" fill="#183651"/>
      </g>
    </g>
  </g>
</svg>
