<svg xmlns="http://www.w3.org/2000/svg" width="90" height="90" viewBox="0 0 90 90">
  <g id="Grupo_1009026" data-name="Grupo 1009026" transform="translate(-1220 -965.885)">
    <rect id="Rectángulo_350967" data-name="Rectángulo 350967" width="90" height="90" transform="translate(1220 965.885)" fill="none"/>
    <g id="_107-planning" data-name="107-planning" transform="translate(1228 974)">
      <ellipse id="Elipse_5078" data-name="Elipse 5078" cx="36.69" cy="36.69" rx="36.69" ry="36.69" transform="translate(0 0)" fill="#cbbff4"/>
      <g id="Grupo_1009017" data-name="Grupo 1009017" transform="translate(7.567 1.949)">
        <rect id="Rectángulo_351626" data-name="Rectángulo 351626" width="2.293" height="2.293" transform="translate(42.079 26.486)" fill="#183651"/>
        <rect id="Rectángulo_351627" data-name="Rectángulo 351627" width="2.293" height="2.293" transform="translate(49.073 26.486)" fill="#183651"/>
        <rect id="Rectángulo_351628" data-name="Rectángulo 351628" width="2.293" height="2.293" transform="translate(55.952 26.486)" fill="#183651"/>
        <rect id="Rectángulo_351629" data-name="Rectángulo 351629" width="2.293" height="2.293" transform="translate(0 40.703)" fill="#183651"/>
        <rect id="Rectángulo_351630" data-name="Rectángulo 351630" width="2.293" height="2.293" transform="translate(6.879 40.703)" fill="#183651"/>
        <rect id="Rectángulo_351631" data-name="Rectángulo 351631" width="2.293" height="2.293" transform="translate(13.873 40.703)" fill="#183651"/>
        <path id="Trazado_723662" data-name="Trazado 723662" d="M137.088,20.958l-1.605-1.605,2.064-2.178L135.483,15l1.605-1.605,3.784,3.784Z" transform="translate(-123.329 -13.391)" fill="#183651"/>
        <rect id="Rectángulo_351632" data-name="Rectángulo 351632" width="7.109" height="2.293" transform="translate(8.714 2.637)" fill="#183651"/>
      </g>
      <rect id="Rectángulo_351633" data-name="Rectángulo 351633" width="15.135" height="9.287" transform="translate(29.123 62.947)" fill="#00bcd4"/>
      <path id="Trazado_723663" data-name="Trazado 723663" d="M208.478,436.146H193.344A1.083,1.083,0,0,1,192.2,435v-9.287a1.083,1.083,0,0,1,1.147-1.147h15.135a1.083,1.083,0,0,1,1.147,1.147V435A1.083,1.083,0,0,1,208.478,436.146Zm-13.988-2.293h12.842v-6.994H194.49Z" transform="translate(-164.221 -362.766)" fill="#183651"/>
      <rect id="Rectángulo_351634" data-name="Rectángulo 351634" width="15.135" height="9.287" transform="translate(29.123 47.468)" fill="#e0e4e8"/>
      <path id="Trazado_723664" data-name="Trazado 723664" d="M208.478,329.808H193.344a1.083,1.083,0,0,1-1.147-1.147v-9.287a1.083,1.083,0,0,1,1.147-1.147h15.135a1.083,1.083,0,0,1,1.147,1.147v9.287A1.083,1.083,0,0,1,208.478,329.808Zm-13.988-2.293h12.842v-6.994H194.49Z" transform="translate(-164.221 -271.906)" fill="#183651"/>
      <rect id="Rectángulo_351635" data-name="Rectángulo 351635" width="15.135" height="9.287" transform="translate(29.123 32.104)" fill="#00bcd4"/>
      <path id="Trazado_723665" data-name="Trazado 723665" d="M208.478,223.469H193.344a1.083,1.083,0,0,1-1.147-1.147v-9.287a1.083,1.083,0,0,1,1.147-1.147h15.135a1.083,1.083,0,0,1,1.147,1.147v9.287A1.083,1.083,0,0,1,208.478,223.469Zm-13.988-2.293h12.842v-6.994H194.49Z" transform="translate(-164.221 -181.046)" fill="#183651"/>
      <rect id="Rectángulo_351636" data-name="Rectángulo 351636" width="15.135" height="9.287" transform="translate(29.123 16.625)" fill="#e0e4e8"/>
      <path id="Trazado_723666" data-name="Trazado 723666" d="M208.478,117.918H193.344a1.083,1.083,0,0,1-1.147-1.147v-9.287a1.083,1.083,0,0,1,1.147-1.147h15.135a1.083,1.083,0,0,1,1.147,1.147v9.287A1.149,1.149,0,0,1,208.478,117.918Zm-13.988-2.293h12.842v-6.994H194.49Z" transform="translate(-164.221 -90.859)" fill="#183651"/>
      <rect id="Rectángulo_351637" data-name="Rectángulo 351637" width="15.135" height="9.287" transform="translate(29.123 1.147)" fill="#00bcd4"/>
      <g id="Grupo_1009018" data-name="Grupo 1009018" transform="translate(0.803 0)">
        <path id="Trazado_723667" data-name="Trazado 723667" d="M208.478,11.58H193.344a1.083,1.083,0,0,1-1.147-1.147V1.147A1.083,1.083,0,0,1,193.344,0h15.135a1.083,1.083,0,0,1,1.147,1.147v9.287A1.149,1.149,0,0,1,208.478,11.58ZM194.49,9.287h12.842V2.293H194.49Z" transform="translate(-165.023)" fill="#183651"/>
        <path id="Trazado_723668" data-name="Trazado 723668" d="M329.285,443.835l-1.605-1.605,2.064-2.064-2.064-2.178,1.605-1.605,3.669,3.784Z" transform="translate(-280.785 -372.862)" fill="#183651"/>
        <rect id="Rectángulo_351638" data-name="Rectángulo 351638" width="7.109" height="2.293" transform="translate(43.455 66.157)" fill="#183651"/>
        <path id="Trazado_723669" data-name="Trazado 723669" d="M142.717,440.01,141,438.405l2.178-2.178L141,434.048l1.72-1.605,3.669,3.784Z" transform="translate(-121.276 -369.496)" fill="#183651"/>
        <path id="Trazado_723670" data-name="Trazado 723670" d="M28.9,367.378H14a8.428,8.428,0,1,1,.115-16.855H33.834v2.293H14.113a6.191,6.191,0,0,0,0,12.383H29.019v2.178H28.9Z" transform="translate(-5.514 -299.501)" fill="#183651"/>
        <path id="Trazado_723671" data-name="Trazado 723671" d="M142.717,228.007,141,226.4l2.178-2.064L141,222.159l1.72-1.605,3.669,3.784Z" transform="translate(-121.276 -188.45)" fill="#183651"/>
        <path id="Trazado_723672" data-name="Trazado 723672" d="M28.9,154.816H14a8.465,8.465,0,0,1-8.485-8.485,8.564,8.564,0,0,1,8.6-8.485H33.834v2.293H14.113a6.191,6.191,0,0,0,0,12.383H29.019v2.293H28.9Z" transform="translate(-5.514 -117.782)" fill="#183651"/>
        <path id="Trazado_723673" data-name="Trazado 723673" d="M329.774,338.284l-3.669-3.784,3.669-3.669,1.72,1.605-2.178,2.064,2.178,2.178Z" transform="translate(-279.44 -282.675)" fill="#183651"/>
        <path id="Trazado_723674" data-name="Trazado 723674" d="M323.77,260.94H308.865v-2.293H323.77a6.166,6.166,0,0,0,6.191-6.191v-.573a6.166,6.166,0,0,0-6.191-6.191H304.049V243.4H323.77a8.465,8.465,0,0,1,8.485,8.485v.573A8.465,8.465,0,0,1,323.77,260.94Z" transform="translate(-260.594 -207.969)" fill="#183651"/>
        <path id="Trazado_723675" data-name="Trazado 723675" d="M329.774,125.721l-3.669-3.784,3.669-3.784,1.72,1.605-2.178,2.178,2.178,2.178Z" transform="translate(-279.44 -100.955)" fill="#183651"/>
        <path id="Trazado_723676" data-name="Trazado 723676" d="M323.77,49.051H308.865V46.757H323.77a6.166,6.166,0,0,0,6.191-6.191v-.573A6.166,6.166,0,0,0,323.77,33.8H304.049V31.508H323.77a8.465,8.465,0,0,1,8.485,8.485v.573A8.465,8.465,0,0,1,323.77,49.051Z" transform="translate(-260.594 -26.922)" fill="#183651"/>
      </g>
      <rect id="Rectángulo_351639" data-name="Rectángulo 351639" width="15.135" height="9.287" transform="translate(57.099 62.947)" fill="#ff9d00"/>
      <path id="Trazado_723677" data-name="Trazado 723677" d="M400.675,436.146H385.541A1.083,1.083,0,0,1,384.394,435v-9.287a1.083,1.083,0,0,1,1.147-1.147h15.135a1.083,1.083,0,0,1,1.147,1.147V435A1.083,1.083,0,0,1,400.675,436.146Zm-13.988-2.293h12.842v-6.994H386.687Z" transform="translate(-328.441 -362.766)" fill="#183651"/>
      <rect id="Rectángulo_351640" data-name="Rectángulo 351640" width="15.135" height="9.287" transform="translate(1.147 1.147)" fill="#ff9d00"/>
      <path id="Trazado_723678" data-name="Trazado 723678" d="M16.281,11.58H1.147A1.083,1.083,0,0,1,0,10.434V1.147A1.083,1.083,0,0,1,1.147,0H16.281a1.083,1.083,0,0,1,1.147,1.147v9.287A1.149,1.149,0,0,1,16.281,11.58ZM2.293,9.287H15.135V2.293H2.293Z" transform="translate(0 0)" fill="#183651"/>
    </g>
  </g>
</svg>
