<svg xmlns="http://www.w3.org/2000/svg" xmlns:xlink="http://www.w3.org/1999/xlink" width="371.448" height="210.286" viewBox="0 0 371.448 210.286">
  <defs>
    <clipPath id="clip-path">
      <rect id="Rectángulo_351797" data-name="Rectángulo 351797" width="371.448" height="210.286" fill="none"/>
    </clipPath>
  </defs>
  <g id="Grupo_1009260" data-name="Grupo 1009260" transform="translate(2153 3034)">
    <path id="Trazado_724680" data-name="Trazado 724680" d="M0,0H317V175H0Z" transform="translate(-2101 -3029.857)" fill="#fff"/>
    <path id="Trazado_724681" data-name="Trazado 724681" d="M0,0H0" transform="translate(-2101.249 -3030.047)" fill="none" stroke="#bababa" stroke-linecap="round" stroke-width="0.788"/>
    <path id="Trazado_724682" data-name="Trazado 724682" d="M0,0H311.153" transform="translate(-2097.693 -3030.047)" fill="none" stroke="#bababa" stroke-linecap="round" stroke-width="0.788" stroke-dasharray="0 3.556"/>
    <path id="Trazado_724683" data-name="Trazado 724683" d="M0,0H0" transform="translate(-1784.762 -3030.047)" fill="none" stroke="#bababa" stroke-linecap="round" stroke-width="0.788"/>
    <path id="Trazado_724684" data-name="Trazado 724684" d="M0,0H0" transform="translate(-2101.249 -3007.868)" fill="none" stroke="#bababa" stroke-linecap="round" stroke-width="0.788"/>
    <path id="Trazado_724685" data-name="Trazado 724685" d="M0,0H311.153" transform="translate(-2097.693 -3007.868)" fill="none" stroke="#bababa" stroke-linecap="round" stroke-width="0.788" stroke-dasharray="0 3.556"/>
    <path id="Trazado_724686" data-name="Trazado 724686" d="M0,0H0" transform="translate(-1784.762 -3007.868)" fill="none" stroke="#bababa" stroke-linecap="round" stroke-width="0.788"/>
    <path id="Trazado_724687" data-name="Trazado 724687" d="M0,0H0" transform="translate(-2101.249 -2985.69)" fill="none" stroke="#bababa" stroke-linecap="round" stroke-width="0.788"/>
    <path id="Trazado_724688" data-name="Trazado 724688" d="M0,0H311.153" transform="translate(-2097.693 -2985.69)" fill="none" stroke="#bababa" stroke-linecap="round" stroke-width="0.788" stroke-dasharray="0 3.556"/>
    <path id="Trazado_724689" data-name="Trazado 724689" d="M0,0H0" transform="translate(-1784.762 -2985.69)" fill="none" stroke="#bababa" stroke-linecap="round" stroke-width="0.788"/>
    <path id="Trazado_724690" data-name="Trazado 724690" d="M0,0H0" transform="translate(-2101.249 -2963.511)" fill="none" stroke="#bababa" stroke-linecap="round" stroke-width="0.788"/>
    <path id="Trazado_724691" data-name="Trazado 724691" d="M0,0H311.153" transform="translate(-2097.693 -2963.511)" fill="none" stroke="#bababa" stroke-linecap="round" stroke-width="0.788" stroke-dasharray="0 3.556"/>
    <path id="Trazado_724692" data-name="Trazado 724692" d="M0,0H0" transform="translate(-1784.762 -2963.511)" fill="none" stroke="#bababa" stroke-linecap="round" stroke-width="0.788"/>
    <path id="Trazado_724693" data-name="Trazado 724693" d="M0,0H0" transform="translate(-2101.249 -2941.333)" fill="none" stroke="#bababa" stroke-linecap="round" stroke-width="0.788"/>
    <path id="Trazado_724694" data-name="Trazado 724694" d="M0,0H311.153" transform="translate(-2097.693 -2941.333)" fill="none" stroke="#bababa" stroke-linecap="round" stroke-width="0.788" stroke-dasharray="0 3.556"/>
    <path id="Trazado_724695" data-name="Trazado 724695" d="M0,0H0" transform="translate(-1784.762 -2941.333)" fill="none" stroke="#bababa" stroke-linecap="round" stroke-width="0.788"/>
    <path id="Trazado_724696" data-name="Trazado 724696" d="M0,0H0" transform="translate(-2101.249 -2919.154)" fill="none" stroke="#bababa" stroke-linecap="round" stroke-width="0.788"/>
    <path id="Trazado_724697" data-name="Trazado 724697" d="M0,0H311.153" transform="translate(-2097.693 -2919.154)" fill="none" stroke="#bababa" stroke-linecap="round" stroke-width="0.788" stroke-dasharray="0 3.556"/>
    <path id="Trazado_724698" data-name="Trazado 724698" d="M0,0H0" transform="translate(-1784.762 -2919.154)" fill="none" stroke="#bababa" stroke-linecap="round" stroke-width="0.788"/>
    <path id="Trazado_724699" data-name="Trazado 724699" d="M0,0H0" transform="translate(-2101.249 -2896.976)" fill="none" stroke="#bababa" stroke-linecap="round" stroke-width="0.788"/>
    <path id="Trazado_724700" data-name="Trazado 724700" d="M0,0H311.153" transform="translate(-2097.693 -2896.976)" fill="none" stroke="#bababa" stroke-linecap="round" stroke-width="0.788" stroke-dasharray="0 3.556"/>
    <path id="Trazado_724701" data-name="Trazado 724701" d="M0,0H0" transform="translate(-1784.762 -2896.976)" fill="none" stroke="#bababa" stroke-linecap="round" stroke-width="0.788"/>
    <path id="Trazado_724702" data-name="Trazado 724702" d="M0,0H0" transform="translate(-2101.249 -2874.797)" fill="none" stroke="#bababa" stroke-linecap="round" stroke-width="0.788"/>
    <path id="Trazado_724703" data-name="Trazado 724703" d="M0,0H311.153" transform="translate(-2097.693 -2874.797)" fill="none" stroke="#bababa" stroke-linecap="round" stroke-width="0.788" stroke-dasharray="0 3.556"/>
    <path id="Trazado_724704" data-name="Trazado 724704" d="M0,0H0" transform="translate(-1784.762 -2874.797)" fill="none" stroke="#bababa" stroke-linecap="round" stroke-width="0.788"/>
    <g id="Grupo_1009090" data-name="Grupo 1009090" transform="translate(-2153 -3034)">
      <g id="Grupo_1009089" data-name="Grupo 1009089" clip-path="url(#clip-path)">
        <path id="Trazado_723941" data-name="Trazado 723941" d="M371.448,179.233H51.752V4.268" fill="none" stroke="#5d5d5d" stroke-miterlimit="10" stroke-width="1.183"/>
        <path id="Trazado_723942" data-name="Trazado 723942" d="M32.162,3.987a3.673,3.673,0,0,1-.543,2.187,1.917,1.917,0,0,1-1.651.737,1.942,1.942,0,0,1-1.643-.719,3.5,3.5,0,0,1-.565-2.127V2.9A3.614,3.614,0,0,1,28.3.725,2.263,2.263,0,0,1,31.6.707a3.506,3.506,0,0,1,.557,2.116ZM31.039,2.73a2.839,2.839,0,0,0-.259-1.388.989.989,0,0,0-1.631-.023,2.646,2.646,0,0,0-.272,1.305V4.148a2.917,2.917,0,0,0,.264,1.405.884.884,0,0,0,.827.462.87.87,0,0,0,.8-.428,2.748,2.748,0,0,0,.272-1.337Z" fill="#0f576b"/>
        <path id="Trazado_723943" data-name="Trazado 723943" d="M33.386,8.334l-.605-.36a3.368,3.368,0,0,0,.368-.732,2.226,2.226,0,0,0,.1-.636V5.733h1.012l-.005.809a2.246,2.246,0,0,1-.247.981,2.421,2.421,0,0,1-.626.811" fill="#0f576b"/>
        <path id="Trazado_723944" data-name="Trazado 723944" d="M39.031,4.421h.836v.9h-.836v1.5H37.908v-1.5H35l-.032-.684,2.9-4.546h1.159Zm-2.883,0h1.76V1.612l-.083.148Z" fill="#0f576b"/>
        <path id="Trazado_723945" data-name="Trazado 723945" d="M44.995,3.987a3.673,3.673,0,0,1-.543,2.187,1.917,1.917,0,0,1-1.651.737,1.942,1.942,0,0,1-1.643-.719,3.5,3.5,0,0,1-.565-2.127V2.9A3.614,3.614,0,0,1,41.135.725a2.263,2.263,0,0,1,3.3-.018,3.506,3.506,0,0,1,.557,2.116ZM43.872,2.73a2.839,2.839,0,0,0-.259-1.388.989.989,0,0,0-1.631-.023,2.646,2.646,0,0,0-.272,1.305V4.148a2.917,2.917,0,0,0,.264,1.405.884.884,0,0,0,.827.462.87.87,0,0,0,.8-.428,2.748,2.748,0,0,0,.272-1.337Z" fill="#0f576b"/>
        <path id="Trazado_723946" data-name="Trazado 723946" d="M32.162,26.339a3.673,3.673,0,0,1-.543,2.187,1.917,1.917,0,0,1-1.651.737,1.942,1.942,0,0,1-1.643-.719,3.5,3.5,0,0,1-.565-2.127V25.253a3.614,3.614,0,0,1,.542-2.176,2.263,2.263,0,0,1,3.3-.018,3.506,3.506,0,0,1,.557,2.116Zm-1.123-1.257a2.839,2.839,0,0,0-.259-1.388.989.989,0,0,0-1.631-.023,2.646,2.646,0,0,0-.272,1.305V26.5a2.917,2.917,0,0,0,.264,1.405.884.884,0,0,0,.827.462.87.87,0,0,0,.8-.428,2.748,2.748,0,0,0,.272-1.337Z" fill="#0f576b"/>
        <path id="Trazado_723947" data-name="Trazado 723947" d="M33.386,30.686l-.605-.36a3.368,3.368,0,0,0,.368-.732,2.226,2.226,0,0,0,.1-.636v-.873h1.012l-.005.809a2.246,2.246,0,0,1-.247.981,2.421,2.421,0,0,1-.626.811" fill="#0f576b"/>
        <path id="Trazado_723948" data-name="Trazado 723948" d="M36.532,25.3h.684a1.228,1.228,0,0,0,.82-.268.959.959,0,0,0,.3-.762,1.044,1.044,0,0,0-.251-.746,1.012,1.012,0,0,0-.77-.266,1.072,1.072,0,0,0-.744.261.875.875,0,0,0-.291.681H35.16a1.709,1.709,0,0,1,.274-.942,1.86,1.86,0,0,1,.768-.663,2.5,2.5,0,0,1,1.1-.238,2.318,2.318,0,0,1,1.583.506,1.776,1.776,0,0,1,.575,1.407,1.433,1.433,0,0,1-.289.852,1.827,1.827,0,0,1-.746.6,1.649,1.649,0,0,1,.843.6,1.627,1.627,0,0,1,.288.97,1.807,1.807,0,0,1-.621,1.441,2.727,2.727,0,0,1-3.221.019,1.707,1.707,0,0,1-.62-1.377h1.123a.937.937,0,0,0,.3.72,1.132,1.132,0,0,0,.8.278,1.164,1.164,0,0,0,.822-.278,1.034,1.034,0,0,0,.3-.8,1.052,1.052,0,0,0-.313-.818,1.345,1.345,0,0,0-.934-.286h-.66Z" fill="#0f576b"/>
        <path id="Trazado_723949" data-name="Trazado 723949" d="M40.911,25.835l.365-3.391h3.613v.971h-2.68l-.185,1.607a2.086,2.086,0,0,1,1.054-.268,1.872,1.872,0,0,1,1.494.615,2.431,2.431,0,0,1,.533,1.653,2.243,2.243,0,0,1-.59,1.633,2.157,2.157,0,0,1-1.623.608,2.259,2.259,0,0,1-1.531-.525,1.9,1.9,0,0,1-.658-1.383h1.086a1.184,1.184,0,0,0,.351.751,1.068,1.068,0,0,0,.749.261.962.962,0,0,0,.805-.37,1.591,1.591,0,0,0,.289-1.007,1.406,1.406,0,0,0-.319-.972,1.112,1.112,0,0,0-.877-.358,1.229,1.229,0,0,0-.98.4Z" fill="#0f576b"/>
        <path id="Trazado_723950" data-name="Trazado 723950" d="M32.162,48.691a3.673,3.673,0,0,1-.543,2.187,1.917,1.917,0,0,1-1.651.737,1.942,1.942,0,0,1-1.643-.719,3.5,3.5,0,0,1-.565-2.127V47.6a3.614,3.614,0,0,1,.542-2.176,2.263,2.263,0,0,1,3.3-.018,3.506,3.506,0,0,1,.557,2.116Zm-1.123-1.257a2.839,2.839,0,0,0-.259-1.388.989.989,0,0,0-1.631-.023,2.646,2.646,0,0,0-.272,1.305v1.524a2.917,2.917,0,0,0,.264,1.4.884.884,0,0,0,.827.462.87.87,0,0,0,.8-.428,2.748,2.748,0,0,0,.272-1.337Z" fill="#0f576b"/>
        <path id="Trazado_723951" data-name="Trazado 723951" d="M33.386,53.038l-.605-.36a3.368,3.368,0,0,0,.368-.732,2.226,2.226,0,0,0,.1-.636v-.873h1.012l-.005.809a2.246,2.246,0,0,1-.247.981,2.421,2.421,0,0,1-.626.811" fill="#0f576b"/>
        <path id="Trazado_723952" data-name="Trazado 723952" d="M36.532,47.647h.684a1.228,1.228,0,0,0,.82-.268.959.959,0,0,0,.3-.762,1.044,1.044,0,0,0-.251-.746,1.012,1.012,0,0,0-.77-.266,1.072,1.072,0,0,0-.744.261.875.875,0,0,0-.291.681H35.16a1.709,1.709,0,0,1,.274-.942,1.86,1.86,0,0,1,.768-.663,2.5,2.5,0,0,1,1.1-.238,2.318,2.318,0,0,1,1.583.506,1.776,1.776,0,0,1,.575,1.407,1.433,1.433,0,0,1-.289.852,1.827,1.827,0,0,1-.746.6,1.649,1.649,0,0,1,.843.6,1.627,1.627,0,0,1,.288.97,1.807,1.807,0,0,1-.621,1.441,2.727,2.727,0,0,1-3.221.019,1.707,1.707,0,0,1-.62-1.377h1.123a.937.937,0,0,0,.3.72,1.132,1.132,0,0,0,.8.278,1.164,1.164,0,0,0,.822-.278,1.034,1.034,0,0,0,.3-.8,1.052,1.052,0,0,0-.313-.818,1.346,1.346,0,0,0-.934-.286h-.66Z" fill="#0f576b"/>
        <path id="Trazado_723953" data-name="Trazado 723953" d="M44.995,48.691a3.673,3.673,0,0,1-.543,2.187,1.917,1.917,0,0,1-1.651.737,1.942,1.942,0,0,1-1.643-.719,3.5,3.5,0,0,1-.565-2.127V47.6a3.614,3.614,0,0,1,.542-2.176,2.263,2.263,0,0,1,3.3-.018,3.506,3.506,0,0,1,.557,2.116Zm-1.123-1.257a2.839,2.839,0,0,0-.259-1.388.989.989,0,0,0-1.631-.023,2.646,2.646,0,0,0-.272,1.305v1.524a2.917,2.917,0,0,0,.264,1.4.884.884,0,0,0,.827.462.87.87,0,0,0,.8-.428,2.748,2.748,0,0,0,.272-1.337Z" fill="#0f576b"/>
        <path id="Trazado_723954" data-name="Trazado 723954" d="M32.162,71.043a3.673,3.673,0,0,1-.543,2.187,1.917,1.917,0,0,1-1.651.737,1.942,1.942,0,0,1-1.643-.719,3.5,3.5,0,0,1-.565-2.127V69.957a3.614,3.614,0,0,1,.542-2.176,2.263,2.263,0,0,1,3.3-.018,3.506,3.506,0,0,1,.557,2.116Zm-1.123-1.257A2.839,2.839,0,0,0,30.78,68.4a.989.989,0,0,0-1.631-.023,2.646,2.646,0,0,0-.272,1.305V71.2a2.917,2.917,0,0,0,.264,1.4.884.884,0,0,0,.827.462.87.87,0,0,0,.8-.428,2.748,2.748,0,0,0,.272-1.337Z" fill="#0f576b"/>
        <path id="Trazado_723955" data-name="Trazado 723955" d="M33.386,75.389l-.605-.359a3.368,3.368,0,0,0,.368-.732,2.227,2.227,0,0,0,.1-.637v-.873h1.012l-.005.81a2.246,2.246,0,0,1-.247.981,2.407,2.407,0,0,1-.626.81" fill="#0f576b"/>
        <path id="Trazado_723956" data-name="Trazado 723956" d="M39.757,73.874H35.235V73.1l2.24-2.444a5.563,5.563,0,0,0,.69-.9,1.466,1.466,0,0,0,.2-.728,1.11,1.11,0,0,0-.269-.776.939.939,0,0,0-.728-.295,1.079,1.079,0,0,0-.845.332,1.3,1.3,0,0,0-.3.91H35.1a2.193,2.193,0,0,1,.279-1.106,1.924,1.924,0,0,1,.8-.765,2.535,2.535,0,0,1,1.2-.272,2.274,2.274,0,0,1,1.545.492,1.7,1.7,0,0,1,.566,1.36,2.3,2.3,0,0,1-.284,1.056,5.992,5.992,0,0,1-.931,1.254l-1.644,1.76h3.123Z" fill="#0f576b"/>
        <path id="Trazado_723957" data-name="Trazado 723957" d="M40.911,70.539l.365-3.391h3.613v.971h-2.68l-.185,1.607a2.086,2.086,0,0,1,1.054-.268,1.872,1.872,0,0,1,1.494.615,2.431,2.431,0,0,1,.533,1.653,2.243,2.243,0,0,1-.59,1.633,2.157,2.157,0,0,1-1.623.608,2.259,2.259,0,0,1-1.531-.525,1.9,1.9,0,0,1-.658-1.383h1.086a1.184,1.184,0,0,0,.351.751,1.068,1.068,0,0,0,.749.261.962.962,0,0,0,.805-.37,1.591,1.591,0,0,0,.289-1.007,1.406,1.406,0,0,0-.319-.972,1.112,1.112,0,0,0-.877-.358,1.229,1.229,0,0,0-.98.4Z" fill="#0f576b"/>
        <path id="Trazado_723958" data-name="Trazado 723958" d="M32.162,93.395a3.673,3.673,0,0,1-.543,2.187,1.917,1.917,0,0,1-1.651.737,1.942,1.942,0,0,1-1.643-.719,3.5,3.5,0,0,1-.565-2.127V92.309a3.614,3.614,0,0,1,.542-2.176,2.263,2.263,0,0,1,3.3-.018,3.506,3.506,0,0,1,.557,2.116Zm-1.123-1.257a2.839,2.839,0,0,0-.259-1.388.989.989,0,0,0-1.631-.023,2.646,2.646,0,0,0-.272,1.305v1.524a2.917,2.917,0,0,0,.264,1.4.884.884,0,0,0,.827.462.87.87,0,0,0,.8-.428,2.748,2.748,0,0,0,.272-1.337Z" fill="#0f576b"/>
        <path id="Trazado_723959" data-name="Trazado 723959" d="M33.386,97.742l-.605-.36a3.368,3.368,0,0,0,.368-.732,2.226,2.226,0,0,0,.1-.636v-.873h1.012l-.005.809a2.246,2.246,0,0,1-.247.981,2.421,2.421,0,0,1-.626.811" fill="#0f576b"/>
        <path id="Trazado_723960" data-name="Trazado 723960" d="M39.757,96.226H35.235v-.771l2.24-2.444a5.563,5.563,0,0,0,.69-.9,1.466,1.466,0,0,0,.2-.728A1.11,1.11,0,0,0,38.1,90.6a.939.939,0,0,0-.728-.295,1.079,1.079,0,0,0-.845.332,1.3,1.3,0,0,0-.3.91H35.1a2.193,2.193,0,0,1,.279-1.106,1.924,1.924,0,0,1,.8-.765,2.535,2.535,0,0,1,1.2-.272,2.274,2.274,0,0,1,1.545.492,1.7,1.7,0,0,1,.566,1.36,2.3,2.3,0,0,1-.284,1.056,5.992,5.992,0,0,1-.931,1.254l-1.644,1.76h3.123Z" fill="#0f576b"/>
        <path id="Trazado_723961" data-name="Trazado 723961" d="M44.995,93.395a3.673,3.673,0,0,1-.543,2.187,1.917,1.917,0,0,1-1.651.737,1.942,1.942,0,0,1-1.643-.719,3.5,3.5,0,0,1-.565-2.127V92.309a3.614,3.614,0,0,1,.542-2.176,2.263,2.263,0,0,1,3.3-.018,3.506,3.506,0,0,1,.557,2.116Zm-1.123-1.257a2.839,2.839,0,0,0-.259-1.388.989.989,0,0,0-1.631-.023,2.646,2.646,0,0,0-.272,1.305v1.524a2.917,2.917,0,0,0,.264,1.4.884.884,0,0,0,.827.462A.87.87,0,0,0,43.6,95a2.748,2.748,0,0,0,.272-1.337Z" fill="#0f576b"/>
        <path id="Trazado_723962" data-name="Trazado 723962" d="M32.162,115.747a3.673,3.673,0,0,1-.543,2.187,1.917,1.917,0,0,1-1.651.737,1.942,1.942,0,0,1-1.643-.719,3.5,3.5,0,0,1-.565-2.127v-1.164a3.614,3.614,0,0,1,.542-2.176,2.263,2.263,0,0,1,3.3-.018,3.506,3.506,0,0,1,.557,2.116Zm-1.123-1.257a2.839,2.839,0,0,0-.259-1.388.989.989,0,0,0-1.631-.023,2.646,2.646,0,0,0-.272,1.305v1.524a2.917,2.917,0,0,0,.264,1.405.884.884,0,0,0,.827.462.87.87,0,0,0,.8-.428,2.748,2.748,0,0,0,.272-1.337Z" fill="#0f576b"/>
        <path id="Trazado_723963" data-name="Trazado 723963" d="M33.386,120.093l-.605-.36a3.368,3.368,0,0,0,.368-.732,2.226,2.226,0,0,0,.1-.636v-.873h1.012l-.005.809a2.246,2.246,0,0,1-.247.981,2.421,2.421,0,0,1-.626.811" fill="#0f576b"/>
        <path id="Trazado_723964" data-name="Trazado 723964" d="M38.273,118.578H37.155v-5.4l-1.649.562v-.943l2.623-.965h.144Z" fill="#0f576b"/>
        <path id="Trazado_723965" data-name="Trazado 723965" d="M40.911,115.242l.365-3.391h3.613v.971h-2.68l-.185,1.607a2.086,2.086,0,0,1,1.054-.268,1.872,1.872,0,0,1,1.494.615,2.431,2.431,0,0,1,.533,1.653,2.247,2.247,0,0,1-.59,1.634,2.161,2.161,0,0,1-1.623.607,2.263,2.263,0,0,1-1.531-.524,1.9,1.9,0,0,1-.658-1.384h1.086a1.184,1.184,0,0,0,.351.751,1.063,1.063,0,0,0,.749.261.962.962,0,0,0,.805-.37,1.591,1.591,0,0,0,.289-1.007,1.406,1.406,0,0,0-.319-.972,1.112,1.112,0,0,0-.877-.358,1.229,1.229,0,0,0-.98.4Z" fill="#0f576b"/>
        <path id="Trazado_723966" data-name="Trazado 723966" d="M32.162,138.1a3.673,3.673,0,0,1-.543,2.187,1.917,1.917,0,0,1-1.651.737,1.942,1.942,0,0,1-1.643-.719,3.5,3.5,0,0,1-.565-2.127v-1.164a3.614,3.614,0,0,1,.542-2.176,2.263,2.263,0,0,1,3.3-.018,3.506,3.506,0,0,1,.557,2.116Zm-1.123-1.257a2.839,2.839,0,0,0-.259-1.388.989.989,0,0,0-1.631-.023,2.646,2.646,0,0,0-.272,1.3v1.524a2.917,2.917,0,0,0,.264,1.4.884.884,0,0,0,.827.462.87.87,0,0,0,.8-.428,2.748,2.748,0,0,0,.272-1.337Z" fill="#0f576b"/>
        <path id="Trazado_723967" data-name="Trazado 723967" d="M33.386,142.445l-.605-.36a3.368,3.368,0,0,0,.368-.732,2.226,2.226,0,0,0,.1-.636v-.873h1.012l-.005.809a2.246,2.246,0,0,1-.247.981,2.421,2.421,0,0,1-.626.811" fill="#0f576b"/>
        <path id="Trazado_723968" data-name="Trazado 723968" d="M38.273,140.93H37.155v-5.4l-1.649.562v-.943l2.623-.965h.144Z" fill="#0f576b"/>
        <path id="Trazado_723969" data-name="Trazado 723969" d="M44.995,138.1a3.673,3.673,0,0,1-.543,2.187,1.917,1.917,0,0,1-1.651.737,1.942,1.942,0,0,1-1.643-.719,3.5,3.5,0,0,1-.565-2.127v-1.164a3.614,3.614,0,0,1,.542-2.176,2.263,2.263,0,0,1,3.3-.018,3.506,3.506,0,0,1,.557,2.116Zm-1.123-1.257a2.839,2.839,0,0,0-.259-1.388.989.989,0,0,0-1.631-.023,2.646,2.646,0,0,0-.272,1.3v1.524a2.917,2.917,0,0,0,.264,1.4.884.884,0,0,0,.827.462.87.87,0,0,0,.8-.428,2.748,2.748,0,0,0,.272-1.337Z" fill="#0f576b"/>
        <path id="Trazado_723970" data-name="Trazado 723970" d="M32.162,160.45a3.673,3.673,0,0,1-.543,2.187,1.917,1.917,0,0,1-1.651.737,1.942,1.942,0,0,1-1.643-.719,3.5,3.5,0,0,1-.565-2.127v-1.164a3.614,3.614,0,0,1,.542-2.176,2.263,2.263,0,0,1,3.3-.018,3.506,3.506,0,0,1,.557,2.116Zm-1.123-1.257a2.839,2.839,0,0,0-.259-1.388.989.989,0,0,0-1.631-.023,2.646,2.646,0,0,0-.272,1.305v1.524a2.917,2.917,0,0,0,.264,1.405.884.884,0,0,0,.827.462.87.87,0,0,0,.8-.428,2.748,2.748,0,0,0,.272-1.337Z" fill="#0f576b"/>
        <path id="Trazado_723971" data-name="Trazado 723971" d="M33.386,164.8l-.605-.36a3.367,3.367,0,0,0,.368-.732,2.226,2.226,0,0,0,.1-.636V162.2h1.012l-.005.809a2.246,2.246,0,0,1-.247.981,2.421,2.421,0,0,1-.626.811" fill="#0f576b"/>
        <path id="Trazado_723972" data-name="Trazado 723972" d="M39.618,160.45a3.673,3.673,0,0,1-.543,2.187,1.917,1.917,0,0,1-1.651.737,1.942,1.942,0,0,1-1.643-.719,3.5,3.5,0,0,1-.565-2.127v-1.164a3.614,3.614,0,0,1,.542-2.176,2.263,2.263,0,0,1,3.3-.018,3.506,3.506,0,0,1,.557,2.116Zm-1.123-1.257a2.839,2.839,0,0,0-.259-1.388.989.989,0,0,0-1.631-.023,2.646,2.646,0,0,0-.272,1.305v1.524a2.917,2.917,0,0,0,.264,1.405.884.884,0,0,0,.827.462.87.87,0,0,0,.8-.428,2.748,2.748,0,0,0,.272-1.337Z" fill="#0f576b"/>
        <path id="Trazado_723973" data-name="Trazado 723973" d="M40.911,159.946l.365-3.391h3.613v.971h-2.68l-.185,1.607a2.086,2.086,0,0,1,1.054-.268,1.872,1.872,0,0,1,1.494.615,2.431,2.431,0,0,1,.533,1.653,2.243,2.243,0,0,1-.59,1.633,2.157,2.157,0,0,1-1.623.608,2.259,2.259,0,0,1-1.531-.525,1.9,1.9,0,0,1-.658-1.383h1.086a1.184,1.184,0,0,0,.351.751,1.068,1.068,0,0,0,.749.261.962.962,0,0,0,.805-.37,1.591,1.591,0,0,0,.289-1.007,1.406,1.406,0,0,0-.319-.972,1.112,1.112,0,0,0-.877-.358,1.229,1.229,0,0,0-.98.4Z" fill="#0f576b"/>
        <path id="Trazado_723974" data-name="Trazado 723974" d="M32.162,182.8a3.673,3.673,0,0,1-.543,2.187,1.917,1.917,0,0,1-1.651.737,1.942,1.942,0,0,1-1.643-.719,3.5,3.5,0,0,1-.565-2.127v-1.164a3.614,3.614,0,0,1,.542-2.176,2.263,2.263,0,0,1,3.3-.018,3.506,3.506,0,0,1,.557,2.116Zm-1.123-1.257a2.839,2.839,0,0,0-.259-1.388.989.989,0,0,0-1.631-.023,2.646,2.646,0,0,0-.272,1.3v1.524a2.917,2.917,0,0,0,.264,1.4.884.884,0,0,0,.827.462.87.87,0,0,0,.8-.428,2.748,2.748,0,0,0,.272-1.337Z" fill="#0f576b"/>
        <path id="Trazado_723975" data-name="Trazado 723975" d="M33.386,187.149l-.605-.36a3.368,3.368,0,0,0,.368-.732,2.226,2.226,0,0,0,.1-.636v-.873h1.012l-.005.809a2.246,2.246,0,0,1-.247.981,2.421,2.421,0,0,1-.626.811" fill="#0f576b"/>
        <path id="Trazado_723976" data-name="Trazado 723976" d="M39.618,182.8a3.673,3.673,0,0,1-.543,2.187,1.917,1.917,0,0,1-1.651.737,1.942,1.942,0,0,1-1.643-.719,3.5,3.5,0,0,1-.565-2.127v-1.164a3.614,3.614,0,0,1,.542-2.176,2.263,2.263,0,0,1,3.3-.018,3.506,3.506,0,0,1,.557,2.116Zm-1.123-1.257a2.839,2.839,0,0,0-.259-1.388.989.989,0,0,0-1.631-.023,2.646,2.646,0,0,0-.272,1.3v1.524a2.917,2.917,0,0,0,.264,1.4.884.884,0,0,0,.827.462.87.87,0,0,0,.8-.428,2.748,2.748,0,0,0,.272-1.337Z" fill="#0f576b"/>
        <path id="Trazado_723977" data-name="Trazado 723977" d="M44.995,182.8a3.673,3.673,0,0,1-.543,2.187,1.917,1.917,0,0,1-1.651.737,1.942,1.942,0,0,1-1.643-.719,3.5,3.5,0,0,1-.565-2.127v-1.164a3.614,3.614,0,0,1,.542-2.176,2.263,2.263,0,0,1,3.3-.018,3.506,3.506,0,0,1,.557,2.116Zm-1.123-1.257a2.839,2.839,0,0,0-.259-1.388.989.989,0,0,0-1.631-.023,2.646,2.646,0,0,0-.272,1.3v1.524a2.917,2.917,0,0,0,.264,1.4.884.884,0,0,0,.827.462.87.87,0,0,0,.8-.428,2.748,2.748,0,0,0,.272-1.337Z" fill="#0f576b"/>
        <path id="Trazado_723978" data-name="Trazado 723978" d="M66.285,191.635H65.167v-5.4l-1.649.562v-.943l2.623-.965h.144Z" fill="#0f576b"/>
        <path id="Trazado_723979" data-name="Trazado 723979" d="M68.854,193.15l-.606-.36a3.367,3.367,0,0,0,.368-.732,2.226,2.226,0,0,0,.1-.636v-.873h1.012l-.005.809a2.246,2.246,0,0,1-.247.981,2.431,2.431,0,0,1-.625.811" fill="#0f576b"/>
        <path id="Trazado_723980" data-name="Trazado 723980" d="M75.086,188.8a3.673,3.673,0,0,1-.543,2.187,1.917,1.917,0,0,1-1.651.737,1.942,1.942,0,0,1-1.643-.719,3.5,3.5,0,0,1-.565-2.127v-1.164a3.614,3.614,0,0,1,.542-2.176,2.263,2.263,0,0,1,3.3-.018,3.506,3.506,0,0,1,.557,2.116Zm-1.123-1.257a2.839,2.839,0,0,0-.259-1.388.989.989,0,0,0-1.631-.023,2.646,2.646,0,0,0-.272,1.305v1.524a2.917,2.917,0,0,0,.264,1.4.884.884,0,0,0,.827.462.87.87,0,0,0,.8-.428,2.748,2.748,0,0,0,.272-1.337Z" fill="#0f576b"/>
        <path id="Trazado_723981" data-name="Trazado 723981" d="M76.379,188.3l.365-3.391h3.613v.971h-2.68l-.185,1.607a2.086,2.086,0,0,1,1.054-.268,1.872,1.872,0,0,1,1.494.615,2.431,2.431,0,0,1,.533,1.653,2.243,2.243,0,0,1-.59,1.633,2.157,2.157,0,0,1-1.623.608,2.259,2.259,0,0,1-1.531-.525,1.9,1.9,0,0,1-.658-1.383h1.086a1.184,1.184,0,0,0,.351.751,1.068,1.068,0,0,0,.749.261.962.962,0,0,0,.805-.37,1.591,1.591,0,0,0,.289-1.007,1.406,1.406,0,0,0-.319-.972,1.112,1.112,0,0,0-.877-.358,1.229,1.229,0,0,0-.98.4Z" fill="#0f576b"/>
        <path id="Trazado_723982" data-name="Trazado 723982" d="M198.3,209.186a2.8,2.8,0,0,1-1.234.811,5.175,5.175,0,0,1-1.768.289,3.5,3.5,0,0,1-1.786-.445,2.976,2.976,0,0,1-1.187-1.291,4.533,4.533,0,0,1-.427-1.989v-.533a4.821,4.821,0,0,1,.4-2.034,2.932,2.932,0,0,1,1.143-1.315,3.758,3.758,0,0,1,3.931.21,2.84,2.84,0,0,1,.933,1.937h-1.574a1.564,1.564,0,0,0-.477-.986,1.519,1.519,0,0,0-1.015-.313,1.434,1.434,0,0,0-1.256.62,3.266,3.266,0,0,0-.437,1.843v.5a3.1,3.1,0,0,0,.469,1.865,1.605,1.605,0,0,0,1.374.631,1.8,1.8,0,0,0,1.3-.388v-1.353h-1.471v-1.191H198.3Z"/>
        <path id="Trazado_723983" data-name="Trazado 723983" d="M202.883,210.178a1.714,1.714,0,0,1-.156-.522,1.887,1.887,0,0,1-1.472.63,2.068,2.068,0,0,1-1.42-.5,1.591,1.591,0,0,1-.563-1.25,1.649,1.649,0,0,1,.687-1.423,3.4,3.4,0,0,1,1.987-.5h.716v-.334a.953.953,0,0,0-.208-.646.81.81,0,0,0-.654-.243.928.928,0,0,0-.617.188.64.64,0,0,0-.224.518H199.4a1.561,1.561,0,0,1,.312-.938,2.062,2.062,0,0,1,.884-.676,3.214,3.214,0,0,1,1.282-.245,2.544,2.544,0,0,1,1.711.541,1.893,1.893,0,0,1,.634,1.522v2.528a2.807,2.807,0,0,0,.231,1.256v.091ZM201.6,209.1a1.351,1.351,0,0,0,.636-.153,1.012,1.012,0,0,0,.431-.412v-1h-.582q-1.17,0-1.245.808l-.006.092a.627.627,0,0,0,.205.48.8.8,0,0,0,.561.188"/>
        <rect id="Rectángulo_351795" data-name="Rectángulo 351795" width="1.563" height="8.278" transform="translate(205.502 201.9)"/>
        <path id="Trazado_723984" data-name="Trazado 723984" d="M208.1,207.208a3.464,3.464,0,0,1,.334-1.546,2.45,2.45,0,0,1,.962-1.051,2.811,2.811,0,0,1,1.458-.372,2.657,2.657,0,0,1,1.927.722,2.9,2.9,0,0,1,.833,1.962l.011.4a3.052,3.052,0,0,1-.749,2.154,2.9,2.9,0,0,1-4.024,0,3.1,3.1,0,0,1-.752-2.2Zm1.558.111a2.182,2.182,0,0,0,.312,1.271,1.123,1.123,0,0,0,1.779.005,2.382,2.382,0,0,0,.318-1.389,2.155,2.155,0,0,0-.318-1.263,1.033,1.033,0,0,0-.9-.448,1.017,1.017,0,0,0-.884.445,2.428,2.428,0,0,0-.312,1.379"/>
        <path id="Trazado_723985" data-name="Trazado 723985" d="M216.023,204.347l.048.673a2.036,2.036,0,0,1,1.677-.781,1.689,1.689,0,0,1,1.379.545,2.54,2.54,0,0,1,.463,1.627v3.767h-1.557V206.44a1.017,1.017,0,0,0-.216-.721.967.967,0,0,0-.717-.224,1.072,1.072,0,0,0-.986.561v4.122h-1.558v-5.831Z"/>
        <path id="Trazado_723986" data-name="Trazado 723986" d="M223.455,210.286a2.861,2.861,0,0,1-2.089-.787,2.8,2.8,0,0,1-.806-2.1v-.151a3.511,3.511,0,0,1,.34-1.571,2.49,2.49,0,0,1,.962-1.067,2.7,2.7,0,0,1,1.42-.375,2.421,2.421,0,0,1,1.884.755,3.064,3.064,0,0,1,.687,2.139v.636h-3.714a1.447,1.447,0,0,0,.456.916,1.376,1.376,0,0,0,.962.345,1.681,1.681,0,0,0,1.407-.652l.765.857a2.33,2.33,0,0,1-.949.773,3.11,3.11,0,0,1-1.325.278m-.178-4.791a.97.97,0,0,0-.752.314,1.627,1.627,0,0,0-.369.9h2.166v-.124a1.162,1.162,0,0,0-.28-.8,1.006,1.006,0,0,0-.765-.284"/>
        <path id="Trazado_723987" data-name="Trazado 723987" d="M229.9,208.567a.5.5,0,0,0-.283-.45,3.192,3.192,0,0,0-.908-.294q-2.08-.437-2.08-1.768a1.6,1.6,0,0,1,.643-1.3,2.6,2.6,0,0,1,1.685-.52,2.8,2.8,0,0,1,1.775.523,1.649,1.649,0,0,1,.666,1.358h-1.558a.755.755,0,0,0-.215-.552.912.912,0,0,0-.674-.218.936.936,0,0,0-.609.177.562.562,0,0,0-.215.453.482.482,0,0,0,.245.418,2.514,2.514,0,0,0,.827.274,6.8,6.8,0,0,1,.98.262,1.611,1.611,0,0,1,1.235,1.568,1.52,1.52,0,0,1-.685,1.291,2.948,2.948,0,0,1-1.767.493,3.084,3.084,0,0,1-1.3-.261,2.187,2.187,0,0,1-.893-.717,1.665,1.665,0,0,1-.323-.984h1.476a.82.82,0,0,0,.308.637,1.22,1.22,0,0,0,.765.22,1.123,1.123,0,0,0,.677-.17.528.528,0,0,0,.229-.444"/>
        <path id="Trazado_723988" data-name="Trazado 723988" d="M5.071,133.185v3.1H8.278v1.617H.431V132.8h1.31v3.492H3.767v-3.1Z"/>
        <path id="Trazado_723989" data-name="Trazado 723989" d="M3.907,128.825a4.363,4.363,0,0,0-.043.561,1.138,1.138,0,0,0,.6,1.158H8.278V132.1H2.447v-1.471l.695-.044a1.443,1.443,0,0,1-.8-1.3,1.614,1.614,0,0,1,.07-.484Z"/>
        <path id="Trazado_723990" data-name="Trazado 723990" d="M8.386,125.494a2.864,2.864,0,0,1-.786,2.089,2.8,2.8,0,0,1-2.1.805H5.352a3.506,3.506,0,0,1-1.57-.339,2.5,2.5,0,0,1-1.068-.962,2.7,2.7,0,0,1-.375-1.42,2.421,2.421,0,0,1,.755-1.884,3.066,3.066,0,0,1,2.14-.687h.635v3.713a1.443,1.443,0,0,0,.916-.455,1.372,1.372,0,0,0,.346-.962,1.684,1.684,0,0,0-.652-1.407l.856-.765a2.339,2.339,0,0,1,.774.949,3.109,3.109,0,0,1,.277,1.325m-4.791.178a.971.971,0,0,0,.314.752,1.628,1.628,0,0,0,.9.369v-2.166H4.683a1.159,1.159,0,0,0-.8.28,1.006,1.006,0,0,0-.284.765"/>
        <path id="Trazado_723991" data-name="Trazado 723991" d="M7.131,119.787a1.022,1.022,0,0,0-.237-.7.83.83,0,0,0-.631-.28v-1.46a1.994,1.994,0,0,1,1.086.323,2.129,2.129,0,0,1,.765.87,2.735,2.735,0,0,1,.272,1.221,2.533,2.533,0,0,1-.795,1.973,3.145,3.145,0,0,1-2.2.722h-.1a3.113,3.113,0,0,1-2.15-.717,2.507,2.507,0,0,1-.8-1.968,2.454,2.454,0,0,1,.623-1.754,2.2,2.2,0,0,1,1.657-.67v1.46a1.066,1.066,0,0,0-.739.28,1.041,1.041,0,0,0,.111,1.533,2.3,2.3,0,0,0,1.288.277h.163a2.318,2.318,0,0,0,1.294-.274.951.951,0,0,0,.395-.836"/>
        <path id="Trazado_723992" data-name="Trazado 723992" d="M7.686,112.965a1.951,1.951,0,0,1,.7,1.6,1.84,1.84,0,0,1-.538,1.431,2.3,2.3,0,0,1-1.579.5H2.448v-1.558H6.219q.911,0,.911-.829a1.125,1.125,0,0,0-.549-1.089H2.448v-1.563h5.83v1.466Z"/>
        <path id="Trazado_723993" data-name="Trazado 723993" d="M8.386,107.6a2.864,2.864,0,0,1-.786,2.089,2.8,2.8,0,0,1-2.1.805H5.352a3.506,3.506,0,0,1-1.57-.339,2.5,2.5,0,0,1-1.068-.962,2.7,2.7,0,0,1-.375-1.42,2.421,2.421,0,0,1,.755-1.884,3.066,3.066,0,0,1,2.14-.687h.635v3.713a1.443,1.443,0,0,0,.916-.455,1.372,1.372,0,0,0,.346-.962,1.684,1.684,0,0,0-.652-1.407l.856-.765a2.339,2.339,0,0,1,.774.949,3.109,3.109,0,0,1,.277,1.325m-4.791.178a.971.971,0,0,0,.314.752,1.628,1.628,0,0,0,.9.369v-2.166H4.683a1.159,1.159,0,0,0-.8.28,1.006,1.006,0,0,0-.284.765"/>
        <path id="Trazado_723994" data-name="Trazado 723994" d="M2.447,102.881l.674-.048a2.035,2.035,0,0,1-.782-1.677,1.686,1.686,0,0,1,.545-1.379,2.533,2.533,0,0,1,1.626-.464H8.278v1.558H4.54a1.017,1.017,0,0,0-.721.215.967.967,0,0,0-.225.717,1.071,1.071,0,0,0,.563.986H8.278v1.558H2.447Z"/>
        <path id="Trazado_723995" data-name="Trazado 723995" d="M7.131,95.708a1.023,1.023,0,0,0-.237-.7.834.834,0,0,0-.631-.28v-1.46a1.994,1.994,0,0,1,1.086.323,2.129,2.129,0,0,1,.765.87,2.735,2.735,0,0,1,.272,1.221,2.533,2.533,0,0,1-.795,1.973,3.145,3.145,0,0,1-2.2.722h-.1a3.108,3.108,0,0,1-2.15-.717,2.5,2.5,0,0,1-.8-1.967,2.455,2.455,0,0,1,.623-1.755,2.206,2.206,0,0,1,1.657-.67v1.46a1.07,1.07,0,0,0-.739.28,1.042,1.042,0,0,0,.111,1.534,2.306,2.306,0,0,0,1.288.277h.163a2.317,2.317,0,0,0,1.294-.275.948.948,0,0,0,.395-.835"/>
        <path id="Trazado_723996" data-name="Trazado 723996" d="M.938,92.388a.769.769,0,0,1-.577-.234,1.012,1.012,0,0,1,0-1.275.765.765,0,0,1,.577-.237.768.768,0,0,1,.583.24,1,1,0,0,1,0,1.266.768.768,0,0,1-.583.24m7.34-.092H2.447V90.733H8.278Z"/>
        <path id="Trazado_723997" data-name="Trazado 723997" d="M8.278,86.072a1.741,1.741,0,0,1-.522.157A1.886,1.886,0,0,1,8.385,87.7a2.074,2.074,0,0,1-.5,1.42,1.6,1.6,0,0,1-1.251.563A1.651,1.651,0,0,1,5.216,89a3.39,3.39,0,0,1-.5-1.986v-.717H4.382a.956.956,0,0,0-.647.208.813.813,0,0,0-.243.654.93.93,0,0,0,.189.618A.639.639,0,0,0,4.2,88v1.558a1.571,1.571,0,0,1-.938-.313,2.061,2.061,0,0,1-.675-.884,3.212,3.212,0,0,1-.246-1.283,2.543,2.543,0,0,1,.542-1.711A1.894,1.894,0,0,1,4.4,84.73H6.93A2.777,2.777,0,0,0,8.186,84.5h.092ZM7.2,87.36a1.349,1.349,0,0,0-.154-.636,1.006,1.006,0,0,0-.412-.431h-1v.582q0,1.17.808,1.245l.091.006a.629.629,0,0,0,.481-.205A.8.8,0,0,0,7.2,87.36"/>
        <path id="Trazado_723998" data-name="Trazado 723998" d="M3.907,77.508a4.363,4.363,0,0,0-.043.561,1.138,1.138,0,0,0,.6,1.158H8.278v1.558H2.447V79.314l.695-.044a1.443,1.443,0,0,1-.8-1.3,1.614,1.614,0,0,1,.07-.484Z"/>
        <path id="Trazado_723999" data-name="Trazado 723999" d="M8.386,74.177A2.864,2.864,0,0,1,7.6,76.266a2.8,2.8,0,0,1-2.1.805H5.352a3.506,3.506,0,0,1-1.57-.339,2.5,2.5,0,0,1-1.068-.962,2.7,2.7,0,0,1-.375-1.42,2.421,2.421,0,0,1,.755-1.884,3.066,3.066,0,0,1,2.14-.687h.635v3.713a1.443,1.443,0,0,0,.916-.455,1.372,1.372,0,0,0,.346-.962,1.684,1.684,0,0,0-.652-1.407l.856-.765a2.339,2.339,0,0,1,.774.949,3.109,3.109,0,0,1,.277,1.325M3.6,74.355a.971.971,0,0,0,.314.752,1.628,1.628,0,0,0,.9.369V73.31H4.683a1.159,1.159,0,0,0-.8.28,1.006,1.006,0,0,0-.284.765"/>
        <rect id="Rectángulo_351796" data-name="Rectángulo 351796" width="8.278" height="1.563" transform="translate(0 69.251)"/>
        <path id="Trazado_724000" data-name="Trazado 724000" d="M8.278,64.59a1.741,1.741,0,0,1-.522.157,1.886,1.886,0,0,1,.629,1.471,2.074,2.074,0,0,1-.5,1.42,1.6,1.6,0,0,1-1.251.563,1.651,1.651,0,0,1-1.423-.687,3.39,3.39,0,0,1-.5-1.986v-.717H4.382a.956.956,0,0,0-.647.208.813.813,0,0,0-.243.654.93.93,0,0,0,.189.618.639.639,0,0,0,.517.223v1.558a1.571,1.571,0,0,1-.938-.313,2.061,2.061,0,0,1-.675-.884,3.212,3.212,0,0,1-.246-1.283,2.543,2.543,0,0,1,.542-1.711A1.894,1.894,0,0,1,4.4,63.248H6.93a2.776,2.776,0,0,0,1.256-.231h.092ZM7.2,65.878a1.349,1.349,0,0,0-.154-.636,1.006,1.006,0,0,0-.412-.431h-1v.582q0,1.17.808,1.245l.091.006a.629.629,0,0,0,.481-.2.8.8,0,0,0,.188-.561"/>
        <path id="Trazado_724001" data-name="Trazado 724001" d="M1.014,60.187H2.448v-1H3.59v1H6.5a.7.7,0,0,0,.463-.124.621.621,0,0,0,.141-.474,2.49,2.49,0,0,0-.038-.458h1.18a3.181,3.181,0,0,1,.14.943,1.487,1.487,0,0,1-1.654,1.671H3.59V62.6H2.448v-.851H1.014Z"/>
        <path id="Trazado_724002" data-name="Trazado 724002" d="M.938,58.333A.769.769,0,0,1,.361,58.1a1.012,1.012,0,0,1,0-1.275.764.764,0,0,1,.577-.237.768.768,0,0,1,.583.24,1,1,0,0,1,0,1.266.768.768,0,0,1-.583.24m7.34-.092H2.447V56.678H8.278Z"/>
        <path id="Trazado_724003" data-name="Trazado 724003" d="M6.376,53.213,2.447,52.13V50.5l5.831,1.967v1.488L2.447,55.924V54.3Z"/>
        <path id="Trazado_724004" data-name="Trazado 724004" d="M8.278,46.52a1.713,1.713,0,0,1-.522.156,1.888,1.888,0,0,1,.629,1.472,2.075,2.075,0,0,1-.5,1.42,1.6,1.6,0,0,1-1.251.563,1.65,1.65,0,0,1-1.423-.688,3.385,3.385,0,0,1-.5-1.985v-.717H4.382a.956.956,0,0,0-.647.208.813.813,0,0,0-.243.654.932.932,0,0,0,.189.618.638.638,0,0,0,.517.222V50a1.577,1.577,0,0,1-.938-.312,2.067,2.067,0,0,1-.675-.884,3.213,3.213,0,0,1-.246-1.284,2.54,2.54,0,0,1,.542-1.71A1.894,1.894,0,0,1,4.4,45.178H6.93a2.79,2.79,0,0,0,1.256-.231h.092ZM7.2,47.807a1.348,1.348,0,0,0-.154-.635,1,1,0,0,0-.412-.431h-1v.582q0,1.17.808,1.245l.091.006a.626.626,0,0,0,.481-.206.8.8,0,0,0,.188-.561"/>
        <path id="Trazado_724005" data-name="Trazado 724005" d="M107.428,191.635H106.31v-5.4l-1.649.562v-.943l2.623-.965h.144Z" fill="#0f576b"/>
        <path id="Trazado_724006" data-name="Trazado 724006" d="M110,193.15l-.605-.36a3.368,3.368,0,0,0,.368-.732,2.226,2.226,0,0,0,.1-.636v-.873h1.012l0,.809a2.246,2.246,0,0,1-.247.981,2.421,2.421,0,0,1-.626.811" fill="#0f576b"/>
        <path id="Trazado_724007" data-name="Trazado 724007" d="M115.027,188.821a1.834,1.834,0,0,1-2.73-.026,2.438,2.438,0,0,1-.527-1.632,2.671,2.671,0,0,1,.268-1.206,2,2,0,0,1,.762-.841,2.165,2.165,0,0,1,1.146-.3,1.939,1.939,0,0,1,1.612.758,3.186,3.186,0,0,1,.6,2.028v.313a4.147,4.147,0,0,1-.822,2.777,3.093,3.093,0,0,1-2.453.97h-.134v-.929h.162a2.293,2.293,0,0,0,1.524-.478,1.991,1.991,0,0,0,.6-1.434m-1.081-.282a1.127,1.127,0,0,0,.633-.194,1.281,1.281,0,0,0,.457-.535v-.439a2.109,2.109,0,0,0-.305-1.2.919.919,0,0,0-.79-.453.9.9,0,0,0-.773.4,1.675,1.675,0,0,0-.289,1.009,1.658,1.658,0,0,0,.291,1.021.921.921,0,0,0,.776.388" fill="#0f576b"/>
        <path id="Trazado_724008" data-name="Trazado 724008" d="M117.521,188.3l.365-3.391H121.5v.971h-2.68l-.185,1.607a2.086,2.086,0,0,1,1.054-.268,1.872,1.872,0,0,1,1.494.615,2.431,2.431,0,0,1,.533,1.653,2.243,2.243,0,0,1-.59,1.633,2.157,2.157,0,0,1-1.623.608,2.259,2.259,0,0,1-1.531-.525,1.9,1.9,0,0,1-.658-1.383H118.4a1.184,1.184,0,0,0,.351.751,1.068,1.068,0,0,0,.749.261.962.962,0,0,0,.805-.37,1.591,1.591,0,0,0,.289-1.007,1.406,1.406,0,0,0-.319-.972,1.112,1.112,0,0,0-.877-.358,1.229,1.229,0,0,0-.98.4Z" fill="#0f576b"/>
        <path id="Trazado_724009" data-name="Trazado 724009" d="M150.054,191.635h-4.522v-.771l2.24-2.444a5.564,5.564,0,0,0,.69-.9,1.466,1.466,0,0,0,.205-.728,1.11,1.11,0,0,0-.269-.776.939.939,0,0,0-.728-.295,1.079,1.079,0,0,0-.845.332,1.3,1.3,0,0,0-.3.91H145.4a2.193,2.193,0,0,1,.279-1.106,1.924,1.924,0,0,1,.8-.765,2.535,2.535,0,0,1,1.2-.272,2.274,2.274,0,0,1,1.545.492,1.7,1.7,0,0,1,.566,1.36,2.3,2.3,0,0,1-.284,1.056,5.992,5.992,0,0,1-.931,1.254l-1.644,1.76h3.123Z" fill="#0f576b"/>
        <path id="Trazado_724010" data-name="Trazado 724010" d="M151.139,193.15l-.605-.36a3.367,3.367,0,0,0,.368-.732,2.226,2.226,0,0,0,.1-.636v-.873h1.012l-.005.809a2.246,2.246,0,0,1-.247.981,2.421,2.421,0,0,1-.626.811" fill="#0f576b"/>
        <path id="Trazado_724011" data-name="Trazado 724011" d="M157.222,186.682a1.555,1.555,0,0,1-.254.88,1.757,1.757,0,0,1-.692.608,1.923,1.923,0,0,1,.81.67,1.686,1.686,0,0,1,.285.961,1.765,1.765,0,0,1-.6,1.406,2.723,2.723,0,0,1-3.2,0,1.766,1.766,0,0,1-.6-1.4,1.712,1.712,0,0,1,.287-.971,1.845,1.845,0,0,1,.8-.66,1.75,1.75,0,0,1-.685-.608,1.569,1.569,0,0,1-.252-.88,1.748,1.748,0,0,1,.554-1.362,2.481,2.481,0,0,1,3,0,1.748,1.748,0,0,1,.554,1.362m-.974,3.063a1.111,1.111,0,0,0-.3-.806,1.161,1.161,0,0,0-1.571,0,1.115,1.115,0,0,0-.294.808,1.08,1.08,0,0,0,.29.79,1.227,1.227,0,0,0,1.588.009,1.083,1.083,0,0,0,.285-.8m-.143-3.021a1.044,1.044,0,0,0-.255-.723.976.976,0,0,0-1.362-.014,1.208,1.208,0,0,0,0,1.472.99.99,0,0,0,1.363,0,1.041,1.041,0,0,0,.252-.735" fill="#0f576b"/>
        <path id="Trazado_724012" data-name="Trazado 724012" d="M158.664,188.3l.365-3.391h3.613v.971h-2.68l-.185,1.607a2.086,2.086,0,0,1,1.054-.268,1.872,1.872,0,0,1,1.494.615,2.431,2.431,0,0,1,.533,1.653,2.243,2.243,0,0,1-.59,1.633,2.158,2.158,0,0,1-1.623.608,2.259,2.259,0,0,1-1.531-.525,1.9,1.9,0,0,1-.658-1.383h1.086a1.184,1.184,0,0,0,.351.751,1.068,1.068,0,0,0,.749.261.962.962,0,0,0,.805-.37,1.591,1.591,0,0,0,.289-1.007,1.406,1.406,0,0,0-.319-.972,1.112,1.112,0,0,0-.877-.358,1.229,1.229,0,0,0-.98.4Z" fill="#0f576b"/>
        <path id="Trazado_724013" data-name="Trazado 724013" d="M187.973,187.759h.684a1.228,1.228,0,0,0,.82-.268.959.959,0,0,0,.3-.762,1.044,1.044,0,0,0-.251-.746,1.012,1.012,0,0,0-.77-.266,1.072,1.072,0,0,0-.744.261.875.875,0,0,0-.291.681H186.6a1.709,1.709,0,0,1,.274-.942,1.86,1.86,0,0,1,.768-.663,2.5,2.5,0,0,1,1.1-.238,2.318,2.318,0,0,1,1.583.506,1.776,1.776,0,0,1,.575,1.407,1.433,1.433,0,0,1-.289.852,1.827,1.827,0,0,1-.746.6,1.649,1.649,0,0,1,.843.6,1.627,1.627,0,0,1,.288.97,1.807,1.807,0,0,1-.621,1.441,2.727,2.727,0,0,1-3.221.019,1.707,1.707,0,0,1-.62-1.377h1.123a.937.937,0,0,0,.3.72,1.132,1.132,0,0,0,.8.278,1.164,1.164,0,0,0,.822-.278,1.034,1.034,0,0,0,.3-.8,1.052,1.052,0,0,0-.313-.818,1.345,1.345,0,0,0-.934-.286h-.66Z" fill="#0f576b"/>
        <path id="Trazado_724014" data-name="Trazado 724014" d="M192.282,193.15l-.6-.36a3.368,3.368,0,0,0,.368-.732,2.226,2.226,0,0,0,.1-.636v-.873h1.012l-.005.809a2.246,2.246,0,0,1-.247.981,2.421,2.421,0,0,1-.626.811" fill="#0f576b"/>
        <path id="Trazado_724015" data-name="Trazado 724015" d="M198.606,185.533l-2.688,6.1H194.74l2.683-5.825h-3.478v-.9h4.661Z" fill="#0f576b"/>
        <path id="Trazado_724016" data-name="Trazado 724016" d="M199.808,188.3l.365-3.391h3.613v.971h-2.68l-.185,1.607a2.086,2.086,0,0,1,1.054-.268,1.872,1.872,0,0,1,1.494.615,2.431,2.431,0,0,1,.533,1.653,2.243,2.243,0,0,1-.59,1.633,2.157,2.157,0,0,1-1.623.608,2.259,2.259,0,0,1-1.531-.525,1.9,1.9,0,0,1-.658-1.383h1.086a1.184,1.184,0,0,0,.351.751,1.068,1.068,0,0,0,.749.261.962.962,0,0,0,.805-.37,1.591,1.591,0,0,0,.289-1.007,1.406,1.406,0,0,0-.319-.972,1.112,1.112,0,0,0-.877-.358,1.229,1.229,0,0,0-.98.4Z" fill="#0f576b"/>
        <path id="Trazado_724017" data-name="Trazado 724017" d="M231.614,189.237h.836v.9h-.836v1.5h-1.123v-1.5h-2.906l-.032-.684,2.9-4.546h1.159Zm-2.883,0h1.76v-2.809l-.083.148Z" fill="#0f576b"/>
        <path id="Trazado_724018" data-name="Trazado 724018" d="M233.425,193.15l-.6-.36a3.368,3.368,0,0,0,.368-.732,2.226,2.226,0,0,0,.1-.636v-.873H234.3l0,.809a2.246,2.246,0,0,1-.247.981,2.421,2.421,0,0,1-.626.811" fill="#0f576b"/>
        <path id="Trazado_724019" data-name="Trazado 724019" d="M238.766,184.877v.928h-.139a2.23,2.23,0,0,0-1.505.517,2.162,2.162,0,0,0-.67,1.428,1.819,1.819,0,0,1,1.38-.568,1.724,1.724,0,0,1,1.408.628,2.481,2.481,0,0,1,.514,1.621,2.316,2.316,0,0,1-.6,1.661,2.081,2.081,0,0,1-1.582.635,2.031,2.031,0,0,1-1.634-.744,2.924,2.924,0,0,1-.626-1.949v-.384a4.112,4.112,0,0,1,.862-2.771,3.091,3.091,0,0,1,2.478-1Zm-1.206,3.21a1.181,1.181,0,0,0-.677.208,1.217,1.217,0,0,0-.45.554v.342a2.005,2.005,0,0,0,.315,1.189.992.992,0,0,0,1.6.068,1.56,1.56,0,0,0,.291-.984,1.584,1.584,0,0,0-.3-.994.944.944,0,0,0-.785-.383" fill="#0f576b"/>
        <path id="Trazado_724020" data-name="Trazado 724020" d="M240.95,188.3l.365-3.391h3.613v.971h-2.68l-.185,1.607a2.086,2.086,0,0,1,1.054-.268,1.872,1.872,0,0,1,1.494.615,2.431,2.431,0,0,1,.533,1.653,2.243,2.243,0,0,1-.59,1.633,2.157,2.157,0,0,1-1.623.608,2.259,2.259,0,0,1-1.531-.525,1.9,1.9,0,0,1-.658-1.383h1.086a1.184,1.184,0,0,0,.351.751,1.068,1.068,0,0,0,.749.261.962.962,0,0,0,.805-.37,1.591,1.591,0,0,0,.289-1.007,1.406,1.406,0,0,0-.319-.972,1.112,1.112,0,0,0-.877-.358,1.229,1.229,0,0,0-.98.4Z" fill="#0f576b"/>
        <path id="Trazado_724021" data-name="Trazado 724021" d="M269.26,188.3l.365-3.391h3.613v.971h-2.68l-.185,1.607a2.086,2.086,0,0,1,1.054-.268,1.872,1.872,0,0,1,1.494.615,2.431,2.431,0,0,1,.533,1.653,2.243,2.243,0,0,1-.59,1.633,2.158,2.158,0,0,1-1.623.608,2.259,2.259,0,0,1-1.531-.525,1.9,1.9,0,0,1-.658-1.383h1.086a1.184,1.184,0,0,0,.351.751,1.068,1.068,0,0,0,.749.261.962.962,0,0,0,.8-.37,1.591,1.591,0,0,0,.289-1.007,1.406,1.406,0,0,0-.319-.972,1.112,1.112,0,0,0-.877-.358,1.229,1.229,0,0,0-.98.4Z" fill="#0f576b"/>
        <path id="Trazado_724022" data-name="Trazado 724022" d="M274.567,193.15l-.6-.36a3.366,3.366,0,0,0,.368-.732,2.227,2.227,0,0,0,.1-.636v-.873h1.012l-.005.809a2.246,2.246,0,0,1-.247.981,2.42,2.42,0,0,1-.626.811" fill="#0f576b"/>
        <path id="Trazado_724023" data-name="Trazado 724023" d="M276.716,188.3l.365-3.391h3.613v.971h-2.68l-.185,1.607a2.086,2.086,0,0,1,1.054-.268,1.872,1.872,0,0,1,1.494.615,2.432,2.432,0,0,1,.533,1.653,2.243,2.243,0,0,1-.59,1.633,2.158,2.158,0,0,1-1.623.608,2.259,2.259,0,0,1-1.531-.525,1.9,1.9,0,0,1-.658-1.383h1.086a1.184,1.184,0,0,0,.351.751,1.068,1.068,0,0,0,.749.261.962.962,0,0,0,.8-.37,1.591,1.591,0,0,0,.289-1.007,1.406,1.406,0,0,0-.319-.972,1.112,1.112,0,0,0-.877-.358,1.229,1.229,0,0,0-.98.4Z" fill="#0f576b"/>
        <path id="Trazado_724024" data-name="Trazado 724024" d="M282.093,188.3l.365-3.391h3.613v.971h-2.68l-.185,1.607a2.086,2.086,0,0,1,1.054-.268,1.872,1.872,0,0,1,1.494.615,2.432,2.432,0,0,1,.533,1.653,2.243,2.243,0,0,1-.59,1.633,2.157,2.157,0,0,1-1.623.608,2.259,2.259,0,0,1-1.531-.525,1.9,1.9,0,0,1-.658-1.383h1.086a1.184,1.184,0,0,0,.351.751,1.068,1.068,0,0,0,.749.261.962.962,0,0,0,.8-.37,1.591,1.591,0,0,0,.289-1.007,1.406,1.406,0,0,0-.319-.972,1.112,1.112,0,0,0-.877-.358,1.229,1.229,0,0,0-.98.4Z" fill="#0f576b"/>
        <path id="Trazado_724025" data-name="Trazado 724025" d="M313.6,184.877v.928h-.139a2.23,2.23,0,0,0-1.505.517,2.167,2.167,0,0,0-.67,1.428,1.821,1.821,0,0,1,1.38-.568,1.724,1.724,0,0,1,1.409.628,2.486,2.486,0,0,1,.513,1.621,2.32,2.32,0,0,1-.6,1.661,2.081,2.081,0,0,1-1.582.635,2.033,2.033,0,0,1-1.635-.744,2.929,2.929,0,0,1-.625-1.949v-.384a4.117,4.117,0,0,1,.861-2.771,3.092,3.092,0,0,1,2.479-1Zm-1.2,3.21a1.184,1.184,0,0,0-.678.208,1.215,1.215,0,0,0-.449.554v.342a2,2,0,0,0,.315,1.189.991.991,0,0,0,1.6.068,1.554,1.554,0,0,0,.291-.984,1.583,1.583,0,0,0-.3-.994.943.943,0,0,0-.785-.383" fill="#0f576b"/>
        <path id="Trazado_724026" data-name="Trazado 724026" d="M315.71,193.15l-.6-.36a3.332,3.332,0,0,0,.369-.732,2.3,2.3,0,0,0,.1-.636v-.873h1.012l-.006.809a2.231,2.231,0,0,1-.246.981,2.436,2.436,0,0,1-.627.811" fill="#0f576b"/>
        <path id="Trazado_724027" data-name="Trazado 724027" d="M321.357,189.237h.836v.9h-.836v1.5h-1.123v-1.5h-2.906l-.032-.684,2.9-4.546h1.16Zm-2.883,0h1.76v-2.809l-.084.148Z" fill="#0f576b"/>
        <path id="Trazado_724028" data-name="Trazado 724028" d="M323.235,188.3l.365-3.391h3.614v.971h-2.68l-.186,1.607a2.09,2.09,0,0,1,1.055-.268,1.873,1.873,0,0,1,1.494.615,2.432,2.432,0,0,1,.533,1.653,2.24,2.24,0,0,1-.591,1.633,2.155,2.155,0,0,1-1.622.608,2.257,2.257,0,0,1-1.531-.525,1.893,1.893,0,0,1-.658-1.383h1.086a1.188,1.188,0,0,0,.35.751,1.071,1.071,0,0,0,.75.261.96.96,0,0,0,.8-.37,1.585,1.585,0,0,0,.289-1.007,1.406,1.406,0,0,0-.318-.972,1.115,1.115,0,0,0-.877-.358,1.232,1.232,0,0,0-.981.4Z" fill="#0f576b"/>
        <path id="Trazado_724029" data-name="Trazado 724029" d="M355.722,185.533l-2.688,6.1h-1.178l2.683-5.825h-3.478v-.9h4.661Z" fill="#0f576b"/>
        <path id="Trazado_724030" data-name="Trazado 724030" d="M356.853,193.15l-.605-.36a3.367,3.367,0,0,0,.368-.732,2.226,2.226,0,0,0,.1-.636v-.873h1.012l0,.809a2.247,2.247,0,0,1-.247.981,2.421,2.421,0,0,1-.626.811" fill="#0f576b"/>
        <path id="Trazado_724031" data-name="Trazado 724031" d="M360,187.759h.684a1.228,1.228,0,0,0,.82-.268.959.959,0,0,0,.3-.762,1.044,1.044,0,0,0-.251-.746,1.012,1.012,0,0,0-.77-.266,1.072,1.072,0,0,0-.744.261.875.875,0,0,0-.291.681h-1.122a1.709,1.709,0,0,1,.274-.942,1.86,1.86,0,0,1,.768-.663,2.5,2.5,0,0,1,1.1-.238,2.318,2.318,0,0,1,1.583.506,1.776,1.776,0,0,1,.575,1.407,1.433,1.433,0,0,1-.289.852,1.827,1.827,0,0,1-.746.6,1.649,1.649,0,0,1,.843.6,1.627,1.627,0,0,1,.288.97,1.807,1.807,0,0,1-.621,1.441,2.727,2.727,0,0,1-3.221.019,1.707,1.707,0,0,1-.62-1.377h1.123a.937.937,0,0,0,.3.72,1.132,1.132,0,0,0,.8.278,1.164,1.164,0,0,0,.822-.278,1.034,1.034,0,0,0,.3-.8,1.052,1.052,0,0,0-.313-.818,1.345,1.345,0,0,0-.934-.286H360Z" fill="#0f576b"/>
        <path id="Trazado_724032" data-name="Trazado 724032" d="M364.379,188.3l.365-3.391h3.613v.971h-2.68l-.185,1.607a2.086,2.086,0,0,1,1.054-.268,1.872,1.872,0,0,1,1.494.615,2.432,2.432,0,0,1,.533,1.653,2.243,2.243,0,0,1-.59,1.633,2.157,2.157,0,0,1-1.623.608,2.259,2.259,0,0,1-1.531-.525,1.9,1.9,0,0,1-.658-1.383h1.086a1.184,1.184,0,0,0,.351.751,1.068,1.068,0,0,0,.749.261.962.962,0,0,0,.8-.37,1.591,1.591,0,0,0,.289-1.007,1.406,1.406,0,0,0-.319-.972,1.112,1.112,0,0,0-.877-.358,1.229,1.229,0,0,0-.98.4Z" fill="#0f576b"/>
        <path id="Trazado_724033" data-name="Trazado 724033" d="M71.847,179.233l41.143-101.4L154.133,19.4l41.143,95.446,41.142,6.815L277.561,159.2,318.7,143.425l41.143,35.808" fill="none" stroke="#7e5ee3" stroke-miterlimit="10" stroke-width="2"/>
        <path id="Trazado_724034" data-name="Trazado 724034" d="M74.847,179.233a3,3,0,1,1-3-3,3,3,0,0,1,3,3" fill="#7e5ee3"/>
        <path id="Trazado_724035" data-name="Trazado 724035" d="M115.99,77.835a3,3,0,1,1-3-3,3,3,0,0,1,3,3" fill="#7e5ee3"/>
        <path id="Trazado_724036" data-name="Trazado 724036" d="M157.133,19.4a3,3,0,1,1-3-3,3,3,0,0,1,3,3" fill="#7e5ee3"/>
        <path id="Trazado_724037" data-name="Trazado 724037" d="M198.574,115.1a3,3,0,1,1-3-3,3,3,0,0,1,3,3" fill="#7e5ee3"/>
        <path id="Trazado_724038" data-name="Trazado 724038" d="M280.561,159.673a3,3,0,1,1-3-3,3,3,0,0,1,3,3" fill="#7e5ee3"/>
        <path id="Trazado_724039" data-name="Trazado 724039" d="M239.418,121.661a3,3,0,1,1-3-3,3,3,0,0,1,3,3" fill="#7e5ee3"/>
        <path id="Trazado_724040" data-name="Trazado 724040" d="M321.7,144a3,3,0,1,1-3-3,3,3,0,0,1,3,3" fill="#7e5ee3"/>
        <path id="Trazado_724041" data-name="Trazado 724041" d="M362.654,179.233a3,3,0,1,1-3-3,3,3,0,0,1,3,3" fill="#7e5ee3"/>
      </g>
    </g>
  </g>
</svg>
