<svg xmlns="http://www.w3.org/2000/svg" xmlns:xlink="http://www.w3.org/1999/xlink" width="610" height="360.88" viewBox="0 0 610 360.88">
  <defs>
    <radialGradient id="radial-gradient" cx="0.5" cy="0.5" r="0.5" gradientUnits="objectBoundingBox">
      <stop offset="0" stop-color="#fff"/>
      <stop offset="1" stop-color="#81d4fa"/>
    </radialGradient>
    <filter id="Trazado_724705" x="163.91" y="46.308" width="276.594" height="277.754" filterUnits="userSpaceOnUse">
      <feOffset dx="3" dy="3" input="SourceAlpha"/>
      <feGaussianBlur stdDeviation="3" result="blur"/>
      <feFlood flood-opacity="0.161"/>
      <feComposite operator="in" in2="blur"/>
      <feComposite in="SourceGraphic"/>
    </filter>
    <clipPath id="clip-path">
      <rect id="Rectángulo_351752" data-name="Rectángulo 351752" width="258.406" height="298.114" fill="none"/>
    </clipPath>
  </defs>
  <g id="Grupo_1009261" data-name="Grupo 1009261" transform="translate(-180 -8181)">
    <path id="farmaceutica-asiatica-que-trabaja-farmacia-o-farmacia" d="M15,0H595a15,15,0,0,1,15,15V345.88a15,15,0,0,1-15,15H15a15,15,0,0,1-15-15V15A15,15,0,0,1,15,0Z" transform="translate(180 8181)" opacity="0.15" fill="url(#radial-gradient)"/>
    <g transform="matrix(1, 0, 0, 1, 180, 8181)" filter="url(#Trazado_724705)">
      <path id="Trazado_724705-2" data-name="Trazado 724705" d="M129.3,0c71.409,0,129.3,58.148,129.3,129.877S200.706,259.754,129.3,259.754,0,201.606,0,129.877,57.888,0,129.3,0Z" transform="translate(169.91 52.31)" fill="#fff"/>
    </g>
    <g id="Grupo_1009084" data-name="Grupo 1009084" transform="translate(356.513 8212.4)">
      <g id="Grupo_1009083" data-name="Grupo 1009083" clip-path="url(#clip-path)">
        <path id="Trazado_723895" data-name="Trazado 723895" d="M46.462,237.021a122.429,122.429,0,0,0,72.3,23.49v-123Z" transform="translate(4.665 13.806)" fill="#f36817"/>
        <path id="Trazado_723896" data-name="Trazado 723896" d="M51.088,47.086a122.959,122.959,0,0,0,0,199.014l72.3-99.507Z" transform="translate(0.039 4.727)" fill="#f6f6f6"/>
        <path id="Trazado_723897" data-name="Trazado 723897" d="M112.162,137.514v123a123.059,123.059,0,0,0,117-84.981Z" transform="translate(11.261 13.806)" fill="#0088bd"/>
        <path id="Trazado_723898" data-name="Trazado 723898" d="M235.758,110.721a123.022,123.022,0,0,0-189.3-61.491l72.3,99.507,117,38.016a123.487,123.487,0,0,0,0-76.031" transform="translate(4.665 2.584)" fill="#00a8c3"/>
        <path id="Trazado_723899" data-name="Trazado 723899" d="M84.573,271.038H35.438v-1.711H82.861v-50.78h1.711Z" transform="translate(3.558 21.942)" fill="#6d6b72"/>
        <path id="Trazado_723900" data-name="Trazado 723900" d="M130.369,112.853h-1.711V4.511h49.205V6.222H130.369Z" transform="translate(12.917 0.453)" fill="#6d6b72"/>
        <path id="Trazado_723901" data-name="Trazado 723901" d="M203.405,273.14h-52.14V197.611h1.71v73.818h50.43Z" transform="translate(15.187 19.84)" fill="#6d6b72"/>
        <path id="Trazado_723902" data-name="Trazado 723902" d="M189.17,8.469h1.506V10.6H189.17v2.878h-2.64V10.6h-5.452l-.12-1.663L186.5.175h2.667Zm-5.581,0h2.941v-4.7l-.173.3Z" transform="translate(18.168 0.018)" fill="#474747"/>
        <path id="Trazado_723903" data-name="Trazado 723903" d="M200.031,7.992a6.728,6.728,0,0,1-1.142,4.22,4.563,4.563,0,0,1-6.667.028,6.539,6.539,0,0,1-1.179-4.111V5.682a6.653,6.653,0,0,1,1.155-4.23,4.572,4.572,0,0,1,6.654-.013,6.518,6.518,0,0,1,1.179,4.106ZM197.392,5.3a4.867,4.867,0,0,0-.453-2.409,1.528,1.528,0,0,0-1.411-.755,1.5,1.5,0,0,0-1.374.717,4.543,4.543,0,0,0-.471,2.245V8.336a5.133,5.133,0,0,0,.442,2.419,1.509,1.509,0,0,0,1.421.791,1.485,1.485,0,0,0,1.4-.759,5,5,0,0,0,.448-2.322Z" transform="translate(19.181 0.001)" fill="#474747"/>
        <path id="Trazado_723904" data-name="Trazado 723904" d="M200.8,2.75a2.63,2.63,0,0,1,.8-1.987A2.88,2.88,0,0,1,203.675,0a2.925,2.925,0,0,1,2.1.754A2.678,2.678,0,0,1,206.57,2.8v.658a2.592,2.592,0,0,1-.794,1.982,3.281,3.281,0,0,1-4.179,0,2.661,2.661,0,0,1-.8-2.032Zm1.754.714a1.238,1.238,0,0,0,.316.887,1.079,1.079,0,0,0,.826.336,1.032,1.032,0,0,0,.812-.34,1.32,1.32,0,0,0,.3-.91v-.68a1.291,1.291,0,0,0-.3-.89,1.17,1.17,0,0,0-1.644-.006,1.322,1.322,0,0,0-.31.933Zm1.662,9.032-1.287-.694L209.42,1.407l1.289.694Zm2.941-2.266a2.594,2.594,0,0,1,.8-1.986,2.92,2.92,0,0,1,2.082-.754,2.961,2.961,0,0,1,2.1.744,2.667,2.667,0,0,1,.8,2.051v.658a2.616,2.616,0,0,1-.786,1.977,2.9,2.9,0,0,1-2.092.754,2.929,2.929,0,0,1-2.109-.758,2.648,2.648,0,0,1-.8-2.009Zm1.754.724a1.234,1.234,0,0,0,.329.864,1.068,1.068,0,0,0,.822.358q1.116,0,1.115-1.24v-.7a1.25,1.25,0,0,0-.311-.887,1.174,1.174,0,0,0-1.644,0,1.3,1.3,0,0,0-.31.914Z" transform="translate(20.16)" fill="#474747"/>
        <path id="Trazado_723905" data-name="Trazado 723905" d="M213.463,271.978h-9.116v-1.809l4.3-4.585a10.621,10.621,0,0,0,1.311-1.689,2.717,2.717,0,0,0,.425-1.37,2.032,2.032,0,0,0-.448-1.393,1.615,1.615,0,0,0-1.279-.507,1.742,1.742,0,0,0-1.411.616,2.443,2.443,0,0,0-.516,1.622h-2.649a4.354,4.354,0,0,1,.58-2.22,4.088,4.088,0,0,1,1.639-1.576,4.987,4.987,0,0,1,2.4-.571,4.717,4.717,0,0,1,3.192.987,3.487,3.487,0,0,1,1.137,2.785,4.478,4.478,0,0,1-.511,2.009,11.245,11.245,0,0,1-1.754,2.385l-3.024,3.188h5.718Z" transform="translate(20.49 25.953)" fill="#474747"/>
        <path id="Trazado_723906" data-name="Trazado 723906" d="M223.031,266.479a6.728,6.728,0,0,1-1.142,4.22,4.562,4.562,0,0,1-6.667.027,6.539,6.539,0,0,1-1.179-4.111v-2.447a6.653,6.653,0,0,1,1.155-4.23,4.572,4.572,0,0,1,6.654-.013,6.518,6.518,0,0,1,1.179,4.106Zm-2.639-2.692a4.867,4.867,0,0,0-.453-2.409,1.528,1.528,0,0,0-1.411-.755,1.5,1.5,0,0,0-1.374.717,4.544,4.544,0,0,0-.471,2.245v3.236a5.133,5.133,0,0,0,.442,2.419,1.51,1.51,0,0,0,1.421.791,1.485,1.485,0,0,0,1.4-.759,5,5,0,0,0,.448-2.322Z" transform="translate(21.49 25.953)" fill="#474747"/>
        <path id="Trazado_723907" data-name="Trazado 723907" d="M223.8,261.237a2.63,2.63,0,0,1,.8-1.987,2.88,2.88,0,0,1,2.082-.763,2.925,2.925,0,0,1,2.1.754,2.678,2.678,0,0,1,.794,2.041v.658a2.592,2.592,0,0,1-.794,1.982,3.281,3.281,0,0,1-4.179,0,2.661,2.661,0,0,1-.8-2.032Zm1.754.714a1.238,1.238,0,0,0,.316.887,1.079,1.079,0,0,0,.826.336,1.032,1.032,0,0,0,.812-.34,1.321,1.321,0,0,0,.3-.91v-.68a1.291,1.291,0,0,0-.3-.89,1.17,1.17,0,0,0-1.644-.006,1.322,1.322,0,0,0-.31.933Zm1.662,9.032-1.287-.694,6.495-10.394,1.289.694Zm2.941-2.266a2.594,2.594,0,0,1,.8-1.986,2.92,2.92,0,0,1,2.082-.754,2.961,2.961,0,0,1,2.1.744,2.667,2.667,0,0,1,.8,2.051v.658a2.616,2.616,0,0,1-.786,1.977,2.9,2.9,0,0,1-2.092.754,2.929,2.929,0,0,1-2.109-.758,2.648,2.648,0,0,1-.8-2.009Zm1.754.724a1.234,1.234,0,0,0,.329.864,1.068,1.068,0,0,0,.822.358q1.116,0,1.115-1.24v-.7a1.25,1.25,0,0,0-.311-.887,1.174,1.174,0,0,0-1.644,0,1.3,1.3,0,0,0-.31.914Z" transform="translate(22.469 25.952)" fill="#474747"/>
        <path id="Trazado_723908" data-name="Trazado 723908" d="M5.791,271.963H3.151v-10.19L0,262.747v-2.129l5.509-1.973h.283Z" transform="translate(0 25.968)" fill="#474747"/>
        <path id="Trazado_723909" data-name="Trazado 723909" d="M18.144,266.479A6.735,6.735,0,0,1,17,270.7a3.986,3.986,0,0,1-3.343,1.461,4.014,4.014,0,0,1-3.324-1.434,6.539,6.539,0,0,1-1.179-4.111v-2.447a6.653,6.653,0,0,1,1.155-4.23,4.017,4.017,0,0,1,3.33-1.443,4.018,4.018,0,0,1,3.324,1.429,6.524,6.524,0,0,1,1.179,4.106Zm-2.64-2.692a4.869,4.869,0,0,0-.452-2.409,1.528,1.528,0,0,0-1.411-.755,1.5,1.5,0,0,0-1.374.717,4.543,4.543,0,0,0-.471,2.245v3.236a5.119,5.119,0,0,0,.442,2.419,1.509,1.509,0,0,0,1.421.791,1.482,1.482,0,0,0,1.4-.759,4.975,4.975,0,0,0,.448-2.322Z" transform="translate(0.919 25.953)" fill="#474747"/>
        <path id="Trazado_723910" data-name="Trazado 723910" d="M18.909,261.237a2.633,2.633,0,0,1,.794-1.987,2.883,2.883,0,0,1,2.083-.763,2.926,2.926,0,0,1,2.1.754,2.682,2.682,0,0,1,.794,2.041v.658a2.6,2.6,0,0,1-.794,1.982,2.913,2.913,0,0,1-2.083.749,2.93,2.93,0,0,1-2.1-.754,2.661,2.661,0,0,1-.8-2.032Zm1.754.714a1.242,1.242,0,0,0,.315.887,1.082,1.082,0,0,0,.826.336,1.033,1.033,0,0,0,.813-.34,1.321,1.321,0,0,0,.3-.91v-.68a1.291,1.291,0,0,0-.3-.89,1.17,1.17,0,0,0-1.644-.006,1.322,1.322,0,0,0-.31.933Zm1.662,9.032-1.287-.694,6.495-10.394,1.287.694Zm2.941-2.266a2.594,2.594,0,0,1,.8-1.986,2.918,2.918,0,0,1,2.082-.754,2.956,2.956,0,0,1,2.1.744,2.668,2.668,0,0,1,.8,2.051v.658a2.616,2.616,0,0,1-.786,1.977,2.9,2.9,0,0,1-2.092.754,2.933,2.933,0,0,1-2.111-.758,2.651,2.651,0,0,1-.794-2.009Zm1.754.724a1.234,1.234,0,0,0,.329.864,1.068,1.068,0,0,0,.822.358q1.114,0,1.115-1.24v-.7a1.255,1.255,0,0,0-.311-.887,1.174,1.174,0,0,0-1.644,0,1.293,1.293,0,0,0-.31.914Z" transform="translate(1.898 25.952)" fill="#474747"/>
      </g>
    </g>
  </g>
</svg>
