<svg xmlns="http://www.w3.org/2000/svg" xmlns:xlink="http://www.w3.org/1999/xlink" width="315" height="129.235" viewBox="0 0 315 129.235">
  <defs>
    <clipPath id="clip-path">
      <rect id="Rect치ngulo_351343" data-name="Rect치ngulo 351343" width="302.24" height="129.235" fill="none"/>
    </clipPath>
  </defs>
  <g id="Grupo_1008708" data-name="Grupo 1008708" transform="translate(-1104 -4541)">
    <rect id="Rect치ngulo_351060" data-name="Rect치ngulo 351060" width="315" height="128" transform="translate(1104 4541)" fill="none"/>
    <g id="Grupo_1008707" data-name="Grupo 1008707" transform="translate(1110 4541)">
      <g id="Grupo_1008706" data-name="Grupo 1008706" clip-path="url(#clip-path)">
        <path id="Trazado_721344" data-name="Trazado 721344" d="M223.01,10.781h5.485v-1.1a4.707,4.707,0,1,1,3.8-.038v1.133H237.7l1.528,15.836h-2.938l-1.058-7.327V38.908h-4.351V30.753h-1.058v8.155h-4.466V18.817L224.3,26.735l-2.822-.118Z" fill="#59595b"/>
        <path id="Trazado_721345" data-name="Trazado 721345" d="M223.01,10.781h5.485v-1.1a4.707,4.707,0,1,1,3.8-.038v1.133H237.7l1.528,15.836h-2.938l-1.058-7.327V38.908h-4.351V30.753h-1.058v8.155h-4.466V18.817L224.3,26.735l-2.822-.118Z" fill="none" stroke="#fff" stroke-miterlimit="10" stroke-width="1.235"/>
        <path id="Trazado_721346" data-name="Trazado 721346" d="M209.026,20.487,206.389,26.6h-2.975l4.868-13.528h2.6l.131-.954a3.347,3.347,0,1,1,2.941.062l.2.892H216.8L221.671,26.6h-2.705l-2.772-6.05,3.043,13.46h-2.908l.27,5.03h-3.11l-.338-5.166h-.609l-.27,5.166h-3.314l.338-4.962-3.313.2Z" fill="#69bbd2"/>
        <path id="Trazado_721347" data-name="Trazado 721347" d="M209.026,20.487,206.389,26.6h-2.975l4.868-13.528h2.6l.131-.954a3.347,3.347,0,1,1,2.941.062l.2.892H216.8L221.671,26.6h-2.705l-2.772-6.05,3.043,13.46h-2.908l.27,5.03h-3.11l-.338-5.166h-.609l-.27,5.166h-3.314l.338-4.962-3.313.2Z" fill="none" stroke="#fff" stroke-miterlimit="10" stroke-width="1.235"/>
        <path id="Trazado_721348" data-name="Trazado 721348" d="M187.858,10.781h5.486v-1.1a4.706,4.706,0,1,1,3.8-.038v1.133h5.407l1.529,15.836h-2.939l-1.058-7.327V38.908h-4.35V30.753h-1.058v8.155h-4.467V18.817l-1.058,7.918-2.821-.118Z" fill="#59595b"/>
        <path id="Trazado_721349" data-name="Trazado 721349" d="M187.858,10.781h5.486v-1.1a4.706,4.706,0,1,1,3.8-.038v1.133h5.407l1.529,15.836h-2.939l-1.058-7.327V38.908h-4.35V30.753h-1.058v8.155h-4.467V18.817l-1.058,7.918-2.821-.118Z" fill="none" stroke="#fff" stroke-miterlimit="10" stroke-width="1.235"/>
        <path id="Trazado_721350" data-name="Trazado 721350" d="M173.875,20.487,171.238,26.6h-2.975l4.868-13.528h2.6l.131-.954a3.347,3.347,0,1,1,2.941.062l.2.892h2.654L186.52,26.6h-2.705l-2.772-6.05,3.043,13.46h-2.908l.271,5.03h-3.111L178,33.879h-.609l-.27,5.166h-3.314l.338-4.962-3.313.2Z" fill="#69bbd2"/>
        <path id="Trazado_721351" data-name="Trazado 721351" d="M173.875,20.487,171.238,26.6h-2.975l4.868-13.528h2.6l.131-.954a3.347,3.347,0,1,1,2.941.062l.2.892h2.654L186.52,26.6h-2.705l-2.772-6.05,3.043,13.46h-2.908l.271,5.03h-3.111L178,33.879h-.609l-.27,5.166h-3.314l.338-4.962-3.313.2Z" fill="none" stroke="#fff" stroke-miterlimit="10" stroke-width="1.235"/>
        <path id="Trazado_721352" data-name="Trazado 721352" d="M152.707,10.781h5.486v-1.1a4.706,4.706,0,1,1,3.8-.038v1.133H167.4l1.529,15.836h-2.939l-1.058-7.327V38.908h-4.35V30.753h-1.058v8.155h-4.467V18.817L154,26.735l-2.821-.118Z" fill="#59595b"/>
        <path id="Trazado_721353" data-name="Trazado 721353" d="M152.707,10.781h5.486v-1.1a4.706,4.706,0,1,1,3.8-.038v1.133H167.4l1.529,15.836h-2.939l-1.058-7.327V38.908h-4.35V30.753h-1.058v8.155h-4.467V18.817L154,26.735l-2.821-.118Z" fill="none" stroke="#fff" stroke-miterlimit="10" stroke-width="1.235"/>
        <path id="Trazado_721354" data-name="Trazado 721354" d="M138.724,20.487,136.087,26.6h-2.975l4.868-13.528h2.6l.131-.954a3.347,3.347,0,1,1,2.941.062l.2.892H146.5L151.369,26.6h-2.705l-2.772-6.05,3.043,13.46h-2.908l.27,5.03h-3.11l-.338-5.166h-.609l-.27,5.166h-3.314l.338-4.962-3.313.2Z" fill="#69bbd2"/>
        <path id="Trazado_721355" data-name="Trazado 721355" d="M138.724,20.487,136.087,26.6h-2.975l4.868-13.528h2.6l.131-.954a3.347,3.347,0,1,1,2.941.062l.2.892H146.5L151.369,26.6h-2.705l-2.772-6.05,3.043,13.46h-2.908l.27,5.03h-3.11l-.338-5.166h-.609l-.27,5.166h-3.314l.338-4.962-3.313.2Z" fill="none" stroke="#fff" stroke-miterlimit="10" stroke-width="1.235"/>
        <path id="Trazado_721356" data-name="Trazado 721356" d="M117.556,10.781h5.486v-1.1a4.706,4.706,0,1,1,3.8-.038v1.133h5.407l1.529,15.836H130.84l-1.058-7.327V38.908h-4.35V30.753h-1.058v8.155h-4.467V18.817l-1.058,7.918-2.821-.118Z" fill="#59595b"/>
        <path id="Trazado_721357" data-name="Trazado 721357" d="M117.556,10.781h5.486v-1.1a4.706,4.706,0,1,1,3.8-.038v1.133h5.407l1.529,15.836H130.84l-1.058-7.327V38.908h-4.35V30.753h-1.058v8.155h-4.467V18.817l-1.058,7.918-2.821-.118Z" fill="none" stroke="#fff" stroke-miterlimit="10" stroke-width="1.235"/>
        <path id="Trazado_721358" data-name="Trazado 721358" d="M103.573,20.487,100.936,26.6H97.961l4.868-13.528h2.6l.131-.954a3.347,3.347,0,1,1,2.941.062l.2.892h2.654L116.218,26.6h-2.705l-2.772-6.05,3.043,13.46h-2.908l.271,5.03h-3.111l-.338-5.166h-.609l-.27,5.166H103.5l.338-4.962-3.313.2Z" fill="#69bbd2"/>
        <path id="Trazado_721359" data-name="Trazado 721359" d="M103.573,20.487,100.936,26.6H97.961l4.868-13.528h2.6l.131-.954a3.347,3.347,0,1,1,2.941.062l.2.892h2.654L116.218,26.6h-2.705l-2.772-6.05,3.043,13.46h-2.908l.271,5.03h-3.111l-.338-5.166h-.609l-.27,5.166H103.5l.338-4.962-3.313.2Z" fill="none" stroke="#fff" stroke-miterlimit="10" stroke-width="1.235"/>
        <path id="Trazado_721360" data-name="Trazado 721360" d="M82.4,10.781h5.486v-1.1a4.706,4.706,0,1,1,3.8-.038v1.133H97.1l1.529,15.836H95.689L94.631,19.29V38.908h-4.35V30.753H89.223v8.155H84.756V18.817L83.7,26.735l-2.821-.118Z" fill="#59595b"/>
        <path id="Trazado_721361" data-name="Trazado 721361" d="M82.4,10.781h5.486v-1.1a4.706,4.706,0,1,1,3.8-.038v1.133H97.1l1.529,15.836H95.689L94.631,19.29V38.908h-4.35V30.753H89.223v8.155H84.756V18.817L83.7,26.735l-2.821-.118Z" fill="none" stroke="#fff" stroke-miterlimit="10" stroke-width="1.235"/>
        <path id="Trazado_721362" data-name="Trazado 721362" d="M68.422,20.487,65.785,26.6H62.81l4.868-13.528h2.6l.131-.954a3.347,3.347,0,1,1,2.941.062l.2.892H76.2L81.067,26.6H78.362l-2.772-6.05,3.043,13.46H75.725l.27,5.03h-3.11l-.338-5.166h-.609l-.27,5.166H68.354l.338-4.962-3.313.2Z" fill="#69bbd2"/>
        <path id="Trazado_721363" data-name="Trazado 721363" d="M68.422,20.487,65.785,26.6H62.81l4.868-13.528h2.6l.131-.954a3.347,3.347,0,1,1,2.941.062l.2.892H76.2L81.067,26.6H78.362l-2.772-6.05,3.043,13.46H75.725l.27,5.03h-3.11l-.338-5.166h-.609l-.27,5.166H68.354l.338-4.962-3.313.2Z" fill="none" stroke="#fff" stroke-miterlimit="10" stroke-width="1.235"/>
        <path id="Trazado_721364" data-name="Trazado 721364" d="M61.336,29.993H54.5V28.628a5.862,5.862,0,1,0-4.735-.047v1.412H43.029l-1.9,19.729h3.661L46.1,40.594v24.44h5.419V54.875h1.318V65.034h5.565V40.005l1.318,9.864,3.515-.147Z" fill="#59595b"/>
        <path id="Trazado_721365" data-name="Trazado 721365" d="M61.336,29.993H54.5V28.628a5.862,5.862,0,1,0-4.735-.047v1.412H43.029l-1.9,19.729h3.661L46.1,40.594v24.44h5.419V54.875h1.318V65.034h5.565V40.005l1.318,9.864,3.515-.147Z" fill="none" stroke="#fff" stroke-miterlimit="10" stroke-width="1.235"/>
        <path id="Trazado_721366" data-name="Trazado 721366" d="M78.756,42.085l3.285,7.622h3.707L79.683,32.854H76.45l-.163-1.189a4.171,4.171,0,1,0-3.664.077l-.248,1.112H69.068L63,49.707h3.369l3.454-7.537L66.035,58.938h3.623l-.337,6.267H73.2l.421-6.436h.758l.337,6.436H78.84l-.421-6.182,4.128.254Z" fill="#69bbd2"/>
        <path id="Trazado_721367" data-name="Trazado 721367" d="M78.756,42.085l3.285,7.622h3.707L79.683,32.854H76.45l-.163-1.189a4.171,4.171,0,1,0-3.664.077l-.248,1.112H69.068L63,49.707h3.369l3.454-7.537L66.035,58.938h3.623l-.337,6.267H73.2l.421-6.436h.758l.337,6.436H78.84l-.421-6.182,4.128.254Z" fill="none" stroke="#fff" stroke-miterlimit="10" stroke-width="1.235"/>
        <path id="Trazado_721368" data-name="Trazado 721368" d="M105.128,29.993H98.292V28.628a5.861,5.861,0,1,0-4.734-.047v1.412H86.821l-1.9,19.729h3.66L89.9,40.594v24.44h5.419V54.875h1.318V65.034H102.2V40.005l1.318,9.864,3.515-.147Z" fill="#59595b"/>
        <path id="Trazado_721369" data-name="Trazado 721369" d="M105.128,29.993H98.292V28.628a5.861,5.861,0,1,0-4.734-.047v1.412H86.821l-1.9,19.729h3.66L89.9,40.594v24.44h5.419V54.875h1.318V65.034H102.2V40.005l1.318,9.864,3.515-.147Z" fill="none" stroke="#fff" stroke-miterlimit="10" stroke-width="1.235"/>
        <path id="Trazado_721370" data-name="Trazado 721370" d="M122.548,42.085l3.285,7.622h3.707l-6.065-16.853h-3.233l-.163-1.189a4.171,4.171,0,1,0-3.664.077l-.248,1.112H112.86l-6.065,16.853h3.369l3.454-7.537-3.791,16.768h3.623l-.337,6.267h3.875l.421-6.436h.758l.337,6.436h4.128l-.421-6.182,4.128.254Z" fill="#69bbd2"/>
        <path id="Trazado_721371" data-name="Trazado 721371" d="M122.548,42.085l3.285,7.622h3.707l-6.065-16.853h-3.233l-.163-1.189a4.171,4.171,0,1,0-3.664.077l-.248,1.112H112.86l-6.065,16.853h3.369l3.454-7.537-3.791,16.768h3.623l-.337,6.267h3.875l.421-6.436h.758l.337,6.436h4.128l-.421-6.182,4.128.254Z" fill="none" stroke="#fff" stroke-miterlimit="10" stroke-width="1.235"/>
        <path id="Trazado_721372" data-name="Trazado 721372" d="M148.919,29.993h-6.835V28.628a5.862,5.862,0,1,0-4.735-.047v1.412h-6.737l-1.9,19.729h3.661l1.318-9.128v24.44h5.419V54.875h1.318V65.034h5.565V40.005l1.318,9.864,3.515-.147Z" fill="#59595b"/>
        <path id="Trazado_721373" data-name="Trazado 721373" d="M148.919,29.993h-6.835V28.628a5.862,5.862,0,1,0-4.735-.047v1.412h-6.737l-1.9,19.729h3.661l1.318-9.128v24.44h5.419V54.875h1.318V65.034h5.565V40.005l1.318,9.864,3.515-.147Z" fill="none" stroke="#fff" stroke-miterlimit="10" stroke-width="1.235"/>
        <path id="Trazado_721374" data-name="Trazado 721374" d="M166.34,42.085l3.285,7.622h3.707l-6.065-16.853h-3.233l-.163-1.189a4.171,4.171,0,1,0-3.664.077l-.248,1.112h-3.307l-6.065,16.853h3.369l3.454-7.537-3.791,16.768h3.623l-.337,6.267h3.875l.421-6.436h.758l.337,6.436h4.128L166,59.023l4.128.254Z" fill="#69bbd2"/>
        <path id="Trazado_721375" data-name="Trazado 721375" d="M166.34,42.085l3.285,7.622h3.707l-6.065-16.853h-3.233l-.163-1.189a4.171,4.171,0,1,0-3.664.077l-.248,1.112h-3.307l-6.065,16.853h3.369l3.454-7.537-3.791,16.768h3.623l-.337,6.267h3.875l.421-6.436h.758l.337,6.436h4.128L166,59.023l4.128.254Z" fill="none" stroke="#fff" stroke-miterlimit="10" stroke-width="1.235"/>
        <path id="Trazado_721376" data-name="Trazado 721376" d="M192.711,29.993h-6.835V28.628a5.862,5.862,0,1,0-4.735-.047v1.412H174.4l-1.9,19.729h3.661l1.318-9.128v24.44H182.9V54.875h1.318V65.034h5.565V40.005l1.318,9.864,3.515-.147Z" fill="#59595b"/>
        <path id="Trazado_721377" data-name="Trazado 721377" d="M192.711,29.993h-6.835V28.628a5.862,5.862,0,1,0-4.735-.047v1.412H174.4l-1.9,19.729h3.661l1.318-9.128v24.44H182.9V54.875h1.318V65.034h5.565V40.005l1.318,9.864,3.515-.147Z" fill="none" stroke="#fff" stroke-miterlimit="10" stroke-width="1.235"/>
        <path id="Trazado_721378" data-name="Trazado 721378" d="M210.132,42.085l3.285,7.622h3.707l-6.065-16.853h-3.233l-.163-1.189a4.171,4.171,0,1,0-3.664.077l-.248,1.112h-3.307l-6.065,16.853h3.369L201.2,42.17l-3.791,16.768h3.623l-.337,6.267h3.875l.421-6.436h.758l.337,6.436h4.128l-.421-6.182,4.128.254Z" fill="#69bbd2"/>
        <path id="Trazado_721379" data-name="Trazado 721379" d="M210.132,42.085l3.285,7.622h3.707l-6.065-16.853h-3.233l-.163-1.189a4.171,4.171,0,1,0-3.664.077l-.248,1.112h-3.307l-6.065,16.853h3.369L201.2,42.17l-3.791,16.768h3.623l-.337,6.267h3.875l.421-6.436h.758l.337,6.436h4.128l-.421-6.182,4.128.254Z" fill="none" stroke="#fff" stroke-miterlimit="10" stroke-width="1.235"/>
        <path id="Trazado_721380" data-name="Trazado 721380" d="M236.5,29.993h-6.835V28.628a5.862,5.862,0,1,0-4.735-.047v1.412H218.2l-1.9,19.729h3.661l1.318-9.128v24.44h5.419V54.875h1.318V65.034h5.565V40.005l1.318,9.864,3.515-.147Z" fill="#59595b"/>
        <path id="Trazado_721381" data-name="Trazado 721381" d="M236.5,29.993h-6.835V28.628a5.862,5.862,0,1,0-4.735-.047v1.412H218.2l-1.9,19.729h3.661l1.318-9.128v24.44h5.419V54.875h1.318V65.034h5.565V40.005l1.318,9.864,3.515-.147Z" fill="none" stroke="#fff" stroke-miterlimit="10" stroke-width="1.235"/>
        <path id="Trazado_721382" data-name="Trazado 721382" d="M253.924,42.085l3.285,7.622h3.707l-6.065-16.853h-3.233l-.163-1.189a4.171,4.171,0,1,0-3.664.077l-.248,1.112h-3.307l-6.065,16.853h3.369l3.454-7.537L241.2,58.938h3.623l-.337,6.267h3.875l.421-6.436h.758l.337,6.436h4.128l-.421-6.182,4.128.254Z" fill="#69bbd2"/>
        <path id="Trazado_721383" data-name="Trazado 721383" d="M253.924,42.085l3.285,7.622h3.707l-6.065-16.853h-3.233l-.163-1.189a4.171,4.171,0,1,0-3.664.077l-.248,1.112h-3.307l-6.065,16.853h3.369l3.454-7.537L241.2,58.938h3.623l-.337,6.267h3.875l.421-6.436h.758l.337,6.436h4.128l-.421-6.182,4.128.254Z" fill="none" stroke="#fff" stroke-miterlimit="10" stroke-width="1.235"/>
        <path id="Trazado_721384" data-name="Trazado 721384" d="M256.606,53.9h8.047V52.3a6.9,6.9,0,1,1,5.574-.056V53.9h7.931L280.4,77.13h-4.311l-1.552-10.747V95.156h-6.379V83.2h-1.552v11.96h-6.552V65.69L258.5,77.3l-4.138-.173Z" fill="#59595b"/>
        <path id="Trazado_721385" data-name="Trazado 721385" d="M256.606,53.9h8.047V52.3a6.9,6.9,0,1,1,5.574-.056V53.9h7.931L280.4,77.13h-4.311l-1.552-10.747V95.156h-6.379V83.2h-1.552v11.96h-6.552V65.69L258.5,77.3l-4.138-.173Z" fill="none" stroke="#fff" stroke-miterlimit="10" stroke-width="1.235"/>
        <path id="Trazado_721386" data-name="Trazado 721386" d="M236.1,68.139l-3.868,8.973h-4.364l7.141-19.841h3.806l.192-1.4a4.91,4.91,0,1,1,4.313.091l.293,1.309H247.5l7.14,19.841h-3.967l-4.066-8.873,4.463,19.741h-4.265l.4,7.378h-4.562l-.5-7.577h-.893l-.4,7.577H236l.5-7.278-4.86.3Z" fill="#69bbd2"/>
        <path id="Trazado_721387" data-name="Trazado 721387" d="M236.1,68.139l-3.868,8.973h-4.364l7.141-19.841h3.806l.192-1.4a4.91,4.91,0,1,1,4.313.091l.293,1.309H247.5l7.14,19.841h-3.967l-4.066-8.873,4.463,19.741h-4.265l.4,7.378h-4.562l-.5-7.577h-.893l-.4,7.577H236l.5-7.278-4.86.3Z" fill="none" stroke="#fff" stroke-miterlimit="10" stroke-width="1.235"/>
        <path id="Trazado_721388" data-name="Trazado 721388" d="M205.05,53.9H213.1V52.3a6.9,6.9,0,1,1,5.574-.056V53.9H226.6l2.242,23.227h-4.311l-1.552-10.747V95.156H216.6V83.2H215.05v11.96H208.5V65.69L206.947,77.3l-4.138-.173Z" fill="#59595b"/>
        <path id="Trazado_721389" data-name="Trazado 721389" d="M205.05,53.9H213.1V52.3a6.9,6.9,0,1,1,5.574-.056V53.9H226.6l2.242,23.227h-4.311l-1.552-10.747V95.156H216.6V83.2H215.05v11.96H208.5V65.69L206.947,77.3l-4.138-.173Z" fill="none" stroke="#fff" stroke-miterlimit="10" stroke-width="1.235"/>
        <path id="Trazado_721390" data-name="Trazado 721390" d="M184.541,68.139l-3.868,8.973h-4.364l7.141-19.841h3.806l.192-1.4a4.91,4.91,0,1,1,4.313.091l.293,1.309h3.893l7.14,19.841H199.12l-4.066-8.873,4.463,19.741h-4.265l.4,7.378h-4.562l-.5-7.577H189.7l-.4,7.577h-4.86l.5-7.278-4.86.3Z" fill="#69bbd2"/>
        <path id="Trazado_721391" data-name="Trazado 721391" d="M184.541,68.139l-3.868,8.973h-4.364l7.141-19.841h3.806l.192-1.4a4.91,4.91,0,1,1,4.313.091l.293,1.309h3.893l7.14,19.841H199.12l-4.066-8.873,4.463,19.741h-4.265l.4,7.378h-4.562l-.5-7.577H189.7l-.4,7.577h-4.86l.5-7.278-4.86.3Z" fill="none" stroke="#fff" stroke-miterlimit="10" stroke-width="1.235"/>
        <path id="Trazado_721392" data-name="Trazado 721392" d="M153.495,53.9h8.047V52.3a6.9,6.9,0,1,1,5.573-.056V53.9h7.931l2.242,23.227h-4.311l-1.551-10.747V95.156h-6.38V83.2h-1.551v11.96h-6.552V65.69L155.391,77.3l-4.138-.173Z" fill="#59595b"/>
        <path id="Trazado_721393" data-name="Trazado 721393" d="M153.495,53.9h8.047V52.3a6.9,6.9,0,1,1,5.573-.056V53.9h7.931l2.242,23.227h-4.311l-1.551-10.747V95.156h-6.38V83.2h-1.551v11.96h-6.552V65.69L155.391,77.3l-4.138-.173Z" fill="none" stroke="#fff" stroke-miterlimit="10" stroke-width="1.235"/>
        <path id="Trazado_721394" data-name="Trazado 721394" d="M132.985,68.139l-3.868,8.973h-4.364l7.141-19.841H135.7l.192-1.4a4.91,4.91,0,1,1,4.313.091l.293,1.309h3.893l7.14,19.841h-3.967L143.5,68.239l4.463,19.741H143.7l.4,7.378h-4.562l-.5-7.577h-.893l-.4,7.577h-4.86l.5-7.278-4.86.3Z" fill="#69bbd2"/>
        <path id="Trazado_721395" data-name="Trazado 721395" d="M132.985,68.139l-3.868,8.973h-4.364l7.141-19.841H135.7l.192-1.4a4.91,4.91,0,1,1,4.313.091l.293,1.309h3.893l7.14,19.841h-3.967L143.5,68.239l4.463,19.741H143.7l.4,7.378h-4.562l-.5-7.577h-.893l-.4,7.577h-4.86l.5-7.278-4.86.3Z" fill="none" stroke="#fff" stroke-miterlimit="10" stroke-width="1.235"/>
        <path id="Trazado_721396" data-name="Trazado 721396" d="M101.939,53.9h8.047V52.3a6.9,6.9,0,1,1,5.574-.056V53.9h7.931l2.242,23.227h-4.311L119.87,66.383V95.156h-6.379V83.2h-1.552v11.96h-6.552V65.69L103.836,77.3,99.7,77.13Z" fill="#59595b"/>
        <path id="Trazado_721397" data-name="Trazado 721397" d="M101.939,53.9h8.047V52.3a6.9,6.9,0,1,1,5.574-.056V53.9h7.931l2.242,23.227h-4.311L119.87,66.383V95.156h-6.379V83.2h-1.552v11.96h-6.552V65.69L103.836,77.3,99.7,77.13Z" fill="none" stroke="#fff" stroke-miterlimit="10" stroke-width="1.235"/>
        <path id="Trazado_721398" data-name="Trazado 721398" d="M81.429,68.139l-3.868,8.973H73.2l7.141-19.841h3.806l.192-1.4a4.91,4.91,0,1,1,4.313.091l.293,1.309h3.893l7.14,19.841H96.008l-4.066-8.873L96.4,87.98H92.14l.4,7.378H87.975l-.5-7.577h-.893l-.4,7.577H81.33l.5-7.278-4.86.3Z" fill="#69bbd2"/>
        <path id="Trazado_721399" data-name="Trazado 721399" d="M81.429,68.139l-3.868,8.973H73.2l7.141-19.841h3.806l.192-1.4a4.91,4.91,0,1,1,4.313.091l.293,1.309h3.893l7.14,19.841H96.008l-4.066-8.873L96.4,87.98H92.14l.4,7.378H87.975l-.5-7.577h-.893l-.4,7.577H81.33l.5-7.278-4.86.3Z" fill="none" stroke="#fff" stroke-miterlimit="10" stroke-width="1.235"/>
        <path id="Trazado_721400" data-name="Trazado 721400" d="M50.383,53.9H58.43V52.3A6.9,6.9,0,1,1,64,52.241V53.9h7.931L74.177,77.13H69.866L68.314,66.383V95.156H61.935V83.2H60.383v11.96H53.831V65.69L52.28,77.3l-4.138-.173Z" fill="#59595b"/>
        <path id="Trazado_721401" data-name="Trazado 721401" d="M50.383,53.9H58.43V52.3A6.9,6.9,0,1,1,64,52.241V53.9h7.931L74.177,77.13H69.866L68.314,66.383V95.156H61.935V83.2H60.383v11.96H53.831V65.69L52.28,77.3l-4.138-.173Z" fill="none" stroke="#fff" stroke-miterlimit="10" stroke-width="1.235"/>
        <path id="Trazado_721402" data-name="Trazado 721402" d="M29.874,68.139l-3.868,8.973H21.642l7.141-19.841h3.806l.192-1.4a4.91,4.91,0,1,1,4.313.091l.293,1.309H41.28l7.14,19.841H44.453l-4.066-8.873L44.85,87.98H40.585l.4,7.378H36.42l-.5-7.577h-.893l-.4,7.577h-4.86l.5-7.278-4.86.3Z" fill="#69bbd2"/>
        <path id="Trazado_721403" data-name="Trazado 721403" d="M29.874,68.139l-3.868,8.973H21.642l7.141-19.841h3.806l.192-1.4a4.91,4.91,0,1,1,4.313.091l.293,1.309H41.28l7.14,19.841H44.453l-4.066-8.873L44.85,87.98H40.585l.4,7.378H36.42l-.5-7.577h-.893l-.4,7.577h-4.86l.5-7.278-4.86.3Z" fill="none" stroke="#fff" stroke-miterlimit="10" stroke-width="1.235"/>
        <path id="Trazado_721404" data-name="Trazado 721404" d="M28.328,80.446H18.977V78.579a8.02,8.02,0,1,0-6.477-.065v1.932H3.284l-2.6,26.99H5.688l1.8-12.488v33.435H14.9v-13.9h1.8v13.9h7.613V94.142l1.8,13.5,4.809-.2Z" fill="#59595b"/>
        <path id="Trazado_721405" data-name="Trazado 721405" d="M28.328,80.446H18.977V78.579a8.02,8.02,0,1,0-6.477-.065v1.932H3.284l-2.6,26.99H5.688l1.8-12.488v33.435H14.9v-13.9h1.8v13.9h7.613V94.142l1.8,13.5,4.809-.2Z" fill="none" stroke="#fff" stroke-miterlimit="10" stroke-width="1.235"/>
        <path id="Trazado_721406" data-name="Trazado 721406" d="M52.161,96.988l4.495,10.427h5.071l-8.3-23.056H49.006l-.223-1.626a5.706,5.706,0,1,0-5.012.106l-.34,1.52H38.908l-8.3,23.056h4.61L39.945,97.1l-5.186,22.94h4.955l-.461,8.574h5.3l.576-8.806h1.037l.461,8.806h5.647L51.7,120.16l5.647.347Z" fill="#69bbd2"/>
        <path id="Trazado_721407" data-name="Trazado 721407" d="M52.161,96.988l4.495,10.427h5.071l-8.3-23.056H49.006l-.223-1.626a5.706,5.706,0,1,0-5.012.106l-.34,1.52H38.908l-8.3,23.056h4.61L39.945,97.1l-5.186,22.94h4.955l-.461,8.574h5.3l.576-8.806h1.037l.461,8.806h5.647L51.7,120.16l5.647.347Z" fill="none" stroke="#fff" stroke-miterlimit="10" stroke-width="1.235"/>
        <path id="Trazado_721408" data-name="Trazado 721408" d="M88.237,80.446H78.886V78.579a8.02,8.02,0,1,0-6.477-.065v1.932H63.193l-2.6,26.99H65.6l1.8-12.488v33.435h7.413v-13.9h1.8v13.9H84.23V94.142l1.8,13.5,4.809-.2Z" fill="#59595b"/>
        <path id="Trazado_721409" data-name="Trazado 721409" d="M88.237,80.446H78.886V78.579a8.02,8.02,0,1,0-6.477-.065v1.932H63.193l-2.6,26.99H65.6l1.8-12.488v33.435h7.413v-13.9h1.8v13.9H84.23V94.142l1.8,13.5,4.809-.2Z" fill="none" stroke="#fff" stroke-miterlimit="10" stroke-width="1.235"/>
        <path id="Trazado_721410" data-name="Trazado 721410" d="M112.07,96.988l4.494,10.427h5.071l-8.3-23.056h-4.424l-.223-1.626a5.706,5.706,0,1,0-5.012.106l-.339,1.52H98.816l-8.3,23.056h4.61L99.854,97.1l-5.186,22.94h4.954l-.461,8.574h5.3l.575-8.806h1.037l.461,8.806h5.648l-.577-8.458,5.648.347Z" fill="#69bbd2"/>
        <path id="Trazado_721411" data-name="Trazado 721411" d="M112.07,96.988l4.494,10.427h5.071l-8.3-23.056h-4.424l-.223-1.626a5.706,5.706,0,1,0-5.012.106l-.339,1.52H98.816l-8.3,23.056h4.61L99.854,97.1l-5.186,22.94h4.954l-.461,8.574h5.3l.575-8.806h1.037l.461,8.806h5.648l-.577-8.458,5.648.347Z" fill="none" stroke="#fff" stroke-miterlimit="10" stroke-width="1.235"/>
        <path id="Trazado_721412" data-name="Trazado 721412" d="M148.146,80.446h-9.351V78.579a8.02,8.02,0,1,0-6.477-.065v1.932H123.1l-2.6,26.99h5.009l1.8-12.488v33.435h7.413v-13.9h1.8v13.9h7.613V94.142l1.8,13.5,4.809-.2Z" fill="#59595b"/>
        <path id="Trazado_721413" data-name="Trazado 721413" d="M148.146,80.446h-9.351V78.579a8.02,8.02,0,1,0-6.477-.065v1.932H123.1l-2.6,26.99h5.009l1.8-12.488v33.435h7.413v-13.9h1.8v13.9h7.613V94.142l1.8,13.5,4.809-.2Z" fill="none" stroke="#fff" stroke-miterlimit="10" stroke-width="1.235"/>
        <path id="Trazado_721414" data-name="Trazado 721414" d="M171.978,96.988l4.5,10.427h5.071l-8.3-23.056h-4.423l-.223-1.626a5.706,5.706,0,1,0-5.012.106l-.34,1.52h-4.523l-8.3,23.056h4.61L159.762,97.1l-5.186,22.94h4.955l-.461,8.574h5.3l.576-8.806h1.037l.461,8.806h5.647l-.576-8.458,5.647.347Z" fill="#69bbd2"/>
        <path id="Trazado_721415" data-name="Trazado 721415" d="M171.978,96.988l4.5,10.427h5.071l-8.3-23.056h-4.423l-.223-1.626a5.706,5.706,0,1,0-5.012.106l-.34,1.52h-4.523l-8.3,23.056h4.61L159.762,97.1l-5.186,22.94h4.955l-.461,8.574h5.3l.576-8.806h1.037l.461,8.806h5.647l-.576-8.458,5.647.347Z" fill="none" stroke="#fff" stroke-miterlimit="10" stroke-width="1.235"/>
        <path id="Trazado_721416" data-name="Trazado 721416" d="M208.055,80.446H198.7V78.579a8.02,8.02,0,1,0-6.477-.065v1.932h-9.216l-2.6,26.99h5.009l1.8-12.488v33.435h7.413v-13.9h1.8v13.9h7.613V94.142l1.8,13.5,4.809-.2Z" fill="#59595b"/>
        <path id="Trazado_721417" data-name="Trazado 721417" d="M208.055,80.446H198.7V78.579a8.02,8.02,0,1,0-6.477-.065v1.932h-9.216l-2.6,26.99h5.009l1.8-12.488v33.435h7.413v-13.9h1.8v13.9h7.613V94.142l1.8,13.5,4.809-.2Z" fill="none" stroke="#fff" stroke-miterlimit="10" stroke-width="1.235"/>
        <path id="Trazado_721418" data-name="Trazado 721418" d="M231.887,96.988l4.5,10.427h5.071l-8.3-23.056h-4.423l-.223-1.626a5.706,5.706,0,1,0-5.012.106l-.34,1.52h-4.523l-8.3,23.056h4.61L219.671,97.1l-5.186,22.94h4.955l-.461,8.574h5.3l.576-8.806h1.037l.461,8.806H232l-.576-8.458,5.647.347Z" fill="#69bbd2"/>
        <path id="Trazado_721419" data-name="Trazado 721419" d="M231.887,96.988l4.5,10.427h5.071l-8.3-23.056h-4.423l-.223-1.626a5.706,5.706,0,1,0-5.012.106l-.34,1.52h-4.523l-8.3,23.056h4.61L219.671,97.1l-5.186,22.94h4.955l-.461,8.574h5.3l.576-8.806h1.037l.461,8.806H232l-.576-8.458,5.647.347Z" fill="none" stroke="#fff" stroke-miterlimit="10" stroke-width="1.235"/>
        <path id="Trazado_721420" data-name="Trazado 721420" d="M267.964,80.446h-9.351V78.579a8.02,8.02,0,1,0-6.477-.065v1.932H242.92l-2.6,26.99h5.009l1.8-12.488v33.435h7.413v-13.9h1.8v13.9h7.613V94.142l1.8,13.5,4.809-.2Z" fill="#59595b"/>
        <path id="Trazado_721421" data-name="Trazado 721421" d="M267.964,80.446h-9.351V78.579a8.02,8.02,0,1,0-6.477-.065v1.932H242.92l-2.6,26.99h5.009l1.8-12.488v33.435h7.413v-13.9h1.8v13.9h7.613V94.142l1.8,13.5,4.809-.2Z" fill="none" stroke="#fff" stroke-miterlimit="10" stroke-width="1.235"/>
        <path id="Trazado_721422" data-name="Trazado 721422" d="M291.8,96.988l4.495,10.427h5.071l-8.3-23.056h-4.423l-.223-1.626a5.706,5.706,0,1,0-5.012.106l-.34,1.52h-4.523l-8.3,23.056h4.61L279.58,97.1l-5.186,22.94h4.955l-.461,8.574h5.3l.576-8.806H285.8l.461,8.806h5.647l-.576-8.458,5.647.347Z" fill="#69bbd2"/>
        <path id="Trazado_721423" data-name="Trazado 721423" d="M291.8,96.988l4.495,10.427h5.071l-8.3-23.056h-4.423l-.223-1.626a5.706,5.706,0,1,0-5.012.106l-.34,1.52h-4.523l-8.3,23.056h4.61L279.58,97.1l-5.186,22.94h4.955l-.461,8.574h5.3l.576-8.806H285.8l.461,8.806h5.647l-.576-8.458,5.647.347Z" fill="none" stroke="#fff" stroke-miterlimit="10" stroke-width="1.235"/>
      </g>
    </g>
  </g>
</svg>
