<svg id="_018-advertising" data-name="018-advertising" xmlns="http://www.w3.org/2000/svg" width="75.246" height="75.012" viewBox="0 0 75.246 75.012">
  <path id="Trazado_722757" data-name="Trazado 722757" d="M32.883,0A32.884,32.884,0,1,1,0,32.884,32.883,32.883,0,0,1,32.883,0Z" transform="translate(4.681 4.681)" fill="#ff9d00"/>
  <path id="Trazado_722674" data-name="Trazado 722674" d="M218.888,336.345h-5.851v16.032h-3.511l6.436,7.958,6.436-7.958h-3.511Z" transform="translate(-178.398 -286.493)" fill="#fff"/>
  <path id="Trazado_722675" data-name="Trazado 722675" d="M209.195,354.8h0a1.065,1.065,0,0,1-.936-.468l-6.436-7.958a1.256,1.256,0,0,1-.117-1.287,1.345,1.345,0,0,1,1.053-.7h2.34V329.637a1.106,1.106,0,0,1,1.17-1.17h5.851a1.2,1.2,0,0,1,1.17,1.17v14.979h2.34a1.124,1.124,0,0,1,1.053.7,1.281,1.281,0,0,1-.117,1.287l-6.436,7.958A2.2,2.2,0,0,1,209.195,354.8Zm-3.979-7.958,3.979,4.915,3.979-4.915h-1.053a1.2,1.2,0,0,1-1.17-1.17V330.691H207.44V345.67a1.106,1.106,0,0,1-1.17,1.17h-1.053Z" transform="translate(-171.63 -279.785)" fill="#183651"/>
  <path id="Trazado_722676" data-name="Trazado 722676" d="M213.037,424.566v2.926h-3.511l6.436,7.958,6.436-7.958h-3.511v-2.926" transform="translate(-178.398 -361.608)" fill="#e1e6e7"/>
  <path id="Trazado_722677" data-name="Trazado 722677" d="M209.195,429.242h0a1.065,1.065,0,0,1-.936-.468l-6.436-7.958a1.256,1.256,0,0,1-.117-1.287,1.345,1.345,0,0,1,1.053-.7h2.34v-1.755a1.17,1.17,0,1,1,2.34,0V420a1.106,1.106,0,0,1-1.17,1.17h-1.053l3.979,4.915,3.979-4.915H212.12a1.063,1.063,0,0,1-.819-.351.708.708,0,0,1-.351-.7v-2.926a1.106,1.106,0,0,1,1.17-1.17h0a1.106,1.106,0,0,1,1.17,1.17v1.755h2.34a1.124,1.124,0,0,1,1.053.7,1.281,1.281,0,0,1-.117,1.287l-6.436,7.958A1.329,1.329,0,0,1,209.195,429.242Z" transform="translate(-171.63 -354.23)" fill="#183651"/>
  <path id="Trazado_722678" data-name="Trazado 722678" d="M213.037,33.442h5.851V17.41H222.4l-6.436-7.958-6.436,7.958h3.511Z" transform="translate(-178.398 -8.165)" fill="#fff"/>
  <path id="Trazado_722679" data-name="Trazado 722679" d="M212.451,27.235H206.6a1.063,1.063,0,0,1-.819-.351.911.911,0,0,1-.351-.819V11.086h-2.34a1.124,1.124,0,0,1-1.053-.7,1.155,1.155,0,0,1,.234-1.17l6.436-7.958a1.445,1.445,0,0,1,.936-.468h0a1.065,1.065,0,0,1,.936.468L216.9,8.98c0,.351.234.7.234,1.053a1.106,1.106,0,0,1-1.17,1.17h-2.34V26.065A1.173,1.173,0,0,1,212.451,27.235Zm-4.681-2.223h3.511V10.033a1.106,1.106,0,0,1,1.17-1.17H213.5l-3.979-4.915-3.979,4.915H206.6a1.2,1.2,0,0,1,1.17,1.17V25.012Z" transform="translate(-171.961 -0.788)" fill="#183651"/>
  <path id="Trazado_722680" data-name="Trazado 722680" d="M218.888,20.335V17.41H222.4l-6.436-7.958-6.436,7.958h3.511v2.926" transform="translate(-178.398 -8.165)" fill="#e1e6e7"/>
  <path id="Trazado_722681" data-name="Trazado 722681" d="M206.6,14.128h0a1.106,1.106,0,0,1-1.17-1.17V11.2h-2.34a1.124,1.124,0,0,1-1.053-.7,1.323,1.323,0,0,1,.234-1.287l6.436-7.958a1.445,1.445,0,0,1,.936-.468h0a1.065,1.065,0,0,1,.936.468l6.436,7.958a2.4,2.4,0,0,1,0,1.287,1.558,1.558,0,0,1-1.053.7h-2.34v1.755a1.17,1.17,0,0,1-2.34,0V10.032a1.106,1.106,0,0,1,1.17-1.17H213.5l-3.979-4.915-3.979,4.915H206.6a1.2,1.2,0,0,1,1.17,1.17v2.926A1.173,1.173,0,0,1,206.6,14.128Z" transform="translate(-171.961 -0.787)" fill="#183651"/>
  <path id="Trazado_722682" data-name="Trazado 722682" d="M32.655,219.676v-5.851H16.623v-3.511L8.665,216.75l7.958,6.436v-3.511Z" transform="translate(-7.378 -179.186)" fill="#fff"/>
  <path id="Trazado_722683" data-name="Trazado 722683" d="M8.426,217.466.468,211.03A1.445,1.445,0,0,1,0,210.093a1.065,1.065,0,0,1,.468-.936l7.958-6.436a2.4,2.4,0,0,1,1.287,0,1.558,1.558,0,0,1,.7,1.053v2.34H25.277a1.106,1.106,0,0,1,1.17,1.17v5.851a1.063,1.063,0,0,1-.351.819.911.911,0,0,1-.819.351H10.415v2.34a1.124,1.124,0,0,1-.7,1.053A1.323,1.323,0,0,1,8.426,217.466ZM3.16,210.21l4.915,3.979v-1.053a1.2,1.2,0,0,1,1.17-1.17H24.224v-3.511H9.245a1.106,1.106,0,0,1-1.17-1.17v-1.053Z" transform="translate(0 -172.646)" fill="#183651"/>
  <path id="Trazado_722684" data-name="Trazado 722684" d="M19.548,213.825H16.623v-3.511L8.665,216.75l7.958,6.436v-3.511h2.926" transform="translate(-7.378 -179.186)" fill="#e1e6e7"/>
  <path id="Trazado_722685" data-name="Trazado 722685" d="M8.426,217.466.468,211.03A1.445,1.445,0,0,1,0,210.093a1.065,1.065,0,0,1,.468-.936l7.958-6.436a2.4,2.4,0,0,1,1.287,0,1.558,1.558,0,0,1,.7,1.053v2.34H12.17a1.17,1.17,0,0,1,0,2.34H9.245a1.106,1.106,0,0,1-1.17-1.17v-1.053L3.16,210.21l4.915,3.979v-1.053a1.106,1.106,0,0,1,1.17-1.17H12.17a1.17,1.17,0,0,1,0,2.34H10.415v2.34a1.124,1.124,0,0,1-.7,1.053A1.323,1.323,0,0,1,8.426,217.466Z" transform="translate(0 -172.646)" fill="#183651"/>
  <path id="Trazado_722686" data-name="Trazado 722686" d="M335.557,213.825v5.851h16.032v3.511l7.958-6.436-7.958-6.436v3.511Z" transform="translate(-285.705 -179.186)" fill="#fff"/>
  <path id="Trazado_722687" data-name="Trazado 722687" d="M344.414,217.472a1.345,1.345,0,0,1-.7-1.053v-2.34H328.85a1.106,1.106,0,0,1-1.17-1.17v-5.851a1.2,1.2,0,0,1,1.17-1.17h14.979v-2.34a1.124,1.124,0,0,1,.7-1.053,1.281,1.281,0,0,1,1.287.117l7.958,6.436a1.445,1.445,0,0,1,.468.936,1.064,1.064,0,0,1-.468.936l-7.958,6.436A1.957,1.957,0,0,1,344.414,217.472ZM329.9,211.738h14.979a1.106,1.106,0,0,1,1.17,1.17v1.053l4.915-3.979L346.053,206v1.053a1.2,1.2,0,0,1-1.17,1.17H329.9Z" transform="translate(-278.998 -172.418)" fill="#183651"/>
  <path id="Trazado_722688" data-name="Trazado 722688" d="M423.778,219.676H426.7v3.511l7.958-6.436-7.958-6.436v3.511h-2.926" transform="translate(-360.82 -179.186)" fill="#e1e6e7"/>
  <path id="Trazado_722689" data-name="Trazado 722689" d="M419.53,217.471a1.345,1.345,0,0,1-.7-1.053v-2.34h-1.755a1.17,1.17,0,0,1,0-2.34H420a1.106,1.106,0,0,1,1.17,1.17v1.053l4.915-3.979L421.168,206v1.053a1.106,1.106,0,0,1-1.17,1.17h-2.926a1.17,1.17,0,0,1,0-2.34h1.755v-2.34a1.124,1.124,0,0,1,.7-1.053,1.281,1.281,0,0,1,1.287.117l7.958,6.436a1.445,1.445,0,0,1,.468.936,1.065,1.065,0,0,1-.468.936l-7.958,6.436A1.61,1.61,0,0,1,419.53,217.471Z" transform="translate(-354.114 -172.417)" fill="#183651"/>
  <ellipse id="Elipse_5054" data-name="Elipse 5054" cx="20.479" cy="20.479" rx="20.479" ry="20.479" transform="translate(17.085 17.085)" fill="#fff"/>
  <path id="Trazado_722690" data-name="Trazado 722690" d="M128.775,151.212a21.575,21.575,0,1,1,15.33-6.319A21.6,21.6,0,0,1,128.775,151.212Zm0-40.958a19.179,19.179,0,1,0,13.692,5.617A19.3,19.3,0,0,0,128.775,110.254Z" transform="translate(-91.211 -91.999)" fill="#183651"/>
  <path id="Trazado_722691" data-name="Trazado 722691" d="M185.421,320.577a20.55,20.55,0,0,1-14.394,5.851,20.9,20.9,0,0,1-14.277-5.734,46.736,46.736,0,0,1,8.543-5.617l11.936.351A32.051,32.051,0,0,1,185.421,320.577Z" transform="translate(-133.463 -268.385)" fill="#81d4fa"/>
  <path id="Trazado_722692" data-name="Trazado 722692" d="M224.4,284.825a5.152,5.152,0,0,0,2.574,4.447s-6.553,5.032-11.936-.351c0,0,1.638-1.287,1.638-4.564Z" transform="translate(-183.092 -242.229)" fill="#fcdcb8"/>
  <path id="Trazado_722693" data-name="Trazado 722693" d="M213.244,188.464s-1.17,5.968-6.553,6.787c0,0-5.383-.117-7.138-8.075L198.5,185.3v-4.681l1.989-2.809,4.8-.585,7.138,2.458,2.34,4.8Z" transform="translate(-169.009 -151.017)" fill="#fcdcb8"/>
  <path id="Trazado_722694" data-name="Trazado 722694" d="M207.188,162.995s2.574-6.319-4.447-7.255c0,0-2.809.351-5.266-2.692,0,0-6.436,1.053-4.1,8.66,0,0-6.2-9.011,3.277-13.224s13.107,4.33,13.107,4.33S211.869,159.133,207.188,162.995Z" transform="translate(-162.953 -125.547)" fill="#173651"/>
  <g id="Grupo_1008841" data-name="Grupo 1008841" transform="translate(0.936 0.936)">
    <path id="Trazado_722695" data-name="Trazado 722695" d="M162.979,351.742a21.713,21.713,0,0,1-15.33-6.319,1.158,1.158,0,1,1,1.638-1.638,19.5,19.5,0,0,0,27.383,0,1.159,1.159,0,1,1,1.638,1.638A21.713,21.713,0,0,1,162.979,351.742Z" transform="translate(-126.351 -293.465)" fill="#183651"/>
    <path id="Trazado_722696" data-name="Trazado 722696" d="M6.653,310.531c-.117-.351-.234-.819-.351-1.17l2.223-.585a3.415,3.415,0,0,1,.234,1.053Z" transform="translate(-6.302 -263.956)" fill="#183651"/>
    <path id="Trazado_722697" data-name="Trazado 722697" d="M36.8,354.267a15.627,15.627,0,0,1-2.106-.819l.936-2.106c.7.234,1.287.468,1.989.7Zm-4.213-1.755c-.7-.351-1.4-.7-1.989-1.053l1.17-1.989c.585.351,1.287.7,1.872,1.053ZM28.6,350.288c-.585-.468-1.287-.819-1.872-1.287l1.4-1.872a15.237,15.237,0,0,0,1.755,1.17ZM24.859,347.6c-.585-.468-1.17-1.053-1.755-1.521l1.638-1.755a20.347,20.347,0,0,0,1.638,1.4Zm-3.277-3.16c-.468-.585-1.053-1.17-1.521-1.755l1.755-1.521c.468.585.936,1.053,1.4,1.638Zm-2.926-3.511a17.853,17.853,0,0,1-1.287-1.872l1.989-1.287c.351.585.819,1.17,1.17,1.755ZM16.2,337.064c-.351-.7-.7-1.287-1.053-1.989l2.106-1.053c.351.7.7,1.287.936,1.872Zm-1.989-4.1c-.234-.7-.585-1.4-.819-2.106l2.223-.819c.234.7.468,1.4.7,1.989Z" transform="translate(-12.338 -282.064)" fill="#183651"/>
    <path id="Trazado_722698" data-name="Trazado 722698" d="M187.065,485.43c-.351-.117-.819-.234-1.17-.351l.585-2.223a3.415,3.415,0,0,0,1.053.234Z" transform="translate(-159.214 -412.174)" fill="#183651"/>
    <path id="Trazado_722699" data-name="Trazado 722699" d="M308.573,486.1l-.585-2.223a3.416,3.416,0,0,1,1.053-.234l.585,2.223A3.413,3.413,0,0,0,308.573,486.1Z" transform="translate(-263.168 -412.845)" fill="#183651"/>
    <path id="Trazado_722700" data-name="Trazado 722700" d="M330.074,354.266l-.819-2.223c.7-.234,1.4-.468,1.989-.7l.936,2.106A15.6,15.6,0,0,1,330.074,354.266Zm4.213-1.755-1.053-2.106c.7-.351,1.287-.7,1.872-.936l1.17,1.989A8.19,8.19,0,0,1,334.287,352.511Zm3.979-2.223-1.287-1.989c.585-.351,1.17-.819,1.755-1.17l1.4,1.872A17.853,17.853,0,0,1,338.266,350.287Zm3.745-2.692-1.521-1.755c.585-.468,1.053-.936,1.638-1.4l1.638,1.755C343.064,346.659,342.6,347.127,342.011,347.6Zm3.277-3.16-1.755-1.638a20.337,20.337,0,0,0,1.4-1.638l1.755,1.521A6.625,6.625,0,0,1,345.287,344.436Zm2.926-3.511-1.872-1.4a15.235,15.235,0,0,0,1.17-1.755l1.989,1.287A10.615,10.615,0,0,1,348.213,340.925Zm2.457-3.862-1.989-1.17c.351-.585.7-1.287,1.053-1.872l2.106,1.053A11.105,11.105,0,0,1,350.67,337.064Zm1.989-4.1-2.106-.936c.234-.7.468-1.287.7-1.989l2.223.7A12.48,12.48,0,0,1,352.66,332.968Z" transform="translate(-281.276 -282.063)" fill="#183651"/>
    <path id="Trazado_722701" data-name="Trazado 722701" d="M484.291,311.2l-2.223-.585a3.415,3.415,0,0,0,.234-1.053l2.223.585A5.935,5.935,0,0,1,484.291,311.2Z" transform="translate(-411.386 -264.627)" fill="#183651"/>
    <path id="Trazado_722702" data-name="Trazado 722702" d="M186.481,9.663,185.9,7.44c.351-.117.819-.234,1.17-.351l.585,2.223A3.429,3.429,0,0,1,186.481,9.663Z" transform="translate(-159.215 -7.089)" fill="#183651"/>
    <path id="Trazado_722703" data-name="Trazado 722703" d="M15.614,38.4l-2.223-.7a15.622,15.622,0,0,1,.819-2.106l2.106.936A16.105,16.105,0,0,0,15.614,38.4Zm1.521-3.979-2.106-1.053c.351-.7.7-1.4,1.053-1.989l1.989,1.17C17.838,33.137,17.487,33.722,17.136,34.424Zm2.223-3.745L17.37,29.392c.468-.585.819-1.287,1.287-1.872l1.872,1.4A15.255,15.255,0,0,0,19.359,30.679Zm2.458-3.511-1.755-1.521c.468-.585,1.053-1.17,1.521-1.755l1.755,1.638A19.4,19.4,0,0,0,21.817,27.168Zm2.926-3.16L23.1,22.253c.585-.468,1.17-1.053,1.755-1.521l1.521,1.755A10.1,10.1,0,0,1,24.742,24.009Zm3.394-2.692-1.4-1.872A17.849,17.849,0,0,1,28.6,18.158l1.287,1.989A15.229,15.229,0,0,0,28.136,21.317Zm3.628-2.34-1.17-1.989c.7-.351,1.287-.7,1.989-1.053l1.053,2.106A9.338,9.338,0,0,0,31.763,18.977ZM35.625,17.1,34.689,15c.7-.234,1.4-.585,2.106-.819l.819,2.223C36.913,16.636,36.21,16.87,35.625,17.1Z" transform="translate(-12.338 -13.126)" fill="#183651"/>
    <path id="Trazado_722704" data-name="Trazado 722704" d="M8.642,188.438l-2.34-.585c.117-.351.234-.819.351-1.17l2.223.585C8.759,187.736,8.759,188.087,8.642,188.438Z" transform="translate(-6.302 -160.002)" fill="#183651"/>
    <path id="Trazado_722705" data-name="Trazado 722705" d="M482.3,189.109a3.415,3.415,0,0,1-.234-1.053l2.223-.585c.117.351.234.819.351,1.17Z" transform="translate(-411.386 -160.673)" fill="#183651"/>
    <path id="Trazado_722706" data-name="Trazado 722706" d="M351.255,38.4c-.234-.7-.468-1.4-.7-1.989l2.106-.936c.234.7.585,1.4.819,2.106Zm-1.521-3.979c-.351-.7-.7-1.287-.936-1.872l1.989-1.17c.351.7.7,1.287,1.053,1.989Zm-2.106-3.745c-.351-.585-.819-1.17-1.17-1.755l1.872-1.4a17.845,17.845,0,0,1,1.287,1.872Zm-2.574-3.511c-.468-.585-.936-1.053-1.4-1.638l1.755-1.638c.468.585,1.053,1.17,1.521,1.755Zm-2.926-3.16a20.332,20.332,0,0,0-1.638-1.4l1.521-1.755c.585.468,1.17,1.053,1.755,1.521Zm-3.394-2.692a15.237,15.237,0,0,0-1.755-1.17l1.287-1.989c.585.468,1.287.819,1.872,1.287Zm-3.628-2.34c-.585-.351-1.287-.7-1.872-1.053l1.053-2.106c.7.351,1.4.7,1.989,1.053ZM331.244,17.1c-.7-.234-1.287-.468-1.989-.7l.7-2.223a15.622,15.622,0,0,1,2.106.819Z" transform="translate(-281.276 -13.126)" fill="#183651"/>
    <path id="Trazado_722707" data-name="Trazado 722707" d="M309.829,9.663a3.415,3.415,0,0,0-1.053-.234l.468-2.34c.351.117.819.234,1.17.351Z" transform="translate(-263.839 -7.089)" fill="#183651"/>
  </g>
</svg>
