<svg xmlns="http://www.w3.org/2000/svg" width="90" height="90" viewBox="0 0 90 90">
  <g id="Grupo_1008850" data-name="Grupo 1008850" transform="translate(-290 -4721)">
    <rect id="Rectángulo_346076" data-name="Rectángulo 346076" width="90" height="90" transform="translate(290 4721)" fill="none"/>
    <g id="_025-profile" data-name="025-profile" transform="translate(298 4729)">
      <rect id="Rectángulo_351420" data-name="Rectángulo 351420" width="54.533" height="54.533" transform="translate(19.192 1.17)" fill="#00bcd4"/>
      <path id="Trazado_722668" data-name="Trazado 722668" d="M177.008,56.873H122.475a1.106,1.106,0,0,1-1.17-1.17V1.17A1.106,1.106,0,0,1,122.475,0h54.533a1.106,1.106,0,0,1,1.17,1.17V55.7A1.173,1.173,0,0,1,177.008,56.873Zm-53.362-2.34h52.192V2.34H123.645Z" transform="translate(-103.283)" fill="#183651"/>
      <rect id="Rectángulo_351421" data-name="Rectángulo 351421" width="45.171" height="45.171" transform="translate(23.873 5.851)" fill="#fff"/>
      <rect id="Rectángulo_351422" data-name="Rectángulo 351422" width="54.533" height="54.533" transform="translate(9.83 10.532)" fill="#e0e4e8"/>
      <path id="Trazado_722669" data-name="Trazado 722669" d="M113.992,119.888H59.459a1.106,1.106,0,0,1-1.17-1.17V64.185a1.106,1.106,0,0,1,1.17-1.17h54.533a1.106,1.106,0,0,1,1.17,1.17v54.533A1.173,1.173,0,0,1,113.992,119.888Zm-53.362-2.34h52.192V65.355H60.629Z" transform="translate(-49.629 -53.653)" fill="#183651"/>
      <rect id="Rectángulo_351423" data-name="Rectángulo 351423" width="45.171" height="45.171" transform="translate(14.511 15.213)" fill="#fff"/>
      <rect id="Rectángulo_351424" data-name="Rectángulo 351424" width="54.533" height="54.533" transform="translate(1.17 19.192)" fill="#ff9d00"/>
      <path id="Trazado_722670" data-name="Trazado 722670" d="M55.7,178.178H1.17A1.106,1.106,0,0,1,0,177.008V122.475a1.106,1.106,0,0,1,1.17-1.17H55.7a1.106,1.106,0,0,1,1.17,1.17v54.533A1.106,1.106,0,0,1,55.7,178.178ZM2.34,175.838H54.533V123.645H2.34Z" transform="translate(0 -103.283)" fill="#183651"/>
      <rect id="Rectángulo_351425" data-name="Rectángulo 351425" width="45.171" height="45.171" transform="translate(5.851 23.873)" fill="#fff"/>
      <path id="Trazado_722671" data-name="Trazado 722671" d="M73.435,246.909a18.161,18.161,0,0,0,3.043-3.277l.936-.234,4.8,3.043a5.885,5.885,0,0,1,3.745,6.9,14.33,14.33,0,0,1-14.277,2.809V250.3A4.846,4.846,0,0,1,73.435,246.909Z" transform="translate(-61.031 -207.238)" fill="#81d4fa"/>
      <path id="Trazado_722672" data-name="Trazado 722672" d="M103.066,196.2l-.468-.936-3.979-.7L96.4,195.847l-1.872,2.223.234,2.223,1.17,1.755a9.754,9.754,0,0,0,3.16,2.926,2.344,2.344,0,0,0,3.043-.7A9.434,9.434,0,0,0,103.066,196.2Z" transform="translate(-80.48 -165.655)" fill="#fcdcb8"/>
      <g id="Grupo_1008839" data-name="Grupo 1008839" transform="translate(13.423 27.49)">
        <path id="Trazado_722673" data-name="Trazado 722673" d="M99.513,188.093s.585-1.17.117-1.872c-.468-.585-5.968-2.574-8.426.468s1.17,7.255,1.17,7.255-1.872-2.692-.468-3.16c0,0,.7-.351,1.17.819,0,0-.468-3.511,1.755-3.628,0,0,.936-.585,2.692.936C97.641,189.029,98.46,187.742,99.513,188.093Z" transform="translate(-90.35 -185.041)" fill="#183651"/>
        <rect id="Rectángulo_351426" data-name="Rectángulo 351426" width="2.34" height="2.458" transform="translate(16.184 2.233)" fill="#183651"/>
        <rect id="Rectángulo_351427" data-name="Rectángulo 351427" width="2.34" height="2.458" transform="translate(20.865 2.233)" fill="#183651"/>
        <rect id="Rectángulo_351428" data-name="Rectángulo 351428" width="2.34" height="2.458" transform="translate(25.663 2.233)" fill="#183651"/>
        <rect id="Rectángulo_351429" data-name="Rectángulo 351429" width="2.34" height="2.458" transform="translate(30.344 2.233)" fill="#183651"/>
      </g>
      <g id="Grupo_1008840" data-name="Grupo 1008840" transform="translate(10.766 38.032)">
        <rect id="Rectángulo_351430" data-name="Rectángulo 351430" width="16.5" height="2.458" transform="translate(18.841)" fill="#cecfd0"/>
        <rect id="Rectángulo_351431" data-name="Rectángulo 351431" width="16.5" height="2.458" transform="translate(18.841 8.309)" fill="#cecfd0"/>
        <rect id="Rectángulo_351432" data-name="Rectángulo 351432" width="35.341" height="2.458" transform="translate(0 16.617)" fill="#cecfd0"/>
        <rect id="Rectángulo_351433" data-name="Rectángulo 351433" width="35.341" height="2.458" transform="translate(0 24.926)" fill="#cecfd0"/>
      </g>
    </g>
  </g>
</svg>
