<svg xmlns="http://www.w3.org/2000/svg" xmlns:xlink="http://www.w3.org/1999/xlink" width="400" height="340.341" viewBox="0 0 400 340.341">
  <defs>
    <clipPath id="clip-path">
      <rect id="Rectángulo_351415" data-name="Rectángulo 351415" width="377.107" height="338.521" fill="none"/>
    </clipPath>
    <clipPath id="clip-path-2">
      <rect id="Rectángulo_351414" data-name="Rectángulo 351414" width="377.107" height="338.521" fill="none" opacity="0.5"/>
    </clipPath>
    <clipPath id="clip-path-3">
      <rect id="Rectángulo_351393" data-name="Rectángulo 351393" width="20.955" height="44.405" transform="translate(351.905 206.734)" fill="none"/>
    </clipPath>
    <clipPath id="clip-path-4">
      <rect id="Rectángulo_351394" data-name="Rectángulo 351394" width="58.414" height="64.433" transform="translate(107.854 198.624)" fill="none"/>
    </clipPath>
    <clipPath id="clip-path-5">
      <rect id="Rectángulo_351395" data-name="Rectángulo 351395" width="186.357" height="254.706" transform="translate(37.886 15.148)" fill="none"/>
    </clipPath>
    <clipPath id="clip-path-6">
      <rect id="Rectángulo_351396" data-name="Rectángulo 351396" width="192.002" height="110.718" transform="translate(63.867 39.983)" fill="none"/>
    </clipPath>
    <clipPath id="clip-path-7">
      <rect id="Rectángulo_351397" data-name="Rectángulo 351397" width="192.002" height="121.469" transform="translate(63.867 29.291)" fill="none"/>
    </clipPath>
    <clipPath id="clip-path-8">
      <rect id="Rectángulo_351398" data-name="Rectángulo 351398" width="187.542" height="118.719" transform="translate(68.327 32.041)" fill="none"/>
    </clipPath>
    <clipPath id="clip-path-9">
      <rect id="Rectángulo_351399" data-name="Rectángulo 351399" width="4.965" height="13.62" transform="translate(63.87 137.14)" fill="none"/>
    </clipPath>
    <clipPath id="clip-path-10">
      <rect id="Rectángulo_351400" data-name="Rectángulo 351400" width="32.614" height="23.488" transform="translate(73.682 139.208)" fill="none"/>
    </clipPath>
    <clipPath id="clip-path-11">
      <rect id="Rectángulo_351401" data-name="Rectángulo 351401" width="112.985" height="70.213" transform="translate(128.493 124.381)" fill="none"/>
    </clipPath>
    <clipPath id="clip-path-12">
      <rect id="Rectángulo_351402" data-name="Rectángulo 351402" width="1.682" height="2.172" transform="translate(128.493 165.962)" fill="none"/>
    </clipPath>
    <clipPath id="clip-path-13">
      <rect id="Rectángulo_351403" data-name="Rectángulo 351403" width="29.866" height="22.034" transform="translate(129.133 220.851)" fill="none"/>
    </clipPath>
    <clipPath id="clip-path-14">
      <rect id="Rectángulo_351404" data-name="Rectángulo 351404" width="29.866" height="19.291" transform="translate(168.416 200.867)" fill="none"/>
    </clipPath>
    <clipPath id="clip-path-15">
      <rect id="Rectángulo_351405" data-name="Rectángulo 351405" width="6.042" height="10.25" transform="translate(205.133 160.711)" fill="none"/>
    </clipPath>
    <clipPath id="clip-path-16">
      <rect id="Rectángulo_351406" data-name="Rectángulo 351406" width="6.354" height="19.845" transform="translate(227.736 147.432)" fill="none"/>
    </clipPath>
    <clipPath id="clip-path-17">
      <rect id="Rectángulo_351407" data-name="Rectángulo 351407" width="52.994" height="31.971" transform="translate(210.914 256.392)" fill="none"/>
    </clipPath>
    <clipPath id="clip-path-18">
      <rect id="Rectángulo_351408" data-name="Rectángulo 351408" width="79.498" height="45.898" transform="translate(134.148 276.991)" fill="none"/>
    </clipPath>
    <clipPath id="clip-path-19">
      <rect id="Rectángulo_351409" data-name="Rectángulo 351409" width="71.815" height="24.518" transform="translate(137.989 280.834)" fill="none"/>
    </clipPath>
    <clipPath id="clip-path-20">
      <rect id="Rectángulo_351410" data-name="Rectángulo 351410" width="71.171" height="33.312" transform="translate(138.311 285.733)" fill="none"/>
    </clipPath>
    <clipPath id="clip-path-21">
      <rect id="Rectángulo_351411" data-name="Rectángulo 351411" width="30.383" height="36.665" transform="translate(134.148 296.395)" fill="none"/>
    </clipPath>
    <clipPath id="clip-path-22">
      <rect id="Rectángulo_351412" data-name="Rectángulo 351412" width="8.935" height="5.493" transform="translate(287.077 117.211)" fill="none"/>
    </clipPath>
    <clipPath id="clip-path-23">
      <rect id="Rectángulo_351413" data-name="Rectángulo 351413" width="7.227" height="5.61" transform="translate(287.48 115.736)" fill="none"/>
    </clipPath>
  </defs>
  <g id="Grupo_1008822" data-name="Grupo 1008822" transform="translate(-180 -5892)">
    <rect id="mano-doctora-sosteniendo-paquete-ampollas-tabletas-diferentes-primer-plano-lugar-trabajo" width="400" height="340.341" rx="15" transform="translate(180 5892)" fill="none"/>
    <g id="Grupo_1008821" data-name="Grupo 1008821" transform="translate(191 5892)">
      <g id="Grupo_1008820" data-name="Grupo 1008820" clip-path="url(#clip-path)">
        <g id="Grupo_1008819" data-name="Grupo 1008819">
          <g id="Grupo_1008818" data-name="Grupo 1008818" clip-path="url(#clip-path-2)">
            <path id="Trazado_722307" data-name="Trazado 722307" d="M264.758,279.737a10.153,10.153,0,0,0-1.49-5.239q-.3-.508-.64-.98l-.033-.045a10.709,10.709,0,0,0-.7-.858c-.021-.024-.044-.047-.065-.07a9.081,9.081,0,0,0-.755-.731c-.023-.02-.047-.037-.07-.057a7.428,7.428,0,0,0-.829-.609q-.243-.152-.482-.271c-.074-.037-.146-.064-.219-.1s-.168-.08-.251-.111c-.121-.046-.239-.081-.358-.115-.031-.009-.064-.022-.1-.031a3.544,3.544,0,0,0-.414-.08l-.024-.005a2.608,2.608,0,0,0-1.539.236h0l-.009,0,0,0c-4.262,2.138-28.829,17.767-40.133,24.814l-5.6,3.4a1.238,1.238,0,0,0-.413.391c-.015.02-.029.04-.042.061a1.516,1.516,0,0,0-.128.24c-.023.053-.041.111-.06.169a2.226,2.226,0,0,0-.065.218c-.01.047-.015.1-.023.147-.258.139-.572.311-.925.508l-.828.447a32.631,32.631,0,0,0-6.39-4.736c-7.749-4.473-18.017-6.937-28.913-6.937s-21.164,2.464-28.913,6.937c-8.027,4.635-12.448,10.894-12.448,17.625s4.421,12.988,12.448,17.622c7.749,4.474,18.017,6.938,28.912,6.938s21.165-2.464,28.914-6.938c8.027-4.634,12.448-10.893,12.448-17.622a16.22,16.22,0,0,0-2.629-8.708l.739-.4a1.656,1.656,0,0,0,1.587.155l.035-.019c3.837-2.112,41.231-18.049,48.877-22.149h0l0,0a3.428,3.428,0,0,0,1.525-3.1m-66.122,45.725c-6.692,3.864-15.705,5.992-25.379,5.992s-18.688-2.128-25.379-5.992c-5.748-3.318-8.914-7.4-8.914-11.5s3.166-8.185,8.914-11.5c6.691-3.864,15.7-5.991,25.379-5.991s18.689,2.127,25.379,5.991c5.748,3.318,8.914,7.4,8.914,11.5s-3.166,8.183-8.914,11.5" fill="#e0e0e0" opacity="0.5"/>
            <path id="Trazado_722308" data-name="Trazado 722308" d="M239.038,197.962l-37.932-21.946a7.716,7.716,0,0,0-6.98,0L1.445,287.261c-1.927,1.113-1.927,2.917,0,4.03l37.931,21.946a7.711,7.711,0,0,0,6.979,0l72.208-41.689,11.1,6.452c5.877,3.393,15.407,3.394,21.285,0l33.088-18.963c5.878-3.392,5.879-8.893,0-12.286L172.945,240.3l66.093-38.313c1.927-1.112,1.927-2.916,0-4.029" fill="#e0e0e0" opacity="0.5"/>
            <path id="Trazado_722309" data-name="Trazado 722309" d="M357.177,250.68c14.525,8.386,14.525,21.982,0,30.368s-38.075,8.386-52.6,0-14.525-21.982,0-30.368,38.074-8.386,52.6,0" fill="#e0e0e0" opacity="0.5"/>
            <path id="Trazado_722310" data-name="Trazado 722310" d="M352,241.616c.006-5.034-1-14.314,3.262-23.017,3.087-6.306,8.612-12.432,13.75-11.823,4.785.568,5.219,7.923.643,12.961s-10.4,12-11.671,23.138l-3.3,8.264Z" fill="#81d4fa"/>
            <g id="Grupo_1008757" data-name="Grupo 1008757" opacity="0.2">
              <g id="Grupo_1008756" data-name="Grupo 1008756">
                <g id="Grupo_1008755" data-name="Grupo 1008755" clip-path="url(#clip-path-3)">
                  <path id="Trazado_722311" data-name="Trazado 722311" d="M352,241.616c.006-5.034-1-14.314,3.262-23.017,3.087-6.306,8.612-12.432,13.75-11.823,4.785.568,5.219,7.923.643,12.961s-10.4,12-11.671,23.138l-3.3,8.264Z"/>
                </g>
              </g>
            </g>
            <path id="Trazado_722312" data-name="Trazado 722312" d="M353.72,245.153a.35.35,0,0,0,.289-.359c-.579-14.315,4.08-26.2,13.474-34.366a.35.35,0,0,0-.459-.528c-9.56,8.312-14.3,20.388-13.714,34.922a.351.351,0,0,0,.364.336.231.231,0,0,0,.046-.005" fill="#fff"/>
            <path id="Trazado_722313" data-name="Trazado 722313" d="M351.093,259.615a17.8,17.8,0,0,0,8.853,2.464c5.387.128,7.377-2.707,7.377-2.707s-2.74-4.669-5.922-5.656a29.706,29.706,0,0,1,9.659,2.529s3.228-.383,3.851-5.471c0,0-2.305-2.7-8.923-3.443a21.271,21.271,0,0,1,9.57-.823c.444.111,1.386-6.486,1.536-9.491S376.07,234.2,373.7,233.9s-10.2.356-11.468,1.805-1.413,5.846-1.413,5.846a8.576,8.576,0,0,1-1.658-4.465,8.251,8.251,0,0,0-4.849.768c-2.448,1.24-3.235,2.232-3.356,4.114a18.7,18.7,0,0,0,.475,6.878s-2.232-3.6-2.118-6.727a33.188,33.188,0,0,0-2.277,4.765c-1.052,2.741.2,9.373,4.055,12.735" fill="#81d4fa"/>
            <path id="Trazado_722314" data-name="Trazado 722314" d="M351.184,259.953a.351.351,0,0,0,.242-.229c3.066-9.4,17.495-21.783,23.009-23.643a.35.35,0,0,0,.22-.443.34.34,0,0,0-.444-.22c-5.62,1.9-20.327,14.511-23.451,24.089a.351.351,0,0,0,.225.441.356.356,0,0,0,.2.005" fill="#fff"/>
            <path id="Trazado_722315" data-name="Trazado 722315" d="M150.95,274.8l28.508-16.484c2.939-1.7,4.408-3.919,4.409-6.143s.012-3.966.012-3.966l-26.826-15.225a6.275,6.275,0,0,1-2.838-4.916V192.919l-49.794,28.773V256.84a6.27,6.27,0,0,0,2.837,4.915L129.666,274.8c5.877,3.393,15.407,3.393,21.284,0" fill="#37474f"/>
            <path id="Trazado_722316" data-name="Trazado 722316" d="M116.376,263.064v3.948l-9.126-5.259a6.276,6.276,0,0,1-2.835-4.915V221.693l9.487-5.472c.2,2.409.409,4.9.606,7.324l-6.652,3.85v27.461a6.235,6.235,0,0,0,2.835,4.915Z" fill="#263238"/>
            <path id="Trazado_722317" data-name="Trazado 722317" d="M107.855,254.862a6.276,6.276,0,0,0,2.838,4.916l18.97,11.059c5.877,3.394,15.407,3.395,21.285,0l28.523-16.483c5.878-3.391,5.878-8.892,0-12.285L160.488,231a6.275,6.275,0,0,1-2.838-4.916V198.624L107.855,227.4Z" fill="#455a64"/>
            <g id="Grupo_1008760" data-name="Grupo 1008760" opacity="0.15">
              <g id="Grupo_1008759" data-name="Grupo 1008759">
                <g id="Grupo_1008758" data-name="Grupo 1008758" clip-path="url(#clip-path-4)">
                  <path id="Trazado_722318" data-name="Trazado 722318" d="M166.268,234.344v0L160.488,231a6.272,6.272,0,0,1-2.838-4.916V198.624l-49.8,28.773v27.465a6.271,6.271,0,0,0,2.839,4.915l5.68,3.28Z"/>
                </g>
              </g>
            </g>
            <path id="Trazado_722319" data-name="Trazado 722319" d="M183.873,248.211v3.965c0,2.228-1.475,4.44-4.408,6.144l-28.512,16.474a21.341,21.341,0,0,1-10.159,2.524v-3.949a21.341,21.341,0,0,0,10.159-2.523l28.512-16.491c2.933-1.688,4.408-3.916,4.408-6.144" fill="#37474f"/>
            <path id="Trazado_722320" data-name="Trazado 722320" d="M27.9,292.78a7.607,7.607,0,0,0,6.875-.127l192.57-111.178a7.838,7.838,0,0,0,3.546-6.143V6.777A7.605,7.605,0,0,0,227.567.76a7.607,7.607,0,0,0-6.875.127L28.125,112.065a7.842,7.842,0,0,0-3.547,6.144l0,168.554A7.608,7.608,0,0,0,27.9,292.78" fill="#455a64"/>
            <path id="Trazado_722321" data-name="Trazado 722321" d="M34.779,292.649,227.348,181.472a7.837,7.837,0,0,0,3.547-6.145V6.773c0-2.262-1.586-3.179-3.547-2.048L34.782,115.9a7.839,7.839,0,0,0-3.548,6.145l0,168.553c0,2.262,1.588,3.179,3.547,2.048" fill="#37474f"/>
            <path id="Trazado_722322" data-name="Trazado 722322" d="M37.886,268.335l0-144.079a4.7,4.7,0,0,1,2.128-3.686L222.108,15.439c1.175-.679,2.129-.129,2.129,1.228l.006,144.082a4.706,4.706,0,0,1-2.129,3.687L40.014,269.564c-1.175.678-2.128.128-2.128-1.229" fill="#00bcd4"/>
            <path id="Trazado_722324" data-name="Trazado 722324" d="M130.7,230.239a2.11,2.11,0,0,1-1.067-.278,2.715,2.715,0,0,1-1.176-2.5,7.7,7.7,0,0,1,3.529-6.114,2.422,2.422,0,0,1,3.934,2.27,7.7,7.7,0,0,1-3.53,6.114,3.43,3.43,0,0,1-1.69.511m2.974-8.6a2.632,2.632,0,0,0-1.285.4,6.92,6.92,0,0,0-3.126,5.416,1.639,1.639,0,0,0,2.724,1.572,6.921,6.921,0,0,0,3.127-5.416,1.966,1.966,0,0,0-.774-1.806,1.321,1.321,0,0,0-.666-.168" fill="#81d4fa"/>
            <path id="Trazado_722325" data-name="Trazado 722325" d="M255.869,42.551,68.327,150.7V288.924A2.392,2.392,0,0,0,71.912,291l3.343-1.93L252.372,186.948a7.725,7.725,0,0,0,3.5-6.054Z" fill="#f0f0f0"/>
            <path id="Trazado_722326" data-name="Trazado 722326" d="M255.063,43.946V180.894a6.954,6.954,0,0,1-3.093,5.356L74.852,288.374,71.51,290.3a1.559,1.559,0,0,1-.785.215,1.619,1.619,0,0,1-1.109-.452,1.567,1.567,0,0,1-.483-1.143V151.166Zm.806-1.4L68.327,150.7V288.924a2.4,2.4,0,0,0,2.4,2.4A2.353,2.353,0,0,0,71.912,291l3.343-1.93L252.372,186.948a7.725,7.725,0,0,0,3.5-6.054Z" fill="#e0e0e0"/>
            <g id="Grupo_1008766" data-name="Grupo 1008766" opacity="0.8">
              <g id="Grupo_1008765" data-name="Grupo 1008765">
                <g id="Grupo_1008764" data-name="Grupo 1008764" clip-path="url(#clip-path-6)">
                  <path id="Trazado_722327" data-name="Trazado 722327" d="M251.421,39.983,63.867,148.126l4.46,2.575L255.869,42.551Z" fill="#455a64"/>
                </g>
              </g>
            </g>
            <path id="Trazado_722328" data-name="Trazado 722328" d="M69.584,291.035a2.416,2.416,0,0,1-1.257-2.111V150.7l-4.459-2.575-.005,137.459a3.8,3.8,0,0,0,.034.51,3.7,3.7,0,0,0,1.823,2.708l3.683,2.13Z" fill="#ebebeb"/>
            <path id="Trazado_722329" data-name="Trazado 722329" d="M63.867,148.186V138.86a3.885,3.885,0,0,1,1.74-3.031L249.681,29.714a3.834,3.834,0,0,1,3.485-.009l.958.554a3.855,3.855,0,0,1,1.745,3.022v9.341L68.327,150.76Z" fill="#81d4fa"/>
            <g id="Grupo_1008769" data-name="Grupo 1008769" opacity="0.3">
              <g id="Grupo_1008768" data-name="Grupo 1008768">
                <g id="Grupo_1008767" data-name="Grupo 1008767" clip-path="url(#clip-path-7)">
                  <path id="Trazado_722330" data-name="Trazado 722330" d="M63.867,148.186V138.86a3.885,3.885,0,0,1,1.74-3.031L249.681,29.714a3.834,3.834,0,0,1,3.485-.009l.958.554a3.855,3.855,0,0,1,1.745,3.022v9.341L68.327,150.76Z"/>
                </g>
              </g>
            </g>
            <path id="Trazado_722331" data-name="Trazado 722331" d="M68.327,141.436a3.883,3.883,0,0,1,1.739-3.031L254.13,32.283c.96-.561,1.739-.114,1.739,1v9.342L68.327,150.76Z" fill="#81d4fa"/>
            <g id="Grupo_1008772" data-name="Grupo 1008772" opacity="0.4">
              <g id="Grupo_1008771" data-name="Grupo 1008771">
                <g id="Grupo_1008770" data-name="Grupo 1008770" clip-path="url(#clip-path-8)">
                  <path id="Trazado_722332" data-name="Trazado 722332" d="M68.327,141.436a3.883,3.883,0,0,1,1.739-3.031L254.13,32.283c.96-.561,1.739-.114,1.739,1v9.342L68.327,150.76Z"/>
                </g>
              </g>
            </g>
            <path id="Trazado_722333" data-name="Trazado 722333" d="M68.835,139.711a3.6,3.6,0,0,0-.508,1.725v9.324l-4.457-2.571v-9.332a3.576,3.576,0,0,1,.508-1.717Z" fill="#81d4fa"/>
            <g id="Grupo_1008775" data-name="Grupo 1008775" opacity="0.5">
              <g id="Grupo_1008774" data-name="Grupo 1008774">
                <g id="Grupo_1008773" data-name="Grupo 1008773" clip-path="url(#clip-path-9)">
                  <path id="Trazado_722334" data-name="Trazado 722334" d="M68.835,139.711a3.6,3.6,0,0,0-.508,1.725v9.324l-4.457-2.571v-9.332a3.576,3.576,0,0,1,.508-1.717Z"/>
                </g>
              </g>
            </g>
            <path id="Trazado_722335" data-name="Trazado 722335" d="M247.685,42.2c0,1.044.733,1.467,1.637.945a3.618,3.618,0,0,0,1.637-2.835c0-1.044-.733-1.467-1.637-.945a3.618,3.618,0,0,0-1.637,2.835" fill="#fafafa"/>
            <path id="Trazado_722336" data-name="Trazado 722336" d="M241.138,45.98c0,1.044.733,1.467,1.637.945a3.618,3.618,0,0,0,1.637-2.835c0-1.044-.733-1.467-1.637-.945a3.618,3.618,0,0,0-1.637,2.835" fill="#fafafa"/>
            <path id="Trazado_722337" data-name="Trazado 722337" d="M234.59,49.76c0,1.044.733,1.467,1.637.945a3.618,3.618,0,0,0,1.637-2.835c0-1.044-.733-1.467-1.637-.945a3.618,3.618,0,0,0-1.637,2.835" fill="#fafafa"/>
            <path id="Trazado_722338" data-name="Trazado 722338" d="M68.327,150.763V288.924A2.393,2.393,0,0,0,71.913,291l3.342-1.93,40.984-23.631V123.134L68.327,150.76Z" fill="#fafafa"/>
            <path id="Trazado_722339" data-name="Trazado 722339" d="M119.513,125.467V259.659L251.937,183.2V49.012Z" fill="#fafafa"/>
            <path id="Trazado_722340" data-name="Trazado 722340" d="M105.272,139.348,74.707,157.009a2.266,2.266,0,0,0-1.024,1.774v3.182c0,.653.458.918,1.024.591L105.271,144.9a2.264,2.264,0,0,0,1.024-1.774v-3.182c0-.653-.458-.918-1.024-.591" fill="#81d4fa"/>
            <g id="Grupo_1008778" data-name="Grupo 1008778" opacity="0.8">
              <g id="Grupo_1008777" data-name="Grupo 1008777">
                <g id="Grupo_1008776" data-name="Grupo 1008776" clip-path="url(#clip-path-10)">
                  <path id="Trazado_722341" data-name="Trazado 722341" d="M105.272,139.348,74.707,157.009a2.266,2.266,0,0,0-1.024,1.774v3.182c0,.653.458.918,1.024.591L105.271,144.9a2.264,2.264,0,0,0,1.024-1.774v-3.182c0-.653-.458-.918-1.024-.591" fill="#fafafa"/>
                </g>
              </g>
            </g>
            <path id="Trazado_722342" data-name="Trazado 722342" d="M112.077,140.611l-.9-.867a4.015,4.015,0,0,0,.286-1.439,1.706,1.706,0,0,0-.673-1.547,1.068,1.068,0,0,0-1.1.048,3.6,3.6,0,0,0-1.415,2.927,1.7,1.7,0,0,0,.673,1.547.952.952,0,0,0,.483.13,1.227,1.227,0,0,0,.614-.179,2.427,2.427,0,0,0,.8-.82l.739.711a.352.352,0,0,0,.246.1.354.354,0,0,0,.246-.61m-2.385.006a.385.385,0,0,1-.387.049c-.147-.086-.319-.38-.319-.933a2.935,2.935,0,0,1,1.061-2.313.521.521,0,0,1,.256-.082.264.264,0,0,1,.131.034c.147.085.319.38.319.933a2.933,2.933,0,0,1-1.061,2.312" fill="#455a64"/>
            <path id="Trazado_722343" data-name="Trazado 722343" d="M74.427,171.9l-.686.4c-.04.023-.073,0-.073-.055V170.38a.176.176,0,0,1,.073-.14l.686-.4c.04-.023.073,0,.073.055v1.856a.176.176,0,0,1-.073.14" fill="#455a64"/>
            <path id="Trazado_722344" data-name="Trazado 722344" d="M75.454,171.3l-.686.4c-.04.023-.073,0-.073-.056v-1.856a.179.179,0,0,1,.073-.14l.686-.395c.04-.023.073,0,.073.055v1.855a.174.174,0,0,1-.073.14" fill="#455a64"/>
            <path id="Trazado_722345" data-name="Trazado 722345" d="M76.482,170.708l-.686.4c-.04.023-.073,0-.073-.055v-1.857a.176.176,0,0,1,.073-.139l.686-.4c.04-.023.073,0,.073.055v1.856a.176.176,0,0,1-.073.14" fill="#455a64"/>
            <path id="Trazado_722346" data-name="Trazado 722346" d="M74.427,174.288l-.686.4c-.04.023-.073,0-.073-.056v-1.856a.176.176,0,0,1,.073-.139l.686-.4c.04-.023.073,0,.073.055v1.856a.176.176,0,0,1-.073.14" fill="#455a64"/>
            <path id="Trazado_722347" data-name="Trazado 722347" d="M75.454,173.7l-.686.4c-.04.023-.073,0-.073-.056v-1.856a.176.176,0,0,1,.073-.139l.686-.4c.04-.023.073,0,.073.055v1.856a.176.176,0,0,1-.073.14" fill="#455a64"/>
            <path id="Trazado_722348" data-name="Trazado 722348" d="M76.482,173.1l-.686.4c-.04.023-.073,0-.073-.055v-1.857a.175.175,0,0,1,.073-.139l.686-.4c.04-.023.073,0,.073.055v1.856a.176.176,0,0,1-.073.14" fill="#455a64"/>
            <path id="Trazado_722349" data-name="Trazado 722349" d="M74.536,180.611l-.844-.513c-.032-.021-.032-.1,0-.152l.844-1.488c.041-.073.1-.062.1.018v2c0,.079-.059.158-.1.132" fill="#455a64"/>
            <path id="Trazado_722350" data-name="Trazado 722350" d="M74.181,179.475l1.111-.642v.529L74.181,180c-.094.055-.171-.02-.171-.165a.454.454,0,0,1,.171-.363" fill="#455a64"/>
            <path id="Trazado_722351" data-name="Trazado 722351" d="M75.5,178.714l.379-.219v.528l-.379.219Z" fill="#455a64"/>
            <path id="Trazado_722352" data-name="Trazado 722352" d="M76.9,178.169v1.943a.45.45,0,0,1-.171.363c-.095.055-.172-.017-.172-.165v-1.679l-.47.271v-.528l.642-.37c.094-.054.171.02.171.165" fill="#455a64"/>
            <path id="Trazado_722353" data-name="Trazado 722353" d="M74.864,184.966a3.678,3.678,0,0,0-1.17,3.142c.139,1.013.739.974.8,1.443.007.051.04.069.077.048l.751-.427a.187.187,0,0,0,.077-.137c.079-.619.845-1.366.851-2.872.005-1.156-.628-1.721-1.39-1.2" fill="#455a64"/>
            <path id="Trazado_722354" data-name="Trazado 722354" d="M75.313,190.383l-.725.42c-.05.029-.09,0-.09-.068v-.668a.216.216,0,0,1,.09-.172l.725-.419c.05-.028.09,0,.09.068v.668a.211.211,0,0,1-.09.171" fill="#455a64"/>
            <path id="Trazado_722355" data-name="Trazado 722355" d="M75.038,169.29a4.4,4.4,0,0,0-1.314,2.782,2.9,2.9,0,0,0,.192,1.52l-.244,1.268c-.02.1.037.16.1.094l.73-.8a1.136,1.136,0,0,0,1.064-.313,4.4,4.4,0,0,0,1.316-2.785c.172-1.774-.753-2.664-1.841-1.77m.263,4.155c-.672.388-1.219-.138-1.219-1.173A3.225,3.225,0,0,1,75.3,169.69c.672-.388,1.219.139,1.219,1.174a3.221,3.221,0,0,1-1.219,2.581" fill="#455a64"/>
            <path id="Trazado_722356" data-name="Trazado 722356" d="M75.038,193.747a4.4,4.4,0,0,0-1.314,2.782,2.9,2.9,0,0,0,.192,1.52l-.244,1.268c-.02.1.037.16.1.094l.73-.8a1.138,1.138,0,0,0,1.064-.312,4.4,4.4,0,0,0,1.316-2.786c.172-1.774-.753-2.664-1.841-1.77M75.3,197.9c-.672.388-1.219-.138-1.219-1.173a3.225,3.225,0,0,1,1.219-2.582c.672-.388,1.219.139,1.219,1.174A3.221,3.221,0,0,1,75.3,197.9" fill="#455a64"/>
            <path id="Trazado_722357" data-name="Trazado 722357" d="M76.07,202.709a1.7,1.7,0,0,1-.643,1.362c-.356.205-.644-.072-.644-.619a1.7,1.7,0,0,1,.644-1.362c.355-.205.643.072.643.619" fill="#455a64"/>
            <path id="Trazado_722358" data-name="Trazado 722358" d="M77.175,202.9a1.129,1.129,0,0,1-.429.907c-.236.137-.428-.048-.428-.412a1.13,1.13,0,0,1,.428-.907c.237-.137.429.048.429.412" fill="#455a64"/>
            <path id="Trazado_722359" data-name="Trazado 722359" d="M76.186,206.612l-1.519.877v-1.923a1.318,1.318,0,0,1,.55-1.051l.419-.242c.3-.175.55.011.55.416Z" fill="#455a64"/>
            <path id="Trazado_722360" data-name="Trazado 722360" d="M76.814,204.033l-.418.241v2.217l.789-.455v-1.723c0-.273-.166-.4-.371-.28" fill="#455a64"/>
            <path id="Trazado_722361" data-name="Trazado 722361" d="M73.678,204.923c0,.364.192.549.428.412a1.128,1.128,0,0,0,.429-.907c0-.364-.192-.549-.429-.412a1.131,1.131,0,0,0-.428.907" fill="#455a64"/>
            <path id="Trazado_722362" data-name="Trazado 722362" d="M74.039,205.635l.418-.241v2.216l-.789.456v-1.722a.888.888,0,0,1,.371-.709" fill="#455a64"/>
            <path id="Trazado_722363" data-name="Trazado 722363" d="M81.1,167.546,99,157.213c.482-.278.872-.08.872.442A1.868,1.868,0,0,1,99,159.1L81.1,169.436c-.482.278-.872.081-.872-.441a1.87,1.87,0,0,1,.872-1.449" fill="#e0e0e0"/>
            <path id="Trazado_722364" data-name="Trazado 722364" d="M81.1,175.97,99,165.637c.482-.278.872-.08.872.442A1.868,1.868,0,0,1,99,167.527L81.1,177.86c-.482.278-.872.081-.872-.441a1.87,1.87,0,0,1,.872-1.449" fill="#e0e0e0"/>
            <path id="Trazado_722365" data-name="Trazado 722365" d="M81.1,184.394,99,174.061c.482-.278.872-.08.872.442A1.868,1.868,0,0,1,99,175.951L81.1,186.284c-.482.278-.872.081-.872-.441a1.87,1.87,0,0,1,.872-1.449" fill="#e0e0e0"/>
            <path id="Trazado_722366" data-name="Trazado 722366" d="M81.1,192.818,99,182.485c.482-.278.872-.08.872.442A1.868,1.868,0,0,1,99,184.375L81.1,194.708c-.482.278-.872.081-.872-.441a1.87,1.87,0,0,1,.872-1.449" fill="#e0e0e0"/>
            <path id="Trazado_722367" data-name="Trazado 722367" d="M81.1,201.242,99,190.909c.482-.278.872-.08.872.442A1.868,1.868,0,0,1,99,192.8L81.1,203.132c-.482.278-.872.081-.872-.441a1.87,1.87,0,0,1,.872-1.449" fill="#e0e0e0"/>
            <path id="Trazado_722368" data-name="Trazado 722368" d="M84.376,208.12l17.9-10.333c.482-.278.872-.08.872.442a1.868,1.868,0,0,1-.872,1.448l-17.9,10.333c-.482.278-.872.081-.872-.441a1.87,1.87,0,0,1,.872-1.449" fill="#455a64"/>
            <path id="Trazado_722369" data-name="Trazado 722369" d="M84.376,213.811l17.9-10.333c.482-.278.872-.08.872.442a1.868,1.868,0,0,1-.872,1.448L84.376,215.7c-.482.278-.872.081-.872-.441a1.87,1.87,0,0,1,.872-1.449" fill="#e0e0e0"/>
            <path id="Trazado_722370" data-name="Trazado 722370" d="M84.376,219.5l17.9-10.333c.482-.278.872-.08.872.442a1.868,1.868,0,0,1-.872,1.448l-17.9,10.333c-.482.278-.872.081-.872-.441a1.87,1.87,0,0,1,.872-1.449" fill="#e0e0e0"/>
            <path id="Trazado_722371" data-name="Trazado 722371" d="M87.859,223.119l17.9-10.333c.482-.278.872-.08.872.442a1.868,1.868,0,0,1-.872,1.448l-17.9,10.333c-.482.278-.872.081-.872-.441a1.87,1.87,0,0,1,.872-1.449" fill="#e0e0e0"/>
            <path id="Trazado_722372" data-name="Trazado 722372" d="M83.676,228.015l1.453-2.564c.056-.1.056-.227,0-.261l-1.453-.886c-.07-.043-.172.093-.172.23v3.45c0,.137.1.155.172.031" fill="#455a64"/>
            <path id="Trazado_722373" data-name="Trazado 722373" d="M87.859,228.789l17.9-10.333c.482-.278.872-.079.872.442a1.868,1.868,0,0,1-.872,1.449l-17.9,10.333c-.482.278-.872.08-.872-.441a1.872,1.872,0,0,1,.872-1.45" fill="#e0e0e0"/>
            <path id="Trazado_722374" data-name="Trazado 722374" d="M83.676,233.685l1.453-2.564c.056-.1.056-.226,0-.261l-1.453-.886c-.07-.043-.172.093-.172.23v3.45c0,.137.1.155.172.031" fill="#455a64"/>
            <path id="Trazado_722375" data-name="Trazado 722375" d="M87.859,234.46l17.9-10.333c.482-.278.872-.08.872.442a1.868,1.868,0,0,1-.872,1.448l-17.9,10.333c-.482.278-.872.081-.872-.441a1.87,1.87,0,0,1,.872-1.449" fill="#e0e0e0"/>
            <path id="Trazado_722376" data-name="Trazado 722376" d="M83.676,239.356l1.453-2.564c.056-.1.056-.227,0-.261l-1.453-.886c-.07-.043-.172.093-.172.23v3.45c0,.137.1.155.172.031" fill="#455a64"/>
            <path id="Trazado_722377" data-name="Trazado 722377" d="M87.859,240.131l17.9-10.333c.482-.278.872-.08.872.442a1.868,1.868,0,0,1-.872,1.448l-17.9,10.333c-.482.278-.872.081-.872-.441a1.87,1.87,0,0,1,.872-1.449" fill="#e0e0e0"/>
            <path id="Trazado_722378" data-name="Trazado 722378" d="M83.676,245.027l1.453-2.564c.056-.1.056-.227,0-.261l-1.453-.886c-.07-.043-.172.093-.172.23V245c0,.137.1.155.172.031" fill="#455a64"/>
            <path id="Trazado_722379" data-name="Trazado 722379" d="M87.859,245.8l17.9-10.333c.482-.278.872-.08.872.442a1.868,1.868,0,0,1-.872,1.448l-17.9,10.333c-.482.278-.872.081-.872-.441a1.87,1.87,0,0,1,.872-1.449" fill="#e0e0e0"/>
            <path id="Trazado_722380" data-name="Trazado 722380" d="M83.676,250.7l1.453-2.564c.056-.1.056-.227,0-.261l-1.453-.886c-.07-.043-.172.093-.172.23v3.45c0,.137.1.155.172.031" fill="#455a64"/>
            <path id="Trazado_722381" data-name="Trazado 722381" d="M87.859,251.472l17.9-10.333c.482-.278.872-.08.872.442a1.868,1.868,0,0,1-.872,1.448l-17.9,10.333c-.482.278-.872.081-.872-.441a1.87,1.87,0,0,1,.872-1.449" fill="#e0e0e0"/>
            <path id="Trazado_722382" data-name="Trazado 722382" d="M83.676,256.368l1.453-2.564c.056-.1.056-.227,0-.261l-1.453-.886c-.07-.043-.172.093-.172.23v3.45c0,.137.1.155.172.031" fill="#455a64"/>
            <path id="Trazado_722383" data-name="Trazado 722383" d="M87.859,257.143l17.9-10.333c.482-.278.872-.08.872.442a1.868,1.868,0,0,1-.872,1.448l-17.9,10.333c-.482.278-.872.081-.872-.441a1.87,1.87,0,0,1,.872-1.449" fill="#e0e0e0"/>
            <path id="Trazado_722384" data-name="Trazado 722384" d="M83.676,262.039l1.453-2.564c.056-.1.056-.227,0-.261l-1.453-.886c-.07-.043-.172.093-.172.23v3.45c0,.137.1.155.172.031" fill="#455a64"/>
            <path id="Trazado_722385" data-name="Trazado 722385" d="M87.859,262.814l17.9-10.333c.482-.278.872-.08.872.442a1.868,1.868,0,0,1-.872,1.448L87.859,264.7c-.482.278-.872.081-.872-.441a1.87,1.87,0,0,1,.872-1.449" fill="#e0e0e0"/>
            <path id="Trazado_722386" data-name="Trazado 722386" d="M83.676,267.71l1.453-2.564c.056-.1.056-.227,0-.261L83.676,264c-.07-.043-.172.093-.172.23v3.45c0,.137.1.155.172.031" fill="#455a64"/>
            <path id="Trazado_722387" data-name="Trazado 722387" d="M123.659,143.871l58.823-33.961a1.928,1.928,0,0,0,.872-1.511v-15c0-.556-.39-.782-.872-.5l-58.823,33.955a1.928,1.928,0,0,0-.872,1.511v15c0,.557.39.782.872.5" fill="#f0f0f0"/>
            <path id="Trazado_722388" data-name="Trazado 722388" d="M128.788,133.288a.263.263,0,0,1,.005-.036l.387-1.611-.534.308a.026.026,0,0,1-.034,0,.059.059,0,0,1-.014-.044v-.291a.147.147,0,0,1,.014-.061.1.1,0,0,1,.034-.042l.855-.493a.027.027,0,0,1,.035,0,.062.062,0,0,1,.014.045v.255a.782.782,0,0,1-.029.157l-.388,1.614a.273.273,0,0,1-.019.057.082.082,0,0,1-.032.04l-.252.144a.021.021,0,0,1-.029,0,.052.052,0,0,1-.013-.04" fill="#455a64"/>
            <path id="Trazado_722389" data-name="Trazado 722389" d="M130.215,130.575a.434.434,0,0,1,.23-.073.227.227,0,0,1,.16.071.4.4,0,0,1,.1.183,1.167,1.167,0,0,1,.037.264c0,.078,0,.159,0,.246s0,.167,0,.244a1.8,1.8,0,0,1-.037.306,1.321,1.321,0,0,1-.1.293,1.127,1.127,0,0,1-.16.255.842.842,0,0,1-.23.193.438.438,0,0,1-.232.073.231.231,0,0,1-.159-.069.411.411,0,0,1-.1-.184,1.292,1.292,0,0,1-.037-.264c0-.074,0-.154,0-.24s0-.169,0-.25a2.011,2.011,0,0,1,.037-.306,1.3,1.3,0,0,1,.1-.293,1.15,1.15,0,0,1,.159-.255.869.869,0,0,1,.232-.194m.191,1.112q.007-.238,0-.462a.941.941,0,0,0-.013-.119.221.221,0,0,0-.032-.083.075.075,0,0,0-.057-.034.147.147,0,0,0-.089.027.3.3,0,0,0-.09.076.372.372,0,0,0-.057.1.591.591,0,0,0-.033.119.944.944,0,0,0-.011.134q-.011.232,0,.462a.709.709,0,0,0,.01.12.2.2,0,0,0,.033.082.082.082,0,0,0,.058.034.151.151,0,0,0,.09-.027.329.329,0,0,0,.089-.076.421.421,0,0,0,.058-.1.517.517,0,0,0,.032-.12,1.1,1.1,0,0,0,.012-.133" fill="#455a64"/>
            <path id="Trazado_722390" data-name="Trazado 722390" d="M131.453,130.265q0,.108,0,.21a.982.982,0,0,1-.021.164.682.682,0,0,1-.052.154.608.608,0,0,1-.086.135.513.513,0,0,1-.122.1.255.255,0,0,1-.122.04.114.114,0,0,1-.085-.035.212.212,0,0,1-.052-.094.555.555,0,0,1-.022-.14c0-.035,0-.069,0-.1s0-.069,0-.108a.92.92,0,0,1,.022-.166.727.727,0,0,1,.052-.153.585.585,0,0,1,.085-.134.457.457,0,0,1,.122-.1.239.239,0,0,1,.122-.04.11.11,0,0,1,.085.035.214.214,0,0,1,.052.093.605.605,0,0,1,.022.14m.447-.582a.305.305,0,0,1,.026-.054.116.116,0,0,1,.037-.036l.148-.085a.03.03,0,0,1,.031,0,.04.04,0,0,1,.012.034l0,.015a.088.088,0,0,1,0,.02l-.884,2.3a.341.341,0,0,1-.026.054.114.114,0,0,1-.039.036l-.146.084c-.013.008-.024.009-.031,0a.039.039,0,0,1-.012-.033l0-.015a.052.052,0,0,1,.006-.019Zm-.8.983a.251.251,0,0,0,.019.1c.011.018.029.02.055.005a.122.122,0,0,0,.054-.068.511.511,0,0,0,.02-.118c0-.063,0-.123,0-.182a.28.28,0,0,0-.02-.1c-.01-.017-.028-.019-.054,0a.126.126,0,0,0-.055.067.492.492,0,0,0-.019.119c0,.063,0,.123,0,.182m1.185.084c0,.071,0,.141,0,.209a1.111,1.111,0,0,1-.021.165.7.7,0,0,1-.052.154.572.572,0,0,1-.087.134.449.449,0,0,1-.121.1.254.254,0,0,1-.122.041.118.118,0,0,1-.086-.035.229.229,0,0,1-.052-.094.558.558,0,0,1-.021-.14c0-.036,0-.07,0-.1s0-.068,0-.109a.887.887,0,0,1,.021-.164.783.783,0,0,1,.052-.155.55.55,0,0,1,.086-.133.477.477,0,0,1,.122-.1.236.236,0,0,1,.121-.039.11.11,0,0,1,.086.034.212.212,0,0,1,.052.094.614.614,0,0,1,.022.14m-.355.4a.22.22,0,0,0,.02.1c.009.018.027.019.054,0a.12.12,0,0,0,.054-.067.434.434,0,0,0,.019-.119c0-.062,0-.123,0-.181a.239.239,0,0,0-.019-.1c-.01-.018-.028-.019-.054-.005a.118.118,0,0,0-.054.068.4.4,0,0,0-.02.118c0,.063,0,.123,0,.182" fill="#455a64"/>
            <path id="Trazado_722391" data-name="Trazado 722391" d="M128.779,128.667l-.591-.911a11.871,11.871,0,0,0-1.4,3.762l.954-.074a8.748,8.748,0,0,1,1.032-2.777" fill="#455a64"/>
            <path id="Trazado_722392" data-name="Trazado 722392" d="M130.445,126.867v-1.544a6.705,6.705,0,0,0-2.257,2.433l.591.911a4.956,4.956,0,0,1,1.666-1.8" fill="#455a64"/>
            <path id="Trazado_722393" data-name="Trazado 722393" d="M127.608,132.874a7.749,7.749,0,0,1,.14-1.43l-.955.073a10.561,10.561,0,0,0-.188,1.936,7.409,7.409,0,0,0,.188,1.719l.955-1.029a5.427,5.427,0,0,1-.14-1.269" fill="#455a64"/>
            <path id="Trazado_722394" data-name="Trazado 722394" d="M134.1,127.3a3.169,3.169,0,0,0-1.4-2.15,2.24,2.24,0,0,0-2.257.173v1.544a1.652,1.652,0,0,1,1.667-.124,2.338,2.338,0,0,1,1.032,1.586,5.477,5.477,0,0,1,.139,1.269,7.835,7.835,0,0,1-.139,1.43,8.748,8.748,0,0,1-1.032,2.777,4.95,4.95,0,0,1-1.667,1.8,1.648,1.648,0,0,1-1.666.124,2.338,2.338,0,0,1-1.032-1.585l-.954,1.028a3.171,3.171,0,0,0,1.4,2.15,2.24,2.24,0,0,0,2.257-.173,6.688,6.688,0,0,0,2.257-2.433,11.849,11.849,0,0,0,1.4-3.762,10.543,10.543,0,0,0,.188-1.935,7.41,7.41,0,0,0-.188-1.719" fill="#81d4fa"/>
            <path id="Trazado_722395" data-name="Trazado 722395" d="M140.027,123.074l17.9-10.333c.482-.278.872-.08.872.442a1.871,1.871,0,0,1-.872,1.449l-17.9,10.332c-.482.278-.873.081-.873-.441a1.874,1.874,0,0,1,.873-1.449" fill="#455a64"/>
            <path id="Trazado_722396" data-name="Trazado 722396" d="M140.027,126.883,171.018,109c.482-.278.873-.08.873.442a1.873,1.873,0,0,1-.873,1.449l-30.991,17.887c-.482.278-.873.081-.873-.441a1.874,1.874,0,0,1,.873-1.449" fill="#e0e0e0"/>
            <path id="Trazado_722397" data-name="Trazado 722397" d="M187.488,107.012l58.823-33.961a1.928,1.928,0,0,0,.872-1.511v-15c0-.556-.39-.782-.872-.5L187.488,90a1.928,1.928,0,0,0-.872,1.511v15c0,.557.39.782.872.5" fill="#f0f0f0"/>
            <path id="Trazado_722398" data-name="Trazado 722398" d="M192.907,95.054a1.094,1.094,0,0,1,.044-.312,1.311,1.311,0,0,1,.117-.285,1.147,1.147,0,0,1,.169-.231.823.823,0,0,1,.194-.16.459.459,0,0,1,.2-.065.259.259,0,0,1,.168.037.311.311,0,0,1,.117.149.675.675,0,0,1,.044.262.969.969,0,0,1-.012.154,1.26,1.26,0,0,1-.03.144q-.018.07-.042.138c-.015.044-.031.088-.046.13l-.34.92a.431.431,0,0,0-.019.046.1.1,0,0,1-.036.041l-.285.164a.019.019,0,0,1-.026,0,.055.055,0,0,1-.01-.037.088.088,0,0,1,0-.024l.007-.017.229-.628a.362.362,0,0,1-.168.024.254.254,0,0,1-.141-.059.355.355,0,0,1-.1-.147.708.708,0,0,1-.036-.241m.717-.414a.239.239,0,0,0-.016-.091.107.107,0,0,0-.042-.052.1.1,0,0,0-.062-.014.157.157,0,0,0-.073.024.275.275,0,0,0-.072.059.45.45,0,0,0-.062.086.467.467,0,0,0-.043.1.374.374,0,0,0-.016.109.218.218,0,0,0,.016.091.116.116,0,0,0,.043.053.106.106,0,0,0,.062.014.166.166,0,0,0,.072-.024.332.332,0,0,0,.073-.06.563.563,0,0,0,.062-.085.508.508,0,0,0,.042-.1.418.418,0,0,0,.016-.11" fill="#455a64"/>
            <path id="Trazado_722399" data-name="Trazado 722399" d="M194.628,93.375a.421.421,0,0,1,.23-.072.224.224,0,0,1,.16.07.412.412,0,0,1,.1.183,1.229,1.229,0,0,1,.036.264c0,.078,0,.159,0,.246s0,.167,0,.244a1.9,1.9,0,0,1-.036.306,1.377,1.377,0,0,1-.1.293,1.163,1.163,0,0,1-.16.255.857.857,0,0,1-.23.193.441.441,0,0,1-.232.073.233.233,0,0,1-.16-.069.421.421,0,0,1-.095-.184,1.3,1.3,0,0,1-.036-.264c0-.074,0-.154,0-.24s0-.169,0-.25a2.008,2.008,0,0,1,.036-.306,1.358,1.358,0,0,1,.095-.293,1.155,1.155,0,0,1,.16-.255.854.854,0,0,1,.232-.194m.19,1.112q.008-.238,0-.462a.787.787,0,0,0-.013-.119.222.222,0,0,0-.031-.083.075.075,0,0,0-.058-.034.146.146,0,0,0-.088.027.294.294,0,0,0-.09.076.374.374,0,0,0-.058.1.666.666,0,0,0-.032.119,1.111,1.111,0,0,0-.012.134q-.009.232,0,.462a.817.817,0,0,0,.011.12.2.2,0,0,0,.033.082.077.077,0,0,0,.058.034.155.155,0,0,0,.09-.027.31.31,0,0,0,.088-.076.394.394,0,0,0,.059-.1.5.5,0,0,0,.032-.12.93.93,0,0,0,.011-.133" fill="#455a64"/>
            <path id="Trazado_722400" data-name="Trazado 722400" d="M195.865,93.065q0,.108,0,.21a.98.98,0,0,1-.021.164.735.735,0,0,1-.052.154.646.646,0,0,1-.086.135.513.513,0,0,1-.122.1.255.255,0,0,1-.122.04.117.117,0,0,1-.085-.034.212.212,0,0,1-.052-.1.556.556,0,0,1-.022-.14c0-.035,0-.069,0-.1s0-.069,0-.108a.921.921,0,0,1,.022-.166.674.674,0,0,1,.052-.153.585.585,0,0,1,.085-.134.457.457,0,0,1,.122-.1.239.239,0,0,1,.122-.04.112.112,0,0,1,.085.035.214.214,0,0,1,.052.093.605.605,0,0,1,.022.14m.447-.582a.262.262,0,0,1,.026-.053.109.109,0,0,1,.037-.037l.148-.085a.03.03,0,0,1,.031,0,.04.04,0,0,1,.012.034l0,.015a.058.058,0,0,1-.005.02l-.883,2.3a.34.34,0,0,1-.026.054.114.114,0,0,1-.039.036l-.146.084c-.013.008-.024.009-.031,0a.039.039,0,0,1-.012-.033l0-.015a.052.052,0,0,1,.006-.019Zm-.8.983a.251.251,0,0,0,.019.1c.011.018.029.02.055.005a.122.122,0,0,0,.054-.068.511.511,0,0,0,.02-.118c0-.063,0-.123,0-.182a.28.28,0,0,0-.02-.1c-.01-.017-.028-.019-.054,0a.126.126,0,0,0-.055.067.493.493,0,0,0-.019.119c0,.063,0,.123,0,.182m1.185.084q0,.106,0,.21a1.1,1.1,0,0,1-.021.164.7.7,0,0,1-.052.154.6.6,0,0,1-.087.134.449.449,0,0,1-.121.1.254.254,0,0,1-.122.041.118.118,0,0,1-.086-.035.218.218,0,0,1-.052-.094.558.558,0,0,1-.021-.14c0-.036,0-.069,0-.1s0-.068,0-.109a.886.886,0,0,1,.021-.164.743.743,0,0,1,.052-.155.551.551,0,0,1,.086-.133.477.477,0,0,1,.122-.1.236.236,0,0,1,.121-.039.112.112,0,0,1,.086.034.218.218,0,0,1,.052.094.614.614,0,0,1,.022.14m-.355.4a.22.22,0,0,0,.02.1c.009.018.027.019.054,0a.12.12,0,0,0,.054-.067.4.4,0,0,0,.018-.119,1.362,1.362,0,0,0,0-.181.226.226,0,0,0-.018-.1c-.01-.018-.028-.019-.054,0a.117.117,0,0,0-.054.068.4.4,0,0,0-.02.118c0,.063,0,.123,0,.182" fill="#455a64"/>
            <path id="Trazado_722401" data-name="Trazado 722401" d="M194.806,89.7V88.153a6.705,6.705,0,0,0-2.257,2.433l.591.911a4.948,4.948,0,0,1,1.666-1.8" fill="#455a64"/>
            <path id="Trazado_722402" data-name="Trazado 722402" d="M198.458,90.13a3.169,3.169,0,0,0-1.4-2.15,2.24,2.24,0,0,0-2.257.173V89.7a1.65,1.65,0,0,1,1.667-.124,2.338,2.338,0,0,1,1.032,1.585,5.492,5.492,0,0,1,.139,1.27,7.835,7.835,0,0,1-.139,1.43,8.77,8.77,0,0,1-1.03,2.774,4.989,4.989,0,0,1-1.669,1.8,1.648,1.648,0,0,1-1.666.124,2.338,2.338,0,0,1-1.032-1.586,5.478,5.478,0,0,1-.139-1.269,7.836,7.836,0,0,1,.139-1.43,8.748,8.748,0,0,1,1.032-2.777l-.591-.911a11.871,11.871,0,0,0-1.4,3.762,10.456,10.456,0,0,0-.188,1.935A7.35,7.35,0,0,0,191.153,98a3.171,3.171,0,0,0,1.4,2.15,2.239,2.239,0,0,0,2.257-.173,6.7,6.7,0,0,0,2.257-2.433v0a11.848,11.848,0,0,0,1.4-3.762,10.542,10.542,0,0,0,.188-1.935,7.4,7.4,0,0,0-.188-1.719" fill="#81d4fa"/>
            <path id="Trazado_722403" data-name="Trazado 722403" d="M204.373,85.9l17.9-10.333c.482-.278.872-.08.872.442a1.868,1.868,0,0,1-.872,1.448l-17.9,10.333c-.482.278-.873.081-.873-.441a1.871,1.871,0,0,1,.873-1.449" fill="#455a64"/>
            <path id="Trazado_722404" data-name="Trazado 722404" d="M204.373,89.714l30.991-17.888c.482-.278.873-.08.873.442a1.873,1.873,0,0,1-.873,1.449L204.373,91.6c-.482.278-.873.081-.873-.441a1.871,1.871,0,0,1,.873-1.449" fill="#e0e0e0"/>
            <path id="Trazado_722405" data-name="Trazado 722405" d="M129.652,147.983l12.553-7.269c.482-.278.872-.081.872.441a1.87,1.87,0,0,1-.872,1.449l-12.553,7.269c-.482.278-.873.081-.873-.441a1.871,1.871,0,0,1,.873-1.449" fill="#455a64"/>
            <path id="Trazado_722406" data-name="Trazado 722406" d="M246.748,85.072h0Zm-.37.213V181.16a1.148,1.148,0,0,1-.469.814L123.593,252.59V156.715a1.146,1.146,0,0,1,.47-.814l1.529-.882a2.742,2.742,0,0,0,1.275-2.209v-5.546a1.148,1.148,0,0,1,.469-.813L144.9,136.316v5.154a1.317,1.317,0,0,0,1.289,1.429,1.577,1.577,0,0,0,.792-.228l99.4-57.386M145.266,136.1h0M246.7,84.271a.791.791,0,0,0-.39.119l-99.737,57.583a.79.79,0,0,1-.389.12c-.287,0-.483-.229-.483-.623v-5.546c0-.394-.2-.622-.483-.622a.791.791,0,0,0-.39.119l-17.9,10.332a1.93,1.93,0,0,0-.873,1.511v5.546a1.928,1.928,0,0,1-.872,1.511l-1.529.883a1.926,1.926,0,0,0-.872,1.511v96.266c0,.4.2.623.483.623a.788.788,0,0,0,.389-.119l122.653-70.813a1.929,1.929,0,0,0,.872-1.512V84.894c0-.395-.2-.623-.483-.623" fill="#e0e0e0"/>
            <path id="Trazado_722407" data-name="Trazado 722407" d="M130.673,160.9a.85.85,0,0,1-.427-.111,1.009,1.009,0,0,1-.457-.914V156.22a2.343,2.343,0,0,1,1.074-1.86l9.727-5.609a.928.928,0,0,1,1.477.853v3.656a2.338,2.338,0,0,1-1.075,1.859l-9.726,5.609a1.192,1.192,0,0,1-.593.172m.593-5.842a1.532,1.532,0,0,0-.671,1.162v3.655c0,.138.037.206.054.216a.306.306,0,0,0,.214-.061l9.727-5.609a1.532,1.532,0,0,0,.671-1.161V149.6c0-.138-.037-.205-.054-.215s-.094-.008-.215.06Z" fill="#e0e0e0"/>
            <path id="Trazado_722408" data-name="Trazado 722408" d="M131.844,156.563l6.339-3.679c.321-.185.582-.053.582.294a1.249,1.249,0,0,1-.582.966l-6.339,3.679c-.321.185-.582.053-.581-.295a1.246,1.246,0,0,1,.581-.965" fill="#e0e0e0"/>
            <path id="Trazado_722409" data-name="Trazado 722409" d="M139.658,152.282l.525.746c.021.028.06.006.08-.046l.525-1.353c.026-.065,0-.125-.039-.1l-1.051.607a.127.127,0,0,0-.04.147" fill="#455a64"/>
            <path id="Trazado_722410" data-name="Trazado 722410" d="M129.334,196.317c.465-.268.841-.051.841.486a1.858,1.858,0,0,1-.841,1.457c-.465.268-.841.051-.841-.486a1.858,1.858,0,0,1,.841-1.457" fill="#81d4fa"/>
            <path id="Trazado_722411" data-name="Trazado 722411" d="M135.882,188.757c.465-.268.841-.051.841.486a1.858,1.858,0,0,1-.841,1.457c-.465.268-.841.051-.841-.486a1.858,1.858,0,0,1,.841-1.457" fill="#81d4fa"/>
            <path id="Trazado_722412" data-name="Trazado 722412" d="M142.429,184.977c.465-.268.841-.051.841.486a1.858,1.858,0,0,1-.841,1.457c-.465.268-.841.051-.841-.486a1.858,1.858,0,0,1,.841-1.457" fill="#81d4fa"/>
            <path id="Trazado_722413" data-name="Trazado 722413" d="M148.976,182.857c.465-.268.841-.051.841.486a1.858,1.858,0,0,1-.841,1.457c-.465.268-.841.051-.841-.486a1.858,1.858,0,0,1,.841-1.457" fill="#81d4fa"/>
            <path id="Trazado_722414" data-name="Trazado 722414" d="M155.531,176.05c.465-.268.841-.051.841.486a1.858,1.858,0,0,1-.841,1.457c-.465.268-.841.051-.841-.486a1.858,1.858,0,0,1,.841-1.457" fill="#81d4fa"/>
            <path id="Trazado_722415" data-name="Trazado 722415" d="M162.07,173.636c.465-.268.841-.051.841.486a1.858,1.858,0,0,1-.841,1.457c-.465.268-.841.051-.841-.486a1.858,1.858,0,0,1,.841-1.457" fill="#81d4fa"/>
            <path id="Trazado_722416" data-name="Trazado 722416" d="M168.617,166.076c.465-.268.841-.051.841.486a1.858,1.858,0,0,1-.841,1.457c-.465.268-.841.051-.841-.486a1.858,1.858,0,0,1,.841-1.457" fill="#81d4fa"/>
            <path id="Trazado_722417" data-name="Trazado 722417" d="M175.165,164.186c.465-.268.841-.051.841.486a1.858,1.858,0,0,1-.841,1.457c-.465.268-.841.051-.841-.486a1.858,1.858,0,0,1,.841-1.457" fill="#81d4fa"/>
            <path id="Trazado_722418" data-name="Trazado 722418" d="M181.712,143.4c.465-.268.841-.051.841.486a1.858,1.858,0,0,1-.841,1.457c-.465.268-.841.051-.841-.486a1.858,1.858,0,0,1,.841-1.457" fill="#81d4fa"/>
            <path id="Trazado_722419" data-name="Trazado 722419" d="M188.259,154.736c.465-.268.841-.051.841.486a1.858,1.858,0,0,1-.841,1.457c-.465.268-.841.051-.841-.486a1.858,1.858,0,0,1,.841-1.457" fill="#81d4fa"/>
            <path id="Trazado_722420" data-name="Trazado 722420" d="M194.807,154.736c.464-.268.84-.051.84.486a1.86,1.86,0,0,1-.84,1.457c-.466.268-.842.051-.842-.486a1.857,1.857,0,0,1,.842-1.457" fill="#81d4fa"/>
            <path id="Trazado_722421" data-name="Trazado 722421" d="M201.354,154.736c.465-.268.841-.051.841.486a1.858,1.858,0,0,1-.841,1.457c-.465.268-.841.051-.841-.486a1.858,1.858,0,0,1,.841-1.457" fill="#81d4fa"/>
            <path id="Trazado_722422" data-name="Trazado 722422" d="M207.9,143.4c.465-.268.841-.051.841.486a1.858,1.858,0,0,1-.841,1.457c-.465.268-.841.051-.841-.486a1.858,1.858,0,0,1,.841-1.457" fill="#81d4fa"/>
            <path id="Trazado_722423" data-name="Trazado 722423" d="M214.448,141.224c.465-.268.841-.051.841.486a1.858,1.858,0,0,1-.841,1.457c-.465.268-.841.051-.841-.486a1.858,1.858,0,0,1,.841-1.457" fill="#81d4fa"/>
            <path id="Trazado_722424" data-name="Trazado 722424" d="M221.018,132.056c.465-.268.841-.051.841.486a1.858,1.858,0,0,1-.841,1.457c-.465.268-.841.051-.841-.486a1.858,1.858,0,0,1,.841-1.457" fill="#81d4fa"/>
            <path id="Trazado_722425" data-name="Trazado 722425" d="M227.543,132.056c.465-.268.841-.051.841.486a1.858,1.858,0,0,1-.841,1.457c-.465.268-.841.051-.841-.486a1.858,1.858,0,0,1,.841-1.457" fill="#81d4fa"/>
            <path id="Trazado_722426" data-name="Trazado 722426" d="M234.09,132.056c.465-.268.841-.051.841.486A1.858,1.858,0,0,1,234.09,134c-.465.268-.841.051-.841-.486a1.858,1.858,0,0,1,.841-1.457" fill="#81d4fa"/>
            <path id="Trazado_722427" data-name="Trazado 722427" d="M240.637,128.276c.465-.268.841-.051.841.486a1.858,1.858,0,0,1-.841,1.457c-.465.268-.841.051-.841-.486a1.858,1.858,0,0,1,.841-1.457" fill="#81d4fa"/>
            <path id="Trazado_722428" data-name="Trazado 722428" d="M129.317,197.5a.2.2,0,0,1-.152-.334l6.611-7.6a.208.208,0,0,1,.051-.042l6.5-3.752,6.538-2.122,6.512-6.771a.2.2,0,0,1,.075-.049l6.5-2.4,6.515-7.522a.2.2,0,0,1,.1-.062l6.443-1.859,6.515-20.687a.2.2,0,0,1,.17-.14.209.209,0,0,1,.2.1l6.488,11.239,6.447-.009,6.415.009,6.489-11.24a.2.2,0,0,1,.111-.09l6.485-2.152,6.509-9.114a.2.2,0,0,1,.164-.084h13.04l6.5-3.753a.2.2,0,1,1,.2.348L234.19,133.2a.2.2,0,0,1-.1.027H221.1l-6.488,9.083a.2.2,0,0,1-.1.074l-6.474,2.148-6.509,11.274a.2.2,0,0,1-.175.1l-6.531-.009-6.564.009a.206.206,0,0,1-.175-.1l-6.317-10.943-6.409,20.353a.2.2,0,0,1-.137.133l-6.488,1.873-6.51,7.516a.21.21,0,0,1-.082.057l-6.5,2.4-6.515,6.773a.2.2,0,0,1-.084.052l-6.547,2.121-6.432,3.718-6.589,7.572a.2.2,0,0,1-.152.069" fill="#81d4fa"/>
            <path id="Trazado_722429" data-name="Trazado 722429" d="M129.335,201.471a.4.4,0,0,1-.2-.752l111.3-64.261a.4.4,0,0,1,.4.7l-111.3,64.261a.4.4,0,0,1-.2.054" fill="#e0e0e0"/>
            <path id="Trazado_722430" data-name="Trazado 722430" d="M129.334,192.537c.465-.268.841-.051.841.486a1.858,1.858,0,0,1-.841,1.457c-.465.268-.841.051-.841-.486a1.858,1.858,0,0,1,.841-1.457" fill="#81d4fa"/>
            <path id="Trazado_722431" data-name="Trazado 722431" d="M135.881,181.2c.465-.268.841-.051.841.486a1.858,1.858,0,0,1-.841,1.457c-.465.268-.841.051-.841-.486a1.858,1.858,0,0,1,.841-1.457" fill="#81d4fa"/>
            <path id="Trazado_722432" data-name="Trazado 722432" d="M142.429,179.781c.465-.268.841-.051.841.486a1.858,1.858,0,0,1-.841,1.457c-.465.268-.841.051-.841-.486a1.858,1.858,0,0,1,.841-1.457" fill="#81d4fa"/>
            <path id="Trazado_722433" data-name="Trazado 722433" d="M148.976,166.076c.465-.268.841-.051.841.486a1.858,1.858,0,0,1-.841,1.457c-.465.268-.841.051-.841-.486a1.858,1.858,0,0,1,.841-1.457" fill="#81d4fa"/>
            <path id="Trazado_722434" data-name="Trazado 722434" d="M155.531,169.856c.465-.267.841-.051.841.486a1.858,1.858,0,0,1-.841,1.457c-.465.269-.841.051-.841-.486a1.858,1.858,0,0,1,.841-1.457" fill="#81d4fa"/>
            <path id="Trazado_722435" data-name="Trazado 722435" d="M162.072,167.966c.465-.267.841-.051.841.486a1.862,1.862,0,0,1-.841,1.458c-.465.268-.841.05-.841-.487a1.858,1.858,0,0,1,.841-1.457" fill="#81d4fa"/>
            <path id="Trazado_722436" data-name="Trazado 722436" d="M168.617,162.3c.465-.268.841-.051.841.486a1.86,1.86,0,0,1-.841,1.457c-.465.268-.841.051-.841-.486a1.858,1.858,0,0,1,.841-1.457" fill="#81d4fa"/>
            <path id="Trazado_722437" data-name="Trazado 722437" d="M175.165,154.736c.465-.268.84-.051.84.486a1.857,1.857,0,0,1-.84,1.457c-.466.268-.841.051-.841-.486a1.856,1.856,0,0,1,.841-1.457" fill="#81d4fa"/>
            <path id="Trazado_722438" data-name="Trazado 722438" d="M181.712,152.846c.465-.268.841-.051.841.486a1.858,1.858,0,0,1-.841,1.457c-.465.268-.841.051-.841-.486a1.858,1.858,0,0,1,.841-1.457" fill="#81d4fa"/>
            <path id="Trazado_722439" data-name="Trazado 722439" d="M188.259,147.176c.465-.268.841-.051.841.486a1.858,1.858,0,0,1-.841,1.457c-.465.268-.841.051-.841-.486a1.858,1.858,0,0,1,.841-1.457" fill="#81d4fa"/>
            <path id="Trazado_722440" data-name="Trazado 722440" d="M194.806,147.176c.465-.268.841-.051.841.486a1.858,1.858,0,0,1-.841,1.457c-.465.268-.841.051-.841-.486a1.858,1.858,0,0,1,.841-1.457" fill="#81d4fa"/>
            <path id="Trazado_722441" data-name="Trazado 722441" d="M201.354,132.056c.465-.268.841-.051.841.486a1.858,1.858,0,0,1-.841,1.457c-.465.268-.841.051-.841-.486a1.858,1.858,0,0,1,.841-1.457" fill="#81d4fa"/>
            <path id="Trazado_722442" data-name="Trazado 722442" d="M207.9,139.562c.465-.268.841-.051.841.486a1.858,1.858,0,0,1-.841,1.457c-.465.268-.841.051-.841-.486a1.858,1.858,0,0,1,.841-1.457" fill="#81d4fa"/>
            <path id="Trazado_722443" data-name="Trazado 722443" d="M214.448,132.056c.465-.268.841-.051.841.486a1.86,1.86,0,0,1-.841,1.457c-.465.268-.841.051-.841-.486a1.858,1.858,0,0,1,.841-1.457" fill="#81d4fa"/>
            <path id="Trazado_722444" data-name="Trazado 722444" d="M220.995,128.276c.465-.268.841-.051.841.486a1.858,1.858,0,0,1-.841,1.457c-.465.268-.841.051-.841-.486a1.858,1.858,0,0,1,.841-1.457" fill="#81d4fa"/>
            <path id="Trazado_722445" data-name="Trazado 722445" d="M227.542,128.276c.465-.268.841-.051.841.486a1.86,1.86,0,0,1-.841,1.457c-.465.268-.841.05-.841-.486a1.858,1.858,0,0,1,.841-1.457" fill="#81d4fa"/>
            <path id="Trazado_722446" data-name="Trazado 722446" d="M234.09,124.5c.465-.268.841-.051.841.486a1.858,1.858,0,0,1-.841,1.457c-.465.268-.841.051-.841-.486a1.858,1.858,0,0,1,.841-1.457" fill="#81d4fa"/>
            <path id="Trazado_722447" data-name="Trazado 722447" d="M240.637,124.5c.465-.268.841-.051.841.486a1.858,1.858,0,0,1-.841,1.457c-.465.268-.841.051-.841-.486a1.858,1.858,0,0,1,.841-1.457" fill="#81d4fa"/>
            <path id="Trazado_722448" data-name="Trazado 722448" d="M129.335,193.71a.2.2,0,0,1-.1-.027.2.2,0,0,1-.073-.275l6.594-11.368a.2.2,0,0,1,.132-.1l6.4-1.367,6.5-13.616a.2.2,0,0,1,.122-.106.206.206,0,0,1,.161.019l6.481,3.741,6.415-1.858,6.5-5.636,6.536-7.545a.193.193,0,0,1,.1-.062l6.505-1.878,6.513-5.641a.208.208,0,0,1,.133-.049h6.415l6.494-15a.2.2,0,0,1,.338-.052l6.394,7.384,6.4-7.384a.2.2,0,0,1,.052-.043l6.57-3.793a.2.2,0,0,1,.1-.027h6.493l6.478-3.74a.2.2,0,0,1,.1-.027h6.548a.2.2,0,0,1,0,.4h-6.494l-6.478,3.74a.205.205,0,0,1-.1.027h-6.493l-6.495,3.749-6.524,7.534a.208.208,0,0,1-.305,0l-6.338-7.317-6.419,14.826a.2.2,0,0,1-.185.121h-6.473l-6.489,5.621a.2.2,0,0,1-.077.041l-6.49,1.874-6.517,7.52L162.2,169.09a.218.218,0,0,1-.076.042l-6.54,1.894a.209.209,0,0,1-.157-.019l-6.366-3.676-6.453,13.509a.2.2,0,0,1-.14.11l-6.413,1.37-6.549,11.289a.2.2,0,0,1-.174.1" fill="#81d4fa"/>
            <g id="Grupo_1008781" data-name="Grupo 1008781" opacity="0.3">
              <g id="Grupo_1008780" data-name="Grupo 1008780">
                <g id="Grupo_1008779" data-name="Grupo 1008779" clip-path="url(#clip-path-11)">
                  <path id="Trazado_722449" data-name="Trazado 722449" d="M129.334,192.537c.465-.268.841-.051.841.486a1.858,1.858,0,0,1-.841,1.457c-.465.268-.841.051-.841-.486a1.858,1.858,0,0,1,.841-1.457"/>
                  <path id="Trazado_722450" data-name="Trazado 722450" d="M135.881,181.2c.465-.268.841-.051.841.486a1.858,1.858,0,0,1-.841,1.457c-.465.268-.841.051-.841-.486a1.858,1.858,0,0,1,.841-1.457"/>
                  <path id="Trazado_722451" data-name="Trazado 722451" d="M142.429,179.781c.465-.268.841-.051.841.486a1.858,1.858,0,0,1-.841,1.457c-.465.268-.841.051-.841-.486a1.858,1.858,0,0,1,.841-1.457"/>
                  <path id="Trazado_722452" data-name="Trazado 722452" d="M148.976,166.076c.465-.268.841-.051.841.486a1.858,1.858,0,0,1-.841,1.457c-.465.268-.841.051-.841-.486a1.858,1.858,0,0,1,.841-1.457"/>
                  <path id="Trazado_722453" data-name="Trazado 722453" d="M155.531,169.856c.465-.267.841-.051.841.486a1.858,1.858,0,0,1-.841,1.457c-.465.269-.841.051-.841-.486a1.858,1.858,0,0,1,.841-1.457"/>
                  <path id="Trazado_722454" data-name="Trazado 722454" d="M162.072,167.966c.465-.267.841-.051.841.486a1.862,1.862,0,0,1-.841,1.458c-.465.268-.841.05-.841-.487a1.858,1.858,0,0,1,.841-1.457"/>
                  <path id="Trazado_722455" data-name="Trazado 722455" d="M168.617,162.3c.465-.268.841-.051.841.486a1.86,1.86,0,0,1-.841,1.457c-.465.268-.841.051-.841-.486a1.858,1.858,0,0,1,.841-1.457"/>
                  <path id="Trazado_722456" data-name="Trazado 722456" d="M175.165,154.736c.465-.268.84-.051.84.486a1.857,1.857,0,0,1-.84,1.457c-.466.268-.841.051-.841-.486a1.856,1.856,0,0,1,.841-1.457"/>
                  <path id="Trazado_722457" data-name="Trazado 722457" d="M181.712,152.846c.465-.268.841-.051.841.486a1.858,1.858,0,0,1-.841,1.457c-.465.268-.841.051-.841-.486a1.858,1.858,0,0,1,.841-1.457"/>
                  <path id="Trazado_722458" data-name="Trazado 722458" d="M188.259,147.176c.465-.268.841-.051.841.486a1.858,1.858,0,0,1-.841,1.457c-.465.268-.841.051-.841-.486a1.858,1.858,0,0,1,.841-1.457"/>
                  <path id="Trazado_722459" data-name="Trazado 722459" d="M194.806,147.176c.465-.268.841-.051.841.486a1.858,1.858,0,0,1-.841,1.457c-.465.268-.841.051-.841-.486a1.858,1.858,0,0,1,.841-1.457"/>
                  <path id="Trazado_722460" data-name="Trazado 722460" d="M201.354,132.056c.465-.268.841-.051.841.486a1.858,1.858,0,0,1-.841,1.457c-.465.268-.841.051-.841-.486a1.858,1.858,0,0,1,.841-1.457"/>
                  <path id="Trazado_722461" data-name="Trazado 722461" d="M207.9,139.562c.465-.268.841-.051.841.486a1.858,1.858,0,0,1-.841,1.457c-.465.268-.841.051-.841-.486a1.858,1.858,0,0,1,.841-1.457"/>
                  <path id="Trazado_722462" data-name="Trazado 722462" d="M214.448,132.056c.465-.268.841-.051.841.486a1.86,1.86,0,0,1-.841,1.457c-.465.268-.841.051-.841-.486a1.858,1.858,0,0,1,.841-1.457"/>
                  <path id="Trazado_722463" data-name="Trazado 722463" d="M220.995,128.276c.465-.268.841-.051.841.486a1.858,1.858,0,0,1-.841,1.457c-.465.268-.841.051-.841-.486a1.858,1.858,0,0,1,.841-1.457"/>
                  <path id="Trazado_722464" data-name="Trazado 722464" d="M227.542,128.276c.465-.268.841-.051.841.486a1.86,1.86,0,0,1-.841,1.457c-.465.268-.841.05-.841-.486a1.858,1.858,0,0,1,.841-1.457"/>
                  <path id="Trazado_722465" data-name="Trazado 722465" d="M234.09,124.5c.465-.268.841-.051.841.486a1.858,1.858,0,0,1-.841,1.457c-.465.268-.841.051-.841-.486a1.858,1.858,0,0,1,.841-1.457"/>
                  <path id="Trazado_722466" data-name="Trazado 722466" d="M240.637,124.5c.465-.268.841-.051.841.486a1.858,1.858,0,0,1-.841,1.457c-.465.268-.841.051-.841-.486a1.858,1.858,0,0,1,.841-1.457"/>
                  <path id="Trazado_722467" data-name="Trazado 722467" d="M129.335,193.71a.2.2,0,0,1-.1-.027.2.2,0,0,1-.073-.275l6.594-11.368a.2.2,0,0,1,.132-.1l6.4-1.367,6.5-13.616a.2.2,0,0,1,.122-.106.206.206,0,0,1,.161.019l6.481,3.741,6.415-1.858,6.5-5.636,6.536-7.545a.193.193,0,0,1,.1-.062l6.505-1.878,6.513-5.641a.208.208,0,0,1,.133-.049h6.415l6.494-15a.2.2,0,0,1,.338-.052l6.394,7.384,6.4-7.384a.2.2,0,0,1,.052-.043l6.57-3.793a.2.2,0,0,1,.1-.027h6.493l6.478-3.74a.2.2,0,0,1,.1-.027h6.548a.2.2,0,0,1,0,.4h-6.494l-6.478,3.74a.205.205,0,0,1-.1.027h-6.493l-6.495,3.749-6.524,7.534a.208.208,0,0,1-.305,0l-6.338-7.317-6.419,14.826a.2.2,0,0,1-.185.121h-6.473l-6.489,5.621a.2.2,0,0,1-.077.041l-6.49,1.874-6.517,7.52L162.2,169.09a.218.218,0,0,1-.076.042l-6.54,1.894a.209.209,0,0,1-.157-.019l-6.366-3.676-6.453,13.509a.2.2,0,0,1-.14.11l-6.413,1.37-6.549,11.289a.2.2,0,0,1-.174.1"/>
                </g>
              </g>
            </g>
            <path id="Trazado_722468" data-name="Trazado 722468" d="M132.764,164.488l6.339-3.679c.321-.185.582-.053.582.294a1.249,1.249,0,0,1-.582.966l-6.339,3.679c-.321.185-.581.053-.581-.295a1.246,1.246,0,0,1,.581-.965" fill="#e0e0e0"/>
            <path id="Trazado_722469" data-name="Trazado 722469" d="M129.334,166.076c.465-.267.841-.051.841.487a1.861,1.861,0,0,1-.841,1.457c-.465.268-.841.05-.841-.487a1.858,1.858,0,0,1,.841-1.457" fill="#81d4fa"/>
            <g id="Grupo_1008784" data-name="Grupo 1008784" opacity="0.3">
              <g id="Grupo_1008783" data-name="Grupo 1008783">
                <g id="Grupo_1008782" data-name="Grupo 1008782" clip-path="url(#clip-path-12)">
                  <path id="Trazado_722470" data-name="Trazado 722470" d="M129.334,166.076c.465-.267.841-.051.841.487a1.861,1.861,0,0,1-.841,1.457c-.465.268-.841.05-.841-.487a1.858,1.858,0,0,1,.841-1.457"/>
                </g>
              </g>
            </g>
            <path id="Trazado_722471" data-name="Trazado 722471" d="M132.764,168.257l6.339-3.678c.321-.186.582-.054.582.293a1.251,1.251,0,0,1-.582.967l-6.339,3.679c-.321.184-.581.052-.581-.295a1.25,1.25,0,0,1,.581-.966" fill="#e0e0e0"/>
            <path id="Trazado_722472" data-name="Trazado 722472" d="M129.334,169.856c.465-.268.841-.051.841.486a1.858,1.858,0,0,1-.841,1.457c-.465.268-.841.051-.841-.486a1.858,1.858,0,0,1,.841-1.457" fill="#81d4fa"/>
            <path id="Trazado_722473" data-name="Trazado 722473" d="M129.335,220.224a.2.2,0,0,1-.14-.057.2.2,0,0,1-.005-.285l3.323-3.416,3.261-.413,3.293-4.255,3.3.452,3.2-2.891,3.27-1.961,3.334-4.621,3.311,1.039,3.181-2.843a.2.2,0,1,1,.269.3l-3.352,3-3.252-1.02-3.248,4.474-3.274,1.957-3.311,3-3.251-.446-3.254,4.2-3.287.416-3.223,3.315a.2.2,0,0,1-.145.061" fill="#81d4fa"/>
            <path id="Trazado_722474" data-name="Trazado 722474" d="M130.629,209.169a.97.97,0,0,1,.083-.073.638.638,0,0,1,.089-.062.948.948,0,0,1,.5-.15.6.6,0,0,1,.394.149.956.956,0,0,1,.258.415,2,2,0,0,1,.094.647,3.132,3.132,0,0,1-.094.753,3.52,3.52,0,0,1-.258.714,2.912,2.912,0,0,1-.394.6,1.892,1.892,0,0,1-.5.423.956.956,0,0,1-.5.149.6.6,0,0,1-.393-.149.957.957,0,0,1-.259-.415,1.992,1.992,0,0,1-.093-.647,2.707,2.707,0,0,1,.031-.416,3.5,3.5,0,0,1,.082-.393c.034-.128.071-.254.112-.376s.083-.24.125-.351l.872-2.481c.015-.033.033-.074.052-.123a.219.219,0,0,1,.1-.11l.273-.157a.049.049,0,0,1,.07.007.159.159,0,0,1,.026.1.3.3,0,0,1-.007.063.343.343,0,0,1-.017.046Zm-.614,2.1a1.263,1.263,0,0,0,.055.389.631.631,0,0,0,.156.264.376.376,0,0,0,.246.1.608.608,0,0,0,.329-.1,1.218,1.218,0,0,0,.328-.281,1.868,1.868,0,0,0,.247-.39,2.3,2.3,0,0,0,.156-.444,1.971,1.971,0,0,0,.054-.452,1.263,1.263,0,0,0-.054-.388.641.641,0,0,0-.156-.265.375.375,0,0,0-.247-.1.6.6,0,0,0-.328.1,1.244,1.244,0,0,0-.329.282,1.9,1.9,0,0,0-.246.389,2.292,2.292,0,0,0-.156.444,2,2,0,0,0-.055.452" fill="#455a64"/>
            <path id="Trazado_722475" data-name="Trazado 722475" d="M132.856,210.082a.993.993,0,0,0,.067.2.266.266,0,0,0,.129.135.388.388,0,0,0,.227.021,1.2,1.2,0,0,0,.367-.153,1.435,1.435,0,0,0,.518-.527,1.775,1.775,0,0,0,.16-.384,1.631,1.631,0,0,0,.06-.452.96.96,0,0,0-.057-.369.316.316,0,0,0-.157-.175.367.367,0,0,0-.232-.01,1.223,1.223,0,0,0-.292.124l-.4.23a.071.071,0,0,1-.092-.006.159.159,0,0,1-.038-.118v-.265a.389.389,0,0,1,.027-.138c.017-.047.033-.089.05-.129l.862-1.929-1.379.8a.069.069,0,0,1-.091-.006.156.156,0,0,1-.039-.119v-.264a.364.364,0,0,1,.039-.162.235.235,0,0,1,.091-.112l1.887-1.09a.072.072,0,0,1,.092.006.162.162,0,0,1,.037.119v.265a.506.506,0,0,1-.023.143,1.318,1.318,0,0,1-.063.157l-.848,1.9a1.016,1.016,0,0,1,.438-.139.492.492,0,0,1,.34.106.74.74,0,0,1,.221.344,1.8,1.8,0,0,1,.079.578,2.776,2.776,0,0,1-.1.731,2.976,2.976,0,0,1-.256.649,2.659,2.659,0,0,1-.378.532,1.982,1.982,0,0,1-.463.378,1.415,1.415,0,0,1-.553.205.578.578,0,0,1-.383-.081.6.6,0,0,1-.225-.291,1.241,1.241,0,0,1-.08-.429.292.292,0,0,1,.032-.133.189.189,0,0,1,.074-.091l.22-.127c.035-.021.064-.021.084,0a.145.145,0,0,1,.041.083" fill="#455a64"/>
            <path id="Trazado_722476" data-name="Trazado 722476" d="M135.706,208.436a1.073,1.073,0,0,0,.067.2.278.278,0,0,0,.13.136.382.382,0,0,0,.227.019,1.147,1.147,0,0,0,.367-.153,1.415,1.415,0,0,0,.283-.217,1.475,1.475,0,0,0,.234-.31,1.769,1.769,0,0,0,.161-.383,1.631,1.631,0,0,0,.059-.452.954.954,0,0,0-.057-.37.319.319,0,0,0-.156-.174.354.354,0,0,0-.232-.01,1.09,1.09,0,0,0-.292.125l-.4.229a.069.069,0,0,1-.091-.007.153.153,0,0,1-.038-.117v-.266a.381.381,0,0,1,.026-.137c.018-.047.034-.09.051-.129l.862-1.928-1.38.8a.069.069,0,0,1-.091-.006.157.157,0,0,1-.038-.118V204.9a.369.369,0,0,1,.038-.162.252.252,0,0,1,.091-.112l1.887-1.089a.071.071,0,0,1,.092.006.161.161,0,0,1,.038.118v.265a.545.545,0,0,1-.023.143,1.2,1.2,0,0,1-.064.159l-.847,1.9a1,1,0,0,1,.437-.139.493.493,0,0,1,.341.106.733.733,0,0,1,.221.345,1.817,1.817,0,0,1,.079.577,2.782,2.782,0,0,1-.1.731,3,3,0,0,1-.256.649,2.563,2.563,0,0,1-.379.531,1.934,1.934,0,0,1-.462.378,1.389,1.389,0,0,1-.553.205.574.574,0,0,1-.384-.081.6.6,0,0,1-.225-.29,1.229,1.229,0,0,1-.079-.43.3.3,0,0,1,.031-.133.212.212,0,0,1,.074-.091l.221-.127a.067.067,0,0,1,.084,0,.151.151,0,0,1,.04.083" fill="#455a64"/>
            <path id="Trazado_722477" data-name="Trazado 722477" d="M129.927,222.827l28.289-16.394c.321-.185.581-.053.581.295a1.246,1.246,0,0,1-.581.965l-28.289,16.394c-.321.185-.581.053-.581-.295a1.246,1.246,0,0,1,.581-.965" fill="#e0e0e0"/>
            <path id="Trazado_722478" data-name="Trazado 722478" d="M129.927,203.916l6.339-3.679c.321-.185.582-.053.582.294a1.249,1.249,0,0,1-.582.966l-6.339,3.679c-.321.185-.581.053-.581-.295a1.246,1.246,0,0,1,.581-.965" fill="#e0e0e0"/>
            <path id="Trazado_722479" data-name="Trazado 722479" d="M129.335,242.885a.2.2,0,0,1-.14-.057.2.2,0,0,1-.005-.285l3.323-3.416,3.283-.416,3.307-2.89,3.186-.868,3.323-6.615,3.332,1.631,3.214-2.831.054-.011,3.191-.606,3.22-5.569a.2.2,0,0,1,.349.2l-3.313,5.73-3.317.629-3.333,2.937-3.216-1.574-3.224,6.419-3.315.9-3.285,2.9-3.266.414-3.223,3.315a.2.2,0,0,1-.145.061" fill="#81d4fa"/>
            <g id="Grupo_1008787" data-name="Grupo 1008787" opacity="0.3">
              <g id="Grupo_1008786" data-name="Grupo 1008786">
                <g id="Grupo_1008785" data-name="Grupo 1008785" clip-path="url(#clip-path-13)">
                  <path id="Trazado_722480" data-name="Trazado 722480" d="M129.335,242.885a.2.2,0,0,1-.14-.057.2.2,0,0,1-.005-.285l3.323-3.416,3.283-.416,3.307-2.89,3.186-.868,3.323-6.615,3.332,1.631,3.214-2.831.054-.011,3.191-.606,3.22-5.569a.2.2,0,0,1,.349.2l-3.313,5.73-3.317.629-3.333,2.937-3.216-1.574-3.224,6.419-3.315.9-3.285,2.9-3.266.414-3.223,3.315a.2.2,0,0,1-.145.061"/>
                </g>
              </g>
            </g>
            <path id="Trazado_722481" data-name="Trazado 722481" d="M131.007,234.857a.391.391,0,0,1-.038.163.253.253,0,0,1-.091.112l-.2.112a.068.068,0,0,1-.091-.005.162.162,0,0,1-.038-.119v-4.063l-.776,1.354a.182.182,0,0,1-.1.1.075.075,0,0,1-.086-.024l-.115-.163a.2.2,0,0,1-.026-.133.388.388,0,0,1,.05-.16l1.025-1.8a.366.366,0,0,1,.077-.1c.025-.018.05-.036.076-.051l.2-.114a.072.072,0,0,1,.091.007.16.16,0,0,1,.038.117Z" fill="#455a64"/>
            <path id="Trazado_722482" data-name="Trazado 722482" d="M133.1,231.134a3.051,3.051,0,0,0,.216-.53,2.1,2.1,0,0,0,.071-.58.872.872,0,0,0-.149-.568c-.1-.116-.255-.113-.469.01a1.047,1.047,0,0,0-.284.238,1.422,1.422,0,0,0-.2.316,2.1,2.1,0,0,0-.125.368c-.03.127-.055.256-.074.386a.489.489,0,0,1-.05.154.225.225,0,0,1-.074.086l-.221.128a.057.057,0,0,1-.074-.005.13.13,0,0,1-.031-.1,2.841,2.841,0,0,1,.081-.6,3.323,3.323,0,0,1,.221-.635,2.987,2.987,0,0,1,.351-.58,1.68,1.68,0,0,1,.477-.423.884.884,0,0,1,.465-.143.482.482,0,0,1,.335.146.861.861,0,0,1,.2.383,2.145,2.145,0,0,1,.07.573,4.032,4.032,0,0,1-.024.441,2.812,2.812,0,0,1-.079.411,3.622,3.622,0,0,1-.142.418q-.086.211-.211.452l-1.068,2.152,1.466-.846a.071.071,0,0,1,.091.006.161.161,0,0,1,.039.118v.266a.385.385,0,0,1-.039.162.252.252,0,0,1-.091.112l-2.065,1.191a.067.067,0,0,1-.09-.006.155.155,0,0,1-.04-.118v-.265a.461.461,0,0,1,.026-.154,1.213,1.213,0,0,1,.081-.188Z" fill="#455a64"/>
            <path id="Trazado_722483" data-name="Trazado 722483" d="M136.89,228.46c0,.218.005.426.005.62s0,.4-.005.626a4.95,4.95,0,0,1-.08.846,3.665,3.665,0,0,1-.222.772,2.669,2.669,0,0,1-.376.646,1.9,1.9,0,0,1-.544.469.931.931,0,0,1-.543.159.529.529,0,0,1-.376-.211,1.247,1.247,0,0,1-.223-.516,3.591,3.591,0,0,1-.079-.754c0-.221-.005-.427-.005-.621s0-.4.005-.626a5.052,5.052,0,0,1,.079-.847,3.634,3.634,0,0,1,.223-.773,2.675,2.675,0,0,1,.376-.648,1.851,1.851,0,0,1,.543-.474.907.907,0,0,1,.544-.154.548.548,0,0,1,.376.214,1.259,1.259,0,0,1,.222.516,3.529,3.529,0,0,1,.08.756m-1.993,2.4a1.5,1.5,0,0,0,.2.914c.129.147.319.148.567,0a1.356,1.356,0,0,0,.568-.659,3,3,0,0,0,.2-1.15q0-.335,0-.626t0-.621a1.529,1.529,0,0,0-.2-.919c-.129-.149-.318-.151-.568-.008a1.364,1.364,0,0,0-.567.664,3.005,3.005,0,0,0-.2,1.154c0,.222-.005.432-.005.626s0,.4.005.621" fill="#455a64"/>
            <path id="Trazado_722484" data-name="Trazado 722484" d="M129.927,245.487l28.289-16.394c.321-.185.581-.053.581.295a1.246,1.246,0,0,1-.581.965l-28.289,16.394c-.321.185-.581.053-.581-.295a1.246,1.246,0,0,1,.581-.965" fill="#e0e0e0"/>
            <path id="Trazado_722485" data-name="Trazado 722485" d="M129.927,226.576l6.339-3.679c.321-.185.582-.053.582.294a1.249,1.249,0,0,1-.582.966l-6.339,3.679c-.321.185-.581.053-.581-.295a1.246,1.246,0,0,1,.581-.965" fill="#e0e0e0"/>
            <path id="Trazado_722486" data-name="Trazado 722486" d="M168.618,197.5a.2.2,0,0,1-.157-.076.2.2,0,0,1,.031-.283l3.274-2.612,3.3-3.767,3.346-.484,3.193-.721,3.306-3.9,3.253.575,3.262-5.166,3.316.052,3.207-2.866a.2.2,0,1,1,.269.3l-3.325,2.971-3.246-.052-3.286,5.2-3.293-.581-3.242,3.829-3.34.753-3.215.467-3.224,3.679-3.3,2.637a.2.2,0,0,1-.126.044" fill="#81d4fa"/>
            <path id="Trazado_722487" data-name="Trazado 722487" d="M169.912,186.443a.84.84,0,0,1,.083-.073.639.639,0,0,1,.089-.062.948.948,0,0,1,.495-.15.6.6,0,0,1,.394.149.956.956,0,0,1,.258.415,2,2,0,0,1,.094.647,3.131,3.131,0,0,1-.094.753,3.52,3.52,0,0,1-.258.714,2.911,2.911,0,0,1-.394.6,1.911,1.911,0,0,1-.495.423.958.958,0,0,1-.5.149.6.6,0,0,1-.393-.149.957.957,0,0,1-.259-.415,1.992,1.992,0,0,1-.093-.647,2.707,2.707,0,0,1,.031-.416,3.507,3.507,0,0,1,.082-.393c.033-.128.07-.254.112-.376s.083-.24.125-.351l.871-2.481c.016-.033.034-.074.053-.123a.222.222,0,0,1,.1-.11l.274-.157a.049.049,0,0,1,.07.007.159.159,0,0,1,.026.1.3.3,0,0,1-.007.063.344.344,0,0,1-.017.046Zm-.614,2.1a1.264,1.264,0,0,0,.055.389.631.631,0,0,0,.156.264.376.376,0,0,0,.246.105.609.609,0,0,0,.329-.1,1.218,1.218,0,0,0,.328-.281,1.867,1.867,0,0,0,.247-.39,2.293,2.293,0,0,0,.156-.444,1.971,1.971,0,0,0,.054-.452,1.263,1.263,0,0,0-.054-.388.641.641,0,0,0-.156-.265.375.375,0,0,0-.247-.1.6.6,0,0,0-.328.1,1.244,1.244,0,0,0-.329.282,1.9,1.9,0,0,0-.246.389,2.293,2.293,0,0,0-.156.444,2,2,0,0,0-.055.452" fill="#455a64"/>
            <path id="Trazado_722488" data-name="Trazado 722488" d="M173.231,185.257a3.052,3.052,0,0,0,.216-.53,2.1,2.1,0,0,0,.072-.58.878.878,0,0,0-.149-.568c-.1-.116-.255-.113-.47.01a1.062,1.062,0,0,0-.284.238,1.418,1.418,0,0,0-.2.316,2.02,2.02,0,0,0-.126.368c-.029.127-.055.256-.074.386a.457.457,0,0,1-.049.154.235.235,0,0,1-.075.086l-.22.128a.058.058,0,0,1-.075-.005.134.134,0,0,1-.031-.1,2.908,2.908,0,0,1,.081-.6,3.467,3.467,0,0,1,.221-.635,2.942,2.942,0,0,1,.352-.58,1.663,1.663,0,0,1,.476-.423.887.887,0,0,1,.466-.143.486.486,0,0,1,.335.146.88.88,0,0,1,.2.384,2.134,2.134,0,0,1,.069.572,3.8,3.8,0,0,1-.024.441,2.808,2.808,0,0,1-.079.411,3.438,3.438,0,0,1-.142.418q-.086.211-.21.452l-1.068,2.152,1.465-.846a.072.072,0,0,1,.092.006.161.161,0,0,1,.038.118v.266a.383.383,0,0,1-.038.162.247.247,0,0,1-.092.112l-2.065,1.191a.067.067,0,0,1-.09-.006.155.155,0,0,1-.039-.118v-.265a.461.461,0,0,1,.025-.154,1.213,1.213,0,0,1,.081-.188Z" fill="#455a64"/>
            <path id="Trazado_722489" data-name="Trazado 722489" d="M176.489,180.927a.072.072,0,0,1,.091.006.162.162,0,0,1,.038.118v.266a.917.917,0,0,1-.014.148c-.01.055-.022.114-.038.177l-1.064,4.841a1.155,1.155,0,0,1-.049.151.222.222,0,0,1-.09.106l-.221.127a.061.061,0,0,1-.081,0,.145.145,0,0,1-.034-.106c0-.009,0-.022,0-.034a.387.387,0,0,1,.012-.063l1.068-4.851-1.57.908a.07.07,0,0,1-.092-.007.157.157,0,0,1-.038-.118v-.266a.375.375,0,0,1,.038-.162.246.246,0,0,1,.092-.112Z" fill="#455a64"/>
            <path id="Trazado_722490" data-name="Trazado 722490" d="M169.21,200.1,197.5,183.706c.321-.185.581-.053.581.3a1.246,1.246,0,0,1-.581.965L169.21,201.36c-.321.185-.582.053-.581-.295a1.246,1.246,0,0,1,.581-.965" fill="#e0e0e0"/>
            <path id="Trazado_722491" data-name="Trazado 722491" d="M169.21,181.189l6.339-3.679c.321-.185.582-.053.582.294a1.249,1.249,0,0,1-.582.966l-6.339,3.679c-.321.185-.582.053-.581-.295a1.246,1.246,0,0,1,.581-.965" fill="#e0e0e0"/>
            <path id="Trazado_722492" data-name="Trazado 722492" d="M168.618,220.158a.211.211,0,0,1-.1-.029.2.2,0,0,1-.067-.277l3.346-5.488,3.365.623,3.167-.866,3.275-4,3.254-.821,3.309-5.9,3.382.982,3.179-.6,3.224-2.87a.2.2,0,1,1,.268.3l-3.308,2.945-.055.011-3.329.631-3.166-.919-3.238,5.766-3.293.832-3.273,3.991-.061.017-3.318.907-.046-.008-3.136-.58-3.2,5.25a.2.2,0,0,1-.172.1" fill="#81d4fa"/>
            <g id="Grupo_1008790" data-name="Grupo 1008790" opacity="0.3">
              <g id="Grupo_1008789" data-name="Grupo 1008789">
                <g id="Grupo_1008788" data-name="Grupo 1008788" clip-path="url(#clip-path-14)">
                  <path id="Trazado_722493" data-name="Trazado 722493" d="M168.618,220.158a.211.211,0,0,1-.1-.029.2.2,0,0,1-.067-.277l3.346-5.488,3.365.623,3.167-.866,3.275-4,3.254-.821,3.309-5.9,3.382.982,3.179-.6,3.224-2.87a.2.2,0,1,1,.268.3l-3.308,2.945-.055.011-3.329.631-3.166-.919-3.238,5.766-3.293.832-3.273,3.991-.061.017-3.318.907-.046-.008-3.136-.58-3.2,5.25a.2.2,0,0,1-.172.1"/>
                </g>
              </g>
            </g>
            <path id="Trazado_722494" data-name="Trazado 722494" d="M170.132,210.651a.482.482,0,0,1-.068.05c-.029.019-.048.033-.061.04a.968.968,0,0,1-.446.142.57.57,0,0,1-.383-.114.849.849,0,0,1-.27-.389,1.915,1.915,0,0,1-.1-.686,2.987,2.987,0,0,1,.1-.748,3.494,3.494,0,0,1,.262-.7,2.916,2.916,0,0,1,.382-.586,1.773,1.773,0,0,1,.463-.4.972.972,0,0,1,.5-.156.557.557,0,0,1,.379.147.92.92,0,0,1,.239.411,2.183,2.183,0,0,1,.083.645,2.155,2.155,0,0,1-.038.394c-.025.14-.057.28-.094.421s-.08.277-.125.41-.088.258-.125.368l-.871,2.48c-.017.034-.034.075-.054.123a.211.211,0,0,1-.1.11l-.272.158c-.03.016-.052.014-.069-.008a.146.146,0,0,1-.026-.1.24.24,0,0,1,0-.063c.005-.018.012-.033.017-.047Zm.619-2.083a1.29,1.29,0,0,0-.056-.4.569.569,0,0,0-.154-.254.347.347,0,0,0-.237-.088.61.61,0,0,0-.3.093,1.169,1.169,0,0,0-.3.257,1.626,1.626,0,0,0-.235.361,2.088,2.088,0,0,0-.209.89,1.241,1.241,0,0,0,.056.4.552.552,0,0,0,.153.252.345.345,0,0,0,.235.089.592.592,0,0,0,.3-.094,1.15,1.15,0,0,0,.3-.256,1.6,1.6,0,0,0,.237-.362,2.085,2.085,0,0,0,.154-.427,2.011,2.011,0,0,0,.056-.464" fill="#455a64"/>
            <path id="Trazado_722495" data-name="Trazado 722495" d="M171.995,210.1a1.073,1.073,0,0,0,.067.2.27.27,0,0,0,.129.135.383.383,0,0,0,.228.02,1.165,1.165,0,0,0,.367-.153,1.423,1.423,0,0,0,.517-.527,1.774,1.774,0,0,0,.16-.384,1.582,1.582,0,0,0,.06-.451.957.957,0,0,0-.057-.369.32.32,0,0,0-.156-.176.364.364,0,0,0-.233-.009,1.127,1.127,0,0,0-.291.124l-.4.23a.069.069,0,0,1-.091-.007.155.155,0,0,1-.039-.118v-.265a.388.388,0,0,1,.027-.138c.018-.047.033-.089.05-.129l.863-1.928-1.38.8a.069.069,0,0,1-.091-.007.155.155,0,0,1-.039-.118v-.265a.371.371,0,0,1,.039-.162.252.252,0,0,1,.091-.112l1.887-1.09a.073.073,0,0,1,.092.006.165.165,0,0,1,.037.119v.266a.505.505,0,0,1-.023.142,1.33,1.33,0,0,1-.063.158l-.848,1.9a1,1,0,0,1,.438-.138.489.489,0,0,1,.34.105.747.747,0,0,1,.222.345,1.827,1.827,0,0,1,.078.578,2.775,2.775,0,0,1-.1.73,2.955,2.955,0,0,1-.256.65,2.653,2.653,0,0,1-.378.531,1.929,1.929,0,0,1-.462.378,1.4,1.4,0,0,1-.554.205.578.578,0,0,1-.383-.081.6.6,0,0,1-.225-.29,1.229,1.229,0,0,1-.079-.43.3.3,0,0,1,.031-.133.2.2,0,0,1,.074-.091l.221-.127c.035-.02.063-.02.083,0a.148.148,0,0,1,.041.083" fill="#455a64"/>
            <path id="Trazado_722496" data-name="Trazado 722496" d="M169.21,222.76,197.5,206.366c.321-.185.581-.053.581.295a1.246,1.246,0,0,1-.581.965L169.21,224.02c-.321.185-.582.053-.581-.295a1.246,1.246,0,0,1,.581-.965" fill="#e0e0e0"/>
            <path id="Trazado_722497" data-name="Trazado 722497" d="M169.21,203.85l6.339-3.679c.321-.185.582-.053.582.294a1.249,1.249,0,0,1-.582.966l-6.339,3.679c-.321.185-.582.053-.581-.295a1.246,1.246,0,0,1,.581-.965" fill="#e0e0e0"/>
            <path id="Trazado_722498" data-name="Trazado 722498" d="M211.175,160.711a3.694,3.694,0,0,1,3.731-.278l-3.731,10.061Z" fill="#81d4fa"/>
            <path id="Trazado_722499" data-name="Trazado 722499" d="M207.443,164.742a11.093,11.093,0,0,1,3.731-4.031v9.784Z" fill="#81d4fa"/>
            <path id="Trazado_722500" data-name="Trazado 722500" d="M205.133,170.96a19.58,19.58,0,0,1,2.311-6.218l3.731,5.753Z" fill="#81d4fa"/>
            <g id="Grupo_1008793" data-name="Grupo 1008793" opacity="0.3">
              <g id="Grupo_1008792" data-name="Grupo 1008792">
                <g id="Grupo_1008791" data-name="Grupo 1008791" clip-path="url(#clip-path-15)">
                  <path id="Trazado_722501" data-name="Trazado 722501" d="M207.443,164.742a19.625,19.625,0,0,0-2.311,6.219l6.042-.466v-9.784a11.1,11.1,0,0,0-3.731,4.031"/>
                </g>
              </g>
            </g>
            <path id="Trazado_722502" data-name="Trazado 722502" d="M214.906,160.433a5.239,5.239,0,0,1,2.311,3.551l-6.042,6.51Z" fill="#81d4fa"/>
            <path id="Trazado_722503" data-name="Trazado 722503" d="M205.133,177.005a12.182,12.182,0,0,1-.313-2.842,17.4,17.4,0,0,1,.313-3.2l6.042-.465Z" fill="#81d4fa"/>
            <path id="Trazado_722504" data-name="Trazado 722504" d="M217.217,170.029a19.577,19.577,0,0,1-2.311,6.219l-3.731-5.753Z" fill="#81d4fa"/>
            <path id="Trazado_722505" data-name="Trazado 722505" d="M211.175,180.278a3.694,3.694,0,0,1-3.731.278l3.731-10.061Z" fill="#81d4fa"/>
            <path id="Trazado_722506" data-name="Trazado 722506" d="M205.133,177.005l6.042-6.51-3.731,10.062a5.237,5.237,0,0,1-2.311-3.552" fill="#81d4fa"/>
            <path id="Trazado_722507" data-name="Trazado 722507" d="M217.217,163.984a12.188,12.188,0,0,1,.313,2.842,17.4,17.4,0,0,1-.313,3.2l-6.042.466Z" fill="#81d4fa"/>
            <path id="Trazado_722508" data-name="Trazado 722508" d="M214.906,176.247a11.089,11.089,0,0,1-3.731,4.032v-9.784Z" fill="#81d4fa"/>
            <path id="Trazado_722509" data-name="Trazado 722509" d="M208.005,185.268l6.339-3.679c.321-.185.582-.053.582.294a1.249,1.249,0,0,1-.582.966l-6.339,3.679c-.321.185-.582.053-.581-.295a1.246,1.246,0,0,1,.581-.965" fill="#455a64"/>
            <path id="Trazado_722510" data-name="Trazado 722510" d="M206.607,189.867l9.135-5.3c.321-.185.582-.054.582.294a1.246,1.246,0,0,1-.582.965l-9.135,5.3c-.321.185-.581.053-.581-.295a1.246,1.246,0,0,1,.581-.965" fill="#e0e0e0"/>
            <path id="Trazado_722511" data-name="Trazado 722511" d="M206.607,193.655l9.135-5.3c.321-.185.582-.054.582.294a1.246,1.246,0,0,1-.582.965l-9.135,5.3c-.321.185-.581.053-.581-.295a1.246,1.246,0,0,1,.581-.965" fill="#e0e0e0"/>
            <path id="Trazado_722512" data-name="Trazado 722512" d="M206.607,197.444l9.135-5.3c.321-.185.582-.054.582.294a1.246,1.246,0,0,1-.582.965l-9.135,5.3c-.321.185-.581.053-.581-.295a1.246,1.246,0,0,1,.581-.965" fill="#e0e0e0"/>
            <path id="Trazado_722513" data-name="Trazado 722513" d="M234.09,147.432a3.694,3.694,0,0,1,3.731-.278l-3.731,10.061Z" fill="#81d4fa"/>
            <path id="Trazado_722514" data-name="Trazado 722514" d="M230.359,151.462a11.09,11.09,0,0,1,3.731-4.03v9.783Z" fill="#81d4fa"/>
            <path id="Trazado_722515" data-name="Trazado 722515" d="M228.048,157.681a19.577,19.577,0,0,1,2.311-6.219l3.731,5.753Z" fill="#81d4fa"/>
            <path id="Trazado_722516" data-name="Trazado 722516" d="M237.821,147.154a5.239,5.239,0,0,1,2.311,3.551l-6.042,6.51Z" fill="#81d4fa"/>
            <path id="Trazado_722517" data-name="Trazado 722517" d="M228.048,163.726a12.181,12.181,0,0,1-.313-2.842,17.4,17.4,0,0,1,.313-3.2l6.042-.466Z" fill="#81d4fa"/>
            <path id="Trazado_722518" data-name="Trazado 722518" d="M240.132,156.749a19.574,19.574,0,0,1-2.311,6.22l-3.731-5.754Z" fill="#81d4fa"/>
            <path id="Trazado_722519" data-name="Trazado 722519" d="M234.09,167a3.694,3.694,0,0,1-3.731.278l3.731-10.061Z" fill="#81d4fa"/>
            <path id="Trazado_722520" data-name="Trazado 722520" d="M228.048,163.726l6.042-6.511-3.731,10.062a5.232,5.232,0,0,1-2.311-3.551" fill="#81d4fa"/>
            <g id="Grupo_1008796" data-name="Grupo 1008796" opacity="0.3">
              <g id="Grupo_1008795" data-name="Grupo 1008795">
                <g id="Grupo_1008794" data-name="Grupo 1008794" clip-path="url(#clip-path-16)">
                  <path id="Trazado_722521" data-name="Trazado 722521" d="M230.359,151.462a19.63,19.63,0,0,0-2.311,6.22,17.385,17.385,0,0,0-.312,3.2,12.209,12.209,0,0,0,.312,2.842,5.239,5.239,0,0,0,2.311,3.55l3.731-10.062v-9.783a11.09,11.09,0,0,0-3.731,4.03"/>
                </g>
              </g>
            </g>
            <path id="Trazado_722522" data-name="Trazado 722522" d="M240.132,150.7a12.2,12.2,0,0,1,.313,2.843,17.4,17.4,0,0,1-.313,3.2l-6.042.465Z" fill="#81d4fa"/>
            <path id="Trazado_722523" data-name="Trazado 722523" d="M237.821,162.968A11.093,11.093,0,0,1,234.09,167v-9.784Z" fill="#81d4fa"/>
            <path id="Trazado_722524" data-name="Trazado 722524" d="M230.921,172.037l6.338-3.678c.321-.186.582-.054.582.293a1.248,1.248,0,0,1-.582.966l-6.338,3.68c-.322.184-.582.052-.582-.295a1.248,1.248,0,0,1,.582-.966" fill="#455a64"/>
            <path id="Trazado_722525" data-name="Trazado 722525" d="M229.523,176.636l9.135-5.3c.321-.185.582-.054.582.294a1.246,1.246,0,0,1-.582.965l-9.135,5.3c-.322.185-.582.053-.582-.295a1.245,1.245,0,0,1,.582-.965" fill="#e0e0e0"/>
            <path id="Trazado_722526" data-name="Trazado 722526" d="M229.523,180.425l9.135-5.3c.321-.185.582-.054.582.294a1.246,1.246,0,0,1-.582.965l-9.135,5.3c-.322.185-.582.053-.582-.295a1.245,1.245,0,0,1,.582-.965" fill="#e0e0e0"/>
            <path id="Trazado_722527" data-name="Trazado 722527" d="M229.523,184.214l9.135-5.3c.321-.185.582-.054.582.294a1.246,1.246,0,0,1-.582.965l-9.135,5.3c-.322.185-.582.053-.582-.295a1.245,1.245,0,0,1,.582-.965" fill="#e0e0e0"/>
            <path id="Trazado_722528" data-name="Trazado 722528" d="M265.4,265.718a10.761,10.761,0,0,0-4.582-8.589,3.435,3.435,0,0,0-3.4-.47v0c-5.391,2.706-43.282,27-45.705,28.2l-.031.016a1.727,1.727,0,0,0-.768,1.562,5.419,5.419,0,0,0,2.309,4.329,1.72,1.72,0,0,0,1.73.226l.034-.018c3.838-2.113,41.232-18.049,48.877-22.149h0l0,0h0a3.425,3.425,0,0,0,1.525-3.1" fill="#81d4fa"/>
            <g id="Grupo_1008799" data-name="Grupo 1008799" opacity="0.1">
              <g id="Grupo_1008798" data-name="Grupo 1008798">
                <g id="Grupo_1008797" data-name="Grupo 1008797" clip-path="url(#clip-path-17)">
                  <path id="Trazado_722529" data-name="Trazado 722529" d="M263.908,260.479a9.717,9.717,0,0,0-3.092-3.35,3.441,3.441,0,0,0-3.385-.474c-.18.1-.236.131-.11.059-4.923,2.518-33.122,20.508-42.611,26.355l-.062.038-.384.236-.117.072-.216.132-.254.156-.019.011c-1,.612-1.681,1.012-1.943,1.141l-.031.016a1.22,1.22,0,0,0-.223.172,1.9,1.9,0,0,0-.545,1.391,3.84,3.84,0,0,0,.026.542c.008.07.022.14.033.21q.027.166.066.333c.021.088.044.176.07.265.03.1.066.207.1.311.028.077.053.155.084.231,0,.013.012.025.017.037Z"/>
                </g>
              </g>
            </g>
            <path id="Trazado_722530" data-name="Trazado 722530" d="M213.214,290.762a5.4,5.4,0,0,1-2.3-4.31c.053-1.558,1.167-2.153,2.489-1.33a5.4,5.4,0,0,1,2.3,4.311c-.053,1.557-1.167,2.152-2.489,1.329" fill="#81d4fa"/>
            <path id="Trazado_722531" data-name="Trazado 722531" d="M201.891,291.8a4.149,4.149,0,0,0,1.767,3.312,1.321,1.321,0,0,0,1.316.178h0l0,0h0l9.164-4.879.007,0h0a1.32,1.32,0,0,0,.586-1.193,4.149,4.149,0,0,0-1.767-3.312,1.319,1.319,0,0,0-1.322-.175l-9.164,4.877h0a1.317,1.317,0,0,0-.595,1.2" fill="#37474f"/>
            <path id="Trazado_722532" data-name="Trazado 722532" d="M202.487,290.607a1.314,1.314,0,0,0-.6,1.2,3.552,3.552,0,0,0,.276,1.413l11.819-6.3a3.551,3.551,0,0,0-1.014-1.009,1.324,1.324,0,0,0-1.323-.176l-9.163,4.878Z" fill="#263238"/>
            <path id="Trazado_722533" data-name="Trazado 722533" d="M213.648,299.94c0-5.873-3.881-11.746-11.642-16.227-15.523-8.962-40.691-8.962-56.214,0-7.762,4.481-11.642,10.354-11.642,16.227v10.819c0,5.873,3.88,11.746,11.642,16.227,15.523,8.962,40.691,8.962,56.214,0,7.761-4.481,11.642-10.354,11.642-16.227Zm-65.934-12.9c6.932-4,16.232-6.207,26.185-6.207s19.253,2.2,26.185,6.207c6.268,3.619,9.72,8.2,9.72,12.9s-3.452,9.279-9.72,12.9c-6.932,4-16.232,6.207-26.185,6.207s-19.252-2.2-26.185-6.207c-6.268-3.619-9.72-8.2-9.72-12.9s3.452-9.28,9.72-12.9" fill="#81d4fa"/>
            <g id="Grupo_1008802" data-name="Grupo 1008802" opacity="0.3">
              <g id="Grupo_1008801" data-name="Grupo 1008801">
                <g id="Grupo_1008800" data-name="Grupo 1008800" clip-path="url(#clip-path-18)">
                  <path id="Trazado_722534" data-name="Trazado 722534" d="M145.79,316.168c15.523,8.962,40.69,8.962,56.214,0s15.523-23.493,0-32.455-40.691-8.962-56.214,0-15.523,23.493,0,32.455m-7.8-16.227c0-4.7,3.451-9.28,9.72-12.9,6.932-4,16.231-6.207,26.185-6.207s19.253,2.205,26.185,6.207c6.268,3.619,9.72,8.2,9.72,12.9s-3.453,9.279-9.72,12.9c-6.933,4-16.233,6.207-26.185,6.207s-19.253-2.2-26.185-6.207c-6.268-3.619-9.72-8.2-9.72-12.9" fill="#fff"/>
                </g>
              </g>
            </g>
            <path id="Trazado_722535" data-name="Trazado 722535" d="M137.989,299.94a10.656,10.656,0,0,0,1.553,5.412,21.666,21.666,0,0,1,8.172-7.488c6.928-4.005,16.23-6.212,26.186-6.212s19.252,2.207,26.179,6.212a21.757,21.757,0,0,1,8.18,7.488,10.724,10.724,0,0,0,1.545-5.412c0-4.7-3.452-9.28-9.725-12.9-6.927-4-16.23-6.2-26.179-6.2s-19.258,2.206-26.186,6.2c-6.273,3.621-9.725,8.2-9.725,12.9" fill="#81d4fa"/>
            <g id="Grupo_1008805" data-name="Grupo 1008805" opacity="0.1">
              <g id="Grupo_1008804" data-name="Grupo 1008804">
                <g id="Grupo_1008803" data-name="Grupo 1008803" clip-path="url(#clip-path-19)">
                  <path id="Trazado_722536" data-name="Trazado 722536" d="M137.989,299.94a10.656,10.656,0,0,0,1.553,5.412,21.666,21.666,0,0,1,8.172-7.488c6.928-4.005,16.23-6.212,26.186-6.212s19.252,2.207,26.179,6.212a21.757,21.757,0,0,1,8.18,7.488,10.724,10.724,0,0,0,1.545-5.412c0-4.7-3.452-9.28-9.725-12.9-6.927-4-16.23-6.2-26.179-6.2s-19.258,2.206-26.186,6.2c-6.273,3.621-9.725,8.2-9.725,12.9"/>
                </g>
              </g>
            </g>
            <g id="Grupo_1008808" data-name="Grupo 1008808" opacity="0.4">
              <g id="Grupo_1008807" data-name="Grupo 1008807">
                <g id="Grupo_1008806" data-name="Grupo 1008806" clip-path="url(#clip-path-20)">
                  <path id="Trazado_722537" data-name="Trazado 722537" d="M147.712,291.94c6.932-4,16.232-6.207,26.185-6.207s19.253,2.2,26.185,6.207c5.172,2.986,8.42,6.627,9.4,10.449-.98,3.822-4.228,7.463-9.4,10.449-6.933,4-16.233,6.207-26.185,6.207s-19.253-2.2-26.185-6.207c-5.172-2.986-8.42-6.627-9.4-10.449.98-3.822,4.228-7.463,9.4-10.449" fill="#fff"/>
                </g>
              </g>
            </g>
            <g id="Grupo_1008811" data-name="Grupo 1008811" opacity="0.1">
              <g id="Grupo_1008810" data-name="Grupo 1008810">
                <g id="Grupo_1008809" data-name="Grupo 1008809" clip-path="url(#clip-path-21)">
                  <path id="Trazado_722538" data-name="Trazado 722538" d="M164.531,322.251v10.81a52.056,52.056,0,0,1-18.736-6.074c-7.765-4.482-11.648-10.356-11.648-16.23V299.94a13.666,13.666,0,0,1,.477-3.544h.007c-1.883,6.988,1.838,14.384,11.164,19.774a52.2,52.2,0,0,0,18.736,6.081"/>
                </g>
              </g>
            </g>
            <path id="Trazado_722539" data-name="Trazado 722539" d="M350.761,254.583c.47.19.57,1.1.6,2.9.024,1.361.262,3.741-1.341,4.179s-3.931.144-4.923-1.161c-1.238-1.628-2.067-3.056-3.841-5.048-1.539-1.729-3.21-3.348-3.793-5.737-.527-2.158-.027-3.078,1.451-3.669,2.032-.813,5.132,2.062,6.7,2.538,1.35.411,4.677,5.813,5.147,6" fill="#263238"/>
            <path id="Trazado_722540" data-name="Trazado 722540" d="M350.8,252.919l-.05,2.206a5.4,5.4,0,0,1-5.578.025c-.092-.213-.508-3.169-.508-3.169Z" fill="#ffa8a7"/>
            <path id="Trazado_722541" data-name="Trazado 722541" d="M332.608,266.895a37.242,37.242,0,0,1,.893,3.619c.241,1.339.58,3.578.09,4.57s-2.326,1.6-5.151,1.514c-1.829-.055-4.708,1.123-6.684,2.169-2.042,1.079-6.245,1.433-8.372,1.134-2.507-.351-5.077-1.867-5.46-2.917s.181-2.119,6.161-4.509c.054-.022,8.293-2.5,11.231-5.6Z" fill="#263238"/>
            <path id="Trazado_722542" data-name="Trazado 722542" d="M332.661,264.51s-.045,1.637-.058,2.573-1.149,2.3-4.007,2.139c-2.008-.118-3.4-.689-3.281-2.342l.053-2.385Z" fill="#ffa8a7"/>
            <path id="Trazado_722543" data-name="Trazado 722543" d="M352.893,223.674a60.017,60.017,0,0,0-2.346-11.549s1.01-9.9,1.6-19.287c.637-10.143,1.227-15.366-.767-30.016,0,0-31.1-2.794-31.948,8.93s.356,41.64.627,46.805,1.059,9.744,1.936,18.125c.866,8.271,3.374,27.813,3.374,27.813a7.737,7.737,0,0,0,7.293.015s2.834-23.414,2.726-29.369a50.829,50.829,0,0,0-1.964-13.036s.84-9.663,1.578-18.068,1.41-12.435,1.619-16.094l.713-.334s.392,14.538.663,19.7.98,10.126,2.256,19.737c1.106,8.336,4.564,26,4.564,26,3.7,2.108,5.982-.13,5.982-.13s2.942-22.015,2.094-29.246" fill="#37474f"/>
            <path id="Trazado_722544" data-name="Trazado 722544" d="M336.621,187.943s8.035-3.737,12.093-7.18c0,0-3.811,5.121-8.711,7.319,0,0-2.13,18-2.113,17.643l-.6-17.794Z" fill="#263238"/>
            <path id="Trazado_722545" data-name="Trazado 722545" d="M331.051,121.035l1.211,10.738,10.141-.511-1.127-12.532Z" fill="#ffa8a7"/>
            <path id="Trazado_722546" data-name="Trazado 722546" d="M346.227,125.146c3.775-.174,5.692.392,7.388,3.649s2.36,12.986,2.95,18,.737,8.556-1.328,9.072-10.1.738-10.1.738Z" fill="#37474f"/>
            <path id="Trazado_722547" data-name="Trazado 722547" d="M352.6,130.711c-.547-3-4.5-6.163-8.2-5.562q-1.289.21-2.51.425c-.444,1.806-5.394,2.936-10.123,1.823-1.426.374-6.118,1.253-7.305,1.647-3.4,1.128-4.8,4.473-5.331,15.558,0,0,.272,25.1.14,30.1a40.885,40.885,0,0,0,22.091,2.683c10.183-1.986,11.5-6.161,11.5-6.161l-1.516-11.484s2.489-22.233,1.252-29.03" fill="#455a64"/>
            <path id="Trazado_722548" data-name="Trazado 722548" d="M331.45,124.576l.076.676a15.064,15.064,0,0,0,6.227,0c3.294-.733,3.959-1.664,3.959-1.664l-.068-.766s.82-.3,1.251.958a13.649,13.649,0,0,1,.476,1.54s.38,2.307-3.494,3.482a11.974,11.974,0,0,1-9.645-1.054l-1.519.321s1.314-3.028,1.711-3.642a1.011,1.011,0,0,1,.95-.527Z" fill="#37474f"/>
            <path id="Trazado_722549" data-name="Trazado 722549" d="M300.494,113.062l-20.107,10.493,9.991,27.319,18.765-10.512Z" fill="#455a64"/>
            <path id="Trazado_722550" data-name="Trazado 722550" d="M299.571,115.736l-16.869,8.8,8.842,23.487,15.743-8.819Z" fill="#f5f5f5"/>
            <g id="Grupo_1008814" data-name="Grupo 1008814" opacity="0.15">
              <g id="Grupo_1008813" data-name="Grupo 1008813">
                <g id="Grupo_1008812" data-name="Grupo 1008812" clip-path="url(#clip-path-22)">
                  <path id="Trazado_722551" data-name="Trazado 722551" d="M296.012,118.27l-.327-.836c-.18-.461-1.584-.186-3.136.615l-2.97,1.534c-1.552.8-2.663,1.824-2.483,2.286l.327.835Z"/>
                </g>
              </g>
            </g>
            <path id="Trazado_722552" data-name="Trazado 722552" d="M295.686,114.927c-.111-.288-.723-.241-1.365.1l-1.163.628s-.716-1.8-3.392-.555-2.064,3.34-2.064,3.34l-1.235.681c-.682.376-1.167.918-1.084,1.211l.15.531,10.358-5.4s-.094-.248-.2-.537" fill="#81d4fa"/>
            <path id="Trazado_722553" data-name="Trazado 722553" d="M294.567,116.14c-.964.474-1.343.7-1.065,1.414.316.812.611,1.395.611,1.395l-4.581,2.4s-.382-1.033-.549-1.432-.5-.589-1.231-.208l-.272-.287,7.226-3.683Z" fill="#81d4fa"/>
            <g id="Grupo_1008817" data-name="Grupo 1008817" opacity="0.3">
              <g id="Grupo_1008816" data-name="Grupo 1008816">
                <g id="Grupo_1008815" data-name="Grupo 1008815" clip-path="url(#clip-path-23)">
                  <path id="Trazado_722554" data-name="Trazado 722554" d="M294.567,116.14c-.964.474-1.343.7-1.065,1.414.316.812.611,1.395.611,1.395l-4.581,2.4s-.382-1.033-.549-1.432-.5-.589-1.231-.208l-.272-.287,7.226-3.683Z"/>
                </g>
              </g>
            </g>
            <path id="Trazado_722555" data-name="Trazado 722555" d="M296.208,118.314l-.327-.836c-.18-.461-1.584-.186-3.135.615l-2.971,1.534c-1.552.8-2.663,1.824-2.483,2.286l.327.835Z" fill="#81d4fa"/>
            <path id="Trazado_722556" data-name="Trazado 722556" d="M324.464,129.043c-4.642.4-6.619,1.249-10.1,7.533-3.782,6.82-11.052,19.163-11.974,20.722-1.283,2.168-1.525,5.465-.418,7.457,1.034,1.86,4.314,2.71,8.034-1.491,4.422-5,12.651-17.2,12.651-17.2s6.99-9.223,1.811-17.024" fill="#ffa8a7"/>
            <path id="Trazado_722557" data-name="Trazado 722557" d="M303.891,166.185c-3.558-.431-11.869-11.707-14.233-15.39a26.27,26.27,0,0,0-7.2-7.6c-3.766-2.782-3.218-7.057-1.575-10.976.57-1.357,2.5-.474,2.5-.474l.68,1.859,1.178,3.22c.8.741,1.252.982,1.305.761.1-.415-.586-2.147-.569-3.951.02-2.172,1.54-.745,1.995.016a27.108,27.108,0,0,1,1.6,3.588c.759,1.943.446,3.91,1.369,5.235s13.323,13.2,13.323,13.2Z" fill="#ffa8a7"/>
            <path id="Trazado_722558" data-name="Trazado 722558" d="M325.358,128.8c-2.812-.07-6.193.379-8.81,3.78s-13.094,21.9-13.094,21.9l-5.88-5.27a10.243,10.243,0,0,0-4.521,6.39,63.626,63.626,0,0,0,5.324,7.225c2.485,2.728,5.257,4.619,7.529,3.781s4.593-2.639,9.487-9.45S325.626,142.3,325.626,142.3s3.372-7.855-.268-13.5" fill="#37474f"/>
            <path id="Trazado_722559" data-name="Trazado 722559" d="M323.907,107.889s-2.532,3.842-2.243,4.219,2.151.718,2.151.718Z" fill="#f28f8f"/>
            <path id="Trazado_722560" data-name="Trazado 722560" d="M325.092,110.358a3.017,3.017,0,1,1,3.016-3.017,3.021,3.021,0,0,1-3.016,3.017m0-5.363a2.346,2.346,0,1,0,2.346,2.346A2.348,2.348,0,0,0,325.092,105" fill="#263238"/>
            <path id="Trazado_722561" data-name="Trazado 722561" d="M330.937,97.262c-5.123,1.081-6.6,3.333-7.085,11.471-.505,8.5.364,11.178,1.481,12.323.754.773,4.945.912,7.059.33,2.647-.73,8.626-2.849,11.427-7.127,3.3-5.033,4.16-11.854.633-14.652-4.964-3.938-11.43-2.785-13.515-2.345" fill="#ffa8a7"/>
            <path id="Trazado_722562" data-name="Trazado 722562" d="M331.117,121.624l-.238-1.567a10.133,10.133,0,0,1-5.253,1.191,12.689,12.689,0,0,0,5.491.376" fill="#f28f8f"/>
            <path id="Trazado_722563" data-name="Trazado 722563" d="M322.358,106.711l9.109,1.179-.367.64-8.742-1.135Z" fill="#263238"/>
            <path id="Trazado_722564" data-name="Trazado 722564" d="M322.978,100.547a2.842,2.842,0,0,0,1.157-.07,1.824,1.824,0,0,0,.624,2.136,2.582,2.582,0,0,0,2.3.305,2.217,2.217,0,0,0-.252,1.583,2.568,2.568,0,0,0,2.654,1.915c.054,1.191.069,2.355,1.34,2.9,0,0,.81-3.143,3.459-2.748,2.667.4,3.027,3.8,1.347,5.862s-3.228,1.284-3.247,1.274c.155.078.208,1.08.263,1.269a9.156,9.156,0,0,0,.681,1.719,8.211,8.211,0,0,0,2.4,2.81,5.9,5.9,0,0,0,4.807,1.339,5.175,5.175,0,0,0,3.5-2.819A3.032,3.032,0,0,1,344.58,117a3.346,3.346,0,0,1,1.306-.565,3.837,3.837,0,0,0,2.168-5.413,3.516,3.516,0,0,0,1.347-6.141,4.219,4.219,0,0,0,1.813-4.578,4.286,4.286,0,0,0-3.028-2.9c-1.035-.3-.637-.462-.957-1.475a3.714,3.714,0,0,0-4.718-2.434,3.581,3.581,0,0,0-2.559-2.752,3.521,3.521,0,0,0-1.808-.07c-.425.11-1.3.505-1.459.911-.538-.53-.714-1.229-1.372-1.711a3.882,3.882,0,0,0-5.72,1.223,4.77,4.77,0,0,0-3.578-1.505,3.915,3.915,0,0,0-3.262,1.992,3.322,3.322,0,0,0,.44,3.725,3.815,3.815,0,0,0-1.979,1.713,2.4,2.4,0,0,0,.279,2.674,2.071,2.071,0,0,0,1,.744,2.99,2.99,0,0,0,.485.112" fill="#263238"/>
            <path id="Trazado_722565" data-name="Trazado 722565" d="M330.744,111.106l.094-3.558a1.78,1.78,0,0,0-.094,3.558" fill="#263238"/>
          </g>
        </g>
      </g>
    </g>
  </g>
</svg>
