<svg xmlns="http://www.w3.org/2000/svg" xmlns:xlink="http://www.w3.org/1999/xlink" width="447" height="445" viewBox="0 0 447 445">
  <defs>
    <radialGradient id="radial-gradient" cx="0.5" cy="0.5" r="0.5" gradientUnits="objectBoundingBox">
      <stop offset="0" stop-color="#fff"/>
      <stop offset="1" stop-color="#81d4fa"/>
    </radialGradient>
    <filter id="Trazado_724777" x="52" y="53" width="343" height="344" filterUnits="userSpaceOnUse">
      <feOffset dy="3" input="SourceAlpha"/>
      <feGaussianBlur stdDeviation="3" result="blur"/>
      <feFlood flood-opacity="0.161"/>
      <feComposite operator="in" in2="blur"/>
      <feComposite in="SourceGraphic"/>
    </filter>
    <filter id="Trazado_724769" x="143" y="0" width="161" height="162" filterUnits="userSpaceOnUse">
      <feOffset dy="3" input="SourceAlpha"/>
      <feGaussianBlur stdDeviation="3" result="blur-2"/>
      <feFlood flood-opacity="0.161"/>
      <feComposite operator="in" in2="blur-2"/>
      <feComposite in="SourceGraphic"/>
    </filter>
    <filter id="Trazado_724770" x="143" y="283" width="161" height="162" filterUnits="userSpaceOnUse">
      <feOffset dy="3" input="SourceAlpha"/>
      <feGaussianBlur stdDeviation="3" result="blur-3"/>
      <feFlood flood-opacity="0.161"/>
      <feComposite operator="in" in2="blur-3"/>
      <feComposite in="SourceGraphic"/>
    </filter>
    <filter id="Trazado_724773" x="0" y="144" width="161" height="162" filterUnits="userSpaceOnUse">
      <feOffset dy="3" input="SourceAlpha"/>
      <feGaussianBlur stdDeviation="3" result="blur-4"/>
      <feFlood flood-opacity="0.161"/>
      <feComposite operator="in" in2="blur-4"/>
      <feComposite in="SourceGraphic"/>
    </filter>
    <filter id="Trazado_724775" x="286" y="144" width="161" height="162" filterUnits="userSpaceOnUse">
      <feOffset dy="3" input="SourceAlpha"/>
      <feGaussianBlur stdDeviation="3" result="blur-5"/>
      <feFlood flood-opacity="0.161"/>
      <feComposite operator="in" in2="blur-5"/>
      <feComposite in="SourceGraphic"/>
    </filter>
  </defs>
  <g id="Grupo_1009264" data-name="Grupo 1009264" transform="translate(-577 -6967)">
    <g transform="matrix(1, 0, 0, 1, 577, 6967)" filter="url(#Trazado_724777)">
      <g id="Trazado_724777-2" data-name="Trazado 724777" transform="translate(61 59)" fill="url(#radial-gradient)">
        <path d="M 162.5 324.5 C 151.5756683349609 324.5 140.6586608886719 323.3961181640625 130.0522155761719 321.2190551757812 C 119.7160034179688 319.0974731445312 109.548957824707 315.9317016601562 99.83354187011719 311.8097839355469 C 90.29404449462891 307.7625122070312 81.09308624267578 302.7529907226562 72.4862060546875 296.92041015625 C 63.96062469482422 291.1429138183594 55.94345855712891 284.5078430175781 48.6574592590332 277.1993713378906 C 41.37133407592773 269.890869140625 34.7564582824707 261.8489074707031 28.99658393859863 253.2969207763672 C 23.18162536621094 244.6631622314453 18.18729209899902 235.4334564208984 14.15220832824707 225.8641662597656 C 10.04262542724609 216.1181640625 6.886416435241699 205.9191284179688 4.771166801452637 195.5503692626953 C 2.60058331489563 184.9103698730469 1.5 173.9588317871094 1.5 163 C 1.5 152.0411682128906 2.60058331489563 141.0896301269531 4.771166801452637 130.4496307373047 C 6.886416435241699 120.0808715820312 10.04262542724609 109.8818359375 14.15220832824707 100.1358337402344 C 18.18729209899902 90.56654357910156 23.18162536621094 81.33683013916016 28.99658393859863 72.70308685302734 C 34.7564582824707 64.15108489990234 41.37133407592773 56.10912322998047 48.6574592590332 48.80062484741211 C 55.94345855712891 41.49216842651367 63.96062469482422 34.85708236694336 72.4862060546875 29.0795841217041 C 81.09308624267578 23.24699974060059 90.29404449462891 18.23749923706055 99.83354187011719 14.19020843505859 C 109.548957824707 10.06829166412354 119.7160034179688 6.902541637420654 130.0522155761719 4.78095817565918 C 140.6586608886719 2.603874921798706 151.5756683349609 1.5 162.5 1.5 C 173.4243316650391 1.5 184.3413391113281 2.603874921798706 194.9478302001953 4.78095817565918 C 205.2839965820312 6.902541637420654 215.4510345458984 10.06829166412354 225.16650390625 14.19020843505859 C 234.7059631347656 18.23749923706055 243.9069519042969 23.24699974060059 252.5138397216797 29.0795841217041 C 261.0394287109375 34.85708236694336 269.0565490722656 41.49216842651367 276.3425903320312 48.80062484741211 C 283.628662109375 56.10912322998047 290.2435302734375 64.15108489990234 296.00341796875 72.70308685302734 C 301.8183898925781 81.33683013916016 306.812744140625 90.56654357910156 310.8477783203125 100.1358337402344 C 314.9573669433594 109.8818359375 318.1135864257812 120.0808715820312 320.2288208007812 130.4496307373047 C 322.3994140625 141.0896301269531 323.5 152.0411682128906 323.5 163 C 323.5 173.9588317871094 322.3994140625 184.9103698730469 320.2288208007812 195.5503692626953 C 318.1135864257812 205.9191284179688 314.9573669433594 216.1181640625 310.8477783203125 225.8641662597656 C 306.812744140625 235.4334564208984 301.8183898925781 244.6631622314453 296.00341796875 253.2969207763672 C 290.2435302734375 261.8489074707031 283.628662109375 269.890869140625 276.3425903320312 277.1993713378906 C 269.0565490722656 284.5078430175781 261.0394287109375 291.1429138183594 252.5138397216797 296.92041015625 C 243.9069519042969 302.7529907226562 234.7059631347656 307.7625122070312 225.16650390625 311.8097839355469 C 215.4510345458984 315.9317016601562 205.2839965820312 319.0974731445312 194.9478302001953 321.2190551757812 C 184.3413391113281 323.3961181640625 173.4243316650391 324.5 162.5 324.5 Z" stroke="none"/>
        <path d="M 162.5 3 C 151.6767730712891 3 140.8612213134766 4.093536376953125 130.3537750244141 6.25030517578125 C 120.1148223876953 8.351959228515625 110.04345703125 11.4879150390625 100.4193572998047 15.57110595703125 C 90.96917724609375 19.5804443359375 81.85423278808594 24.54312133789062 73.32768249511719 30.32131958007812 C 64.88119506835938 36.04522705078125 56.93832397460938 42.61886596679688 49.7197265625 49.85964965820312 C 42.50100708007812 57.1005859375 35.94732666015625 65.06817626953125 30.24072265625 73.54104614257812 C 24.47976684570312 82.09454345703125 19.5318603515625 91.23844909667969 15.53436279296875 100.7186889648438 C 11.46319580078125 110.3736419677734 8.336395263671875 120.4774475097656 6.240875244140625 130.7494506835938 C 4.090423583984375 141.2910003662109 3 152.1416320800781 3 163 C 3 173.8583679199219 4.090423583984375 184.7089996337891 6.240875244140625 195.2505493164062 C 8.336395263671875 205.5225524902344 11.46319580078125 215.6263732910156 15.53436279296875 225.2813110351562 C 19.5318603515625 234.7615356445312 24.47976684570312 243.9054565429688 30.24072265625 252.4589538574219 C 35.94732666015625 260.9318237304688 42.50100708007812 268.8994140625 49.7197265625 276.1403503417969 C 56.93832397460938 283.3811340332031 64.88119506835938 289.9547729492188 73.32768249511719 295.6786804199219 C 81.85423278808594 301.4568481445312 90.96917724609375 306.4195556640625 100.4193572998047 310.4288940429688 C 110.04345703125 314.5120849609375 120.1148223876953 317.6480407714844 130.3537750244141 319.7496948242188 C 140.8612213134766 321.9064636230469 151.6767730712891 323 162.5 323 C 173.3232269287109 323 184.1387786865234 321.9064636230469 194.6462249755859 319.7496948242188 C 204.8851928710938 317.6480407714844 214.95654296875 314.5120849609375 224.5806274414062 310.4288940429688 C 234.0308227539062 306.4195556640625 243.1457824707031 301.4568481445312 251.6723175048828 295.6786804199219 C 260.1188354492188 289.9547729492188 268.0616760253906 283.3811340332031 275.2802734375 276.1403503417969 C 282.4989929199219 268.8994140625 289.0526733398438 260.9318237304688 294.75927734375 252.4589538574219 C 300.5202331542969 243.9054565429688 305.4681396484375 234.7615356445312 309.4656372070312 225.2813110351562 C 313.5368041992188 215.6263732910156 316.6636047363281 205.5225524902344 318.7591247558594 195.2505493164062 C 320.9095764160156 184.7089996337891 322 173.8583679199219 322 163 C 322 152.1416320800781 320.9095764160156 141.2910003662109 318.7591247558594 130.7494506835938 C 316.6636047363281 120.4774475097656 313.5368041992188 110.3736419677734 309.4656372070312 100.7186889648438 C 305.4681396484375 91.23844909667969 300.5202331542969 82.09454345703125 294.75927734375 73.54104614257812 C 289.0526733398438 65.06817626953125 282.4989929199219 57.1005859375 275.2802734375 49.85964965820312 C 268.0616760253906 42.61886596679688 260.1188354492188 36.04522705078125 251.6723175048828 30.32131958007812 C 243.1457824707031 24.54312133789062 234.0308227539062 19.5804443359375 224.5806274414062 15.57110595703125 C 214.95654296875 11.4879150390625 204.8851928710938 8.351959228515625 194.6462249755859 6.25030517578125 C 184.1387786865234 4.093536376953125 173.3232269287109 3 162.5 3 M 162.5 0 C 252.2462768554688 0 325 72.97758483886719 325 163 C 325 253.0223999023438 252.2462768554688 326 162.5 326 C 72.75372314453125 326 0 253.0223999023438 0 163 C 0 72.97758483886719 72.75372314453125 0 162.5 0 Z" stroke="none" fill="#fff"/>
      </g>
    </g>
    <path id="Trazado_724768" data-name="Trazado 724768" d="M49.675,4.2l2.856,8.9,2.848-8.9H59.44V17H56.346V14.012l.3-6.117L53.551,17H51.512l-3.1-9.114.3,6.126V17H45.624V4.2ZM66.928,15.972a3.054,3.054,0,0,1-2.54,1.2,3,3,0,0,1-2.369-.91,3.826,3.826,0,0,1-.8-2.615V7.49h2.962v6.179a1.065,1.065,0,0,0,1.187,1.222,1.548,1.548,0,0,0,1.45-.729V7.49h2.979V17H67.016Zm9.088,1.2a4.889,4.889,0,0,1-3.542-1.305,4.507,4.507,0,0,1-1.354-3.4v-.246a5.84,5.84,0,0,1,.541-2.575,3.955,3.955,0,0,1,1.578-1.727A4.763,4.763,0,0,1,75.7,7.314a4.117,4.117,0,0,1,3.164,1.244,4.887,4.887,0,0,1,1.16,3.467v1.151H74.135a2.135,2.135,0,0,0,.694,1.257,2.066,2.066,0,0,0,1.389.457,2.662,2.662,0,0,0,2.2-.984l1.354,1.6A3.784,3.784,0,0,1,78.2,16.723,5.3,5.3,0,0,1,76.016,17.176ZM75.682,9.6q-1.3,0-1.547,1.723h2.988v-.229a1.467,1.467,0,0,0-.36-1.1A1.434,1.434,0,0,0,75.682,9.6Zm10.512,4.729a.684.684,0,0,0-.4-.606,6.016,6.016,0,0,0-1.5-.475,6.853,6.853,0,0,1-1.828-.646,3.062,3.062,0,0,1-1.1-.971,2.319,2.319,0,0,1-.378-1.31,2.628,2.628,0,0,1,1.081-2.158,4.453,4.453,0,0,1,2.83-.848,4.934,4.934,0,0,1,3.023.853,2.666,2.666,0,0,1,1.143,2.241H86.1q0-1.143-1.2-1.143a1.194,1.194,0,0,0-.782.259.8.8,0,0,0-.316.646.737.737,0,0,0,.387.642,3.654,3.654,0,0,0,1.235.4,10.671,10.671,0,0,1,1.49.378A2.706,2.706,0,0,1,89.05,14.24a2.491,2.491,0,0,1-1.156,2.118,5.068,5.068,0,0,1-2.993.817,5.172,5.172,0,0,1-2.18-.439,3.645,3.645,0,0,1-1.494-1.2,2.707,2.707,0,0,1-.536-1.591H83.46a1.145,1.145,0,0,0,.439.962,1.808,1.808,0,0,0,1.081.3,1.422,1.422,0,0,0,.91-.246A.787.787,0,0,0,86.194,14.328Zm7.69-9.2V7.49h1.564V9.547H93.884V13.9a1.111,1.111,0,0,0,.193.747,1.037,1.037,0,0,0,.765.211,4.345,4.345,0,0,0,.738-.053v2.118a5.466,5.466,0,0,1-1.67.255,3.1,3.1,0,0,1-2.259-.721,2.954,2.954,0,0,1-.729-2.188V9.547H89.709V7.49h1.213V5.126Zm8.481,5.045-.976-.07a1.752,1.752,0,0,0-1.793.879V17H96.635V7.49h2.777l.1,1.222a2.294,2.294,0,0,1,2.083-1.4,2.888,2.888,0,0,1,.826.105Zm5.5,7a4.889,4.889,0,0,1-3.542-1.305,4.507,4.507,0,0,1-1.354-3.4v-.246a5.84,5.84,0,0,1,.541-2.575,3.955,3.955,0,0,1,1.578-1.727,4.763,4.763,0,0,1,2.461-.611,4.117,4.117,0,0,1,3.164,1.244,4.887,4.887,0,0,1,1.16,3.467v1.151h-5.889a2.135,2.135,0,0,0,.694,1.257,2.066,2.066,0,0,0,1.389.457,2.662,2.662,0,0,0,2.2-.984l1.354,1.6a3.784,3.784,0,0,1-1.569,1.217A5.3,5.3,0,0,1,107.868,17.176ZM107.534,9.6q-1.3,0-1.547,1.723h2.988v-.229a1.467,1.467,0,0,0-.36-1.1A1.434,1.434,0,0,0,107.534,9.6Zm5.159,2.558a5.613,5.613,0,0,1,.554-2.536,3.96,3.96,0,0,1,1.591-1.709,4.791,4.791,0,0,1,2.435-.6,4.373,4.373,0,0,1,3.366,1.323,5.076,5.076,0,0,1,1.23,3.6v.105a4.925,4.925,0,0,1-1.235,3.529,4.384,4.384,0,0,1-3.344,1.305,4.434,4.434,0,0,1-3.261-1.217,4.761,4.761,0,0,1-1.327-3.3Zm2.962.185a3.538,3.538,0,0,0,.413,1.934,1.376,1.376,0,0,0,1.222.615q1.582,0,1.617-2.435v-.3q0-2.558-1.635-2.558-1.485,0-1.608,2.206Zm-78.2,24.974a5.735,5.735,0,0,1-1,3.538,3.2,3.2,0,0,1-2.694,1.323,2.742,2.742,0,0,1-2.153-.958v4.438H28.652V32.49H31.42l.088.879a2.742,2.742,0,0,1,2.241-1.055,3.224,3.224,0,0,1,2.733,1.3,5.805,5.805,0,0,1,.976,3.564ZM34.5,37.131q0-2.531-1.477-2.531a1.394,1.394,0,0,0-1.406.756V39.1a1.439,1.439,0,0,0,1.424.791q1.415,0,1.459-2.443Zm10.02-1.96-.976-.07a1.752,1.752,0,0,0-1.793.879V42H38.786V32.49h2.777l.1,1.222a2.294,2.294,0,0,1,2.083-1.4,2.888,2.888,0,0,1,.826.105Zm.378,1.986a5.613,5.613,0,0,1,.554-2.536,3.96,3.96,0,0,1,1.591-1.709,4.791,4.791,0,0,1,2.435-.6,4.373,4.373,0,0,1,3.366,1.323,5.076,5.076,0,0,1,1.23,3.6v.105a4.925,4.925,0,0,1-1.235,3.529,4.384,4.384,0,0,1-3.344,1.305,4.434,4.434,0,0,1-3.261-1.217,4.761,4.761,0,0,1-1.327-3.3Zm2.962.185a3.538,3.538,0,0,0,.413,1.934,1.376,1.376,0,0,0,1.222.615q1.582,0,1.617-2.435v-.3q0-2.558-1.635-2.558-1.485,0-1.608,2.206ZM64.2,37.324a5.8,5.8,0,0,1-.967,3.595,3.238,3.238,0,0,1-2.725,1.257,2.81,2.81,0,0,1-2.338-1.151L58.051,42H55.4V28.5h2.962v4.755a2.711,2.711,0,0,1,2.136-.94,3.239,3.239,0,0,1,2.742,1.274,5.826,5.826,0,0,1,.967,3.586Zm-2.971-.189a3.866,3.866,0,0,0-.365-1.952,1.229,1.229,0,0,0-1.121-.584,1.418,1.418,0,0,0-1.389.763v3.773a1.426,1.426,0,0,0,1.406.755,1.258,1.258,0,0,0,1.327-1.018A7.309,7.309,0,0,0,61.233,37.135ZM70.866,42a3.344,3.344,0,0,1-.281-.853A2.754,2.754,0,0,1,68.3,42.176a3.374,3.374,0,0,1-2.285-.813,2.588,2.588,0,0,1-.94-2.043,2.66,2.66,0,0,1,1.143-2.338,5.821,5.821,0,0,1,3.322-.791h.914v-.5q0-1.316-1.134-1.316a.927.927,0,0,0-1.055,1.042H65.3a2.655,2.655,0,0,1,1.173-2.239,4.931,4.931,0,0,1,2.993-.86,4.323,4.323,0,0,1,2.874.888,3.086,3.086,0,0,1,1.081,2.435v4.21a4.311,4.311,0,0,0,.4,2V42Zm-1.854-1.934a1.652,1.652,0,0,0,.918-.237,1.487,1.487,0,0,0,.523-.536V37.772h-.861q-1.547,0-1.547,1.389a.848.848,0,0,0,.272.655A.986.986,0,0,0,69.011,40.066Zm14.88-2.742a5.8,5.8,0,0,1-.967,3.595A3.238,3.238,0,0,1,80.2,42.176a2.81,2.81,0,0,1-2.338-1.151L77.739,42H75.084V28.5h2.962v4.755a2.711,2.711,0,0,1,2.136-.94,3.239,3.239,0,0,1,2.742,1.274,5.826,5.826,0,0,1,.967,3.586Zm-2.971-.189a3.866,3.866,0,0,0-.365-1.952,1.229,1.229,0,0,0-1.121-.584,1.418,1.418,0,0,0-1.389.763v3.773a1.426,1.426,0,0,0,1.406.755,1.258,1.258,0,0,0,1.327-1.018A7.309,7.309,0,0,0,80.92,37.135ZM88.321,42H85.35V32.49h2.971ZM85.174,30.029a1.334,1.334,0,0,1,.457-1.043,1.934,1.934,0,0,1,2.373,0,1.42,1.42,0,0,1,0,2.087,1.934,1.934,0,0,1-2.373,0A1.334,1.334,0,0,1,85.174,30.029ZM93.269,42H90.3V28.5h2.971Zm5.054,0H95.343V32.49h2.979ZM97.215,28.676h3.129L97.9,31.436l-2.417,0ZM105.2,39.328a.684.684,0,0,0-.4-.606,6.016,6.016,0,0,0-1.5-.475,6.853,6.853,0,0,1-1.828-.646,3.062,3.062,0,0,1-1.1-.971A2.319,2.319,0,0,1,100,35.32a2.628,2.628,0,0,1,1.081-2.158,4.453,4.453,0,0,1,2.83-.848,4.934,4.934,0,0,1,3.023.853,2.666,2.666,0,0,1,1.143,2.241h-2.971q0-1.143-1.2-1.143a1.194,1.194,0,0,0-.782.259.8.8,0,0,0-.316.646.737.737,0,0,0,.387.642,3.654,3.654,0,0,0,1.235.4,10.671,10.671,0,0,1,1.49.378,2.706,2.706,0,0,1,2.145,2.646,2.491,2.491,0,0,1-1.156,2.118,5.068,5.068,0,0,1-2.993.817,5.172,5.172,0,0,1-2.18-.439,3.645,3.645,0,0,1-1.494-1.2A2.707,2.707,0,0,1,99.7,38.95h2.769a1.145,1.145,0,0,0,.439.962,1.808,1.808,0,0,0,1.081.3,1.422,1.422,0,0,0,.91-.246A.787.787,0,0,0,105.2,39.328Zm7.69-9.2V32.49h1.564v2.057H112.9V38.9a1.111,1.111,0,0,0,.193.747,1.037,1.037,0,0,0,.765.211,4.345,4.345,0,0,0,.738-.053v2.118a5.466,5.466,0,0,1-1.67.255,3.1,3.1,0,0,1-2.259-.721,2.954,2.954,0,0,1-.729-2.188v-4.72H108.72V32.49h1.213V30.126ZM118.749,42h-2.971V32.49h2.971ZM115.6,30.029a1.334,1.334,0,0,1,.457-1.043,1.934,1.934,0,0,1,2.373,0,1.42,1.42,0,0,1,0,2.087,1.934,1.934,0,0,1-2.373,0A1.334,1.334,0,0,1,115.6,30.029Zm8.991,9.861a1.317,1.317,0,0,0,.967-.338,1.241,1.241,0,0,0,.334-.945h2.777a3.288,3.288,0,0,1-1.121,2.566,4.168,4.168,0,0,1-2.887,1,4.22,4.22,0,0,1-3.27-1.3,5.125,5.125,0,0,1-1.2-3.6v-.123a5.792,5.792,0,0,1,.532-2.544,3.872,3.872,0,0,1,1.534-1.7,4.573,4.573,0,0,1,2.373-.593,4.116,4.116,0,0,1,2.944,1.028,3.647,3.647,0,0,1,1.09,2.786h-2.777a1.626,1.626,0,0,0-.36-1.134,1.244,1.244,0,0,0-.967-.4q-1.151,0-1.345,1.468a10.357,10.357,0,0,0-.062,1.283,4.068,4.068,0,0,0,.343,1.986A1.187,1.187,0,0,0,124.593,39.891Zm4.957-2.733a5.613,5.613,0,0,1,.554-2.536,3.96,3.96,0,0,1,1.591-1.709,4.791,4.791,0,0,1,2.435-.6,4.373,4.373,0,0,1,3.366,1.323,5.076,5.076,0,0,1,1.23,3.6v.105a4.925,4.925,0,0,1-1.235,3.529,4.384,4.384,0,0,1-3.344,1.305,4.434,4.434,0,0,1-3.261-1.217,4.761,4.761,0,0,1-1.327-3.3Zm2.962.185a3.538,3.538,0,0,0,.413,1.934,1.376,1.376,0,0,0,1.222.615q1.582,0,1.617-2.435v-.3q0-2.558-1.635-2.558-1.485,0-1.608,2.206Z" transform="translate(717 7166)" fill="#12263f"/>
    <g transform="matrix(1, 0, 0, 1, 577, 6967)" filter="url(#Trazado_724769)">
      <g id="Trazado_724769-2" data-name="Trazado 724769" transform="translate(152 6)" fill="#e5dff9">
        <path d="M 71.5 143 C 61.98297882080078 143 52.75112152099609 141.1232452392578 44.06084060668945 137.4218597412109 C 39.8838005065918 135.6427612304688 35.85493850708008 133.4406585693359 32.08615875244141 130.8767242431641 C 28.3528003692627 128.3368835449219 24.84203910827637 125.4199829101562 21.65143966674805 122.2070388793945 C 18.4606990814209 118.9940032958984 15.56389999389648 115.4585037231445 13.04150009155273 111.6987609863281 C 10.49499988555908 107.9030838012695 8.307840347290039 103.8453826904297 6.540800094604492 99.63839721679688 C 2.864200115203857 90.88513946533203 1 81.58624267578125 1 72 C 1 62.41376113891602 2.864200115203857 53.11486053466797 6.540800094604492 44.36159896850586 C 8.307840347290039 40.15462112426758 10.49499988555908 36.09692001342773 13.04150009155273 32.30123901367188 C 15.56389999389648 28.54150009155273 18.4606990814209 25.00600051879883 21.65143966674805 21.79295921325684 C 24.84203910827637 18.58002090454102 28.3528003692627 15.66312026977539 32.08615875244141 13.1232795715332 C 35.85493850708008 10.55933952331543 39.8838005065918 8.357239723205566 44.06084060668945 6.578139781951904 C 52.75112152099609 2.876760005950928 61.98297882080078 1 71.5 1 C 81.01702117919922 1 90.24887847900391 2.876760005950928 98.93916320800781 6.578139781951904 C 103.1162033081055 8.357239723205566 107.1450576782227 10.55933952331543 110.9138412475586 13.1232795715332 C 114.6472015380859 15.66312026977539 118.157958984375 18.58002090454102 121.3485565185547 21.79295921325684 C 124.5392990112305 25.00600051879883 127.4360961914062 28.54150009155273 129.95849609375 32.30123901367188 C 132.5050048828125 36.09692001342773 134.6921539306641 40.15462112426758 136.4591979980469 44.36159896850586 C 140.1358032226562 53.11486053466797 142 62.41376113891602 142 72 C 142 81.58624267578125 140.1358032226562 90.88513946533203 136.4591979980469 99.63839721679688 C 134.6921539306641 103.8453826904297 132.5050048828125 107.9030838012695 129.95849609375 111.6987609863281 C 127.4360961914062 115.4585037231445 124.5392990112305 118.9940032958984 121.3485565185547 122.2070388793945 C 118.157958984375 125.4199829101562 114.6472015380859 128.3368835449219 110.9138412475586 130.8767242431641 C 107.1450576782227 133.4406585693359 103.1162033081055 135.6427612304688 98.93916320800781 137.4218597412109 C 90.24887847900391 141.1232452392578 81.01702117919922 143 71.5 143 Z" stroke="none"/>
        <path d="M 71.5 2 C 62.11840057373047 2 53.01837921142578 3.849853515625 44.45269775390625 7.498153686523438 C 40.33528137207031 9.251861572265625 36.36382293701172 11.422607421875 32.64864349365234 13.9500732421875 C 28.96797943115234 16.45407867431641 25.50669860839844 19.32987976074219 22.36100006103516 22.49758148193359 C 19.21504211425781 25.66554260253906 16.35891723632812 29.15142059326172 13.87191772460938 32.85838317871094 C 11.36126708984375 36.60063934326172 9.204925537109375 40.60118103027344 7.462783813476562 44.74886322021484 C 3.837936401367188 53.37883758544922 2 62.54746246337891 2 72 C 2 81.45254516601562 3.837936401367188 90.62115478515625 7.462783813476562 99.25114440917969 C 9.204925537109375 103.3988189697266 11.36126708984375 107.3993606567383 13.87191772460938 111.1416168212891 C 16.35891723632812 114.8485794067383 19.21504211425781 118.3344573974609 22.36100006103516 121.5024185180664 C 25.50669860839844 124.6701202392578 28.96797943115234 127.5459213256836 32.64864349365234 130.0499267578125 C 36.36382293701172 132.577392578125 40.33528137207031 134.7481384277344 44.45269775390625 136.5018463134766 C 53.01837921142578 140.150146484375 62.11840057373047 142 71.5 142 C 80.88159942626953 142 89.98162078857422 140.150146484375 98.54730224609375 136.5018463134766 C 102.6647186279297 134.7481384277344 106.6361846923828 132.577392578125 110.3513641357422 130.0499267578125 C 114.0320205688477 127.5459213256836 117.4933013916016 124.6701202392578 120.6389999389648 121.5024185180664 C 123.7849578857422 118.3344573974609 126.6410827636719 114.8485794067383 129.1280822753906 111.1416168212891 C 131.6387329101562 107.3993606567383 133.7950744628906 103.3988189697266 135.5372161865234 99.25114440917969 C 139.1620635986328 90.62115478515625 141 81.45254516601562 141 72 C 141 62.54746246337891 139.1620635986328 53.37883758544922 135.5372161865234 44.74886322021484 C 133.7950744628906 40.60118103027344 131.6387329101562 36.60063934326172 129.1280822753906 32.85838317871094 C 126.6410827636719 29.15142059326172 123.7849578857422 25.66554260253906 120.6389999389648 22.49758148193359 C 117.4933013916016 19.32987976074219 114.0320205688477 16.45407867431641 110.3513641357422 13.9500732421875 C 106.6361846923828 11.422607421875 102.6647186279297 9.251861572265625 98.54730224609375 7.498153686523438 C 89.98162078857422 3.849853515625 80.88159942626953 2 71.5 2 M 71.5 0 C 110.9883575439453 0 143 32.23549652099609 143 72 C 143 111.7644958496094 110.9883575439453 144 71.5 144 C 32.01164245605469 144 0 111.7644958496094 0 72 C 0 32.23549652099609 32.01164245605469 0 71.5 0 Z" stroke="none" fill="#fff"/>
      </g>
    </g>
    <g transform="matrix(1, 0, 0, 1, 577, 6967)" filter="url(#Trazado_724770)">
      <g id="Trazado_724770-2" data-name="Trazado 724770" transform="translate(152 289)" fill="#b5e8ff">
        <path d="M 71.5 143 C 61.98297882080078 143 52.75112152099609 141.1232452392578 44.06084060668945 137.4218597412109 C 39.8838005065918 135.6427612304688 35.85493850708008 133.4406585693359 32.08615875244141 130.8767242431641 C 28.3528003692627 128.3368835449219 24.84203910827637 125.4199829101562 21.65143966674805 122.2070388793945 C 18.4606990814209 118.9940032958984 15.56389999389648 115.4585037231445 13.04150009155273 111.6987609863281 C 10.49499988555908 107.9030838012695 8.307840347290039 103.8453826904297 6.540800094604492 99.63839721679688 C 2.864200115203857 90.88513946533203 1 81.58624267578125 1 72 C 1 62.41376113891602 2.864200115203857 53.11486053466797 6.540800094604492 44.36159896850586 C 8.307840347290039 40.15462112426758 10.49499988555908 36.09692001342773 13.04150009155273 32.30123901367188 C 15.56389999389648 28.54150009155273 18.4606990814209 25.00600051879883 21.65143966674805 21.79295921325684 C 24.84203910827637 18.58002090454102 28.3528003692627 15.66312026977539 32.08615875244141 13.1232795715332 C 35.85493850708008 10.55933952331543 39.8838005065918 8.357239723205566 44.06084060668945 6.578139781951904 C 52.75112152099609 2.876760005950928 61.98297882080078 1 71.5 1 C 81.01702117919922 1 90.24887847900391 2.876760005950928 98.93916320800781 6.578139781951904 C 103.1162033081055 8.357239723205566 107.1450576782227 10.55933952331543 110.9138412475586 13.1232795715332 C 114.6472015380859 15.66312026977539 118.157958984375 18.58002090454102 121.3485565185547 21.79295921325684 C 124.5392990112305 25.00600051879883 127.4360961914062 28.54150009155273 129.95849609375 32.30123901367188 C 132.5050048828125 36.09692001342773 134.6921539306641 40.15462112426758 136.4591979980469 44.36159896850586 C 140.1358032226562 53.11486053466797 142 62.41376113891602 142 72 C 142 81.58624267578125 140.1358032226562 90.88513946533203 136.4591979980469 99.63839721679688 C 134.6921539306641 103.8453826904297 132.5050048828125 107.9030838012695 129.95849609375 111.6987609863281 C 127.4360961914062 115.4585037231445 124.5392990112305 118.9940032958984 121.3485565185547 122.2070388793945 C 118.157958984375 125.4199829101562 114.6472015380859 128.3368835449219 110.9138412475586 130.8767242431641 C 107.1450576782227 133.4406585693359 103.1162033081055 135.6427612304688 98.93916320800781 137.4218597412109 C 90.24887847900391 141.1232452392578 81.01702117919922 143 71.5 143 Z" stroke="none"/>
        <path d="M 71.5 2 C 62.11840057373047 2 53.01837921142578 3.849853515625 44.45269775390625 7.498153686523438 C 40.33528137207031 9.251861572265625 36.36382293701172 11.422607421875 32.64864349365234 13.9500732421875 C 28.96797943115234 16.45407867431641 25.50669860839844 19.32987976074219 22.36100006103516 22.49758148193359 C 19.21504211425781 25.66554260253906 16.35891723632812 29.15142059326172 13.87191772460938 32.85838317871094 C 11.36126708984375 36.60063934326172 9.204925537109375 40.60118103027344 7.462783813476562 44.74886322021484 C 3.837936401367188 53.37883758544922 2 62.54746246337891 2 72 C 2 81.45254516601562 3.837936401367188 90.62115478515625 7.462783813476562 99.25114440917969 C 9.204925537109375 103.3988189697266 11.36126708984375 107.3993606567383 13.87191772460938 111.1416168212891 C 16.35891723632812 114.8485794067383 19.21504211425781 118.3344573974609 22.36100006103516 121.5024185180664 C 25.50669860839844 124.6701202392578 28.96797943115234 127.5459213256836 32.64864349365234 130.0499267578125 C 36.36382293701172 132.577392578125 40.33528137207031 134.7481384277344 44.45269775390625 136.5018463134766 C 53.01837921142578 140.150146484375 62.11840057373047 142 71.5 142 C 80.88159942626953 142 89.98162078857422 140.150146484375 98.54730224609375 136.5018463134766 C 102.6647186279297 134.7481384277344 106.6361846923828 132.577392578125 110.3513641357422 130.0499267578125 C 114.0320205688477 127.5459213256836 117.4933013916016 124.6701202392578 120.6389999389648 121.5024185180664 C 123.7849578857422 118.3344573974609 126.6410827636719 114.8485794067383 129.1280822753906 111.1416168212891 C 131.6387329101562 107.3993606567383 133.7950744628906 103.3988189697266 135.5372161865234 99.25114440917969 C 139.1620635986328 90.62115478515625 141 81.45254516601562 141 72 C 141 62.54746246337891 139.1620635986328 53.37883758544922 135.5372161865234 44.74886322021484 C 133.7950744628906 40.60118103027344 131.6387329101562 36.60063934326172 129.1280822753906 32.85838317871094 C 126.6410827636719 29.15142059326172 123.7849578857422 25.66554260253906 120.6389999389648 22.49758148193359 C 117.4933013916016 19.32987976074219 114.0320205688477 16.45407867431641 110.3513641357422 13.9500732421875 C 106.6361846923828 11.422607421875 102.6647186279297 9.251861572265625 98.54730224609375 7.498153686523438 C 89.98162078857422 3.849853515625 80.88159942626953 2 71.5 2 M 71.5 0 C 110.9883575439453 0 143 32.23549652099609 143 72 C 143 111.7644958496094 110.9883575439453 144 71.5 144 C 32.01164245605469 144 0 111.7644958496094 0 72 C 0 32.23549652099609 32.01164245605469 0 71.5 0 Z" stroke="none" fill="#fff"/>
      </g>
    </g>
    <path id="Trazado_724771" data-name="Trazado 724771" d="M25.043,12.023H20.277L19.207,15H17.66L22,3.625h1.313L27.668,15H26.129ZM20.73,10.8H24.6L22.66,5.477ZM30.543,15H29.1V3h1.445Zm5.82.156a3.693,3.693,0,0,1-2.8-1.129,4.19,4.19,0,0,1-1.078-3.02v-.266a5.073,5.073,0,0,1,.48-2.246,3.748,3.748,0,0,1,1.344-1.547,3.378,3.378,0,0,1,1.871-.559,3.166,3.166,0,0,1,2.563,1.086,4.7,4.7,0,0,1,.914,3.109v.6H33.934a3,3,0,0,0,.73,2.02,2.3,2.3,0,0,0,1.777.77,2.517,2.517,0,0,0,1.3-.312,3.259,3.259,0,0,0,.93-.828l.883.688A3.55,3.55,0,0,1,36.363,15.156Zm-.18-7.578a1.928,1.928,0,0,0-1.469.637A3.1,3.1,0,0,0,33.98,10h4.234V9.891a2.753,2.753,0,0,0-.594-1.707A1.815,1.815,0,0,0,36.184,7.578ZM46.551,15a3.036,3.036,0,0,1-.2-.891,3.225,3.225,0,0,1-2.406,1.047,2.984,2.984,0,0,1-2.051-.707,2.287,2.287,0,0,1-.8-1.793,2.39,2.39,0,0,1,1-2.051,4.733,4.733,0,0,1,2.824-.73h1.406V9.211A1.623,1.623,0,0,0,45.871,8a1.821,1.821,0,0,0-1.336-.449,2.107,2.107,0,0,0-1.3.391,1.151,1.151,0,0,0-.523.945H41.262a2,2,0,0,1,.449-1.223,3.066,3.066,0,0,1,1.219-.934,4.1,4.1,0,0,1,1.691-.344,3.342,3.342,0,0,1,2.289.73,2.635,2.635,0,0,1,.859,2.012v3.891a4.757,4.757,0,0,0,.3,1.852V15Zm-2.4-1.1a2.54,2.54,0,0,0,1.289-.352,2.127,2.127,0,0,0,.883-.914V10.9H45.191q-2.656,0-2.656,1.555a1.316,1.316,0,0,0,.453,1.063A1.742,1.742,0,0,0,44.152,13.9ZM52,4.5V6.547h1.578V7.664H52v5.249a1.173,1.173,0,0,0,.211.763.888.888,0,0,0,.719.254,3.5,3.5,0,0,0,.688-.094V15a4.215,4.215,0,0,1-1.109.155,1.8,1.8,0,0,1-1.461-.586,2.517,2.517,0,0,1-.492-1.664V7.664H49.012V6.547h1.539V4.5Zm2.727,6.2a4.993,4.993,0,0,1,.488-2.234A3.643,3.643,0,0,1,56.57,6.93a3.7,3.7,0,0,1,1.988-.539,3.565,3.565,0,0,1,2.793,1.2,4.6,4.6,0,0,1,1.066,3.18v.1a5.036,5.036,0,0,1-.473,2.215,3.589,3.589,0,0,1-1.352,1.527,3.743,3.743,0,0,1-2.02.547,3.556,3.556,0,0,1-2.785-1.2A4.575,4.575,0,0,1,54.723,10.8Zm1.453.172a3.616,3.616,0,0,0,.652,2.258,2.211,2.211,0,0,0,3.5-.012,3.955,3.955,0,0,0,.648-2.418,3.61,3.61,0,0,0-.66-2.254,2.1,2.1,0,0,0-1.754-.863,2.075,2.075,0,0,0-1.727.852A3.925,3.925,0,0,0,56.176,10.867ZM68.316,7.844a4.331,4.331,0,0,0-.711-.055A1.9,1.9,0,0,0,65.676,9v6H64.23V6.547h1.406l.023.977a2.251,2.251,0,0,1,2.016-1.133,1.477,1.477,0,0,1,.641.109ZM71.215,15H69.77V6.547h1.445ZM69.652,4.3a.863.863,0,0,1,.215-.594.807.807,0,0,1,.637-.242.819.819,0,0,1,.641.242.854.854,0,0,1,.219.594.826.826,0,0,1-.219.586.834.834,0,0,1-.641.234.821.821,0,0,1-.637-.234A.834.834,0,0,1,69.652,4.3ZM73.145,10.7a4.993,4.993,0,0,1,.488-2.234A3.643,3.643,0,0,1,74.992,6.93a3.7,3.7,0,0,1,1.988-.539,3.565,3.565,0,0,1,2.793,1.2,4.6,4.6,0,0,1,1.066,3.18v.1a5.036,5.036,0,0,1-.473,2.215,3.589,3.589,0,0,1-1.352,1.527,3.743,3.743,0,0,1-2.02.547,3.556,3.556,0,0,1-2.785-1.2A4.575,4.575,0,0,1,73.145,10.8Zm1.453.172a3.616,3.616,0,0,0,.652,2.258,2.211,2.211,0,0,0,3.5-.012,3.955,3.955,0,0,0,.648-2.418,3.61,3.61,0,0,0-.66-2.254,2.1,2.1,0,0,0-1.754-.863,2.075,2.075,0,0,0-1.727.852A3.925,3.925,0,0,0,74.6,10.867ZM31.77,36.758a1.064,1.064,0,0,0-.441-.91,4.249,4.249,0,0,0-1.539-.559,7.277,7.277,0,0,1-1.742-.562,2.479,2.479,0,0,1-.953-.781,1.869,1.869,0,0,1-.309-1.078,2.193,2.193,0,0,1,.879-1.758,3.432,3.432,0,0,1,2.246-.719,3.532,3.532,0,0,1,2.332.742,2.357,2.357,0,0,1,.895,1.9H31.684a1.3,1.3,0,0,0-.5-1.023,1.888,1.888,0,0,0-1.27-.43,1.976,1.976,0,0,0-1.234.344,1.082,1.082,0,0,0-.445.9.877.877,0,0,0,.414.789,5.1,5.1,0,0,0,1.5.508,7.8,7.8,0,0,1,1.754.578,2.558,2.558,0,0,1,1,.809,1.988,1.988,0,0,1,.324,1.152,2.163,2.163,0,0,1-.906,1.816,3.8,3.8,0,0,1-2.352.684,4.257,4.257,0,0,1-1.8-.359,2.922,2.922,0,0,1-1.223-1A2.42,2.42,0,0,1,26.5,36.4h1.445a1.5,1.5,0,0,0,.582,1.152,2.258,2.258,0,0,0,1.434.426,2.331,2.331,0,0,0,1.316-.332A1.02,1.02,0,0,0,31.77,36.758ZM36.668,39H35.223V30.547h1.445ZM35.105,28.3a.863.863,0,0,1,.215-.594.807.807,0,0,1,.637-.242.819.819,0,0,1,.641.242.854.854,0,0,1,.219.594.826.826,0,0,1-.219.586.834.834,0,0,1-.641.234.821.821,0,0,1-.637-.234A.834.834,0,0,1,35.105,28.3Zm5.234,2.242.039.938a3.122,3.122,0,0,1,2.508-1.094A2.417,2.417,0,0,1,45.3,31.75a3.2,3.2,0,0,1,1.1-.984,3.242,3.242,0,0,1,1.6-.375q2.781,0,2.828,2.945V39H49.379V33.422a1.941,1.941,0,0,0-.414-1.355,1.823,1.823,0,0,0-1.391-.449,1.916,1.916,0,0,0-1.336.48,1.949,1.949,0,0,0-.617,1.293V39H44.168V33.461a1.613,1.613,0,0,0-1.8-1.844,1.934,1.934,0,0,0-1.945,1.211V39H38.973V30.547Zm19.8,4.32a5.062,5.062,0,0,1-.883,3.109,2.829,2.829,0,0,1-2.391,1.18,3.1,3.1,0,0,1-2.422-.977v4.07H53v-11.7h1.32l.07.938a2.977,2.977,0,0,1,2.453-1.094,2.882,2.882,0,0,1,2.41,1.148,5.117,5.117,0,0,1,.887,3.2ZM58.7,34.7a3.735,3.735,0,0,0-.609-2.258,1.963,1.963,0,0,0-1.672-.828,2.125,2.125,0,0,0-1.969,1.164V36.82a2.129,2.129,0,0,0,1.984,1.156,1.954,1.954,0,0,0,1.652-.824A4.077,4.077,0,0,0,58.7,34.7ZM63.551,39H62.105V27h1.445Zm5.82.156a3.693,3.693,0,0,1-2.8-1.129,4.19,4.19,0,0,1-1.078-3.02v-.266a5.073,5.073,0,0,1,.48-2.246,3.748,3.748,0,0,1,1.344-1.547,3.378,3.378,0,0,1,1.871-.559,3.166,3.166,0,0,1,2.563,1.086,4.7,4.7,0,0,1,.914,3.109v.6H66.941a3,3,0,0,0,.73,2.02,2.3,2.3,0,0,0,1.777.77,2.517,2.517,0,0,0,1.3-.312,3.259,3.259,0,0,0,.93-.828l.883.688A3.55,3.55,0,0,1,69.371,39.156Zm-.18-7.578a1.928,1.928,0,0,0-1.469.637A3.1,3.1,0,0,0,66.988,34h4.234v-.109a2.753,2.753,0,0,0-.594-1.707A1.815,1.815,0,0,0,69.191,31.578Z" transform="translate(751 7024)" fill="#12263f"/>
    <path id="Trazado_724772" data-name="Trazado 724772" d="M15.785,11.391a4.185,4.185,0,0,1-1.332,2.785,4.365,4.365,0,0,1-2.98.98,4.008,4.008,0,0,1-3.23-1.445A5.815,5.815,0,0,1,7.027,9.844V8.75a6.481,6.481,0,0,1,.566-2.789A4.231,4.231,0,0,1,9.2,4.113a4.47,4.47,0,0,1,2.406-.645A4.11,4.11,0,0,1,14.512,4.48a4.235,4.235,0,0,1,1.273,2.8H14.277a3.268,3.268,0,0,0-.848-1.975A2.565,2.565,0,0,0,11.605,4.7,2.684,2.684,0,0,0,9.352,5.759a4.882,4.882,0,0,0-.816,3.026v1.1a5.018,5.018,0,0,0,.773,2.948,2.5,2.5,0,0,0,2.164,1.095,2.886,2.886,0,0,0,1.918-.566,3.143,3.143,0,0,0,.887-1.973Zm1.438-.7a4.993,4.993,0,0,1,.488-2.234A3.643,3.643,0,0,1,19.07,6.93a3.7,3.7,0,0,1,1.988-.539,3.565,3.565,0,0,1,2.793,1.2,4.6,4.6,0,0,1,1.066,3.18v.1a5.036,5.036,0,0,1-.473,2.215,3.589,3.589,0,0,1-1.352,1.527,3.743,3.743,0,0,1-2.02.547,3.556,3.556,0,0,1-2.785-1.2A4.575,4.575,0,0,1,17.223,10.8Zm1.453.172a3.616,3.616,0,0,0,.652,2.258,2.211,2.211,0,0,0,3.5-.012,3.955,3.955,0,0,0,.648-2.418,3.61,3.61,0,0,0-.66-2.254,2.1,2.1,0,0,0-1.754-.863,2.075,2.075,0,0,0-1.727.852A3.925,3.925,0,0,0,18.676,10.867ZM28.1,6.547l.047,1.063a3.08,3.08,0,0,1,2.531-1.219q2.68,0,2.7,3.023V15H31.934V9.406a1.946,1.946,0,0,0-.418-1.352,1.675,1.675,0,0,0-1.277-.437A2.086,2.086,0,0,0,29,7.992a2.546,2.546,0,0,0-.828.984V15H26.73V6.547ZM35.215,10.7a4.968,4.968,0,0,1,.914-3.145,3.151,3.151,0,0,1,4.836-.074l.07-.937h1.32V14.8a3.439,3.439,0,0,1-.973,2.586,3.589,3.589,0,0,1-2.613.945,4.348,4.348,0,0,1-1.789-.391,3.08,3.08,0,0,1-1.336-1.07l.75-.867a2.826,2.826,0,0,0,2.273,1.148,2.214,2.214,0,0,0,1.645-.594,2.269,2.269,0,0,0,.59-1.672v-.727a2.971,2.971,0,0,1-2.367,1,2.887,2.887,0,0,1-2.4-1.2A5.224,5.224,0,0,1,35.215,10.7Zm1.453.164a3.79,3.79,0,0,0,.586,2.246,1.9,1.9,0,0,0,1.641.816A2.117,2.117,0,0,0,40.9,12.688V8.828A2.142,2.142,0,0,0,38.91,7.617a1.921,1.921,0,0,0-1.648.82A4.128,4.128,0,0,0,36.668,10.867ZM46.105,15H44.66V3h1.445Zm1.93-4.3a4.993,4.993,0,0,1,.488-2.234A3.643,3.643,0,0,1,49.883,6.93a3.7,3.7,0,0,1,1.988-.539,3.565,3.565,0,0,1,2.793,1.2,4.6,4.6,0,0,1,1.066,3.18v.1a5.036,5.036,0,0,1-.473,2.215,3.589,3.589,0,0,1-1.352,1.527,3.743,3.743,0,0,1-2.02.547,3.556,3.556,0,0,1-2.785-1.2A4.575,4.575,0,0,1,48.035,10.8Zm1.453.172a3.616,3.616,0,0,0,.652,2.258,2.211,2.211,0,0,0,3.5-.012,3.955,3.955,0,0,0,.648-2.418,3.61,3.61,0,0,0-.66-2.254,2.1,2.1,0,0,0-1.754-.863,2.075,2.075,0,0,0-1.727.852A3.925,3.925,0,0,0,49.488,10.867ZM58.9,6.547l.039.938a3.122,3.122,0,0,1,2.508-1.094A2.417,2.417,0,0,1,63.863,7.75a3.2,3.2,0,0,1,1.1-.984,3.242,3.242,0,0,1,1.6-.375q2.781,0,2.828,2.945V15H67.941V9.422a1.941,1.941,0,0,0-.414-1.355,1.823,1.823,0,0,0-1.391-.449A1.916,1.916,0,0,0,64.8,8.1a1.949,1.949,0,0,0-.617,1.293V15H62.73V9.461a1.613,1.613,0,0,0-1.8-1.844A1.934,1.934,0,0,0,58.98,8.828V15H57.535V6.547Zm16.172,8.609a3.693,3.693,0,0,1-2.8-1.129,4.19,4.19,0,0,1-1.078-3.02v-.266A5.073,5.073,0,0,1,71.68,8.5a3.748,3.748,0,0,1,1.344-1.547,3.378,3.378,0,0,1,1.871-.559,3.166,3.166,0,0,1,2.563,1.086,4.7,4.7,0,0,1,.914,3.109v.6H72.645a3,3,0,0,0,.73,2.02,2.3,2.3,0,0,0,1.777.77,2.517,2.517,0,0,0,1.3-.312,3.259,3.259,0,0,0,.93-.828l.883.688A3.55,3.55,0,0,1,75.074,15.156Zm-.18-7.578a1.928,1.928,0,0,0-1.469.637A3.1,3.1,0,0,0,72.691,10h4.234V9.891a2.753,2.753,0,0,0-.594-1.707A1.815,1.815,0,0,0,74.895,7.578Zm9.234.266a4.331,4.331,0,0,0-.711-.055A1.9,1.9,0,0,0,81.488,9v6H80.043V6.547h1.406l.023.977a2.251,2.251,0,0,1,2.016-1.133,1.477,1.477,0,0,1,.641.109ZM90.363,15a3.036,3.036,0,0,1-.2-.891,3.225,3.225,0,0,1-2.406,1.047,2.984,2.984,0,0,1-2.051-.707,2.288,2.288,0,0,1-.8-1.793,2.39,2.39,0,0,1,1-2.051,4.733,4.733,0,0,1,2.824-.73h1.406V9.211A1.623,1.623,0,0,0,89.684,8a1.821,1.821,0,0,0-1.336-.449,2.108,2.108,0,0,0-1.3.391,1.151,1.151,0,0,0-.523.945H85.074a2,2,0,0,1,.449-1.223,3.066,3.066,0,0,1,1.219-.934,4.1,4.1,0,0,1,1.691-.344,3.342,3.342,0,0,1,2.289.73,2.635,2.635,0,0,1,.859,2.012v3.891a4.757,4.757,0,0,0,.3,1.852V15Zm-2.4-1.1a2.54,2.54,0,0,0,1.289-.352,2.127,2.127,0,0,0,.883-.914V10.9H89q-2.656,0-2.656,1.555a1.316,1.316,0,0,0,.453,1.063A1.742,1.742,0,0,0,87.965,13.9ZM93.5,10.7a4.952,4.952,0,0,1,.922-3.129,3.137,3.137,0,0,1,4.766-.168V3h1.445V15H99.3l-.07-.906a2.943,2.943,0,0,1-2.414,1.063,2.887,2.887,0,0,1-2.395-1.2,5.008,5.008,0,0,1-.926-3.141Zm1.445.164a3.749,3.749,0,0,0,.594,2.25,1.92,1.92,0,0,0,1.641.813A2.108,2.108,0,0,0,99.184,12.7V8.813a2.125,2.125,0,0,0-1.992-1.2,1.929,1.929,0,0,0-1.656.82A4.128,4.128,0,0,0,94.941,10.867Zm7.547-.172a4.993,4.993,0,0,1,.488-2.234,3.643,3.643,0,0,1,1.359-1.531,3.7,3.7,0,0,1,1.988-.539,3.565,3.565,0,0,1,2.793,1.2,4.6,4.6,0,0,1,1.066,3.18v.1a5.036,5.036,0,0,1-.473,2.215,3.589,3.589,0,0,1-1.352,1.527,3.743,3.743,0,0,1-2.02.547,3.556,3.556,0,0,1-2.785-1.2,4.575,4.575,0,0,1-1.066-3.164Zm1.453.172a3.616,3.616,0,0,0,.652,2.258,2.211,2.211,0,0,0,3.5-.012,3.955,3.955,0,0,0,.648-2.418,3.61,3.61,0,0,0-.66-2.254,2.1,2.1,0,0,0-1.754-.863,2.075,2.075,0,0,0-1.727.852A3.925,3.925,0,0,0,103.941,10.867Z" transform="translate(742 7319)" fill="#12263f"/>
    <g transform="matrix(1, 0, 0, 1, 577, 6967)" filter="url(#Trazado_724773)">
      <g id="Trazado_724773-2" data-name="Trazado 724773" transform="translate(9 150)" fill="#c3f8ff">
        <path d="M 71.5 143 C 61.98297882080078 143 52.75112152099609 141.1232452392578 44.06084060668945 137.4218597412109 C 39.8838005065918 135.6427612304688 35.85493850708008 133.4406585693359 32.08615875244141 130.8767242431641 C 28.3528003692627 128.3368835449219 24.84203910827637 125.4199829101562 21.65143966674805 122.2070388793945 C 18.4606990814209 118.9940032958984 15.56389999389648 115.4585037231445 13.04150009155273 111.6987609863281 C 10.49499988555908 107.9030838012695 8.307840347290039 103.8453826904297 6.540800094604492 99.63839721679688 C 2.864200115203857 90.88513946533203 1 81.58624267578125 1 72 C 1 62.41376113891602 2.864200115203857 53.11486053466797 6.540800094604492 44.36159896850586 C 8.307840347290039 40.15462112426758 10.49499988555908 36.09692001342773 13.04150009155273 32.30123901367188 C 15.56389999389648 28.54150009155273 18.4606990814209 25.00600051879883 21.65143966674805 21.79295921325684 C 24.84203910827637 18.58002090454102 28.3528003692627 15.66312026977539 32.08615875244141 13.1232795715332 C 35.85493850708008 10.55933952331543 39.8838005065918 8.357239723205566 44.06084060668945 6.578139781951904 C 52.75112152099609 2.876760005950928 61.98297882080078 1 71.5 1 C 81.01702117919922 1 90.24887847900391 2.876760005950928 98.93916320800781 6.578139781951904 C 103.1162033081055 8.357239723205566 107.1450576782227 10.55933952331543 110.9138412475586 13.1232795715332 C 114.6472015380859 15.66312026977539 118.157958984375 18.58002090454102 121.3485565185547 21.79295921325684 C 124.5392990112305 25.00600051879883 127.4360961914062 28.54150009155273 129.95849609375 32.30123901367188 C 132.5050048828125 36.09692001342773 134.6921539306641 40.15462112426758 136.4591979980469 44.36159896850586 C 140.1358032226562 53.11486053466797 142 62.41376113891602 142 72 C 142 81.58624267578125 140.1358032226562 90.88513946533203 136.4591979980469 99.63839721679688 C 134.6921539306641 103.8453826904297 132.5050048828125 107.9030838012695 129.95849609375 111.6987609863281 C 127.4360961914062 115.4585037231445 124.5392990112305 118.9940032958984 121.3485565185547 122.2070388793945 C 118.157958984375 125.4199829101562 114.6472015380859 128.3368835449219 110.9138412475586 130.8767242431641 C 107.1450576782227 133.4406585693359 103.1162033081055 135.6427612304688 98.93916320800781 137.4218597412109 C 90.24887847900391 141.1232452392578 81.01702117919922 143 71.5 143 Z" stroke="none"/>
        <path d="M 71.5 2 C 62.11840057373047 2 53.01837921142578 3.849853515625 44.45269775390625 7.498153686523438 C 40.33528137207031 9.251861572265625 36.36382293701172 11.422607421875 32.64864349365234 13.9500732421875 C 28.96797943115234 16.45407867431641 25.50669860839844 19.32987976074219 22.36100006103516 22.49758148193359 C 19.21504211425781 25.66554260253906 16.35891723632812 29.15142059326172 13.87191772460938 32.85838317871094 C 11.36126708984375 36.60063934326172 9.204925537109375 40.60118103027344 7.462783813476562 44.74886322021484 C 3.837936401367188 53.37883758544922 2 62.54746246337891 2 72 C 2 81.45254516601562 3.837936401367188 90.62115478515625 7.462783813476562 99.25114440917969 C 9.204925537109375 103.3988189697266 11.36126708984375 107.3993606567383 13.87191772460938 111.1416168212891 C 16.35891723632812 114.8485794067383 19.21504211425781 118.3344573974609 22.36100006103516 121.5024185180664 C 25.50669860839844 124.6701202392578 28.96797943115234 127.5459213256836 32.64864349365234 130.0499267578125 C 36.36382293701172 132.577392578125 40.33528137207031 134.7481384277344 44.45269775390625 136.5018463134766 C 53.01837921142578 140.150146484375 62.11840057373047 142 71.5 142 C 80.88159942626953 142 89.98162078857422 140.150146484375 98.54730224609375 136.5018463134766 C 102.6647186279297 134.7481384277344 106.6361846923828 132.577392578125 110.3513641357422 130.0499267578125 C 114.0320205688477 127.5459213256836 117.4933013916016 124.6701202392578 120.6389999389648 121.5024185180664 C 123.7849578857422 118.3344573974609 126.6410827636719 114.8485794067383 129.1280822753906 111.1416168212891 C 131.6387329101562 107.3993606567383 133.7950744628906 103.3988189697266 135.5372161865234 99.25114440917969 C 139.1620635986328 90.62115478515625 141 81.45254516601562 141 72 C 141 62.54746246337891 139.1620635986328 53.37883758544922 135.5372161865234 44.74886322021484 C 133.7950744628906 40.60118103027344 131.6387329101562 36.60063934326172 129.1280822753906 32.85838317871094 C 126.6410827636719 29.15142059326172 123.7849578857422 25.66554260253906 120.6389999389648 22.49758148193359 C 117.4933013916016 19.32987976074219 114.0320205688477 16.45407867431641 110.3513641357422 13.9500732421875 C 106.6361846923828 11.422607421875 102.6647186279297 9.251861572265625 98.54730224609375 7.498153686523438 C 89.98162078857422 3.849853515625 80.88159942626953 2 71.5 2 M 71.5 0 C 110.9883575439453 0 143 32.23549652099609 143 72 C 143 111.7644958496094 110.9883575439453 144 71.5 144 C 32.01164245605469 144 0 111.7644958496094 0 72 C 0 32.23549652099609 32.01164245605469 0 71.5 0 Z" stroke="none" fill="#fff"/>
      </g>
    </g>
    <path id="Trazado_724774" data-name="Trazado 724774" d="M21.465,9.742h-4.93v4.031h5.727V15H15.035V3.625h7.148V4.852H16.535V8.516h4.93Zm7.359,3.016a1.064,1.064,0,0,0-.441-.91,4.249,4.249,0,0,0-1.539-.559,7.277,7.277,0,0,1-1.742-.562,2.479,2.479,0,0,1-.953-.781,1.869,1.869,0,0,1-.309-1.078,2.193,2.193,0,0,1,.879-1.758,3.432,3.432,0,0,1,2.246-.719,3.532,3.532,0,0,1,2.332.742,2.357,2.357,0,0,1,.895,1.9H28.738a1.3,1.3,0,0,0-.5-1.023,1.888,1.888,0,0,0-1.27-.43,1.976,1.976,0,0,0-1.234.344,1.082,1.082,0,0,0-.445.9.877.877,0,0,0,.414.789,5.1,5.1,0,0,0,1.5.508,7.8,7.8,0,0,1,1.754.578,2.558,2.558,0,0,1,1,.809,1.988,1.988,0,0,1,.324,1.152,2.163,2.163,0,0,1-.906,1.816,3.8,3.8,0,0,1-2.352.684,4.257,4.257,0,0,1-1.8-.359,2.922,2.922,0,0,1-1.223-1,2.42,2.42,0,0,1-.441-1.395H25a1.5,1.5,0,0,0,.582,1.152,2.258,2.258,0,0,0,1.434.426,2.331,2.331,0,0,0,1.316-.332A1.02,1.02,0,0,0,28.824,12.758ZM34.113,4.5V6.547h1.578V7.664H34.113v5.249a1.173,1.173,0,0,0,.211.763.888.888,0,0,0,.719.254,3.5,3.5,0,0,0,.688-.094V15a4.215,4.215,0,0,1-1.109.155,1.8,1.8,0,0,1-1.461-.586,2.517,2.517,0,0,1-.492-1.664V7.664H31.129V6.547h1.539V4.5Zm7.352,3.344a4.331,4.331,0,0,0-.711-.055A1.9,1.9,0,0,0,38.824,9v6H37.379V6.547h1.406l.023.977a2.251,2.251,0,0,1,2.016-1.133,1.477,1.477,0,0,1,.641.109ZM47.7,15a3.036,3.036,0,0,1-.2-.891,3.225,3.225,0,0,1-2.406,1.047,2.984,2.984,0,0,1-2.051-.707,2.287,2.287,0,0,1-.8-1.793,2.39,2.39,0,0,1,1-2.051,4.733,4.733,0,0,1,2.824-.73h1.406V9.211A1.623,1.623,0,0,0,47.02,8a1.821,1.821,0,0,0-1.336-.449,2.107,2.107,0,0,0-1.3.391,1.151,1.151,0,0,0-.523.945H42.41a2,2,0,0,1,.449-1.223,3.066,3.066,0,0,1,1.219-.934,4.1,4.1,0,0,1,1.691-.344,3.342,3.342,0,0,1,2.289.73,2.635,2.635,0,0,1,.859,2.012v3.891a4.757,4.757,0,0,0,.3,1.852V15Zm-2.4-1.1a2.54,2.54,0,0,0,1.289-.352,2.127,2.127,0,0,0,.883-.914V10.9H46.34q-2.656,0-2.656,1.555a1.316,1.316,0,0,0,.453,1.063A1.742,1.742,0,0,0,45.3,13.9Zm7.844-9.4V6.547h1.578V7.664H53.145v5.249a1.173,1.173,0,0,0,.211.763.888.888,0,0,0,.719.254,3.5,3.5,0,0,0,.688-.094V15a4.215,4.215,0,0,1-1.109.155,1.8,1.8,0,0,1-1.461-.586,2.517,2.517,0,0,1-.492-1.664V7.664H50.16V6.547H51.7V4.5ZM57.98,15H56.535V6.547H57.98ZM56.418,4.3a.863.863,0,0,1,.215-.594.807.807,0,0,1,.637-.242.819.819,0,0,1,.641.242.854.854,0,0,1,.219.594.826.826,0,0,1-.219.586.834.834,0,0,1-.641.234.821.821,0,0,1-.637-.234A.834.834,0,0,1,56.418,4.3ZM60.777,15V7.664H59.441V6.547h1.336V5.828a2.937,2.937,0,0,1,.809-2.2,3.136,3.136,0,0,1,2.285-.789,6.881,6.881,0,0,1,2.211.477L65.84,4.531a5.008,5.008,0,0,0-1.859-.391,1.819,1.819,0,0,0-1.34.418,1.723,1.723,0,0,0-.41,1.254v.734h1.727V7.664H62.23V15ZM66.8,15H65.348V6.547H66.8Zm5.742-1.023a2.082,2.082,0,0,0,1.352-.469,1.649,1.649,0,0,0,.641-1.172H75.9a2.621,2.621,0,0,1-.5,1.383,3.293,3.293,0,0,1-1.23,1.047,3.55,3.55,0,0,1-1.629.391A3.482,3.482,0,0,1,69.8,14a4.59,4.59,0,0,1-1.02-3.152v-.242a5.089,5.089,0,0,1,.453-2.2,3.451,3.451,0,0,1,1.3-1.492,3.7,3.7,0,0,1,2-.531,3.39,3.39,0,0,1,2.363.852,3.043,3.043,0,0,1,1,2.211H74.535a1.992,1.992,0,0,0-.621-1.348,1.932,1.932,0,0,0-1.379-.527,2.023,2.023,0,0,0-1.707.793,3.724,3.724,0,0,0-.605,2.293v.273a3.65,3.65,0,0,0,.6,2.25A2.033,2.033,0,0,0,72.543,13.977ZM82.746,15a3.036,3.036,0,0,1-.2-.891,3.225,3.225,0,0,1-2.406,1.047,2.984,2.984,0,0,1-2.051-.707,2.288,2.288,0,0,1-.8-1.793,2.39,2.39,0,0,1,1-2.051,4.733,4.733,0,0,1,2.824-.73H82.52V9.211A1.623,1.623,0,0,0,82.066,8a1.821,1.821,0,0,0-1.336-.449,2.108,2.108,0,0,0-1.3.391,1.151,1.151,0,0,0-.523.945H77.457a2,2,0,0,1,.449-1.223,3.066,3.066,0,0,1,1.219-.934,4.1,4.1,0,0,1,1.691-.344,3.342,3.342,0,0,1,2.289.73,2.635,2.635,0,0,1,.859,2.012v3.891a4.757,4.757,0,0,0,.3,1.852V15Zm-2.4-1.1a2.54,2.54,0,0,0,1.289-.352,2.127,2.127,0,0,0,.883-.914V10.9H81.387q-2.656,0-2.656,1.555a1.316,1.316,0,0,0,.453,1.063A1.742,1.742,0,0,0,80.348,13.9Zm5.531-3.2A4.952,4.952,0,0,1,86.8,7.574a3.137,3.137,0,0,1,4.766-.168V3h1.445V15H91.684l-.07-.906A2.943,2.943,0,0,1,89.2,15.156a2.887,2.887,0,0,1-2.395-1.2,5.008,5.008,0,0,1-.926-3.141Zm1.445.164a3.749,3.749,0,0,0,.594,2.25,1.92,1.92,0,0,0,1.641.813A2.108,2.108,0,0,0,91.566,12.7V8.813a2.125,2.125,0,0,0-1.992-1.2,1.929,1.929,0,0,0-1.656.82A4.128,4.128,0,0,0,87.324,10.867Zm7.547-.172a4.993,4.993,0,0,1,.488-2.234A3.643,3.643,0,0,1,96.719,6.93a3.7,3.7,0,0,1,1.988-.539,3.565,3.565,0,0,1,2.793,1.2,4.6,4.6,0,0,1,1.066,3.18v.1a5.036,5.036,0,0,1-.473,2.215,3.589,3.589,0,0,1-1.352,1.527,3.743,3.743,0,0,1-2.02.547,3.556,3.556,0,0,1-2.785-1.2A4.575,4.575,0,0,1,94.871,10.8Zm1.453.172a3.616,3.616,0,0,0,.652,2.258,2.211,2.211,0,0,0,3.5-.012,3.955,3.955,0,0,0,.648-2.418,3.61,3.61,0,0,0-.66-2.254,2.1,2.1,0,0,0-1.754-.863,2.075,2.075,0,0,0-1.727.852A3.925,3.925,0,0,0,96.324,10.867Z" transform="translate(599 7180)" fill="#12263f"/>
    <g transform="matrix(1, 0, 0, 1, 577, 6967)" filter="url(#Trazado_724775)">
      <g id="Trazado_724775-2" data-name="Trazado 724775" transform="translate(295 150)" fill="#ffd694">
        <path d="M 71.5 143 C 61.98297882080078 143 52.75112152099609 141.1232452392578 44.06084060668945 137.4218597412109 C 39.8838005065918 135.6427612304688 35.85493850708008 133.4406585693359 32.08615875244141 130.8767242431641 C 28.3528003692627 128.3368835449219 24.84203910827637 125.4199829101562 21.65143966674805 122.2070388793945 C 18.4606990814209 118.9940032958984 15.56389999389648 115.4585037231445 13.04150009155273 111.6987609863281 C 10.49499988555908 107.9030838012695 8.307840347290039 103.8453826904297 6.540800094604492 99.63839721679688 C 2.864200115203857 90.88513946533203 1 81.58624267578125 1 72 C 1 62.41376113891602 2.864200115203857 53.11486053466797 6.540800094604492 44.36159896850586 C 8.307840347290039 40.15462112426758 10.49499988555908 36.09692001342773 13.04150009155273 32.30123901367188 C 15.56389999389648 28.54150009155273 18.4606990814209 25.00600051879883 21.65143966674805 21.79295921325684 C 24.84203910827637 18.58002090454102 28.3528003692627 15.66312026977539 32.08615875244141 13.1232795715332 C 35.85493850708008 10.55933952331543 39.8838005065918 8.357239723205566 44.06084060668945 6.578139781951904 C 52.75112152099609 2.876760005950928 61.98297882080078 1 71.5 1 C 81.01702117919922 1 90.24887847900391 2.876760005950928 98.93916320800781 6.578139781951904 C 103.1162033081055 8.357239723205566 107.1450576782227 10.55933952331543 110.9138412475586 13.1232795715332 C 114.6472015380859 15.66312026977539 118.157958984375 18.58002090454102 121.3485565185547 21.79295921325684 C 124.5392990112305 25.00600051879883 127.4360961914062 28.54150009155273 129.95849609375 32.30123901367188 C 132.5050048828125 36.09692001342773 134.6921539306641 40.15462112426758 136.4591979980469 44.36159896850586 C 140.1358032226562 53.11486053466797 142 62.41376113891602 142 72 C 142 81.58624267578125 140.1358032226562 90.88513946533203 136.4591979980469 99.63839721679688 C 134.6921539306641 103.8453826904297 132.5050048828125 107.9030838012695 129.95849609375 111.6987609863281 C 127.4360961914062 115.4585037231445 124.5392990112305 118.9940032958984 121.3485565185547 122.2070388793945 C 118.157958984375 125.4199829101562 114.6472015380859 128.3368835449219 110.9138412475586 130.8767242431641 C 107.1450576782227 133.4406585693359 103.1162033081055 135.6427612304688 98.93916320800781 137.4218597412109 C 90.24887847900391 141.1232452392578 81.01702117919922 143 71.5 143 Z" stroke="none"/>
        <path d="M 71.5 2 C 62.11840057373047 2 53.01837921142578 3.849853515625 44.45269775390625 7.498153686523438 C 40.33528137207031 9.251861572265625 36.36382293701172 11.422607421875 32.64864349365234 13.9500732421875 C 28.96797943115234 16.45407867431641 25.50669860839844 19.32987976074219 22.36100006103516 22.49758148193359 C 19.21504211425781 25.66554260253906 16.35891723632812 29.15142059326172 13.87191772460938 32.85838317871094 C 11.36126708984375 36.60063934326172 9.204925537109375 40.60118103027344 7.462783813476562 44.74886322021484 C 3.837936401367188 53.37883758544922 2 62.54746246337891 2 72 C 2 81.45254516601562 3.837936401367188 90.62115478515625 7.462783813476562 99.25114440917969 C 9.204925537109375 103.3988189697266 11.36126708984375 107.3993606567383 13.87191772460938 111.1416168212891 C 16.35891723632812 114.8485794067383 19.21504211425781 118.3344573974609 22.36100006103516 121.5024185180664 C 25.50669860839844 124.6701202392578 28.96797943115234 127.5459213256836 32.64864349365234 130.0499267578125 C 36.36382293701172 132.577392578125 40.33528137207031 134.7481384277344 44.45269775390625 136.5018463134766 C 53.01837921142578 140.150146484375 62.11840057373047 142 71.5 142 C 80.88159942626953 142 89.98162078857422 140.150146484375 98.54730224609375 136.5018463134766 C 102.6647186279297 134.7481384277344 106.6361846923828 132.577392578125 110.3513641357422 130.0499267578125 C 114.0320205688477 127.5459213256836 117.4933013916016 124.6701202392578 120.6389999389648 121.5024185180664 C 123.7849578857422 118.3344573974609 126.6410827636719 114.8485794067383 129.1280822753906 111.1416168212891 C 131.6387329101562 107.3993606567383 133.7950744628906 103.3988189697266 135.5372161865234 99.25114440917969 C 139.1620635986328 90.62115478515625 141 81.45254516601562 141 72 C 141 62.54746246337891 139.1620635986328 53.37883758544922 135.5372161865234 44.74886322021484 C 133.7950744628906 40.60118103027344 131.6387329101562 36.60063934326172 129.1280822753906 32.85838317871094 C 126.6410827636719 29.15142059326172 123.7849578857422 25.66554260253906 120.6389999389648 22.49758148193359 C 117.4933013916016 19.32987976074219 114.0320205688477 16.45407867431641 110.3513641357422 13.9500732421875 C 106.6361846923828 11.422607421875 102.6647186279297 9.251861572265625 98.54730224609375 7.498153686523438 C 89.98162078857422 3.849853515625 80.88159942626953 2 71.5 2 M 71.5 0 C 110.9883575439453 0 143 32.23549652099609 143 72 C 143 111.7644958496094 110.9883575439453 144 71.5 144 C 32.01164245605469 144 0 111.7644958496094 0 72 C 0 32.23549652099609 32.01164245605469 0 71.5 0 Z" stroke="none" fill="#fff"/>
      </g>
    </g>
    <path id="Trazado_724776" data-name="Trazado 724776" d="M20.84,9.93a7.053,7.053,0,0,1-2.809-1.363,2.6,2.6,0,0,1-.879-2,2.751,2.751,0,0,1,1.074-2.223,4.269,4.269,0,0,1,2.793-.879,4.66,4.66,0,0,1,2.09.453,3.436,3.436,0,0,1,1.422,1.25,3.2,3.2,0,0,1,.5,1.742H23.527a2.08,2.08,0,0,0-.656-1.627A2.669,2.669,0,0,0,21.02,4.7a2.732,2.732,0,0,0-1.73.489,1.632,1.632,0,0,0-.621,1.358,1.468,1.468,0,0,0,.59,1.178,5.785,5.785,0,0,0,2.008.88,9.316,9.316,0,0,1,2.219.88A3.367,3.367,0,0,1,24.672,10.6a2.861,2.861,0,0,1,.387,1.508,2.658,2.658,0,0,1-1.078,2.215,4.6,4.6,0,0,1-2.883.832,5.347,5.347,0,0,1-2.187-.449,3.681,3.681,0,0,1-1.566-1.23,3,3,0,0,1-.551-1.773H18.3a1.959,1.959,0,0,0,.762,1.629,3.207,3.207,0,0,0,2.035.6,2.948,2.948,0,0,0,1.82-.484,1.573,1.573,0,0,0,.633-1.32,1.545,1.545,0,0,0-.586-1.293A6.755,6.755,0,0,0,20.84,9.93ZM28.324,15H26.879V6.547h1.445ZM26.762,4.3a.863.863,0,0,1,.215-.594.807.807,0,0,1,.637-.242.819.819,0,0,1,.641.242.854.854,0,0,1,.219.594.826.826,0,0,1-.219.586.834.834,0,0,1-.641.234.821.821,0,0,1-.637-.234A.834.834,0,0,1,26.762,4.3Zm8.8,8.453a1.064,1.064,0,0,0-.441-.91,4.249,4.249,0,0,0-1.539-.559,7.277,7.277,0,0,1-1.742-.562,2.479,2.479,0,0,1-.953-.781,1.869,1.869,0,0,1-.309-1.078,2.193,2.193,0,0,1,.879-1.758A3.432,3.432,0,0,1,33.7,6.391a3.532,3.532,0,0,1,2.332.742,2.357,2.357,0,0,1,.895,1.9H35.473a1.3,1.3,0,0,0-.5-1.023,1.888,1.888,0,0,0-1.27-.43,1.976,1.976,0,0,0-1.234.344,1.082,1.082,0,0,0-.445.9.877.877,0,0,0,.414.789,5.1,5.1,0,0,0,1.5.508,7.8,7.8,0,0,1,1.754.578,2.558,2.558,0,0,1,1,.809A1.988,1.988,0,0,1,37,12.656a2.163,2.163,0,0,1-.906,1.816,3.8,3.8,0,0,1-2.352.684,4.257,4.257,0,0,1-1.8-.359,2.922,2.922,0,0,1-1.223-1,2.42,2.42,0,0,1-.441-1.395H31.73a1.5,1.5,0,0,0,.582,1.152,2.258,2.258,0,0,0,1.434.426,2.331,2.331,0,0,0,1.316-.332A1.02,1.02,0,0,0,35.559,12.758ZM40.848,4.5V6.547h1.578V7.664H40.848v5.249a1.173,1.173,0,0,0,.211.763.888.888,0,0,0,.719.254,3.5,3.5,0,0,0,.688-.094V15a4.215,4.215,0,0,1-1.109.155,1.8,1.8,0,0,1-1.461-.586,2.517,2.517,0,0,1-.492-1.664V7.664H37.863V6.547H39.4V4.5Zm6.773,10.656a3.693,3.693,0,0,1-2.8-1.129,4.19,4.19,0,0,1-1.078-3.02v-.266a5.073,5.073,0,0,1,.48-2.246A3.748,3.748,0,0,1,45.57,6.949a3.378,3.378,0,0,1,1.871-.559A3.166,3.166,0,0,1,50,7.477a4.7,4.7,0,0,1,.914,3.109v.6H45.191a3,3,0,0,0,.73,2.02,2.3,2.3,0,0,0,1.777.77,2.517,2.517,0,0,0,1.3-.312,3.259,3.259,0,0,0,.93-.828l.883.688A3.55,3.55,0,0,1,47.621,15.156Zm-.18-7.578a1.928,1.928,0,0,0-1.469.637A3.1,3.1,0,0,0,45.238,10h4.234V9.891a2.753,2.753,0,0,0-.594-1.707A1.815,1.815,0,0,0,47.441,7.578Zm6.508-1.031.039.938A3.122,3.122,0,0,1,56.5,6.391,2.417,2.417,0,0,1,58.91,7.75a3.2,3.2,0,0,1,1.1-.984,3.242,3.242,0,0,1,1.6-.375q2.781,0,2.828,2.945V15H62.988V9.422a1.941,1.941,0,0,0-.414-1.355,1.823,1.823,0,0,0-1.391-.449,1.917,1.917,0,0,0-1.336.48,1.949,1.949,0,0,0-.617,1.293V15H57.777V9.461a1.613,1.613,0,0,0-1.8-1.844,1.934,1.934,0,0,0-1.945,1.211V15H52.582V6.547ZM71.832,15a3.036,3.036,0,0,1-.2-.891,3.225,3.225,0,0,1-2.406,1.047,2.984,2.984,0,0,1-2.051-.707,2.288,2.288,0,0,1-.8-1.793,2.39,2.39,0,0,1,1-2.051,4.733,4.733,0,0,1,2.824-.73h1.406V9.211A1.623,1.623,0,0,0,71.152,8a1.821,1.821,0,0,0-1.336-.449,2.108,2.108,0,0,0-1.3.391A1.151,1.151,0,0,0,68,8.891H66.543a2,2,0,0,1,.449-1.223,3.066,3.066,0,0,1,1.219-.934A4.1,4.1,0,0,1,69.9,6.391a3.342,3.342,0,0,1,2.289.73,2.635,2.635,0,0,1,.859,2.012v3.891a4.757,4.757,0,0,0,.3,1.852V15Zm-2.4-1.1a2.54,2.54,0,0,0,1.289-.352,2.127,2.127,0,0,0,.883-.914V10.9H70.473q-2.656,0-2.656,1.555a1.316,1.316,0,0,0,.453,1.063A1.742,1.742,0,0,0,69.434,13.9ZM70.77,3.016h1.75l-2.094,2.3-1.164,0ZM77.277,4.5V6.547h1.578V7.664H77.277v5.249a1.173,1.173,0,0,0,.211.763.888.888,0,0,0,.719.254,3.5,3.5,0,0,0,.688-.094V15a4.215,4.215,0,0,1-1.109.155,1.8,1.8,0,0,1-1.461-.586,2.517,2.517,0,0,1-.492-1.664V7.664H74.293V6.547h1.539V4.5ZM82.113,15H80.668V6.547h1.445ZM80.551,4.3a.863.863,0,0,1,.215-.594.807.807,0,0,1,.637-.242.819.819,0,0,1,.641.242.854.854,0,0,1,.219.594.826.826,0,0,1-.219.586.834.834,0,0,1-.641.234.821.821,0,0,1-.637-.234A.834.834,0,0,1,80.551,4.3Zm7.266,9.672a2.082,2.082,0,0,0,1.352-.469,1.649,1.649,0,0,0,.641-1.172h1.367a2.621,2.621,0,0,1-.5,1.383,3.293,3.293,0,0,1-1.23,1.047,3.55,3.55,0,0,1-1.629.391A3.482,3.482,0,0,1,85.07,14a4.59,4.59,0,0,1-1.02-3.152v-.242a5.089,5.089,0,0,1,.453-2.2,3.451,3.451,0,0,1,1.3-1.492,3.7,3.7,0,0,1,2-.531,3.39,3.39,0,0,1,2.363.852,3.043,3.043,0,0,1,1,2.211H89.809a1.992,1.992,0,0,0-.621-1.348,1.932,1.932,0,0,0-1.379-.527,2.023,2.023,0,0,0-1.707.793,3.724,3.724,0,0,0-.605,2.293v.273a3.65,3.65,0,0,0,.6,2.25A2.033,2.033,0,0,0,87.816,13.977Zm4.6-3.281a4.993,4.993,0,0,1,.488-2.234A3.643,3.643,0,0,1,94.266,6.93a3.7,3.7,0,0,1,1.988-.539,3.565,3.565,0,0,1,2.793,1.2,4.6,4.6,0,0,1,1.066,3.18v.1a5.036,5.036,0,0,1-.473,2.215,3.589,3.589,0,0,1-1.352,1.527,3.743,3.743,0,0,1-2.02.547,3.556,3.556,0,0,1-2.785-1.2A4.575,4.575,0,0,1,92.418,10.8Zm1.453.172a3.616,3.616,0,0,0,.652,2.258,2.211,2.211,0,0,0,3.5-.012,3.955,3.955,0,0,0,.648-2.418,3.61,3.61,0,0,0-.66-2.254,2.1,2.1,0,0,0-1.754-.863,2.075,2.075,0,0,0-1.727.852A3.925,3.925,0,0,0,93.871,10.867Z" transform="translate(885 7180)" fill="#12263f"/>
  </g>
</svg>
