<svg xmlns="http://www.w3.org/2000/svg" xmlns:xlink="http://www.w3.org/1999/xlink" width="295" height="208" viewBox="0 0 295 208">
  <defs>
    <clipPath id="clip-path">
      <rect id="Rectángulo_351243" data-name="Rectángulo 351243" width="271.76" height="143.7" fill="none"/>
    </clipPath>
    <clipPath id="clip-path-3">
      <rect id="Rectángulo_351210" data-name="Rectángulo 351210" width="9.212" height="7.181" fill="none"/>
    </clipPath>
    <clipPath id="clip-path-4">
      <rect id="Rectángulo_351211" data-name="Rectángulo 351211" width="12.308" height="12.308" fill="none"/>
    </clipPath>
    <clipPath id="clip-path-5">
      <rect id="Rectángulo_351212" data-name="Rectángulo 351212" width="12.142" height="12.142" fill="none"/>
    </clipPath>
    <clipPath id="clip-path-6">
      <rect id="Rectángulo_351213" data-name="Rectángulo 351213" width="4.652" height="7.403" fill="none"/>
    </clipPath>
    <clipPath id="clip-path-7">
      <rect id="Rectángulo_351214" data-name="Rectángulo 351214" width="3.501" height="4.499" fill="none"/>
    </clipPath>
    <clipPath id="clip-path-8">
      <rect id="Rectángulo_351215" data-name="Rectángulo 351215" width="5.976" height="5.976" fill="none"/>
    </clipPath>
    <clipPath id="clip-path-9">
      <rect id="Rectángulo_351216" data-name="Rectángulo 351216" width="5.896" height="5.896" fill="none"/>
    </clipPath>
    <clipPath id="clip-path-10">
      <rect id="Rectángulo_351217" data-name="Rectángulo 351217" width="2.204" height="3.599" fill="none"/>
    </clipPath>
    <clipPath id="clip-path-11">
      <rect id="Rectángulo_351219" data-name="Rectángulo 351219" width="4.313" height="3.717" fill="none"/>
    </clipPath>
    <clipPath id="clip-path-12">
      <rect id="Rectángulo_351227" data-name="Rectángulo 351227" width="4.313" height="3.716" fill="none"/>
    </clipPath>
    <clipPath id="clip-path-13">
      <rect id="Rectángulo_351228" data-name="Rectángulo 351228" width="116.409" height="6.582" fill="none"/>
    </clipPath>
    <clipPath id="clip-path-14">
      <rect id="Rectángulo_351229" data-name="Rectángulo 351229" width="20.376" height="16.878" fill="none"/>
    </clipPath>
    <clipPath id="clip-path-15">
      <rect id="Rectángulo_351231" data-name="Rectángulo 351231" width="13.374" height="10.609" fill="none"/>
    </clipPath>
    <clipPath id="clip-path-16">
      <rect id="Rectángulo_351233" data-name="Rectángulo 351233" width="14.689" height="4.843" fill="none"/>
    </clipPath>
    <clipPath id="clip-path-17">
      <rect id="Rectángulo_351234" data-name="Rectángulo 351234" width="15.11" height="1.341" fill="none"/>
    </clipPath>
    <clipPath id="clip-path-18">
      <rect id="Rectángulo_351241" data-name="Rectángulo 351241" width="7.363" height="3.098" fill="none"/>
    </clipPath>
  </defs>
  <g id="Grupo_1008636" data-name="Grupo 1008636" transform="translate(-1125 -825)">
    <rect id="Rectángulo_346052" data-name="Rectángulo 346052" width="295" height="208" transform="translate(1125 825)" fill="none"/>
    <g id="Grupo_1008635" data-name="Grupo 1008635" transform="translate(1137 857)">
      <g id="Grupo_1008634" data-name="Grupo 1008634" clip-path="url(#clip-path)">
        <g id="Grupo_1008633" data-name="Grupo 1008633">
          <g id="Grupo_1008632" data-name="Grupo 1008632" clip-path="url(#clip-path)">
            <path id="Trazado_720767" data-name="Trazado 720767" d="M266.944,375.772c0,.055-57.116.1-127.557.1-70.465,0-127.569-.044-127.569-.1s57.1-.1,127.569-.1c70.44,0,127.557.044,127.557.1" transform="translate(-7.308 -232.275)" fill="#263238"/>
            <path id="Trazado_720768" data-name="Trazado 720768" d="M671.21,71.354a8.094,8.094,0,1,1-6.795-9.211,8.094,8.094,0,0,1,6.795,9.211" transform="translate(-405.049 -38.365)" fill="#00bcd4"/>
            <g id="Grupo_1008586" data-name="Grupo 1008586" transform="translate(250.154 23.685)" opacity="0.1">
              <g id="Grupo_1008585" data-name="Grupo 1008585">
                <g id="Grupo_1008584" data-name="Grupo 1008584" clip-path="url(#clip-path-3)">
                  <path id="Trazado_720769" data-name="Trazado 720769" d="M664.564,62.142a8.094,8.094,0,0,0-9.211,6.795s5.586,1.1,7.28-.96,1.931-5.835,1.931-5.835" transform="translate(-655.352 -62.05)" fill="#fff"/>
                </g>
              </g>
            </g>
            <path id="Trazado_720770" data-name="Trazado 720770" d="M672.152,73.826a6.153,6.153,0,1,1-5.165-7,6.153,6.153,0,0,1,5.165,7" transform="translate(-408.018 -41.273)" fill="#00bcd4"/>
            <g id="Grupo_1008589" data-name="Grupo 1008589" transform="translate(251.896 25.481)" opacity="0.2">
              <g id="Grupo_1008588" data-name="Grupo 1008588">
                <g id="Grupo_1008587" data-name="Grupo 1008587" clip-path="url(#clip-path-4)">
                  <path id="Trazado_720771" data-name="Trazado 720771" d="M672.152,73.826a6.153,6.153,0,1,1-5.165-7,6.153,6.153,0,0,1,5.165,7" transform="translate(-659.914 -66.754)"/>
                </g>
              </g>
            </g>
            <path id="Trazado_720772" data-name="Trazado 720772" d="M672.768,74.712a6.07,6.07,0,1,1-5.1-6.909,6.07,6.07,0,0,1,5.1,6.909" transform="translate(-408.501 -41.88)" fill="#00bcd4"/>
            <g id="Grupo_1008592" data-name="Grupo 1008592" transform="translate(252.194 25.855)" opacity="0.2">
              <g id="Grupo_1008591" data-name="Grupo 1008591">
                <g id="Grupo_1008590" data-name="Grupo 1008590" clip-path="url(#clip-path-5)">
                  <path id="Trazado_720773" data-name="Trazado 720773" d="M672.768,74.712a6.07,6.07,0,1,1-5.1-6.909,6.07,6.07,0,0,1,5.1,6.909" transform="translate(-660.695 -67.735)" fill="#fff"/>
                </g>
              </g>
            </g>
            <path id="Trazado_720774" data-name="Trazado 720774" d="M672.8,76.775l.232-1.536h.008a3.188,3.188,0,0,1,.784.336,2.6,2.6,0,0,1,.346.3l.027-.044.321-.517.074-.119-.231-.329-.141.039a2.907,2.907,0,0,0-1.064-.489l.128-.845-.231-.252-.032.212-.361-.054-.13.86c-1.2-.065-1.869.527-1.986,1.3-.16,1.058.7,1.468,1.518,1.8l-.23,1.521a2.957,2.957,0,0,1-1.435-.808l-.458.717a3.37,3.37,0,0,0,1.769.913l-.1.637-.3-.039.267.246.623.094.129-.852c1.213.059,1.884-.524,2-1.3.16-1.057-.721-1.463-1.534-1.8m-.6-.254c-.422-.2-.724-.413-.668-.778.051-.334.32-.574.873-.576Zm.832-1.283Zm-.574,3.8.2-1.347c.437.2.746.424.689.8-.05.327-.324.55-.892.55" transform="translate(-414.214 -45.333)" fill="#00bcd4"/>
            <g id="Grupo_1008595" data-name="Grupo 1008595" transform="translate(255.722 27.987)" opacity="0.3">
              <g id="Grupo_1008594" data-name="Grupo 1008594">
                <g id="Grupo_1008593" data-name="Grupo 1008593" clip-path="url(#clip-path-6)">
                  <path id="Trazado_720775" data-name="Trazado 720775" d="M672.8,76.775l.232-1.536h.008a3.188,3.188,0,0,1,.784.336,2.6,2.6,0,0,1,.346.3l.027-.044.321-.517.074-.119-.231-.329-.141.039a2.907,2.907,0,0,0-1.064-.489l.128-.845-.231-.252-.032.212-.361-.054-.13.86c-1.2-.065-1.869.527-1.986,1.3-.16,1.058.7,1.468,1.518,1.8l-.23,1.521a2.957,2.957,0,0,1-1.435-.808l-.458.717a3.37,3.37,0,0,0,1.769.913l-.1.637-.3-.039.267.246.623.094.129-.852c1.213.059,1.884-.524,2-1.3.16-1.057-.721-1.463-1.534-1.8m-.6-.254c-.422-.2-.724-.413-.668-.778.051-.334.32-.574.873-.576Zm.832-1.283Zm-.574,3.8.2-1.347c.437.2.746.424.689.8-.05.327-.324.55-.892.55" transform="translate(-669.936 -73.32)"/>
                </g>
              </g>
            </g>
            <path id="Trazado_720776" data-name="Trazado 720776" d="M671.736,79.477l-.129.852-.624-.094.127-.844a3.37,3.37,0,0,1-1.769-.913l.458-.717a2.953,2.953,0,0,0,1.434.808l.23-1.522c-.814-.333-1.678-.744-1.518-1.8.117-.776.782-1.368,1.987-1.3l.13-.86.624.094-.128.845a3.3,3.3,0,0,1,1.475.7l-.428.721a3.193,3.193,0,0,0-1.171-.6L672.2,76.38c.813.333,1.694.739,1.534,1.8-.117.776-.789,1.36-2,1.3m-.132-3.351.2-1.355c-.553,0-.823.242-.873.577-.055.365.247.582.668.778m1.15,1.972c.056-.373-.252-.6-.689-.8l-.2,1.347c.568,0,.843-.223.892-.55" transform="translate(-413.847 -45.186)" fill="#00bcd4"/>
            <path id="Trazado_720777" data-name="Trazado 720777" d="M671.631,78.243a.51.51,0,0,1-.15-.2.952.952,0,0,1,.213-1.132.51.51,0,0,1,.213-.134c.005.009-.079.056-.184.165a.987.987,0,0,0-.2,1.084c.058.139.12.213.111.22" transform="translate(-415.108 -47.469)" fill="#fff"/>
            <path id="Trazado_720778" data-name="Trazado 720778" d="M676.5,74.245a1.079,1.079,0,1,1,.068-.246.557.557,0,0,1-.068.246" transform="translate(-418.267 -45.596)" fill="#fff"/>
            <path id="Trazado_720779" data-name="Trazado 720779" d="M622.535,92.561a3.93,3.93,0,1,1-4.5-3.263,3.93,3.93,0,0,1,4.5,3.263" transform="translate(-380.077 -55.182)" fill="#00bcd4"/>
            <g id="Grupo_1008598" data-name="Grupo 1008598" transform="translate(234.647 34.117)" opacity="0.1">
              <g id="Grupo_1008597" data-name="Grupo 1008597">
                <g id="Grupo_1008596" data-name="Grupo 1008596" clip-path="url(#clip-path-7)">
                  <path id="Trazado_720780" data-name="Trazado 720780" d="M618.037,89.378a3.929,3.929,0,0,0-3.263,4.5s2.746-.312,3.228-1.515a5.879,5.879,0,0,0,.036-2.984" transform="translate(-614.724 -89.378)" fill="#fff"/>
                </g>
              </g>
            </g>
            <path id="Trazado_720781" data-name="Trazado 720781" d="M622.945,94.1a2.987,2.987,0,1,1-3.42-2.481,2.987,2.987,0,0,1,3.42,2.481" transform="translate(-381.489 -56.625)" fill="#00bcd4"/>
            <g id="Grupo_1008601" data-name="Grupo 1008601" transform="translate(235.518 34.958)" opacity="0.2">
              <g id="Grupo_1008600" data-name="Grupo 1008600">
                <g id="Grupo_1008599" data-name="Grupo 1008599" clip-path="url(#clip-path-8)">
                  <path id="Trazado_720782" data-name="Trazado 720782" d="M622.945,94.1a2.987,2.987,0,1,1-3.42-2.481,2.987,2.987,0,0,1,3.42,2.481" transform="translate(-617.006 -91.583)"/>
                </g>
              </g>
            </g>
            <path id="Trazado_720783" data-name="Trazado 720783" d="M623.343,94.443A2.947,2.947,0,1,1,619.969,92a2.947,2.947,0,0,1,3.374,2.448" transform="translate(-381.784 -56.857)" fill="#00bcd4"/>
            <g id="Grupo_1008604" data-name="Grupo 1008604" transform="translate(235.7 35.101)" opacity="0.2">
              <g id="Grupo_1008603" data-name="Grupo 1008603">
                <g id="Grupo_1008602" data-name="Grupo 1008602" clip-path="url(#clip-path-9)">
                  <path id="Trazado_720784" data-name="Trazado 720784" d="M623.343,94.443A2.947,2.947,0,1,1,619.969,92a2.947,2.947,0,0,1,3.374,2.448" transform="translate(-617.485 -91.958)" fill="#fff"/>
                </g>
              </g>
            </g>
            <path id="Trazado_720785" data-name="Trazado 720785" d="M623.429,96.323l-.119-.745h0a1.545,1.545,0,0,1,.412.04,1.262,1.262,0,0,1,.2.087l.006-.025.072-.286.017-.066-.155-.118-.059.039a1.419,1.419,0,0,0-.564-.07l-.065-.41-.144-.082.016.1-.175.028.066.417c-.567.147-.787.519-.728.9.082.513.542.576.967.61l.118.738a1.435,1.435,0,0,1-.783-.163l-.107.4a1.635,1.635,0,0,0,.953.162l.049.31-.144.025.16.075.3-.048-.066-.413c.57-.152.795-.52.735-.9-.082-.513-.549-.571-.974-.605m-.315-.029c-.224-.029-.4-.085-.424-.262s.064-.313.319-.4Zm.2-.716Zm.294,1.845-.1-.653c.231.027.407.087.436.268.025.158-.069.3-.332.386" transform="translate(-384.705 -58.544)" fill="#00bcd4"/>
            <g id="Grupo_1008607" data-name="Grupo 1008607" transform="translate(237.503 36.143)" opacity="0.3">
              <g id="Grupo_1008606" data-name="Grupo 1008606">
                <g id="Grupo_1008605" data-name="Grupo 1008605" clip-path="url(#clip-path-10)">
                  <path id="Trazado_720786" data-name="Trazado 720786" d="M623.429,96.323l-.119-.745h0a1.545,1.545,0,0,1,.412.04,1.262,1.262,0,0,1,.2.087l.006-.025.072-.286.017-.066-.155-.118-.059.039a1.419,1.419,0,0,0-.564-.07l-.065-.41-.144-.082.016.1-.175.028.066.417c-.567.147-.787.519-.728.9.082.513.542.576.967.61l.118.738a1.435,1.435,0,0,1-.783-.163l-.107.4a1.635,1.635,0,0,0,.953.162l.049.31-.144.025.16.075.3-.048-.066-.413c.57-.152.795-.52.735-.9-.082-.513-.549-.571-.974-.605m-.315-.029c-.224-.029-.4-.085-.424-.262s.064-.313.319-.4Zm.2-.716Zm.294,1.845-.1-.653c.231.027.407.087.436.268.025.158-.069.3-.332.386" transform="translate(-622.208 -94.687)"/>
                </g>
              </g>
            </g>
            <path id="Trazado_720787" data-name="Trazado 720787" d="M623.3,97.743l.066.413-.3.048L623,97.8a1.636,1.636,0,0,1-.953-.162l.107-.4a1.434,1.434,0,0,0,.783.163l-.117-.738c-.426-.034-.886-.1-.967-.61-.06-.376.161-.748.728-.9l-.066-.417.3-.048.065.41a1.6,1.6,0,0,1,.785.106l-.092.4a1.551,1.551,0,0,0-.629-.1l.119.745c.425.034.892.092.974.605.06.376-.165.745-.735.9m-.554-1.531-.1-.657c-.256.082-.345.233-.32.4s.2.233.424.262m.822.743c-.029-.181-.2-.24-.436-.267l.1.653c.263-.084.357-.227.332-.386" transform="translate(-384.476 -58.545)" fill="#00bcd4"/>
            <path id="Trazado_720788" data-name="Trazado 720788" d="M622.28,97.789a.252.252,0,0,1-.1-.071.462.462,0,0,1-.068-.555.25.25,0,0,1,.078-.094s-.028.037-.061.1a.478.478,0,0,0,.065.531c.047.056.087.081.084.086" transform="translate(-384.607 -60.017)" fill="#fff"/>
            <path id="Trazado_720789" data-name="Trazado 720789" d="M623.837,95.328a.515.515,0,0,1-.039-.243.527.527,0,0,1,.039.243" transform="translate(-385.685 -58.79)" fill="#fff"/>
            <path id="Trazado_720790" data-name="Trazado 720790" d="M203.71.5l-2.393,14.006v129.3H317.726V135.59Z" transform="translate(-124.472 -0.309)" fill="#00bcd4"/>
            <path id="Trazado_720791" data-name="Trazado 720791" d="M319.6,137.225H207.585V.5H319.6a4.655,4.655,0,0,1,4.655,4.655V132.57a4.655,4.655,0,0,1-4.655,4.655" transform="translate(-128.348 -0.309)" fill="#00bcd4"/>
            <path id="Trazado_720792" data-name="Trazado 720792" d="M319.292,137.107H207.086V0H319.292a4.851,4.851,0,0,1,4.846,4.846V132.26a4.851,4.851,0,0,1-4.846,4.846m-111.825-.382H319.292a4.47,4.47,0,0,0,4.465-4.464V4.846A4.47,4.47,0,0,0,319.292.382H207.468Z" transform="translate(-128.039)" fill="#263238"/>
            <path id="Trazado_720793" data-name="Trazado 720793" d="M318.645,10.744l6.464,10.778V139.5l-100.711-1-5.515-5.7Z" transform="translate(-135.333 -6.643)" fill="#e0e0e0"/>
            <rect id="Rectángulo_351218" data-name="Rectángulo 351218" width="99.762" height="122.571" transform="translate(83.55 3.583)" fill="#fff"/>
            <path id="Trazado_720794" data-name="Trazado 720794" d="M318.485,131.8c0-.775-.036-49.672-.089-122.571l.089.088-99.751.011h-.01l.1-.1c-.006,45.344-.012,87.512-.016,122.571l-.083-.083,99.762.083-99.762.083h-.083V131.8c0-35.058-.011-77.227-.016-122.571v-.1h.11l99.751.011h.089v.089c-.053,72.9-.088,121.8-.089,122.571" transform="translate(-135.173 -5.643)" fill="#263238"/>
            <path id="Trazado_720795" data-name="Trazado 720795" d="M243.63,113.48a2.274,2.274,0,1,1-2.264-2.494,2.388,2.388,0,0,1,2.264,2.494" transform="translate(-147.835 -68.621)" fill="#263238"/>
            <g id="Grupo_1008610" data-name="Grupo 1008610" transform="translate(79.238 58.739)" opacity="0.3">
              <g id="Grupo_1008609" data-name="Grupo 1008609">
                <g id="Grupo_1008608" data-name="Grupo 1008608" clip-path="url(#clip-path-11)">
                  <path id="Trazado_720796" data-name="Trazado 720796" d="M207.586,157.6H211.9l-.011-3.716h-4.3Z" transform="translate(-207.586 -153.884)"/>
                </g>
              </g>
            </g>
            <path id="Trazado_720797" data-name="Trazado 720797" d="M190.973,85.165a13.25,13.25,0,1,0,.074,26.488h2.167l-.032-3.14-2.135.087c-5.975,0-10.91-4.571-10.91-10.191s4.861-10.19,10.836-10.19,10.836,4.571,10.836,10.19a1.392,1.392,0,1,0,2.771,0,13.445,13.445,0,0,0-13.608-13.243" transform="translate(-109.664 -52.657)" fill="#e0e0e0"/>
            <path id="Trazado_720798" data-name="Trazado 720798" d="M190.875,85.164s.109,0,.322.006l.947.037c.415.037.924.119,1.526.211a15.286,15.286,0,0,1,2.022.579,13.947,13.947,0,0,1,4.863,3.037l.588.627c.1.108.2.211.3.324l.274.355c.18.241.38.474.552.732l.5.8a13.538,13.538,0,0,1,1.478,3.753,13.36,13.36,0,0,1,.277,2.16,3.174,3.174,0,0,1-.045,1.138,1.567,1.567,0,0,1-.729.919,1.357,1.357,0,0,1-1.194.057,1.539,1.539,0,0,1-.822-.9,1.871,1.871,0,0,1-.1-.619q-.017-.3-.033-.6a8.684,8.684,0,0,0-.155-1.213,9.929,9.929,0,0,0-2.234-4.524,10.74,10.74,0,0,0-1.993-1.766,11.549,11.549,0,0,0-1.163-.708c-.2-.105-.416-.192-.624-.289a4.944,4.944,0,0,0-.641-.261l-.659-.227c-.223-.066-.453-.113-.679-.17a11.791,11.791,0,0,0-1.393-.24,11.961,11.961,0,0,0-4.3.375c-.236.066-.465.156-.7.233l-.349.121-.337.152a10.526,10.526,0,0,0-2.546,1.555,10.03,10.03,0,0,0-2.04,2.245,9.259,9.259,0,0,0-1.288,2.8,8.608,8.608,0,0,0-.332,3.1,8.939,8.939,0,0,0,.709,3.081A10.53,10.53,0,0,0,186,107.362a10.786,10.786,0,0,0,3.5,1.035,6.461,6.461,0,0,0,.9.077,7.03,7.03,0,0,0,.9.013l1.786-.072.1,0v.1q.015,1.6.03,3.14v.1h-.1c-.805-.005-1.6.01-2.393-.013l-1.186-.06-1.163-.174a14.361,14.361,0,0,1-4.289-1.561c-.318-.2-.652-.365-.952-.581l-.893-.647-.82-.717a3.6,3.6,0,0,1-.386-.377l-.367-.391a13.269,13.269,0,0,1-2.3-3.451c-.158-.3-.249-.624-.376-.931l-.176-.465-.129-.476c-.078-.318-.181-.628-.237-.945l-.149-.947a12.8,12.8,0,0,1,.075-3.66,12.131,12.131,0,0,1,.384-1.692,7.107,7.107,0,0,1,.278-.795c.1-.257.182-.523.306-.765a13.271,13.271,0,0,1,.749-1.407l.409-.652c.142-.21.3-.4.453-.6a13.5,13.5,0,0,1,3.973-3.454c.168-.1.329-.2.494-.285l.5-.232a8.308,8.308,0,0,1,.949-.407l.891-.314c.287-.084.567-.144.828-.21a10.059,10.059,0,0,1,1.4-.257c.2-.026.391-.063.565-.073l.47-.019.636-.023c.143,0,.215,0,.215,0s-.073.009-.215.019l-.634.039-.468.027c-.173.013-.358.052-.562.081a10.328,10.328,0,0,0-1.394.271c-.259.069-.536.13-.821.216l-.883.319a8.26,8.26,0,0,0-.94.412l-.493.233c-.164.086-.323.189-.489.286a13.458,13.458,0,0,0-3.925,3.447c-.146.2-.306.387-.446.6l-.4.648a13.144,13.144,0,0,0-.737,1.4c-.121.24-.2.5-.3.759a7.035,7.035,0,0,0-.272.787,11.954,11.954,0,0,0-.374,1.675,12.665,12.665,0,0,0-.064,3.618l.15.936c.056.313.159.619.237.933l.128.47.175.458c.126.3.216.624.373.919a13.114,13.114,0,0,0,2.277,3.4l.363.386a3.5,3.5,0,0,0,.382.371l.81.707.883.637c.3.212.626.378.941.572a14.194,14.194,0,0,0,4.235,1.535l1.148.17,1.17.058c.787.021,1.586,0,2.39.01l-.1.1q-.016-1.545-.032-3.14l.1.1-1.789.073a7.166,7.166,0,0,1-.909-.012,6.621,6.621,0,0,1-.915-.077,10.974,10.974,0,0,1-3.56-1.052,10.719,10.719,0,0,1-5.221-5.428,9.141,9.141,0,0,1-.724-3.146,8.813,8.813,0,0,1,.34-3.168,9.453,9.453,0,0,1,1.315-2.852,10.233,10.233,0,0,1,2.08-2.286A10.733,10.733,0,0,1,186.3,89.08l.344-.154L187,88.8c.237-.079.471-.17.71-.237a12.149,12.149,0,0,1,4.369-.377,12.07,12.07,0,0,1,1.415.245c.231.059.464.107.691.174l.669.231a4.964,4.964,0,0,1,.651.266c.212.1.428.188.634.3a11.68,11.68,0,0,1,1.181.721,10.913,10.913,0,0,1,2.023,1.8,10.087,10.087,0,0,1,2.263,4.607,8.827,8.827,0,0,1,.156,1.234l.032.613a1.7,1.7,0,0,0,.094.566,1.382,1.382,0,0,0,.734.813,1.2,1.2,0,0,0,1.057-.048,1.415,1.415,0,0,0,.66-.829,3.077,3.077,0,0,0,.041-1.087,13.263,13.263,0,0,0-.267-2.136,13.453,13.453,0,0,0-1.45-3.72l-.495-.795c-.169-.257-.366-.488-.543-.728l-.27-.353c-.094-.113-.2-.216-.295-.323l-.581-.624a13.943,13.943,0,0,0-4.812-3.044,15.508,15.508,0,0,0-2.007-.593c-.6-.1-1.105-.186-1.518-.229l-.944-.056c-.213-.014-.322-.026-.322-.026" transform="translate(-109.565 -52.656)" fill="#263238"/>
            <path id="Trazado_720799" data-name="Trazado 720799" d="M243.63,207.828a2.274,2.274,0,1,1-2.264-2.494,2.388,2.388,0,0,1,2.264,2.494" transform="translate(-147.835 -126.956)" fill="#263238"/>
            <rect id="Rectángulo_351220" data-name="Rectángulo 351220" width="76.848" height="3.217" transform="translate(99.209 34.499)" fill="#00bcd4"/>
            <rect id="Rectángulo_351221" data-name="Rectángulo 351221" width="44.791" height="3.217" transform="translate(99.209 30.556)" fill="#00bcd4"/>
            <rect id="Rectángulo_351222" data-name="Rectángulo 351222" width="44.791" height="3.217" transform="translate(99.209 103.656)" fill="#00bcd4"/>
            <rect id="Rectángulo_351223" data-name="Rectángulo 351223" width="76.944" height="4.692" transform="translate(99.542 23.631)" fill="#e0e0e0"/>
            <rect id="Rectángulo_351224" data-name="Rectángulo 351224" width="76.944" height="4.692" transform="translate(98.714 66.637)" fill="#e0e0e0"/>
            <rect id="Rectángulo_351225" data-name="Rectángulo 351225" width="30.687" height="4.692" transform="translate(99.542 43.528)" fill="#e0e0e0"/>
            <rect id="Rectángulo_351226" data-name="Rectángulo 351226" width="38.366" height="4.692" transform="translate(137.292 43.528)" fill="#e0e0e0"/>
            <path id="Trazado_720800" data-name="Trazado 720800" d="M305.808,84.9c0,.055-9.874.1-22.052.1s-22.054-.044-22.054-.1,9.872-.1,22.054-.1,22.052.045,22.052.1" transform="translate(-161.807 -52.432)" fill="#263238"/>
            <path id="Trazado_720801" data-name="Trazado 720801" d="M337.73,94.572c0,.055-17.07.1-38.121.1s-38.125-.044-38.125-.1,17.066-.1,38.125-.1,38.121.045,38.121.1" transform="translate(-161.673 -58.412)" fill="#263238"/>
            <path id="Trazado_720802" data-name="Trazado 720802" d="M337.73,103.733c0,.055-17.07.1-38.121.1s-38.125-.044-38.125-.1,17.066-.1,38.125-.1,38.121.045,38.121.1" transform="translate(-161.673 -64.076)" fill="#263238"/>
            <path id="Trazado_720803" data-name="Trazado 720803" d="M290.806,133.664c0,.055-6.865.1-15.33.1s-15.332-.044-15.332-.1,6.863-.1,15.332-.1,15.33.045,15.33.1" transform="translate(-160.844 -82.582)" fill="#263238"/>
            <path id="Trazado_720804" data-name="Trazado 720804" d="M291.631,143.105c0,.055-6.751.1-15.076.1s-15.078-.044-15.078-.1,6.749-.1,15.078-.1,15.076.045,15.076.1" transform="translate(-161.669 -88.419)" fill="#263238"/>
            <path id="Trazado_720805" data-name="Trazado 720805" d="M290.884,152.7c0,.055-6.809.1-15.205.1s-15.207-.045-15.207-.1,6.807-.1,15.207-.1,15.205.045,15.205.1" transform="translate(-161.047 -94.352)" fill="#263238"/>
            <path id="Trazado_720806" data-name="Trazado 720806" d="M290.884,162.015c0,.055-6.809.1-15.205.1s-15.207-.045-15.207-.1,6.807-.1,15.207-.1,15.205.044,15.205.1" transform="translate(-161.047 -100.111)" fill="#263238"/>
            <path id="Trazado_720807" data-name="Trazado 720807" d="M407.2,135.878c0,.055-7.11.1-15.878.1s-15.88-.045-15.88-.1,7.109-.1,15.88-.1,15.878.044,15.878.1" transform="translate(-232.131 -83.951)" fill="#263238"/>
            <path id="Trazado_720808" data-name="Trazado 720808" d="M365.323,135.164a5.765,5.765,0,0,1-.04-.66c-.015-.4-.034-.968-.042-1.638l.082.086-2.186.013.094-.1h0v.312c0,.1,0,.206,0,.307q0,.3,0,.594c0,.382-.007.745-.01,1.084l-.082-.086c.638.008,1.174.028,1.559.044a4.946,4.946,0,0,1,.628.042,3.318,3.318,0,0,1-.575.042c-.38.016-.937.036-1.612.044h-.081v-.087c0-.339-.006-.7-.01-1.084q0-.29,0-.594c0-.1,0-.2,0-.307v-.312h0l.095-.1,2.186.013h.082v.085c-.008.708-.026,1.294-.042,1.693a3.8,3.8,0,0,1-.04.6" transform="translate(-224.452 -82.087)" fill="#263238"/>
            <path id="Trazado_720809" data-name="Trazado 720809" d="M407.2,147.442c0,.055-7.11.1-15.878.1s-15.88-.044-15.88-.1,7.109-.1,15.88-.1,15.878.045,15.878.1" transform="translate(-232.131 -91.101)" fill="#263238"/>
            <path id="Trazado_720810" data-name="Trazado 720810" d="M365.323,146.728a5.765,5.765,0,0,1-.04-.66c-.015-.4-.034-.968-.042-1.638l.082.086-2.186.013.094-.1h0v.31c0,.1,0,.206,0,.307q0,.3,0,.594c0,.382-.007.745-.01,1.084l-.082-.086c.638.008,1.174.028,1.559.044a5.033,5.033,0,0,1,.628.042,3.318,3.318,0,0,1-.575.042c-.38.016-.937.035-1.612.044h-.081v-.087c0-.339-.006-.7-.01-1.084q0-.29,0-.594c0-.1,0-.2,0-.307v-.31h0l.095-.1,2.186.013h.082v.085c-.008.708-.026,1.294-.042,1.693a3.8,3.8,0,0,1-.04.6" transform="translate(-224.452 -89.237)" fill="#263238"/>
            <path id="Trazado_720811" data-name="Trazado 720811" d="M407.2,159.005c0,.055-7.11.1-15.878.1s-15.88-.044-15.88-.1,7.109-.1,15.88-.1,15.878.045,15.878.1" transform="translate(-232.131 -98.25)" fill="#263238"/>
            <path id="Trazado_720812" data-name="Trazado 720812" d="M365.323,158.291a5.765,5.765,0,0,1-.04-.66c-.015-.405-.034-.968-.042-1.638l.082.086-2.186.013.094-.1h0v.312c0,.1,0,.206,0,.307q0,.3,0,.594c0,.382-.007.745-.01,1.084l-.082-.086c.638.008,1.174.028,1.559.044a5.034,5.034,0,0,1,.628.042,3.27,3.27,0,0,1-.575.042c-.38.016-.937.035-1.612.044h-.081v-.087c0-.339-.006-.7-.01-1.084q0-.29,0-.594c0-.1,0-.2,0-.307v-.312h0l.095-.1,2.186.013h.082v.085c-.008.708-.026,1.294-.042,1.693a3.8,3.8,0,0,1-.04.6" transform="translate(-224.452 -96.386)" fill="#263238"/>
            <path id="Trazado_720813" data-name="Trazado 720813" d="M335.766,219.411s0-.129-.006-.376,0-.617-.006-1.1c0-.969-.008-2.4-.014-4.258-.008-3.715-.018-9.141-.032-16l.058.061-75.76.039h0l.094-.1c0,7.478,0,14.767,0,21.735l-.092-.1,54.109.044,15.893.027,4.274.013,1.108.006c.25,0,.381.006.381.006s-.123,0-.369.006l-1.1.006-4.254.013-15.872.027L260,219.508h-.092v-.1c0-6.967,0-14.256,0-21.735v-.1h.1l75.76.038h.058v.061c-.014,6.876-.025,12.315-.032,16.038-.006,1.853-.011,3.278-.014,4.244,0,.477,0,.841-.006,1.088s-.006.364-.006.364" transform="translate(-160.698 -122.16)" fill="#263238"/>
            <path id="Trazado_720814" data-name="Trazado 720814" d="M336.262,212.006c0,.055-16.914.1-37.774.1s-37.778-.044-37.778-.1,16.911-.1,37.778-.1,37.774.045,37.774.1" transform="translate(-161.194 -131.02)" fill="#263238"/>
            <path id="Trazado_720815" data-name="Trazado 720815" d="M336.262,226.146c0,.055-16.914.1-37.774.1s-37.778-.045-37.778-.1,16.911-.1,37.778-.1,37.774.044,37.774.1" transform="translate(-161.194 -139.762)" fill="#263238"/>
            <path id="Trazado_720816" data-name="Trazado 720816" d="M336.262,240.44c0,.055-16.914.1-37.774.1s-37.778-.045-37.778-.1,16.911-.1,37.778-.1,37.774.044,37.774.1" transform="translate(-161.194 -148.6)" fill="#263238"/>
            <path id="Trazado_720817" data-name="Trazado 720817" d="M283.073,219.7c-.052,0-.094-4.916-.094-10.98s.042-10.98.094-10.98.094,4.915.094,10.98-.042,10.98-.094,10.98" transform="translate(-174.963 -122.264)" fill="#263238"/>
            <path id="Trazado_720818" data-name="Trazado 720818" d="M350.193,219.579c-.052,0-.094-4.695-.094-10.484s.042-10.485.094-10.485.094,4.694.094,10.485-.042,10.484-.094,10.484" transform="translate(-216.463 -122.799)" fill="#263238"/>
            <path id="Trazado_720819" data-name="Trazado 720819" d="M420.916,221.1c-.052,0-.094-4.842-.094-10.814s.042-10.815.094-10.815.094,4.841.094,10.815-.042,10.814-.094,10.814" transform="translate(-260.19 -123.333)" fill="#263238"/>
            <path id="Trazado_720820" data-name="Trazado 720820" d="M334.995,267.378c0,.055-16.544.1-36.947.1s-36.95-.044-36.95-.1,16.54-.1,36.95-.1,36.947.045,36.947.1" transform="translate(-161.434 -165.256)" fill="#263238"/>
            <path id="Trazado_720821" data-name="Trazado 720821" d="M334.995,275.608c0,.055-16.544.1-36.947.1s-36.95-.045-36.95-.1,16.54-.1,36.95-.1,36.947.045,36.947.1" transform="translate(-161.434 -170.344)" fill="#263238"/>
            <path id="Trazado_720822" data-name="Trazado 720822" d="M287.988,283.838c0,.055-6.02.1-13.445.1s-13.446-.044-13.446-.1,6.019-.1,13.446-.1,13.445.045,13.445.1" transform="translate(-161.434 -175.433)" fill="#263238"/>
            <g id="Grupo_1008613" data-name="Grupo 1008613" transform="translate(79.238 93.632)" opacity="0.3">
              <g id="Grupo_1008612" data-name="Grupo 1008612">
                <g id="Grupo_1008611" data-name="Grupo 1008611" clip-path="url(#clip-path-12)">
                  <path id="Trazado_720823" data-name="Trazado 720823" d="M207.586,249.011H211.9l-.011-3.716h-4.3Z" transform="translate(-207.586 -245.295)"/>
                </g>
              </g>
            </g>
            <path id="Trazado_720824" data-name="Trazado 720824" d="M190.973,178.791a13.25,13.25,0,1,0,.074,26.488h2.167l-.032-3.14-2.135.087c-5.975,0-10.91-4.571-10.91-10.191s4.861-10.19,10.836-10.19,10.836,4.571,10.836,10.19a1.392,1.392,0,1,0,2.771,0,13.444,13.444,0,0,0-13.608-13.243" transform="translate(-109.664 -110.545)" fill="#e0e0e0"/>
            <path id="Trazado_720825" data-name="Trazado 720825" d="M190.875,178.79s.109,0,.322.006l.947.037c.415.037.924.119,1.526.211a15.286,15.286,0,0,1,2.022.579,13.947,13.947,0,0,1,4.863,3.037l.588.627c.1.108.2.211.3.324l.274.355c.18.241.38.474.552.732l.5.8a13.538,13.538,0,0,1,1.478,3.753,13.36,13.36,0,0,1,.277,2.16,3.176,3.176,0,0,1-.045,1.138,1.567,1.567,0,0,1-.729.919,1.356,1.356,0,0,1-1.194.057,1.539,1.539,0,0,1-.822-.9,1.869,1.869,0,0,1-.1-.619q-.017-.3-.033-.6a8.685,8.685,0,0,0-.155-1.213,9.929,9.929,0,0,0-2.234-4.524,10.741,10.741,0,0,0-1.993-1.766,11.555,11.555,0,0,0-1.163-.708c-.2-.105-.416-.192-.624-.289a4.947,4.947,0,0,0-.641-.261l-.659-.227c-.223-.066-.453-.113-.679-.17a11.794,11.794,0,0,0-1.393-.24,11.961,11.961,0,0,0-4.3.375c-.236.066-.465.156-.7.233l-.349.121-.337.152a10.526,10.526,0,0,0-2.546,1.555,10.038,10.038,0,0,0-2.04,2.245,9.26,9.26,0,0,0-1.288,2.8,8.608,8.608,0,0,0-.332,3.1,8.939,8.939,0,0,0,.709,3.081A10.528,10.528,0,0,0,186,200.988a10.786,10.786,0,0,0,3.5,1.035,6.463,6.463,0,0,0,.9.077,7.033,7.033,0,0,0,.9.013l1.786-.072.1,0v.1q.015,1.6.03,3.14v.1h-.1c-.805-.005-1.6.01-2.393-.013l-1.186-.06-1.163-.174a14.36,14.36,0,0,1-4.289-1.561c-.318-.2-.652-.365-.952-.581l-.893-.647-.82-.717a3.6,3.6,0,0,1-.386-.377l-.367-.391a13.269,13.269,0,0,1-2.3-3.451c-.158-.3-.249-.624-.376-.931l-.176-.465-.129-.476c-.078-.318-.181-.628-.237-.945l-.149-.947a12.8,12.8,0,0,1,.075-3.66,12.132,12.132,0,0,1,.384-1.692,7.108,7.108,0,0,1,.278-.795c.1-.257.182-.523.306-.765a13.31,13.31,0,0,1,.749-1.407l.409-.652c.142-.21.3-.4.453-.6a13.5,13.5,0,0,1,3.973-3.454c.168-.1.329-.2.494-.285l.5-.232a8.378,8.378,0,0,1,.949-.408l.891-.314c.287-.084.567-.144.828-.21a10.061,10.061,0,0,1,1.4-.257c.2-.026.391-.063.565-.073l.47-.019.636-.023c.143,0,.215,0,.215,0s-.073.009-.215.019l-.634.04-.468.027c-.173.013-.358.052-.562.081a10.331,10.331,0,0,0-1.394.271c-.259.069-.536.13-.821.216l-.883.319a8.257,8.257,0,0,0-.94.412l-.493.233c-.164.086-.323.189-.489.286a13.459,13.459,0,0,0-3.925,3.447c-.146.2-.306.387-.446.6l-.4.648a13.144,13.144,0,0,0-.737,1.4c-.121.24-.2.5-.3.759a7.035,7.035,0,0,0-.272.787,11.954,11.954,0,0,0-.374,1.675,12.665,12.665,0,0,0-.064,3.618l.15.936c.056.313.159.619.237.933l.128.47.175.458c.126.3.216.624.373.919a13.113,13.113,0,0,0,2.277,3.4l.363.386a3.5,3.5,0,0,0,.382.371l.81.707.883.637c.3.212.626.378.941.572a14.194,14.194,0,0,0,4.235,1.535l1.148.17,1.17.058c.787.021,1.586,0,2.39.01l-.1.1q-.016-1.545-.032-3.14l.1.1-1.789.073a7.163,7.163,0,0,1-.909-.012,6.624,6.624,0,0,1-.915-.077,10.975,10.975,0,0,1-3.56-1.052,10.719,10.719,0,0,1-5.221-5.428,9.142,9.142,0,0,1-.724-3.146,8.813,8.813,0,0,1,.34-3.168,9.454,9.454,0,0,1,1.315-2.852,10.234,10.234,0,0,1,2.08-2.286,10.735,10.735,0,0,1,2.592-1.581l.344-.154.355-.123c.237-.079.471-.17.71-.237a12.15,12.15,0,0,1,4.369-.377,11.992,11.992,0,0,1,1.415.246c.231.059.464.107.691.174l.669.231a4.96,4.96,0,0,1,.651.266c.212.1.428.188.634.3a11.683,11.683,0,0,1,1.181.721,10.928,10.928,0,0,1,2.023,1.8,10.087,10.087,0,0,1,2.263,4.607,8.826,8.826,0,0,1,.156,1.234l.032.613a1.7,1.7,0,0,0,.094.566,1.384,1.384,0,0,0,.734.813,1.2,1.2,0,0,0,1.057-.048,1.415,1.415,0,0,0,.66-.829,3.077,3.077,0,0,0,.041-1.087,13.263,13.263,0,0,0-.267-2.136,13.453,13.453,0,0,0-1.45-3.72l-.495-.795c-.169-.257-.366-.488-.543-.728l-.27-.353c-.094-.113-.2-.216-.295-.323l-.581-.624a13.943,13.943,0,0,0-4.812-3.044,15.5,15.5,0,0,0-2.007-.593c-.6-.1-1.105-.186-1.518-.229l-.944-.057c-.213-.014-.322-.026-.322-.026" transform="translate(-109.565 -110.544)" fill="#263238"/>
            <g id="Grupo_1008616" data-name="Grupo 1008616" transform="translate(76.845 136.916)" opacity="0.3">
              <g id="Grupo_1008615" data-name="Grupo 1008615">
                <g id="Grupo_1008614" data-name="Grupo 1008614" clip-path="url(#clip-path-13)">
                  <path id="Trazado_720826" data-name="Trazado 720826" d="M203.71,358.69l-2.393,6.582H317.726V358.69Z" transform="translate(-201.317 -358.69)"/>
                </g>
              </g>
            </g>
            <path id="Trazado_720827" data-name="Trazado 720827" d="M226.385,144.909s.172-.005.508-.006h1.5l5.763.019,21.315.108,71.361.43-.1.1c0-3.115,0-6.43,0-9.779.011-30.444.022-58,.029-77.951.013-9.972.025-18.042.032-23.622.008-2.786.015-4.951.019-6.422,0-.732.008-1.291.01-1.67s.01-.569.01-.569.007.193.01.569.006.938.01,1.67c0,1.471.011,3.636.019,6.422.008,5.581.018,13.65.032,23.622.007,19.95.018,47.507.029,77.951,0,3.35,0,6.664,0,9.779v.1h-.1l-71.36-.494L234.152,145l-5.763-.055-1.495-.019c-.337-.005-.508-.013-.508-.013" transform="translate(-139.971 -15.794)" fill="#263238"/>
            <path id="Trazado_720828" data-name="Trazado 720828" d="M222.056,138.793s.172-.006.507-.008l1.491,0,5.749,0,21.269.049,71.254.234-.1.1c0-3.284.007-6.776.01-10.306.043-30.542.081-58.187.11-78.2.024-10,.043-18.1.056-23.7.011-2.8.02-4.967.026-6.443,0-.734.009-1.295.011-1.675s.011-.571.011-.571.007.194.01.571,0,.941.008,1.675c0,1.476.007,3.648.012,6.443,0,5.6,0,13.694.007,23.7-.013,20.014-.031,47.659-.051,78.2,0,3.53-.008,7.022-.011,10.306v.1h-.1l-71.254-.3-21.269-.11-5.749-.039-1.491-.015c-.336,0-.507-.011-.507-.011" transform="translate(-137.295 -11.298)" fill="#263238"/>
            <path id="Trazado_720829" data-name="Trazado 720829" d="M230.269,151.736s.172-.005.508-.007h1.494l5.757.019,21.284.107,71.189.427-.1.1c.011-2.875.023-5.939.034-9.034.128-30.18.243-57.5.326-77.273.051-9.885.093-17.885.122-23.416.019-2.762.033-4.908.043-6.367.007-.726.012-1.279.016-1.656s.012-.564.012-.564.006.191.008.564,0,.93,0,1.655c0,1.459,0,3.6-.006,6.367-.014,5.532-.034,13.532-.058,23.417-.069,19.777-.163,47.094-.268,77.273-.012,3.095-.024,6.159-.035,9.034v.1h-.1l-71.189-.49-21.283-.168-5.757-.055-1.494-.019c-.336-.005-.508-.013-.508-.013" transform="translate(-142.373 -21.066)" fill="#263238"/>
            <path id="Trazado_720830" data-name="Trazado 720830" d="M485.027,46.578h9.348l3.331,3.741-2.9,4.457h-9.789Z" transform="translate(-299.882 -28.799)" fill="#455a64"/>
            <path id="Trazado_720831" data-name="Trazado 720831" d="M1.1,185.637a1.283,1.283,0,0,1-1.087-1.453L1.6,173.143a1.064,1.064,0,0,1,1.233-.861l1.038.149a1.105,1.105,0,0,0,1.071-.449l.288-.421a1.105,1.105,0,0,1,1.071-.449l4.928.709a1.114,1.114,0,0,1,.863.634l.187.418a1.113,1.113,0,0,0,.863.634l6.283.9a1.064,1.064,0,0,1,.94,1.173l-1.624,11.293a1.283,1.283,0,0,1-1.453,1.087Z" transform="translate(0 -105.789)" fill="#455a64"/>
            <g id="Grupo_1008619" data-name="Grupo 1008619" transform="translate(0 65.311)" opacity="0.3">
              <g id="Grupo_1008618" data-name="Grupo 1008618">
                <g id="Grupo_1008617" data-name="Grupo 1008617" clip-path="url(#clip-path-14)">
                  <path id="Trazado_720832" data-name="Trazado 720832" d="M1.1,185.637a1.283,1.283,0,0,1-1.087-1.453L1.6,173.143a1.064,1.064,0,0,1,1.233-.861l1.038.149a1.105,1.105,0,0,0,1.071-.449l.288-.421a1.105,1.105,0,0,1,1.071-.449l4.928.709a1.114,1.114,0,0,1,.863.634l.187.418a1.113,1.113,0,0,0,.863.634l6.283.9a1.064,1.064,0,0,1,.94,1.173l-1.624,11.293a1.283,1.283,0,0,1-1.453,1.087Z" transform="translate(0 -171.1)"/>
                </g>
              </g>
            </g>
            <path id="Trazado_720833" data-name="Trazado 720833" d="M12.541,172.7l-4-.583-.261-.719a1.393,1.393,0,0,0-1.12-.883l-3.907-.561a1.233,1.233,0,0,0-1.428,1l-.066.456L.04,183.4a1.4,1.4,0,0,0,1.238,1.546l15.868,2.281a1.4,1.4,0,0,0,1.623-1.134L20.4,174.766a.924.924,0,0,0-.784-1.046Z" transform="translate(-0.016 -105.074)" fill="#455a64"/>
            <rect id="Rectángulo_351230" data-name="Rectángulo 351230" width="4.014" height="9.541" transform="translate(5.711 75.175) rotate(-81.817)" fill="#fff"/>
            <path id="Trazado_720834" data-name="Trazado 720834" d="M26.219,192.613c0,.035-1.462-.145-3.254-.4s-3.24-.5-3.235-.531,1.462.145,3.254.4,3.24.5,3.235.53" transform="translate(-12.199 -118.511)" fill="#263238"/>
            <path id="Trazado_720835" data-name="Trazado 720835" d="M25.9,194.831c0,.035-1.462-.145-3.254-.4s-3.24-.5-3.235-.53,1.462.145,3.254.4,3.24.5,3.235.53" transform="translate(-12.002 -119.883)" fill="#263238"/>
            <path id="Trazado_720836" data-name="Trazado 720836" d="M52.7,153.488a.844.844,0,0,1-.955-.715L50.7,145.516a.7.7,0,0,1,.618-.772l.682-.1a.726.726,0,0,0,.592-.482l.1-.319a.727.727,0,0,1,.592-.482l3.24-.467a.732.732,0,0,1,.662.24l.2.229a.733.733,0,0,0,.662.24l4.129-.6a.7.7,0,0,1,.811.566L64.054,151a.844.844,0,0,1-.715.955Z" transform="translate(-31.34 -88.346)" fill="#00bcd4"/>
            <g id="Grupo_1008622" data-name="Grupo 1008622" transform="translate(19.348 54.541)" opacity="0.3">
              <g id="Grupo_1008621" data-name="Grupo 1008621">
                <g id="Grupo_1008620" data-name="Grupo 1008620" clip-path="url(#clip-path-15)">
                  <path id="Trazado_720837" data-name="Trazado 720837" d="M52.7,153.488a.844.844,0,0,1-.955-.715L50.7,145.516a.7.7,0,0,1,.618-.772l.682-.1a.726.726,0,0,0,.592-.482l.1-.319a.727.727,0,0,1,.592-.482l3.24-.467a.732.732,0,0,1,.662.24l.2.229a.733.733,0,0,0,.662.24l4.129-.6a.7.7,0,0,1,.811.566L64.054,151a.844.844,0,0,1-.715.955Z" transform="translate(-50.689 -142.887)"/>
                </g>
              </g>
            </g>
            <path id="Trazado_720838" data-name="Trazado 720838" d="M57.407,143.822l-2.628.373-.3-.4a.916.916,0,0,0-.87-.349l-2.568.371a.811.811,0,0,0-.716.894l.043.3,1.137,7.881a.921.921,0,0,0,1.067.745l10.431-1.5a.922.922,0,0,0,.813-1.016l-1.074-7.445a.607.607,0,0,0-.688-.515Z" transform="translate(-31.112 -88.505)" fill="#00bcd4"/>
            <rect id="Rectángulo_351232" data-name="Rectángulo 351232" width="6.272" height="2.639" transform="translate(23.021 58.729) rotate(-8.212)" fill="#fff"/>
            <path id="Trazado_720839" data-name="Trazado 720839" d="M67.6,154.882c0,.023-.949.18-2.127.35s-2.136.289-2.139.266.949-.179,2.127-.349,2.135-.289,2.139-.266" transform="translate(-39.156 -95.76)" fill="#263238"/>
            <path id="Trazado_720840" data-name="Trazado 720840" d="M67.806,156.34c0,.023-.949.179-2.127.35s-2.136.289-2.139.266.949-.179,2.127-.35,2.135-.289,2.139-.266" transform="translate(-39.286 -96.662)" fill="#263238"/>
            <path id="Trazado_720841" data-name="Trazado 720841" d="M547.724,336.162l-2.159,7.479s6.877,4.706,6.613,6.127L537.525,346.1l2.886-11.792Z" transform="translate(-332.346 -206.701)" fill="#455a64"/>
            <path id="Trazado_720842" data-name="Trazado 720842" d="M546.187,354.11a.617.617,0,0,0-.585.579.594.594,0,0,0,.57.584.651.651,0,0,0,.616-.617.616.616,0,0,0-.659-.542" transform="translate(-337.34 -218.939)" fill="#e0e0e0"/>
            <g id="Grupo_1008625" data-name="Grupo 1008625" transform="translate(205.179 138.225)" opacity="0.6">
              <g id="Grupo_1008624" data-name="Grupo 1008624">
                <g id="Grupo_1008623" data-name="Grupo 1008623" clip-path="url(#clip-path-16)">
                  <path id="Trazado_720843" data-name="Trazado 720843" d="M537.526,363.3l.337-1.177,13.922,3.955s.581.447.392.888Z" transform="translate(-537.526 -362.119)" fill="#fff"/>
                </g>
              </g>
            </g>
            <path id="Trazado_720844" data-name="Trazado 720844" d="M556.768,358.463c-.02.071-.386.014-.8.156s-.673.4-.731.351.151-.431.65-.595.909.026.877.088" transform="translate(-343.293 -221.538)" fill="#263238"/>
            <path id="Trazado_720845" data-name="Trazado 720845" d="M560.882,361.284c0,.073-.341.118-.66.36s-.469.544-.539.523-.015-.437.387-.73.828-.221.812-.153" transform="translate(-346.03 -223.34)" fill="#263238"/>
            <path id="Trazado_720846" data-name="Trazado 720846" d="M563.883,364.989c-.069,0-.079-.384.2-.729s.655-.418.671-.351-.244.225-.471.512-.329.579-.4.568" transform="translate(-348.618 -224.987)" fill="#263238"/>
            <path id="Trazado_720847" data-name="Trazado 720847" d="M557.552,353.336c-.047.058-.35-.123-.761-.2s-.759-.025-.78-.1.345-.25.828-.156.762.4.713.449" transform="translate(-343.775 -218.171)" fill="#263238"/>
            <path id="Trazado_720848" data-name="Trazado 720848" d="M538.517,343.644l-.34,7.777s7.791,2.957,7.868,4.4l-15.1-.118.032-12.14Z" transform="translate(-328.276 -212.423)" fill="#455a64"/>
            <path id="Trazado_720849" data-name="Trazado 720849" d="M536.955,362.3a.617.617,0,0,0-.432.7.593.593,0,0,0,.691.434.651.651,0,0,0,.453-.744.615.615,0,0,0-.768-.372" transform="translate(-331.719 -223.99)" fill="#e0e0e0"/>
            <g id="Grupo_1008628" data-name="Grupo 1008628" transform="translate(202.666 142.058)" opacity="0.6">
              <g id="Grupo_1008627" data-name="Grupo 1008627">
                <g id="Grupo_1008626" data-name="Grupo 1008626" clip-path="url(#clip-path-17)">
                  <path id="Trazado_720850" data-name="Trazado 720850" d="M530.942,373.386l.051-1.223,14.461.57s.67.3.591.771Z" transform="translate(-530.942 -372.163)" fill="#fff"/>
                </g>
              </g>
            </g>
            <path id="Trazado_720851" data-name="Trazado 720851" d="M548.3,363.836c0,.074-.372.1-.737.339s-.56.543-.628.513.045-.455.492-.731.889-.189.873-.121" transform="translate(-338.153 -224.913)" fill="#263238"/>
            <path id="Trazado_720852" data-name="Trazado 720852" d="M553.041,365.65c.016.072-.3.195-.557.5s-.328.639-.4.636-.117-.421.2-.8.752-.41.753-.339" transform="translate(-341.316 -226.059)" fill="#263238"/>
            <path id="Trazado_720853" data-name="Trazado 720853" d="M556.854,368.63c-.067.015-.167-.354.026-.757s.539-.56.57-.5-.184.276-.337.608-.184.64-.258.647" transform="translate(-344.244 -227.136)" fill="#263238"/>
            <path id="Trazado_720854" data-name="Trazado 720854" d="M547.683,358.846c-.031.067-.369-.037-.786-.013s-.743.154-.781.09.276-.324.768-.347.836.211.8.269" transform="translate(-337.655 -221.704)" fill="#263238"/>
            <path id="Trazado_720855" data-name="Trazado 720855" d="M550.453,359.054a12.579,12.579,0,0,1,.021,1.873l-.06-.092c.882.335,2.055.787,3.3,1.374a17.725,17.725,0,0,1,3.347,1.928,3.594,3.594,0,0,1,.828.843c.157.242.136.428.112.419a1.064,1.064,0,0,0-.193-.363,4.2,4.2,0,0,0-.855-.757,21.89,21.89,0,0,0-3.346-1.841c-1.238-.584-2.4-1.056-3.264-1.426l-.064-.027,0-.065a12.631,12.631,0,0,1,.169-1.865" transform="translate(-340.232 -221.999)" fill="#263238"/>
            <path id="Trazado_720856" data-name="Trazado 720856" d="M528.53,207.494v5.585l1.5,21.759s-.934,10.555-1.507,16.514c-.5,5.175.316,14.186.316,14.186h8.731l3.124-30.053,1.939-18.743,3.373-8.53Z" transform="translate(-326.681 -128.291)" fill="#263238"/>
            <path id="Trazado_720857" data-name="Trazado 720857" d="M563.371,209.107l-2.129,30.335-8.833,22.729L552,263.539l-5.216-1.261,3.879-53.784Z" transform="translate(-338.073 -128.909)" fill="#263238"/>
            <path id="Trazado_720858" data-name="Trazado 720858" d="M558.6,221.131a.7.7,0,0,1,0,.137c0,.1-.005.232-.009.4-.012.363-.03.883-.053,1.548-.043,1.344-.15,3.288-.3,5.689-.32,4.8-.916,11.426-1.845,18.718s-1.925,13.878-2.664,18.64c-.375,2.374-.679,4.3-.891,5.639l-.252,1.532-.07.4a.069.069,0,1,1-.02,0c.013-.1.029-.231.051-.4.05-.361.123-.876.215-1.536l.829-5.646c.7-4.767,1.691-11.351,2.606-18.644s1.547-13.908,1.9-18.705c.17-2.4.3-4.341.365-5.685.039-.664.069-1.183.09-1.546.012-.169.021-.3.029-.4a.719.719,0,0,1,.016-.137" transform="translate(-341.595 -136.723)" fill="#455a64"/>
            <path id="Trazado_720859" data-name="Trazado 720859" d="M552.505,52.752l-.012,14.63c0,2.488,2.984,6.948,6.918,6.772l.32,0c3.4-.41,1.467-4.455,1.467-6.777,0-1.1,0-2.02.009-2.133a4.437,4.437,0,0,0,4-4.033c.131-1.781.1-5.472.039-8.811a6.884,6.884,0,0,0-6.464-6.735l-.356-.022c-3.852-.011-6.013,3.254-5.918,7.1" transform="translate(-341.601 -28.224)" fill="#ffc09d"/>
            <path id="Trazado_720860" data-name="Trazado 720860" d="M567.682,94.224a8.93,8.93,0,0,1-4.716-1.715,4.622,4.622,0,0,0,4.707,2.66Z" transform="translate(-348.076 -57.197)" fill="#ff9b6c"/>
            <path id="Trazado_720861" data-name="Trazado 720861" d="M565.777,66.462c-.072.075-.5-.262-1.119-.271s-1.074.3-1.14.22c-.032-.035.042-.172.242-.316a1.546,1.546,0,0,1,.914-.271,1.491,1.491,0,0,1,.889.312c.187.153.249.292.214.326" transform="translate(-348.413 -40.698)" fill="#263238"/>
            <path id="Trazado_720862" data-name="Trazado 720862" d="M568.053,71.218a.5.5,0,0,1-.512.473.478.478,0,0,1-.486-.481.5.5,0,0,1,.511-.474.478.478,0,0,1,.487.481" transform="translate(-350.605 -43.736)" fill="#263238"/>
            <path id="Trazado_720863" data-name="Trazado 720863" d="M573.626,71.016a3.747,3.747,0,0,1,.931-.11c.145-.006.284-.026.315-.124a.74.74,0,0,0-.071-.435l-.36-1.128a18.962,18.962,0,0,1-.784-2.942,19.01,19.01,0,0,1,1.019,2.872q.179.594.342,1.134a.841.841,0,0,1,.04.573.364.364,0,0,1-.251.2,1,1,0,0,1-.248.019,3.7,3.7,0,0,1-.933-.056" transform="translate(-354.667 -40.978)" fill="#263238"/>
            <path id="Trazado_720864" data-name="Trazado 720864" d="M564.97,61.515c-.058.138-.553.04-1.144.077s-1.076.173-1.146.042c-.031-.062.06-.189.259-.314a1.936,1.936,0,0,1,1.744-.092c.21.1.312.22.286.286" transform="translate(-347.896 -37.755)" fill="#263238"/>
            <path id="Trazado_720865" data-name="Trazado 720865" d="M580.406,62.82c-.063.112-.546-.006-1.13-.017s-1.067.069-1.13-.047c-.028-.055.067-.156.269-.247a2.043,2.043,0,0,1,.862-.153,2.105,2.105,0,0,1,.86.2c.2.1.3.209.268.263" transform="translate(-357.459 -38.553)" fill="#263238"/>
            <path id="Trazado_720866" data-name="Trazado 720866" d="M548.721,71.186c-.061-.031-2.489-.905-2.563,1.622a1.9,1.9,0,0,0,2.485,2.008c.007-.072.078-3.629.078-3.629" transform="translate(-337.683 -43.908)" fill="#ffc09d"/>
            <path id="Trazado_720867" data-name="Trazado 720867" d="M548.937,75.143c-.011-.008-.045.029-.12.061a.441.441,0,0,1-.329,0,1.089,1.089,0,0,1-.475-.992,1.461,1.461,0,0,1,.142-.626.51.51,0,0,1,.341-.328.225.225,0,0,1,.256.128c.032.072.015.122.027.126s.056-.04.038-.145a.279.279,0,0,0-.095-.161.333.333,0,0,0-.242-.071.619.619,0,0,0-.471.378,1.494,1.494,0,0,0-.173.7,1.143,1.143,0,0,0,.61,1.11.47.47,0,0,0,.4-.055c.08-.06.1-.116.087-.121" transform="translate(-338.721 -45.216)" fill="#ff9b6c"/>
            <path id="Trazado_720868" data-name="Trazado 720868" d="M543.673,47.855a12.366,12.366,0,0,0,.9-2.958,3.343,3.343,0,0,1,1.788-2.392l.022.01a2.657,2.657,0,0,1,2.675.219,3.456,3.456,0,0,1,2.579-2.719,8.551,8.551,0,0,1,4.569.306,9.384,9.384,0,0,1,3.011,2.282,12.389,12.389,0,0,1,1.307,1.547l1.154,3.427-.933,1.815c-.056.123-.113.247-.184.369v-.008l-.816,3.812c-.066-1.036-.033-4.644-.1-5.68a5.782,5.782,0,0,1-4.143-1.855,6.782,6.782,0,0,0-1.79-1.767,4.185,4.185,0,0,0-3.167.263l.043-.04a4.625,4.625,0,0,0-1.415,1.046,14.368,14.368,0,0,1-.552,6.091c-.093.3-.349.9-.637,1.019-.565.226-.724-.35-1.069-.653a1.5,1.5,0,0,0-1.034-.242,22.637,22.637,0,0,1-.724-2.613,2.3,2.3,0,0,1-1.059.083l.317-.785a1.207,1.207,0,0,1-.452.211.411.411,0,0,1-.432-.182c-.1-.193.03-.418.138-.605" transform="translate(-336.041 -24.627)" fill="#263238"/>
            <path id="Trazado_720869" data-name="Trazado 720869" d="M552.475,48.508a3.207,3.207,0,0,0-.366.342,2.644,2.644,0,0,0-.551,1.23,4.643,4.643,0,0,0-.083.937c0,.339.034.7.064,1.085a9.634,9.634,0,0,1,.042,1.208,4.19,4.19,0,0,1-.076.638,1.33,1.33,0,0,1-.253.621.557.557,0,0,1-.518.181.827.827,0,0,1-.471-.259,1.9,1.9,0,0,1-.366-.933l.077.009a3.088,3.088,0,0,1-.439.777,1.1,1.1,0,0,1-.712.4.711.711,0,0,1-.381-.062.615.615,0,0,1-.261-.251.632.632,0,0,1-.082-.326.455.455,0,0,1,.115-.288l.039.034a2.369,2.369,0,0,1-.784.6,2.063,2.063,0,0,1-.244.1.42.42,0,0,1-.088.023.46.46,0,0,1,.083-.036c.055-.023.135-.057.236-.11a2.457,2.457,0,0,0,.757-.611l.039.034a.473.473,0,0,0-.018.548.554.554,0,0,0,.236.222.646.646,0,0,0,.345.052,1.029,1.029,0,0,0,.661-.379,3.056,3.056,0,0,0,.423-.76l.052-.119.026.127a1.847,1.847,0,0,0,.348.891.745.745,0,0,0,.421.231.468.468,0,0,0,.44-.153,1.253,1.253,0,0,0,.233-.581,4.184,4.184,0,0,0,.076-.625,9.883,9.883,0,0,0-.037-1.2c-.028-.382-.057-.747-.056-1.091a4.6,4.6,0,0,1,.1-.949,2.607,2.607,0,0,1,.586-1.24,1.5,1.5,0,0,1,.391-.32" transform="translate(-338.29 -29.992)" fill="#455a64"/>
            <path id="Trazado_720870" data-name="Trazado 720870" d="M572.753,48.571s-.009.01-.029.026l-.091.068a1.181,1.181,0,0,1-.155.1,1.977,1.977,0,0,1-.223.121,3.269,3.269,0,0,1-1.573.3,4.175,4.175,0,0,1-2.233-.8,7.229,7.229,0,0,1-1.935-2.179c-.273-.443-.5-.9-.742-1.317a4.883,4.883,0,0,0-.836-1.112,2.52,2.52,0,0,0-1.069-.632,1.811,1.811,0,0,0-.56-.058,1.973,1.973,0,0,0-.511.1,2.135,2.135,0,0,0-1.172,1.015,2.565,2.565,0,0,0-.184.555.137.137,0,0,1,0-.039c0-.031.01-.068.016-.113a1.84,1.84,0,0,1,.135-.418,2.1,2.1,0,0,1,.406-.564,2.154,2.154,0,0,1,.776-.494,2.008,2.008,0,0,1,.527-.113,1.858,1.858,0,0,1,.583.055,2.578,2.578,0,0,1,1.105.644,4.914,4.914,0,0,1,.854,1.127c.249.423.473.876.743,1.315a7.235,7.235,0,0,0,1.908,2.159,4.151,4.151,0,0,0,2.19.8,3.32,3.32,0,0,0,1.556-.271,5.219,5.219,0,0,0,.512-.286" transform="translate(-347.131 -26.603)" fill="#455a64"/>
            <path id="Trazado_720871" data-name="Trazado 720871" d="M580.519,66.9c-.073.075-.5-.262-1.119-.271s-1.074.3-1.14.22c-.032-.035.042-.172.242-.315a1.544,1.544,0,0,1,.914-.271,1.49,1.49,0,0,1,.889.312c.188.153.249.292.214.326" transform="translate(-357.528 -40.969)" fill="#263238"/>
            <path id="Trazado_720872" data-name="Trazado 720872" d="M581.113,71.218a.5.5,0,0,1-.512.473.478.478,0,0,1-.486-.481.5.5,0,0,1,.511-.474.479.479,0,0,1,.487.481" transform="translate(-358.679 -43.736)" fill="#263238"/>
            <path id="Trazado_720873" data-name="Trazado 720873" d="M586.468,50.045a1.578,1.578,0,0,0,1.312.737,3.847,3.847,0,0,0,.55-.161c.18.11.137.727.013.9a3.316,3.316,0,0,1-.387.4,2.041,2.041,0,0,0,1.8-.069,3.167,3.167,0,0,1-1.883,2.537,1.11,1.11,0,0,1-1.017.019,1.279,1.279,0,0,1-.446-.793,13.882,13.882,0,0,1-.449-3.388Z" transform="translate(-362.294 -30.942)" fill="#263238"/>
            <path id="Trazado_720874" data-name="Trazado 720874" d="M570.625,81.089c.01.031-.111.112-.34.146a1.379,1.379,0,0,1-1.459-.86c-.081-.217-.069-.363-.038-.368.067-.023.214.518.748.831a2.935,2.935,0,0,0,1.089.251" transform="translate(-351.661 -49.467)" fill="#263238"/>
            <path id="Trazado_720875" data-name="Trazado 720875" d="M589.624,136.309l.845,7.952,11.772,3.041s.347,4.146,0,4.243-14.658.232-15.941-1.752-.165.362-.319,0-2.341-12.153-2.341-12.153Z" transform="translate(-360.859 -84.278)" fill="#ffc09d"/>
            <path id="Trazado_720876" data-name="Trazado 720876" d="M623.057,166.891s3.253.385,4.013.4a18.345,18.345,0,0,0,2.91-.522,22.252,22.252,0,0,0,3.692.487c.181-.186.42-.4.2-.551s-2.9-1.029-2.9-1.029l1.835-.026a24.405,24.405,0,0,0,2.835.658c.2-.072.476-.393.324-.657l-.153-.263a.569.569,0,0,0-.237-.72l-.248-.1.071-.221a.882.882,0,0,0-.4-.878c-.513-.364-1.591-1.165-1.591-1.165l-3.38-.524-6.491.966" transform="translate(-385.23 -100.031)" fill="#ffc09d"/>
            <path id="Trazado_720877" data-name="Trazado 720877" d="M624.38,168.214a4.324,4.324,0,0,0,.394.338,2.364,2.364,0,0,0,1.325.38,5.114,5.114,0,0,0,2.008-.529,7.353,7.353,0,0,1,2.5-.778c.24-.016.476.027.668-.01a.336.336,0,0,0,.31-.339c-.024-.14-.249-.184-.452-.232l-.6-.146-2.061-.516-1.386-.365a2.676,2.676,0,0,1-.5-.16,2.645,2.645,0,0,1,.52.085l1.4.3,2.071.474.6.14a2.582,2.582,0,0,1,.319.086.421.421,0,0,1,.278.288.525.525,0,0,1-.462.576,6.04,6.04,0,0,1-.7.015,7.467,7.467,0,0,0-2.439.749,5.06,5.06,0,0,1-2.082.5,2.33,2.33,0,0,1-1.368-.458,1.552,1.552,0,0,1-.279-.281c-.051-.075-.074-.116-.069-.119" transform="translate(-386.047 -102.546)" fill="#ff9b6c"/>
            <path id="Trazado_720878" data-name="Trazado 720878" d="M640.364,166.111c.005-.06,1.282.093,2.839-.1.193-.022.381-.05.563-.077l.045-.007.033.027a7,7,0,0,0,1.978,1.056,1.642,1.642,0,0,1-.649-.121,4.493,4.493,0,0,1-1.452-.784l.077.021c-.184.031-.375.061-.572.082a10.216,10.216,0,0,1-2.031.039,2.759,2.759,0,0,1-.83-.14" transform="translate(-395.93 -102.593)" fill="#ff9b6c"/>
            <path id="Trazado_720879" data-name="Trazado 720879" d="M648.491,169.268c.025-.053.684.228,1.54.411s1.571.205,1.571.265a4.767,4.767,0,0,1-3.111-.675" transform="translate(-400.955 -104.653)" fill="#ff9b6c"/>
            <path id="Trazado_720880" data-name="Trazado 720880" d="M552.922,141.941s-.9-24.357-1.351-28.582-1.55-11.824-1.55-11.824l-3.812-1.412.014.035c.043.471.014,2.368-1.447,2.649-3.914.754-7.393-3.6-7.393-3.6L529.7,103.03l.86,22.106-2.276,15.612Z" transform="translate(-326.631 -61.338)" fill="#455a64"/>
            <path id="Trazado_720881" data-name="Trazado 720881" d="M543.588,141.77,528.3,140.12l1.614-10.136-5.513-2.273h-1.974s-1.1,11.122-1.361,13.195c-.272,2.194.008,5.83,4.708,6.039,2.3.1,17.458-1.017,17.458-1.017Z" transform="translate(-322.127 -78.962)" fill="#ffc09d"/>
            <path id="Trazado_720882" data-name="Trazado 720882" d="M527.751,109.215c3.276,1.919,2.1,13.4,2.1,13.4L519.9,122.3l1.292-9.108a6.731,6.731,0,0,1,2.1-3.588,4.321,4.321,0,0,1,2.136-1.128,2.689,2.689,0,0,1,2.33.742" transform="translate(-321.447 -67.049)" fill="#455a64"/>
            <path id="Trazado_720883" data-name="Trazado 720883" d="M588.865,108.552a6.631,6.631,0,0,0-3.741-3.287l1.06,14.509,5.29-.394s-1.286-7.748-2.608-10.829" transform="translate(-361.776 -65.084)" fill="#455a64"/>
            <path id="Trazado_720884" data-name="Trazado 720884" d="M588.824,117.881c.055,0,.25,2.987.436,6.677s.292,6.685.237,6.688-.25-2.986-.436-6.678-.292-6.685-.237-6.687" transform="translate(-364.055 -72.885)" fill="#263238"/>
            <path id="Trazado_720885" data-name="Trazado 720885" d="M575.857,166.891s3.253.385,4.013.4a18.346,18.346,0,0,0,2.91-.522,22.252,22.252,0,0,0,3.692.487c.181-.186.42-.4.2-.551s-2.9-1.029-2.9-1.029l1.835-.026a24.406,24.406,0,0,0,2.835.658c.2-.072.476-.393.324-.657l-.153-.263a.569.569,0,0,0-.237-.72l-.248-.1.071-.221a.882.882,0,0,0-.4-.878c-.513-.364-1.591-1.165-1.591-1.165l-3.38-.524-6.491.966" transform="translate(-356.046 -100.031)" fill="#ffc09d"/>
            <path id="Trazado_720886" data-name="Trazado 720886" d="M576.35,162.624a.446.446,0,0,1,.114-.029l.338-.062,1.3-.214,4.731-.738.011,0,.012,0,3.382.511.021,0,.019.013,1.176.857a5.474,5.474,0,0,1,.612.478.961.961,0,0,1,.238.8v0l0,.006-.07.221-.056-.119.248.1,0,0,0,0a.6.6,0,0,1,.308.359.78.78,0,0,1-.025.484l-.006-.086c.062.115.121.192.187.338a.507.507,0,0,1-.071.438.723.723,0,0,1-.326.281.4.4,0,0,1-.135.013l-.1-.011-.191-.033c-.5-.1-1-.229-1.5-.358l-.976-.262.028,0-1.835.024.029-.192c.664.219,1.312.436,1.942.658.318.116.618.213.935.363a.331.331,0,0,1,.123.1.249.249,0,0,1,.041.183.544.544,0,0,1-.141.252c-.056.064-.114.12-.169.176a.265.265,0,0,1-.17.059,1.2,1.2,0,0,1-.127,0,16.536,16.536,0,0,1-1.82-.232c-.579-.1-1.132-.2-1.659-.3h.034a16.916,16.916,0,0,1-2.858.507c-.866-.04-1.6-.145-2.2-.21l-1.395-.177-.364-.054a.513.513,0,0,1-.123-.027.493.493,0,0,1,.126,0l.367.031,1.4.134c.6.052,1.347.144,2.191.172a17.439,17.439,0,0,0,2.82-.534l.018,0,.017,0c.526.1,1.08.194,1.657.287a16.831,16.831,0,0,0,1.795.219c.037,0,.076,0,.109,0s.072-.017.054,0c.056-.058.112-.113.161-.169a.392.392,0,0,0,.1-.16c.006-.032-.011-.061-.074-.094-.27-.126-.6-.235-.9-.345-.628-.219-1.276-.435-1.939-.652l-.559-.183.588-.008,1.835-.027h.014l.014,0,.973.261c.5.129,1,.258,1.49.356l.182.032a.761.761,0,0,0,.138.009.536.536,0,0,0,.231-.2.314.314,0,0,0,.052-.268c-.034-.078-.115-.2-.17-.3l-.022-.04.016-.046a.594.594,0,0,0,.019-.355.4.4,0,0,0-.21-.242l.008,0-.247-.1-.083-.034.027-.085.071-.221,0,.008a.776.776,0,0,0-.192-.632,5.555,5.555,0,0,0-.579-.453l-1.175-.865.04.017-3.378-.536h.023l-4.74.671-1.3.173-.341.039a.457.457,0,0,1-.118.006" transform="translate(-356.047 -99.903)" fill="#ff9b6c"/>
            <path id="Trazado_720887" data-name="Trazado 720887" d="M595.524,167.569a2.216,2.216,0,0,0,.81.189,8.346,8.346,0,0,1,1.945.293,10.259,10.259,0,0,1,.974.486,7.543,7.543,0,0,0,.828.362,2.85,2.85,0,0,0,.8.216c.007-.023-.294-.121-.76-.321-.233-.1-.507-.228-.8-.388a8.462,8.462,0,0,0-.986-.5,3.9,3.9,0,0,0-1.1-.213c-.339-.023-.643-.028-.9-.044-.507-.024-.813-.1-.82-.075" transform="translate(-368.206 -103.603)" fill="#ff9b6c"/>
            <path id="Trazado_720888" data-name="Trazado 720888" d="M596.457,165.113a1.754,1.754,0,0,0,.727.141,3.919,3.919,0,0,1,1.7.331c.618.3,1.175.6,1.585.792a3.358,3.358,0,0,0,.679.29,3.39,3.39,0,0,0-.626-.39c-.4-.221-.944-.528-1.57-.837a2.72,2.72,0,0,0-.958-.277c-.306-.029-.577-.019-.8-.022-.452,0-.726-.05-.732-.027" transform="translate(-368.783 -102.084)" fill="#ff9b6c"/>
            <path id="Trazado_720889" data-name="Trazado 720889" d="M521.6,131.99a.623.623,0,0,1,.179-.015l.511,0,1.878.027c1.586.032,3.776.09,6.194.166l.547.018-.1.1c-.059-1.849-.112-3.54-.155-4.9v.008c-.112-1.017-.151-1.841-.195-2.415-.018-.266-.033-.485-.045-.662a1.018,1.018,0,0,1-.006-.233.842.842,0,0,1,.051.228c.024.151.054.373.086.659.07.57.134,1.4.261,2.4v.008c.055,1.358.124,3.048.2,4.9l0,.106-.107,0-.548-.017c-2.418-.076-4.608-.156-6.192-.224l-1.876-.09-.51-.035a.6.6,0,0,1-.177-.026" transform="translate(-322.499 -76.721)" fill="#263238"/>
            <rect id="Rectángulo_351235" data-name="Rectángulo 351235" width="3.029" height="36.512" transform="translate(242.053 105.994)" fill="#e0e0e0"/>
            <rect id="Rectángulo_351236" data-name="Rectángulo 351236" width="1.318" height="2.472" transform="translate(238.257 99.611)" fill="#e0e0e0"/>
            <rect id="Rectángulo_351237" data-name="Rectángulo 351237" width="1.51" height="1.025" transform="translate(239.472 100.355)" fill="#e0e0e0"/>
            <rect id="Rectángulo_351238" data-name="Rectángulo 351238" width="5.781" height="35.617" transform="translate(240.677 70.377)" fill="#e0e0e0"/>
            <path id="Trazado_720890" data-name="Trazado 720890" d="M636.142,219.829s0-.065-.006-.185,0-.3-.007-.531c0-.473-.008-1.158-.013-2.038-.007-1.775-.017-4.34-.029-7.532-.011-6.383-.026-15.272-.043-25.33l.1.1h-5.781l.1-.1c-.021,15.248-.039,28.563-.049,35.617l-.05-.05,4.274.028,1.119.012.288,0a.94.94,0,0,1,.1,0,.648.648,0,0,1-.091,0l-.279,0-1.108.012-4.3.028h-.05v-.05c-.01-7.054-.028-20.369-.049-35.617v-.1h5.979v.1c-.017,10.086-.032,19-.043,25.4-.012,3.182-.022,5.739-.029,7.509-.006.871-.01,1.549-.013,2.016,0,.223-.005.4-.007.519s-.006.172-.006.172" transform="translate(-389.684 -113.835)" fill="#263238"/>
            <rect id="Rectángulo_351239" data-name="Rectángulo 351239" width="22.666" height="1.623" transform="translate(232.181 141.814)" fill="#e0e0e0"/>
            <rect id="Rectángulo_351240" data-name="Rectángulo 351240" width="77.324" height="3.456" transform="translate(194.408 66.921)" fill="#455a64"/>
            <path id="Trazado_720891" data-name="Trazado 720891" d="M586.471,178.613s0-.071-.005-.211,0-.353-.006-.636c0-.57-.009-1.43-.016-2.609l.028.028-77.32.071h0l.1-.1v3.456l-.1-.1,54.772.041,16.5.03,4.482.015,1.168.007c.264,0,.4.007.4.007s-.129,0-.388.007l-1.155.007-4.459.014-16.477.03-54.845.041h-.1v-3.655h.1l77.32.072h.028v.027c-.007,1.186-.013,2.052-.016,2.626,0,.279-.005.486-.006.629s-.005.2-.005.2" transform="translate(-314.739 -108.236)" fill="#263238"/>
            <path id="Trazado_720892" data-name="Trazado 720892" d="M612.442,122.7h-21.4a1.387,1.387,0,0,0-1.494,1.131l-2.851,17.482H575.431a.715.715,0,0,0,0,1.425H611.4l2.459-18.247a1.52,1.52,0,0,0-1.418-1.79" transform="translate(-355.377 -75.867)" fill="#e0e0e0"/>
            <path id="Trazado_720893" data-name="Trazado 720893" d="M612.368,122.644a1.812,1.812,0,0,1,.368.059,1.435,1.435,0,0,1,.831.665,1.62,1.62,0,0,1,.221.761,2.459,2.459,0,0,1-.036.461q-.033.241-.069.5c-.1.7-.2,1.5-.328,2.4-.49,3.609-1.2,8.809-2.062,15.183l.036-.032-34.778-.01h-1.19a.585.585,0,0,1-.214-.041.623.623,0,0,1-.318-.292.71.71,0,0,1,.114-.82.574.574,0,0,1,.387-.177l.467,0h10.862l.006-.038,2.644-16.248q.074-.46.148-.914c.025-.15.047-.3.076-.448a1.2,1.2,0,0,1,.179-.4,1.309,1.309,0,0,1,.7-.491,1.869,1.869,0,0,1,.427-.078c.143-.007.292,0,.438,0l3.391,0,6.027-.005,8.582-.013,2.3-.007.593,0c.133,0,.2,0,.2,0s-.068,0-.2,0l-.593,0-2.3-.007-8.582-.013-6.027-.005-3.391,0c-.147,0-.292,0-.443,0a1.929,1.929,0,0,0-.444.081,1.382,1.382,0,0,0-.742.519,1.286,1.286,0,0,0-.191.425c-.032.155-.052.3-.078.455q-.074.453-.15.913l-2.656,16.245.044-.038H575.8l-.471,0a.668.668,0,0,0-.448.2.8.8,0,0,0-.129.929.717.717,0,0,0,.366.335.676.676,0,0,0,.249.048h1.19l34.778-.01h.032l0-.031c.852-6.375,1.547-11.578,2.03-15.187l.318-2.4q.035-.261.067-.5a2.517,2.517,0,0,0,.034-.466,1.634,1.634,0,0,0-.229-.771,1.44,1.44,0,0,0-.846-.665,1.142,1.142,0,0,0-.276-.046c-.063,0-.094,0-.094,0" transform="translate(-355.303 -75.807)" fill="#263238"/>
            <path id="Trazado_720894" data-name="Trazado 720894" d="M639.434,147.774a1.485,1.485,0,1,0,1.485-1.485,1.485,1.485,0,0,0-1.485,1.485" transform="translate(-395.355 -90.449)" fill="#fff"/>
            <path id="Trazado_720895" data-name="Trazado 720895" d="M608.858,142.85c.034.006.789-4.4,1.686-9.832s1.6-9.847,1.565-9.853-.788,4.4-1.686,9.832-1.6,9.847-1.565,9.852" transform="translate(-376.45 -76.152)" fill="#263238"/>
            <path id="Trazado_720896" data-name="Trazado 720896" d="M135.346,126l-4.945,3.66,1.528,4.425A10.708,10.708,0,0,0,135.346,126" transform="translate(-80.626 -77.902)" fill="#263238"/>
            <path id="Trazado_720897" data-name="Trazado 720897" d="M109.2,101.834a6.491,6.491,0,0,1,4.361-.526,13.755,13.755,0,0,1,4.124,1.705,6.727,6.727,0,0,1,1.971,1.538,9.572,9.572,0,0,1,1.985,4.693,16.9,16.9,0,0,1-.921,5.449c-.479,1.029-2.722,1.813-3.828,2.067L106.735,104.95a5.14,5.14,0,0,1,2.462-3.116" transform="translate(-65.993 -62.543)" fill="#263238"/>
            <path id="Trazado_720898" data-name="Trazado 720898" d="M103.914,106.4l2.435-.436c-1.331,3.169-1.692,10.417-2.453,13.769-.9-1.3-2.982-5.268-2.87-6.845s0-6.757,2.888-6.488" transform="translate(-62.461 -65.518)" fill="#263238"/>
            <path id="Trazado_720899" data-name="Trazado 720899" d="M117.611,112.383a4.158,4.158,0,0,0-3.128-3.829l-5.606-1.43c-2.423-.262-4.041,2.719-4.2,5.15a38.518,38.518,0,0,0,.031,7.57c.635,4.055,3.741,4.578,3.741,4.578s0,1.929,0,3.113l1.876,7.766,6.254-6.748,1.043-16.121c0-.069-.008.043-.014-.049" transform="translate(-64.616 -66.224)" fill="#ffc09d"/>
            <path id="Trazado_720900" data-name="Trazado 720900" d="M108.143,127.909a.52.52,0,0,0,.5.526.5.5,0,0,0,.537-.468.52.52,0,0,0-.5-.526.5.5,0,0,0-.537.468" transform="translate(-66.864 -78.795)" fill="#263238"/>
            <path id="Trazado_720901" data-name="Trazado 720901" d="M106.534,123.923c.064.068.459-.223,1.018-.22s.969.283,1.03.215c.03-.03-.036-.153-.214-.283a1.425,1.425,0,0,0-.824-.256,1.37,1.37,0,0,0-.811.26c-.172.131-.231.254-.2.284" transform="translate(-65.864 -76.284)" fill="#263238"/>
            <path id="Trazado_720902" data-name="Trazado 720902" d="M120.919,127.909a.52.52,0,0,0,.5.526.5.5,0,0,0,.537-.468.52.52,0,0,0-.5-.526.5.5,0,0,0-.537.468" transform="translate(-74.763 -78.795)" fill="#263238"/>
            <path id="Trazado_720903" data-name="Trazado 720903" d="M120.454,123.923c.065.068.46-.223,1.019-.22s.969.283,1.029.215c.03-.03-.035-.153-.214-.283a1.425,1.425,0,0,0-.824-.256,1.371,1.371,0,0,0-.811.26c-.172.132-.231.254-.2.285" transform="translate(-74.47 -76.284)" fill="#263238"/>
            <path id="Trazado_720904" data-name="Trazado 720904" d="M113.577,128.766a3.732,3.732,0,0,0-.908-.166c-.143-.015-.278-.044-.3-.141a.724.724,0,0,1,.1-.423l.425-1.087a18.683,18.683,0,0,0,.955-2.843,18.776,18.776,0,0,0-1.182,2.76q-.213.573-.407,1.094a.825.825,0,0,0-.076.56.359.359,0,0,0,.235.21.971.971,0,0,0,.242.034,3.621,3.621,0,0,0,.921,0" transform="translate(-69.343 -76.733)" fill="#263238"/>
            <path id="Trazado_720905" data-name="Trazado 720905" d="M120.211,148.689s-1.319,2.785-5.376,2.4v-.954a10.213,10.213,0,0,0,5.377-1.443" transform="translate(-71.001 -91.933)" fill="#ff9b6c"/>
            <path id="Trazado_720906" data-name="Trazado 720906" d="M120.922,118.832c.055.152.613.081,1.27.162s1.187.261,1.275.124c.039-.065-.053-.208-.267-.356a2.225,2.225,0,0,0-1.938-.218c-.241.1-.363.216-.339.288" transform="translate(-74.763 -73.215)" fill="#263238"/>
            <path id="Trazado_720907" data-name="Trazado 720907" d="M107,119.386c.1.127.484,0,.947-.009.463-.022.856.087.946-.045.04-.065-.022-.192-.193-.313a1.371,1.371,0,0,0-1.526.044c-.164.13-.218.261-.175.323" transform="translate(-66.149 -73.458)" fill="#263238"/>
            <path id="Trazado_720908" data-name="Trazado 720908" d="M107.72,106.028a1.783,1.783,0,0,1,1.575-1.01,3.463,3.463,0,0,1,1.87.545c2.414,1.4,3.656,4.766,6.041,6.21.587.355,1.35.03,1.849.5a1.721,1.721,0,0,1,.547,1.85,5.681,5.681,0,0,0,.828-1.4,1.916,1.916,0,0,0-.067-1.58c-.206-.357-.571-.63-.671-1.031a5.42,5.42,0,0,1,.036-1.084,2.365,2.365,0,0,0-.371-1.034,10.525,10.525,0,0,0-3.876-4.077,6.858,6.858,0,0,0-3.558-.92,5.246,5.246,0,0,0-3.385,1.344c-.534.5-1.095,1.012-.818,1.687" transform="translate(-66.557 -63.68)" fill="#263238"/>
            <path id="Trazado_720909" data-name="Trazado 720909" d="M137.382,128.27a1.414,1.414,0,0,1,2.186,1.368,1.64,1.64,0,0,1-2.181,1.691c0-.063,0-3.059,0-3.059" transform="translate(-84.942 -79.173)" fill="#ffc09d"/>
            <path id="Trazado_720910" data-name="Trazado 720910" d="M139.136,131.65c.01-.007.038.026.1.055a.38.38,0,0,0,.284,0,.942.942,0,0,0,.428-.849,1.249,1.249,0,0,0-.112-.544.437.437,0,0,0-.289-.289.193.193,0,0,0-.224.106c-.029.061-.015.1-.026.109s-.047-.036-.031-.127a.244.244,0,0,1,.085-.137.287.287,0,0,1,.21-.058.534.534,0,0,1,.4.335,1.3,1.3,0,0,1,.138.608.988.988,0,0,1-.546.948.408.408,0,0,1-.349-.055c-.068-.053-.08-.1-.073-.106" transform="translate(-86.025 -80.327)" fill="#ff9b6c"/>
            <path id="Trazado_720911" data-name="Trazado 720911" d="M120.626,113.763a.862.862,0,0,1-.132-.074c-.084-.053-.213-.124-.366-.232a7.51,7.51,0,0,1-1.179-1.073,20.993,20.993,0,0,1-1.442-1.873,17.222,17.222,0,0,0-1.8-2.244,6.848,6.848,0,0,0-1.163-.919,5.677,5.677,0,0,0-1.256-.57,6.229,6.229,0,0,0-2.313-.284,5.964,5.964,0,0,0-1.549.3c-.18.055-.312.115-.4.15a.884.884,0,0,1-.143.05.875.875,0,0,1,.135-.069,3.823,3.823,0,0,1,.4-.168,5.669,5.669,0,0,1,1.557-.337,6.172,6.172,0,0,1,2.346.267,5.686,5.686,0,0,1,1.279.574,6.866,6.866,0,0,1,1.182.931,16.7,16.7,0,0,1,1.807,2.262,22.551,22.551,0,0,0,1.42,1.88,8.091,8.091,0,0,0,1.149,1.088c.149.113.274.189.354.247a.827.827,0,0,1,.121.091" transform="translate(-67.317 -65.788)" fill="#455a64"/>
            <path id="Trazado_720912" data-name="Trazado 720912" d="M139.225,135.456a.43.43,0,1,1-.1.032" transform="translate(-85.865 -83.747)" fill="#fff"/>
            <path id="Trazado_720913" data-name="Trazado 720913" d="M139.059,135.459a.587.587,0,0,0-.2.293.369.369,0,0,0,.085.343.382.382,0,0,0,.671-.214.37.37,0,0,0-.129-.329.589.589,0,0,0-.33-.126c0-.005.034-.023.1-.024a.446.446,0,0,1,.273.1.438.438,0,0,1,.175.394.469.469,0,0,1-.831.265.437.437,0,0,1-.085-.423.446.446,0,0,1,.167-.235c.057-.039.1-.045.1-.04" transform="translate(-85.802 -83.718)" fill="#263238"/>
            <path id="Trazado_720914" data-name="Trazado 720914" d="M133.61,122.279a3.364,3.364,0,0,1-.214,1.756,1.159,1.159,0,0,1-1.489.594,1.651,1.651,0,0,1-.621-1.265c-.207-1.391-.3-2.8-.521-4.186Z" transform="translate(-80.851 -73.687)" fill="#263238"/>
            <path id="Trazado_720915" data-name="Trazado 720915" d="M109.246,108.057c0,.013.193-.036.543-.047a3.73,3.73,0,0,1,1.445.264,4.758,4.758,0,0,1,.905.466,9.806,9.806,0,0,1,.934.713,11.223,11.223,0,0,1,1.828,1.971c.277.39.523.79.789,1.161a5.556,5.556,0,0,0,.876.984,9.721,9.721,0,0,0,1.845,1.234c.559.3,1.026.5,1.348.645l.374.159a.625.625,0,0,0,.134.047.614.614,0,0,0-.123-.07l-.364-.18c-.316-.156-.776-.374-1.327-.678a10.092,10.092,0,0,1-1.812-1.243,5.528,5.528,0,0,1-.852-.97c-.261-.367-.507-.768-.787-1.162a11.02,11.02,0,0,0-1.855-1.986,9.561,9.561,0,0,0-.952-.712,4.754,4.754,0,0,0-.93-.462,3.6,3.6,0,0,0-1.478-.23,2.546,2.546,0,0,0-.4.056.6.6,0,0,0-.137.039" transform="translate(-67.546 -66.748)" fill="#455a64"/>
            <path id="Trazado_720916" data-name="Trazado 720916" d="M138.377,119.23a.933.933,0,0,0,.193.13l.553.325.186.107a.582.582,0,0,0,.239.079.231.231,0,0,0,.148-.034.19.19,0,0,0,.082-.144.486.486,0,0,0-.1-.276l-.642-1.028-.087.08a2.283,2.283,0,0,0,1.483.442.655.655,0,0,0,.2-.034.267.267,0,0,0,.169-.147.237.237,0,0,0-.037-.221.859.859,0,0,0-.124-.136,4.632,4.632,0,0,1-.744-.938,7.826,7.826,0,0,1-.473-1.006,1.136,1.136,0,0,0,.069.294,4.1,4.1,0,0,0,.329.755,4.415,4.415,0,0,0,.74.975c.081.077.162.166.131.234s-.15.1-.265.1a2.209,2.209,0,0,1-1.405-.419l-.261-.191.174.271.655,1.019a.415.415,0,0,1,.093.213c0,.063-.056.1-.126.093a1.106,1.106,0,0,1-.392-.161l-.57-.294a1,1,0,0,0-.213-.093" transform="translate(-85.557 -71.986)" fill="#455a64"/>
            <path id="Trazado_720917" data-name="Trazado 720917" d="M119.14,138.116a.73.73,0,0,0-.754-.554.764.764,0,0,0-.587.417.94.94,0,0,0-.033.73l.012.053a.831.831,0,0,0,.936.2.777.777,0,0,0,.427-.845" transform="translate(-72.777 -85.051)" fill="#ff9b6c"/>
            <path id="Trazado_720918" data-name="Trazado 720918" d="M116.827,138.162c0-.085.565-.058.991-.522s.394-1.07.473-1.07c.036-.006.1.14.1.395a1.408,1.408,0,0,1-.363.895,1.228,1.228,0,0,1-.829.4c-.238.01-.375-.06-.369-.1" transform="translate(-72.233 -84.44)" fill="#263238"/>
            <path id="Trazado_720919" data-name="Trazado 720919" d="M93.88,194.433c.508-2.63,2.138-11.483,2.136-13.272a10.252,10.252,0,0,0-.544-1.5c-.476-1.6-2.133-7.476-1.761-10.575.3-2.477,2.393-5.647,3.021-7.34.3-.8,2.65-1.618,3.435-1.945l1.669-2.357s-.363,1.1,1.112,2.079a4.479,4.479,0,0,0,2.69.713,6.847,6.847,0,0,0,4.91-2.416l.274.213a62.092,62.092,0,0,1,6.367,2.184c1.333.561-2.889,14.234-2.889,14.234s-2.494,9.232-1.15,12.093c.757,1.611,3.305,4.272,3.95,5.77a9.481,9.481,0,0,1,1.144,1.962c.022.394-6.636,3.278-11.892,3.569-9.725.539-12.474-3.415-12.474-3.415" transform="translate(-57.908 -97.347)" fill="#f5f5f5"/>
            <path id="Trazado_720920" data-name="Trazado 720920" d="M133.429,317.23H93.568a1.434,1.434,0,0,0-1.434,1.434v8.259a1.434,1.434,0,0,0,1.434,1.434h39.861a1.434,1.434,0,0,0,1.434-1.434v-8.259a1.434,1.434,0,0,0-1.434-1.434" transform="translate(-56.965 -196.14)" fill="#263238"/>
            <path id="Trazado_720921" data-name="Trazado 720921" d="M161.191,324.187H142.785a.27.27,0,0,0-.27.27V330.2a.27.27,0,0,0,.27.27h18.406a.27.27,0,0,0,.27-.27v-5.742a.27.27,0,0,0-.27-.27" transform="translate(-88.116 -200.441)" fill="#fff"/>
            <path id="Trazado_720922" data-name="Trazado 720922" d="M116.247,328.733a2.274,2.274,0,1,0-2.274,2.274,2.274,2.274,0,0,0,2.274-2.274" transform="translate(-69.062 -201.846)" fill="#263238"/>
            <path id="Trazado_720923" data-name="Trazado 720923" d="M113.354,330.77a2.656,2.656,0,1,1,2.656-2.656,2.659,2.659,0,0,1-2.656,2.656m0-4.549a1.893,1.893,0,1,0,1.893,1.893,1.895,1.895,0,0,0-1.893-1.893" transform="translate(-68.443 -201.227)" fill="#e0e0e0"/>
            <path id="Trazado_720924" data-name="Trazado 720924" d="M147.549,327a22.4,22.4,0,0,1,0,4.212,22.393,22.393,0,0,1,0-4.212" transform="translate(-91.167 -202.181)" fill="#e0e0e0"/>
            <path id="Trazado_720925" data-name="Trazado 720925" d="M152.378,327a22.4,22.4,0,0,1,0,4.212,22.393,22.393,0,0,1,0-4.212" transform="translate(-94.153 -202.181)" fill="#e0e0e0"/>
            <path id="Trazado_720926" data-name="Trazado 720926" d="M157.207,327a22.393,22.393,0,0,1,0,4.212,22.4,22.4,0,0,1,0-4.212" transform="translate(-97.138 -202.181)" fill="#e0e0e0"/>
            <path id="Trazado_720927" data-name="Trazado 720927" d="M162.035,327a22.4,22.4,0,0,1,0,4.212,22.4,22.4,0,0,1,0-4.212" transform="translate(-100.123 -202.181)" fill="#e0e0e0"/>
            <path id="Trazado_720928" data-name="Trazado 720928" d="M166.864,327a22.4,22.4,0,0,1,0,4.212,22.393,22.393,0,0,1,0-4.212" transform="translate(-103.109 -202.181)" fill="#e0e0e0"/>
            <path id="Trazado_720929" data-name="Trazado 720929" d="M171.693,327a22.393,22.393,0,0,1,0,4.212,22.4,22.4,0,0,1,0-4.212" transform="translate(-106.095 -202.181)" fill="#e0e0e0"/>
            <path id="Trazado_720930" data-name="Trazado 720930" d="M176.522,327a22.393,22.393,0,0,1,0,4.212,22.4,22.4,0,0,1,0-4.212" transform="translate(-109.081 -202.181)" fill="#e0e0e0"/>
            <path id="Trazado_720931" data-name="Trazado 720931" d="M181.35,327a22.4,22.4,0,0,1,0,4.212,22.393,22.393,0,0,1,0-4.212" transform="translate(-112.066 -202.181)" fill="#e0e0e0"/>
            <path id="Trazado_720932" data-name="Trazado 720932" d="M186.179,327a22.4,22.4,0,0,1,0,4.212,22.4,22.4,0,0,1,0-4.212" transform="translate(-115.051 -202.181)" fill="#e0e0e0"/>
            <path id="Trazado_720933" data-name="Trazado 720933" d="M133.429,289.162H93.568a1.434,1.434,0,0,0-1.434,1.434v8.259a1.434,1.434,0,0,0,1.434,1.434h39.861a1.434,1.434,0,0,0,1.434-1.434V290.6a1.434,1.434,0,0,0-1.434-1.434" transform="translate(-56.965 -178.786)" fill="#455a64"/>
            <path id="Trazado_720934" data-name="Trazado 720934" d="M161.191,296.12H142.785a.27.27,0,0,0-.27.27v5.742a.27.27,0,0,0,.27.27h18.406a.27.27,0,0,0,.27-.27V296.39a.27.27,0,0,0-.27-.27" transform="translate(-88.116 -183.088)" fill="#fff"/>
            <path id="Trazado_720935" data-name="Trazado 720935" d="M116.247,300.665a2.274,2.274,0,1,0-2.274,2.274,2.274,2.274,0,0,0,2.274-2.274" transform="translate(-69.062 -184.492)" fill="#263238"/>
            <path id="Trazado_720936" data-name="Trazado 720936" d="M113.354,302.7a2.656,2.656,0,1,1,2.656-2.656,2.659,2.659,0,0,1-2.656,2.656m0-4.549a1.893,1.893,0,1,0,1.893,1.893,1.895,1.895,0,0,0-1.893-1.893" transform="translate(-68.443 -183.874)" fill="#e0e0e0"/>
            <path id="Trazado_720937" data-name="Trazado 720937" d="M147.549,298.933a22.4,22.4,0,0,1,0,4.212,22.393,22.393,0,0,1,0-4.212" transform="translate(-91.167 -184.827)" fill="#e0e0e0"/>
            <path id="Trazado_720938" data-name="Trazado 720938" d="M152.378,298.933a22.4,22.4,0,0,1,0,4.212,22.393,22.393,0,0,1,0-4.212" transform="translate(-94.153 -184.827)" fill="#e0e0e0"/>
            <path id="Trazado_720939" data-name="Trazado 720939" d="M157.207,298.933a22.393,22.393,0,0,1,0,4.212,22.4,22.4,0,0,1,0-4.212" transform="translate(-97.138 -184.827)" fill="#e0e0e0"/>
            <path id="Trazado_720940" data-name="Trazado 720940" d="M162.035,298.933a22.4,22.4,0,0,1,0,4.212,22.4,22.4,0,0,1,0-4.212" transform="translate(-100.123 -184.827)" fill="#e0e0e0"/>
            <path id="Trazado_720941" data-name="Trazado 720941" d="M166.864,298.933a22.4,22.4,0,0,1,0,4.212,22.393,22.393,0,0,1,0-4.212" transform="translate(-103.109 -184.827)" fill="#e0e0e0"/>
            <path id="Trazado_720942" data-name="Trazado 720942" d="M171.693,298.933a22.393,22.393,0,0,1,0,4.212,22.4,22.4,0,0,1,0-4.212" transform="translate(-106.095 -184.827)" fill="#e0e0e0"/>
            <path id="Trazado_720943" data-name="Trazado 720943" d="M176.522,298.933a22.393,22.393,0,0,1,0,4.212,22.4,22.4,0,0,1,0-4.212" transform="translate(-109.081 -184.827)" fill="#e0e0e0"/>
            <path id="Trazado_720944" data-name="Trazado 720944" d="M181.35,298.933a22.4,22.4,0,0,1,0,4.212,22.393,22.393,0,0,1,0-4.212" transform="translate(-112.066 -184.827)" fill="#e0e0e0"/>
            <path id="Trazado_720945" data-name="Trazado 720945" d="M186.179,298.933a22.4,22.4,0,0,1,0,4.212,22.4,22.4,0,0,1,0-4.212" transform="translate(-115.051 -184.827)" fill="#e0e0e0"/>
            <path id="Trazado_720946" data-name="Trazado 720946" d="M133.429,346.535H93.568a1.434,1.434,0,0,0-1.434,1.434v8.259a1.434,1.434,0,0,0,1.434,1.434h39.861a1.434,1.434,0,0,0,1.434-1.434v-8.259a1.434,1.434,0,0,0-1.434-1.434" transform="translate(-56.965 -214.259)" fill="#e0e0e0"/>
            <path id="Trazado_720947" data-name="Trazado 720947" d="M161.191,353.493H142.785a.27.27,0,0,0-.27.27v5.742a.27.27,0,0,0,.27.27h18.406a.27.27,0,0,0,.27-.27v-5.742a.27.27,0,0,0-.27-.27" transform="translate(-88.116 -218.561)" fill="#fff"/>
            <path id="Trazado_720948" data-name="Trazado 720948" d="M116.247,358.039a2.274,2.274,0,1,0-2.274,2.274,2.274,2.274,0,0,0,2.274-2.274" transform="translate(-69.062 -219.966)" fill="#263238"/>
            <path id="Trazado_720949" data-name="Trazado 720949" d="M113.354,360.076a2.656,2.656,0,1,1,2.656-2.656,2.659,2.659,0,0,1-2.656,2.656m0-4.549a1.893,1.893,0,1,0,1.893,1.893,1.895,1.895,0,0,0-1.893-1.893" transform="translate(-68.443 -219.347)" fill="#f5f5f5"/>
            <path id="Trazado_720950" data-name="Trazado 720950" d="M147.549,356.306a22.4,22.4,0,0,1,0,4.212,22.393,22.393,0,0,1,0-4.212" transform="translate(-91.167 -220.3)" fill="#e0e0e0"/>
            <path id="Trazado_720951" data-name="Trazado 720951" d="M152.378,356.306a22.4,22.4,0,0,1,0,4.212,22.393,22.393,0,0,1,0-4.212" transform="translate(-94.153 -220.3)" fill="#e0e0e0"/>
            <path id="Trazado_720952" data-name="Trazado 720952" d="M157.207,356.306a22.393,22.393,0,0,1,0,4.212,22.4,22.4,0,0,1,0-4.212" transform="translate(-97.138 -220.3)" fill="#e0e0e0"/>
            <path id="Trazado_720953" data-name="Trazado 720953" d="M162.035,356.306a22.4,22.4,0,0,1,0,4.212,22.4,22.4,0,0,1,0-4.212" transform="translate(-100.123 -220.3)" fill="#e0e0e0"/>
            <path id="Trazado_720954" data-name="Trazado 720954" d="M166.864,356.306a22.4,22.4,0,0,1,0,4.212,22.393,22.393,0,0,1,0-4.212" transform="translate(-103.109 -220.3)" fill="#e0e0e0"/>
            <path id="Trazado_720955" data-name="Trazado 720955" d="M171.693,356.306a22.393,22.393,0,0,1,0,4.212,22.4,22.4,0,0,1,0-4.212" transform="translate(-106.095 -220.3)" fill="#e0e0e0"/>
            <path id="Trazado_720956" data-name="Trazado 720956" d="M176.522,356.306a22.393,22.393,0,0,1,0,4.212,22.4,22.4,0,0,1,0-4.212" transform="translate(-109.081 -220.3)" fill="#e0e0e0"/>
            <path id="Trazado_720957" data-name="Trazado 720957" d="M181.35,356.306a22.4,22.4,0,0,1,0,4.212,22.393,22.393,0,0,1,0-4.212" transform="translate(-112.066 -220.3)" fill="#e0e0e0"/>
            <path id="Trazado_720958" data-name="Trazado 720958" d="M186.179,356.306a22.4,22.4,0,0,1,0,4.212,22.4,22.4,0,0,1,0-4.212" transform="translate(-115.051 -220.3)" fill="#e0e0e0"/>
            <path id="Trazado_720959" data-name="Trazado 720959" d="M19.365,316.88,16.2,323.71s-7.9-1.045-8.609.161L20.511,330.6l5.367-10.441Z" transform="translate(-4.694 -195.924)" fill="#455a64"/>
            <path id="Trazado_720960" data-name="Trazado 720960" d="M39.684,338.378a.6.6,0,0,1,.06.8.577.577,0,0,1-.792.066.633.633,0,0,1-.059-.847.6.6,0,0,1,.831.022" transform="translate(-23.963 -209.131)" fill="#e0e0e0"/>
            <path id="Trazado_720961" data-name="Trazado 720961" d="M20.347,341.309l.428-.832L8.1,334.194a1.112,1.112,0,0,0-.777.418Z" transform="translate(-4.53 -206.629)" fill="#263238"/>
            <path id="Trazado_720962" data-name="Trazado 720962" d="M29.775,334.7c-.031.065.275.257.486.623s.242.721.314.725.164-.414-.1-.852-.685-.561-.7-.5" transform="translate(-18.408 -206.932)" fill="#263238"/>
            <path id="Trazado_720963" data-name="Trazado 720963" d="M25.407,334.374c-.046.055.176.3.256.686s0,.7.063.729.29-.312.182-.784-.468-.691-.5-.631" transform="translate(-15.705 -206.734)" fill="#263238"/>
            <path id="Trazado_720964" data-name="Trazado 720964" d="M21.152,335.468c.051.043.3-.232.316-.666s-.215-.726-.269-.686.036.321.019.678-.127.636-.066.674" transform="translate(-13.068 -206.578)" fill="#263238"/>
            <path id="Trazado_720965" data-name="Trazado 720965" d="M32.136,330.744c0,.072.336.133.686.341s.574.466.635.428-.094-.4-.51-.644-.817-.192-.811-.125" transform="translate(-19.869 -204.461)" fill="#263238"/>
            <path id="Trazado_720966" data-name="Trazado 720966" d="M33.44,326.137a1.384,1.384,0,0,0,.659.33,3.32,3.32,0,0,0,.794.138,3.5,3.5,0,0,0,.479-.009.9.9,0,0,0,.277-.054.313.313,0,0,0,.2-.326.4.4,0,0,0-.207-.289.962.962,0,0,0-.264-.091,2.6,2.6,0,0,0-1.287.023c-.447.128-.673.314-.657.337s.268-.089.7-.165a2.945,2.945,0,0,1,.753-.033,2.782,2.782,0,0,1,.436.075c.157.034.276.093.28.173,0,.03,0,.04-.052.066a.743.743,0,0,1-.2.039,3.864,3.864,0,0,1-.448.023,4.087,4.087,0,0,1-.759-.079,5.115,5.115,0,0,0-.7-.159" transform="translate(-20.673 -201.418)" fill="#263238"/>
            <path id="Trazado_720967" data-name="Trazado 720967" d="M59.086,345.4l.4,7.517s-7.472,2.774-7.533,4.171l14.568-.1-.143-11.739Z" transform="translate(-32.122 -213.468)" fill="#455a64"/>
            <path id="Trazado_720968" data-name="Trazado 720968" d="M82.085,363.507a.6.6,0,0,1,.427.678.578.578,0,0,1-.669.429.634.634,0,0,1-.449-.721.6.6,0,0,1,.745-.37" transform="translate(-50.314 -224.739)" fill="#e0e0e0"/>
            <path id="Trazado_720969" data-name="Trazado 720969" d="M66.405,374.492l-.011-.935-14.138.376a1.111,1.111,0,0,0-.491.734Z" transform="translate(-32.006 -230.966)" fill="#263238"/>
            <path id="Trazado_720970" data-name="Trazado 720970" d="M71.34,365.348c0,.072.363.1.721.323s.551.523.616.494-.049-.443-.486-.707-.868-.175-.851-.11" transform="translate(-44.109 -225.847)" fill="#263238"/>
            <path id="Trazado_720971" data-name="Trazado 720971" d="M67.328,367.153c-.015.07.3.187.547.486s.325.62.4.615.11-.411-.207-.778-.737-.392-.737-.324" transform="translate(-41.628 -226.988)" fill="#263238"/>
            <path id="Trazado_720972" data-name="Trazado 720972" d="M64.152,370.088c.066.014.159-.347-.032-.737s-.53-.541-.559-.48.182.267.334.59.186.621.257.627" transform="translate(-39.296 -228.061)" fill="#263238"/>
            <path id="Trazado_720973" data-name="Trazado 720973" d="M71.6,360.477c.031.065.359-.04.765-.02s.725.143.762.081-.273-.313-.752-.331-.812.213-.775.269" transform="translate(-44.267 -222.712)" fill="#263238"/>
            <path id="Trazado_720974" data-name="Trazado 720974" d="M70.843,354.71a1.382,1.382,0,0,0,.737-.016,3.316,3.316,0,0,0,.766-.25,3.483,3.483,0,0,0,.419-.232.911.911,0,0,0,.219-.177.313.313,0,0,0,.026-.382.4.4,0,0,0-.318-.159.96.96,0,0,0-.276.043,2.664,2.664,0,0,0-.455.165,2.607,2.607,0,0,0-.671.458c-.336.322-.448.592-.423.606s.2-.2.538-.471a2.932,2.932,0,0,1,.65-.382,2.767,2.767,0,0,1,.421-.138c.155-.044.287-.047.329.022.015.026.017.037-.015.083a.735.735,0,0,1-.161.129,3.923,3.923,0,0,1-.385.229,4.079,4.079,0,0,1-.708.285,5.085,5.085,0,0,0-.694.188" transform="translate(-43.801 -218.561)" fill="#263238"/>
            <path id="Trazado_720975" data-name="Trazado 720975" d="M80.954,245.362s-29.831-3.533-31.55-3.533a6.61,6.61,0,0,0-6.535,5.331c-.446,1.757-9.432,27.139-9.432,27.139l6.629,3.436,9.748-17.321,4.968-8.643,25.6,3.956Z" transform="translate(-20.674 -149.52)" fill="#263238"/>
            <path id="Trazado_720976" data-name="Trazado 720976" d="M74.75,264.659a7.99,7.99,0,0,0-6.161,3.2c-1.27,1.881-.823,5.243-.849,7.78-.035,3.454.8,24.5.8,24.5l8.183.137,1.714-21.937-.1-4.054,16.338-1.328A9.668,9.668,0,0,0,92.5,264.1c-.471-.5-17.753.56-17.753.56" transform="translate(-41.849 -163.206)" fill="#263238"/>
            <path id="Trazado_720977" data-name="Trazado 720977" d="M136.336,250.557s2.549,5.885-.891,10.917c-2.272,3.323-6.63,2.562-6.63,2.562l-5.787-7.247,4.618-7.217Z" transform="translate(-76.067 -154.307)" fill="#263238"/>
            <path id="Trazado_720978" data-name="Trazado 720978" d="M69.927,314.381a.757.757,0,0,1,.145-.008l.424,0,1.63.008,5.986.067-.074.068c.317-4.4.744-10.33,1.212-16.836.157-2.119.309-4.176.454-6.132v.009q-.037-1.558-.072-3.024l0-.087.087-.007c4.643-.374,8.6-.708,11.4-.963,1.4-.128,2.506-.233,3.262-.319.379-.037.668-.082.865-.1s.292-.06.3-.054a2.423,2.423,0,0,1-.29.085c-.2.032-.485.087-.863.134-.756.1-1.862.227-3.259.371-2.794.287-6.751.646-11.394,1.035l.085-.094q.038,1.464.079,3.024v.01c-.143,1.957-.293,4.014-.448,6.133-.488,6.5-.933,12.429-1.264,16.832l0,.069-.069,0-5.984-.132-1.629-.047-.424-.018a.716.716,0,0,1-.144-.013" transform="translate(-43.235 -177.445)" fill="#455a64"/>
            <path id="Trazado_720979" data-name="Trazado 720979" d="M94.806,273.632a.68.68,0,0,0-.109-.057l-.326-.152-1.259-.57-4.642-2.068-6.894-3.049L77.5,265.941c-.357-.15-.7-.325-1.08-.455a6.875,6.875,0,0,0-1.162-.3,8.816,8.816,0,0,0-2.44-.021,7.733,7.733,0,0,0-2.348.666,4.169,4.169,0,0,0-1.009.66,3.777,3.777,0,0,0-.741.927,5.26,5.26,0,0,0-.683,2.185c-.032.38-.01.745-.011,1.108s.008.722.011,1.077c.032,2.836.062,5.39.086,7.538s.055,3.872.072,5.082c.012.593.021,1.056.028,1.381,0,.152.008.27.011.359a.727.727,0,0,0,.009.123.647.647,0,0,0,.007-.123c0-.089,0-.208,0-.36,0-.325,0-.789,0-1.382,0-1.209-.012-2.943-.02-5.082s-.032-4.7-.051-7.537q0-.533-.008-1.077c0-.362-.019-.734.013-1.094a5.114,5.114,0,0,1,.666-2.117,3.622,3.622,0,0,1,.712-.889,4.029,4.029,0,0,1,.971-.633,7.586,7.586,0,0,1,2.3-.65,8.667,8.667,0,0,1,2.393.019,6.7,6.7,0,0,1,1.134.289c.365.123.718.3,1.072.45l4.077,1.786,6.907,3.016,4.663,2.02,1.271.542.332.137a.673.673,0,0,0,.116.042" transform="translate(-42.057 -163.905)" fill="#455a64"/>
            <path id="Trazado_720980" data-name="Trazado 720980" d="M98.688,191.2a2.717,2.717,0,0,0-.065-.477c-.056-.3-.119-.747-.181-1.3s-.1-1.2-.115-1.933a18.856,18.856,0,0,1,.549-4.7c.178-.707.369-1.336.557-1.855s.35-.936.474-1.218a2.755,2.755,0,0,0,.173-.45,2.67,2.67,0,0,0-.231.423,13.083,13.083,0,0,0-.525,1.2,17.061,17.061,0,0,0-.6,1.858,17.553,17.553,0,0,0-.554,4.737,16.972,16.972,0,0,0,.151,1.945,13.037,13.037,0,0,0,.233,1.294,2.69,2.69,0,0,0,.127.465" transform="translate(-60.701 -110.845)" fill="#263238"/>
            <path id="Trazado_720981" data-name="Trazado 720981" d="M99.768,155.494l-.015-1.2L98.339,156.6l-2.882,1.062c-.906,1.044-3.842,12.8-3.248,14.743L93.234,183.9l-2.922,4.394,5.243.561s1.126-1.112.845-4.056a116.649,116.649,0,0,1,.132-17.845c.162-2.835,3.236-11.455,3.236-11.455" transform="translate(-55.839 -95.396)" fill="#00bcd4"/>
            <path id="Trazado_720982" data-name="Trazado 720982" d="M89.364,160.331s-4.73,1.547-5.35,2.438c-1.686,2.423-11.838,19-6.854,23.943,3.264,3.238,7.849-3.593,7.849-3.593Z" transform="translate(-46.864 -99.131)" fill="#00bcd4"/>
            <path id="Trazado_720983" data-name="Trazado 720983" d="M80.967,210.164a2.519,2.519,0,0,0,.431-.076l1.179-.253c1-.21,2.407-.508,4.017-.75l-.086-.05.482,1.238,1.147,2.912.011-.073-1.78,2.22-.494.635a1.321,1.321,0,0,0-.163.237,1.319,1.319,0,0,0,.2-.207l.526-.61,1.826-2.182.027-.033-.016-.04c-.338-.874-.724-1.867-1.131-2.918l-.485-1.238-.024-.06-.063.009c-1.621.25-3.02.568-4.018.808-.5.12-.9.224-1.169.3a2.524,2.524,0,0,0-.418.131" transform="translate(-50.061 -129.17)" fill="#263238"/>
            <path id="Trazado_720984" data-name="Trazado 720984" d="M92.719,187.688a3.268,3.268,0,0,0-.048-.529l-.176-1.434a22.786,22.786,0,0,1-.156-4.742,13.021,13.021,0,0,1,1.31-4.532c.266-.547.507-.978.675-1.274a3.808,3.808,0,0,0,.253-.467s-.034.034-.087.107-.128.182-.22.326c-.186.287-.443.711-.724,1.255a12.4,12.4,0,0,0-1.37,4.568,20.662,20.662,0,0,0,.2,4.772c.085.605.169,1.092.228,1.429a3.311,3.311,0,0,0,.111.52" transform="translate(-56.952 -108.021)" fill="#263238"/>
            <path id="Trazado_720985" data-name="Trazado 720985" d="M103.271,177a.819.819,0,0,0,0-.19c-.011-.142-.024-.321-.04-.542-.044-.492-.1-1.166-.177-1.99-.081-.846-.177-1.844-.284-2.949-.055-.555-.113-1.138-.173-1.741a6.266,6.266,0,0,1-.049-.911,1.673,1.673,0,0,1,.249-.862.983.983,0,0,1,.834-.485l.3.019-.248-.168-1.244-.84.024.105,2.429-4.168.692-1.217.179-.329a.479.479,0,0,0,.054-.118.452.452,0,0,0-.078.1l-.2.316-.732,1.193-2.479,4.138-.038.063.061.042,1.241.844.05-.149a1.143,1.143,0,0,0-.98.557,1.828,1.828,0,0,0-.275.945,6.345,6.345,0,0,0,.052.935l.183,1.74c.119,1.1.228,2.1.319,2.946.1.822.173,1.495.229,1.985l.07.539a.812.812,0,0,0,.036.187" transform="translate(-63.241 -99.309)" fill="#263238"/>
            <path id="Trazado_720986" data-name="Trazado 720986" d="M127.385,155.024l1.415,1.517,5.25,1.668a93.28,93.28,0,0,1-1.241,11.5c-1.156,6.475-1.776,13.076-1.81,13.178a35.23,35.23,0,0,1,4.237,7.394c1.256,3.066,1.945,9.466,1.945,9.466l-13.218,4.049-2.239-23.955.583-11.081Z" transform="translate(-75.261 -95.85)" fill="#00bcd4"/>
            <path id="Trazado_720987" data-name="Trazado 720987" d="M123.257,176.926a1.105,1.105,0,0,0,.1-.2l.257-.578c.222-.5.544-1.227.96-2.115a75.669,75.669,0,0,1,3.589-6.762l.363-.6.05-.082-.088-.036L127,165.942l.021.135a4.052,4.052,0,0,1,1.652-.831l.054-.013,0-.055a18.187,18.187,0,0,1,.464-2.626c.184-.783.342-1.474.434-2.054a9.875,9.875,0,0,0,.135-1.363c0-.159,0-.281,0-.364a.479.479,0,0,0-.011-.125,4.386,4.386,0,0,0-.033.487,11.986,11.986,0,0,1-.177,1.349c-.1.574-.273,1.259-.467,2.041a17.582,17.582,0,0,0-.492,2.643l.058-.068a4.176,4.176,0,0,0-1.72.855l-.1.085.123.051,1.487.618-.039-.118-.364.6a66.484,66.484,0,0,0-3.554,6.8c-.4.9-.709,1.629-.913,2.139l-.228.59a1.113,1.113,0,0,0-.069.21" transform="translate(-76.208 -98.089)" fill="#263238"/>
            <path id="Trazado_720988" data-name="Trazado 720988" d="M141.217,249.567a1.119,1.119,0,0,0,.118.164l.35.44,1.292,1.582.034-.1-6.278,1.18.082.033-.1-.139-1.752-2.437-.053.122,4.517-.586,1.311-.183.353-.055a.578.578,0,0,0,.125-.027.394.394,0,0,0-.116,0l-.345.031-1.305.138-4.559.525-.131.015.076.107,1.745,2.442.1.139.031.043.051-.01,6.268-1.226.1-.019-.065-.076-1.35-1.563-.368-.414a.853.853,0,0,0-.132-.134" transform="translate(-83.322 -154.303)" fill="#263238"/>
            <g id="Grupo_1008631" data-name="Grupo 1008631" transform="translate(51.945 96.547)" opacity="0.3">
              <g id="Grupo_1008630" data-name="Grupo 1008630">
                <g id="Grupo_1008629" data-name="Grupo 1008629" clip-path="url(#clip-path-18)">
                  <path id="Trazado_720989" data-name="Trazado 720989" d="M143.033,253.953l.415.811-5.891,1.267-1.472-3.1L137.567,255Z" transform="translate(-136.085 -252.933)"/>
                </g>
              </g>
            </g>
            <path id="Trazado_720990" data-name="Trazado 720990" d="M39.321,204.421l3.223,15.822H70.517a.559.559,0,1,0,0-1.117H64.885L61.9,204.411a.61.61,0,0,0-.592-.489l-21.379-.234a.611.611,0,0,0-.605.733" transform="translate(-24.304 -125.938)" fill="#e0e0e0"/>
            <path id="Trazado_720991" data-name="Trazado 720991" d="M39.317,204.408s0-.016-.009-.048a.557.557,0,0,1,0-.144.615.615,0,0,1,.3-.463.638.638,0,0,1,.185-.073.988.988,0,0,1,.22-.013l.5,0,1.259.01,8.084.077,5.635.057,3.157.032,1.656.017.846.009c.072,0,.14,0,.216.005a.643.643,0,0,1,.523.384.992.992,0,0,1,.059.215l.043.213.087.427q.088.429.176.864l.358,1.76.741,3.643c.5,2.48,1.029,5.061,1.569,7.719l-.037-.031H70.42a1.019,1.019,0,0,1,.218.013.6.6,0,0,1,.16,1.11.611.611,0,0,1-.263.071H63.247l-7.573,0-13.134-.006h-.024l0-.024-2.341-11.56-.636-3.161c-.072-.361-.126-.637-.163-.824s-.053-.282-.053-.282.022.095.061.28l.172.823c.15.724.369,1.789.652,3.158.561,2.74,1.371,6.694,2.367,11.555l-.029-.024,13.134-.007,7.573,0h7.285a.529.529,0,0,0,.229-.061.52.52,0,0,0-.139-.966.988.988,0,0,0-.2-.011H64.85l-.006-.031c-.539-2.659-1.063-5.239-1.566-7.72l-.738-3.643q-.181-.891-.357-1.76-.088-.435-.175-.864l-.087-.428-.043-.213a.957.957,0,0,0-.054-.2.578.578,0,0,0-.468-.345c-.065-.006-.14,0-.21,0l-.846-.01-1.656-.019-3.157-.037-5.635-.066-8.084-.1-1.259-.017-.5-.007a.949.949,0,0,0-.216.011.629.629,0,0,0-.181.07.611.611,0,0,0-.3.451.805.805,0,0,0,0,.19" transform="translate(-24.3 -125.925)" fill="#263238"/>
            <path id="Trazado_720992" data-name="Trazado 720992" d="M70.118,223.081a.924.924,0,1,1-.924-.924.924.924,0,0,1,.924.924" transform="translate(-42.211 -137.357)" fill="#fff"/>
            <path id="Trazado_720993" data-name="Trazado 720993" d="M39.409,205.936s.033,0,.1,0l.283,0,1.087,0,4,.019,13.2.093,1.909.016.469,0a1.228,1.228,0,0,1,.239.014.675.675,0,0,1,.227.092.663.663,0,0,1,.284.385c.035.155.061.3.092.451l.682,3.437,1.15,5.82.769,3.925.205,1.068.052.278c.011.063.015.1.015.1s-.009-.032-.023-.094l-.059-.276-.219-1.065c-.188-.928-.458-2.267-.793-3.92L61.9,210.457c-.219-1.1-.448-2.244-.686-3.436-.03-.148-.058-.3-.091-.446a.588.588,0,0,0-.252-.341.594.594,0,0,0-.2-.081,1.134,1.134,0,0,0-.225-.013l-.469,0-1.909-.015-13.2-.116-4-.044-1.087-.016-.283-.006c-.064,0-.1,0-.1,0" transform="translate(-24.366 -127.325)" fill="#263238"/>
            <path id="Trazado_720994" data-name="Trazado 720994" d="M115.064,224.29l.009.006-.009-.006" transform="translate(-71.143 -138.676)" fill="#ffc09d"/>
            <path id="Trazado_720995" data-name="Trazado 720995" d="M115.207,224.38l.02.013-.02-.013" transform="translate(-71.231 -138.732)" fill="#ffc09d"/>
            <path id="Trazado_720996" data-name="Trazado 720996" d="M115.088,224.305l.045.029-.045-.029" transform="translate(-71.158 -138.685)" fill="#ffc09d"/>
            <path id="Trazado_720997" data-name="Trazado 720997" d="M115.011,224.256l.02.013-.02-.013" transform="translate(-71.11 -138.655)" fill="#ffc09d"/>
            <path id="Trazado_720998" data-name="Trazado 720998" d="M100.113,227.129c.519-.752,4.085-2.475,4.085-2.475l-.873-.314-1.04.3a2.453,2.453,0,0,1-.536.878c-.426.476-.98-.134-.98-.134l.656-1.957,2.1-.947a19.444,19.444,0,0,1,2.091.678l.7.813c.313.311,1.183,1.5,1.451,1.56.083.02,2.559-.789,2.559-.789l1.026,4.541-3.78.327-2.3.352a15.809,15.809,0,0,1-1.9.411c-.759.068-1.229-.23-1.2-.642s.608-.389.608-.389a11.377,11.377,0,0,0,1.506-.46,2.533,2.533,0,0,0,.913-.791h-.805s-1.825.971-2.5,1.239-.725-.377-.754-.575a16.092,16.092,0,0,1,2.143-1.871s-1.985.921-2.352,1.17-.87.276-.953.071-.382-.247.137-1" transform="translate(-61.715 -137.558)" fill="#ffc09d"/>
            <path id="Trazado_720999" data-name="Trazado 720999" d="M115.26,224.413l.018.011-.018-.011" transform="translate(-71.264 -138.752)" fill="#ffc09d"/>
            <path id="Trazado_721000" data-name="Trazado 721000" d="M115.331,224.458h0" transform="translate(-71.308 -138.78)" fill="#ffc09d"/>
            <path id="Trazado_721001" data-name="Trazado 721001" d="M115.306,224.442l.01.006-.01-.006" transform="translate(-71.293 -138.77)" fill="#ffc09d"/>
            <path id="Trazado_721002" data-name="Trazado 721002" d="M122.1,233.337a.416.416,0,0,0,.025-.129.78.78,0,0,0,.008-.154,1.124,1.124,0,0,0-.013-.2,2.835,2.835,0,0,0-.415-1.1,6.072,6.072,0,0,0-.71-.937,2.389,2.389,0,0,0-.347-.341,3.869,3.869,0,0,0,.3.377,7.846,7.846,0,0,1,.684.941,3.108,3.108,0,0,1,.427,1.068c.049.292.018.478.034.479" transform="translate(-74.595 -142.499)" fill="#ff9b6c"/>
            <path id="Trazado_721003" data-name="Trazado 721003" d="M111.516,227.662a1.234,1.234,0,0,0,1.089-.227c-.012-.02-.232.106-.533.167s-.553.037-.556.06" transform="translate(-68.949 -140.619)" fill="#ff9b6c"/>
            <path id="Trazado_721004" data-name="Trazado 721004" d="M109.391,232.827a10.409,10.409,0,0,0,1.739-.486,10.407,10.407,0,0,0-1.739.486" transform="translate(-67.635 -143.652)" fill="#ff9b6c"/>
            <path id="Trazado_721005" data-name="Trazado 721005" d="M113.7,236.718a7.033,7.033,0,0,0,.894-.232,1.716,1.716,0,0,0-.894.232" transform="translate(-70.299 -146.21)" fill="#ff9b6c"/>
            <path id="Trazado_721006" data-name="Trazado 721006" d="M110.06,234.081a1.085,1.085,0,0,1,.435.739c.01,0,.026-.05.023-.136a.709.709,0,0,0-.328-.556c-.073-.044-.126-.055-.13-.046" transform="translate(-68.049 -144.728)" fill="#ff9b6c"/>
            <path id="Trazado_721007" data-name="Trazado 721007" d="M108.4,230.628c-.013.019.123.115.2.294a2.15,2.15,0,0,1,.08.346.4.4,0,0,0-.008-.377c-.088-.205-.265-.283-.271-.263" transform="translate(-67.023 -142.593)" fill="#ff9b6c"/>
            <path id="Trazado_721008" data-name="Trazado 721008" d="M109.628,223.779c.008.005.043-.028.074-.1a.573.573,0,0,0-.068-.565c-.047-.06-.089-.084-.1-.077a.878.878,0,0,1,.089.739" transform="translate(-67.726 -137.903)" fill="#ff9b6c"/>
            <path id="Trazado_721009" data-name="Trazado 721009" d="M134.77,163.368a5.567,5.567,0,0,1,3.132,3.687s.558,1.731.975,3.671c1.013,4.71,2.828,12.737,2.915,15.082.158,4.241-2.911,5.446-4.632,5.817s-12.4,1.691-12.4,1.691l-1.867-5.275,10.891-4.74s-2.077-7.131-2.557-9.359" transform="translate(-75.982 -101.009)" fill="#00bcd4"/>
            <path id="Trazado_721010" data-name="Trazado 721010" d="M131.038,173.942s.019.055.047.163.07.277.123.482l.5,1.855c.444,1.611,1.107,3.944,1.955,6.839l.017.057-.055.024-10.882,4.762.05-.114,1.873,5.274-.1-.063c2.776-.348,5.736-.724,8.78-1.14,1.229-.174,2.454-.331,3.634-.557a6.257,6.257,0,0,0,3.1-1.572,4.882,4.882,0,0,0,1.391-3.014c.014-.139.035-.276.042-.414l0-.415a6.853,6.853,0,0,0-.035-.822c-.059-.545-.134-1.085-.221-1.616-.347-2.124-.764-4.13-1.152-6.007s-.77-3.621-1.11-5.216l-.489-2.273c-.163-.715-.338-1.384-.512-2.007s-.344-1.2-.524-1.722a5.113,5.113,0,0,0-.722-1.315,5.749,5.749,0,0,0-1.524-1.41,5.3,5.3,0,0,0-.472-.271c-.109-.056-.167-.081-.166-.085a1.169,1.169,0,0,1,.174.066,4.3,4.3,0,0,1,.484.255,5.623,5.623,0,0,1,1.565,1.4,5.172,5.172,0,0,1,.749,1.327c.188.527.359,1.1.542,1.726s.36,1.292.528,2.009l.5,2.272,1.134,5.211c.394,1.876.817,3.882,1.171,6.012q.133.8.226,1.626a7.155,7.155,0,0,1,.037.84l0,.425c-.007.142-.029.284-.042.426a5.07,5.07,0,0,1-1.442,3.13,6.445,6.445,0,0,1-3.193,1.627c-1.2.231-2.416.386-3.65.561-3.046.416-6.006.79-8.783,1.134l-.077.01-.026-.073-1.863-5.277-.028-.08.078-.034,10.9-4.719-.038.081c-.832-2.9-1.475-5.241-1.9-6.858-.21-.809-.366-1.437-.463-1.865-.05-.213-.082-.377-.1-.487s-.028-.167-.028-.167" transform="translate(-75.796 -101.009)" fill="#263238"/>
            <path id="Trazado_721011" data-name="Trazado 721011" d="M143.365,172.708a1.168,1.168,0,0,1-.061-.342,7.2,7.2,0,0,1-.042-.945,10.044,10.044,0,0,1,1.992-5.834,7.1,7.1,0,0,1,.611-.723c.157-.16.248-.243.258-.234.026.024-.306.388-.755,1.038a11.217,11.217,0,0,0-1.965,5.758c-.043.789,0,1.28-.037,1.283" transform="translate(-88.577 -101.788)" fill="#263238"/>
          </g>
        </g>
      </g>
    </g>
  </g>
</svg>
