<svg xmlns="http://www.w3.org/2000/svg" xmlns:xlink="http://www.w3.org/1999/xlink" width="271" height="172" viewBox="0 0 271 172">
  <defs>
    <clipPath id="clip-path">
      <rect id="Rectángulo_351490" data-name="Rectángulo 351490" width="204.86" height="167.3" fill="none"/>
    </clipPath>
    <clipPath id="clip-path-3">
      <rect id="Rectángulo_351472" data-name="Rectángulo 351472" width="30.017" height="17.331" fill="none"/>
    </clipPath>
    <clipPath id="clip-path-4">
      <rect id="Rectángulo_351473" data-name="Rectángulo 351473" width="47.447" height="27.394" fill="none"/>
    </clipPath>
    <clipPath id="clip-path-6">
      <rect id="Rectángulo_351475" data-name="Rectángulo 351475" width="12.528" height="28.462" fill="none"/>
    </clipPath>
    <clipPath id="clip-path-7">
      <rect id="Rectángulo_351476" data-name="Rectángulo 351476" width="12.713" height="20.747" fill="none"/>
    </clipPath>
    <clipPath id="clip-path-8">
      <rect id="Rectángulo_351477" data-name="Rectángulo 351477" width="12.939" height="29.244" fill="none"/>
    </clipPath>
    <clipPath id="clip-path-9">
      <rect id="Rectángulo_351478" data-name="Rectángulo 351478" width="9.727" height="13.844" fill="none"/>
    </clipPath>
    <clipPath id="clip-path-10">
      <rect id="Rectángulo_351479" data-name="Rectángulo 351479" width="13.327" height="15.128" fill="none"/>
    </clipPath>
    <clipPath id="clip-path-11">
      <rect id="Rectángulo_351480" data-name="Rectángulo 351480" width="7.876" height="4.115" fill="none"/>
    </clipPath>
    <clipPath id="clip-path-12">
      <rect id="Rectángulo_351481" data-name="Rectángulo 351481" width="10.516" height="13.152" fill="none"/>
    </clipPath>
    <clipPath id="clip-path-13">
      <rect id="Rectángulo_351482" data-name="Rectángulo 351482" width="13.997" height="14.703" fill="none"/>
    </clipPath>
    <clipPath id="clip-path-14">
      <rect id="Rectángulo_351483" data-name="Rectángulo 351483" width="19.848" height="12.048" fill="none"/>
    </clipPath>
    <clipPath id="clip-path-15">
      <rect id="Rectángulo_351484" data-name="Rectángulo 351484" width="11.944" height="21.288" fill="none"/>
    </clipPath>
    <clipPath id="clip-path-16">
      <rect id="Rectángulo_351485" data-name="Rectángulo 351485" width="40.803" height="26.872" fill="none"/>
    </clipPath>
    <clipPath id="clip-path-17">
      <rect id="Rectángulo_351486" data-name="Rectángulo 351486" width="14.723" height="27.695" fill="none"/>
    </clipPath>
    <clipPath id="clip-path-18">
      <rect id="Rectángulo_351487" data-name="Rectángulo 351487" width="23.888" height="51.057" fill="none"/>
    </clipPath>
    <clipPath id="clip-path-19">
      <rect id="Rectángulo_351488" data-name="Rectángulo 351488" width="10.967" height="13.52" fill="none"/>
    </clipPath>
  </defs>
  <g id="Grupo_1008916" data-name="Grupo 1008916" transform="translate(-958 -9133)">
    <rect id="s1" width="271" height="172" rx="12" transform="translate(958 9133)" fill="none"/>
    <g id="Grupo_1008915" data-name="Grupo 1008915" transform="translate(991 9133)">
      <g id="Grupo_1008914" data-name="Grupo 1008914" clip-path="url(#clip-path)">
        <g id="Grupo_1008913" data-name="Grupo 1008913">
          <g id="Grupo_1008912" data-name="Grupo 1008912" clip-path="url(#clip-path)">
            <g id="Grupo_1008863" data-name="Grupo 1008863" transform="translate(86.237 125.324)" opacity="0.25">
              <g id="Grupo_1008862" data-name="Grupo 1008862">
                <g id="Grupo_1008861" data-name="Grupo 1008861" clip-path="url(#clip-path-3)">
                  <path id="Trazado_722782" data-name="Trazado 722782" d="M219.051,283.64c5.861,3.384,5.861,8.871,0,12.255s-15.364,3.384-21.226,0-5.861-8.871,0-12.255,15.364-3.384,21.226,0" transform="translate(-193.43 -281.103)" fill="#e1e1e1"/>
                </g>
              </g>
            </g>
            <g id="Grupo_1008866" data-name="Grupo 1008866" transform="translate(133.486 138.423)" opacity="0.25">
              <g id="Grupo_1008865" data-name="Grupo 1008865">
                <g id="Grupo_1008864" data-name="Grupo 1008864" clip-path="url(#clip-path-4)">
                  <path id="Trazado_722783" data-name="Trazado 722783" d="M339.907,314.494c9.264,5.349,9.264,14.021,0,19.37s-24.286,5.349-33.55,0-9.265-14.021,0-19.37,24.286-5.349,33.55,0" transform="translate(-299.409 -310.483)" fill="#e1e1e1"/>
                </g>
              </g>
            </g>
            <g id="Grupo_1008869" data-name="Grupo 1008869" transform="translate(17.077 139.907)" opacity="0.25">
              <g id="Grupo_1008868" data-name="Grupo 1008868">
                <g id="Grupo_1008867" data-name="Grupo 1008867" clip-path="url(#clip-path-4)">
                  <path id="Trazado_722784" data-name="Trazado 722784" d="M78.8,317.822c9.264,5.349,9.264,14.021,0,19.37s-24.286,5.349-33.55,0-9.264-14.021,0-19.37,24.285-5.349,33.55,0" transform="translate(-38.303 -313.81)" fill="#e1e1e1"/>
                </g>
              </g>
            </g>
            <path id="Trazado_722785" data-name="Trazado 722785" d="M425.288,284l-4.481-1.833a95.486,95.486,0,0,1-.969-11.688c0-7.321,4.557-16.272,10.346-14.774s-1.63,9.686-2.836,16.014S425.288,284,425.288,284" transform="translate(-232.661 -141.612)" fill="#81d4fa"/>
            <g id="Grupo_1008872" data-name="Grupo 1008872" transform="translate(187.177 113.927)" opacity="0.3">
              <g id="Grupo_1008871" data-name="Grupo 1008871">
                <g id="Grupo_1008870" data-name="Grupo 1008870" clip-path="url(#clip-path-6)">
                  <path id="Trazado_722786" data-name="Trazado 722786" d="M425.288,284l-4.481-1.833a95.486,95.486,0,0,1-.969-11.688c0-7.321,4.557-16.272,10.346-14.774s-1.63,9.686-2.836,16.014S425.288,284,425.288,284" transform="translate(-419.838 -255.539)"/>
                </g>
              </g>
            </g>
            <path id="Trazado_722787" data-name="Trazado 722787" d="M426.474,286.368h.006a.189.189,0,0,0,.163-.213c-2.137-16.057,5.083-24.952,5.156-25.04a.189.189,0,1,0-.291-.242c-.074.09-7.4,9.113-5.241,25.333a.19.19,0,0,0,.206.163" transform="translate(-236.004 -144.53)" fill="#fff"/>
            <path id="Trazado_722788" data-name="Trazado 722788" d="M433.779,295.99l-2.34-1.06a24.876,24.876,0,0,1,.313-10.884c1.5-5.77,6.5-9.329,9.025-8.74,3.078.719,3.378,3.568,2.479,5.55-1.059,2.336-8.487,8.714-9.477,15.133" transform="translate(-238.839 -152.531)" fill="#81d4fa"/>
            <g id="Grupo_1008875" data-name="Grupo 1008875" transform="translate(192.147 122.712)" opacity="0.1">
              <g id="Grupo_1008874" data-name="Grupo 1008874">
                <g id="Grupo_1008873" data-name="Grupo 1008873" clip-path="url(#clip-path-7)">
                  <path id="Trazado_722789" data-name="Trazado 722789" d="M433.779,295.99l-2.34-1.06a24.876,24.876,0,0,1,.313-10.884c1.5-5.77,6.5-9.329,9.025-8.74,3.078.719,3.378,3.568,2.479,5.55-1.059,2.336-8.487,8.714-9.477,15.133" transform="translate(-430.986 -275.243)"/>
                </g>
              </g>
            </g>
            <path id="Trazado_722790" data-name="Trazado 722790" d="M434.156,297.792h0a.19.19,0,0,0,.169-.208c-1.049-10.182,7.835-18.011,7.925-18.089a.189.189,0,0,0-.248-.286c-.091.079-9.123,8.038-8.053,18.413a.189.189,0,0,0,.207.169" transform="translate(-240.432 -154.703)" fill="#fff"/>
            <path id="Trazado_722791" data-name="Trazado 722791" d="M21.805,273.829l3.073-1.756s1.473-8.121.371-15.1c-1.55-9.815-8.232-13.2-10.659-12.225s-3,3.883,1.386,9.555c2.586,3.346,5.913,10.419,5.83,19.528" transform="translate(-7.049 -135.541)" fill="#81d4fa"/>
            <g id="Grupo_1008878" data-name="Grupo 1008878" transform="translate(5.671 109.044)" opacity="0.15">
              <g id="Grupo_1008877" data-name="Grupo 1008877">
                <g id="Grupo_1008876" data-name="Grupo 1008876" clip-path="url(#clip-path-8)">
                  <path id="Trazado_722792" data-name="Trazado 722792" d="M21.805,273.829l3.073-1.756s1.473-8.121.371-15.1c-1.55-9.815-8.232-13.2-10.659-12.225s-3,3.883,1.386,9.555c2.586,3.346,5.913,10.419,5.83,19.528" transform="translate(-12.72 -244.585)"/>
                </g>
              </g>
            </g>
            <path id="Trazado_722793" data-name="Trazado 722793" d="M27.069,271.681l-.03,0a.219.219,0,0,1-.187-.247c1.27-9.189-2.425-19.256-6.577-23.314a.219.219,0,0,1,.306-.313c4.228,4.131,7.994,14.362,6.705,23.687a.219.219,0,0,1-.217.189" transform="translate(-11.199 -137.291)" fill="#fff"/>
            <path id="Trazado_722794" data-name="Trazado 722794" d="M6.232,289.231c-.486.279-1.486-.33-1.869-.588a4.633,4.633,0,0,1-1.541-1.769,4.342,4.342,0,0,1-.386-2.608,10.356,10.356,0,0,1,.33-1.387l.387-1.346a3.409,3.409,0,0,0,.2-1.358,3.537,3.537,0,0,0-1.678-2.122A3.379,3.379,0,0,1,0,275.52a3.9,3.9,0,0,1,.976-2.32c.53-.671,1.159-1.264,1.638-1.973a2.72,2.72,0,0,0,.558-1.722,2.841,2.841,0,0,0-.375-1.075,15.251,15.251,0,0,1-1.177-2.157,2.171,2.171,0,0,1,.374-2.295A2.54,2.54,0,0,1,3.9,263.5a4.37,4.37,0,0,1,1.774.624c1.759.979,2.763,3.062,4.63,3.815a18.726,18.726,0,0,0,2.259.552,2.788,2.788,0,0,1,1.864,1.276c.686,1.369-.586,3.055-.1,4.508.427,1.286,1.676,1.778,2.378,2.937a2.751,2.751,0,0,1,.328,1.683,8.072,8.072,0,0,1-.71,2.845,20.247,20.247,0,0,1-1.561,2.563c-.029.029-8.45,4.882-8.525,4.924" transform="translate(0 -146.019)" fill="#81d4fa"/>
            <path id="Trazado_722795" data-name="Trazado 722795" d="M16.459,288.3h-.006a.22.22,0,0,1-.213-.228c.362-8.7-3.736-18.3-6.716-21.089a.219.219,0,0,1,.3-.32c3.04,2.846,7.222,12.607,6.855,21.427a.219.219,0,0,1-.219.21" transform="translate(-5.24 -147.742)" fill="#fff"/>
            <path id="Trazado_722796" data-name="Trazado 722796" d="M14.056,290.4a.216.216,0,0,1-.065-.01,29.4,29.4,0,0,0-6.312-1.017.22.22,0,0,1-.21-.228.213.213,0,0,1,.228-.21,29.934,29.934,0,0,1,6.423,1.037.219.219,0,0,1-.065.428" transform="translate(-4.139 -160.116)" fill="#fff"/>
            <path id="Trazado_722797" data-name="Trazado 722797" d="M372.42,323.869l-4.153-.477-1.077-8.373,5.079,1.506Z" transform="translate(-203.485 -174.574)" fill="#c76668"/>
            <path id="Trazado_722798" data-name="Trazado 722798" d="M358.409,342.575a1.244,1.244,0,0,0,.071,1.015,4.821,4.821,0,0,0,3.166,1.237,6.307,6.307,0,0,0,3.718-.654,2.591,2.591,0,0,0,1.389-2.029,5.357,5.357,0,0,1,.395-2.335c.376-.607.975-1.291,1.105-1.62a3.322,3.322,0,0,0,.01-1.739Z" transform="translate(-198.575 -186.449)" fill="#1a2e35"/>
            <path id="Trazado_722799" data-name="Trazado 722799" d="M362.564,331.421a3.315,3.315,0,0,1-.173.951,8.68,8.68,0,0,1-.918,1.878,7.646,7.646,0,0,1-.625.882c-.453.54-1.016.983-1.5,1.5a3.065,3.065,0,0,0-.926,1.84c-.064,1.176,1.811,1.576,2.793,1.75a7.218,7.218,0,0,0,3.194-.16,2.932,2.932,0,0,0,2.15-2.343c.054-.326.034-.66.073-.989a4.615,4.615,0,0,1,.914-2.057,6.2,6.2,0,0,0,.7-1.119,3.532,3.532,0,0,0-.135-2.272c-.169-.626-.375-1.346-.6-1.287,0,.325.016.369-.217.589-.294.278-.307.7-.618.943a4.306,4.306,0,0,0,.218-.836.479.479,0,0,0-.066-.333.88.88,0,0,0-.361-.193,7.225,7.225,0,0,0-1.428-.325,8.656,8.656,0,0,0-1.992-.01.6.6,0,0,0-.35.2.7.7,0,0,0-.125.4c-.021.188-.006.673-.016.985" transform="translate(-198.627 -182.752)" fill="#375a64"/>
            <path id="Trazado_722800" data-name="Trazado 722800" d="M364.884,339.205a5.654,5.654,0,0,1,2.554-.275,3.25,3.25,0,0,1,1.525.535.349.349,0,0,0,.449-.036.327.327,0,0,0-.033-.5,3.309,3.309,0,0,0-1.716-.636,8.668,8.668,0,0,0-2.306.133s-.6.388-.473.778" transform="translate(-202.197 -187.46)" fill="#f5f5f5"/>
            <path id="Trazado_722801" data-name="Trazado 722801" d="M362.648,341.951a6.806,6.806,0,0,1,2.765-.221,3.057,3.057,0,0,1,1.483.564.348.348,0,0,0,.449-.036.327.327,0,0,0-.033-.5,6.444,6.444,0,0,0-2.351-.687c-1.32-.093-1.664.177-1.664.177a1.091,1.091,0,0,0-.648.7" transform="translate(-200.968 -189.001)" fill="#f5f5f5"/>
            <path id="Trazado_722802" data-name="Trazado 722802" d="M369.145,335.443a6.44,6.44,0,0,0-2.258.139c-.233.131-.386.5-.236.591a6.337,6.337,0,0,1,2.07-.2,4.36,4.36,0,0,1,1.428.392c.113.05.247.12.364.185a.313.313,0,0,0,.434-.135.293.293,0,0,0-.114-.377,4.238,4.238,0,0,0-1.687-.593" transform="translate(-203.153 -185.871)" fill="#f5f5f5"/>
            <path id="Trazado_722803" data-name="Trazado 722803" d="M339.262,315.035l-3.95-1.1v-7.984l4.9.213Z" transform="translate(-185.819 -169.547)" fill="#c76668"/>
            <path id="Trazado_722804" data-name="Trazado 722804" d="M316.505,332.671a1.424,1.424,0,0,0,.059,1.047,5.24,5.24,0,0,0,3.9,1.062,8.979,8.979,0,0,0,4.461-1.56,5.167,5.167,0,0,1,2.748-.708c1.068-.061,2.471-.594,2.706-1.093a2.367,2.367,0,0,0-.036-1.36Z" transform="translate(-175.356 -182.909)" fill="#1a2e35"/>
            <path id="Trazado_722805" data-name="Trazado 722805" d="M325.166,320.5l-.171-.035a.667.667,0,0,0-.284-.015.552.552,0,0,0-.267.18,5.331,5.331,0,0,0-.551.865,6.408,6.408,0,0,1-2.438,1.906c-.7.379-1.4.673-2.123,1a18.169,18.169,0,0,0-2.309.929,1.556,1.556,0,0,0,.008,2.571,7.615,7.615,0,0,0,5.318.367c1.251-.354,2.64-1.691,4.282-1.819,1.044-.082,3.018-.375,3.691-1.168.249-.351-.083-1.466-.355-2.428-.3-1.05-.58-2.69-.928-2.6a.479.479,0,0,1-.182.392c-.129.133-.3.218-.443.338a2.761,2.761,0,0,0-.577.831.621.621,0,0,1-.3.321c-.176.066-.308-.045-.462-.116a.9.9,0,0,0-.624-.045,3.9,3.9,0,0,1,.11-.616.362.362,0,0,0,.015-.2.318.318,0,0,0-.134-.15,3.336,3.336,0,0,0-1.28-.511" transform="translate(-175.31 -177.474)" fill="#375a64"/>
            <path id="Trazado_722806" data-name="Trazado 722806" d="M329.99,325.387a.968.968,0,0,1,.771-.516,2.807,2.807,0,0,1,1.836.691.389.389,0,1,1-.5.594,2.98,2.98,0,0,0-2.106-.77" transform="translate(-182.87 -180.026)" fill="#f5f5f5"/>
            <path id="Trazado_722807" data-name="Trazado 722807" d="M326.687,327.31a1.116,1.116,0,0,1,.914-.471,3.475,3.475,0,0,1,2.009.752.381.381,0,0,1-.053.622.372.372,0,0,1-.428-.05,2.985,2.985,0,0,0-2.441-.853" transform="translate(-181.04 -181.124)" fill="#f5f5f5"/>
            <path id="Trazado_722808" data-name="Trazado 722808" d="M323.041,329.033a1.25,1.25,0,0,1,.949-.425,3.338,3.338,0,0,1,1.924.759.381.381,0,0,1-.052.622.372.372,0,0,1-.428-.05,2.852,2.852,0,0,0-2.392-.906" transform="translate(-179.019 -182.104)" fill="#f5f5f5"/>
            <path id="Trazado_722809" data-name="Trazado 722809" d="M353.378,203.993c.272,8.235.291,26.068.291,26.068.086,1.025.175,2.846.252,6.537.111,5.352.366,18.558.366,18.558a6.746,6.746,0,0,1-4.895.223s-3.263-18.572-3.932-23.87c-.583-4.623-1.7-15.467-1.7-15.467l-1.545,13.766s.017,3.545-.208,6.713c-.174,2.45-2.552,15.082-2.552,15.082a8.18,8.18,0,0,1-4.721-.156s-.217-19.39-.26-21.638c-.049-2.563.611-30.228.611-30.228Z" transform="translate(-185.352 -110.601)" fill="#375a64"/>
            <path id="Trazado_722810" data-name="Trazado 722810" d="M347.978,227.682l-.586-4.667a16.284,16.284,0,0,1-5.308-2.433,12.624,12.624,0,0,0,4.449,3.119l.749,4.234-.848,13.512Z" transform="translate(-189.572 -122.24)" fill="#2b454e"/>
            <path id="Trazado_722811" data-name="Trazado 722811" d="M304.717,154.764c-1.2,1.58-7.4,10.077-7.4,10.077L291.6,160.41c-1.354-1.049-1.735-2.423-2.574-3.369s-1.755-1.178-2.694-1.973-1.3-1.4-1.625-.719.717,1.86.9,2.148,1.249.965-.171.908-4.144-1.7-4.8-2-.676.518-.368,1.053.16,2.026.522,2.985a4,4,0,0,0,2.316,2.194c1.216.6,4.178.984,5.14,1.592h0c2.111,2.163,6.1,6.209,7.1,6.956,1.388,1.029,2.729,1.979,4.851-.061s8.271-10.056,8.271-10.056l1.272-7.616a5.267,5.267,0,0,0-5.019,2.307" transform="translate(-155.203 -84.481)" fill="#c76668"/>
            <path id="Trazado_722812" data-name="Trazado 722812" d="M318.76,179.675a5.11,5.11,0,0,1,1.679,2.464,4.031,4.031,0,0,0-1.342-2.926Z" transform="translate(-176.647 -99.315)" fill="#b0494c"/>
            <path id="Trazado_722813" data-name="Trazado 722813" d="M333.634,152.012s-2.941-.039-4.235.868-2.251,2.217-4.352,5.285c-1.842,2.69-2.731,3.958-2.731,3.958a9.886,9.886,0,0,0,5,3.817l5.492-6.8Z" transform="translate(-178.617 -84.24)" fill="#2b454e"/>
            <path id="Trazado_722814" data-name="Trazado 722814" d="M346.589,151.661c1.669.162,4,.181,5.662.349,1.148.472,3.356,2.4,3.192,3.772-.614,5.131-1.859,13.543-1.859,13.543l.41,8.91c-2.3,2.29-13.042,3.185-18.576-.481,0,0,.179-16.014.559-18.714.683-4.854,1.281-6.656,3.786-7.086a44.7,44.7,0,0,1,6.827-.293" transform="translate(-185.878 -84.034)" fill="#81d4fa"/>
            <path id="Trazado_722815" data-name="Trazado 722815" d="M375.419,155.051c1.2,1.58,7.4,10.077,7.4,10.077l5.719-4.432c1.354-1.049,1.735-2.423,2.574-3.369s1.755-1.178,2.694-1.973,1.3-1.4,1.625-.719-.717,1.86-.9,2.148-1.249.965.171.908,4.144-1.7,4.8-2,.676.518.368,1.053-.16,2.026-.522,2.985a4.005,4.005,0,0,1-2.316,2.194c-1.216.6-4.178.984-5.14,1.592h0c-2.111,2.163-6.1,6.209-7.1,6.956-1.388,1.029-2.729,1.979-4.851-.061s-6.973-8.382-6.973-8.382l-2.57-9.291a5.268,5.268,0,0,1,5.019,2.307" transform="translate(-205.264 -84.64)" fill="#c76668"/>
            <path id="Trazado_722816" data-name="Trazado 722816" d="M396.167,179.963a5.11,5.11,0,0,0-1.679,2.464,4.031,4.031,0,0,1,1.342-2.926Z" transform="translate(-218.612 -99.474)" fill="#b0494c"/>
            <path id="Trazado_722817" data-name="Trazado 722817" d="M369.1,152.207s2.643-.164,4.034.9c1.255.963,2.251,2.217,4.352,5.285,1.842,2.69,2.731,3.958,2.731,3.958a9.886,9.886,0,0,1-5,3.817l-3.731-4.622c-1.959-2.47-3.89-6.229-2.387-9.342" transform="translate(-204.245 -84.343)" fill="#2b454e"/>
            <path id="Trazado_722818" data-name="Trazado 722818" d="M348.546,118.238a5.173,5.173,0,1,1-5.218-5.127,5.173,5.173,0,0,1,5.218,5.127" transform="translate(-187.421 -62.682)" fill="#1a2e35"/>
            <path id="Trazado_722819" data-name="Trazado 722819" d="M367.249,132.786a44.718,44.718,0,0,1-1.134,4.6,1.783,1.783,0,0,1-1.024.84l.034-2.77Z" transform="translate(-202.322 -73.586)" fill="#1a2e35"/>
            <path id="Trazado_722820" data-name="Trazado 722820" d="M366.868,120.134a1.94,1.94,0,0,1,1.611.551c.7.7.33,2.911-.51,5.081l-1.577.2Z" transform="translate(-203.043 -66.566)" fill="#1a2e35"/>
            <path id="Trazado_722821" data-name="Trazado 722821" d="M351.339,123.043c.318.186.765-.426,1.151-.838a1.374,1.374,0,0,1,2.3.353,2.869,2.869,0,0,1-1.534,3.5c-1.724.558-1.994-.549-1.994-.549l-.071,6.429c-2.126,2.775-8.094,2.594-5.633-.307l-.012-1.9a10.9,10.9,0,0,1-2.33.14,3.17,3.17,0,0,1-2.48-2.555c-.639-2.206-.89-3.988-.4-8.341.534-4.771,6.077-4.869,9.087-3.011s1.914,7.079,1.914,7.079" transform="translate(-188.463 -63.642)" fill="#c76668"/>
            <path id="Trazado_722822" data-name="Trazado 722822" d="M350.492,121.656c.159,0,.756-1.008,1.147-1.37.542-.5-.2-4.995-.2-4.995a2.183,2.183,0,0,0-.4-2.426c-.755-.817-1.807-1.813-5.2-1.382-2.417.307-5.044,1.085-7.181.058a3.621,3.621,0,0,0,1.3,3.835,7.263,7.263,0,0,0,2.8.719,29.945,29.945,0,0,0,5.611-.156c.586-.085.717.483,1.047,2.035.29,1.363.541,3.675,1.076,3.68" transform="translate(-187.611 -61.723)" fill="#1a2e35"/>
            <path id="Trazado_722823" data-name="Trazado 722823" d="M367.306,118.9l1.9-1.044a1.055,1.055,0,0,0-1.453-.467,1.142,1.142,0,0,0-.452,1.511" transform="translate(-203.481 -64.981)" fill="#1a2e35"/>
            <path id="Trazado_722824" data-name="Trazado 722824" d="M352.346,145.127a21.75,21.75,0,0,0,3.821-1.133,3.272,3.272,0,0,0,1.36-1.369,4.477,4.477,0,0,1-.766,1.608c-.717.934-4.409,1.65-4.409,1.65Z" transform="translate(-195.259 -79.038)" fill="#b0494c"/>
            <path id="Trazado_722825" data-name="Trazado 722825" d="M351.83,131.474a.569.569,0,1,0,.564-.6.579.579,0,0,0-.564.6" transform="translate(-194.973 -72.527)" fill="#1a2e35"/>
            <path id="Trazado_722826" data-name="Trazado 722826" d="M353.98,127.114l-1.266-.575a.73.73,0,0,0,.358.944.678.678,0,0,0,.907-.369" transform="translate(-195.431 -70.124)" fill="#1a2e35"/>
            <path id="Trazado_722827" data-name="Trazado 722827" d="M342.1,126.257l-1.1.865a.672.672,0,0,0,.966.139.736.736,0,0,0,.135-1" transform="translate(-188.971 -69.968)" fill="#1a2e35"/>
            <path id="Trazado_722828" data-name="Trazado 722828" d="M341.983,131.2a.546.546,0,1,0,.54-.573.555.555,0,0,0-.54.573" transform="translate(-189.516 -72.389)" fill="#1a2e35"/>
            <path id="Trazado_722829" data-name="Trazado 722829" d="M346.015,130.877l-.318,3.411-1.761-.677Z" transform="translate(-190.598 -72.528)" fill="#b0494c"/>
            <path id="Trazado_722830" data-name="Trazado 722830" d="M350.779,140.724a.545.545,0,1,0,.545-.545.546.546,0,0,0-.545.545" transform="translate(-194.391 -77.683)" fill="#b0494c"/>
            <path id="Trazado_722831" data-name="Trazado 722831" d="M371.65,59.7a9.115,9.115,0,0,1,2.434.914,7,7,0,0,1,1.936,1.538,5.535,5.535,0,0,1,1.141,2.068,4.9,4.9,0,0,1,.05,2.5,4.982,4.982,0,0,1-.765,1.833,5.986,5.986,0,0,1-1.2,1.261,9.731,9.731,0,0,1-1.429.922q-.751.4-1.42.751a8.046,8.046,0,0,0-1.211.784,2.3,2.3,0,0,0-.757,1.014,1.1,1.1,0,0,1-.363.467.643.643,0,0,1-.543.111l-2.088-.463a.774.774,0,0,1-.487-.338.624.624,0,0,1-.09-.567,4.9,4.9,0,0,1,.869-1.782,6.866,6.866,0,0,1,1.284-1.243,9.907,9.907,0,0,1,1.468-.9q.76-.379,1.417-.738a6.369,6.369,0,0,0,1.119-.761,1.771,1.771,0,0,0,.592-.979,2.124,2.124,0,0,0-.5-1.911A3.833,3.833,0,0,0,370.92,63a3.7,3.7,0,0,0-3.95,1.575,1.591,1.591,0,0,1-.388.389.719.719,0,0,1-.543.038l-2.225-.493a.622.622,0,0,1-.389-.259.584.584,0,0,1-.081-.479,4.347,4.347,0,0,1,1.025-1.833,6.872,6.872,0,0,1,1.912-1.478,8.324,8.324,0,0,1,2.52-.84,7.332,7.332,0,0,1,2.848.083m-2.356,15.845a.769.769,0,0,1,.577.905l-.535,2.417a.768.768,0,0,1-.905.578l-2.362-.523a.769.769,0,0,1-.578-.906l.535-2.417a.768.768,0,0,1,.906-.577Z" transform="translate(-201.344 -32.982)" fill="#81d4fa"/>
            <path id="Trazado_722832" data-name="Trazado 722832" d="M392.365,110.816a6.293,6.293,0,0,1,1.794-.037,4.855,4.855,0,0,1,1.635.49,3.834,3.834,0,0,1,1.26,1.034,3.379,3.379,0,0,1,.674,1.592,3.456,3.456,0,0,1-.022,1.372,4.114,4.114,0,0,1-.447,1.116,6.708,6.708,0,0,1-.68.957q-.379.445-.717.845a5.538,5.538,0,0,0-.576.813,1.581,1.581,0,0,0-.226.843.759.759,0,0,1-.113.393.446.446,0,0,1-.32.21l-1.457.238a.535.535,0,0,1-.4-.092.431.431,0,0,1-.2-.341,3.377,3.377,0,0,1,.1-1.364,4.7,4.7,0,0,1,.5-1.126,6.8,6.8,0,0,1,.71-.952q.391-.437.72-.836a4.376,4.376,0,0,0,.523-.774,1.226,1.226,0,0,0,.129-.779,1.468,1.468,0,0,0-.81-1.1,2.645,2.645,0,0,0-1.706-.2,2.551,2.551,0,0,0-2.129,2.021,1.084,1.084,0,0,1-.15.349.5.5,0,0,1-.337.164l-1.552.254a.429.429,0,0,1-.317-.066.4.4,0,0,1-.175-.286,3,3,0,0,1,.189-1.438,4.722,4.722,0,0,1,.847-1.437,5.733,5.733,0,0,1,1.4-1.183,5.058,5.058,0,0,1,1.848-.676m2.545,10.761a.53.53,0,0,1,.6.433l.276,1.687a.531.531,0,0,1-.433.6l-1.648.269a.53.53,0,0,1-.6-.432l-.276-1.687a.531.531,0,0,1,.433-.6Z" transform="translate(-215.05 -61.364)" fill="#81d4fa"/>
            <g id="Grupo_1008881" data-name="Grupo 1008881" transform="translate(173.009 49.367)" opacity="0.2">
              <g id="Grupo_1008880" data-name="Grupo 1008880">
                <g id="Grupo_1008879" data-name="Grupo 1008879" clip-path="url(#clip-path-9)">
                  <path id="Trazado_722833" data-name="Trazado 722833" d="M392.365,110.816a6.293,6.293,0,0,1,1.794-.037,4.855,4.855,0,0,1,1.635.49,3.834,3.834,0,0,1,1.26,1.034,3.379,3.379,0,0,1,.674,1.592,3.456,3.456,0,0,1-.022,1.372,4.114,4.114,0,0,1-.447,1.116,6.708,6.708,0,0,1-.68.957q-.379.445-.717.845a5.538,5.538,0,0,0-.576.813,1.581,1.581,0,0,0-.226.843.759.759,0,0,1-.113.393.446.446,0,0,1-.32.21l-1.457.238a.535.535,0,0,1-.4-.092.431.431,0,0,1-.2-.341,3.377,3.377,0,0,1,.1-1.364,4.7,4.7,0,0,1,.5-1.126,6.8,6.8,0,0,1,.71-.952q.391-.437.72-.836a4.376,4.376,0,0,0,.523-.774,1.226,1.226,0,0,0,.129-.779,1.468,1.468,0,0,0-.81-1.1,2.645,2.645,0,0,0-1.706-.2,2.551,2.551,0,0,0-2.129,2.021,1.084,1.084,0,0,1-.15.349.5.5,0,0,1-.337.164l-1.552.254a.429.429,0,0,1-.317-.066.4.4,0,0,1-.175-.286,3,3,0,0,1,.189-1.438,4.722,4.722,0,0,1,.847-1.437,5.733,5.733,0,0,1,1.4-1.183,5.058,5.058,0,0,1,1.848-.676m2.545,10.761a.53.53,0,0,1,.6.433l.276,1.687a.531.531,0,0,1-.433.6l-1.648.269a.53.53,0,0,1-.6-.432l-.276-1.687a.531.531,0,0,1,.433-.6Z" transform="translate(-388.059 -110.731)"/>
                </g>
              </g>
            </g>
            <path id="Trazado_722834" data-name="Trazado 722834" d="M427.131,106.294a.628.628,0,0,1,.147.867l-1.173,1.65a.629.629,0,0,1-.867.147l-1.613-1.147a.628.628,0,0,1-.146-.866l1.173-1.65a.628.628,0,0,1,.866-.146Zm6.823-11.186a7.454,7.454,0,0,1,1.543,1.463,5.719,5.719,0,0,1,.968,1.775,4.532,4.532,0,0,1,.2,1.921,4,4,0,0,1-.759,1.9,4.075,4.075,0,0,1-1.16,1.136,4.834,4.834,0,0,1-1.307.568,8.016,8.016,0,0,1-1.37.241q-.693.058-1.31.113a6.545,6.545,0,0,0-1.161.205,1.874,1.874,0,0,0-.893.523.9.9,0,0,1-.422.236.526.526,0,0,1-.444-.09l-1.426-1.014a.636.636,0,0,1-.259-.41.51.51,0,0,1,.112-.456,4.008,4.008,0,0,1,1.223-1.065,5.63,5.63,0,0,1,1.363-.527,8.048,8.048,0,0,1,1.392-.21q.694-.043,1.3-.1a5.255,5.255,0,0,0,1.086-.216,1.454,1.454,0,0,0,.757-.549,1.738,1.738,0,0,0,.233-1.6,3.135,3.135,0,0,0-1.267-1.593,3.024,3.024,0,0,0-3.478-.073,1.309,1.309,0,0,1-.416.17.589.589,0,0,1-.42-.144l-1.519-1.08a.508.508,0,0,1-.211-.319.479.479,0,0,1,.091-.387,3.549,3.549,0,0,1,1.357-1.055,5.608,5.608,0,0,1,1.912-.5,6.794,6.794,0,0,1,2.165.17,6,6,0,0,1,2.12.971" transform="translate(-234.616 -52.06)" fill="#81d4fa"/>
            <g id="Grupo_1008884" data-name="Grupo 1008884" transform="translate(188.749 41.882)" opacity="0.6">
              <g id="Grupo_1008883" data-name="Grupo 1008883">
                <g id="Grupo_1008882" data-name="Grupo 1008882" clip-path="url(#clip-path-10)">
                  <path id="Trazado_722835" data-name="Trazado 722835" d="M427.131,106.294a.628.628,0,0,1,.147.867l-1.173,1.65a.629.629,0,0,1-.867.147l-1.613-1.147a.628.628,0,0,1-.146-.866l1.173-1.65a.628.628,0,0,1,.866-.146Zm6.823-11.186a7.454,7.454,0,0,1,1.543,1.463,5.719,5.719,0,0,1,.968,1.775,4.532,4.532,0,0,1,.2,1.921,4,4,0,0,1-.759,1.9,4.075,4.075,0,0,1-1.16,1.136,4.834,4.834,0,0,1-1.307.568,8.016,8.016,0,0,1-1.37.241q-.693.058-1.31.113a6.545,6.545,0,0,0-1.161.205,1.874,1.874,0,0,0-.893.523.9.9,0,0,1-.422.236.526.526,0,0,1-.444-.09l-1.426-1.014a.636.636,0,0,1-.259-.41.51.51,0,0,1,.112-.456,4.008,4.008,0,0,1,1.223-1.065,5.63,5.63,0,0,1,1.363-.527,8.048,8.048,0,0,1,1.392-.21q.694-.043,1.3-.1a5.255,5.255,0,0,0,1.086-.216,1.454,1.454,0,0,0,.757-.549,1.738,1.738,0,0,0,.233-1.6,3.135,3.135,0,0,0-1.267-1.593,3.024,3.024,0,0,0-3.478-.073,1.309,1.309,0,0,1-.416.17.589.589,0,0,1-.42-.144l-1.519-1.08a.508.508,0,0,1-.211-.319.479.479,0,0,1,.091-.387,3.549,3.549,0,0,1,1.357-1.055,5.608,5.608,0,0,1,1.912-.5,6.794,6.794,0,0,1,2.165.17,6,6,0,0,1,2.12.971" transform="translate(-423.365 -93.942)" fill="#fff"/>
                </g>
              </g>
            </g>
            <path id="Trazado_722836" data-name="Trazado 722836" d="M102.805,301.721c-.048-1.328.918-14.41.918-14.41l-6.366,4.616c1.306,7.8,1.585,9.635,1.608,10.911a1.092,1.092,0,0,0-.035.326c.006,1.515,1.715,2.332,3.049,3.342a24.847,24.847,0,0,0,3.606,2.354c.969.487,2.936.531,3.18-.092a45.98,45.98,0,0,1-5.273-4.509c-.616-.676-.64-1.21-.688-2.538" transform="translate(-53.953 -159.219)" fill="#ffaaa9"/>
            <path id="Trazado_722837" data-name="Trazado 722837" d="M112.51,334.826a1.178,1.178,0,0,1-.271,1.219,5.465,5.465,0,0,1-4.049.962,7.11,7.11,0,0,1-3.928-1.513,8.488,8.488,0,0,0-2.86-1.835,5.541,5.541,0,0,1-2.045-.836c-.272-.263-.234-1.432-.234-1.432Z" transform="translate(-54.93 -183.646)" fill="#1a2e35"/>
            <path id="Trazado_722838" data-name="Trazado 722838" d="M99.927,321.306a.325.325,0,0,0-.306.273c-.062.322-.13,1.258-.263,1.787a9.437,9.437,0,0,0-.2,2.839c.111.6,1.5,1.015,2.383,1.352a11.265,11.265,0,0,1,2.869,1.812,8.091,8.091,0,0,0,4.269,1.59c1.56-.011,3.317-.516,3.72-1.239.5-.9.108-1.414-2.206-2.486-.438-.2-1.976-1.113-2.5-1.443a8.583,8.583,0,0,1-3.476-3.716.88.88,0,0,0-.333-.483.735.735,0,0,0-.45-.041,3.835,3.835,0,0,0-1.113.335c-.31.148-.751.321-.745.718a1.335,1.335,0,0,0,.087.4c.028.081.049.189-.021.237s-.156-.006-.217-.06a6.07,6.07,0,0,1-.624-.749,2.229,2.229,0,0,0-.366-.373,4,4,0,0,1-.4-.257c-.141-.14-.107-.314-.114-.5" transform="translate(-54.927 -178.058)" fill="#375a64"/>
            <path id="Trazado_722839" data-name="Trazado 722839" d="M109.423,336.441c-.4-.333-.832-.655-1.262-.942v0s2.721,1.654,3.82.9a.985.985,0,0,0,.354-1.259,5.985,5.985,0,0,1,2.418-1.074c.192.106.352.191.453.238,2.313,1.072,2.7,1.591,2.206,2.486-.4.724-1.675,1.288-3.692,1.288a8.324,8.324,0,0,1-4.3-1.638" transform="translate(-59.939 -185.129)" fill="#2b454e"/>
            <path id="Trazado_722840" data-name="Trazado 722840" d="M107.639,327.522c1.439.576.825.844.422.9s-2.824-1.357-4.3-2.525c-1.541-1.219-2.512-2.551-3.084-3-.214-.167-.443-.372-.647-.564.038-.317.069-.6.1-.757a.324.324,0,0,1,.306-.273c.006.186-.027.36.113.5a4,4,0,0,0,.4.257,2.261,2.261,0,0,1,.366.373,5.967,5.967,0,0,0,.624.749,18.707,18.707,0,0,0,5.706,4.337" transform="translate(-55.433 -178.058)" fill="#1a2e35"/>
            <path id="Trazado_722841" data-name="Trazado 722841" d="M117.638,335.2a.14.14,0,0,1-.09-.032.142.142,0,0,1-.02-.2,3.424,3.424,0,0,1,2.635-1.04.142.142,0,0,1,.126.157.139.139,0,0,1-.156.126,3.172,3.172,0,0,0-2.385.937.141.141,0,0,1-.11.052" transform="translate(-65.112 -185.043)" fill="#f5f5f5"/>
            <path id="Trazado_722842" data-name="Trazado 722842" d="M114.823,333.466a.14.14,0,0,1-.09-.032.142.142,0,0,1-.02-.2,3.426,3.426,0,0,1,2.635-1.039.142.142,0,0,1-.03.283,3.176,3.176,0,0,0-2.385.936.141.141,0,0,1-.11.052" transform="translate(-63.553 -184.084)" fill="#f5f5f5"/>
            <path id="Trazado_722843" data-name="Trazado 722843" d="M112.008,331.824a.14.14,0,0,1-.09-.032.142.142,0,0,1-.02-.2,3.419,3.419,0,0,1,2.635-1.039.142.142,0,0,1,.126.157.14.14,0,0,1-.156.126,3.171,3.171,0,0,0-2.385.936.141.141,0,0,1-.11.052" transform="translate(-61.993 -183.174)" fill="#f5f5f5"/>
            <path id="Trazado_722844" data-name="Trazado 722844" d="M109.4,329.951a.14.14,0,0,1-.09-.032.142.142,0,0,1-.02-.2,3.429,3.429,0,0,1,2.635-1.039.142.142,0,0,1-.03.283,3.176,3.176,0,0,0-2.385.936.141.141,0,0,1-.11.052" transform="translate(-60.547 -182.136)" fill="#f5f5f5"/>
            <path id="Trazado_722845" data-name="Trazado 722845" d="M106.844,328.056a.14.14,0,0,1-.088-.031.143.143,0,0,1-.023-.2,3.492,3.492,0,0,1,2.878-1.053.142.142,0,0,1-.03.283,3.24,3.24,0,0,0-2.625.947.141.141,0,0,1-.111.054" transform="translate(-59.131 -181.077)" fill="#f5f5f5"/>
            <path id="Trazado_722846" data-name="Trazado 722846" d="M74.688,300.512l-6.423-.116c.1,4.288.777,9.047.888,13.07.021.757-.019,5.885.267,7.443.429,2.341,3.208,2.025,3.355.624s-.179-7.387-.17-8c-.025-2.58,1.185-6.935,1.819-11.567.031-.227.235-1.228.264-1.449" transform="translate(-37.83 -166.47)" fill="#ffaaa9"/>
            <path id="Trazado_722847" data-name="Trazado 722847" d="M73.686,348.934a6.373,6.373,0,0,1-.468,3.155,2.025,2.025,0,0,1-2.246,1.053,3.086,3.086,0,0,1-2.586-1.8,7.549,7.549,0,0,1-.329-3.257Z" transform="translate(-37.694 -192.896)" fill="#1a2e35"/>
            <path id="Trazado_722848" data-name="Trazado 722848" d="M69.047,328.61c-.379.069-.307,1.916-.342,3.777-.038,2-.544,2.869-.593,4.506-.055,1.87.125,2.686.884,3.737s3.159,1.916,4.127.2c.789-1.4.682-2.845.412-4.68a46.976,46.976,0,0,1-.557-4.684c-.065-1.39-.1-2.739-.451-2.86-.005.206,0,.466-.011.668-.005.155.032.907-.182.936a2.891,2.891,0,0,1-.057-.521.619.619,0,0,0-.149-.435.718.718,0,0,0-.443-.147,10.964,10.964,0,0,0-1.154-.062,5.752,5.752,0,0,0-.575.033,1.529,1.529,0,0,0-.477.118.341.341,0,0,0-.188.208.6.6,0,0,0,0,.213,1.536,1.536,0,0,1-.009.384c-.008.056-.04.126-.1.119s-.069-.06-.074-.106c-.024-.222-.012-.387-.028-.648-.007-.12,0-.285-.015-.406s-.021-.237-.025-.356" transform="translate(-37.74 -182.105)" fill="#375a64"/>
            <path id="Trazado_722849" data-name="Trazado 722849" d="M68.145,345.933c-.01.27-.058,2.056.454,2.325.554.292.7-1.123.7-1.123a4.662,4.662,0,0,1,3.034.1c-.062.3.306,1.211.774.963s.451-2.288.451-2.315c.252,1.76.331,3.167-.435,4.522-.968,1.712-3.368.848-4.128-.2s-.939-1.866-.884-3.737c.006-.187.018-.363.034-.534" transform="translate(-37.74 -191.679)" fill="#2b454e"/>
            <path id="Trazado_722850" data-name="Trazado 722850" d="M70.16,337.666c.059.668-.622.509-.746-.43s.168-3.228,0-4.849c.035-1.861-.037-3.709.342-3.777,0,.023,0,.045,0,.068l.044.939c0,.137,0,.258.019.4.127,1.362.2,4.012.208,5.269a21.933,21.933,0,0,0,.128,2.378" transform="translate(-38.45 -182.105)" fill="#1a2e35"/>
            <path id="Trazado_722851" data-name="Trazado 722851" d="M77.122,337.668a21.814,21.814,0,0,0,.128-2.378c.008-1.247.079-3.866.205-5.237a3.465,3.465,0,0,0,.057-.773c.007-.189.006-.426.01-.624,0-.014,0-.028,0-.042.251.091.34.828.4,1.756.006.539-.012,1.208-.053,2.02-.168,1.621.127,3.922,0,4.862s-.808,1.086-.749.417" transform="translate(-42.737 -182.107)" fill="#1a2e35"/>
            <path id="Trazado_722852" data-name="Trazado 722852" d="M73.687,348.338a.148.148,0,0,1-.053-.01,4.535,4.535,0,0,0-2.974-.009.142.142,0,0,1-.1-.267,4.746,4.746,0,0,1,3.18.012.142.142,0,0,1-.053.274" transform="translate(-39.051 -192.729)" fill="#f5f5f5"/>
            <path id="Trazado_722853" data-name="Trazado 722853" d="M73.645,345.016a.142.142,0,0,1-.048-.008A5.614,5.614,0,0,0,70.268,345a.143.143,0,1,1-.091-.27,5.808,5.808,0,0,1,3.517.011.142.142,0,0,1-.048.276" transform="translate(-38.836 -190.888)" fill="#f5f5f5"/>
            <path id="Trazado_722854" data-name="Trazado 722854" d="M70.222,341.794a.142.142,0,0,1-.059-.272,4.88,4.88,0,0,1,3.51-.021.142.142,0,0,1,.079.185.144.144,0,0,1-.185.079,4.672,4.672,0,0,0-3.285.017.146.146,0,0,1-.059.013" transform="translate(-38.836 -189.068)" fill="#f5f5f5"/>
            <path id="Trazado_722855" data-name="Trazado 722855" d="M70.15,338.794a.142.142,0,0,1-.062-.271,4.414,4.414,0,0,1,3.579-.039.142.142,0,0,1-.123.257,4.2,4.2,0,0,0-3.333.039.145.145,0,0,1-.062.014" transform="translate(-38.796 -187.376)" fill="#f5f5f5"/>
            <path id="Trazado_722856" data-name="Trazado 722856" d="M70.081,335.526a.142.142,0,0,1-.063-.27,4.606,4.606,0,0,1,3.608,0,.142.142,0,0,1-.116.259,4.4,4.4,0,0,0-3.365,0,.145.145,0,0,1-.063.014" transform="translate(-38.758 -185.577)" fill="#f5f5f5"/>
            <path id="Trazado_722857" data-name="Trazado 722857" d="M70.071,207.062c-2.265,6.274-1.864,10.21-1.477,16.782.356,6.029.923,11.337.923,11.337-.091,1.07-1.578,3.158-1.77,7.885a77.4,77.4,0,0,0,.457,9.963,8.4,8.4,0,0,0,5.47,0s2.566-11.316,3.263-16.849c.609-4.828,1.668-11,1.668-11l2.242,10.972a16.247,16.247,0,0,0-.663,4.546c0,2.579,1.2,9.758,1.2,9.758s3.32,1.076,5.426-.791c0,0,.831-10.331,1.125-14.251A158.407,158.407,0,0,0,86.5,208.4Z" transform="translate(-37.525 -114.747)" fill="#375a64"/>
            <path id="Trazado_722858" data-name="Trazado 722858" d="M92.141,234.56l.927-8.259s4.152-.555,6.032-2.323a6.814,6.814,0,0,1-4.892,3.091l-1.34,7.685,1.515,10.777Z" transform="translate(-51.062 -124.122)" fill="#2b454e"/>
            <path id="Trazado_722859" data-name="Trazado 722859" d="M105.556,172.773C103.54,170.7,99.893,166,99.893,166l-2.062-7.143c-.05.02,1.052.023,1.383,0,2.228.149,2.885.339,4.271,1.856,1.1,1.2,5.3,6.941,6.76,8.869l3.874-4.935c.928-1.4.778-2.975,1.26-4.122s1.26-1.652,1.884-2.689.772-1.712,1.284-1.184-.079,1.959-.156,2.284-.857,1.294.446.791,3.321-2.89,3.841-3.377.793.268.676.864.443,1.944.24,2.931a4.021,4.021,0,0,1-1.38,2.544c-.941.948-3.244,2.11-4.144,3.352s-2.823,5.109-4,7.439c-1.493,2.961-2.765,3.937-4.444,2.94a21.83,21.83,0,0,1-4.074-3.65" transform="translate(-54.214 -86.559)" fill="#ffaaa9"/>
            <path id="Trazado_722860" data-name="Trazado 722860" d="M98.541,161.986a7.432,7.432,0,0,1,3.359.457c1.21.547,2.031,1.714,3.212,3.3s3.289,4.347,3.289,4.347-.57,2.4-4.333,4.561l-6.144-6.325Z" transform="translate(-54.266 -89.757)" fill="#2b454e"/>
            <path id="Trazado_722861" data-name="Trazado 722861" d="M123.858,185.677a4.717,4.717,0,0,0-1.407,2.6,3.3,3.3,0,0,1,1.073-3.041Z" transform="translate(-67.826 -102.652)" fill="#ff9090"/>
            <path id="Trazado_722862" data-name="Trazado 722862" d="M87.049,174.669c2.74-2.253,1.838-5.191.837-7.169-2-3.956-4.083-5.512-4.951-5.5l-5.453.051c-2.605.356-4.621.178-5.251.327-1.6.38-1.638,1.7-1.7,3.407-.069,1.871-1.027,1.553-.538,4.647A31.971,31.971,0,0,1,71.5,173.98c.293,1.07,1.122,2.776.682,4.506-.17.669-.624,1.321-1.309,3.167a34.681,34.681,0,0,0-1.712,6.358,7.667,7.667,0,0,0,3.4-2.3s2.474,3.313,8.425,2.977c6.174-.349,6.716-3.564,6.716-3.564l-.942-5.8c.141-2.335.18-3.18.289-4.654" transform="translate(-38.326 -89.777)" fill="#81d4fa"/>
            <g id="Grupo_1008887" data-name="Grupo 1008887" transform="translate(37.286 82.098)" opacity="0.1">
              <g id="Grupo_1008886" data-name="Grupo 1008886">
                <g id="Grupo_1008885" data-name="Grupo 1008885" clip-path="url(#clip-path-11)">
                  <path id="Trazado_722863" data-name="Trazado 722863" d="M91.507,186.349a5.549,5.549,0,0,1-4.848.929,4.438,4.438,0,0,1-3.025-3.133,3.916,3.916,0,0,0,3.063,3.921,4.284,4.284,0,0,0,4.81-1.716" transform="translate(-83.631 -184.145)"/>
                </g>
              </g>
            </g>
            <path id="Trazado_722864" data-name="Trazado 722864" d="M61.753,156.234c-.809-.589-5.155,5.233-3.1,6.71s4.2-2.684,3.761-4.627-.657-2.083-.657-2.083" transform="translate(-32.2 -86.557)" fill="#2b454e"/>
            <path id="Trazado_722865" data-name="Trazado 722865" d="M48.021,131.243c1.087-1.507,1.827-2.644,2.819-3.936.564-.734.924-1.257,1.466-2.009.373-.518.589-.953,1.01-1.119a3.552,3.552,0,0,0,1.227-.874,7.846,7.846,0,0,0,.575-.76,11.184,11.184,0,0,1,2.209-2.3c.884-.691,1.871-1.223,2.778-1.883.542-.393,1.119-1.041.441-1.625a1.567,1.567,0,0,0-.719-.328c-1.626-.325-3.031.258-4.609.691a13.211,13.211,0,0,0-2.006.716,3.521,3.521,0,0,0-.885.529,4.682,4.682,0,0,0-.9,1.33,16.876,16.876,0,0,1-3.169,3.4c-1.2,1.168-2.27,2.238-3.637,3.527-1.231,1.16-2.437,2.231-3.563,3.495a1.749,1.749,0,0,0-.432,2.119,9.7,9.7,0,0,0,2.729,3.1q.522.48,1.049.954c1.365,1.231,2.732,2.382,4.149,3.552,1.514,1.251,2.139,1.858,3.491,3.067a10.178,10.178,0,0,1,2.1,2.735c2.342.388,4.641-3.193,2.634-7.38a4.391,4.391,0,0,0-1.449-1.686c-2.469-1.735-7.315-5.309-7.315-5.309" transform="translate(-22.414 -64.455)" fill="#ffaaa9"/>
            <path id="Trazado_722866" data-name="Trazado 722866" d="M53.931,149.8a6.163,6.163,0,0,1-2.819,2.014s1.5.354,3.5-1.511Z" transform="translate(-28.325 -83.017)" fill="#ff9090"/>
            <path id="Trazado_722867" data-name="Trazado 722867" d="M66.971,159.178c-.55-.382-1.882-1.187-4.542-2.892,0,0,.411.862-.238,3.022S60.182,162.84,59.325,163c0,0,1.489,1.176,2.862,2.5a14.764,14.764,0,0,1,3.3,3.813s1.962-.5,2.405-3.827c.312-2.335.125-5.071-.918-6.309" transform="translate(-32.876 -86.609)" fill="#375a64"/>
            <path id="Trazado_722868" data-name="Trazado 722868" d="M88.481,127.866a5.366,5.366,0,0,0-.362-5.218,8.924,8.924,0,0,0-7.687-3.531l-.977.017c-4.247.074-8.108,3.719-8.186,7.825h0c0,2.89.012,5.562,1.59,7.53,1.469,1.832,3.754,2.436,5.687,2.73,3.691.56,7.835.132,9.511-2.379a1.555,1.555,0,0,1-1.947-1.866c.041-.365-.307-.765-.918-1.181a12.175,12.175,0,0,1,1.5-2.072c.633-.649,1.359-1,1.788-1.853" transform="translate(-39.494 -66.009)" fill="#1a2e35"/>
            <path id="Trazado_722869" data-name="Trazado 722869" d="M89.966,136.035c-.022,4.3-1.4,5.388-2.093,5.705a7.412,7.412,0,0,1-3.36-.039l.045,2.58s1.539,1.558,1.447,2.742-2.352,1.358-4.07.23a12.924,12.924,0,0,1-2.55-2.222.919.919,0,0,1-.227-.59l-.107-6.071s-.7.773-1.989-.075A2.342,2.342,0,0,1,76.4,134.9a1.732,1.732,0,0,1,2.637.268c.392.735.358,1.25.876,1.164.5-.083.557-.664.593-1.076s.021-.55.05-1.091a4.377,4.377,0,0,0,2.736-3.336,6.086,6.086,0,0,0,2.766.625,3.145,3.145,0,0,0,2.858-1.411,2.93,2.93,0,0,1,.4.763,9.425,9.425,0,0,1,.441,1.688,21.758,21.758,0,0,1,.212,3.536" transform="translate(-42.082 -72.068)" fill="#ffaaa9"/>
            <path id="Trazado_722870" data-name="Trazado 722870" d="M89.32,153.649c-1.386-.157-4.244-.924-4.707-2.041a2.911,2.911,0,0,0,1.022,1.417,14.978,14.978,0,0,0,3.7,1.484Z" transform="translate(-46.89 -84.016)" fill="#ff9090"/>
            <path id="Trazado_722871" data-name="Trazado 722871" d="M96.9,150.3a.564.564,0,1,1-.574-.554.564.564,0,0,1,.574.554" transform="translate(-53.072 -82.984)" fill="#c76668"/>
            <path id="Trazado_722872" data-name="Trazado 722872" d="M95.2,140.772a.6.6,0,1,1-.635-.578.6.6,0,0,1,.635.578" transform="translate(-52.099 -77.691)" fill="#1a2e35"/>
            <path id="Trazado_722873" data-name="Trazado 722873" d="M104.348,140.263a.549.549,0,0,1-.5.6.518.518,0,0,1-.577-.525.541.541,0,1,1,1.079-.07" transform="translate(-57.228 -77.438)" fill="#1a2e35"/>
            <path id="Trazado_722874" data-name="Trazado 722874" d="M99.46,139.667l.431,3.593,1.841-.764Z" transform="translate(-55.118 -77.399)" fill="#ff9090"/>
            <path id="Trazado_722875" data-name="Trazado 722875" d="M91.853,136.744l1.071-1.018a.775.775,0,0,1-.031,1.073.72.72,0,0,1-1.04-.055" transform="translate(-50.902 -75.215)" fill="#1a2e35"/>
            <path id="Trazado_722876" data-name="Trazado 722876" d="M103.687,134.99l1.187.9a.714.714,0,0,1-1.024.166.782.782,0,0,1-.164-1.064" transform="translate(-57.382 -74.807)" fill="#1a2e35"/>
            <path id="Trazado_722877" data-name="Trazado 722877" d="M57.964,61.539a9.133,9.133,0,0,1,2.6-.118,7,7,0,0,1,2.385.652,5.541,5.541,0,0,1,1.863,1.452,4.895,4.895,0,0,1,1.032,2.281,4.993,4.993,0,0,1,.017,1.987,5.994,5.994,0,0,1-.608,1.632,9.687,9.687,0,0,1-.951,1.41q-.534.66-1.01,1.25a8.052,8.052,0,0,0-.8,1.2,2.3,2.3,0,0,0-.3,1.23,1.1,1.1,0,0,1-.15.572.641.641,0,0,1-.456.315l-2.1.4a.774.774,0,0,1-.581-.119.625.625,0,0,1-.306-.486,4.891,4.891,0,0,1,.1-1.98,6.86,6.86,0,0,1,.691-1.648,9.9,9.9,0,0,1,1-1.4q.55-.648,1.012-1.236a6.408,6.408,0,0,0,.729-1.139,1.774,1.774,0,0,0,.159-1.133,2.125,2.125,0,0,0-1.211-1.561,3.838,3.838,0,0,0-2.478-.234,3.7,3.7,0,0,0-3.012,3,1.584,1.584,0,0,1-.2.51.718.718,0,0,1-.483.249l-2.239.423a.621.621,0,0,1-.46-.085.584.584,0,0,1-.263-.408,4.35,4.35,0,0,1,.222-2.089,6.863,6.863,0,0,1,1.176-2.111,8.327,8.327,0,0,1,1.987-1.764,7.331,7.331,0,0,1,2.651-1.045m4.07,15.494a.769.769,0,0,1,.887.605l.459,2.432a.769.769,0,0,1-.6.888l-2.377.449a.769.769,0,0,1-.888-.605l-.459-2.433a.768.768,0,0,1,.606-.887Z" transform="translate(-28.752 -34.013)" fill="#81d4fa"/>
            <path id="Trazado_722878" data-name="Trazado 722878" d="M106.686,83.438a6.29,6.29,0,0,1,1.429,1.086,4.845,4.845,0,0,1,.976,1.4,3.844,3.844,0,0,1,.345,1.594,3.38,3.38,0,0,1-.462,1.666,3.451,3.451,0,0,1-.87,1.061,4.114,4.114,0,0,1-1.044.6,6.7,6.7,0,0,1-1.128.327q-.574.113-1.088.216a5.486,5.486,0,0,0-.956.279,1.579,1.579,0,0,0-.7.52.763.763,0,0,1-.333.237.446.446,0,0,1-.381-.034l-1.289-.72a.536.536,0,0,1-.255-.32.431.431,0,0,1,.053-.393,3.371,3.371,0,0,1,.928-1.005,4.727,4.727,0,0,1,1.095-.568,6.816,6.816,0,0,1,1.148-.3q.578-.1,1.083-.208a4.387,4.387,0,0,0,.89-.28,1.228,1.228,0,0,0,.585-.531,1.468,1.468,0,0,0,.049-1.363,2.649,2.649,0,0,0-1.21-1.22,2.553,2.553,0,0,0-2.925.259,1.089,1.089,0,0,1-.334.181.494.494,0,0,1-.366-.082l-1.374-.766a.432.432,0,0,1-.207-.249.405.405,0,0,1,.041-.333,3,3,0,0,1,1.041-1.009,4.723,4.723,0,0,1,1.557-.6,5.753,5.753,0,0,1,1.833-.056,5.07,5.07,0,0,1,1.867.619m-4.7,10.011a.53.53,0,0,1,.2.713l-.833,1.493a.53.53,0,0,1-.713.2l-1.458-.814a.529.529,0,0,1-.2-.713l.833-1.493a.532.532,0,0,1,.714-.2Z" transform="translate(-54.818 -45.87)" fill="#81d4fa"/>
            <g id="Grupo_1008890" data-name="Grupo 1008890" transform="translate(44.102 36.902)" opacity="0.2">
              <g id="Grupo_1008889" data-name="Grupo 1008889">
                <g id="Grupo_1008888" data-name="Grupo 1008888" clip-path="url(#clip-path-12)">
                  <path id="Trazado_722879" data-name="Trazado 722879" d="M106.686,83.438a6.29,6.29,0,0,1,1.429,1.086,4.845,4.845,0,0,1,.976,1.4,3.844,3.844,0,0,1,.345,1.594,3.38,3.38,0,0,1-.462,1.666,3.451,3.451,0,0,1-.87,1.061,4.114,4.114,0,0,1-1.044.6,6.7,6.7,0,0,1-1.128.327q-.574.113-1.088.216a5.486,5.486,0,0,0-.956.279,1.579,1.579,0,0,0-.7.52.763.763,0,0,1-.333.237.446.446,0,0,1-.381-.034l-1.289-.72a.536.536,0,0,1-.255-.32.431.431,0,0,1,.053-.393,3.371,3.371,0,0,1,.928-1.005,4.727,4.727,0,0,1,1.095-.568,6.816,6.816,0,0,1,1.148-.3q.578-.1,1.083-.208a4.387,4.387,0,0,0,.89-.28,1.228,1.228,0,0,0,.585-.531,1.468,1.468,0,0,0,.049-1.363,2.649,2.649,0,0,0-1.21-1.22,2.553,2.553,0,0,0-2.925.259,1.089,1.089,0,0,1-.334.181.494.494,0,0,1-.366-.082l-1.374-.766a.432.432,0,0,1-.207-.249.405.405,0,0,1,.041-.333,3,3,0,0,1,1.041-1.009,4.723,4.723,0,0,1,1.557-.6,5.753,5.753,0,0,1,1.833-.056,5.07,5.07,0,0,1,1.867.619m-4.7,10.011a.53.53,0,0,1,.2.713l-.833,1.493a.53.53,0,0,1-.713.2l-1.458-.814a.529.529,0,0,1-.2-.713l.833-1.493a.532.532,0,0,1,.714-.2Z" transform="translate(-98.92 -82.772)"/>
                </g>
              </g>
            </g>
            <path id="Trazado_722880" data-name="Trazado 722880" d="M31.5,107.562a.628.628,0,0,1,.878.035l1.374,1.488a.63.63,0,0,1-.035.878L32.266,111.3a.628.628,0,0,1-.878-.035l-1.374-1.488a.628.628,0,0,1,.035-.878Zm-9.541-8.98a7.464,7.464,0,0,1,1.749-1.208,5.73,5.73,0,0,1,1.936-.582,4.54,4.54,0,0,1,1.922.2,4,4,0,0,1,1.705,1.135,4.076,4.076,0,0,1,.873,1.37,4.849,4.849,0,0,1,.286,1.4,7.985,7.985,0,0,1-.047,1.391q-.085.689-.158,1.3a6.538,6.538,0,0,0-.039,1.179,1.878,1.878,0,0,0,.327.982.9.9,0,0,1,.144.462.525.525,0,0,1-.179.416L29.2,107.811a.635.635,0,0,1-.454.169.511.511,0,0,1-.424-.2,4.014,4.014,0,0,1-.79-1.416,5.636,5.636,0,0,1-.235-1.442,8.066,8.066,0,0,1,.081-1.406q.1-.687.166-1.3a5.259,5.259,0,0,0,.012-1.107,1.458,1.458,0,0,0-.381-.854,1.738,1.738,0,0,0-1.517-.557,3.136,3.136,0,0,0-1.819.912A3.024,3.024,0,0,0,23.048,104a1.29,1.29,0,0,1,.08.442.589.589,0,0,1-.226.382l-1.37,1.264a.507.507,0,0,1-.355.14.478.478,0,0,1-.36-.169,3.558,3.558,0,0,1-.753-1.544,5.622,5.622,0,0,1-.1-1.975,6.793,6.793,0,0,1,.613-2.084,5.985,5.985,0,0,1,1.386-1.875" transform="translate(-11.039 -53.624)" fill="#81d4fa"/>
            <g id="Grupo_1008893" data-name="Grupo 1008893" transform="translate(8.881 43.14)" opacity="0.6">
              <g id="Grupo_1008892" data-name="Grupo 1008892">
                <g id="Grupo_1008891" data-name="Grupo 1008891" clip-path="url(#clip-path-13)">
                  <path id="Trazado_722881" data-name="Trazado 722881" d="M31.5,107.562a.628.628,0,0,1,.878.035l1.374,1.488a.63.63,0,0,1-.035.878L32.266,111.3a.628.628,0,0,1-.878-.035l-1.374-1.488a.628.628,0,0,1,.035-.878Zm-9.541-8.98a7.464,7.464,0,0,1,1.749-1.208,5.73,5.73,0,0,1,1.936-.582,4.54,4.54,0,0,1,1.922.2,4,4,0,0,1,1.705,1.135,4.076,4.076,0,0,1,.873,1.37,4.849,4.849,0,0,1,.286,1.4,7.985,7.985,0,0,1-.047,1.391q-.085.689-.158,1.3a6.538,6.538,0,0,0-.039,1.179,1.878,1.878,0,0,0,.327.982.9.9,0,0,1,.144.462.525.525,0,0,1-.179.416L29.2,107.811a.635.635,0,0,1-.454.169.511.511,0,0,1-.424-.2,4.014,4.014,0,0,1-.79-1.416,5.636,5.636,0,0,1-.235-1.442,8.066,8.066,0,0,1,.081-1.406q.1-.687.166-1.3a5.259,5.259,0,0,0,.012-1.107,1.458,1.458,0,0,0-.381-.854,1.738,1.738,0,0,0-1.517-.557,3.136,3.136,0,0,0-1.819.912A3.024,3.024,0,0,0,23.048,104a1.29,1.29,0,0,1,.08.442.589.589,0,0,1-.226.382l-1.37,1.264a.507.507,0,0,1-.355.14.478.478,0,0,1-.36-.169,3.558,3.558,0,0,1-.753-1.544,5.622,5.622,0,0,1-.1-1.975,6.793,6.793,0,0,1,.613-2.084,5.985,5.985,0,0,1,1.386-1.875" transform="translate(-19.92 -96.764)" fill="#fff"/>
                </g>
              </g>
            </g>
            <path id="Trazado_722882" data-name="Trazado 722882" d="M221.591,183.587c-1.272-.728-6.621-3.819-8.44-4.87l-.609-.353a4.242,4.242,0,0,0-2.972-.459,7.742,7.742,0,0,0-2.461.956c-.126.073-.247.158-.371.236a15.55,15.55,0,0,0-5.29,6.15,19.058,19.058,0,0,0-2.339,8.9q0,4.43,2.362,6.215a4.636,4.636,0,0,0,.5.329c1.475.837,8.878,5.125,9.043,5.219.012.007.025.011.037.018a4.54,4.54,0,0,1-.522-.339q-2.363-1.785-2.363-6.215a19.05,19.05,0,0,1,2.34-8.9,15.222,15.222,0,0,1,5.661-6.387q3.163-1.826,5.464-.477l-.038-.025" transform="translate(-110.339 -98.542)" fill="#81d4fa"/>
            <g id="Grupo_1008896" data-name="Grupo 1008896" transform="translate(91.442 79.279)" opacity="0.4">
              <g id="Grupo_1008895" data-name="Grupo 1008895">
                <g id="Grupo_1008894" data-name="Grupo 1008894" clip-path="url(#clip-path-14)">
                  <path id="Trazado_722883" data-name="Trazado 722883" d="M224.952,183.615q-2.3-1.351-5.466.473a14.751,14.751,0,0,0-5.328,5.782l-9.055-5.23a15,15,0,0,1,4.958-5.542c.12-.076.245-.165.37-.236a7.631,7.631,0,0,1,2.461-.954,4.246,4.246,0,0,1,2.974.459c.022.009.245.143.606.352,1.819,1.048,7.169,4.142,8.44,4.868l.04.027" transform="translate(-205.104 -177.823)"/>
                </g>
              </g>
            </g>
            <g id="Grupo_1008899" data-name="Grupo 1008899" transform="translate(88.767 86.097)" opacity="0.3">
              <g id="Grupo_1008898" data-name="Grupo 1008898">
                <g id="Grupo_1008897" data-name="Grupo 1008897" clip-path="url(#clip-path-15)">
                  <path id="Trazado_722884" data-name="Trazado 722884" d="M211.048,214.4a.158.158,0,0,1-.04-.018c-.165-.094-7.566-4.383-9.041-5.221a4.771,4.771,0,0,1-.5-.325q-2.361-1.786-2.363-6.215a19.033,19.033,0,0,1,2.341-8.9c.107-.21.218-.415.334-.611l9.055,5.23c-.111.2-.223.4-.33.606a19.06,19.06,0,0,0-2.341,8.9q0,4.434,2.363,6.215a4.162,4.162,0,0,0,.522.339" transform="translate(-199.104 -193.116)"/>
                </g>
              </g>
            </g>
            <path id="Trazado_722885" data-name="Trazado 722885" d="M201.206,8.54q6.6-3.809,11.229-3.239a9.333,9.333,0,0,1,3.582,1.187c-.029-.017-.058-.037-.087-.054-1.061-.6-7.454-4.284-8.913-5.144A9.33,9.33,0,0,0,203.378.074Q198.746-.5,192.149,3.313A43.674,43.674,0,0,0,175.634,20.69a47.465,47.465,0,0,0-6.176,23.42l9.057,5.227a47.464,47.464,0,0,1,6.176-23.42A43.677,43.677,0,0,1,201.206,8.54" transform="translate(-93.908 0)" fill="#81d4fa"/>
            <g id="Grupo_1008902" data-name="Grupo 1008902" transform="translate(81.219 0)" opacity="0.2">
              <g id="Grupo_1008901" data-name="Grupo 1008901">
                <g id="Grupo_1008900" data-name="Grupo 1008900" clip-path="url(#clip-path-16)">
                  <path id="Trazado_722886" data-name="Trazado 722886" d="M222.977,6.436a9.547,9.547,0,0,0-3.5-1.137q-4.628-.568-11.226,3.241a43.687,43.687,0,0,0-16.518,17.379c-.174.317-.343.638-.508.954l-9.055-5.23c.165-.317.334-.638.508-.954A43.676,43.676,0,0,1,199.2,3.311q6.6-3.805,11.23-3.237a9.327,9.327,0,0,1,3.638,1.217c1.458.86,7.851,4.543,8.912,5.145" transform="translate(-182.174 -0.001)"/>
                </g>
              </g>
            </g>
            <g id="Grupo_1008905" data-name="Grupo 1008905" transform="translate(75.551 21.643)" opacity="0.3">
              <g id="Grupo_1008904" data-name="Grupo 1008904">
                <g id="Grupo_1008903" data-name="Grupo 1008903" clip-path="url(#clip-path-17)">
                  <path id="Trazado_722887" data-name="Trazado 722887" d="M184.184,53.776a47.15,47.15,0,0,0-5.667,22.465l-9.055-5.23a47.1,47.1,0,0,1,5.667-22.465Z" transform="translate(-169.461 -48.546)"/>
                </g>
              </g>
            </g>
            <path id="Trazado_722888" data-name="Trazado 722888" d="M225.5,51.811q-2.464-1.309-6.583,1.028a16.339,16.339,0,0,1-1,4.778,102.792,102.792,0,0,1-5.988,11.442,75.875,75.875,0,0,0-7.439,17.114,60.72,60.72,0,0,0-2.292,16.513l.046,2.781,6.179,3.566,2.878,1.661-.047-2.78c0-.025,0-.049,0-.073a60.742,60.742,0,0,1,2.291-16.44,75.905,75.905,0,0,1,7.439-17.114,102.71,102.71,0,0,0,5.988-11.442,16.311,16.311,0,0,0,1.029-5.709q0-3.992-2.5-5.323" transform="translate(-112.054 -28.452)" fill="#81d4fa"/>
            <g id="Grupo_1008908" data-name="Grupo 1008908" transform="translate(90.149 31.184)" opacity="0.3">
              <g id="Grupo_1008907" data-name="Grupo 1008907">
                <g id="Grupo_1008906" data-name="Grupo 1008906" clip-path="url(#clip-path-18)">
                  <path id="Trazado_722889" data-name="Trazado 722889" d="M226.092,75.171q-1.531,3.19-5.1,9.425a75.856,75.856,0,0,0-7.441,17.115,60.874,60.874,0,0,0-2.292,16.438v.071l.049,2.782-2.88-1.658-6.179-3.567L202.2,113A60.721,60.721,0,0,1,204.5,96.482a76.116,76.116,0,0,1,7.436-17.115q3.571-6.233,5.109-9.42Z" transform="translate(-202.204 -69.946)"/>
                </g>
              </g>
            </g>
            <g id="Grupo_1008911" data-name="Grupo 1008911" transform="translate(104.986 22.889)" opacity="0.4">
              <g id="Grupo_1008910" data-name="Grupo 1008910">
                <g id="Grupo_1008909" data-name="Grupo 1008909" clip-path="url(#clip-path-19)">
                  <path id="Trazado_722890" data-name="Trazado 722890" d="M246.451,57.134a16.284,16.284,0,0,1-1.03,5.707c-.192.522-.49,1.195-.887,2.02l-9.05-5.225q.6-1.237.883-2.02a16.414,16.414,0,0,0,1-4.779q4.119-2.334,6.585-1.025,2.5,1.331,2.5,5.323" transform="translate(-235.484 -51.341)"/>
                </g>
              </g>
            </g>
            <path id="Trazado_722891" data-name="Trazado 722891" d="M202.029,48.758l-12.258,7.077a47.47,47.47,0,0,1,6.176-23.42,43.676,43.676,0,0,1,16.515-17.377q6.6-3.809,11.229-3.239a9.933,9.933,0,0,1,7.415,5.076,21.044,21.044,0,0,1,2.784,11.243A36.365,36.365,0,0,1,233,35.867a58.428,58.428,0,0,1-2.807,8.919,110.3,110.3,0,0,1-5.38,10.467,101.924,101.924,0,0,0-5.1,9.9,35.464,35.464,0,0,0-1.731,6.4,67.232,67.232,0,0,0-.889,9.87l-12.679,7.32-.047-2.78a60.742,60.742,0,0,1,2.292-16.513A75.905,75.905,0,0,1,214.1,52.332a102.829,102.829,0,0,0,5.989-11.442,16.311,16.311,0,0,0,1.029-5.709q0-3.992-2.5-5.323t-6.714,1.1a18.955,18.955,0,0,0-7.064,7.461,21.429,21.429,0,0,0-2.807,10.341" transform="translate(-105.165 -6.498)" fill="#81d4fa"/>
            <path id="Trazado_722892" data-name="Trazado 722892" d="M227.368,190.63q3.415-1.971,5.825-.244t2.41,6.157a19.094,19.094,0,0,1-2.386,8.957,15.538,15.538,0,0,1-5.755,6.472q-3.368,1.945-5.731.159t-2.362-6.215a19.051,19.051,0,0,1,2.339-8.9,15.225,15.225,0,0,1,5.661-6.387" transform="translate(-121.567 -105.059)" fill="#81d4fa"/>
          </g>
        </g>
      </g>
    </g>
  </g>
</svg>
