<svg id="_095-analytics-3" data-name="095-analytics-3" xmlns="http://www.w3.org/2000/svg" width="116.19" height="116.19" viewBox="0 0 116.19 116.19">
  <circle id="Elipse_5064" data-name="Elipse 5064" cx="35.402" cy="35.402" r="35.402" transform="translate(45.387 45.387)" fill="#fff" opacity="0.5"/>
  <rect id="Rectángulo_351462" data-name="Rectángulo 351462" width="106.024" height="80.97" transform="translate(1.815 1.815)" fill="#00bcd4"/>
  <path id="Trazado_722770" data-name="Trazado 722770" d="M107.839,84.6H1.815A1.715,1.715,0,0,1,0,82.786V1.815A1.715,1.715,0,0,1,1.815,0H107.839a1.715,1.715,0,0,1,1.815,1.815v80.97A1.952,1.952,0,0,1,107.839,84.6ZM3.631,80.97H106.024V3.631H3.631Z" fill="#183651"/>
  <g id="Grupo_1008858" data-name="Grupo 1008858" transform="translate(9.077 9.077)">
    <rect id="Rectángulo_351463" data-name="Rectángulo 351463" width="91.5" height="66.446" fill="#fff"/>
    <circle id="Elipse_5065" data-name="Elipse 5065" cx="28.321" cy="28.321" r="28.321" transform="translate(43.39 43.39)" fill="#fff"/>
  </g>
  <path id="Trazado_722771" data-name="Trazado 722771" d="M249.9,280.04A30.137,30.137,0,1,1,280.04,249.9,30.179,30.179,0,0,1,249.9,280.04Zm0-56.643A26.506,26.506,0,1,0,276.409,249.9,26.537,26.537,0,0,0,249.9,223.4Z" transform="translate(-169.114 -169.114)" fill="#183651"/>
  <path id="Trazado_722772" data-name="Trazado 722772" d="M278.392,256.788a21.656,21.656,0,0,0-21.6,21.6h21.6Z" transform="translate(-197.603 -197.603)" fill="#2ea0da"/>
  <path id="Trazado_722773" data-name="Trazado 722773" d="M350.523,350.523v21.6h0a21.656,21.656,0,0,0,21.6-21.6Z" transform="translate(-269.734 -269.734)" fill="#e0e4e8"/>
  <path id="Trazado_722774" data-name="Trazado 722774" d="M278.392,350.523h-21.6a21.656,21.656,0,0,0,21.6,21.6v-21.6Z" transform="translate(-197.603 -269.734)" fill="#4fbf9f"/>
  <path id="Trazado_722775" data-name="Trazado 722775" d="M350.523,256.788h0v21.6h0l15.25-15.25A20.947,20.947,0,0,0,350.523,256.788Z" transform="translate(-269.734 -197.603)" fill="#88f2ff"/>
  <path id="Trazado_722776" data-name="Trazado 722776" d="M365.773,284.357l-15.25,15.25h21.6A20.947,20.947,0,0,0,365.773,284.357Z" transform="translate(-269.734 -218.818)" fill="#ff9d00"/>
  <path id="Trazado_722777" data-name="Trazado 722777" d="M124.6,99.043a1.649,1.649,0,0,1-1.271-.545L109.351,84.7,99.184,94.868a1.8,1.8,0,0,1-2.542-2.542L108.08,80.888a1.755,1.755,0,0,1,2.542,0l13.8,13.8,10.348-10.167a1.8,1.8,0,1,1,2.542,2.542L125.872,98.5A1.961,1.961,0,0,1,124.6,99.043Z" transform="translate(-73.949 -61.826)" fill="#183651"/>
  <circle id="Elipse_5066" data-name="Elipse 5066" cx="5.446" cy="5.446" r="5.446" transform="translate(45.205 29.955)" fill="#fff"/>
  <path id="Trazado_722778" data-name="Trazado 722778" d="M195.52,136.616a7.262,7.262,0,1,1,7.262-7.262A7.283,7.283,0,0,1,195.52,136.616Zm0-10.893a3.631,3.631,0,1,0,3.631,3.631A3.642,3.642,0,0,0,195.52,125.723Z" transform="translate(-144.868 -93.952)" fill="#183651"/>
  <circle id="Elipse_5067" data-name="Elipse 5067" cx="5.446" cy="5.446" r="5.446" transform="translate(60.637 14.524)" fill="#fff"/>
  <path id="Trazado_722779" data-name="Trazado 722779" d="M262.474,70.45a7.262,7.262,0,1,1,7.262-7.262A7.283,7.283,0,0,1,262.474,70.45Zm0-11.075a3.631,3.631,0,1,0,3.631,3.631A3.642,3.642,0,0,0,262.474,59.375Z" transform="translate(-196.391 -43.036)" fill="#183651"/>
  <circle id="Elipse_5068" data-name="Elipse 5068" cx="5.446" cy="5.446" r="5.446" transform="translate(14.524 29.955)" fill="#fff"/>
  <path id="Trazado_722780" data-name="Trazado 722780" d="M62.4,136.616a7.262,7.262,0,1,1,7.262-7.262A7.283,7.283,0,0,1,62.4,136.616Zm0-10.893a3.631,3.631,0,1,0,3.631,3.631A3.642,3.642,0,0,0,62.4,125.723Z" transform="translate(-42.43 -93.952)" fill="#183651"/>
  <circle id="Elipse_5069" data-name="Elipse 5069" cx="5.446" cy="5.446" r="5.446" transform="translate(29.955 14.524)" fill="#fff"/>
  <path id="Trazado_722781" data-name="Trazado 722781" d="M129.354,70.45a7.262,7.262,0,1,1,7.262-7.262A7.283,7.283,0,0,1,129.354,70.45Zm0-11.075a3.631,3.631,0,1,0,3.631,3.631A3.642,3.642,0,0,0,129.354,59.375Z" transform="translate(-93.952 -43.036)" fill="#183651"/>
  <rect id="Rectángulo_351464" data-name="Rectángulo 351464" width="13.071" height="3.631" transform="translate(82.241 18.155)" fill="#183651"/>
  <rect id="Rectángulo_351465" data-name="Rectángulo 351465" width="13.071" height="3.631" transform="translate(82.241 26.506)" fill="#183651"/>
  <rect id="Rectángulo_351466" data-name="Rectángulo 351466" width="13.071" height="3.631" transform="translate(82.241 34.857)" fill="#183651"/>
  <rect id="Rectángulo_351467" data-name="Rectángulo 351467" width="24.509" height="3.631" transform="translate(15.613 48.836)" fill="#183651"/>
  <g id="Grupo_1008859" data-name="Grupo 1008859" transform="translate(15.613 57.914)">
    <rect id="Rectángulo_351468" data-name="Rectángulo 351468" width="24.509" height="3.631" fill="#183651"/>
    <rect id="Rectángulo_351469" data-name="Rectángulo 351469" width="3.631" height="3.631" transform="translate(0 9.259)" fill="#183651"/>
    <rect id="Rectángulo_351470" data-name="Rectángulo 351470" width="3.631" height="3.631" transform="translate(10.348 9.259)" fill="#183651"/>
    <rect id="Rectángulo_351471" data-name="Rectángulo 351471" width="3.631" height="3.631" transform="translate(20.878 9.259)" fill="#183651"/>
  </g>
</svg>
