<svg xmlns="http://www.w3.org/2000/svg" xmlns:xlink="http://www.w3.org/1999/xlink" width="638" height="151.25" viewBox="0 0 638 151.25">
  <defs>
    <filter id="Trazado_724573" x="0" y="0" width="201" height="73" filterUnits="userSpaceOnUse">
      <feOffset dx="2" dy="2" input="SourceAlpha"/>
      <feGaussianBlur stdDeviation="3" result="blur"/>
      <feFlood flood-opacity="0.161"/>
      <feComposite operator="in" in2="blur"/>
      <feComposite in="SourceGraphic"/>
    </filter>
    <filter id="Trazado_724574" x="0" y="78.25" width="201" height="73" filterUnits="userSpaceOnUse">
      <feOffset dx="2" dy="2" input="SourceAlpha"/>
      <feGaussianBlur stdDeviation="3" result="blur-2"/>
      <feFlood flood-opacity="0.161"/>
      <feComposite operator="in" in2="blur-2"/>
      <feComposite in="SourceGraphic"/>
    </filter>
    <filter id="Trazado_724569" x="218" y="0" width="201" height="73" filterUnits="userSpaceOnUse">
      <feOffset dx="2" dy="2" input="SourceAlpha"/>
      <feGaussianBlur stdDeviation="3" result="blur-3"/>
      <feFlood flood-opacity="0.161"/>
      <feComposite operator="in" in2="blur-3"/>
      <feComposite in="SourceGraphic"/>
    </filter>
    <filter id="Trazado_724570" x="218" y="78.25" width="201" height="73" filterUnits="userSpaceOnUse">
      <feOffset dx="2" dy="2" input="SourceAlpha"/>
      <feGaussianBlur stdDeviation="3" result="blur-4"/>
      <feFlood flood-opacity="0.161"/>
      <feComposite operator="in" in2="blur-4"/>
      <feComposite in="SourceGraphic"/>
    </filter>
    <filter id="Trazado_724565" x="437" y="0" width="201" height="73" filterUnits="userSpaceOnUse">
      <feOffset dx="2" dy="2" input="SourceAlpha"/>
      <feGaussianBlur stdDeviation="3" result="blur-5"/>
      <feFlood flood-opacity="0.161"/>
      <feComposite operator="in" in2="blur-5"/>
      <feComposite in="SourceGraphic"/>
    </filter>
    <filter id="Trazado_724566" x="437" y="78.25" width="201" height="73" filterUnits="userSpaceOnUse">
      <feOffset dx="2" dy="2" input="SourceAlpha"/>
      <feGaussianBlur stdDeviation="3" result="blur-6"/>
      <feFlood flood-opacity="0.161"/>
      <feComposite operator="in" in2="blur-6"/>
      <feComposite in="SourceGraphic"/>
    </filter>
  </defs>
  <g id="Grupo_1009253" data-name="Grupo 1009253" transform="translate(5500.25 1795.17)">
    <g transform="matrix(1, 0, 0, 1, -5500.25, -1795.17)" filter="url(#Trazado_724573)">
      <g id="Trazado_724573-2" data-name="Trazado 724573" transform="translate(7 7)" fill="#81d4fa">
        <path d="M 171 54 L 12 54 C 9.061785697937012 54 6.299452304840088 52.85580825805664 4.221833229064941 50.77816772460938 C 2.144190549850464 48.70054626464844 1 45.93821334838867 1 43 L 1 12 C 1 9.061785697937012 2.144190549850464 6.299452304840088 4.221833229064941 4.221833229064941 C 6.299452304840088 2.144190549850464 9.061785697937012 1 12 1 L 171 1 C 173.9382171630859 1 176.7005462646484 2.144190549850464 178.7781677246094 4.221833229064941 C 180.8558044433594 6.299452304840088 182 9.061785697937012 182 12 L 182 43 C 182 45.93821334838867 180.8558044433594 48.70054626464844 178.7781677246094 50.77816772460938 C 176.7005462646484 52.85580825805664 173.9382171630859 54 171 54 Z" stroke="none"/>
        <path d="M 12 2 C 6.485977172851562 2 2 6.485973358154297 2 12 L 2 43 C 2 48.5140266418457 6.485977172851562 53 12 53 L 171 53 C 176.5140228271484 53 181 48.5140266418457 181 43 L 181 12 C 181 6.485973358154297 176.5140228271484 2 171 2 L 12 2 M 12 0 L 171 0 C 177.6273956298828 0 183 5.372573852539062 183 12 L 183 43 C 183 49.62742614746094 177.6273956298828 55 171 55 L 12 55 C 5.372573852539062 55 0 49.62742614746094 0 43 L 0 12 C 0 5.372573852539062 5.372573852539062 0 12 0 Z" stroke="none" fill="#fff"/>
      </g>
    </g>
    <path id="Trazado_724575" data-name="Trazado 724575" d="M39.574,9.642H35.355V14h-2.2V3.336H40.1v1.78H35.355V7.87h4.219ZM43.471,14H41.347V6.075h2.124ZM41.222,4.024a1.042,1.042,0,0,1,.319-.784,1.373,1.373,0,0,1,1.732,0,1.036,1.036,0,0,1,.322.784,1.039,1.039,0,0,1-.326.791,1.358,1.358,0,0,1-1.721,0A1.039,1.039,0,0,1,41.222,4.024Zm5.94,2.051.066.916a2.767,2.767,0,0,1,2.278-1.062,2.3,2.3,0,0,1,1.875.74,3.451,3.451,0,0,1,.63,2.212V14H49.894V8.92a1.379,1.379,0,0,0-.293-.98,1.31,1.31,0,0,0-.974-.3,1.456,1.456,0,0,0-1.34.763V14H45.17V6.075ZM58.207,14a2.351,2.351,0,0,1-.212-.71,2.561,2.561,0,0,1-2,.857,2.814,2.814,0,0,1-1.93-.674,2.167,2.167,0,0,1-.765-1.7,2.24,2.24,0,0,1,.934-1.934,4.608,4.608,0,0,1,2.7-.681h.974V8.7a1.306,1.306,0,0,0-.282-.879,1.109,1.109,0,0,0-.89-.33,1.261,1.261,0,0,0-.839.256.871.871,0,0,0-.3.7H53.476A2.126,2.126,0,0,1,53.9,7.181a2.808,2.808,0,0,1,1.2-.919,4.378,4.378,0,0,1,1.743-.333,3.459,3.459,0,0,1,2.325.736,2.575,2.575,0,0,1,.861,2.069v3.435a3.789,3.789,0,0,0,.315,1.707V14Zm-1.75-1.472a1.823,1.823,0,0,0,.864-.209,1.371,1.371,0,0,0,.586-.56V10.4h-.791q-1.589,0-1.692,1.1l-.007.125a.847.847,0,0,0,.278.652A1.081,1.081,0,0,0,56.457,12.528ZM63.891,14H61.767V2.75h2.124Zm3.977,0H65.744V6.075h2.124ZM65.619,4.024a1.042,1.042,0,0,1,.319-.784,1.373,1.373,0,0,1,1.732,0,1.036,1.036,0,0,1,.322.784,1.039,1.039,0,0,1-.326.791,1.358,1.358,0,0,1-1.721,0A1.039,1.039,0,0,1,65.619,4.024Zm3.662,5.955a4.776,4.776,0,0,1,.831-2.952,2.7,2.7,0,0,1,2.274-1.1,2.427,2.427,0,0,1,1.912.864V2.75h2.124V14H74.511l-.1-.842a2.491,2.491,0,0,1-2.036.989,2.69,2.69,0,0,1-2.245-1.1A4.93,4.93,0,0,1,69.281,9.979Zm2.117.151a3.146,3.146,0,0,0,.388,1.714,1.263,1.263,0,0,0,1.128.6,1.416,1.416,0,0,0,1.384-.831V8.467a1.4,1.4,0,0,0-1.37-.831Q71.4,7.635,71.4,10.13ZM82.655,14a2.351,2.351,0,0,1-.212-.71,2.561,2.561,0,0,1-2,.857,2.814,2.814,0,0,1-1.93-.674,2.167,2.167,0,0,1-.765-1.7,2.24,2.24,0,0,1,.934-1.934,4.608,4.608,0,0,1,2.7-.681h.974V8.7a1.306,1.306,0,0,0-.282-.879,1.109,1.109,0,0,0-.89-.33,1.261,1.261,0,0,0-.839.256.871.871,0,0,0-.3.7H77.924a2.126,2.126,0,0,1,.425-1.274,2.808,2.808,0,0,1,1.2-.919,4.378,4.378,0,0,1,1.743-.333,3.459,3.459,0,0,1,2.325.736,2.575,2.575,0,0,1,.861,2.069v3.435a3.789,3.789,0,0,0,.315,1.707V14ZM80.9,12.528a1.823,1.823,0,0,0,.864-.209,1.371,1.371,0,0,0,.586-.56V10.4h-.791q-1.589,0-1.692,1.1l-.007.125a.847.847,0,0,0,.278.652A1.081,1.081,0,0,0,80.9,12.528Zm4.871-2.549a4.776,4.776,0,0,1,.831-2.952,2.7,2.7,0,0,1,2.274-1.1,2.427,2.427,0,0,1,1.912.864V2.75h2.124V14H91l-.1-.842a2.491,2.491,0,0,1-2.036.989,2.69,2.69,0,0,1-2.245-1.1A4.93,4.93,0,0,1,85.775,9.979Zm2.117.151a3.146,3.146,0,0,0,.388,1.714,1.263,1.263,0,0,0,1.128.6,1.416,1.416,0,0,0,1.384-.831V8.467a1.4,1.4,0,0,0-1.37-.831Q87.892,7.635,87.892,10.13Zm10.071-.151a4.776,4.776,0,0,1,.831-2.952,2.7,2.7,0,0,1,2.274-1.1,2.427,2.427,0,0,1,1.912.864V2.75H105.1V14h-1.912l-.1-.842a2.491,2.491,0,0,1-2.036.989,2.69,2.69,0,0,1-2.245-1.1A4.93,4.93,0,0,1,97.963,9.979Zm2.117.151a3.146,3.146,0,0,0,.388,1.714,1.263,1.263,0,0,0,1.128.6,1.416,1.416,0,0,0,1.384-.831V8.467a1.4,1.4,0,0,0-1.37-.831Q100.08,7.635,100.08,10.13Zm10.313,4.017a3.89,3.89,0,0,1-2.838-1.069,3.8,3.8,0,0,1-1.095-2.849v-.205a4.787,4.787,0,0,1,.461-2.135,3.386,3.386,0,0,1,1.307-1.45,3.669,3.669,0,0,1,1.93-.509,3.289,3.289,0,0,1,2.56,1.025,4.167,4.167,0,0,1,.934,2.908v.864H108.6a1.966,1.966,0,0,0,.619,1.245,1.871,1.871,0,0,0,1.307.469,2.285,2.285,0,0,0,1.912-.886l1.04,1.165a3.178,3.178,0,0,1-1.289,1.051A4.229,4.229,0,0,1,110.392,14.146Zm-.242-6.511a1.323,1.323,0,0,0-1.022.427,2.209,2.209,0,0,0-.5,1.221h2.944V9.114a1.576,1.576,0,0,0-.381-1.092A1.365,1.365,0,0,0,110.15,7.635ZM120.822,14H118.7V2.75h2.124Zm6.335,0a2.351,2.351,0,0,1-.212-.71,2.561,2.561,0,0,1-2,.857,2.814,2.814,0,0,1-1.93-.674,2.167,2.167,0,0,1-.765-1.7,2.24,2.24,0,0,1,.934-1.934,4.608,4.608,0,0,1,2.7-.681h.974V8.7a1.306,1.306,0,0,0-.282-.879,1.109,1.109,0,0,0-.89-.33,1.261,1.261,0,0,0-.839.256.871.871,0,0,0-.3.7h-2.117a2.126,2.126,0,0,1,.425-1.274,2.808,2.808,0,0,1,1.2-.919,4.378,4.378,0,0,1,1.743-.333,3.459,3.459,0,0,1,2.325.736,2.575,2.575,0,0,1,.861,2.069v3.435a3.789,3.789,0,0,0,.315,1.707V14Zm-1.75-1.472a1.823,1.823,0,0,0,.864-.209,1.371,1.371,0,0,0,.586-.56V10.4h-.791q-1.589,0-1.692,1.1l-.007.125a.847.847,0,0,0,.278.652A1.081,1.081,0,0,0,125.407,12.528ZM39.04,31H36.916V23.075H39.04Zm-2.249-9.976a1.042,1.042,0,0,1,.319-.784,1.373,1.373,0,0,1,1.732,0,1.118,1.118,0,0,1,0,1.575,1.358,1.358,0,0,1-1.721,0A1.039,1.039,0,0,1,36.791,21.024Zm5.94,2.051.066.916a2.767,2.767,0,0,1,2.278-1.062,2.3,2.3,0,0,1,1.875.74,3.451,3.451,0,0,1,.63,2.212V31H45.463V25.92a1.379,1.379,0,0,0-.293-.98,1.31,1.31,0,0,0-.974-.3,1.456,1.456,0,0,0-1.34.763V31H40.739V23.075Zm9.419,5.339,1.472-5.339h2.212L53.161,31H51.139l-2.673-7.925h2.212Zm8.167,2.732a3.89,3.89,0,0,1-2.838-1.069,3.8,3.8,0,0,1-1.095-2.849v-.205a4.787,4.787,0,0,1,.461-2.135,3.386,3.386,0,0,1,1.307-1.45,3.669,3.669,0,0,1,1.93-.509,3.289,3.289,0,0,1,2.56,1.025,4.167,4.167,0,0,1,.934,2.908v.864H58.529a1.966,1.966,0,0,0,.619,1.245,1.871,1.871,0,0,0,1.307.469,2.285,2.285,0,0,0,1.912-.886l1.04,1.165a3.178,3.178,0,0,1-1.289,1.051A4.229,4.229,0,0,1,60.316,31.146Zm-.242-6.511a1.323,1.323,0,0,0-1.022.427,2.209,2.209,0,0,0-.5,1.221H61.5v-.169a1.576,1.576,0,0,0-.381-1.092A1.365,1.365,0,0,0,60.075,24.635Zm8.994,4.175a.682.682,0,0,0-.385-.612,4.368,4.368,0,0,0-1.234-.4q-2.827-.593-2.827-2.4a2.178,2.178,0,0,1,.875-1.761,3.531,3.531,0,0,1,2.289-.707,3.8,3.8,0,0,1,2.413.71,2.239,2.239,0,0,1,.9,1.846H68.988a1.024,1.024,0,0,0-.293-.751,1.24,1.24,0,0,0-.916-.3,1.267,1.267,0,0,0-.828.242.763.763,0,0,0-.293.615.652.652,0,0,0,.333.568,3.428,3.428,0,0,0,1.124.374,9.183,9.183,0,0,1,1.333.355,2.19,2.19,0,0,1,1.677,2.131,2.067,2.067,0,0,1-.93,1.754,4.013,4.013,0,0,1-2.4.67,4.191,4.191,0,0,1-1.769-.355,2.968,2.968,0,0,1-1.212-.974,2.263,2.263,0,0,1-.439-1.337h2.007a1.105,1.105,0,0,0,.417.864,1.656,1.656,0,0,0,1.04.3,1.533,1.533,0,0,0,.919-.231A.718.718,0,0,0,69.069,28.81Zm5.955-7.683v1.948h1.355v1.553H75.023v3.955a.944.944,0,0,0,.168.63.846.846,0,0,0,.645.19,3.376,3.376,0,0,0,.623-.051v1.6a4.358,4.358,0,0,1-1.282.19A2.021,2.021,0,0,1,72.907,28.9v-4.27H71.75V23.075h1.157V21.127ZM79.792,31H77.667V23.075h2.124Zm-2.249-9.976a1.042,1.042,0,0,1,.319-.784,1.373,1.373,0,0,1,1.732,0,1.118,1.118,0,0,1,0,1.575,1.358,1.358,0,0,1-1.721,0A1.039,1.039,0,0,1,77.543,21.024Zm3.684,5.955a4.644,4.644,0,0,1,.868-2.937,2.812,2.812,0,0,1,2.34-1.113,2.466,2.466,0,0,1,2.029.894l.088-.747h1.919v7.661A3.387,3.387,0,0,1,88,32.545a3.034,3.034,0,0,1-1.329,1.172,4.673,4.673,0,0,1-2.007.4,4.346,4.346,0,0,1-1.7-.348,3.016,3.016,0,0,1-1.252-.9l.938-1.289a2.48,2.48,0,0,0,1.919.886,1.815,1.815,0,0,0,1.311-.45,1.69,1.69,0,0,0,.469-1.278v-.425a2.448,2.448,0,0,1-1.926.828A2.8,2.8,0,0,1,82.11,30.03a4.643,4.643,0,0,1-.883-2.963Zm2.117.151a2.907,2.907,0,0,0,.432,1.7,1.373,1.373,0,0,0,1.187.614,1.469,1.469,0,0,0,1.384-.728V25.364a1.465,1.465,0,0,0-1.37-.728,1.382,1.382,0,0,0-1.2.625A3.278,3.278,0,0,0,83.344,27.13ZM94.689,31a2.351,2.351,0,0,1-.212-.71,2.561,2.561,0,0,1-2,.857,2.814,2.814,0,0,1-1.93-.674,2.167,2.167,0,0,1-.765-1.7,2.24,2.24,0,0,1,.934-1.934,4.608,4.608,0,0,1,2.7-.681h.974V25.7a1.306,1.306,0,0,0-.282-.879,1.109,1.109,0,0,0-.89-.33,1.261,1.261,0,0,0-.839.256.871.871,0,0,0-.3.7H89.958a2.126,2.126,0,0,1,.425-1.274,2.808,2.808,0,0,1,1.2-.919,4.378,4.378,0,0,1,1.743-.333,3.459,3.459,0,0,1,2.325.736,2.575,2.575,0,0,1,.861,2.069v3.435a3.789,3.789,0,0,0,.315,1.707V31Zm-1.75-1.472a1.823,1.823,0,0,0,.864-.209,1.371,1.371,0,0,0,.586-.56V27.4H93.6q-1.589,0-1.692,1.1l-.007.125a.847.847,0,0,0,.278.652A1.081,1.081,0,0,0,92.938,29.528Zm8.5-.088a1.388,1.388,0,0,0,.952-.322,1.129,1.129,0,0,0,.381-.857h1.985a2.715,2.715,0,0,1-.439,1.476,2.9,2.9,0,0,1-1.183,1.04,3.7,3.7,0,0,1-1.659.37,3.44,3.44,0,0,1-2.681-1.08,4.275,4.275,0,0,1-.981-2.985v-.139a4.226,4.226,0,0,1,.974-2.922,3.4,3.4,0,0,1,2.673-1.091,3.333,3.333,0,0,1,2.384.846,3,3,0,0,1,.912,2.252h-1.985a1.455,1.455,0,0,0-.381-1.005,1.416,1.416,0,0,0-2.084.153,3.125,3.125,0,0,0-.377,1.749v.22A3.164,3.164,0,0,0,100.3,28.9,1.291,1.291,0,0,0,101.435,29.44Zm6.76,1.56h-2.124V23.075h2.124Zm-2.249-9.976a1.042,1.042,0,0,1,.319-.784,1.373,1.373,0,0,1,1.732,0,1.118,1.118,0,0,1,0,1.575,1.358,1.358,0,0,1-1.721,0A1.039,1.039,0,0,1,105.946,21.024Zm3.662,5.94a4.7,4.7,0,0,1,.454-2.1,3.324,3.324,0,0,1,1.307-1.428,3.814,3.814,0,0,1,1.981-.505,3.609,3.609,0,0,1,2.618.981,3.939,3.939,0,0,1,1.132,2.666l.015.542a4.142,4.142,0,0,1-1.018,2.926,3.946,3.946,0,0,1-5.468,0,4.215,4.215,0,0,1-1.022-2.988Zm2.117.15a2.962,2.962,0,0,0,.425,1.727,1.526,1.526,0,0,0,2.417.007A3.241,3.241,0,0,0,115,26.961a2.933,2.933,0,0,0-.432-1.716,1.4,1.4,0,0,0-1.216-.609,1.382,1.382,0,0,0-1.2.605A3.3,3.3,0,0,0,111.725,27.115Zm2.043-7.365h2.307l-2.029,2.271h-1.721Zm6.6,3.325.066.916a2.767,2.767,0,0,1,2.278-1.062,2.3,2.3,0,0,1,1.875.74,3.451,3.451,0,0,1,.63,2.212V31H123.1V25.92a1.379,1.379,0,0,0-.293-.98,1.31,1.31,0,0,0-.974-.3,1.456,1.456,0,0,0-1.34.763V31h-2.117V23.075Z" transform="translate(-5489.407 -1776)" fill="#12263f"/>
    <g transform="matrix(1, 0, 0, 1, -5500.25, -1795.17)" filter="url(#Trazado_724574)">
      <g id="Trazado_724574-2" data-name="Trazado 724574" transform="translate(7 85.25)" fill="#88f2ff">
        <path d="M 171 54 L 12 54 C 9.061785697937012 54 6.299452304840088 52.85580825805664 4.221833229064941 50.77816772460938 C 2.144190549850464 48.70054626464844 1 45.93821334838867 1 43 L 1 12 C 1 9.061785697937012 2.144190549850464 6.299452304840088 4.221833229064941 4.221833229064941 C 6.299452304840088 2.144190549850464 9.061785697937012 1 12 1 L 171 1 C 173.9382171630859 1 176.7005462646484 2.144190549850464 178.7781677246094 4.221833229064941 C 180.8558044433594 6.299452304840088 182 9.061785697937012 182 12 L 182 43 C 182 45.93821334838867 180.8558044433594 48.70054626464844 178.7781677246094 50.77816772460938 C 176.7005462646484 52.85580825805664 173.9382171630859 54 171 54 Z" stroke="none"/>
        <path d="M 12 2 C 6.485977172851562 2 2 6.485973358154297 2 12 L 2 43 C 2 48.5140266418457 6.485977172851562 53 12 53 L 171 53 C 176.5140228271484 53 181 48.5140266418457 181 43 L 181 12 C 181 6.485973358154297 176.5140228271484 2 171 2 L 12 2 M 12 0 L 171 0 C 177.6273956298828 0 183 5.372573852539062 183 12 L 183 43 C 183 49.62742614746094 177.6273956298828 55 171 55 L 12 55 C 5.372573852539062 55 0 49.62742614746094 0 43 L 0 12 C 0 5.372573852539062 5.372573852539062 0 12 0 Z" stroke="none" fill="#fff"/>
      </g>
    </g>
    <path id="Trazado_724576" data-name="Trazado 724576" d="M43.419,9.642H39.2V14H37V3.336h6.943v1.78H39.2V7.87h4.219Zm6.248,3.552a2.654,2.654,0,0,1-2.168.952,2.5,2.5,0,0,1-1.945-.732,3.127,3.127,0,0,1-.685-2.146V6.075h2.117V11.2q0,1.239,1.128,1.239a1.528,1.528,0,0,0,1.479-.748V6.075h2.124V14H49.726Zm7.295.952a3.89,3.89,0,0,1-2.838-1.069,3.8,3.8,0,0,1-1.095-2.849v-.205a4.787,4.787,0,0,1,.461-2.135A3.386,3.386,0,0,1,54.8,6.438a3.669,3.669,0,0,1,1.93-.509,3.289,3.289,0,0,1,2.56,1.025,4.167,4.167,0,0,1,.934,2.908v.864H55.175a1.966,1.966,0,0,0,.619,1.245,1.871,1.871,0,0,0,1.307.469,2.285,2.285,0,0,0,1.912-.886l1.04,1.165a3.178,3.178,0,0,1-1.289,1.051A4.229,4.229,0,0,1,56.962,14.146ZM56.72,7.635a1.323,1.323,0,0,0-1.022.427,2.209,2.209,0,0,0-.5,1.221h2.944V9.114a1.576,1.576,0,0,0-.381-1.092A1.365,1.365,0,0,0,56.72,7.635Zm6.65-1.56.066.916a2.767,2.767,0,0,1,2.278-1.062,2.3,2.3,0,0,1,1.875.74,3.451,3.451,0,0,1,.63,2.212V14H66.1V8.92a1.379,1.379,0,0,0-.293-.98,1.31,1.31,0,0,0-.974-.3A1.456,1.456,0,0,0,63.5,8.4V14H61.378V6.075Zm8.987-1.948V6.075h1.355V7.628H72.357v3.955a.944.944,0,0,0,.168.63.846.846,0,0,0,.645.19,3.376,3.376,0,0,0,.623-.051v1.6a4.358,4.358,0,0,1-1.282.19A2.021,2.021,0,0,1,70.241,11.9V7.628H69.083V6.075h1.157V4.127Zm6.182,10.02A3.89,3.89,0,0,1,75.7,13.077a3.8,3.8,0,0,1-1.095-2.849v-.205a4.787,4.787,0,0,1,.461-2.135,3.386,3.386,0,0,1,1.307-1.45,3.669,3.669,0,0,1,1.93-.509,3.289,3.289,0,0,1,2.56,1.025A4.167,4.167,0,0,1,81.8,9.862v.864H76.752a1.966,1.966,0,0,0,.619,1.245,1.871,1.871,0,0,0,1.307.469,2.285,2.285,0,0,0,1.912-.886l1.04,1.165a3.178,3.178,0,0,1-1.289,1.051A4.229,4.229,0,0,1,78.539,14.146ZM78.3,7.635a1.323,1.323,0,0,0-1.022.427,2.209,2.209,0,0,0-.5,1.221h2.944V9.114a1.576,1.576,0,0,0-.381-1.092A1.365,1.365,0,0,0,78.3,7.635Zm8.994,4.175a.682.682,0,0,0-.385-.612,4.368,4.368,0,0,0-1.234-.4q-2.827-.593-2.827-2.4a2.178,2.178,0,0,1,.875-1.761,3.531,3.531,0,0,1,2.289-.707,3.8,3.8,0,0,1,2.413.71,2.239,2.239,0,0,1,.9,1.846H87.211a1.024,1.024,0,0,0-.293-.751,1.24,1.24,0,0,0-.916-.3,1.267,1.267,0,0,0-.828.242.763.763,0,0,0-.293.615.652.652,0,0,0,.333.568,3.428,3.428,0,0,0,1.124.374,9.183,9.183,0,0,1,1.333.355,2.19,2.19,0,0,1,1.677,2.131,2.067,2.067,0,0,1-.93,1.754,4.013,4.013,0,0,1-2.4.67,4.191,4.191,0,0,1-1.769-.355,2.968,2.968,0,0,1-1.212-.974A2.263,2.263,0,0,1,82.6,11.48H84.6a1.105,1.105,0,0,0,.417.864,1.656,1.656,0,0,0,1.04.3,1.533,1.533,0,0,0,.919-.231A.718.718,0,0,0,87.292,11.81Zm6.826-1.831a4.776,4.776,0,0,1,.831-2.952,2.7,2.7,0,0,1,2.274-1.1,2.427,2.427,0,0,1,1.912.864V2.75h2.124V14H99.347l-.1-.842a2.491,2.491,0,0,1-2.036.989,2.69,2.69,0,0,1-2.245-1.1A4.93,4.93,0,0,1,94.118,9.979Zm2.117.151a3.146,3.146,0,0,0,.388,1.714,1.263,1.263,0,0,0,1.128.6,1.416,1.416,0,0,0,1.384-.831V8.467a1.4,1.4,0,0,0-1.37-.831Q96.234,7.635,96.234,10.13Zm10.313,4.017a3.89,3.89,0,0,1-2.838-1.069,3.8,3.8,0,0,1-1.095-2.849v-.205a4.787,4.787,0,0,1,.461-2.135,3.386,3.386,0,0,1,1.307-1.45,3.669,3.669,0,0,1,1.93-.509,3.289,3.289,0,0,1,2.56,1.025,4.167,4.167,0,0,1,.934,2.908v.864H104.76a1.966,1.966,0,0,0,.619,1.245,1.871,1.871,0,0,0,1.307.469,2.285,2.285,0,0,0,1.912-.886l1.04,1.165a3.178,3.178,0,0,1-1.289,1.051A4.229,4.229,0,0,1,106.547,14.146Zm-.242-6.511a1.323,1.323,0,0,0-1.022.427,2.209,2.209,0,0,0-.5,1.221h2.944V9.114a1.576,1.576,0,0,0-.381-1.092A1.365,1.365,0,0,0,106.305,7.635ZM116.977,14h-2.124V2.75h2.124Zm6.335,0a2.351,2.351,0,0,1-.212-.71,2.561,2.561,0,0,1-2,.857,2.814,2.814,0,0,1-1.93-.674,2.167,2.167,0,0,1-.765-1.7,2.24,2.24,0,0,1,.934-1.934,4.608,4.608,0,0,1,2.7-.681h.974V8.7a1.306,1.306,0,0,0-.282-.879,1.109,1.109,0,0,0-.89-.33,1.261,1.261,0,0,0-.839.256.871.871,0,0,0-.3.7h-2.117a2.126,2.126,0,0,1,.425-1.274,2.808,2.808,0,0,1,1.2-.919,4.378,4.378,0,0,1,1.743-.333,3.459,3.459,0,0,1,2.325.736,2.575,2.575,0,0,1,.861,2.069v3.435a3.789,3.789,0,0,0,.315,1.707V14Zm-1.75-1.472a1.823,1.823,0,0,0,.864-.209,1.371,1.371,0,0,0,.586-.56V10.4h-.791q-1.589,0-1.692,1.1l-.007.125a.847.847,0,0,0,.278.652A1.081,1.081,0,0,0,121.562,12.528ZM43.339,31H41.215V23.075h2.124ZM41.09,21.024a1.042,1.042,0,0,1,.319-.784,1.373,1.373,0,0,1,1.732,0,1.118,1.118,0,0,1,0,1.575,1.358,1.358,0,0,1-1.721,0A1.039,1.039,0,0,1,41.09,21.024Zm5.94,2.051.066.916a2.767,2.767,0,0,1,2.278-1.062,2.3,2.3,0,0,1,1.875.74,3.451,3.451,0,0,1,.63,2.212V31H49.762V25.92a1.379,1.379,0,0,0-.293-.98,1.31,1.31,0,0,0-.974-.3,1.456,1.456,0,0,0-1.34.763V31H45.038V23.075ZM54.062,31V24.628H52.882V23.075h1.179V22.4a2.736,2.736,0,0,1,.765-2.069,2.964,2.964,0,0,1,2.142-.736,4.989,4.989,0,0,1,1.077.145l-.022,1.627a2.7,2.7,0,0,0-.645-.066q-1.194,0-1.194,1.13v.642H57.76v1.553H56.186V31Zm4.468-4.036a4.7,4.7,0,0,1,.454-2.1,3.324,3.324,0,0,1,1.307-1.428,3.814,3.814,0,0,1,1.981-.505,3.609,3.609,0,0,1,2.618.981,3.939,3.939,0,0,1,1.132,2.666l.015.542a4.142,4.142,0,0,1-1.018,2.926,3.946,3.946,0,0,1-5.468,0,4.215,4.215,0,0,1-1.022-2.988Zm2.117.15a2.962,2.962,0,0,0,.425,1.727,1.526,1.526,0,0,0,2.417.007,3.241,3.241,0,0,0,.432-1.889,2.933,2.933,0,0,0-.432-1.716,1.4,1.4,0,0,0-1.216-.609,1.382,1.382,0,0,0-1.2.605A3.3,3.3,0,0,0,60.646,27.115ZM71.793,25.06A5.75,5.75,0,0,0,71.032,25a1.55,1.55,0,0,0-1.575.813V31H67.34V23.075h2l.059.945a1.961,1.961,0,0,1,1.765-1.091,2.218,2.218,0,0,1,.659.1Zm3-1.985.066.886a2.785,2.785,0,0,1,2.278-1.033,2.114,2.114,0,0,1,2.1,1.208,2.721,2.721,0,0,1,2.38-1.208,2.364,2.364,0,0,1,1.919.751,3.451,3.451,0,0,1,.63,2.26V31H82.047V25.935a1.515,1.515,0,0,0-.264-.987,1.167,1.167,0,0,0-.93-.312,1.321,1.321,0,0,0-1.318.91L79.542,31H77.426V25.942a1.5,1.5,0,0,0-.271-1,1.178,1.178,0,0,0-.923-.308,1.371,1.371,0,0,0-1.3.749V31H72.812V23.075ZM90.39,31a2.351,2.351,0,0,1-.212-.71,2.561,2.561,0,0,1-2,.857,2.814,2.814,0,0,1-1.93-.674,2.167,2.167,0,0,1-.765-1.7,2.24,2.24,0,0,1,.934-1.934,4.608,4.608,0,0,1,2.7-.681h.974V25.7a1.306,1.306,0,0,0-.282-.879,1.109,1.109,0,0,0-.89-.33,1.261,1.261,0,0,0-.839.256.871.871,0,0,0-.3.7H85.658a2.126,2.126,0,0,1,.425-1.274,2.808,2.808,0,0,1,1.2-.919,4.378,4.378,0,0,1,1.743-.333,3.459,3.459,0,0,1,2.325.736,2.575,2.575,0,0,1,.861,2.069v3.435a3.789,3.789,0,0,0,.315,1.707V31Zm-1.75-1.472a1.823,1.823,0,0,0,.864-.209,1.371,1.371,0,0,0,.586-.56V27.4H89.3q-1.589,0-1.692,1.1l-.007.125a.847.847,0,0,0,.278.652A1.081,1.081,0,0,0,88.639,29.528Zm8.5-.088a1.388,1.388,0,0,0,.952-.322,1.129,1.129,0,0,0,.381-.857h1.985a2.715,2.715,0,0,1-.439,1.476,2.9,2.9,0,0,1-1.183,1.04,3.7,3.7,0,0,1-1.659.37,3.44,3.44,0,0,1-2.681-1.08,4.275,4.275,0,0,1-.981-2.985v-.139a4.226,4.226,0,0,1,.974-2.922,3.4,3.4,0,0,1,2.673-1.091,3.333,3.333,0,0,1,2.384.846,3,3,0,0,1,.912,2.252H98.468a1.455,1.455,0,0,0-.381-1.005A1.416,1.416,0,0,0,96,25.174a3.125,3.125,0,0,0-.377,1.749v.22A3.164,3.164,0,0,0,96,28.9,1.291,1.291,0,0,0,97.135,29.44ZM103.9,31h-2.124V23.075H103.9Zm-2.249-9.976a1.042,1.042,0,0,1,.319-.784,1.373,1.373,0,0,1,1.732,0,1.118,1.118,0,0,1,0,1.575,1.358,1.358,0,0,1-1.721,0A1.039,1.039,0,0,1,101.647,21.024Zm3.662,5.94a4.7,4.7,0,0,1,.454-2.1,3.324,3.324,0,0,1,1.307-1.428,3.814,3.814,0,0,1,1.981-.505,3.609,3.609,0,0,1,2.618.981,3.939,3.939,0,0,1,1.132,2.666l.015.542a4.142,4.142,0,0,1-1.018,2.926,3.946,3.946,0,0,1-5.468,0,4.215,4.215,0,0,1-1.022-2.988Zm2.117.15a2.962,2.962,0,0,0,.425,1.727,1.526,1.526,0,0,0,2.417.007,3.241,3.241,0,0,0,.432-1.889,2.933,2.933,0,0,0-.432-1.716,1.4,1.4,0,0,0-1.216-.609,1.382,1.382,0,0,0-1.2.605A3.3,3.3,0,0,0,107.426,27.115Zm2.043-7.365h2.307l-2.029,2.271h-1.721Zm6.6,3.325.066.916a2.767,2.767,0,0,1,2.278-1.062,2.3,2.3,0,0,1,1.875.74,3.451,3.451,0,0,1,.63,2.212V31H118.8V25.92a1.379,1.379,0,0,0-.293-.98,1.31,1.31,0,0,0-.974-.3,1.456,1.456,0,0,0-1.34.763V31h-2.117V23.075Z" transform="translate(-5489.407 -1698.17)" fill="#12263f"/>
    <g transform="matrix(1, 0, 0, 1, -5500.25, -1795.17)" filter="url(#Trazado_724569)">
      <g id="Trazado_724569-2" data-name="Trazado 724569" transform="translate(225 7)" fill="#88f2ff">
        <path d="M 171 54 L 12 54 C 9.061785697937012 54 6.299452304840088 52.85580825805664 4.221833229064941 50.77816772460938 C 2.144190549850464 48.70054626464844 1 45.93821334838867 1 43 L 1 12 C 1 9.061785697937012 2.144190549850464 6.299452304840088 4.221833229064941 4.221833229064941 C 6.299452304840088 2.144190549850464 9.061785697937012 1 12 1 L 171 1 C 173.9382171630859 1 176.7005462646484 2.144190549850464 178.7781677246094 4.221833229064941 C 180.8558044433594 6.299452304840088 182 9.061785697937012 182 12 L 182 43 C 182 45.93821334838867 180.8558044433594 48.70054626464844 178.7781677246094 50.77816772460938 C 176.7005462646484 52.85580825805664 173.9382171630859 54 171 54 Z" stroke="none"/>
        <path d="M 12 2 C 6.485977172851562 2 2 6.485973358154297 2 12 L 2 43 C 2 48.5140266418457 6.485977172851562 53 12 53 L 171 53 C 176.5140228271484 53 181 48.5140266418457 181 43 L 181 12 C 181 6.485973358154297 176.5140228271484 2 171 2 L 12 2 M 12 0 L 171 0 C 177.6273956298828 0 183 5.372573852539062 183 12 L 183 43 C 183 49.62742614746094 177.6273956298828 55 171 55 L 12 55 C 5.372573852539062 55 0 49.62742614746094 0 43 L 0 12 C 0 5.372573852539062 5.372573852539062 0 12 0 Z" stroke="none" fill="#fff"/>
      </g>
    </g>
    <g transform="matrix(1, 0, 0, 1, -5500.25, -1795.17)" filter="url(#Trazado_724570)">
      <g id="Trazado_724570-2" data-name="Trazado 724570" transform="translate(225 85.25)" fill="#81d4fa">
        <path d="M 171 54 L 12 54 C 9.061785697937012 54 6.299452304840088 52.85580825805664 4.221833229064941 50.77816772460938 C 2.144190549850464 48.70054626464844 1 45.93821334838867 1 43 L 1 12 C 1 9.061785697937012 2.144190549850464 6.299452304840088 4.221833229064941 4.221833229064941 C 6.299452304840088 2.144190549850464 9.061785697937012 1 12 1 L 171 1 C 173.9382171630859 1 176.7005462646484 2.144190549850464 178.7781677246094 4.221833229064941 C 180.8558044433594 6.299452304840088 182 9.061785697937012 182 12 L 182 43 C 182 45.93821334838867 180.8558044433594 48.70054626464844 178.7781677246094 50.77816772460938 C 176.7005462646484 52.85580825805664 173.9382171630859 54 171 54 Z" stroke="none"/>
        <path d="M 12 2 C 6.485977172851562 2 2 6.485973358154297 2 12 L 2 43 C 2 48.5140266418457 6.485977172851562 53 12 53 L 171 53 C 176.5140228271484 53 181 48.5140266418457 181 43 L 181 12 C 181 6.485973358154297 176.5140228271484 2 171 2 L 12 2 M 12 0 L 171 0 C 177.6273956298828 0 183 5.372573852539062 183 12 L 183 43 C 183 49.62742614746094 177.6273956298828 55 171 55 L 12 55 C 5.372573852539062 55 0 49.62742614746094 0 43 L 0 12 C 0 5.372573852539062 5.372573852539062 0 12 0 Z" stroke="none" fill="#fff"/>
      </g>
    </g>
    <path id="Trazado_724571" data-name="Trazado 724571" d="M18.129,10.243V14h-2.2V3.336h4.16a4.813,4.813,0,0,1,2.113.439,3.238,3.238,0,0,1,1.4,1.249A3.482,3.482,0,0,1,24.1,6.866a3.062,3.062,0,0,1-1.073,2.472,4.469,4.469,0,0,1-2.97.9Zm0-1.78h1.963a1.93,1.93,0,0,0,1.329-.41,1.492,1.492,0,0,0,.458-1.172,1.759,1.759,0,0,0-.461-1.267,1.724,1.724,0,0,0-1.274-.5H18.129Zm11.792-.4A5.751,5.751,0,0,0,29.159,8a1.55,1.55,0,0,0-1.575.813V14H25.468V6.075h2l.059.945a1.961,1.961,0,0,1,1.765-1.091,2.218,2.218,0,0,1,.659.1Zm.425,1.9a4.7,4.7,0,0,1,.454-2.1,3.324,3.324,0,0,1,1.307-1.428,3.814,3.814,0,0,1,1.981-.505,3.609,3.609,0,0,1,2.618.981,3.939,3.939,0,0,1,1.132,2.666l.015.542a4.142,4.142,0,0,1-1.018,2.926,3.946,3.946,0,0,1-5.468,0,4.215,4.215,0,0,1-1.022-2.988Zm2.117.15a2.962,2.962,0,0,0,.425,1.727,1.526,1.526,0,0,0,2.417.007,3.241,3.241,0,0,0,.432-1.889A2.933,2.933,0,0,0,35.3,8.244a1.4,1.4,0,0,0-1.216-.609,1.382,1.382,0,0,0-1.2.605A3.3,3.3,0,0,0,32.462,10.115Zm9.99,2.325a1.388,1.388,0,0,0,.952-.322,1.129,1.129,0,0,0,.381-.857h1.985a2.715,2.715,0,0,1-.439,1.476,2.9,2.9,0,0,1-1.183,1.04,3.7,3.7,0,0,1-1.659.37,3.44,3.44,0,0,1-2.681-1.08,4.275,4.275,0,0,1-.981-2.985V9.942A4.226,4.226,0,0,1,39.8,7.02a3.4,3.4,0,0,1,2.673-1.091,3.333,3.333,0,0,1,2.384.846,3,3,0,0,1,.912,2.252H43.786A1.455,1.455,0,0,0,43.4,8.022a1.416,1.416,0,0,0-2.084.153,3.125,3.125,0,0,0-.377,1.749v.22a3.164,3.164,0,0,0,.374,1.761A1.291,1.291,0,0,0,42.453,12.44Zm8.174,1.707a3.89,3.89,0,0,1-2.838-1.069,3.8,3.8,0,0,1-1.095-2.849v-.205a4.787,4.787,0,0,1,.461-2.135,3.386,3.386,0,0,1,1.307-1.45,3.669,3.669,0,0,1,1.93-.509,3.289,3.289,0,0,1,2.56,1.025,4.167,4.167,0,0,1,.934,2.908v.864H48.839a1.966,1.966,0,0,0,.619,1.245,1.871,1.871,0,0,0,1.307.469,2.285,2.285,0,0,0,1.912-.886l1.04,1.165a3.178,3.178,0,0,1-1.289,1.051A4.229,4.229,0,0,1,50.626,14.146Zm-.242-6.511a1.323,1.323,0,0,0-1.022.427,2.209,2.209,0,0,0-.5,1.221h2.944V9.114a1.576,1.576,0,0,0-.381-1.092A1.365,1.365,0,0,0,50.385,7.635Zm4.373,2.344a4.776,4.776,0,0,1,.831-2.952,2.7,2.7,0,0,1,2.274-1.1,2.427,2.427,0,0,1,1.912.864V2.75H61.9V14H59.987l-.1-.842a2.491,2.491,0,0,1-2.036.989,2.69,2.69,0,0,1-2.245-1.1A4.93,4.93,0,0,1,54.757,9.979Zm2.117.151a3.146,3.146,0,0,0,.388,1.714,1.263,1.263,0,0,0,1.128.6,1.416,1.416,0,0,0,1.384-.831V8.467a1.4,1.4,0,0,0-1.37-.831Q56.874,7.635,56.874,10.13Zm8.9,3.87H63.649V6.075h2.124ZM63.524,4.024a1.042,1.042,0,0,1,.319-.784,1.373,1.373,0,0,1,1.732,0,1.036,1.036,0,0,1,.322.784,1.039,1.039,0,0,1-.326.791,1.358,1.358,0,0,1-1.721,0A1.039,1.039,0,0,1,63.524,4.024ZM69.5,6.075l.066.886a2.785,2.785,0,0,1,2.278-1.033,2.114,2.114,0,0,1,2.1,1.208,2.721,2.721,0,0,1,2.38-1.208,2.364,2.364,0,0,1,1.919.751,3.451,3.451,0,0,1,.63,2.26V14H76.752V8.935a1.515,1.515,0,0,0-.264-.987,1.167,1.167,0,0,0-.93-.312,1.321,1.321,0,0,0-1.318.91L74.247,14H72.13V8.942a1.5,1.5,0,0,0-.271-1,1.178,1.178,0,0,0-.923-.308,1.371,1.371,0,0,0-1.3.749V14H67.516V6.075ZM82.736,14H80.612V6.075h2.124ZM80.487,4.024a1.042,1.042,0,0,1,.319-.784,1.373,1.373,0,0,1,1.732,0,1.036,1.036,0,0,1,.322.784,1.039,1.039,0,0,1-.326.791,1.358,1.358,0,0,1-1.721,0A1.039,1.039,0,0,1,80.487,4.024Zm7.639,10.122a3.89,3.89,0,0,1-2.838-1.069,3.8,3.8,0,0,1-1.095-2.849v-.205a4.787,4.787,0,0,1,.461-2.135,3.386,3.386,0,0,1,1.307-1.45,3.669,3.669,0,0,1,1.93-.509,3.289,3.289,0,0,1,2.56,1.025,4.167,4.167,0,0,1,.934,2.908v.864H86.339a1.966,1.966,0,0,0,.619,1.245,1.871,1.871,0,0,0,1.307.469,2.285,2.285,0,0,0,1.912-.886l1.04,1.165a3.178,3.178,0,0,1-1.289,1.051A4.229,4.229,0,0,1,88.126,14.146Zm-.242-6.511a1.323,1.323,0,0,0-1.022.427,2.209,2.209,0,0,0-.5,1.221h2.944V9.114a1.576,1.576,0,0,0-.381-1.092A1.365,1.365,0,0,0,87.885,7.635Zm6.65-1.56.066.916a2.767,2.767,0,0,1,2.278-1.062,2.3,2.3,0,0,1,1.875.74,3.451,3.451,0,0,1,.63,2.212V14H97.267V8.92a1.379,1.379,0,0,0-.293-.98,1.31,1.31,0,0,0-.974-.3,1.456,1.456,0,0,0-1.34.763V14H92.543V6.075Zm8.987-1.948V6.075h1.355V7.628h-1.355v3.955a.944.944,0,0,0,.168.63.846.846,0,0,0,.645.19,3.376,3.376,0,0,0,.623-.051v1.6a4.358,4.358,0,0,1-1.282.19,2.021,2.021,0,0,1-2.271-2.249V7.628h-1.157V6.075h1.157V4.127Zm1.985,5.837a4.7,4.7,0,0,1,.454-2.1,3.324,3.324,0,0,1,1.307-1.428,3.814,3.814,0,0,1,1.981-.505,3.609,3.609,0,0,1,2.618.981A3.939,3.939,0,0,1,113,9.576l.015.542A4.142,4.142,0,0,1,112,13.044a3.946,3.946,0,0,1-5.468,0,4.215,4.215,0,0,1-1.022-2.988Zm2.117.15a2.962,2.962,0,0,0,.425,1.727,1.526,1.526,0,0,0,2.417.007,3.241,3.241,0,0,0,.432-1.889,2.933,2.933,0,0,0-.432-1.716,1.4,1.4,0,0,0-1.216-.609,1.382,1.382,0,0,0-1.2.605A3.3,3.3,0,0,0,107.624,10.115Zm17.563,0a4.753,4.753,0,0,1-.831,2.933,2.665,2.665,0,0,1-2.245,1.1,2.469,2.469,0,0,1-1.941-.835v3.735h-2.117V6.075h1.963l.073.776a2.488,2.488,0,0,1,2.007-.923,2.683,2.683,0,0,1,2.278,1.084A4.882,4.882,0,0,1,125.187,10Zm-2.117-.161a3.136,3.136,0,0,0-.392-1.712,1.275,1.275,0,0,0-1.139-.6,1.385,1.385,0,0,0-1.37.764v3.255a1.409,1.409,0,0,0,1.384.786Q123.07,12.44,123.07,9.949ZM131.09,14a2.351,2.351,0,0,1-.212-.71,2.561,2.561,0,0,1-2,.857,2.814,2.814,0,0,1-1.93-.674,2.167,2.167,0,0,1-.765-1.7,2.24,2.24,0,0,1,.934-1.934,4.608,4.608,0,0,1,2.7-.681h.974V8.7a1.306,1.306,0,0,0-.282-.879,1.109,1.109,0,0,0-.89-.33,1.261,1.261,0,0,0-.839.256.871.871,0,0,0-.3.7h-2.117a2.126,2.126,0,0,1,.425-1.274,2.808,2.808,0,0,1,1.2-.919,4.378,4.378,0,0,1,1.743-.333,3.459,3.459,0,0,1,2.325.736,2.575,2.575,0,0,1,.861,2.069v3.435a3.789,3.789,0,0,0,.315,1.707V14Zm-1.75-1.472a1.823,1.823,0,0,0,.864-.209,1.371,1.371,0,0,0,.586-.56V10.4H130q-1.589,0-1.692,1.1l-.007.125a.847.847,0,0,0,.278.652A1.081,1.081,0,0,0,129.34,12.528Zm9.653-4.468A5.751,5.751,0,0,0,138.231,8a1.55,1.55,0,0,0-1.575.813V14H134.54V6.075h2l.059.945a1.961,1.961,0,0,1,1.765-1.091,2.218,2.218,0,0,1,.659.1ZM144.384,14a2.351,2.351,0,0,1-.212-.71,2.561,2.561,0,0,1-2,.857,2.814,2.814,0,0,1-1.93-.674,2.167,2.167,0,0,1-.765-1.7,2.24,2.24,0,0,1,.934-1.934,4.608,4.608,0,0,1,2.7-.681h.974V8.7a1.306,1.306,0,0,0-.282-.879,1.109,1.109,0,0,0-.89-.33,1.261,1.261,0,0,0-.839.256.871.871,0,0,0-.3.7h-2.117a2.126,2.126,0,0,1,.425-1.274,2.808,2.808,0,0,1,1.2-.919,4.378,4.378,0,0,1,1.743-.333,3.459,3.459,0,0,1,2.325.736,2.575,2.575,0,0,1,.861,2.069v3.435a3.789,3.789,0,0,0,.315,1.707V14Zm-1.75-1.472a1.823,1.823,0,0,0,.864-.209,1.371,1.371,0,0,0,.586-.56V10.4h-.791q-1.589,0-1.692,1.1l-.007.125a.847.847,0,0,0,.278.652A1.081,1.081,0,0,0,142.633,12.528ZM19.561,25.06A5.75,5.75,0,0,0,18.8,25a1.55,1.55,0,0,0-1.575.813V31H15.108V23.075h2l.059.945a1.961,1.961,0,0,1,1.765-1.091,2.218,2.218,0,0,1,.659.1Zm4.526,6.086a3.89,3.89,0,0,1-2.838-1.069,3.8,3.8,0,0,1-1.095-2.849v-.205a4.787,4.787,0,0,1,.461-2.135,3.386,3.386,0,0,1,1.307-1.45,3.669,3.669,0,0,1,1.93-.509,3.289,3.289,0,0,1,2.56,1.025,4.167,4.167,0,0,1,.934,2.908v.864H22.3a1.966,1.966,0,0,0,.619,1.245,1.871,1.871,0,0,0,1.307.469,2.285,2.285,0,0,0,1.912-.886l1.04,1.165a3.178,3.178,0,0,1-1.289,1.051A4.229,4.229,0,0,1,24.087,31.146Zm-.242-6.511a1.323,1.323,0,0,0-1.022.427,2.209,2.209,0,0,0-.5,1.221h2.944v-.169a1.576,1.576,0,0,0-.381-1.092A1.365,1.365,0,0,0,23.845,24.635Zm8,4.8a1.388,1.388,0,0,0,.952-.322,1.129,1.129,0,0,0,.381-.857h1.985a2.715,2.715,0,0,1-.439,1.476,2.9,2.9,0,0,1-1.183,1.04,3.7,3.7,0,0,1-1.659.37,3.44,3.44,0,0,1-2.681-1.08,4.275,4.275,0,0,1-.981-2.985v-.139a4.226,4.226,0,0,1,.974-2.922,3.4,3.4,0,0,1,2.673-1.091,3.333,3.333,0,0,1,2.384.846,3,3,0,0,1,.912,2.252H33.177a1.455,1.455,0,0,0-.381-1.005,1.416,1.416,0,0,0-2.084.153,3.125,3.125,0,0,0-.377,1.749v.22a3.164,3.164,0,0,0,.374,1.761A1.291,1.291,0,0,0,31.844,29.44Zm4.2-2.476a4.7,4.7,0,0,1,.454-2.1A3.324,3.324,0,0,1,37.8,23.434a3.814,3.814,0,0,1,1.981-.505,3.609,3.609,0,0,1,2.618.981,3.939,3.939,0,0,1,1.132,2.666l.015.542a4.142,4.142,0,0,1-1.018,2.926,3.946,3.946,0,0,1-5.468,0A4.215,4.215,0,0,1,36.04,27.06Zm2.117.15a2.962,2.962,0,0,0,.425,1.727A1.526,1.526,0,0,0,41,28.849a3.241,3.241,0,0,0,.432-1.889A2.933,2.933,0,0,0,41,25.244a1.4,1.4,0,0,0-1.216-.609,1.382,1.382,0,0,0-1.2.605A3.3,3.3,0,0,0,38.157,27.115ZM47.085,31H44.961V19.75h2.124Zm5.391.146a3.89,3.89,0,0,1-2.838-1.069,3.8,3.8,0,0,1-1.095-2.849v-.205A4.787,4.787,0,0,1,49,24.888a3.386,3.386,0,0,1,1.307-1.45,3.669,3.669,0,0,1,1.93-.509,3.289,3.289,0,0,1,2.56,1.025,4.167,4.167,0,0,1,.934,2.908v.864H50.689a1.966,1.966,0,0,0,.619,1.245,1.871,1.871,0,0,0,1.307.469,2.285,2.285,0,0,0,1.912-.886l1.04,1.165a3.178,3.178,0,0,1-1.289,1.051A4.229,4.229,0,0,1,52.476,31.146Zm-.242-6.511a1.323,1.323,0,0,0-1.022.427,2.209,2.209,0,0,0-.5,1.221h2.944v-.169a1.576,1.576,0,0,0-.381-1.092A1.365,1.365,0,0,0,52.234,24.635Zm8,4.8a1.388,1.388,0,0,0,.952-.322,1.129,1.129,0,0,0,.381-.857H63.55a2.715,2.715,0,0,1-.439,1.476,2.9,2.9,0,0,1-1.183,1.04,3.7,3.7,0,0,1-1.659.37,3.44,3.44,0,0,1-2.681-1.08,4.275,4.275,0,0,1-.981-2.985v-.139a4.226,4.226,0,0,1,.974-2.922,3.4,3.4,0,0,1,2.673-1.091,3.333,3.333,0,0,1,2.384.846,3,3,0,0,1,.912,2.252H61.565a1.455,1.455,0,0,0-.381-1.005,1.416,1.416,0,0,0-2.084.153,3.125,3.125,0,0,0-.377,1.749v.22A3.164,3.164,0,0,0,59.1,28.9,1.291,1.291,0,0,0,60.232,29.44Zm7.061-8.313v1.948h1.355v1.553H67.293v3.955a.944.944,0,0,0,.168.63.846.846,0,0,0,.645.19,3.376,3.376,0,0,0,.623-.051v1.6a4.358,4.358,0,0,1-1.282.19A2.021,2.021,0,0,1,65.176,28.9v-4.27H64.019V23.075h1.157V21.127ZM74.419,31a2.351,2.351,0,0,1-.212-.71,2.561,2.561,0,0,1-2,.857,2.814,2.814,0,0,1-1.93-.674,2.167,2.167,0,0,1-.765-1.7,2.24,2.24,0,0,1,.934-1.934,4.608,4.608,0,0,1,2.7-.681h.974V25.7a1.306,1.306,0,0,0-.282-.879,1.109,1.109,0,0,0-.89-.33,1.261,1.261,0,0,0-.839.256.871.871,0,0,0-.3.7H69.688a2.126,2.126,0,0,1,.425-1.274,2.808,2.808,0,0,1,1.2-.919,4.378,4.378,0,0,1,1.743-.333,3.459,3.459,0,0,1,2.325.736,2.575,2.575,0,0,1,.861,2.069v3.435a3.789,3.789,0,0,0,.315,1.707V31Zm-1.75-1.472a1.823,1.823,0,0,0,.864-.209,1.371,1.371,0,0,0,.586-.56V27.4h-.791q-1.589,0-1.692,1.1l-.007.125a.847.847,0,0,0,.278.652A1.081,1.081,0,0,0,72.669,29.528Zm9.653-4.468A5.75,5.75,0,0,0,81.56,25a1.55,1.55,0,0,0-1.575.813V31H77.869V23.075h2l.059.945a1.961,1.961,0,0,1,1.765-1.091,2.218,2.218,0,0,1,.659.1ZM89.309,31H87.185V19.75h2.124Zm1.414-4.036a4.7,4.7,0,0,1,.454-2.1,3.324,3.324,0,0,1,1.307-1.428,3.814,3.814,0,0,1,1.981-.505,3.609,3.609,0,0,1,2.618.981,3.939,3.939,0,0,1,1.132,2.666l.015.542a4.142,4.142,0,0,1-1.018,2.926,3.946,3.946,0,0,1-5.468,0,4.215,4.215,0,0,1-1.022-2.988Zm2.117.15a2.962,2.962,0,0,0,.425,1.727,1.526,1.526,0,0,0,2.417.007,3.241,3.241,0,0,0,.432-1.889,2.933,2.933,0,0,0-.432-1.716,1.4,1.4,0,0,0-1.216-.609,1.382,1.382,0,0,0-1.2.605A3.3,3.3,0,0,0,92.84,27.115Zm10.986,1.7a.682.682,0,0,0-.385-.612,4.368,4.368,0,0,0-1.234-.4q-2.827-.593-2.827-2.4a2.178,2.178,0,0,1,.875-1.761,3.531,3.531,0,0,1,2.289-.707,3.8,3.8,0,0,1,2.413.71,2.239,2.239,0,0,1,.9,1.846h-2.117a1.024,1.024,0,0,0-.293-.751,1.24,1.24,0,0,0-.916-.3,1.267,1.267,0,0,0-.828.242.763.763,0,0,0-.293.615.652.652,0,0,0,.333.568,3.428,3.428,0,0,0,1.124.374,9.183,9.183,0,0,1,1.333.355,2.19,2.19,0,0,1,1.677,2.131,2.067,2.067,0,0,1-.93,1.754,4.013,4.013,0,0,1-2.4.67,4.191,4.191,0,0,1-1.769-.355,2.968,2.968,0,0,1-1.212-.974,2.263,2.263,0,0,1-.439-1.337h2.007a1.105,1.105,0,0,0,.417.864,1.656,1.656,0,0,0,1.04.3,1.533,1.533,0,0,0,.919-.231A.718.718,0,0,0,103.826,28.81Zm6.826-1.831a4.776,4.776,0,0,1,.831-2.952,2.7,2.7,0,0,1,2.274-1.1,2.427,2.427,0,0,1,1.912.864V19.75h2.124V31h-1.912l-.1-.842a2.491,2.491,0,0,1-2.036.989,2.69,2.69,0,0,1-2.245-1.1A4.93,4.93,0,0,1,110.652,26.979Zm2.117.151a3.146,3.146,0,0,0,.388,1.714,1.263,1.263,0,0,0,1.128.6,1.416,1.416,0,0,0,1.384-.831V25.467a1.4,1.4,0,0,0-1.37-.831Q112.769,24.635,112.769,27.13ZM124.026,31a2.351,2.351,0,0,1-.212-.71,2.561,2.561,0,0,1-2,.857,2.814,2.814,0,0,1-1.93-.674,2.167,2.167,0,0,1-.765-1.7,2.24,2.24,0,0,1,.934-1.934,4.608,4.608,0,0,1,2.7-.681h.974V25.7a1.306,1.306,0,0,0-.282-.879,1.109,1.109,0,0,0-.89-.33,1.261,1.261,0,0,0-.839.256.871.871,0,0,0-.3.7h-2.117a2.126,2.126,0,0,1,.425-1.274,2.808,2.808,0,0,1,1.2-.919,4.378,4.378,0,0,1,1.743-.333,3.459,3.459,0,0,1,2.325.736,2.575,2.575,0,0,1,.861,2.069v3.435a3.789,3.789,0,0,0,.315,1.707V31Zm-1.75-1.472a1.823,1.823,0,0,0,.864-.209,1.371,1.371,0,0,0,.586-.56V27.4h-.791q-1.589,0-1.692,1.1l-.007.125a.847.847,0,0,0,.278.652A1.081,1.081,0,0,0,122.276,29.528Zm7.734-8.4v1.948h1.355v1.553H130.01v3.955a.944.944,0,0,0,.168.63.846.846,0,0,0,.645.19,3.376,3.376,0,0,0,.623-.051v1.6a4.358,4.358,0,0,1-1.282.19,2.021,2.021,0,0,1-2.271-2.249v-4.27h-1.157V23.075h1.157V21.127Zm1.985,5.837a4.7,4.7,0,0,1,.454-2.1,3.324,3.324,0,0,1,1.307-1.428,3.814,3.814,0,0,1,1.981-.505,3.609,3.609,0,0,1,2.618.981,3.939,3.939,0,0,1,1.132,2.666l.015.542a4.142,4.142,0,0,1-1.018,2.926,3.946,3.946,0,0,1-5.468,0,4.215,4.215,0,0,1-1.022-2.988Zm2.117.15a2.962,2.962,0,0,0,.425,1.727,1.526,1.526,0,0,0,2.417.007,3.241,3.241,0,0,0,.432-1.889,2.933,2.933,0,0,0-.432-1.716,1.4,1.4,0,0,0-1.216-.609,1.382,1.382,0,0,0-1.2.605A3.3,3.3,0,0,0,134.112,27.115Zm10.986,1.7a.682.682,0,0,0-.385-.612,4.368,4.368,0,0,0-1.234-.4q-2.827-.593-2.827-2.4a2.178,2.178,0,0,1,.875-1.761,3.531,3.531,0,0,1,2.289-.707,3.8,3.8,0,0,1,2.413.71,2.239,2.239,0,0,1,.9,1.846h-2.117a1.024,1.024,0,0,0-.293-.751,1.24,1.24,0,0,0-.916-.3,1.267,1.267,0,0,0-.828.242.763.763,0,0,0-.293.615.652.652,0,0,0,.333.568,3.428,3.428,0,0,0,1.124.374,9.183,9.183,0,0,1,1.333.355,2.19,2.19,0,0,1,1.677,2.131,2.067,2.067,0,0,1-.93,1.754,4.013,4.013,0,0,1-2.4.67,4.191,4.191,0,0,1-1.769-.355,2.968,2.968,0,0,1-1.212-.974,2.263,2.263,0,0,1-.439-1.337h2.007a1.105,1.105,0,0,0,.417.864,1.656,1.656,0,0,0,1.04.3,1.533,1.533,0,0,0,.919-.231A.718.718,0,0,0,145.1,28.81Z" transform="translate(-5271.407 -1698.17)" fill="#12263f"/>
    <g transform="matrix(1, 0, 0, 1, -5500.25, -1795.17)" filter="url(#Trazado_724565)">
      <g id="Trazado_724565-2" data-name="Trazado 724565" transform="translate(444 7)" fill="#81d4fa">
        <path d="M 171 54 L 12 54 C 9.061785697937012 54 6.299452304840088 52.85580825805664 4.221833229064941 50.77816772460938 C 2.144190549850464 48.70054626464844 1 45.93821334838867 1 43 L 1 12 C 1 9.061785697937012 2.144190549850464 6.299452304840088 4.221833229064941 4.221833229064941 C 6.299452304840088 2.144190549850464 9.061785697937012 1 12 1 L 171 1 C 173.9382171630859 1 176.7005462646484 2.144190549850464 178.7781677246094 4.221833229064941 C 180.8558044433594 6.299452304840088 182 9.061785697937012 182 12 L 182 43 C 182 45.93821334838867 180.8558044433594 48.70054626464844 178.7781677246094 50.77816772460938 C 176.7005462646484 52.85580825805664 173.9382171630859 54 171 54 Z" stroke="none"/>
        <path d="M 12 2 C 6.485977172851562 2 2 6.485973358154297 2 12 L 2 43 C 2 48.5140266418457 6.485977172851562 53 12 53 L 171 53 C 176.5140228271484 53 181 48.5140266418457 181 43 L 181 12 C 181 6.485973358154297 176.5140228271484 2 171 2 L 12 2 M 12 0 L 171 0 C 177.6273956298828 0 183 5.372573852539062 183 12 L 183 43 C 183 49.62742614746094 177.6273956298828 55 171 55 L 12 55 C 5.372573852539062 55 0 49.62742614746094 0 43 L 0 12 C 0 5.372573852539062 5.372573852539062 0 12 0 Z" stroke="none" fill="#fff"/>
      </g>
    </g>
    <g transform="matrix(1, 0, 0, 1, -5500.25, -1795.17)" filter="url(#Trazado_724566)">
      <g id="Trazado_724566-2" data-name="Trazado 724566" transform="translate(444 85.25)" fill="#88f2ff">
        <path d="M 171 54 L 12 54 C 9.061785697937012 54 6.299452304840088 52.85580825805664 4.221833229064941 50.77816772460938 C 2.144190549850464 48.70054626464844 1 45.93821334838867 1 43 L 1 12 C 1 9.061785697937012 2.144190549850464 6.299452304840088 4.221833229064941 4.221833229064941 C 6.299452304840088 2.144190549850464 9.061785697937012 1 12 1 L 171 1 C 173.9382171630859 1 176.7005462646484 2.144190549850464 178.7781677246094 4.221833229064941 C 180.8558044433594 6.299452304840088 182 9.061785697937012 182 12 L 182 43 C 182 45.93821334838867 180.8558044433594 48.70054626464844 178.7781677246094 50.77816772460938 C 176.7005462646484 52.85580825805664 173.9382171630859 54 171 54 Z" stroke="none"/>
        <path d="M 12 2 C 6.485977172851562 2 2 6.485973358154297 2 12 L 2 43 C 2 48.5140266418457 6.485977172851562 53 12 53 L 171 53 C 176.5140228271484 53 181 48.5140266418457 181 43 L 181 12 C 181 6.485973358154297 176.5140228271484 2 171 2 L 12 2 M 12 0 L 171 0 C 177.6273956298828 0 183 5.372573852539062 183 12 L 183 43 C 183 49.62742614746094 177.6273956298828 55 171 55 L 12 55 C 5.372573852539062 55 0 49.62742614746094 0 43 L 0 12 C 0 5.372573852539062 5.372573852539062 0 12 0 Z" stroke="none" fill="#fff"/>
      </g>
    </g>
    <path id="Trazado_724567" data-name="Trazado 724567" d="M48.59,14V3.336h3.281a4.983,4.983,0,0,1,2.516.634,4.418,4.418,0,0,1,1.732,1.8,5.557,5.557,0,0,1,.623,2.655v.491a5.573,5.573,0,0,1-.612,2.644,4.38,4.38,0,0,1-1.725,1.794A5.021,5.021,0,0,1,51.894,14Zm2.2-8.884v7.119H51.85a2.386,2.386,0,0,0,1.97-.842,3.806,3.806,0,0,0,.7-2.41V8.419a3.867,3.867,0,0,0-.674-2.465,2.378,2.378,0,0,0-1.97-.839ZM60.434,14H58.31V6.075h2.124ZM58.185,4.024a1.042,1.042,0,0,1,.319-.784,1.373,1.373,0,0,1,1.732,0,1.036,1.036,0,0,1,.322.784,1.039,1.039,0,0,1-.326.791,1.358,1.358,0,0,1-1.721,0A1.039,1.039,0,0,1,58.185,4.024Zm8.284,7.786a.682.682,0,0,0-.385-.612,4.368,4.368,0,0,0-1.234-.4q-2.827-.593-2.827-2.4A2.178,2.178,0,0,1,62.9,6.635a3.531,3.531,0,0,1,2.289-.707,3.8,3.8,0,0,1,2.413.71,2.239,2.239,0,0,1,.9,1.846H66.388a1.024,1.024,0,0,0-.293-.751,1.24,1.24,0,0,0-.916-.3,1.267,1.267,0,0,0-.828.242.763.763,0,0,0-.293.615.652.652,0,0,0,.333.568,3.428,3.428,0,0,0,1.124.374,9.183,9.183,0,0,1,1.333.355,2.19,2.19,0,0,1,1.677,2.131,2.067,2.067,0,0,1-.93,1.754,4.013,4.013,0,0,1-2.4.67,4.191,4.191,0,0,1-1.769-.355,2.968,2.968,0,0,1-1.212-.974,2.263,2.263,0,0,1-.439-1.337h2.007a1.105,1.105,0,0,0,.417.864,1.656,1.656,0,0,0,1.04.3,1.533,1.533,0,0,0,.919-.231A.718.718,0,0,0,66.469,11.81Zm7.068,2.336A3.89,3.89,0,0,1,70.7,13.077,3.8,3.8,0,0,1,69.6,10.228v-.205a4.787,4.787,0,0,1,.461-2.135,3.386,3.386,0,0,1,1.307-1.45,3.669,3.669,0,0,1,1.93-.509,3.289,3.289,0,0,1,2.56,1.025A4.167,4.167,0,0,1,76.8,9.862v.864H71.75a1.966,1.966,0,0,0,.619,1.245,1.871,1.871,0,0,0,1.307.469,2.285,2.285,0,0,0,1.912-.886l1.04,1.165a3.178,3.178,0,0,1-1.289,1.051A4.229,4.229,0,0,1,73.537,14.146Zm-.242-6.511a1.323,1.323,0,0,0-1.022.427,2.209,2.209,0,0,0-.5,1.221h2.944V9.114a1.576,1.576,0,0,0-.381-1.092A1.365,1.365,0,0,0,73.295,7.635Zm6.65-1.56.066.916a2.767,2.767,0,0,1,2.278-1.062,2.3,2.3,0,0,1,1.875.74,3.451,3.451,0,0,1,.63,2.212V14H82.677V8.92a1.379,1.379,0,0,0-.293-.98,1.31,1.31,0,0,0-.974-.3,1.456,1.456,0,0,0-1.34.763V14H77.953V6.075Zm4.2-3.23a2.05,2.05,0,0,1-.483,1.388,1.5,1.5,0,0,1-1.179.56,1.789,1.789,0,0,1-.494-.062,3.317,3.317,0,0,1-.6-.267,3.22,3.22,0,0,0-.549-.253,1.343,1.343,0,0,0-.366-.048.587.587,0,0,0-.436.183.712.712,0,0,0-.179.52l-1.23-.073a2.081,2.081,0,0,1,.48-1.384,1.48,1.48,0,0,1,1.176-.571,1.513,1.513,0,0,1,.414.055,4.557,4.557,0,0,1,.634.267,4.118,4.118,0,0,0,.608.256,1.387,1.387,0,0,0,.352.044.618.618,0,0,0,.443-.179.683.683,0,0,0,.187-.516Zm1.919,7.119a4.7,4.7,0,0,1,.454-2.1A3.324,3.324,0,0,1,87.83,6.434a3.814,3.814,0,0,1,1.981-.505,3.609,3.609,0,0,1,2.618.981,3.939,3.939,0,0,1,1.132,2.666l.015.542a4.142,4.142,0,0,1-1.018,2.926,3.946,3.946,0,0,1-5.468,0,4.215,4.215,0,0,1-1.022-2.988Zm2.117.15a2.962,2.962,0,0,0,.425,1.727,1.526,1.526,0,0,0,2.417.007,3.241,3.241,0,0,0,.432-1.889,2.933,2.933,0,0,0-.432-1.716,1.4,1.4,0,0,0-1.216-.609,1.382,1.382,0,0,0-1.2.605A3.3,3.3,0,0,0,88.185,10.115Zm10.1-.136a4.776,4.776,0,0,1,.831-2.952,2.7,2.7,0,0,1,2.274-1.1,2.427,2.427,0,0,1,1.912.864V2.75h2.124V14h-1.912l-.1-.842a2.491,2.491,0,0,1-2.036.989,2.69,2.69,0,0,1-2.245-1.1A4.93,4.93,0,0,1,98.285,9.979Zm2.117.151a3.146,3.146,0,0,0,.388,1.714,1.263,1.263,0,0,0,1.128.6,1.416,1.416,0,0,0,1.384-.831V8.467a1.4,1.4,0,0,0-1.37-.831Q100.4,7.635,100.4,10.13Zm10.313,4.017a3.89,3.89,0,0,1-2.838-1.069,3.8,3.8,0,0,1-1.095-2.849v-.205a4.787,4.787,0,0,1,.461-2.135,3.386,3.386,0,0,1,1.307-1.45,3.669,3.669,0,0,1,1.93-.509,3.289,3.289,0,0,1,2.56,1.025,4.167,4.167,0,0,1,.934,2.908v.864h-5.046a1.966,1.966,0,0,0,.619,1.245,1.871,1.871,0,0,0,1.307.469,2.285,2.285,0,0,0,1.912-.886l1.04,1.165a3.178,3.178,0,0,1-1.289,1.051A4.229,4.229,0,0,1,110.714,14.146Zm-.242-6.511a1.323,1.323,0,0,0-1.022.427,2.209,2.209,0,0,0-.5,1.221h2.944V9.114a1.576,1.576,0,0,0-.381-1.092A1.365,1.365,0,0,0,110.473,7.635ZM39.267,31H37.143V23.075h2.124Zm-2.249-9.976a1.042,1.042,0,0,1,.319-.784,1.373,1.373,0,0,1,1.732,0,1.118,1.118,0,0,1,0,1.575,1.358,1.358,0,0,1-1.721,0A1.039,1.039,0,0,1,37.018,21.024Zm5.94,2.051.066.916A2.767,2.767,0,0,1,45.3,22.929a2.3,2.3,0,0,1,1.875.74,3.451,3.451,0,0,1,.63,2.212V31H45.69V25.92a1.379,1.379,0,0,0-.293-.98,1.31,1.31,0,0,0-.974-.3,1.456,1.456,0,0,0-1.34.763V31H40.966V23.075ZM53.7,28.81a.682.682,0,0,0-.385-.612,4.368,4.368,0,0,0-1.234-.4q-2.827-.593-2.827-2.4a2.178,2.178,0,0,1,.875-1.761,3.531,3.531,0,0,1,2.289-.707,3.8,3.8,0,0,1,2.413.71,2.239,2.239,0,0,1,.9,1.846H53.622a1.024,1.024,0,0,0-.293-.751,1.24,1.24,0,0,0-.916-.3,1.267,1.267,0,0,0-.828.242.763.763,0,0,0-.293.615.652.652,0,0,0,.333.568,3.428,3.428,0,0,0,1.124.374,9.183,9.183,0,0,1,1.333.355,2.19,2.19,0,0,1,1.677,2.131,2.067,2.067,0,0,1-.93,1.754,4.013,4.013,0,0,1-2.4.67,4.191,4.191,0,0,1-1.769-.355,2.968,2.968,0,0,1-1.212-.974,2.263,2.263,0,0,1-.439-1.337h2.007a1.105,1.105,0,0,0,.417.864,1.656,1.656,0,0,0,1.04.3,1.533,1.533,0,0,0,.919-.231A.718.718,0,0,0,53.7,28.81Zm5.955-7.683v1.948h1.355v1.553H59.657v3.955a.944.944,0,0,0,.168.63.846.846,0,0,0,.645.19,3.376,3.376,0,0,0,.623-.051v1.6a4.358,4.358,0,0,1-1.282.19A2.021,2.021,0,0,1,57.541,28.9v-4.27H56.383V23.075h1.157V21.127Zm6.987,3.933A5.75,5.75,0,0,0,65.883,25a1.55,1.55,0,0,0-1.575.813V31H62.191V23.075h2l.059.945a1.961,1.961,0,0,1,1.765-1.091,2.218,2.218,0,0,1,.659.1Zm5.764,5.134a2.654,2.654,0,0,1-2.168.952,2.5,2.5,0,0,1-1.945-.732,3.127,3.127,0,0,1-.685-2.146V23.075h2.117V28.2q0,1.239,1.128,1.239a1.528,1.528,0,0,0,1.479-.748V23.075h2.124V31H72.467Zm5.632-7.119.066.886a2.785,2.785,0,0,1,2.278-1.033,2.114,2.114,0,0,1,2.1,1.208,2.721,2.721,0,0,1,2.38-1.208,2.364,2.364,0,0,1,1.919.751,3.451,3.451,0,0,1,.63,2.26V31H85.292V25.935a1.515,1.515,0,0,0-.264-.987,1.167,1.167,0,0,0-.93-.312,1.321,1.321,0,0,0-1.318.91L82.787,31H80.67V25.942a1.5,1.5,0,0,0-.271-1,1.178,1.178,0,0,0-.923-.308,1.371,1.371,0,0,0-1.3.749V31H76.056V23.075Zm14.648,8.071a3.89,3.89,0,0,1-2.838-1.069,3.8,3.8,0,0,1-1.095-2.849v-.205a4.787,4.787,0,0,1,.461-2.135,3.386,3.386,0,0,1,1.307-1.45,3.669,3.669,0,0,1,1.93-.509,3.289,3.289,0,0,1,2.56,1.025,4.167,4.167,0,0,1,.934,2.908v.864H90.9a1.966,1.966,0,0,0,.619,1.245,1.871,1.871,0,0,0,1.307.469,2.285,2.285,0,0,0,1.912-.886l1.04,1.165a3.178,3.178,0,0,1-1.289,1.051A4.229,4.229,0,0,1,92.689,31.146Zm-.242-6.511a1.323,1.323,0,0,0-1.022.427,2.209,2.209,0,0,0-.5,1.221h2.944v-.169a1.576,1.576,0,0,0-.381-1.092A1.365,1.365,0,0,0,92.448,24.635Zm6.65-1.56.066.916a2.767,2.767,0,0,1,2.278-1.062,2.3,2.3,0,0,1,1.875.74,3.451,3.451,0,0,1,.63,2.212V31H101.83V25.92a1.379,1.379,0,0,0-.293-.98,1.31,1.31,0,0,0-.974-.3,1.456,1.456,0,0,0-1.34.763V31H97.106V23.075Zm8.987-1.948v1.948h1.355v1.553h-1.355v3.955a.944.944,0,0,0,.168.63.846.846,0,0,0,.645.19,3.376,3.376,0,0,0,.623-.051v1.6a4.358,4.358,0,0,1-1.282.19,2.021,2.021,0,0,1-2.271-2.249v-4.27h-1.157V23.075h1.157V21.127Zm1.985,5.837a4.7,4.7,0,0,1,.454-2.1,3.324,3.324,0,0,1,1.307-1.428,3.814,3.814,0,0,1,1.981-.505,3.609,3.609,0,0,1,2.618.981,3.939,3.939,0,0,1,1.132,2.666l.015.542a4.142,4.142,0,0,1-1.018,2.926,3.946,3.946,0,0,1-5.468,0,4.215,4.215,0,0,1-1.022-2.988Zm2.117.15a2.962,2.962,0,0,0,.425,1.727,1.526,1.526,0,0,0,2.417.007,3.241,3.241,0,0,0,.432-1.889,2.933,2.933,0,0,0-.432-1.716,1.4,1.4,0,0,0-1.216-.609,1.382,1.382,0,0,0-1.2.605A3.3,3.3,0,0,0,112.187,27.115Zm10.986,1.7a.682.682,0,0,0-.385-.612,4.368,4.368,0,0,0-1.234-.4q-2.827-.593-2.827-2.4a2.178,2.178,0,0,1,.875-1.761,3.531,3.531,0,0,1,2.289-.707,3.8,3.8,0,0,1,2.413.71,2.239,2.239,0,0,1,.9,1.846h-2.117a1.024,1.024,0,0,0-.293-.751,1.24,1.24,0,0,0-.916-.3,1.267,1.267,0,0,0-.828.242.763.763,0,0,0-.293.615.652.652,0,0,0,.333.568,3.428,3.428,0,0,0,1.124.374,9.183,9.183,0,0,1,1.333.355,2.19,2.19,0,0,1,1.677,2.131,2.067,2.067,0,0,1-.93,1.754,4.013,4.013,0,0,1-2.4.67,4.191,4.191,0,0,1-1.769-.355,2.968,2.968,0,0,1-1.212-.974,2.263,2.263,0,0,1-.439-1.337h2.007a1.105,1.105,0,0,0,.417.864,1.656,1.656,0,0,0,1.04.3,1.533,1.533,0,0,0,.919-.231A.718.718,0,0,0,123.173,28.81Z" transform="translate(-5052.407 -1698.17)" fill="#12263f"/>
    <path id="Trazado_724572" data-name="Trazado 724572" d="M28.244,14h-2.2L21.769,6.983V14h-2.2V3.336h2.2l4.285,7.031V3.336h2.19Zm6.372,0a2.351,2.351,0,0,1-.212-.71,2.561,2.561,0,0,1-2,.857,2.814,2.814,0,0,1-1.93-.674,2.167,2.167,0,0,1-.765-1.7,2.24,2.24,0,0,1,.934-1.934,4.608,4.608,0,0,1,2.7-.681h.974V8.7a1.306,1.306,0,0,0-.282-.879,1.109,1.109,0,0,0-.89-.33,1.261,1.261,0,0,0-.839.256.871.871,0,0,0-.3.7H29.884a2.126,2.126,0,0,1,.425-1.274,2.808,2.808,0,0,1,1.2-.919,4.378,4.378,0,0,1,1.743-.333,3.459,3.459,0,0,1,2.325.736,2.575,2.575,0,0,1,.861,2.069v3.435a3.789,3.789,0,0,0,.315,1.707V14Zm-1.75-1.472a1.823,1.823,0,0,0,.864-.209,1.371,1.371,0,0,0,.586-.56V10.4h-.791q-1.589,0-1.692,1.1l-.007.125a.847.847,0,0,0,.278.652A1.081,1.081,0,0,0,32.865,12.528Zm7.734-8.4V6.075h1.355V7.628H40.6v3.955a.944.944,0,0,0,.168.63.846.846,0,0,0,.645.19,3.376,3.376,0,0,0,.623-.051v1.6a4.358,4.358,0,0,1-1.282.19A2.021,2.021,0,0,1,38.483,11.9V7.628H37.326V6.075h1.157V4.127Zm7.28,9.067a2.654,2.654,0,0,1-2.168.952,2.5,2.5,0,0,1-1.945-.732,3.127,3.127,0,0,1-.685-2.146V6.075H45.2V11.2q0,1.239,1.128,1.239a1.528,1.528,0,0,0,1.479-.748V6.075h2.124V14H47.938Zm8.1-5.134A5.751,5.751,0,0,0,55.219,8a1.55,1.55,0,0,0-1.575.813V14H51.527V6.075h2l.059.945a1.961,1.961,0,0,1,1.765-1.091,2.218,2.218,0,0,1,.659.1ZM61.371,14a2.351,2.351,0,0,1-.212-.71,2.561,2.561,0,0,1-2,.857,2.814,2.814,0,0,1-1.93-.674,2.167,2.167,0,0,1-.765-1.7A2.24,2.24,0,0,1,57.4,9.84a4.608,4.608,0,0,1,2.7-.681h.974V8.7a1.306,1.306,0,0,0-.282-.879,1.109,1.109,0,0,0-.89-.33,1.261,1.261,0,0,0-.839.256.871.871,0,0,0-.3.7H56.64a2.126,2.126,0,0,1,.425-1.274,2.808,2.808,0,0,1,1.2-.919,4.378,4.378,0,0,1,1.743-.333,3.459,3.459,0,0,1,2.325.736,2.575,2.575,0,0,1,.861,2.069v3.435a3.789,3.789,0,0,0,.315,1.707V14Zm-1.75-1.472a1.823,1.823,0,0,0,.864-.209,1.371,1.371,0,0,0,.586-.56V10.4H60.28q-1.589,0-1.692,1.1l-.007.125a.847.847,0,0,0,.278.652A1.081,1.081,0,0,0,59.621,12.528ZM67.055,14H64.931V2.75h2.124Zm5.391.146a3.89,3.89,0,0,1-2.838-1.069,3.8,3.8,0,0,1-1.095-2.849v-.205a4.787,4.787,0,0,1,.461-2.135,3.386,3.386,0,0,1,1.307-1.45,3.669,3.669,0,0,1,1.93-.509,3.289,3.289,0,0,1,2.56,1.025A4.167,4.167,0,0,1,75.7,9.862v.864H70.658a1.966,1.966,0,0,0,.619,1.245,1.871,1.871,0,0,0,1.307.469,2.285,2.285,0,0,0,1.912-.886l1.04,1.165a3.178,3.178,0,0,1-1.289,1.051A4.229,4.229,0,0,1,72.445,14.146ZM72.2,7.635a1.323,1.323,0,0,0-1.022.427,2.209,2.209,0,0,0-.5,1.221h2.944V9.114a1.576,1.576,0,0,0-.381-1.092A1.365,1.365,0,0,0,72.2,7.635Zm7.134,4.658h3.875V14H76.635V12.711l3.728-4.929H76.745V6.075h6.35V7.322ZM89.13,14a2.351,2.351,0,0,1-.212-.71,2.561,2.561,0,0,1-2,.857,2.814,2.814,0,0,1-1.93-.674,2.167,2.167,0,0,1-.765-1.7,2.24,2.24,0,0,1,.934-1.934,4.608,4.608,0,0,1,2.7-.681h.974V8.7a1.306,1.306,0,0,0-.282-.879,1.109,1.109,0,0,0-.89-.33,1.261,1.261,0,0,0-.839.256.871.871,0,0,0-.3.7H84.4a2.126,2.126,0,0,1,.425-1.274,2.808,2.808,0,0,1,1.2-.919,4.378,4.378,0,0,1,1.743-.333,3.459,3.459,0,0,1,2.325.736,2.575,2.575,0,0,1,.861,2.069v3.435a3.789,3.789,0,0,0,.315,1.707V14Zm-1.75-1.472a1.823,1.823,0,0,0,.864-.209,1.371,1.371,0,0,0,.586-.56V10.4h-.791q-1.589,0-1.692,1.1l-.007.125a.847.847,0,0,0,.278.652A1.081,1.081,0,0,0,87.379,12.528Zm8.606-2.563a4.7,4.7,0,0,1,.454-2.1,3.324,3.324,0,0,1,1.307-1.428,3.814,3.814,0,0,1,1.981-.505,3.609,3.609,0,0,1,2.618.981,3.939,3.939,0,0,1,1.132,2.666l.015.542a4.142,4.142,0,0,1-1.018,2.926,3.946,3.946,0,0,1-5.468,0,4.215,4.215,0,0,1-1.022-2.988Zm2.117.15a2.962,2.962,0,0,0,.425,1.727,1.526,1.526,0,0,0,2.417.007,3.241,3.241,0,0,0,.432-1.889,2.933,2.933,0,0,0-.432-1.716,1.4,1.4,0,0,0-1.216-.609,1.382,1.382,0,0,0-1.2.605A3.3,3.3,0,0,0,98.1,10.115Zm13.726,2.325a1.388,1.388,0,0,0,.952-.322,1.129,1.129,0,0,0,.381-.857h1.985a2.715,2.715,0,0,1-.439,1.476,2.9,2.9,0,0,1-1.183,1.04,3.7,3.7,0,0,1-1.659.37,3.44,3.44,0,0,1-2.681-1.08,4.275,4.275,0,0,1-.981-2.985V9.942a4.226,4.226,0,0,1,.974-2.922,3.4,3.4,0,0,1,2.673-1.091,3.333,3.333,0,0,1,2.384.846,3,3,0,0,1,.912,2.252h-1.985a1.455,1.455,0,0,0-.381-1.005,1.416,1.416,0,0,0-2.084.153,3.125,3.125,0,0,0-.377,1.749v.22a3.164,3.164,0,0,0,.374,1.761A1.291,1.291,0,0,0,111.828,12.44Zm6.76,1.56h-2.124V2.75h2.124Zm6.335,0a2.351,2.351,0,0,1-.212-.71,2.561,2.561,0,0,1-2,.857,2.814,2.814,0,0,1-1.93-.674,2.167,2.167,0,0,1-.765-1.7,2.24,2.24,0,0,1,.934-1.934,4.608,4.608,0,0,1,2.7-.681h.974V8.7a1.306,1.306,0,0,0-.282-.879,1.109,1.109,0,0,0-.89-.33,1.261,1.261,0,0,0-.839.256.871.871,0,0,0-.3.7h-2.117a2.126,2.126,0,0,1,.425-1.274,2.808,2.808,0,0,1,1.2-.919,4.378,4.378,0,0,1,1.743-.333,3.459,3.459,0,0,1,2.325.736,2.575,2.575,0,0,1,.861,2.069v3.435a3.789,3.789,0,0,0,.315,1.707V14Zm-1.75-1.472a1.823,1.823,0,0,0,.864-.209,1.371,1.371,0,0,0,.586-.56V10.4h-.791q-1.589,0-1.692,1.1l-.007.125a.847.847,0,0,0,.278.652A1.081,1.081,0,0,0,123.173,12.528Zm9.492-.718a.682.682,0,0,0-.385-.612,4.368,4.368,0,0,0-1.234-.4q-2.827-.593-2.827-2.4a2.178,2.178,0,0,1,.875-1.761,3.531,3.531,0,0,1,2.289-.707,3.8,3.8,0,0,1,2.413.71,2.239,2.239,0,0,1,.9,1.846h-2.117a1.024,1.024,0,0,0-.293-.751,1.24,1.24,0,0,0-.916-.3,1.267,1.267,0,0,0-.828.242.763.763,0,0,0-.293.615.652.652,0,0,0,.333.568,3.428,3.428,0,0,0,1.124.374,9.183,9.183,0,0,1,1.333.355,2.19,2.19,0,0,1,1.677,2.131,2.067,2.067,0,0,1-.93,1.754,4.013,4.013,0,0,1-2.4.67,4.191,4.191,0,0,1-1.769-.355,2.968,2.968,0,0,1-1.212-.974,2.263,2.263,0,0,1-.439-1.337h2.007a1.105,1.105,0,0,0,.417.864,1.656,1.656,0,0,0,1.04.3,1.533,1.533,0,0,0,.919-.231A.718.718,0,0,0,132.665,11.81Zm7.068,2.336a3.89,3.89,0,0,1-2.838-1.069,3.8,3.8,0,0,1-1.095-2.849v-.205a4.787,4.787,0,0,1,.461-2.135,3.386,3.386,0,0,1,1.307-1.45,3.669,3.669,0,0,1,1.93-.509,3.289,3.289,0,0,1,2.56,1.025,4.167,4.167,0,0,1,.934,2.908v.864h-5.046a1.966,1.966,0,0,0,.619,1.245,1.871,1.871,0,0,0,1.307.469,2.285,2.285,0,0,0,1.912-.886l1.04,1.165a3.178,3.178,0,0,1-1.289,1.051A4.229,4.229,0,0,1,139.733,14.146Zm-.242-6.511a1.323,1.323,0,0,0-1.022.427,2.209,2.209,0,0,0-.5,1.221h2.944V9.114a1.576,1.576,0,0,0-.381-1.092A1.365,1.365,0,0,0,139.491,7.635ZM40.614,26.979a4.776,4.776,0,0,1,.831-2.952,2.7,2.7,0,0,1,2.274-1.1,2.427,2.427,0,0,1,1.912.864V19.75h2.124V31H45.844l-.1-.842a2.491,2.491,0,0,1-2.036.989,2.69,2.69,0,0,1-2.245-1.1A4.93,4.93,0,0,1,40.614,26.979Zm2.117.151a3.146,3.146,0,0,0,.388,1.714,1.263,1.263,0,0,0,1.128.6,1.416,1.416,0,0,0,1.384-.831V25.467a1.4,1.4,0,0,0-1.37-.831Q42.731,24.635,42.731,27.13Zm10.313,4.017a3.89,3.89,0,0,1-2.838-1.069,3.8,3.8,0,0,1-1.095-2.849v-.205a4.787,4.787,0,0,1,.461-2.135,3.386,3.386,0,0,1,1.307-1.45,3.669,3.669,0,0,1,1.93-.509,3.289,3.289,0,0,1,2.56,1.025,4.167,4.167,0,0,1,.934,2.908v.864H51.256a1.966,1.966,0,0,0,.619,1.245,1.871,1.871,0,0,0,1.307.469,2.285,2.285,0,0,0,1.912-.886l1.04,1.165a3.178,3.178,0,0,1-1.289,1.051A4.229,4.229,0,0,1,53.043,31.146ZM52.8,24.635a1.323,1.323,0,0,0-1.022.427,2.209,2.209,0,0,0-.5,1.221h2.944v-.169a1.576,1.576,0,0,0-.381-1.092A1.365,1.365,0,0,0,52.8,24.635ZM63.473,31H61.349V19.75h2.124Zm1.414-4.036a4.7,4.7,0,0,1,.454-2.1,3.324,3.324,0,0,1,1.307-1.428,3.814,3.814,0,0,1,1.981-.505,3.609,3.609,0,0,1,2.618.981,3.939,3.939,0,0,1,1.132,2.666l.015.542a4.142,4.142,0,0,1-1.018,2.926,3.946,3.946,0,0,1-5.468,0,4.215,4.215,0,0,1-1.022-2.988Zm2.117.15a2.962,2.962,0,0,0,.425,1.727,1.526,1.526,0,0,0,2.417.007,3.241,3.241,0,0,0,.432-1.889,2.933,2.933,0,0,0-.432-1.716,1.4,1.4,0,0,0-1.216-.609,1.382,1.382,0,0,0-1.2.605A3.3,3.3,0,0,0,67,27.115Zm10.986,1.7a.682.682,0,0,0-.385-.612,4.368,4.368,0,0,0-1.234-.4q-2.827-.593-2.827-2.4a2.178,2.178,0,0,1,.875-1.761,3.531,3.531,0,0,1,2.289-.707,3.8,3.8,0,0,1,2.413.71,2.239,2.239,0,0,1,.9,1.846H77.909a1.024,1.024,0,0,0-.293-.751,1.24,1.24,0,0,0-.916-.3,1.267,1.267,0,0,0-.828.242.763.763,0,0,0-.293.615.652.652,0,0,0,.333.568,3.428,3.428,0,0,0,1.124.374,9.183,9.183,0,0,1,1.333.355,2.19,2.19,0,0,1,1.677,2.131,2.067,2.067,0,0,1-.93,1.754,4.013,4.013,0,0,1-2.4.67,4.191,4.191,0,0,1-1.769-.355,2.968,2.968,0,0,1-1.212-.974,2.263,2.263,0,0,1-.439-1.337H75.3a1.105,1.105,0,0,0,.417.864,1.656,1.656,0,0,0,1.04.3,1.533,1.533,0,0,0,.919-.231A.718.718,0,0,0,77.99,28.81Zm6.826-1.831a4.776,4.776,0,0,1,.831-2.952,2.7,2.7,0,0,1,2.274-1.1,2.427,2.427,0,0,1,1.912.864V19.75h2.124V31H90.045l-.1-.842a2.491,2.491,0,0,1-2.036.989,2.69,2.69,0,0,1-2.245-1.1A4.93,4.93,0,0,1,84.816,26.979Zm2.117.151a3.146,3.146,0,0,0,.388,1.714,1.263,1.263,0,0,0,1.128.6,1.416,1.416,0,0,0,1.384-.831V25.467a1.4,1.4,0,0,0-1.37-.831Q86.933,24.635,86.933,27.13ZM98.19,31a2.351,2.351,0,0,1-.212-.71,2.561,2.561,0,0,1-2,.857,2.814,2.814,0,0,1-1.93-.674,2.167,2.167,0,0,1-.765-1.7,2.24,2.24,0,0,1,.934-1.934,4.608,4.608,0,0,1,2.7-.681h.974V25.7a1.306,1.306,0,0,0-.282-.879,1.109,1.109,0,0,0-.89-.33,1.261,1.261,0,0,0-.839.256.871.871,0,0,0-.3.7H93.458a2.126,2.126,0,0,1,.425-1.274,2.808,2.808,0,0,1,1.2-.919,4.378,4.378,0,0,1,1.743-.333,3.459,3.459,0,0,1,2.325.736,2.575,2.575,0,0,1,.861,2.069v3.435a3.789,3.789,0,0,0,.315,1.707V31Zm-1.75-1.472a1.823,1.823,0,0,0,.864-.209,1.371,1.371,0,0,0,.586-.56V27.4H97.1q-1.589,0-1.692,1.1l-.007.125a.847.847,0,0,0,.278.652A1.081,1.081,0,0,0,96.439,29.528Zm7.734-8.4v1.948h1.355v1.553h-1.355v3.955a.944.944,0,0,0,.168.63.846.846,0,0,0,.645.19,3.376,3.376,0,0,0,.623-.051v1.6a4.358,4.358,0,0,1-1.282.19,2.021,2.021,0,0,1-2.271-2.249v-4.27H100.9V23.075h1.157V21.127Zm1.985,5.837a4.7,4.7,0,0,1,.454-2.1,3.324,3.324,0,0,1,1.307-1.428,3.814,3.814,0,0,1,1.981-.505,3.609,3.609,0,0,1,2.618.981,3.939,3.939,0,0,1,1.132,2.666l.015.542a4.142,4.142,0,0,1-1.018,2.926,3.946,3.946,0,0,1-5.468,0,4.215,4.215,0,0,1-1.022-2.988Zm2.117.15a2.962,2.962,0,0,0,.425,1.727,1.526,1.526,0,0,0,2.417.007,3.241,3.241,0,0,0,.432-1.889,2.933,2.933,0,0,0-.432-1.716,1.4,1.4,0,0,0-1.216-.609,1.382,1.382,0,0,0-1.2.605A3.3,3.3,0,0,0,108.275,27.115Zm10.986,1.7a.682.682,0,0,0-.385-.612,4.368,4.368,0,0,0-1.234-.4q-2.827-.593-2.827-2.4a2.178,2.178,0,0,1,.875-1.761,3.531,3.531,0,0,1,2.289-.707,3.8,3.8,0,0,1,2.413.71,2.239,2.239,0,0,1,.9,1.846h-2.117a1.024,1.024,0,0,0-.293-.751,1.24,1.24,0,0,0-.916-.3,1.267,1.267,0,0,0-.828.242.763.763,0,0,0-.293.615.652.652,0,0,0,.333.568,3.428,3.428,0,0,0,1.124.374,9.183,9.183,0,0,1,1.333.355,2.19,2.19,0,0,1,1.677,2.131,2.067,2.067,0,0,1-.93,1.754,4.013,4.013,0,0,1-2.4.67,4.191,4.191,0,0,1-1.769-.355,2.968,2.968,0,0,1-1.212-.974,2.263,2.263,0,0,1-.439-1.337h2.007a1.105,1.105,0,0,0,.417.864,1.656,1.656,0,0,0,1.04.3,1.533,1.533,0,0,0,.919-.231A.718.718,0,0,0,119.262,28.81Z" transform="translate(-5264.75 -1776)" fill="#12263f"/>
    <path id="Trazado_724568" data-name="Trazado 724568" d="M41.544,10.243V14h-2.2V3.336h4.16a4.813,4.813,0,0,1,2.113.439,3.238,3.238,0,0,1,1.4,1.249,3.482,3.482,0,0,1,.491,1.842,3.062,3.062,0,0,1-1.073,2.472,4.469,4.469,0,0,1-2.97.9Zm0-1.78h1.963a1.93,1.93,0,0,0,1.329-.41,1.492,1.492,0,0,0,.458-1.172,1.759,1.759,0,0,0-.461-1.267,1.724,1.724,0,0,0-1.274-.5H41.544Zm11.792-.4A5.751,5.751,0,0,0,52.575,8,1.55,1.55,0,0,0,51,8.814V14H48.883V6.075h2l.059.945a1.961,1.961,0,0,1,1.765-1.091,2.218,2.218,0,0,1,.659.1Zm4.526,6.086a3.89,3.89,0,0,1-2.838-1.069,3.8,3.8,0,0,1-1.095-2.849v-.205a4.787,4.787,0,0,1,.461-2.135A3.386,3.386,0,0,1,55.7,6.438a3.669,3.669,0,0,1,1.93-.509,3.289,3.289,0,0,1,2.56,1.025,4.167,4.167,0,0,1,.934,2.908v.864H56.076a1.966,1.966,0,0,0,.619,1.245A1.871,1.871,0,0,0,58,12.44a2.285,2.285,0,0,0,1.912-.886l1.04,1.165a3.178,3.178,0,0,1-1.289,1.051A4.229,4.229,0,0,1,57.863,14.146Zm-.242-6.511a1.323,1.323,0,0,0-1.022.427,2.209,2.209,0,0,0-.5,1.221h2.944V9.114a1.576,1.576,0,0,0-.381-1.092A1.365,1.365,0,0,0,57.621,7.635Zm8.994,4.175a.682.682,0,0,0-.385-.612A4.368,4.368,0,0,0,65,10.8q-2.827-.593-2.827-2.4a2.178,2.178,0,0,1,.875-1.761,3.531,3.531,0,0,1,2.289-.707,3.8,3.8,0,0,1,2.413.71,2.239,2.239,0,0,1,.9,1.846H66.535a1.024,1.024,0,0,0-.293-.751,1.24,1.24,0,0,0-.916-.3,1.267,1.267,0,0,0-.828.242.763.763,0,0,0-.293.615.652.652,0,0,0,.333.568,3.428,3.428,0,0,0,1.124.374A9.183,9.183,0,0,1,67,9.591a2.19,2.19,0,0,1,1.677,2.131,2.067,2.067,0,0,1-.93,1.754,4.013,4.013,0,0,1-2.4.67,4.191,4.191,0,0,1-1.769-.355,2.968,2.968,0,0,1-1.212-.974,2.263,2.263,0,0,1-.439-1.337h2.007a1.105,1.105,0,0,0,.417.864,1.656,1.656,0,0,0,1.04.3,1.533,1.533,0,0,0,.919-.231A.718.718,0,0,0,66.615,11.81Zm8.167,1.384a2.654,2.654,0,0,1-2.168.952,2.5,2.5,0,0,1-1.945-.732,3.127,3.127,0,0,1-.685-2.146V6.075H72.1V11.2q0,1.239,1.128,1.239a1.528,1.528,0,0,0,1.479-.748V6.075h2.124V14H74.84Zm10.781-3.083a4.753,4.753,0,0,1-.831,2.933,2.665,2.665,0,0,1-2.245,1.1,2.469,2.469,0,0,1-1.941-.835v3.735H78.429V6.075h1.963l.073.776a2.488,2.488,0,0,1,2.007-.923A2.683,2.683,0,0,1,84.75,7.013,4.882,4.882,0,0,1,85.563,10Zm-2.117-.161a3.136,3.136,0,0,0-.392-1.712,1.275,1.275,0,0,0-1.139-.6,1.385,1.385,0,0,0-1.37.764v3.255a1.409,1.409,0,0,0,1.384.786Q83.446,12.44,83.446,9.949Zm8.174,3.245a2.654,2.654,0,0,1-2.168.952,2.5,2.5,0,0,1-1.945-.732,3.127,3.127,0,0,1-.685-2.146V6.075h2.117V11.2q0,1.239,1.128,1.239a1.528,1.528,0,0,0,1.479-.748V6.075h2.124V14H91.679Zm7.295.952a3.89,3.89,0,0,1-2.838-1.069,3.8,3.8,0,0,1-1.095-2.849v-.205a4.787,4.787,0,0,1,.461-2.135,3.386,3.386,0,0,1,1.307-1.45,3.669,3.669,0,0,1,1.93-.509,3.289,3.289,0,0,1,2.56,1.025,4.167,4.167,0,0,1,.934,2.908v.864H97.128a1.966,1.966,0,0,0,.619,1.245,1.871,1.871,0,0,0,1.307.469,2.285,2.285,0,0,0,1.912-.886l1.04,1.165a3.178,3.178,0,0,1-1.289,1.051A4.229,4.229,0,0,1,98.915,14.146Zm-.242-6.511a1.323,1.323,0,0,0-1.022.427,2.209,2.209,0,0,0-.5,1.221h2.944V9.114a1.576,1.576,0,0,0-.381-1.092A1.365,1.365,0,0,0,98.673,7.635Zm8.994,4.175a.682.682,0,0,0-.385-.612,4.368,4.368,0,0,0-1.234-.4q-2.827-.593-2.827-2.4a2.178,2.178,0,0,1,.875-1.761,3.531,3.531,0,0,1,2.289-.707,3.8,3.8,0,0,1,2.413.71,2.239,2.239,0,0,1,.9,1.846h-2.117a1.024,1.024,0,0,0-.293-.751,1.24,1.24,0,0,0-.916-.3,1.267,1.267,0,0,0-.828.242.763.763,0,0,0-.293.615.652.652,0,0,0,.333.568,3.428,3.428,0,0,0,1.124.374,9.183,9.183,0,0,1,1.333.355,2.19,2.19,0,0,1,1.677,2.131,2.067,2.067,0,0,1-.93,1.754,4.013,4.013,0,0,1-2.4.67,4.191,4.191,0,0,1-1.769-.355,2.968,2.968,0,0,1-1.212-.974,2.263,2.263,0,0,1-.439-1.337h2.007a1.105,1.105,0,0,0,.417.864,1.656,1.656,0,0,0,1.04.3,1.533,1.533,0,0,0,.919-.231A.718.718,0,0,0,107.667,11.81Zm5.955-7.683V6.075h1.355V7.628h-1.355v3.955a.944.944,0,0,0,.168.63.846.846,0,0,0,.645.19,3.376,3.376,0,0,0,.623-.051v1.6a4.358,4.358,0,0,1-1.282.19,2.021,2.021,0,0,1-2.271-2.249V7.628h-1.157V6.075h1.157V4.127Zm1.985,5.837a4.7,4.7,0,0,1,.454-2.1,3.324,3.324,0,0,1,1.307-1.428,3.814,3.814,0,0,1,1.981-.505,3.609,3.609,0,0,1,2.618.981A3.939,3.939,0,0,1,123.1,9.576l.015.542a4.142,4.142,0,0,1-1.018,2.926,3.946,3.946,0,0,1-5.468,0,4.215,4.215,0,0,1-1.022-2.988Zm2.117.15a2.962,2.962,0,0,0,.425,1.727,1.526,1.526,0,0,0,2.417.007A3.241,3.241,0,0,0,121,9.961a2.933,2.933,0,0,0-.432-1.716,1.4,1.4,0,0,0-1.216-.609,1.382,1.382,0,0,0-1.2.605A3.3,3.3,0,0,0,117.724,10.115Z" transform="translate(-5045.25 -1771.75)" fill="#12263f"/>
  </g>
</svg>
