<svg xmlns="http://www.w3.org/2000/svg" width="90" height="90" viewBox="0 0 90 90">
  <g id="Grupo_1009025" data-name="Grupo 1009025" transform="translate(-910 -966)">
    <rect id="Rectángulo_350966" data-name="Rectángulo 350966" width="90" height="90" transform="translate(910 966)" fill="none"/>
    <g id="_038-analytics-5" data-name="038-analytics-5" transform="translate(918.31 974)">
      <rect id="Rectángulo_351615" data-name="Rectángulo 351615" width="71.087" height="44.487" transform="translate(1.147 1.147)" fill="#ff9d00"/>
      <path id="Trazado_723647" data-name="Trazado 723647" d="M72.234,46.78H1.147A1.083,1.083,0,0,1,0,45.633V1.147A1.083,1.083,0,0,1,1.147,0H72.234A1.083,1.083,0,0,1,73.38,1.147V45.634A1.149,1.149,0,0,1,72.234,46.78ZM2.293,44.487H71.087V2.293H2.293Z" transform="translate(0 0)" fill="#183651"/>
      <rect id="Rectángulo_351616" data-name="Rectángulo 351616" width="61.915" height="35.314" transform="translate(5.733 5.733)" fill="#fff"/>
      <path id="Trazado_723648" data-name="Trazado 723648" d="M344.578,413.4l-8.37-4.586-8.37,4.586a4.968,4.968,0,0,0-2.522,4.242v3.9h21.67v-3.9A4.436,4.436,0,0,0,344.578,413.4Z" transform="translate(-277.963 -349.305)" fill="#00bcd4"/>
      <path id="Trazado_723649" data-name="Trazado 723649" d="M341.045,415.618h-21.67a1.083,1.083,0,0,1-1.147-1.147v-3.9a5.937,5.937,0,0,1,3.1-5.274l8.37-4.586a1.041,1.041,0,0,1,1.147,0l8.37,4.586a5.937,5.937,0,0,1,3.1,5.274v3.9A1.25,1.25,0,0,1,341.045,415.618Zm-20.523-2.293H339.9v-2.752a3.426,3.426,0,0,0-1.949-3.21l-7.8-4.242-7.8,4.242a3.919,3.919,0,0,0-1.949,3.21v2.752Z" transform="translate(-271.907 -342.238)" fill="#183651"/>
      <path id="Trazado_723650" data-name="Trazado 723650" d="M374.691,343.424c0,3.669-2.408,7.8-5.389,7.8s-5.389-4.128-5.389-7.8,2.408-5.5,5.389-5.5S374.691,339.755,374.691,343.424Z" transform="translate(-310.942 -288.732)" fill="#fff"/>
      <path id="Trazado_723651" data-name="Trazado 723651" d="M361.9,345.636c-3.784,0-6.65-4.7-6.65-8.943a6.259,6.259,0,0,1,6.65-6.65c3.9,0,6.535,2.637,6.535,6.65C368.435,340.935,365.683,345.636,361.9,345.636Zm0-13.3a4.035,4.035,0,0,0-4.357,4.357c0,3.325,2.178,6.65,4.357,6.65s4.242-3.325,4.242-6.65C366.141,333.941,364.536,332.336,361.9,332.336Z" transform="translate(-303.539 -282.001)" fill="#183651"/>
      <path id="Trazado_723652" data-name="Trazado 723652" d="M196.493,413.4l-8.37-4.586-8.37,4.586a4.968,4.968,0,0,0-2.522,4.242v3.9H198.9v-3.9A4.862,4.862,0,0,0,196.493,413.4Z" transform="translate(-151.433 -349.305)" fill="#e1e6e7"/>
      <path id="Trazado_723653" data-name="Trazado 723653" d="M192.843,415.618H171.288a1.083,1.083,0,0,1-1.147-1.147v-3.9a5.937,5.937,0,0,1,3.1-5.274l8.37-4.586a1.041,1.041,0,0,1,1.147,0l8.37,4.586a5.937,5.937,0,0,1,3.1,5.274v3.9A1.454,1.454,0,0,1,192.843,415.618Zm-20.409-2.293h19.377v-2.752a3.426,3.426,0,0,0-1.949-3.21l-7.8-4.242-7.8,4.242a3.919,3.919,0,0,0-1.949,3.21v2.752Z" transform="translate(-145.375 -342.238)" fill="#183651"/>
      <path id="Trazado_723654" data-name="Trazado 723654" d="M226.6,343.424c0,3.669-2.408,7.8-5.389,7.8s-5.389-4.128-5.389-7.8,2.408-5.5,5.389-5.5S226.6,339.755,226.6,343.424Z" transform="translate(-184.411 -288.732)" fill="#fff"/>
      <path id="Trazado_723655" data-name="Trazado 723655" d="M213.7,345.636c-3.784,0-6.535-4.7-6.535-8.943,0-4.013,2.637-6.65,6.535-6.65a6.319,6.319,0,0,1,6.65,6.65C220.349,340.935,217.483,345.636,213.7,345.636Zm0-13.3c-2.637,0-4.242,1.605-4.242,4.357,0,3.325,2.178,6.65,4.242,6.65,2.178,0,4.357-3.325,4.357-6.65A4.035,4.035,0,0,0,213.7,332.336Z" transform="translate(-177.009 -282.001)" fill="#183651"/>
      <path id="Trazado_723656" data-name="Trazado 723656" d="M47.619,413.4l-8.37-4.586-8.37,4.586a4.968,4.968,0,0,0-2.522,4.242v3.9h21.67v-3.9A4.637,4.637,0,0,0,47.619,413.4Z" transform="translate(-24.229 -349.305)" fill="#cbbff4"/>
      <path id="Trazado_723657" data-name="Trazado 723657" d="M44.085,415.618H22.415a1.083,1.083,0,0,1-1.147-1.147v-3.9a5.937,5.937,0,0,1,3.1-5.274l8.37-4.586a1.042,1.042,0,0,1,1.147,0l8.37,4.586a5.937,5.937,0,0,1,3.1,5.274v3.9A1.336,1.336,0,0,1,44.085,415.618Zm-20.523-2.293H42.938v-2.752a3.426,3.426,0,0,0-1.949-3.21l-7.8-4.242-7.8,4.242a3.918,3.918,0,0,0-1.949,3.21v2.752Z" transform="translate(-18.172 -342.238)" fill="#183651"/>
      <path id="Trazado_723658" data-name="Trazado 723658" d="M77.731,343.424c0,3.669-2.408,7.8-5.389,7.8s-5.389-4.128-5.389-7.8,2.408-5.5,5.389-5.5S77.731,339.755,77.731,343.424Z" transform="translate(-57.207 -288.732)" fill="#fff"/>
      <g id="Grupo_1009016" data-name="Grupo 1009016" transform="translate(8.37 8.256)">
        <path id="Trazado_723659" data-name="Trazado 723659" d="M64.152,345.636c-3.784,0-6.65-4.7-6.65-8.943a6.259,6.259,0,0,1,6.65-6.65c4.013,0,6.535,2.637,6.535,6.65C70.8,340.935,67.936,345.636,64.152,345.636Zm0-13.3a4.035,4.035,0,0,0-4.357,4.357c0,3.325,2.178,6.65,4.357,6.65s4.242-3.325,4.242-6.65C68.509,333.941,66.9,332.336,64.152,332.336Z" transform="translate(-57.502 -290.257)" fill="#183651"/>
        <path id="Trazado_723660" data-name="Trazado 723660" d="M77.538,77.237a1.108,1.108,0,0,1,0-1.605L86.71,66.46a1.108,1.108,0,0,1,1.605,0l4.93,4.93,8.943-8.943a1.108,1.108,0,0,1,1.605,0l8.485,8.485,13.873-13.874a1.135,1.135,0,0,1,1.605,1.605L113.2,73.339a1.108,1.108,0,0,1-1.605,0l-8.485-8.485L94.048,73.8a1.108,1.108,0,0,1-1.605,0l-4.93-4.93-8.37,8.37A1.108,1.108,0,0,1,77.538,77.237Z" transform="translate(-74.327 -56.714)" fill="#183651"/>
        <path id="Trazado_723661" data-name="Trazado 723661" d="M382.509,64.4h-2.293V59.007h-5.274V56.714h7.567Z" transform="translate(-328.735 -56.714)" fill="#183651"/>
        <rect id="Rectángulo_351617" data-name="Rectángulo 351617" width="2.293" height="13.53" transform="translate(6.765 15.823)" fill="#183651"/>
        <rect id="Rectángulo_351618" data-name="Rectángulo 351618" width="2.293" height="16.74" transform="translate(13.988 12.498)" fill="#183651"/>
        <rect id="Rectángulo_351619" data-name="Rectángulo 351619" width="2.293" height="17.199" transform="translate(21.785 12.154)" fill="#183651"/>
        <rect id="Rectángulo_351620" data-name="Rectángulo 351620" width="2.293" height="20.868" transform="translate(29.467 8.485)" fill="#183651"/>
        <rect id="Rectángulo_351621" data-name="Rectángulo 351621" width="2.293" height="13.874" transform="translate(37.263 15.364)" fill="#183651"/>
        <rect id="Rectángulo_351622" data-name="Rectángulo 351622" width="2.293" height="21.67" transform="translate(45.06 7.682)" fill="#183651"/>
        <rect id="Rectángulo_351623" data-name="Rectángulo 351623" width="2.293" height="2.293" transform="translate(1.834 1.147)" fill="#183651"/>
        <rect id="Rectángulo_351624" data-name="Rectángulo 351624" width="2.293" height="2.293" transform="translate(7.567 1.147)" fill="#183651"/>
        <rect id="Rectángulo_351625" data-name="Rectángulo 351625" width="2.293" height="2.293" transform="translate(13.185 1.147)" fill="#183651"/>
      </g>
    </g>
  </g>
</svg>
