<svg xmlns="http://www.w3.org/2000/svg" xmlns:xlink="http://www.w3.org/1999/xlink" width="505" height="266.93" viewBox="0 0 505 266.93">
  <defs>
    <clipPath id="clip-path">
      <rect id="Rectángulo_351714" data-name="Rectángulo 351714" width="479.384" height="249.805" fill="none"/>
    </clipPath>
    <filter id="Rectángulo_351723" x="51.647" y="75.832" width="52.202" height="191.098" filterUnits="userSpaceOnUse">
      <feOffset dx="3" dy="3" input="SourceAlpha"/>
      <feGaussianBlur stdDeviation="3" result="blur"/>
      <feFlood flood-opacity="0.161"/>
      <feComposite operator="in" in2="blur"/>
      <feComposite in="SourceGraphic"/>
    </filter>
    <filter id="Rectángulo_351724" x="142.049" y="26.601" width="52.202" height="240.329" filterUnits="userSpaceOnUse">
      <feOffset dx="3" dy="3" input="SourceAlpha"/>
      <feGaussianBlur stdDeviation="3" result="blur-2"/>
      <feFlood flood-opacity="0.161"/>
      <feComposite operator="in" in2="blur-2"/>
      <feComposite in="SourceGraphic"/>
    </filter>
    <filter id="Rectángulo_351725" x="232.452" y="174.329" width="52.202" height="92.601" filterUnits="userSpaceOnUse">
      <feOffset dx="3" dy="3" input="SourceAlpha"/>
      <feGaussianBlur stdDeviation="3" result="blur-3"/>
      <feFlood flood-opacity="0.161"/>
      <feComposite operator="in" in2="blur-3"/>
      <feComposite in="SourceGraphic"/>
    </filter>
    <filter id="Rectángulo_351726" x="322.854" y="100.447" width="52.201" height="166.483" filterUnits="userSpaceOnUse">
      <feOffset dx="3" dy="3" input="SourceAlpha"/>
      <feGaussianBlur stdDeviation="3" result="blur-4"/>
      <feFlood flood-opacity="0.161"/>
      <feComposite operator="in" in2="blur-4"/>
      <feComposite in="SourceGraphic"/>
    </filter>
    <filter id="Rectángulo_351727" x="413.256" y="51.216" width="52.201" height="215.714" filterUnits="userSpaceOnUse">
      <feOffset dx="3" dy="3" input="SourceAlpha"/>
      <feGaussianBlur stdDeviation="3" result="blur-5"/>
      <feFlood flood-opacity="0.161"/>
      <feComposite operator="in" in2="blur-5"/>
      <feComposite in="SourceGraphic"/>
    </filter>
  </defs>
  <g id="Grupo_1009074" data-name="Grupo 1009074" transform="translate(-180 -6367)">
    <rect id="farmaceutica-asiatica-que-trabaja-farmacia-o-farmacia" width="505" height="261.88" rx="15" transform="translate(180 6367)" fill="none"/>
    <rect id="Rectángulo_351730" data-name="Rectángulo 351730" width="477" height="224" transform="translate(193 6399)" fill="#f3f9ff"/>
    <g id="Grupo_1009073" data-name="Grupo 1009073" transform="translate(193 6373)">
      <g id="Grupo_1009052" data-name="Grupo 1009052">
        <g id="Grupo_1009051" data-name="Grupo 1009051" clip-path="url(#clip-path)">
          <line id="Línea_500" data-name="Línea 500" transform="translate(0.875 26.602)" fill="none" stroke="#bababa" stroke-linecap="round" stroke-linejoin="round" stroke-width="1"/>
        </g>
      </g>
      <line id="Línea_501" data-name="Línea 501" x2="467.724" transform="translate(5.351 26.602)" fill="none" stroke="#bababa" stroke-linecap="round" stroke-linejoin="round" stroke-width="1" stroke-dasharray="0 4.476"/>
      <line id="Línea_502" data-name="Línea 502" transform="translate(475.313 26.602)" fill="none" stroke="#bababa" stroke-linecap="round" stroke-linejoin="round" stroke-width="1"/>
      <g id="Grupo_1009054" data-name="Grupo 1009054">
        <g id="Grupo_1009053" data-name="Grupo 1009053" clip-path="url(#clip-path)">
          <line id="Línea_503" data-name="Línea 503" transform="translate(0.875 51.217)" fill="none" stroke="#bababa" stroke-linecap="round" stroke-linejoin="round" stroke-width="1"/>
        </g>
      </g>
      <line id="Línea_504" data-name="Línea 504" x2="467.724" transform="translate(5.351 51.217)" fill="none" stroke="#bababa" stroke-linecap="round" stroke-linejoin="round" stroke-width="1" stroke-dasharray="0 4.476"/>
      <line id="Línea_505" data-name="Línea 505" transform="translate(475.313 51.217)" fill="none" stroke="#bababa" stroke-linecap="round" stroke-linejoin="round" stroke-width="1"/>
      <g id="Grupo_1009056" data-name="Grupo 1009056">
        <g id="Grupo_1009055" data-name="Grupo 1009055" clip-path="url(#clip-path)">
          <line id="Línea_506" data-name="Línea 506" transform="translate(0.875 75.832)" fill="none" stroke="#bababa" stroke-linecap="round" stroke-linejoin="round" stroke-width="1"/>
        </g>
      </g>
      <line id="Línea_507" data-name="Línea 507" x2="467.724" transform="translate(5.351 75.832)" fill="none" stroke="#bababa" stroke-linecap="round" stroke-linejoin="round" stroke-width="1" stroke-dasharray="0 4.476"/>
      <line id="Línea_508" data-name="Línea 508" transform="translate(475.313 75.832)" fill="none" stroke="#bababa" stroke-linecap="round" stroke-linejoin="round" stroke-width="1"/>
      <g id="Grupo_1009058" data-name="Grupo 1009058">
        <g id="Grupo_1009057" data-name="Grupo 1009057" clip-path="url(#clip-path)">
          <line id="Línea_509" data-name="Línea 509" transform="translate(0.875 100.447)" fill="none" stroke="#bababa" stroke-linecap="round" stroke-linejoin="round" stroke-width="1"/>
        </g>
      </g>
      <line id="Línea_510" data-name="Línea 510" x2="467.724" transform="translate(5.351 100.447)" fill="none" stroke="#bababa" stroke-linecap="round" stroke-linejoin="round" stroke-width="1" stroke-dasharray="0 4.476"/>
      <line id="Línea_511" data-name="Línea 511" transform="translate(475.313 100.447)" fill="none" stroke="#bababa" stroke-linecap="round" stroke-linejoin="round" stroke-width="1"/>
      <g id="Grupo_1009060" data-name="Grupo 1009060">
        <g id="Grupo_1009059" data-name="Grupo 1009059" clip-path="url(#clip-path)">
          <line id="Línea_512" data-name="Línea 512" transform="translate(0.875 125.062)" fill="none" stroke="#bababa" stroke-linecap="round" stroke-linejoin="round" stroke-width="1"/>
        </g>
      </g>
      <line id="Línea_513" data-name="Línea 513" x2="467.724" transform="translate(5.351 125.062)" fill="none" stroke="#bababa" stroke-linecap="round" stroke-linejoin="round" stroke-width="1" stroke-dasharray="0 4.476"/>
      <line id="Línea_514" data-name="Línea 514" transform="translate(475.313 125.062)" fill="none" stroke="#bababa" stroke-linecap="round" stroke-linejoin="round" stroke-width="1"/>
      <g id="Grupo_1009062" data-name="Grupo 1009062">
        <g id="Grupo_1009061" data-name="Grupo 1009061" clip-path="url(#clip-path)">
          <line id="Línea_515" data-name="Línea 515" transform="translate(0.875 149.677)" fill="none" stroke="#bababa" stroke-linecap="round" stroke-linejoin="round" stroke-width="1"/>
        </g>
      </g>
      <line id="Línea_516" data-name="Línea 516" x2="467.724" transform="translate(5.351 149.677)" fill="none" stroke="#bababa" stroke-linecap="round" stroke-linejoin="round" stroke-width="1" stroke-dasharray="0 4.476"/>
      <line id="Línea_517" data-name="Línea 517" transform="translate(475.313 149.677)" fill="none" stroke="#bababa" stroke-linecap="round" stroke-linejoin="round" stroke-width="1"/>
      <g id="Grupo_1009064" data-name="Grupo 1009064">
        <g id="Grupo_1009063" data-name="Grupo 1009063" clip-path="url(#clip-path)">
          <line id="Línea_518" data-name="Línea 518" transform="translate(0.875 174.293)" fill="none" stroke="#bababa" stroke-linecap="round" stroke-linejoin="round" stroke-width="1"/>
        </g>
      </g>
      <line id="Línea_519" data-name="Línea 519" x2="467.724" transform="translate(5.351 174.293)" fill="none" stroke="#bababa" stroke-linecap="round" stroke-linejoin="round" stroke-width="1" stroke-dasharray="0 4.476"/>
      <line id="Línea_520" data-name="Línea 520" transform="translate(475.313 174.293)" fill="none" stroke="#bababa" stroke-linecap="round" stroke-linejoin="round" stroke-width="1"/>
      <g id="Grupo_1009066" data-name="Grupo 1009066">
        <g id="Grupo_1009065" data-name="Grupo 1009065" clip-path="url(#clip-path)">
          <line id="Línea_521" data-name="Línea 521" transform="translate(0.875 198.908)" fill="none" stroke="#bababa" stroke-linecap="round" stroke-linejoin="round" stroke-width="1"/>
        </g>
      </g>
      <line id="Línea_522" data-name="Línea 522" x2="467.724" transform="translate(5.351 198.908)" fill="none" stroke="#bababa" stroke-linecap="round" stroke-linejoin="round" stroke-width="1" stroke-dasharray="0 4.476"/>
      <line id="Línea_523" data-name="Línea 523" transform="translate(475.313 198.908)" fill="none" stroke="#bababa" stroke-linecap="round" stroke-linejoin="round" stroke-width="1"/>
      <g id="Grupo_1009068" data-name="Grupo 1009068">
        <g id="Grupo_1009067" data-name="Grupo 1009067" clip-path="url(#clip-path)">
          <line id="Línea_524" data-name="Línea 524" transform="translate(0.875 223.523)" fill="none" stroke="#bababa" stroke-linecap="round" stroke-linejoin="round" stroke-width="1"/>
        </g>
      </g>
      <line id="Línea_525" data-name="Línea 525" x2="467.724" transform="translate(5.351 223.523)" fill="none" stroke="#bababa" stroke-linecap="round" stroke-linejoin="round" stroke-width="1" stroke-dasharray="0 4.476"/>
      <line id="Línea_526" data-name="Línea 526" transform="translate(475.313 223.523)" fill="none" stroke="#bababa" stroke-linecap="round" stroke-linejoin="round" stroke-width="1"/>
      <g transform="matrix(1, 0, 0, 1, -13, -6)" filter="url(#Rectángulo_351723)">
        <g id="Rectángulo_351723-2" data-name="Rectángulo 351723" transform="translate(57.65 81.83)" fill="#f36817" stroke="#fff" stroke-width="2">
          <rect width="34.202" height="173.098" stroke="none"/>
          <rect x="1" y="1" width="32.202" height="171.098" fill="none"/>
        </g>
      </g>
      <g transform="matrix(1, 0, 0, 1, -13, -6)" filter="url(#Rectángulo_351724)">
        <g id="Rectángulo_351724-2" data-name="Rectángulo 351724" transform="translate(148.05 32.6)" fill="#88f2ff" stroke="#fff" stroke-width="2">
          <rect width="34.202" height="222.329" stroke="none"/>
          <rect x="1" y="1" width="32.202" height="220.329" fill="none"/>
        </g>
      </g>
      <g transform="matrix(1, 0, 0, 1, -13, -6)" filter="url(#Rectángulo_351725)">
        <g id="Rectángulo_351725-2" data-name="Rectángulo 351725" transform="translate(238.45 180.33)" fill="#b29eee" stroke="#fff" stroke-width="2">
          <rect width="34.202" height="74.601" stroke="none"/>
          <rect x="1" y="1" width="32.202" height="72.601" fill="none"/>
        </g>
      </g>
      <g transform="matrix(1, 0, 0, 1, -13, -6)" filter="url(#Rectángulo_351726)">
        <g id="Rectángulo_351726-2" data-name="Rectángulo 351726" transform="translate(328.85 106.45)" fill="#00a8c3" stroke="#fff" stroke-width="2">
          <rect width="34.201" height="148.483" stroke="none"/>
          <rect x="1" y="1" width="32.201" height="146.483" fill="none"/>
        </g>
      </g>
      <g transform="matrix(1, 0, 0, 1, -13, -6)" filter="url(#Rectángulo_351727)">
        <g id="Rectángulo_351727-2" data-name="Rectángulo 351727" transform="translate(419.26 57.22)" fill="#0f576b" stroke="#fff" stroke-width="2">
          <rect width="34.201" height="197.714" stroke="none"/>
          <rect x="1" y="1" width="32.201" height="195.714" fill="none"/>
        </g>
      </g>
      <g id="Grupo_1009070" data-name="Grupo 1009070">
        <g id="Grupo_1009069" data-name="Grupo 1009069" clip-path="url(#clip-path)">
          <path id="Trazado_723769" data-name="Trazado 723769" d="M479.384,248.93H.875V0" fill="none" stroke="#5d5d5d" stroke-miterlimit="10" stroke-width="1.75"/>
        </g>
      </g>
      <path id="Trazado_723770" data-name="Trazado 723770" d="M55.3,61l-3.979,9.03H49.573l3.972-8.62H48.4V60.078h6.9Z" fill="#474747"/>
      <g id="Grupo_1009072" data-name="Grupo 1009072">
        <g id="Grupo_1009071" data-name="Grupo 1009071" clip-path="url(#clip-path)">
          <path id="Trazado_723771" data-name="Trazado 723771" d="M63.116,65.841a5.423,5.423,0,0,1-.8,3.237,2.838,2.838,0,0,1-2.444,1.091,2.874,2.874,0,0,1-2.43-1.063,5.2,5.2,0,0,1-.838-3.148V64.235a5.344,5.344,0,0,1,.8-3.22,3.348,3.348,0,0,1,4.887-.027,5.182,5.182,0,0,1,.824,3.131Zm-1.661-1.859a4.2,4.2,0,0,0-.383-2.054,1.463,1.463,0,0,0-2.413-.034,3.886,3.886,0,0,0-.4,1.931v2.256a4.332,4.332,0,0,0,.389,2.078,1.31,1.31,0,0,0,1.224.683,1.288,1.288,0,0,0,1.183-.632,4.069,4.069,0,0,0,.4-1.979Z" fill="#474747"/>
          <path id="Trazado_723772" data-name="Trazado 723772" d="M64.517,61.992a2,2,0,0,1,.581-1.48,2.108,2.108,0,0,1,3.637,1.514v.492a1.984,1.984,0,0,1-.578,1.47,2.062,2.062,0,0,1-1.521.574A2.129,2.129,0,0,1,65.115,64a1.988,1.988,0,0,1-.6-1.521Zm1.162.523a1.1,1.1,0,0,0,.263.765.891.891,0,0,0,.694.291.87.87,0,0,0,.683-.291,1.142,1.142,0,0,0,.26-.792v-.5a1.109,1.109,0,0,0-.263-.767.884.884,0,0,0-.694-.3.86.86,0,0,0-.687.3,1.161,1.161,0,0,0-.256.785Zm1.3,6.771-.855-.492,4.861-7.78.854.493ZM69.3,67.591a1.957,1.957,0,0,1,.6-1.484,2.318,2.318,0,0,1,3.038,0,2.025,2.025,0,0,1,.592,1.531v.486a2,2,0,0,1-.571,1.466,2.053,2.053,0,0,1-1.528.578,2.116,2.116,0,0,1-1.542-.571A2.013,2.013,0,0,1,69.3,68.09Zm1.162.526a1.089,1.089,0,0,0,.27.762.9.9,0,0,0,.694.3.87.87,0,0,0,.687-.284,1.169,1.169,0,0,0,.249-.8v-.512a1.081,1.081,0,0,0-.266-.766.962.962,0,0,0-1.371,0,1.133,1.133,0,0,0-.263.793Z" fill="#474747"/>
          <path id="Trazado_723773" data-name="Trazado 723773" d="M232.121,163.233h1.012a1.815,1.815,0,0,0,1.213-.4,1.417,1.417,0,0,0,.448-1.128,1.541,1.541,0,0,0-.373-1.1,1.5,1.5,0,0,0-1.138-.392,1.585,1.585,0,0,0-1.1.385,1.29,1.29,0,0,0-.431,1.009h-1.661a2.509,2.509,0,0,1,.406-1.394,2.734,2.734,0,0,1,1.135-.982,3.709,3.709,0,0,1,1.631-.351,3.423,3.423,0,0,1,2.341.748,2.629,2.629,0,0,1,.851,2.082,2.116,2.116,0,0,1-.427,1.26,2.681,2.681,0,0,1-1.1.893,2.316,2.316,0,0,1,1.675,2.317,2.675,2.675,0,0,1-.92,2.133,4.036,4.036,0,0,1-4.768.027,2.519,2.519,0,0,1-.916-2.037h1.661a1.391,1.391,0,0,0,.441,1.067,1.675,1.675,0,0,0,1.186.41,1.727,1.727,0,0,0,1.217-.41,1.812,1.812,0,0,0-.021-2.4,1.984,1.984,0,0,0-1.38-.424h-.978Z" fill="#474747"/>
          <path id="Trazado_723774" data-name="Trazado 723774" d="M244.644,164.778a5.425,5.425,0,0,1-.8,3.237,2.838,2.838,0,0,1-2.444,1.091,2.872,2.872,0,0,1-2.43-1.064,5.2,5.2,0,0,1-.838-3.147v-1.723a5.34,5.34,0,0,1,.8-3.22,3.348,3.348,0,0,1,4.887-.027,5.179,5.179,0,0,1,.824,3.131Zm-1.661-1.859a4.206,4.206,0,0,0-.383-2.055,1.464,1.464,0,0,0-2.413-.034,3.893,3.893,0,0,0-.4,1.932v2.256a4.332,4.332,0,0,0,.389,2.078,1.31,1.31,0,0,0,1.224.683,1.288,1.288,0,0,0,1.183-.632,4.072,4.072,0,0,0,.4-1.979Z" fill="#474747"/>
          <path id="Trazado_723775" data-name="Trazado 723775" d="M246.046,160.93a2,2,0,0,1,.581-1.48,2.108,2.108,0,0,1,3.637,1.514v.492a1.985,1.985,0,0,1-.578,1.47,2.062,2.062,0,0,1-1.521.574,2.129,2.129,0,0,1-1.521-.564,1.99,1.99,0,0,1-.6-1.521Zm1.162.523a1.1,1.1,0,0,0,.263.764.891.891,0,0,0,.694.292.87.87,0,0,0,.683-.292,1.14,1.14,0,0,0,.26-.791v-.5a1.113,1.113,0,0,0-.262-.767.884.884,0,0,0-.695-.295.863.863,0,0,0-.687.3,1.164,1.164,0,0,0-.256.786Zm1.3,6.771-.855-.492,4.861-7.78.854.493Zm2.324-1.695a1.954,1.954,0,0,1,.6-1.484,2.32,2.32,0,0,1,3.039,0,2.027,2.027,0,0,1,.591,1.531v.486a2,2,0,0,1-.571,1.466,2.051,2.051,0,0,1-1.528.578,2.11,2.11,0,0,1-1.541-.572,2.006,2.006,0,0,1-.585-1.506Zm1.162.526a1.087,1.087,0,0,0,.271.762.894.894,0,0,0,.693.3.866.866,0,0,0,.687-.285,1.165,1.165,0,0,0,.249-.8v-.512a1.079,1.079,0,0,0-.266-.766.961.961,0,0,0-1.37,0,1.127,1.127,0,0,0-.264.793Z" fill="#474747"/>
          <path id="Trazado_723776" data-name="Trazado 723776" d="M325.77,84.844v1.374h-.2a3.3,3.3,0,0,0-2.228.766,3.206,3.206,0,0,0-.992,2.112,2.7,2.7,0,0,1,2.044-.841,2.547,2.547,0,0,1,2.082.93,3.659,3.659,0,0,1,.762,2.4,3.423,3.423,0,0,1-.892,2.458,3.08,3.08,0,0,1-2.341.94,3.006,3.006,0,0,1-2.416-1.1A4.322,4.322,0,0,1,320.657,91v-.567a6.092,6.092,0,0,1,1.275-4.1,4.574,4.574,0,0,1,3.667-1.483ZM323.986,89.6a1.75,1.75,0,0,0-1,.308,1.8,1.8,0,0,0-.667.82v.506a2.978,2.978,0,0,0,.465,1.76,1.418,1.418,0,0,0,1.2.653,1.4,1.4,0,0,0,1.169-.554,2.305,2.305,0,0,0,.431-1.456,2.341,2.341,0,0,0-.438-1.47,1.394,1.394,0,0,0-1.162-.567" fill="#474747"/>
          <path id="Trazado_723777" data-name="Trazado 723777" d="M335.046,90.654a5.423,5.423,0,0,1-.8,3.237,2.838,2.838,0,0,1-2.444,1.091,2.876,2.876,0,0,1-2.43-1.063,5.2,5.2,0,0,1-.838-3.148V89.048a5.345,5.345,0,0,1,.8-3.22,3.349,3.349,0,0,1,4.888-.027,5.189,5.189,0,0,1,.823,3.131Zm-1.661-1.859A4.2,4.2,0,0,0,333,86.741a1.463,1.463,0,0,0-2.413-.034,3.886,3.886,0,0,0-.4,1.931v2.256a4.332,4.332,0,0,0,.389,2.078,1.31,1.31,0,0,0,1.224.683,1.287,1.287,0,0,0,1.183-.632,4.058,4.058,0,0,0,.4-1.979Z" fill="#474747"/>
          <path id="Trazado_723778" data-name="Trazado 723778" d="M336.448,86.806a2,2,0,0,1,.581-1.48,2.108,2.108,0,0,1,3.637,1.514v.492a1.984,1.984,0,0,1-.578,1.47,2.062,2.062,0,0,1-1.521.574,2.129,2.129,0,0,1-1.521-.564,1.988,1.988,0,0,1-.6-1.521Zm1.162.523a1.1,1.1,0,0,0,.264.765.887.887,0,0,0,.693.291.869.869,0,0,0,.683-.291,1.142,1.142,0,0,0,.26-.792v-.5a1.113,1.113,0,0,0-.262-.767.887.887,0,0,0-.695-.3.857.857,0,0,0-.686.3,1.161,1.161,0,0,0-.257.785Zm1.3,6.771-.855-.492,4.861-7.78.854.493Zm2.324-1.695a1.957,1.957,0,0,1,.6-1.484,2.32,2.32,0,0,1,3.039,0,2.028,2.028,0,0,1,.591,1.531v.486a2,2,0,0,1-.571,1.466,2.051,2.051,0,0,1-1.528.578,2.114,2.114,0,0,1-1.541-.571,2.01,2.01,0,0,1-.585-1.507Zm1.162.526a1.085,1.085,0,0,0,.271.762.894.894,0,0,0,.693.3.868.868,0,0,0,.687-.284,1.169,1.169,0,0,0,.249-.8V92.4a1.081,1.081,0,0,0-.266-.766.961.961,0,0,0-1.37,0,1.129,1.129,0,0,0-.264.793Z" fill="#474747"/>
          <path id="Trazado_723779" data-name="Trazado 723779" d="M416.771,39.1a2.314,2.314,0,0,1-.376,1.3,2.6,2.6,0,0,1-1.025.9,2.833,2.833,0,0,1,1.2.991,2.5,2.5,0,0,1,.42,1.422A2.608,2.608,0,0,1,416.1,45.8a4.03,4.03,0,0,1-4.74,0,2.609,2.609,0,0,1-.892-2.078,2.535,2.535,0,0,1,.423-1.436,2.733,2.733,0,0,1,1.19-.977,2.6,2.6,0,0,1-1.015-.9,2.327,2.327,0,0,1-.373-1.3,2.59,2.59,0,0,1,.82-2.016,3.676,3.676,0,0,1,4.437,0,2.587,2.587,0,0,1,.82,2.016m-1.442,4.533a1.641,1.641,0,0,0-.441-1.193,1.717,1.717,0,0,0-2.324,0,1.652,1.652,0,0,0-.434,1.2,1.6,1.6,0,0,0,.427,1.169,1.822,1.822,0,0,0,2.352.013,1.6,1.6,0,0,0,.42-1.182m-.212-4.471a1.543,1.543,0,0,0-.376-1.07,1.446,1.446,0,0,0-2.017-.02,1.782,1.782,0,0,0,0,2.177,1.463,1.463,0,0,0,2.017,0,1.54,1.54,0,0,0,.372-1.087" fill="#474747"/>
          <path id="Trazado_723780" data-name="Trazado 723780" d="M424.947,42.238a5.423,5.423,0,0,1-.8,3.237,2.838,2.838,0,0,1-2.444,1.091,2.876,2.876,0,0,1-2.43-1.063,5.2,5.2,0,0,1-.838-3.148V40.632a5.345,5.345,0,0,1,.8-3.22,3.349,3.349,0,0,1,4.888-.027,5.189,5.189,0,0,1,.823,3.131Zm-1.661-1.859a4.2,4.2,0,0,0-.383-2.054,1.463,1.463,0,0,0-2.413-.034,3.886,3.886,0,0,0-.4,1.931v2.256a4.332,4.332,0,0,0,.389,2.078,1.31,1.31,0,0,0,1.224.683,1.287,1.287,0,0,0,1.183-.632,4.058,4.058,0,0,0,.4-1.979Z" fill="#474747"/>
          <path id="Trazado_723781" data-name="Trazado 723781" d="M426.348,38.39a2,2,0,0,1,.581-1.48,2.108,2.108,0,0,1,3.637,1.514v.492a1.984,1.984,0,0,1-.578,1.47,2.062,2.062,0,0,1-1.521.574,2.129,2.129,0,0,1-1.521-.564,1.988,1.988,0,0,1-.6-1.521Zm1.162.523a1.1,1.1,0,0,0,.264.765.887.887,0,0,0,.693.291.869.869,0,0,0,.683-.291,1.142,1.142,0,0,0,.26-.792v-.5a1.113,1.113,0,0,0-.262-.767.887.887,0,0,0-.7-.295.858.858,0,0,0-.686.3,1.161,1.161,0,0,0-.257.785Zm1.3,6.771-.855-.492,4.861-7.78.854.493Zm2.324-1.695a1.957,1.957,0,0,1,.6-1.484,2.32,2.32,0,0,1,3.039,0,2.028,2.028,0,0,1,.591,1.531v.486a2,2,0,0,1-.571,1.466,2.051,2.051,0,0,1-1.528.578,2.114,2.114,0,0,1-1.541-.571,2.01,2.01,0,0,1-.585-1.507Zm1.162.526a1.085,1.085,0,0,0,.271.762.894.894,0,0,0,.693.3.869.869,0,0,0,.687-.284,1.169,1.169,0,0,0,.249-.8v-.512a1.081,1.081,0,0,0-.266-.766.961.961,0,0,0-1.37,0,1.129,1.129,0,0,0-.264.793Z" fill="#474747"/>
          <path id="Trazado_723782" data-name="Trazado 723782" d="M144.76,16.222a2.714,2.714,0,0,1-4.04-.038,3.605,3.605,0,0,1-.78-2.416,3.965,3.965,0,0,1,.4-1.784,2.952,2.952,0,0,1,1.128-1.244,3.19,3.19,0,0,1,1.7-.445,2.878,2.878,0,0,1,2.386,1.121,4.723,4.723,0,0,1,.882,3v.465a6.136,6.136,0,0,1-1.217,4.109,4.582,4.582,0,0,1-3.63,1.435h-.2V19.052h.239a3.4,3.4,0,0,0,2.256-.707,2.952,2.952,0,0,0,.882-2.123m-1.6-.417a1.681,1.681,0,0,0,.937-.287,1.9,1.9,0,0,0,.676-.793v-.649a3.118,3.118,0,0,0-.451-1.771,1.358,1.358,0,0,0-1.169-.67,1.344,1.344,0,0,0-1.145.591,2.484,2.484,0,0,0-.427,1.494,2.449,2.449,0,0,0,.431,1.511,1.362,1.362,0,0,0,1.148.574" fill="#474747"/>
          <path id="Trazado_723783" data-name="Trazado 723783" d="M154.493,16.195a5.416,5.416,0,0,1-.8,3.237,2.838,2.838,0,0,1-2.444,1.091,2.877,2.877,0,0,1-2.43-1.063,5.191,5.191,0,0,1-.837-3.148V14.589a5.337,5.337,0,0,1,.8-3.22,3.346,3.346,0,0,1,4.886-.027,5.182,5.182,0,0,1,.824,3.131Zm-1.66-1.859a4.2,4.2,0,0,0-.384-2.054,1.463,1.463,0,0,0-2.413-.034,3.886,3.886,0,0,0-.4,1.931v2.256a4.344,4.344,0,0,0,.389,2.078,1.311,1.311,0,0,0,1.224.683,1.288,1.288,0,0,0,1.183-.632,4.079,4.079,0,0,0,.4-1.979Z" fill="#474747"/>
          <path id="Trazado_723784" data-name="Trazado 723784" d="M155.9,12.346a2,2,0,0,1,.581-1.48,2.108,2.108,0,0,1,3.637,1.514v.492a1.984,1.984,0,0,1-.578,1.47,2.062,2.062,0,0,1-1.521.574,2.129,2.129,0,0,1-1.521-.564,1.988,1.988,0,0,1-.6-1.521Zm1.162.523a1.1,1.1,0,0,0,.263.765.891.891,0,0,0,.694.291.87.87,0,0,0,.683-.291,1.142,1.142,0,0,0,.26-.792v-.5a1.109,1.109,0,0,0-.263-.767.884.884,0,0,0-.694-.3.86.86,0,0,0-.687.3,1.161,1.161,0,0,0-.256.785Zm1.3,6.771-.855-.492,4.861-7.78.854.493Zm2.324-1.695a1.957,1.957,0,0,1,.6-1.484,2.318,2.318,0,0,1,3.038,0,2.025,2.025,0,0,1,.592,1.531v.486a2,2,0,0,1-.571,1.466,2.053,2.053,0,0,1-1.528.578,2.116,2.116,0,0,1-1.542-.571,2.013,2.013,0,0,1-.584-1.507Zm1.162.526a1.089,1.089,0,0,0,.27.762.9.9,0,0,0,.694.3.87.87,0,0,0,.687-.284,1.169,1.169,0,0,0,.249-.8v-.512a1.081,1.081,0,0,0-.266-.766.962.962,0,0,0-1.371,0,1.133,1.133,0,0,0-.263.793Z" fill="#474747"/>
        </g>
      </g>
    </g>
  </g>
</svg>
