<svg xmlns="http://www.w3.org/2000/svg" xmlns:xlink="http://www.w3.org/1999/xlink" width="820" height="305" viewBox="0 0 820 305">
  <defs>
    <radialGradient id="radial-gradient" cx="0.5" cy="0.5" r="0.478" gradientTransform="translate(0 -0.808) scale(1 2.615)" gradientUnits="objectBoundingBox">
      <stop offset="0" stop-color="#fff"/>
      <stop offset="1" stop-color="#81d4fa"/>
    </radialGradient>
    <filter id="Trazado_724648" x="412.105" y="132.927" width="52.202" height="118.002" filterUnits="userSpaceOnUse">
      <feOffset dx="3" dy="3" input="SourceAlpha"/>
      <feGaussianBlur stdDeviation="3" result="blur"/>
      <feFlood flood-opacity="0.161"/>
      <feComposite operator="in" in2="blur"/>
      <feComposite in="SourceGraphic"/>
    </filter>
    <filter id="Trazado_724649" x="502.509" y="59.831" width="52.201" height="191.098" filterUnits="userSpaceOnUse">
      <feOffset dx="3" dy="3" input="SourceAlpha"/>
      <feGaussianBlur stdDeviation="3" result="blur-2"/>
      <feFlood flood-opacity="0.161"/>
      <feComposite operator="in" in2="blur-2"/>
      <feComposite in="SourceGraphic"/>
    </filter>
    <filter id="Trazado_724650" x="592.911" y="84.446" width="52.201" height="166.483" filterUnits="userSpaceOnUse">
      <feOffset dx="3" dy="3" input="SourceAlpha"/>
      <feGaussianBlur stdDeviation="3" result="blur-3"/>
      <feFlood flood-opacity="0.161"/>
      <feComposite operator="in" in2="blur-3"/>
      <feComposite in="SourceGraphic"/>
    </filter>
    <filter id="Trazado_724651" x="683.312" y="182.928" width="52.202" height="68.001" filterUnits="userSpaceOnUse">
      <feOffset dx="3" dy="3" input="SourceAlpha"/>
      <feGaussianBlur stdDeviation="3" result="blur-4"/>
      <feFlood flood-opacity="0.161"/>
      <feComposite operator="in" in2="blur-4"/>
      <feComposite in="SourceGraphic"/>
    </filter>
    <clipPath id="clip-path">
      <rect id="Rectángulo_351735" data-name="Rectángulo 351735" width="444.843" height="258.291" fill="none"/>
    </clipPath>
  </defs>
  <g id="Grupo_1009258" data-name="Grupo 1009258" transform="translate(-390 -6728)">
    <path id="Trazado_724623" data-name="Trazado 724623" d="M15,0H805a15,15,0,0,1,15,15V290a15,15,0,0,1-15,15H15A15,15,0,0,1,0,290V15A15,15,0,0,1,15,0Z" transform="translate(390 6728)" opacity="0.15" fill="url(#radial-gradient)"/>
    <path id="Trazado_724624" data-name="Trazado 724624" d="M0,0H0" transform="translate(764.334 6769.216)" fill="none" stroke="#bababa" stroke-linecap="round" stroke-width="1"/>
    <path id="Trazado_724625" data-name="Trazado 724625" d="M0,0H394.672" transform="translate(768.844 6769.216)" fill="none" stroke="#bababa" stroke-linecap="round" stroke-width="1" stroke-dasharray="0 4.511"/>
    <path id="Trazado_724626" data-name="Trazado 724626" d="M0,0H0" transform="translate(1165.772 6769.216)" fill="none" stroke="#bababa" stroke-linecap="round" stroke-width="1"/>
    <path id="Trazado_724627" data-name="Trazado 724627" d="M0,0H0" transform="translate(764.334 6793.831)" fill="none" stroke="#bababa" stroke-linecap="round" stroke-width="1"/>
    <path id="Trazado_724628" data-name="Trazado 724628" d="M0,0H394.672" transform="translate(768.844 6793.831)" fill="none" stroke="#bababa" stroke-linecap="round" stroke-width="1" stroke-dasharray="0 4.511"/>
    <path id="Trazado_724629" data-name="Trazado 724629" d="M0,0H0" transform="translate(1165.772 6793.831)" fill="none" stroke="#bababa" stroke-linecap="round" stroke-width="1"/>
    <path id="Trazado_724630" data-name="Trazado 724630" d="M0,0H0" transform="translate(764.334 6818.446)" fill="none" stroke="#bababa" stroke-linecap="round" stroke-width="1"/>
    <path id="Trazado_724631" data-name="Trazado 724631" d="M0,0H394.672" transform="translate(768.844 6818.446)" fill="none" stroke="#bababa" stroke-linecap="round" stroke-width="1" stroke-dasharray="0 4.511"/>
    <path id="Trazado_724632" data-name="Trazado 724632" d="M0,0H0" transform="translate(1165.772 6818.446)" fill="none" stroke="#bababa" stroke-linecap="round" stroke-width="1"/>
    <path id="Trazado_724633" data-name="Trazado 724633" d="M0,0H0" transform="translate(764.334 6843.062)" fill="none" stroke="#bababa" stroke-linecap="round" stroke-width="1"/>
    <path id="Trazado_724634" data-name="Trazado 724634" d="M0,0H394.672" transform="translate(768.844 6843.062)" fill="none" stroke="#bababa" stroke-linecap="round" stroke-width="1" stroke-dasharray="0 4.511"/>
    <path id="Trazado_724635" data-name="Trazado 724635" d="M0,0H0" transform="translate(1165.772 6843.062)" fill="none" stroke="#bababa" stroke-linecap="round" stroke-width="1"/>
    <path id="Trazado_724636" data-name="Trazado 724636" d="M0,0H0" transform="translate(764.334 6867.677)" fill="none" stroke="#bababa" stroke-linecap="round" stroke-width="1"/>
    <path id="Trazado_724637" data-name="Trazado 724637" d="M0,0H394.672" transform="translate(768.844 6867.677)" fill="none" stroke="#bababa" stroke-linecap="round" stroke-width="1" stroke-dasharray="0 4.511"/>
    <path id="Trazado_724638" data-name="Trazado 724638" d="M0,0H0" transform="translate(1165.772 6867.677)" fill="none" stroke="#bababa" stroke-linecap="round" stroke-width="1"/>
    <path id="Trazado_724639" data-name="Trazado 724639" d="M0,0H0" transform="translate(764.334 6892.292)" fill="none" stroke="#bababa" stroke-linecap="round" stroke-width="1"/>
    <path id="Trazado_724640" data-name="Trazado 724640" d="M0,0H394.672" transform="translate(768.844 6892.292)" fill="none" stroke="#bababa" stroke-linecap="round" stroke-width="1" stroke-dasharray="0 4.511"/>
    <path id="Trazado_724641" data-name="Trazado 724641" d="M0,0H0" transform="translate(1165.772 6892.292)" fill="none" stroke="#bababa" stroke-linecap="round" stroke-width="1"/>
    <path id="Trazado_724642" data-name="Trazado 724642" d="M0,0H0" transform="translate(764.334 6916.907)" fill="none" stroke="#bababa" stroke-linecap="round" stroke-width="1"/>
    <path id="Trazado_724643" data-name="Trazado 724643" d="M0,0H394.672" transform="translate(768.844 6916.907)" fill="none" stroke="#bababa" stroke-linecap="round" stroke-width="1" stroke-dasharray="0 4.511"/>
    <path id="Trazado_724644" data-name="Trazado 724644" d="M0,0H0" transform="translate(1165.772 6916.907)" fill="none" stroke="#bababa" stroke-linecap="round" stroke-width="1"/>
    <path id="Trazado_724645" data-name="Trazado 724645" d="M0,0H0" transform="translate(764.334 6941.522)" fill="none" stroke="#bababa" stroke-linecap="round" stroke-width="1"/>
    <path id="Trazado_724646" data-name="Trazado 724646" d="M0,0H394.672" transform="translate(768.844 6941.522)" fill="none" stroke="#bababa" stroke-linecap="round" stroke-width="1" stroke-dasharray="0 4.511"/>
    <path id="Trazado_724647" data-name="Trazado 724647" d="M0,0H0" transform="translate(1165.772 6941.522)" fill="none" stroke="#bababa" stroke-linecap="round" stroke-width="1"/>
    <g transform="matrix(1, 0, 0, 1, 390, 6728)" filter="url(#Trazado_724648)">
      <g id="Trazado_724648-2" data-name="Trazado 724648" transform="translate(418.1 138.93)" fill="#00a8c3">
        <path d="M 33.20200347900391 99.00199890136719 L 1.000001788139343 99.00199890136719 L 1.000001788139343 0.999999463558197 L 33.20200347900391 0.999999463558197 L 33.20200347900391 99.00199890136719 Z" stroke="none"/>
        <path d="M 2 2 L 2 98.00199890136719 L 32.20200347900391 98.00199890136719 L 32.20200347900391 2 L 2 2 M 0 0 L 34.20200347900391 0 L 34.20200347900391 100.0019989013672 L 0 100.0019989013672 L 0 0 Z" stroke="none" fill="#fff"/>
      </g>
    </g>
    <g transform="matrix(1, 0, 0, 1, 390, 6728)" filter="url(#Trazado_724649)">
      <g id="Trazado_724649-2" data-name="Trazado 724649" transform="translate(508.51 65.83)" fill="#00a8c3">
        <path d="M 33.20100021362305 172.0980072021484 L 1.000002026557922 172.0980072021484 L 1.000002026557922 1.000003576278687 L 33.20100021362305 1.000003576278687 L 33.20100021362305 172.0980072021484 Z" stroke="none"/>
        <path d="M 2.000003814697266 2 L 2.000003814697266 171.0980072021484 L 32.20100402832031 171.0980072021484 L 32.20100402832031 2 L 2.000003814697266 2 M 3.814697265625e-06 0 L 34.20100021362305 0 L 34.20100021362305 173.0980072021484 L 3.814697265625e-06 173.0980072021484 L 3.814697265625e-06 0 Z" stroke="none" fill="#fff"/>
      </g>
    </g>
    <g transform="matrix(1, 0, 0, 1, 390, 6728)" filter="url(#Trazado_724650)">
      <g id="Trazado_724650-2" data-name="Trazado 724650" transform="translate(598.91 90.45)" fill="#00a8c3">
        <path d="M 33.20099258422852 147.4830017089844 L 0.9999943971633911 147.4830017089844 L 0.9999943971633911 1.000000834465027 L 33.20099258422852 1.000000834465027 L 33.20099258422852 147.4830017089844 Z" stroke="none"/>
        <path d="M 1.999996185302734 2 L 1.999996185302734 146.4830017089844 L 32.20099258422852 146.4830017089844 L 32.20099258422852 2 L 1.999996185302734 2 M -3.814697265625e-06 0 L 34.20099258422852 0 L 34.20099258422852 148.4830017089844 L -3.814697265625e-06 148.4830017089844 L -3.814697265625e-06 0 Z" stroke="none" fill="#fff"/>
      </g>
    </g>
    <g transform="matrix(1, 0, 0, 1, 390, 6728)" filter="url(#Trazado_724651)">
      <g id="Trazado_724651-2" data-name="Trazado 724651" transform="translate(689.31 188.93)" fill="#00a8c3">
        <path d="M 33.20199966430664 49.00099945068359 L 0.9999979138374329 49.00099945068359 L 0.9999979138374329 0.9999997019767761 L 33.20199966430664 0.9999997019767761 L 33.20199966430664 49.00099945068359 Z" stroke="none"/>
        <path d="M 1.999996185302734 2 L 1.999996185302734 48.00099945068359 L 32.20199966430664 48.00099945068359 L 32.20199966430664 2 L 1.999996185302734 2 M -3.814697265625e-06 0 L 34.20199966430664 0 L 34.20199966430664 50.00099945068359 L -3.814697265625e-06 50.00099945068359 L -3.814697265625e-06 0 Z" stroke="none" fill="#fff"/>
      </g>
    </g>
    <g id="Grupo_1009076" data-name="Grupo 1009076" transform="translate(725 6751)">
      <g id="Grupo_1009075" data-name="Grupo 1009075" clip-path="url(#clip-path)">
        <path id="Trazado_723785" data-name="Trazado 723785" d="M444.843,215.929H39.334V0" fill="none" stroke="#5d5d5d" stroke-miterlimit="10" stroke-width="1.5"/>
        <path id="Trazado_723786" data-name="Trazado 723786" d="M27.847,15.136a2.314,2.314,0,0,1-.376,1.3,2.615,2.615,0,0,1-1.025.9,2.839,2.839,0,0,1,1.2.991,2.509,2.509,0,0,1,.42,1.422,2.608,2.608,0,0,1-.889,2.081,3.484,3.484,0,0,1-2.365.769,3.5,3.5,0,0,1-2.375-.772,2.606,2.606,0,0,1-.892-2.078,2.535,2.535,0,0,1,.423-1.436,2.722,2.722,0,0,1,1.19-.977,2.6,2.6,0,0,1-1.016-.9,2.335,2.335,0,0,1-.372-1.3,2.591,2.591,0,0,1,.82-2.016,3.17,3.17,0,0,1,2.215-.745,3.178,3.178,0,0,1,2.222.745,2.587,2.587,0,0,1,.82,2.016m-1.442,4.533a1.645,1.645,0,0,0-.441-1.193,1.55,1.55,0,0,0-1.166-.455,1.534,1.534,0,0,0-1.158.451,1.652,1.652,0,0,0-.434,1.2,1.606,1.606,0,0,0,.426,1.169,1.822,1.822,0,0,0,2.352.013,1.6,1.6,0,0,0,.421-1.182M26.193,15.2a1.543,1.543,0,0,0-.376-1.07,1.446,1.446,0,0,0-2.017-.02,1.544,1.544,0,0,0-.369,1.09,1.536,1.536,0,0,0,.373,1.087,1.462,1.462,0,0,0,2.016,0,1.536,1.536,0,0,0,.373-1.087" fill="#0f576b"/>
        <path id="Trazado_723787" data-name="Trazado 723787" d="M28.2,38.434l-3.979,9.03H22.481l3.972-8.62H21.306V37.511h6.9Z" fill="#0f576b"/>
        <path id="Trazado_723788" data-name="Trazado 723788" d="M26.747,62.463v1.374h-.2a3.294,3.294,0,0,0-2.228.766,3.2,3.2,0,0,0-.992,2.112,2.7,2.7,0,0,1,2.044-.841,2.544,2.544,0,0,1,2.081.93,3.654,3.654,0,0,1,.763,2.4,3.427,3.427,0,0,1-.892,2.458,3.083,3.083,0,0,1-2.341.94,3.006,3.006,0,0,1-2.416-1.1,4.322,4.322,0,0,1-.927-2.885v-.567a6.1,6.1,0,0,1,1.274-4.1,4.578,4.578,0,0,1,3.668-1.483Zm-1.784,4.751a1.755,1.755,0,0,0-1,.308,1.8,1.8,0,0,0-.666.82v.506a2.978,2.978,0,0,0,.465,1.76,1.417,1.417,0,0,0,1.2.653,1.4,1.4,0,0,0,1.169-.554,2.305,2.305,0,0,0,.431-1.456,2.341,2.341,0,0,0-.438-1.47,1.4,1.4,0,0,0-1.162-.567" fill="#0f576b"/>
        <path id="Trazado_723789" data-name="Trazado 723789" d="M22.023,92.529l.54-5.018h5.346v1.436H23.944l-.274,2.379a3.077,3.077,0,0,1,1.559-.4,2.776,2.776,0,0,1,2.212.91,3.608,3.608,0,0,1,.789,2.447,3.315,3.315,0,0,1-.875,2.416,3.194,3.194,0,0,1-2.4.9,3.349,3.349,0,0,1-2.267-.776,2.8,2.8,0,0,1-.974-2.047h1.607a1.752,1.752,0,0,0,.519,1.111,1.584,1.584,0,0,0,1.108.386,1.427,1.427,0,0,0,1.193-.547,2.365,2.365,0,0,0,.427-1.49A2.083,2.083,0,0,0,26.1,92.8a1.649,1.649,0,0,0-1.3-.53,1.818,1.818,0,0,0-1.449.588Z" fill="#0f576b"/>
        <path id="Trazado_723790" data-name="Trazado 723790" d="M27.2,118.916h1.237v1.333H27.2v2.215H25.537v-2.215h-4.3l-.048-1.011,4.293-6.727H27.2Zm-4.266,0h2.6V114.76l-.123.219Z" fill="#0f576b"/>
        <path id="Trazado_723791" data-name="Trazado 723791" d="M23.5,141.729h1.012a1.81,1.81,0,0,0,1.213-.4,1.417,1.417,0,0,0,.448-1.128,1.541,1.541,0,0,0-.372-1.1,1.5,1.5,0,0,0-1.139-.393,1.583,1.583,0,0,0-1.1.386,1.286,1.286,0,0,0-.431,1.008H21.47a2.506,2.506,0,0,1,.407-1.394,2.706,2.706,0,0,1,1.135-.981,3.685,3.685,0,0,1,1.63-.352,3.418,3.418,0,0,1,2.34.748,2.623,2.623,0,0,1,.852,2.082,2.115,2.115,0,0,1-.428,1.261,2.677,2.677,0,0,1-1.1.892,2.445,2.445,0,0,1,1.248.882,2.418,2.418,0,0,1,.427,1.435,2.677,2.677,0,0,1-.919,2.133,3.571,3.571,0,0,1-2.417.793,3.54,3.54,0,0,1-2.352-.766,2.522,2.522,0,0,1-.916-2.037h1.661a1.388,1.388,0,0,0,.442,1.067,1.669,1.669,0,0,0,1.185.41,1.727,1.727,0,0,0,1.217-.41,1.812,1.812,0,0,0-.021-2.4,1.987,1.987,0,0,0-1.38-.424H23.5Z" fill="#0f576b"/>
        <path id="Trazado_723792" data-name="Trazado 723792" d="M28.271,172.464H21.579v-1.142l3.315-3.616a8.22,8.22,0,0,0,1.022-1.336,2.165,2.165,0,0,0,.3-1.077,1.633,1.633,0,0,0-.4-1.148,1.384,1.384,0,0,0-1.076-.438,1.6,1.6,0,0,0-1.251.492,1.939,1.939,0,0,0-.445,1.347H21.387a3.261,3.261,0,0,1,.413-1.637,2.85,2.85,0,0,1,1.184-1.132,3.769,3.769,0,0,1,1.773-.4,3.36,3.36,0,0,1,2.287.729,2.524,2.524,0,0,1,.837,2.012,3.393,3.393,0,0,1-.421,1.562,8.8,8.8,0,0,1-1.377,1.856l-2.433,2.6h4.621Z" fill="#0f576b"/>
        <path id="Trazado_723793" data-name="Trazado 723793" d="M26.077,197.465H24.423v-8l-2.441.832v-1.395l3.883-1.428h.212Z" fill="#0f576b"/>
        <path id="Trazado_723794" data-name="Trazado 723794" d="M28.066,218.274a5.431,5.431,0,0,1-.8,3.238,2.84,2.84,0,0,1-2.444,1.09,2.879,2.879,0,0,1-2.431-1.063,5.207,5.207,0,0,1-.837-3.148v-1.723a5.344,5.344,0,0,1,.8-3.22,2.86,2.86,0,0,1,2.45-1.073,2.88,2.88,0,0,1,2.437,1.046,5.182,5.182,0,0,1,.824,3.131Zm-1.661-1.859a4.21,4.21,0,0,0-.383-2.054,1.463,1.463,0,0,0-2.413-.035,3.893,3.893,0,0,0-.4,1.932v2.256a4.332,4.332,0,0,0,.389,2.078,1.309,1.309,0,0,0,1.224.683A1.287,1.287,0,0,0,26,220.643a4.072,4.072,0,0,0,.4-1.979Z" fill="#0f576b"/>
        <path id="Trazado_723795" data-name="Trazado 723795" d="M100.914,233.16H99.26v-8L96.819,226v-1.4l3.883-1.428h.212Z" fill="#0f576b"/>
        <path id="Trazado_723796" data-name="Trazado 723796" d="M194.067,233.16h-6.692v-1.142l3.315-3.616a8.22,8.22,0,0,0,1.022-1.336,2.165,2.165,0,0,0,.3-1.077,1.633,1.633,0,0,0-.4-1.148,1.384,1.384,0,0,0-1.076-.438,1.6,1.6,0,0,0-1.251.492,1.939,1.939,0,0,0-.445,1.347h-1.661a3.261,3.261,0,0,1,.413-1.637,2.85,2.85,0,0,1,1.184-1.132,3.768,3.768,0,0,1,1.773-.4,3.36,3.36,0,0,1,2.287.729,2.524,2.524,0,0,1,.837,2.012,3.394,3.394,0,0,1-.421,1.562,8.8,8.8,0,0,1-1.377,1.856l-2.433,2.6h4.621Z" fill="#0f576b"/>
        <path id="Trazado_723797" data-name="Trazado 723797" d="M280.71,227.425h1.012a1.816,1.816,0,0,0,1.213-.4,1.417,1.417,0,0,0,.448-1.128,1.543,1.543,0,0,0-.372-1.1,1.5,1.5,0,0,0-1.139-.393,1.587,1.587,0,0,0-1.1.385,1.29,1.29,0,0,0-.431,1.009H278.68a2.5,2.5,0,0,1,.407-1.394,2.722,2.722,0,0,1,1.135-.982,3.7,3.7,0,0,1,1.63-.351,3.423,3.423,0,0,1,2.34.748,2.624,2.624,0,0,1,.852,2.082,2.115,2.115,0,0,1-.428,1.261,2.67,2.67,0,0,1-1.1.892,2.313,2.313,0,0,1,1.675,2.317,2.674,2.674,0,0,1-.919,2.133,3.576,3.576,0,0,1-2.417.793,3.54,3.54,0,0,1-2.352-.766,2.522,2.522,0,0,1-.916-2.037h1.661a1.388,1.388,0,0,0,.442,1.067,1.669,1.669,0,0,0,1.185.41,1.727,1.727,0,0,0,1.217-.41,1.812,1.812,0,0,0-.021-2.4,1.987,1.987,0,0,0-1.38-.424h-.978Z" fill="#0f576b"/>
        <path id="Trazado_723798" data-name="Trazado 723798" d="M375.368,229.612h1.237v1.333h-1.237v2.215h-1.662v-2.215h-4.3l-.048-1.012,4.293-6.726h1.716Zm-4.266,0h2.6v-4.156l-.123.218Z" fill="#0f576b"/>
        <path id="Trazado_723799" data-name="Trazado 723799" d="M1.1,104.789V98.842H0V97.393H1.1v-.629a2.552,2.552,0,0,1,.715-1.932,2.763,2.763,0,0,1,2-.687,4.692,4.692,0,0,1,1.005.136L4.8,95.8a2.512,2.512,0,0,0-.6-.062q-1.115,0-1.115,1.055v.6h1.47v1.449H3.083v5.947Z"/>
        <path id="Trazado_723800" data-name="Trazado 723800" d="M5.564,95.479a.97.97,0,0,1,.3-.732,1.118,1.118,0,0,1,.81-.287,1.123,1.123,0,0,1,.807.287,1.047,1.047,0,0,1,0,1.47,1.127,1.127,0,0,1-.8.287,1.126,1.126,0,0,1-.8-.287.974.974,0,0,1-.3-.738m2.1,9.31H5.681v-7.4H7.663Z"/>
        <path id="Trazado_723801" data-name="Trazado 723801" d="M198.126,248.659l1.866-3.432h2.359l-2.9,4.936,2.974,5.017H200.04l-1.914-3.486-1.914,3.486h-2.386l2.974-5.017-2.9-4.936h2.359Z"/>
        <path id="Trazado_723802" data-name="Trazado 723802" d="M206.9,251.134a10.489,10.489,0,0,1,.417-2.98,7.853,7.853,0,0,1,1.23-2.505,4.586,4.586,0,0,1,1.764-1.515l.383,1.066a4.77,4.77,0,0,0-1.559,2.284,10.564,10.564,0,0,0-.56,3.609v.212a10.749,10.749,0,0,0,.554,3.623,4.835,4.835,0,0,0,1.565,2.317l-.383,1.046a4.587,4.587,0,0,1-1.733-1.472,7.742,7.742,0,0,1-1.227-2.438,10.474,10.474,0,0,1-.451-2.885Z"/>
        <path id="Trazado_723803" data-name="Trazado 723803" d="M219.953,255.181H217.9l-3.992-6.549v6.549h-2.051v-9.953h2.051l4,6.562v-6.562h2.044Z"/>
        <path id="Trazado_723804" data-name="Trazado 723804" d="M221.306,251.414a4.4,4.4,0,0,1,.424-1.962,3.1,3.1,0,0,1,1.221-1.333,3.558,3.558,0,0,1,1.849-.471,3.369,3.369,0,0,1,2.444.916,3.682,3.682,0,0,1,1.056,2.488l.013.506a3.863,3.863,0,0,1-.95,2.731,3.682,3.682,0,0,1-5.1,0,3.936,3.936,0,0,1-.954-2.789Zm1.976.141a2.766,2.766,0,0,0,.4,1.612,1.425,1.425,0,0,0,2.256.007,3.023,3.023,0,0,0,.4-1.763,2.737,2.737,0,0,0-.4-1.6,1.309,1.309,0,0,0-1.134-.568,1.29,1.29,0,0,0-1.122.565,3.076,3.076,0,0,0-.4,1.749"/>
        <path id="Trazado_723805" data-name="Trazado 723805" d="M229.633,254.21a.994.994,0,0,1,.318-.766,1.13,1.13,0,0,1,.8-.294,1.146,1.146,0,0,1,.8.294,1,1,0,0,1,.317.766.98.98,0,0,1-.314.756,1.258,1.258,0,0,1-1.607,0,.98.98,0,0,1-.314-.756"/>
        <path id="Trazado_723806" data-name="Trazado 723806" d="M236.776,251.427a4.462,4.462,0,0,1,.776-2.755,2.519,2.519,0,0,1,2.123-1.025,2.269,2.269,0,0,1,1.784.807V244.68h1.982v10.5h-1.784l-.1-.786a2.327,2.327,0,0,1-1.9.923,2.516,2.516,0,0,1-2.1-1.028,4.614,4.614,0,0,1-.789-2.862m1.976.141a2.947,2.947,0,0,0,.362,1.6,1.181,1.181,0,0,0,1.053.555,1.324,1.324,0,0,0,1.292-.775v-2.933a1.3,1.3,0,0,0-1.278-.776q-1.428,0-1.429,2.328"/>
        <path id="Trazado_723807" data-name="Trazado 723807" d="M248.377,255.317a3.631,3.631,0,0,1-2.65-1,3.552,3.552,0,0,1-1.021-2.659v-.191a4.468,4.468,0,0,1,.43-1.993,3.16,3.16,0,0,1,1.22-1.353,3.416,3.416,0,0,1,1.8-.476,3.074,3.074,0,0,1,2.389.957,3.892,3.892,0,0,1,.872,2.714v.807h-4.71a1.83,1.83,0,0,0,.577,1.162,1.745,1.745,0,0,0,1.22.437,2.133,2.133,0,0,0,1.785-.827l.97,1.087a2.97,2.97,0,0,1-1.2.982,3.956,3.956,0,0,1-1.681.351m-.226-6.077a1.233,1.233,0,0,0-.953.4,2.062,2.062,0,0,0-.469,1.14h2.748v-.158a1.477,1.477,0,0,0-.355-1.02,1.276,1.276,0,0,0-.971-.36"/>
        <path id="Trazado_723808" data-name="Trazado 723808" d="M257.954,248.591a2.466,2.466,0,0,1,1.976-.943q2.406,0,2.44,2.8v4.737h-1.976v-4.694a1.374,1.374,0,0,0-.273-.941,1.169,1.169,0,0,0-.909-.306,1.344,1.344,0,0,0-1.258.672v5.269h-1.976v-10.5h1.976Z"/>
        <path id="Trazado_723809" data-name="Trazado 723809" d="M263.847,245.87a.966.966,0,0,1,.3-.731,1.281,1.281,0,0,1,1.616,0,1.043,1.043,0,0,1,0,1.469,1.27,1.27,0,0,1-1.608,0,.97.97,0,0,1-.3-.738m2.1,9.311h-1.982v-7.4h1.982Z"/>
        <path id="Trazado_723810" data-name="Trazado 723810" d="M269.664,247.784v7.8a2.647,2.647,0,0,1-.65,1.9,2.468,2.468,0,0,1-1.873.68,3.98,3.98,0,0,1-.977-.116v-1.566a3.711,3.711,0,0,0,.622.062q.894,0,.895-.95v-7.814Zm-2.14-1.914a.976.976,0,0,1,.3-.731,1.284,1.284,0,0,1,1.621,0,1.047,1.047,0,0,1-.008,1.469,1.265,1.265,0,0,1-1.6,0,.968.968,0,0,1-.305-.738"/>
        <path id="Trazado_723811" data-name="Trazado 723811" d="M270.9,251.414a4.4,4.4,0,0,1,.424-1.962,3.1,3.1,0,0,1,1.221-1.333,3.558,3.558,0,0,1,1.849-.471,3.368,3.368,0,0,1,2.444.916,3.682,3.682,0,0,1,1.056,2.488l.013.506a3.863,3.863,0,0,1-.95,2.731,3.682,3.682,0,0,1-5.1,0,3.936,3.936,0,0,1-.954-2.789Zm1.976.141a2.766,2.766,0,0,0,.4,1.612,1.425,1.425,0,0,0,2.256.007,3.023,3.023,0,0,0,.4-1.763,2.737,2.737,0,0,0-.4-1.6,1.309,1.309,0,0,0-1.134-.568,1.29,1.29,0,0,0-1.122.565,3.076,3.076,0,0,0-.4,1.749"/>
        <path id="Trazado_723812" data-name="Trazado 723812" d="M283.131,253.137a.636.636,0,0,0-.358-.57,4.056,4.056,0,0,0-1.153-.373q-2.639-.554-2.638-2.243a2.03,2.03,0,0,1,.816-1.643,3.291,3.291,0,0,1,2.137-.66,3.548,3.548,0,0,1,2.252.663,2.088,2.088,0,0,1,.844,1.722h-1.975a.954.954,0,0,0-.274-.7,1.157,1.157,0,0,0-.854-.277,1.181,1.181,0,0,0-.773.226.711.711,0,0,0-.273.574.609.609,0,0,0,.311.53,3.238,3.238,0,0,0,1.049.349,8.386,8.386,0,0,1,1.244.331,2.044,2.044,0,0,1,1.566,1.989,1.929,1.929,0,0,1-.868,1.638,3.745,3.745,0,0,1-2.242.625,3.933,3.933,0,0,1-1.652-.331,2.788,2.788,0,0,1-1.131-.91,2.113,2.113,0,0,1-.41-1.248h1.873a1.035,1.035,0,0,0,.39.807,1.537,1.537,0,0,0,.971.28,1.431,1.431,0,0,0,.858-.215.671.671,0,0,0,.29-.564"/>
        <path id="Trazado_723813" data-name="Trazado 723813" d="M289.728,251.291a10,10,0,0,1-.444,2.974,8.07,8.07,0,0,1-1.28,2.522,4.583,4.583,0,0,1-1.784,1.5l-.383-1.046a4.8,4.8,0,0,0,1.533-2.256,10.486,10.486,0,0,0,.581-3.507v-.362a10.665,10.665,0,0,0-.559-3.6,5,5,0,0,0-1.555-2.338l.383-1.046a4.618,4.618,0,0,1,1.754,1.463,7.958,7.958,0,0,1,1.277,2.467,9.88,9.88,0,0,1,.477,2.919Z"/>
      </g>
    </g>
    <g id="Trazado_724123" data-name="Trazado 724123" transform="translate(486.014 6814)" fill="#fff">
      <path d="M 123.684440612793 160.5 L 0.5000041127204895 160.5 L 0.5000041127204895 0.5 L 123.684440612793 0.5 L 123.684440612793 160.5 Z" stroke="none"/>
      <path d="M 0.9999923706054688 1 L 0.9999923706054688 160 L 123.184455871582 160 L 123.184455871582 1 L 0.9999923706054688 1 M -7.62939453125e-06 0 L 124.184455871582 0 L 124.184455871582 161 L -7.62939453125e-06 161 L -7.62939453125e-06 0 Z" stroke="none" fill="#00bcd4"/>
    </g>
    <g id="Trazado_724652" data-name="Trazado 724652" transform="translate(486.014 6786)" fill="#00bcd4">
      <path d="M 123.684455871582 27.5 L 0.5000074505805969 27.5 L 0.5000074505805969 0.5 L 123.684455871582 0.5 L 123.684455871582 27.5 Z" stroke="none"/>
      <path d="M 0.9999923706054688 1 L 0.9999923706054688 27 L 123.184440612793 27 L 123.184440612793 1 L 0.9999923706054688 1 M -7.62939453125e-06 0 L 124.184440612793 0 L 124.184440612793 28 L -7.62939453125e-06 28 L -7.62939453125e-06 0 Z" stroke="none" fill="#00bcd4"/>
    </g>
    <path id="Trazado_724653" data-name="Trazado 724653" d="M28.383,7.547l2.133-3.922h2.7L29.9,9.266,33.3,15H30.57l-2.187-3.984L26.2,15H23.469l3.4-5.734L23.555,3.625h2.7ZM36.711,15H34.445V6.547h2.266Zm-2.4-10.641a1.112,1.112,0,0,1,.34-.836,1.465,1.465,0,0,1,1.848,0,1.105,1.105,0,0,1,.344.836A1.108,1.108,0,0,1,36.5,5.2a1.448,1.448,0,0,1-1.836,0A1.108,1.108,0,0,1,34.313,4.359Zm-.227,32.789a6.61,6.61,0,0,1-.867,3.773,3.084,3.084,0,0,1-2.711,1.234,3.107,3.107,0,0,1-2.7-1.207,6.274,6.274,0,0,1-.906-3.605v-1.93a6.463,6.463,0,0,1,.867-3.727,3.108,3.108,0,0,1,2.719-1.219,3.136,3.136,0,0,1,2.7,1.176,6.237,6.237,0,0,1,.891,3.629Zm-1.445-1.977a5.3,5.3,0,0,0-.516-2.676,1.775,1.775,0,0,0-1.633-.84,1.751,1.751,0,0,0-1.617.836,5.171,5.171,0,0,0-.523,2.57v2.313a5.381,5.381,0,0,0,.535,2.723,1.771,1.771,0,0,0,1.621.879,1.747,1.747,0,0,0,1.59-.828,5.186,5.186,0,0,0,.543-2.609ZM31.7,69H30.25V59.367l-2.914,1.07V59.125l4.141-1.555H31.7Zm2.7,27H26.953V94.961l3.938-4.375A9.355,9.355,0,0,0,32.1,88.973a2.693,2.693,0,0,0,.332-1.285,2.041,2.041,0,0,0-.539-1.461,1.885,1.885,0,0,0-1.437-.57,2.232,2.232,0,0,0-1.676.613,2.343,2.343,0,0,0-.6,1.707H26.734a3.355,3.355,0,0,1,1.012-2.539,3.751,3.751,0,0,1,2.707-.969,3.6,3.6,0,0,1,2.508.832,2.838,2.838,0,0,1,.922,2.215q0,1.68-2.141,4L28.7,94.82h5.711Zm-5.352,20.609h1.086a2.387,2.387,0,0,0,1.609-.539,1.8,1.8,0,0,0,.586-1.414,1.764,1.764,0,0,0-1.992-2,2.072,2.072,0,0,0-1.5.535,1.873,1.873,0,0,0-.559,1.418H26.844a2.9,2.9,0,0,1,.988-2.246,3.6,3.6,0,0,1,2.512-.895,3.558,3.558,0,0,1,2.523.852,3.076,3.076,0,0,1,.914,2.367,2.5,2.5,0,0,1-.48,1.438,2.9,2.9,0,0,1-1.309,1.039,2.8,2.8,0,0,1,1.449.984,2.734,2.734,0,0,1,.512,1.68,3.1,3.1,0,0,1-1,2.43,3.745,3.745,0,0,1-2.6.9,3.844,3.844,0,0,1-2.605-.867,2.877,2.877,0,0,1-1-2.289H28.2a1.859,1.859,0,0,0,.586,1.438,2.229,2.229,0,0,0,1.57.539,2.187,2.187,0,0,0,1.6-.547,2.108,2.108,0,0,0,.555-1.57,1.912,1.912,0,0,0-.609-1.523,2.655,2.655,0,0,0-1.758-.547H29.055Zm4,29.57h1.578v1.18H33.055V150H31.6v-2.641h-5.18v-.852l5.094-7.883h1.539Zm-4.992,0H31.6V140.6l-.172.313Z" transform="translate(487.014 6790.921)" fill="#12263f"/>
    <path id="Trazado_724654" data-name="Trazado 724654" d="M27.047,15V8.2H25.789V6.547h1.258V6.156a3.17,3.17,0,0,1,.98-2.457,3.945,3.945,0,0,1,2.723-.863,9.031,9.031,0,0,1,2.563.461l-.328,1.867A10,10,0,0,0,31.8,4.871a5.835,5.835,0,0,0-.906-.066q-1.578,0-1.578,1.4v.344h1.664V8.2H29.313V15Zm7.32,0H32.1V6.547h2.266Zm.039,27H26.953V40.961l3.938-4.375A9.354,9.354,0,0,0,32.1,34.973a2.693,2.693,0,0,0,.332-1.285,2.041,2.041,0,0,0-.539-1.461,1.885,1.885,0,0,0-1.437-.57,2.232,2.232,0,0,0-1.676.613,2.343,2.343,0,0,0-.6,1.707H26.734a3.355,3.355,0,0,1,1.012-2.539,3.751,3.751,0,0,1,2.707-.969,3.6,3.6,0,0,1,2.508.832,2.838,2.838,0,0,1,.922,2.215q0,1.68-2.141,4L28.7,40.82h5.711ZM33.055,65.18h1.578v1.18H33.055V69H31.6V66.359h-5.18v-.852l5.094-7.883h1.539Zm-4.992,0H31.6V59.6l-.172.313ZM34.3,85.438,29.586,96H28.07l4.7-10.187H26.609V84.625H34.3Zm-1.672,26.18v1.227h-.266a3.805,3.805,0,0,0-2.687,1,4.161,4.161,0,0,0-1.156,2.727,3.085,3.085,0,0,1,2.453-1.031,2.95,2.95,0,0,1,2.371,1.047,4.588,4.588,0,0,1-.07,5.516,3.3,3.3,0,0,1-2.566,1.055,3.247,3.247,0,0,1-2.648-1.254,4.97,4.97,0,0,1-1.016-3.23v-.555a7.488,7.488,0,0,1,1.34-4.8,4.921,4.921,0,0,1,3.988-1.7Zm-1.9,5.125a2.429,2.429,0,0,0-2.234,1.563v.531a3.731,3.731,0,0,0,.633,2.266,1.9,1.9,0,0,0,1.578.859,1.838,1.838,0,0,0,1.535-.719,3.452,3.452,0,0,0-.008-3.777A1.816,1.816,0,0,0,30.727,116.742ZM34.406,150H26.953v-1.039l3.938-4.375a9.354,9.354,0,0,0,1.207-1.613,2.693,2.693,0,0,0,.332-1.285,2.041,2.041,0,0,0-.539-1.461,1.885,1.885,0,0,0-1.437-.57,2.232,2.232,0,0,0-1.676.613,2.343,2.343,0,0,0-.6,1.707H26.734a3.355,3.355,0,0,1,1.012-2.539,3.751,3.751,0,0,1,2.707-.969,3.6,3.6,0,0,1,2.508.832,2.838,2.838,0,0,1,.922,2.215q0,1.68-2.141,4l-3.047,3.3h5.711Zm-4.516,27h-7.8v-1.547l3.68-3.922a9.078,9.078,0,0,0,1.121-1.445,2.322,2.322,0,0,0,.363-1.172,1.738,1.738,0,0,0-.383-1.191,1.382,1.382,0,0,0-1.094-.434,1.49,1.49,0,0,0-1.207.527,2.089,2.089,0,0,0-.441,1.387H21.867a3.729,3.729,0,0,1,.5-1.9,3.5,3.5,0,0,1,1.4-1.348,4.262,4.262,0,0,1,2.055-.488,4.036,4.036,0,0,1,2.73.844,2.985,2.985,0,0,1,.973,2.383,3.825,3.825,0,0,1-.437,1.719,9.552,9.552,0,0,1-1.5,2.039L25,175.18h4.891Zm6.867,0H34.5v-8.715l-2.7.832V167.3l4.711-1.687h.242Z" transform="translate(548.014 6790.921)" fill="#12263f"/>
    <path id="Trazado_724655" data-name="Trazado 724655" d="M0,0V188.713" transform="translate(548.014 6786.5)" fill="none" stroke="#00bcd4" stroke-width="1"/>
    <path id="Trazado_724656" data-name="Trazado 724656" d="M0,0H124.051" transform="translate(486.014 6841.5)" fill="none" stroke="#00bcd4" stroke-width="1"/>
    <path id="Trazado_724657" data-name="Trazado 724657" d="M0,0H124.051" transform="translate(486.014 6893.5)" fill="none" stroke="#00bcd4" stroke-width="1"/>
    <path id="Trazado_724658" data-name="Trazado 724658" d="M0,0H124.051" transform="translate(486.014 6949.214)" fill="none" stroke="#00bcd4" stroke-width="1"/>
    <path id="Trazado_724659" data-name="Trazado 724659" d="M0,0H124.051" transform="translate(486.014 6867.5)" fill="none" stroke="#00bcd4" stroke-width="1"/>
    <path id="Trazado_724660" data-name="Trazado 724660" d="M0,0H124.051" transform="translate(486.014 6919.5)" fill="none" stroke="#00bcd4" stroke-width="1"/>
  </g>
</svg>
