<svg xmlns="http://www.w3.org/2000/svg" xmlns:xlink="http://www.w3.org/1999/xlink" width="400" height="261.88" viewBox="0 0 400 261.88">
  <defs>
    <clipPath id="clip-path">
      <rect id="Rectángulo_351713" data-name="Rectángulo 351713" width="400" height="228.205" fill="none"/>
    </clipPath>
    <clipPath id="clip-path-3">
      <rect id="Rectángulo_351641" data-name="Rectángulo 351641" width="148.724" height="162.71" transform="translate(25.967 64.665)" fill="none"/>
    </clipPath>
    <clipPath id="clip-path-4">
      <rect id="Rectángulo_351642" data-name="Rectángulo 351642" width="67.383" height="92.794" transform="translate(272.092 134.58)" fill="none"/>
    </clipPath>
    <clipPath id="clip-path-5">
      <rect id="Rectángulo_351648" data-name="Rectángulo 351648" width="34.63" height="116.065" transform="translate(258.077 111.31)" fill="none"/>
    </clipPath>
    <clipPath id="clip-path-6">
      <path id="Trazado_723742" data-name="Trazado 723742" d="M298.639,194.294a22.157,22.157,0,1,0,21.8-18.238,22.179,22.179,0,0,0-21.8,18.238" fill="none"/>
    </clipPath>
  </defs>
  <g id="Grupo_1009050" data-name="Grupo 1009050" transform="translate(-1020 -5980)">
    <rect id="farmaceutica-asiatica-que-trabaja-farmacia-o-farmacia" width="400" height="261.88" rx="15" transform="translate(1020 5980)" fill="none"/>
    <g id="Grupo_1009049" data-name="Grupo 1009049" transform="translate(1020 5991)">
      <g id="Grupo_1009048" data-name="Grupo 1009048" clip-path="url(#clip-path)">
        <g id="Grupo_1009043" data-name="Grupo 1009043">
          <g id="Grupo_1009042" data-name="Grupo 1009042" clip-path="url(#clip-path)">
            <g id="Grupo_1009035" data-name="Grupo 1009035" opacity="0.35" style="mix-blend-mode: multiply;isolation: isolate">
              <g id="Grupo_1009034" data-name="Grupo 1009034">
                <g id="Grupo_1009033" data-name="Grupo 1009033" clip-path="url(#clip-path-3)">
                  <path id="Trazado_723680" data-name="Trazado 723680" d="M169.484,67.834a14.068,14.068,0,0,0-8.915-3.168H65.949A14.827,14.827,0,0,0,51.121,79.493V203.376H25.967v12.111a11.913,11.913,0,0,0,10.8,11.862H51.121v.026h84.972c.286,0,.569-.01.851-.026h.993c-.2,0-.4-.02-.6-.03a14.824,14.824,0,0,0,13.582-14.77V85.609h23.771V78.787a14.1,14.1,0,0,0-5.208-10.953" fill="#939598"/>
                </g>
              </g>
            </g>
            <g id="Grupo_1009038" data-name="Grupo 1009038" opacity="0.35" style="mix-blend-mode: multiply;isolation: isolate">
              <g id="Grupo_1009037" data-name="Grupo 1009037">
                <g id="Grupo_1009036" data-name="Grupo 1009036" clip-path="url(#clip-path-4)">
                  <path id="Trazado_723681" data-name="Trazado 723681" d="M328.993,134.58H282.575a10.5,10.5,0,0,0-10.483,10.482V216.89a10.5,10.5,0,0,0,10.483,10.484h46.418a10.494,10.494,0,0,0,10.482-10.484V145.062a10.494,10.494,0,0,0-10.482-10.482" fill="#939598"/>
                </g>
              </g>
            </g>
            <path id="Rectángulo_351643" data-name="Rectángulo 351643" d="M10.482,0H56.9A10.484,10.484,0,0,1,67.383,10.484V82.31A10.484,10.484,0,0,1,56.9,92.794H10.482A10.482,10.482,0,0,1,0,82.312V10.482A10.482,10.482,0,0,1,10.482,0Z" transform="translate(267.491 134.58)" fill="#fff"/>
            <path id="Rectángulo_351644" data-name="Rectángulo 351644" d="M10.482,0H56.9A10.484,10.484,0,0,1,67.383,10.484V82.31A10.484,10.484,0,0,1,56.9,92.794H10.482A10.482,10.482,0,0,1,0,82.312V10.482A10.482,10.482,0,0,1,10.482,0Z" transform="translate(267.491 134.58)" fill="none" stroke="#444" stroke-linecap="round" stroke-linejoin="round" stroke-width="1.661"/>
            <rect id="Rectángulo_351645" data-name="Rectángulo 351645" width="55.786" height="68.726" transform="translate(273.186 143.774)" fill="#00bcd4"/>
            <path id="Trazado_723682" data-name="Trazado 723682" d="M301.078,216.348a3.081,3.081,0,1,0,3.082,3.079,3.079,3.079,0,0,0-3.082-3.079" fill="#fff"/>
            <path id="Trazado_723683" data-name="Trazado 723683" d="M301.078,216.348a3.081,3.081,0,1,0,3.082,3.079A3.079,3.079,0,0,0,301.078,216.348Z" fill="none" stroke="#444" stroke-linecap="round" stroke-linejoin="round" stroke-width="1.661"/>
            <path id="Trazado_723684" data-name="Trazado 723684" d="M282.214,172.87a18.259,18.259,0,1,0,18.259-18.259,18.258,18.258,0,0,0-18.259,18.259" fill="#4cebff"/>
            <path id="Trazado_723685" data-name="Trazado 723685" d="M282.214,172.87a18.259,18.259,0,1,0,18.259-18.259A18.258,18.258,0,0,0,282.214,172.87Z" fill="none" stroke="#444" stroke-miterlimit="10" stroke-width="1.661"/>
            <path id="Trazado_723686" data-name="Trazado 723686" d="M300.477,172.87V152.829a20.292,20.292,0,0,1,20.29,20.041Z" fill="#fff"/>
            <path id="Trazado_723687" data-name="Trazado 723687" d="M300.477,172.87V152.829a20.292,20.292,0,0,1,20.29,20.041Z" fill="none" stroke="#444" stroke-miterlimit="10" stroke-width="1.661"/>
            <path id="Trazado_723688" data-name="Trazado 723688" d="M318.735,172.757v.113a18.26,18.26,0,1,1-36.52,0c0-.036.006-.072.006-.113Z" fill="#36b8d1"/>
            <path id="Trazado_723689" data-name="Trazado 723689" d="M318.735,172.757v.113a18.26,18.26,0,1,1-36.52,0c0-.036.006-.072.006-.113Z" fill="none" stroke="#444" stroke-miterlimit="10" stroke-width="1.661"/>
            <path id="Trazado_723690" data-name="Trazado 723690" d="M300.477,172.779l15.37-15.374a22.012,22.012,0,0,1,.189,30.931Z" fill="#b29eee"/>
            <path id="Trazado_723691" data-name="Trazado 723691" d="M300.477,172.779l15.37-15.374a22.012,22.012,0,0,1,.189,30.931Z" fill="none" stroke="#444" stroke-miterlimit="10" stroke-width="1.661"/>
            <path id="Trazado_723692" data-name="Trazado 723692" d="M300.467,172.889l-9.129,17.847a20.294,20.294,0,0,1-8.932-27.086Z" fill="#fff"/>
            <path id="Trazado_723693" data-name="Trazado 723693" d="M300.467,172.889l-9.129,17.847a20.294,20.294,0,0,1-8.932-27.086Z" fill="none" stroke="#444" stroke-miterlimit="10" stroke-width="1.661"/>
            <path id="Trazado_723694" data-name="Trazado 723694" d="M300.494,172.757l6.516,20.175a21.46,21.46,0,0,1-26.935-13.578Z" fill="#ff9d00"/>
            <path id="Trazado_723695" data-name="Trazado 723695" d="M300.494,172.757l6.516,20.175a21.46,21.46,0,0,1-26.935-13.578Z" fill="none" stroke="#444" stroke-miterlimit="10" stroke-width="1.661"/>
            <path id="Trazado_723696" data-name="Trazado 723696" d="M293.3,172.757a7.176,7.176,0,1,0,7.178-7.178,7.179,7.179,0,0,0-7.178,7.178" fill="#65cbe9"/>
            <path id="Trazado_723697" data-name="Trazado 723697" d="M293.3,172.757a7.176,7.176,0,1,0,7.178-7.178A7.179,7.179,0,0,0,293.3,172.757Z" fill="none" stroke="#444" stroke-miterlimit="10" stroke-width="1.661"/>
            <rect id="Rectángulo_351646" data-name="Rectángulo 351646" width="37.02" height="2.295" transform="translate(279.992 201.102)" fill="#fff"/>
            <rect id="Rectángulo_351647" data-name="Rectángulo 351647" width="31.209" height="2.294" transform="translate(279.992 205.203)" fill="#fff"/>
            <g id="Grupo_1009041" data-name="Grupo 1009041" opacity="0.35" style="mix-blend-mode: multiply;isolation: isolate">
              <g id="Grupo_1009040" data-name="Grupo 1009040">
                <g id="Grupo_1009039" data-name="Grupo 1009039" clip-path="url(#clip-path-5)">
                  <path id="Trazado_723698" data-name="Trazado 723698" d="M264.171,111.31c-7.127,0-6.035,5.3-6.035,12.429v90.707a12.941,12.941,0,0,0,12.927,12.928h10c6.9-1.933,11.648-6.492,11.648-14.687V210.23H279.085v-89.5a9.417,9.417,0,0,0-9.416-9.417Z" fill="#939598"/>
                </g>
              </g>
            </g>
            <path id="Trazado_723699" data-name="Trazado 723699" d="M144.174,77.669a11.889,11.889,0,0,1,18.563-9.835,14.068,14.068,0,0,0-8.915-3.168H59.2A14.827,14.827,0,0,0,44.375,79.493V227.374h84.971a14.825,14.825,0,0,0,14.828-14.825V77.669Z" fill="#fff"/>
            <path id="Trazado_723700" data-name="Trazado 723700" d="M144.174,77.669a11.889,11.889,0,0,1,18.563-9.835,14.068,14.068,0,0,0-8.915-3.168H59.2A14.827,14.827,0,0,0,44.375,79.493V227.374h84.971a14.825,14.825,0,0,0,14.828-14.825V77.669Z" fill="none" stroke="#444" stroke-linecap="round" stroke-linejoin="round" stroke-width="1.661"/>
            <path id="Trazado_723701" data-name="Trazado 723701" d="M144.174,77.669v1.472h23.771v-.354a14.1,14.1,0,0,0-5.208-10.953,11.889,11.889,0,0,0-18.563,9.835" fill="#efefef"/>
            <path id="Trazado_723702" data-name="Trazado 723702" d="M144.174,77.669v1.472h23.771v-.354a14.1,14.1,0,0,0-5.208-10.953,11.889,11.889,0,0,0-18.563,9.835Z" fill="none" stroke="#444" stroke-linecap="round" stroke-linejoin="round" stroke-width="1.661"/>
            <rect id="Rectángulo_351649" data-name="Rectángulo 351649" width="5.777" height="2.574" transform="translate(112.362 98.981)" fill="#cdced1"/>
            <rect id="Rectángulo_351650" data-name="Rectángulo 351650" width="5.777" height="2.573" transform="translate(112.362 111.238)" fill="#cdced1"/>
            <rect id="Rectángulo_351651" data-name="Rectángulo 351651" width="5.777" height="2.574" transform="translate(112.362 123.493)" fill="#cdced1"/>
            <rect id="Rectángulo_351652" data-name="Rectángulo 351652" width="5.777" height="2.574" transform="translate(112.362 86.727)" fill="#cdced1"/>
            <rect id="Rectángulo_351653" data-name="Rectángulo 351653" width="5.777" height="2.574" transform="translate(112.362 135.747)" fill="#cdced1"/>
            <rect id="Rectángulo_351654" data-name="Rectángulo 351654" width="5.777" height="2.574" transform="translate(112.362 148.002)" fill="#cdced1"/>
            <rect id="Rectángulo_351655" data-name="Rectángulo 351655" width="5.777" height="2.574" transform="translate(112.362 160.256)" fill="#cdced1"/>
            <rect id="Rectángulo_351656" data-name="Rectángulo 351656" width="5.777" height="2.574" transform="translate(112.362 172.511)" fill="#cdced1"/>
            <rect id="Rectángulo_351657" data-name="Rectángulo 351657" width="5.777" height="2.574" transform="translate(112.362 172.512)" fill="#cdced1"/>
            <rect id="Rectángulo_351658" data-name="Rectángulo 351658" width="5.777" height="2.574" transform="translate(112.362 184.766)" fill="#cdced1"/>
            <rect id="Rectángulo_351659" data-name="Rectángulo 351659" width="5.777" height="2.574" transform="translate(112.362 197.02)" fill="#cdced1"/>
            <path id="Trazado_723703" data-name="Trazado 723703" d="M124.925,82.873h-3.792V214.7l3.792,2.033Z" fill="#cdced1"/>
            <path id="Trazado_723704" data-name="Trazado 723704" d="M119.305,215.487V203.376H19.221v12.11a11.912,11.912,0,0,0,10.8,11.862H131.19a11.863,11.863,0,0,1-11.885-11.861" fill="#fff"/>
            <path id="Trazado_723705" data-name="Trazado 723705" d="M119.305,215.487V203.376H19.221v12.11a11.912,11.912,0,0,0,10.8,11.862H131.19A11.863,11.863,0,0,1,119.305,215.487Z" fill="none" stroke="#444" stroke-linecap="round" stroke-linejoin="round" stroke-width="1.661"/>
            <rect id="Rectángulo_351660" data-name="Rectángulo 351660" width="2.934" height="3.706" transform="translate(63.236 209.018)" fill="#b0b3b7"/>
            <rect id="Rectángulo_351661" data-name="Rectángulo 351661" width="2.934" height="3.706" transform="translate(56.572 209.018)" fill="#b0b3b7"/>
            <rect id="Rectángulo_351662" data-name="Rectángulo 351662" width="2.935" height="3.706" transform="translate(49.908 209.018)" fill="#b0b3b7"/>
            <rect id="Rectángulo_351663" data-name="Rectángulo 351663" width="2.934" height="3.706" transform="translate(43.245 209.018)" fill="#b0b3b7"/>
            <rect id="Rectángulo_351664" data-name="Rectángulo 351664" width="2.935" height="3.706" transform="translate(36.582 209.018)" fill="#b0b3b7"/>
            <rect id="Rectángulo_351665" data-name="Rectángulo 351665" width="2.933" height="3.706" transform="translate(29.919 209.018)" fill="#b0b3b7"/>
            <rect id="Rectángulo_351666" data-name="Rectángulo 351666" width="2.934" height="3.706" transform="translate(23.255 209.018)" fill="#b0b3b7"/>
            <rect id="Rectángulo_351667" data-name="Rectángulo 351667" width="2.934" height="3.706" transform="translate(103.216 209.018)" fill="#b0b3b7"/>
            <rect id="Rectángulo_351668" data-name="Rectángulo 351668" width="2.934" height="3.706" transform="translate(96.552 209.018)" fill="#b0b3b7"/>
            <rect id="Rectángulo_351669" data-name="Rectángulo 351669" width="2.934" height="3.706" transform="translate(109.879 209.018)" fill="#b0b3b7"/>
            <rect id="Rectángulo_351670" data-name="Rectángulo 351670" width="2.935" height="3.706" transform="translate(89.889 209.018)" fill="#b0b3b7"/>
            <rect id="Rectángulo_351671" data-name="Rectángulo 351671" width="2.934" height="3.706" transform="translate(83.226 209.018)" fill="#b0b3b7"/>
            <rect id="Rectángulo_351672" data-name="Rectángulo 351672" width="2.935" height="3.706" transform="translate(76.562 209.018)" fill="#b0b3b7"/>
            <rect id="Rectángulo_351673" data-name="Rectángulo 351673" width="2.934" height="3.706" transform="translate(69.9 209.018)" fill="#b0b3b7"/>
            <path id="Trazado_723706" data-name="Trazado 723706" d="M75.58,97.2c-5.892-5.47,2.384-14.4,8.287-8.922,5.9,5.5-2.392,14.388-8.287,8.922M77.156,95.5c3.617,3.351,8.8-2.109,5.134-5.53-3.687-3.426-8.754,2.159-5.134,5.53" fill="#65cbe9"/>
            <path id="Trazado_723707" data-name="Trazado 723707" d="M74.8,195.891c-4.541-6.644,5.508-13.514,10.05-6.87s-5.509,13.51-10.05,6.87m2.9-6.547a3.768,3.768,0,0,0,4.253,6.221c4.107-2.809-.138-9.035-4.253-6.221" fill="#ff9d00"/>
            <path id="Trazado_723708" data-name="Trazado 723708" d="M76.8,167.482c-4.54-6.642,5.508-13.512,10.049-6.87s-5.509,13.509-10.049,6.87m2.9-6.546a3.767,3.767,0,1,0,4.252,6.219c4.106-2.807-.136-9.032-4.252-6.219" fill="#ff9d00"/>
            <path id="Trazado_723709" data-name="Trazado 723709" d="M71.907,145.2c-4.539-6.638,5.514-13.512,10.053-6.874s-5.511,13.516-10.053,6.874m1.916-1.312c2.81,4.11,9.034-.137,6.221-4.252s-9.031.143-6.221,4.252" fill="#65cbe9"/>
            <path id="Trazado_723710" data-name="Trazado 723710" d="M54.3,165.668c-4.542-6.643,5.511-13.517,10.052-6.874S58.84,172.3,54.3,165.668m1.913-1.308c2.809,4.108,9.035-.145,6.224-4.256s-9.037.141-6.224,4.256" fill="#65cbe9"/>
            <path id="Trazado_723711" data-name="Trazado 723711" d="M59.731,190.046c-4.54-6.642,5.51-13.514,10.052-6.874s-5.513,13.512-10.052,6.874m1.917-1.311c2.812,4.111,9.033-.137,6.22-4.254s-9.033.138-6.22,4.254" fill="#65cbe9"/>
            <path id="Trazado_723712" data-name="Trazado 723712" d="M67.032,120.082c-4.538-6.638,5.508-13.507,10.046-6.87s-5.5,13.514-10.046,6.87m1.91-1.306c2.812,4.111,9.036-.137,6.221-4.254s-9.03.143-6.221,4.254" fill="#65cbe9"/>
            <path id="Trazado_723713" data-name="Trazado 723713" d="M108.542,151.756c-6.642,4.542-13.526-5.512-6.878-10.058s13.516,5.52,6.878,10.058m-5.564-8.136c-4.11,2.81.129,9.031,4.25,6.215s-.139-9.026-4.25-6.215" fill="#ff9d00"/>
            <path id="Trazado_723714" data-name="Trazado 723714" d="M94.813,133.746c-6.637,4.538-13.507-5.51-6.87-10.048s13.517,5.5,6.87,10.048M89.25,125.61c-4.106,2.807.146,9.035,4.256,6.225s-.135-9.043-4.256-6.225" fill="#ff9d00"/>
            <rect id="Rectángulo_351674" data-name="Rectángulo 351674" width="18.388" height="4.639" transform="translate(77.872 187.167) rotate(-85.202)" fill="#ff9d00"/>
            <rect id="Rectángulo_351675" data-name="Rectángulo 351675" width="4.635" height="15.234" transform="matrix(0.974, -0.228, 0.228, 0.974, 58.287, 167.371)" fill="#65cbe9"/>
            <rect id="Rectángulo_351676" data-name="Rectángulo 351676" width="16.63" height="4.644" transform="matrix(0.67, -0.742, 0.742, 0.67, 60.76, 156.31)" fill="#65cbe9"/>
            <rect id="Rectángulo_351677" data-name="Rectángulo 351677" width="4.64" height="15.894" transform="translate(70.974 121.687) rotate(-12.083)" fill="#65cbe9"/>
            <rect id="Rectángulo_351678" data-name="Rectángulo 351678" width="15.444" height="4.639" transform="translate(71.726 111.415) rotate(-75.29)" fill="#65cbe9"/>
            <path id="Trazado_723715" data-name="Trazado 723715" d="M100.225,144.219,92.872,134.5l3.708-2.791,7.352,9.72Z" fill="#ff9d00"/>
            <path id="Trazado_723716" data-name="Trazado 723716" d="M91.367,110.731c-4.539-6.639,5.507-13.509,10.048-6.87s-5.5,13.513-10.048,6.87m1.913-1.308c2.809,4.11,9.033-.138,6.219-4.252s-9.031.142-6.219,4.252" fill="#ff9d00"/>
            <rect id="Rectángulo_351679" data-name="Rectángulo 351679" width="11.747" height="4.637" transform="translate(90.254 122.74) rotate(-73.308)" fill="#ff9d00"/>
            <rect id="Rectángulo_351680" data-name="Rectángulo 351680" width="19.01" height="4.639" transform="translate(84.327 158.6) rotate(-35.559)" fill="#ff9d00"/>
            <path id="Trazado_723717" data-name="Trazado 723717" d="M110.482,119.074a7.762,7.762,0,0,1,7.763-7.764H265.223a7.763,7.763,0,0,1,7.763,7.764l0,92.031H110.479Z" fill="#efefef"/>
            <path id="Trazado_723718" data-name="Trazado 723718" d="M110.482,119.074a7.762,7.762,0,0,1,7.763-7.764H265.223a7.763,7.763,0,0,1,7.763,7.764l0,92.031H110.479Z" fill="none" stroke="#444" stroke-linecap="round" stroke-linejoin="round" stroke-width="1.661"/>
            <path id="Trazado_723719" data-name="Trazado 723719" d="M99.362,211.1v3.362c0,9.357,7.585,12.908,16.942,12.908H267.162c9.357,0,16.942-3.551,16.942-12.908V211.1Z" fill="#efefef"/>
            <path id="Trazado_723720" data-name="Trazado 723720" d="M99.362,211.1v3.362c0,9.357,7.585,12.908,16.942,12.908H267.162c9.357,0,16.942-3.551,16.942-12.908V211.1Z" fill="none" stroke="#444" stroke-linecap="round" stroke-linejoin="round" stroke-width="1.661"/>
            <path id="Trazado_723768" data-name="Trazado 723768" d="M0,0H142.035V81.828H0Z" transform="translate(121.673 123.781)" fill="#00bcd4"/>
            <rect id="Rectángulo_351682" data-name="Rectángulo 351682" width="142.035" height="81.828" transform="translate(121.673 123.781)" fill="none" stroke="#444" stroke-linecap="round" stroke-linejoin="round" stroke-width="1.661"/>
            <rect id="Rectángulo_351683" data-name="Rectángulo 351683" width="17.899" height="1.718" transform="translate(148.931 139.485)" fill="#fff"/>
            <rect id="Rectángulo_351684" data-name="Rectángulo 351684" width="27.719" height="1.718" transform="translate(148.931 143.109)" fill="#fff"/>
            <rect id="Rectángulo_351685" data-name="Rectángulo 351685" width="23.368" height="1.718" transform="translate(148.931 146.734)" fill="#fff"/>
            <rect id="Rectángulo_351686" data-name="Rectángulo 351686" width="11.139" height="13.308" transform="translate(149.522 180.717)" fill="#ff9d00"/>
            <rect id="Rectángulo_351687" data-name="Rectángulo 351687" width="11.139" height="13.308" transform="translate(149.522 180.717)" fill="none" stroke="#444" stroke-miterlimit="10" stroke-width="1.661"/>
            <rect id="Rectángulo_351688" data-name="Rectángulo 351688" width="11.139" height="21.02" transform="translate(166.141 173.005)" fill="#b29eee"/>
            <rect id="Rectángulo_351689" data-name="Rectángulo 351689" width="11.139" height="21.02" transform="translate(166.141 173.005)" fill="none" stroke="#444" stroke-miterlimit="10" stroke-width="1.661"/>
            <rect id="Rectángulo_351690" data-name="Rectángulo 351690" width="11.14" height="28.178" transform="translate(182.76 165.847)" fill="#4cebff"/>
            <rect id="Rectángulo_351691" data-name="Rectángulo 351691" width="11.14" height="28.178" transform="translate(182.76 165.847)" fill="none" stroke="#444" stroke-miterlimit="10" stroke-width="1.661"/>
            <rect id="Rectángulo_351692" data-name="Rectángulo 351692" width="11.139" height="24.89" transform="translate(199.38 169.135)" fill="#ff9d00"/>
            <rect id="Rectángulo_351693" data-name="Rectángulo 351693" width="11.139" height="24.89" transform="translate(199.38 169.135)" fill="none" stroke="#444" stroke-miterlimit="10" stroke-width="1.661"/>
            <rect id="Rectángulo_351694" data-name="Rectángulo 351694" width="11.139" height="40.396" transform="translate(215.999 153.629)" fill="#b29eee"/>
            <rect id="Rectángulo_351695" data-name="Rectángulo 351695" width="11.139" height="40.396" transform="translate(215.999 153.629)" fill="none" stroke="#444" stroke-miterlimit="10" stroke-width="1.661"/>
            <rect id="Rectángulo_351696" data-name="Rectángulo 351696" width="11.139" height="57.655" transform="translate(232.618 136.37)" fill="#4cebff"/>
            <rect id="Rectángulo_351697" data-name="Rectángulo 351697" width="11.139" height="57.655" transform="translate(232.618 136.37)" fill="none" stroke="#444" stroke-miterlimit="10" stroke-width="1.661"/>
            <rect id="Rectángulo_351698" data-name="Rectángulo 351698" width="3.99" height="1.777" transform="translate(137.375 139.976)" fill="#fff"/>
            <rect id="Rectángulo_351699" data-name="Rectángulo 351699" width="3.99" height="1.778" transform="translate(137.375 148.901)" fill="#fff"/>
            <rect id="Rectángulo_351700" data-name="Rectángulo 351700" width="3.99" height="1.778" transform="translate(137.375 157.827)" fill="#fff"/>
            <rect id="Rectángulo_351701" data-name="Rectángulo 351701" width="3.99" height="1.778" transform="translate(137.375 166.753)" fill="#fff"/>
            <rect id="Rectángulo_351702" data-name="Rectángulo 351702" width="3.99" height="1.777" transform="translate(137.375 175.679)" fill="#fff"/>
            <rect id="Rectángulo_351703" data-name="Rectángulo 351703" width="3.99" height="1.777" transform="translate(137.375 184.604)" fill="#fff"/>
            <rect id="Rectángulo_351704" data-name="Rectángulo 351704" width="3.99" height="1.778" transform="translate(137.375 193.529)" fill="#fff"/>
            <path id="Trazado_723721" data-name="Trazado 723721" d="M153.662,167.4l11.45-9.5,5.131,6.151,17.144-14.39,8.107,9.906,20.761-17.274" fill="none" stroke="#efefef" stroke-miterlimit="10" stroke-width="1.661"/>
            <path id="Trazado_723722" data-name="Trazado 723722" d="M143.969,139.979v54.51H246.987" fill="none" stroke="#444" stroke-miterlimit="10" stroke-width="1.661"/>
            <rect id="Rectángulo_351705" data-name="Rectángulo 351705" width="9.812" height="14.819" transform="translate(342.805 210.95) rotate(-71.369)" fill="#fff"/>
            <rect id="Rectángulo_351706" data-name="Rectángulo 351706" width="9.812" height="14.819" transform="translate(342.805 210.95) rotate(-71.369)" fill="none" stroke="#444" stroke-miterlimit="10" stroke-width="1.661"/>
            <path id="Trazado_723723" data-name="Trazado 723723" d="M329.488,171.483a28.236,28.236,0,1,1-35.779,17.731,28.234,28.234,0,0,1,35.779-17.731" fill="#fff"/>
            <path id="Trazado_723724" data-name="Trazado 723724" d="M329.488,171.483a28.236,28.236,0,1,1-35.779,17.731A28.234,28.234,0,0,1,329.488,171.483Z" fill="none" stroke="#444" stroke-miterlimit="10" stroke-width="1.661"/>
            <path id="Trazado_723725" data-name="Trazado 723725" d="M327.48,177.432a21.957,21.957,0,1,1-27.821,13.789,21.957,21.957,0,0,1,27.821-13.789" fill="#81d4fa"/>
            <path id="Trazado_723726" data-name="Trazado 723726" d="M327.48,177.432a21.957,21.957,0,1,1-27.821,13.789A21.957,21.957,0,0,1,327.48,177.432Z" fill="none" stroke="#444" stroke-miterlimit="10" stroke-width="0.554"/>
            <path id="Trazado_723727" data-name="Trazado 723727" d="M381.954,210.546a7.96,7.96,0,0,1-5.087,15.085l-20.1-6.748a2.4,2.4,0,0,1-1.509-3.045l3.551-10.531a2.4,2.4,0,0,1,3.045-1.508Z" fill="#ff9d00"/>
            <path id="Trazado_723728" data-name="Trazado 723728" d="M381.954,210.546a7.96,7.96,0,0,1-5.087,15.085l-20.1-6.748a2.4,2.4,0,0,1-1.509-3.045l3.551-10.531a2.4,2.4,0,0,1,3.045-1.508Z" fill="none" stroke="#444" stroke-miterlimit="10" stroke-width="1.661"/>
            <path id="Trazado_723729" data-name="Trazado 723729" d="M324.408,176.413a22.179,22.179,0,1,1-25.769,17.881,22.178,22.178,0,0,1,25.769-17.881" fill="#00bcd4"/>
          </g>
        </g>
        <g id="Grupo_1009045" data-name="Grupo 1009045">
          <g id="Grupo_1009044" data-name="Grupo 1009044" clip-path="url(#clip-path-6)">
            <path id="Trazado_723730" data-name="Trazado 723730" d="M300.369,179.871l-3.332-31.661A32.233,32.233,0,0,1,332.422,176.5Z" fill="#36b8d1"/>
            <path id="Trazado_723731" data-name="Trazado 723731" d="M300.369,179.871l-3.332-31.661A32.233,32.233,0,0,1,332.422,176.5Z" fill="none" stroke="#444" stroke-miterlimit="10" stroke-width="3.322"/>
            <path id="Trazado_723732" data-name="Trazado 723732" d="M329.193,176.658c.006.064.013.123.018.178a29.006,29.006,0,1,1-57.693,6.071c-.006-.056,0-.115-.009-.179Z" fill="#4cebff"/>
            <path id="Trazado_723733" data-name="Trazado 723733" d="M329.193,176.658c.006.064.013.123.018.178a29.006,29.006,0,1,1-57.693,6.071c-.006-.056,0-.115-.009-.179Z" fill="none" stroke="#444" stroke-miterlimit="10" stroke-width="1.661"/>
            <path id="Trazado_723734" data-name="Trazado 723734" d="M300.353,179.727l21.726-26.842a34.964,34.964,0,0,1,5.439,48.832Z" fill="#b29eee"/>
            <path id="Trazado_723735" data-name="Trazado 723735" d="M300.353,179.727l21.726-26.842a34.964,34.964,0,0,1,5.439,48.832Z" fill="none" stroke="#444" stroke-miterlimit="10" stroke-width="1.661"/>
            <path id="Trazado_723736" data-name="Trazado 723736" d="M300.356,179.9,288.9,209.615a32.239,32.239,0,0,1-18.614-41.306Z" fill="#f0777e"/>
            <path id="Trazado_723737" data-name="Trazado 723737" d="M300.356,179.9,288.9,209.615a32.239,32.239,0,0,1-18.614-41.306Z" fill="none" stroke="#444" stroke-miterlimit="10" stroke-width="3.322"/>
            <path id="Trazado_723738" data-name="Trazado 723738" d="M300.376,179.69l13.648,30.789a34.09,34.09,0,0,1-44.808-16.972Z" fill="#ff9d00"/>
            <path id="Trazado_723739" data-name="Trazado 723739" d="M300.376,179.69l13.648,30.789a34.09,34.09,0,0,1-44.808-16.972Z" fill="none" stroke="#444" stroke-miterlimit="10" stroke-width="1.661"/>
            <path id="Trazado_723740" data-name="Trazado 723740" d="M289.009,180.886a11.4,11.4,0,1,0,10.148-12.533,11.4,11.4,0,0,0-10.148,12.533" fill="#65cbe9"/>
            <path id="Trazado_723741" data-name="Trazado 723741" d="M289.009,180.886a11.4,11.4,0,1,0,10.148-12.533A11.4,11.4,0,0,0,289.009,180.886Z" fill="none" stroke="#444" stroke-miterlimit="10" stroke-width="1.661"/>
          </g>
        </g>
        <g id="Grupo_1009047" data-name="Grupo 1009047">
          <g id="Grupo_1009046" data-name="Grupo 1009046" clip-path="url(#clip-path)">
            <path id="Trazado_723743" data-name="Trazado 723743" d="M324.408,176.413a22.179,22.179,0,1,1-25.769,17.881A22.178,22.178,0,0,1,324.408,176.413Z" fill="none" stroke="#444" stroke-miterlimit="10" stroke-width="1.661"/>
            <line id="Línea_477" data-name="Línea 477" x1="400" transform="translate(0 227.374)" fill="#fffffd"/>
            <line id="Línea_478" data-name="Línea 478" x1="400" transform="translate(0 227.374)" fill="none" stroke="#444" stroke-miterlimit="10" stroke-width="1.661"/>
            <line id="Línea_479" data-name="Línea 479" x1="49.963" transform="translate(126.982 18.778)" fill="none" stroke="#444" stroke-miterlimit="10" stroke-width="1.661"/>
            <line id="Línea_480" data-name="Línea 480" x1="43.058" transform="translate(134.845 46.297)" fill="none" stroke="#444" stroke-miterlimit="10" stroke-width="1.661" stroke-dasharray="1.107 1.107"/>
            <line id="Línea_481" data-name="Línea 481" x1="22.098" transform="translate(184.57 18.778)" fill="none" stroke="#444" stroke-miterlimit="10" stroke-width="1.661"/>
            <line id="Línea_482" data-name="Línea 482" x1="22.098" transform="translate(366.598 145.923)" fill="none" stroke="#444" stroke-miterlimit="10" stroke-width="1.661"/>
            <path id="Trazado_723744" data-name="Trazado 723744" d="M9.842,136.319l3.918,3.919,8.1-8.1" fill="none" stroke="#444" stroke-miterlimit="10" stroke-width="1.661"/>
            <line id="Línea_483" data-name="Línea 483" x1="10.332" transform="translate(87.706 21.048)" fill="none" stroke="#444" stroke-miterlimit="10" stroke-width="1.661"/>
            <line id="Línea_484" data-name="Línea 484" y1="10.333" transform="translate(92.871 15.881)" fill="none" stroke="#444" stroke-miterlimit="10" stroke-width="1.661"/>
            <line id="Línea_485" data-name="Línea 485" x1="7.306" y1="7.307" transform="translate(250.186 68.79)" fill="none" stroke="#444" stroke-miterlimit="10" stroke-width="1.661"/>
            <line id="Línea_486" data-name="Línea 486" y1="7.307" x2="7.306" transform="translate(250.186 68.79)" fill="none" stroke="#444" stroke-miterlimit="10" stroke-width="1.661"/>
            <line id="Línea_487" data-name="Línea 487" x2="49.963" transform="translate(318.047 49.804)" fill="none" stroke="#444" stroke-miterlimit="10" stroke-width="1.661"/>
            <line id="Línea_488" data-name="Línea 488" x2="22.098" transform="translate(352.41 57.699)" fill="none" stroke="#444" stroke-miterlimit="10" stroke-width="1.661"/>
            <line id="Línea_489" data-name="Línea 489" x1="22.098" transform="translate(6.381 70.049)" fill="none" stroke="#444" stroke-miterlimit="10" stroke-width="1.661"/>
            <line id="Línea_490" data-name="Línea 490" x1="7.803" transform="translate(23.306 84.064)" fill="none" stroke="#444" stroke-miterlimit="10" stroke-width="1.661"/>
            <line id="Línea_491" data-name="Línea 491" x1="40.402" transform="translate(30.835 40.537)" fill="none" stroke="#444" stroke-miterlimit="10" stroke-width="1.661"/>
            <line id="Línea_492" data-name="Línea 492" x2="22.098" transform="translate(318.974 41.91)" fill="none" stroke="#444" stroke-miterlimit="10" stroke-width="1.661"/>
            <line id="Línea_493" data-name="Línea 493" x2="22.098" transform="translate(225.517 40.532)" fill="none" stroke="#444" stroke-miterlimit="10" stroke-width="1.661"/>
            <line id="Línea_494" data-name="Línea 494" x2="24.083" transform="translate(108.85 54.962)" fill="none" stroke="#444" stroke-miterlimit="10" stroke-width="1.661"/>
            <path id="Trazado_723745" data-name="Trazado 723745" d="M398.525,146.04a3.167,3.167,0,1,1-3.17-3.169A3.17,3.17,0,0,1,398.525,146.04Z" fill="none" stroke="#444" stroke-linecap="round" stroke-linejoin="round" stroke-width="1.661"/>
            <line id="Línea_495" data-name="Línea 495" x1="0.554" transform="translate(307.827 72.462)" fill="none" stroke="#444" stroke-miterlimit="10" stroke-width="1.661"/>
            <line id="Línea_496" data-name="Línea 496" x1="45.061" transform="translate(261.681 72.462)" fill="none" stroke="#444" stroke-miterlimit="10" stroke-width="1.661" stroke-dasharray="1.086 1.086"/>
            <line id="Línea_497" data-name="Línea 497" x1="0.554" transform="translate(260.584 72.462)" fill="none" stroke="#444" stroke-miterlimit="10" stroke-width="1.661"/>
            <line id="Línea_498" data-name="Línea 498" x1="24.21" transform="translate(256.685 95.501)" fill="none" stroke="#444" stroke-miterlimit="10" stroke-width="1.661"/>
            <line id="Línea_499" data-name="Línea 499" x1="28.071" transform="translate(168.298 4.863)" fill="none" stroke="#444" stroke-miterlimit="10" stroke-width="1.661" stroke-dasharray="1.107 1.107"/>
            <rect id="Rectángulo_351708" data-name="Rectángulo 351708" width="4.642" height="7.002" transform="translate(312.27 112.812)" fill="none" stroke="#444" stroke-miterlimit="10" stroke-width="1.661"/>
            <rect id="Rectángulo_351709" data-name="Rectángulo 351709" width="4.642" height="15.599" transform="translate(320.456 104.215)" fill="none" stroke="#444" stroke-miterlimit="10" stroke-width="1.661"/>
            <rect id="Rectángulo_351710" data-name="Rectángulo 351710" width="4.642" height="12.891" transform="translate(328.642 106.923)" fill="none" stroke="#444" stroke-miterlimit="10" stroke-width="1.661"/>
            <rect id="Rectángulo_351711" data-name="Rectángulo 351711" width="4.641" height="20.069" transform="translate(336.829 99.745)" fill="none" stroke="#444" stroke-miterlimit="10" stroke-width="1.661"/>
            <path id="Trazado_723746" data-name="Trazado 723746" d="M344.212,119.814H308.725V97.52" fill="none" stroke="#444" stroke-miterlimit="10" stroke-width="1.661"/>
            <path id="Trazado_723747" data-name="Trazado 723747" d="M284.095,32.86H251.748V20.648" fill="none" stroke="#444" stroke-miterlimit="10" stroke-width="1.661"/>
            <path id="Trazado_723748" data-name="Trazado 723748" d="M272.1,29.863c-5.463-.371-5.659-8.934-5.852-17.214-.118-5.2-.267-11.643-2.232-11.815-1.964.172-2.113,6.62-2.232,11.815-.192,8.28-.389,16.843-5.852,17.214" fill="none" stroke="#444" stroke-miterlimit="10" stroke-width="1.661"/>
            <path id="Trazado_723749" data-name="Trazado 723749" d="M282.448,29.865c-5.478,0-6.534-5.647-7.306-9.771-.575-3.082-1.042-5.116-2.2-5.173-1.161.057-1.628,2.091-2.2,5.173-.77,4.124-1.826,9.771-7.305,9.771" fill="none" stroke="#444" stroke-miterlimit="10" stroke-width="1.661"/>
            <path id="Trazado_723750" data-name="Trazado 723750" d="M215.167,75.024h.024l2.153.693a.155.155,0,0,1,.091.078.147.147,0,0,1,.01.119l-.515,1.6.3.161a8.98,8.98,0,0,1,1.952,1.4l.247.234,1.352-.989a.19.19,0,0,1,.1-.045c.036,0,.074.021.117.079l1.333,1.825a.158.158,0,0,1-.033.22l-1.353.989.15.307a9.08,9.08,0,0,1,.762,2.286l.064.333,1.66,0a.157.157,0,0,1,.157.157l.006,2.261a.159.159,0,0,1-.157.157l-1.652,0-.06.336a9.111,9.111,0,0,1-.295,1.2,9.359,9.359,0,0,1-.444,1.1l-.144.306,1.334.964a.158.158,0,0,1,.063.1.153.153,0,0,1-.028.117l-1.323,1.834a.157.157,0,0,1-.128.064.152.152,0,0,1-.091-.03L219.5,91.94l-.245.237a9.087,9.087,0,0,1-1.962,1.439l-.3.162.506,1.546a.156.156,0,0,1-.1.2l-2.2.713a.158.158,0,0,1-.15-.108l-.507-1.547-.337.045a8.406,8.406,0,0,1-2.433,0l-.338-.045-.5,1.553a.159.159,0,0,1-.15.109l-2.2-.7a.157.157,0,0,1-.1-.2l.5-1.552-.3-.161a9.013,9.013,0,0,1-1.968-1.426l-.247-.237-1.321.966a.178.178,0,0,1-.1.045c-.037,0-.075-.021-.117-.079L203.6,91.08a.159.159,0,0,1-.028-.118.153.153,0,0,1,.062-.1l1.331-.972-.147-.307a9.1,9.1,0,0,1-.753-2.3L204,86.945l-1.652,0a.159.159,0,0,1-.158-.156l-.005-2.262a.157.157,0,0,1,.156-.157l1.66,0,.062-.333a8.947,8.947,0,0,1,.285-1.15,9.225,9.225,0,0,1,.462-1.143l.147-.308-1.355-.978a.158.158,0,0,1-.035-.22l1.324-1.833c.042-.059.08-.08.117-.08a.19.19,0,0,1,.1.044l1.355.98.246-.236a9.106,9.106,0,0,1,1.944-1.417l.3-.162-.522-1.593a.158.158,0,0,1,.1-.2l2.2-.713a.156.156,0,0,1,.148.108l.525,1.6.336-.046a9.09,9.09,0,0,1,1.223-.089,8.828,8.828,0,0,1,1.177.084l.338.045.516-1.605a.161.161,0,0,1,.174-.1m-2.213,15.711a5,5,0,1,0-5-5,5.006,5.006,0,0,0,5,5m2.213-17.372h0a1.805,1.805,0,0,0-1.753,1.25l-.108.335c-.115,0-.229-.006-.344-.006-.131,0-.263,0-.4.008l-.108-.33a1.817,1.817,0,0,0-1.727-1.252h-.263l-.249.081-2.2.713a1.828,1.828,0,0,0-1.169,2.286l.109.335q-.308.21-.6.439l-.276-.2a1.782,1.782,0,0,0-2.537.407l-1.325,1.836a1.818,1.818,0,0,0,.4,2.534l.276.2c-.047.126-.09.251-.131.377s-.07.224-.1.337h-.33a1.818,1.818,0,0,0-1.812,1.842l0,2.242a1.828,1.828,0,0,0,1.819,1.813h.323q.1.366.237.723l-.257.188a1.818,1.818,0,0,0-.4,2.527l1.344,1.839a1.784,1.784,0,0,0,2.545.391l.238-.174c.2.158.411.309.625.453l-.092.285a1.818,1.818,0,0,0,1.18,2.289l2.2.7.246.078h.258a1.816,1.816,0,0,0,1.728-1.25l.092-.288c.124,0,.246.007.369.007s.27,0,.407-.008l.091.276A1.815,1.815,0,0,0,215.2,97.9h.263l.249-.081,2.2-.713a1.819,1.819,0,0,0,1.163-2.3l-.089-.274c.213-.145.422-.3.624-.457l.24.173a1.819,1.819,0,0,0,2.528-.395L223.712,92a1.825,1.825,0,0,0,.319-1.365,1.8,1.8,0,0,0-.723-1.168l-.258-.187c.041-.114.08-.227.115-.338.042-.128.08-.258.117-.389h.314a1.82,1.82,0,0,0,1.813-1.834l-.006-2.249a1.822,1.822,0,0,0-1.818-1.814h-.339q-.106-.358-.237-.711l.273-.2a1.819,1.819,0,0,0,.4-2.53l-1.342-1.835a1.783,1.783,0,0,0-2.529-.4l-.29.212c-.2-.151-.4-.3-.6-.433l.106-.33a1.818,1.818,0,0,0-1.167-2.286l-2.159-.694-.2-.065-.21-.012-.049,0Zm-2.213,15.711a3.34,3.34,0,1,1,3.34-3.34,3.343,3.343,0,0,1-3.34,3.34" fill="#444"/>
            <path id="Trazado_723751" data-name="Trazado 723751" d="M204.74,67.527a.437.437,0,0,1-.156-.45,6.088,6.088,0,0,0,0-2.587.439.439,0,0,1,.156-.45l1.937-1.407a.277.277,0,0,0,.061-.386l-2.278-3.136a.279.279,0,0,0-.387-.062L202.2,60.408a.434.434,0,0,1-.482-.006,6.277,6.277,0,0,0-2.578-.9.447.447,0,0,1-.377-.292L198.08,57.1a.277.277,0,0,0-.349-.179l-3.686,1.2a.278.278,0,0,0-.178.349l.648,1.992a.364.364,0,0,1-.092.4,6.324,6.324,0,0,0-1.832,2.409.455.455,0,0,1-.4.3h-2.03a.276.276,0,0,0-.277.276v3.875a.278.278,0,0,0,.277.278h2.03a.379.379,0,0,1,.361.212,6.326,6.326,0,0,0,1.8,2.435.436.436,0,0,1,.163.459l-.648,1.991a.279.279,0,0,0,.178.35l3.686,1.2a.277.277,0,0,0,.349-.179l.687-2.111a.466.466,0,0,1,.408-.295,6.263,6.263,0,0,0,2.571-.909.413.413,0,0,1,.458.01l1.869,1.359a.276.276,0,0,0,.387-.063l2.278-3.134a.277.277,0,0,0-.061-.387Z" fill="none" stroke="#444" stroke-miterlimit="10" stroke-width="1.661"/>
            <circle id="Elipse_5079" data-name="Elipse 5079" cx="2.353" cy="2.353" r="2.353" transform="translate(195.509 67.533) rotate(-76.718)" fill="none" stroke="#444" stroke-miterlimit="10" stroke-width="1.661"/>
          </g>
        </g>
      </g>
    </g>
  </g>
</svg>
