<svg xmlns="http://www.w3.org/2000/svg" width="465.733" height="247.533" viewBox="0 0 465.733 247.533">
  <g id="Grupo_1009257" data-name="Grupo 1009257" transform="translate(-990 3868)">
    <path id="Trazado_724609" data-name="Trazado 724609" d="M0,0H465V193H0Z" transform="translate(990 -3814)" fill="#fff"/>
    <path id="Trazado_724610" data-name="Trazado 724610" d="M0,0H465V54H0Z" transform="translate(990 -3868)" fill="#29a2d9"/>
    <path id="Trazado_724611" data-name="Trazado 724611" d="M20.666,2.664H19.36v11.43h1.306v1.039H18.089V1.625h2.577Zm5.927.376V4.113H26.36a3.33,3.33,0,0,0-2.352.875A3.641,3.641,0,0,0,23,7.374a2.7,2.7,0,0,1,2.146-.9,2.581,2.581,0,0,1,2.075.916,3.533,3.533,0,0,1,.776,2.365,3.522,3.522,0,0,1-.837,2.461,2.883,2.883,0,0,1-2.246.923,2.841,2.841,0,0,1-2.317-1.1,4.348,4.348,0,0,1-.889-2.827V8.728a6.552,6.552,0,0,1,1.172-4.2,4.306,4.306,0,0,1,3.49-1.487ZM24.932,7.524a2.125,2.125,0,0,0-1.955,1.367v.465a3.265,3.265,0,0,0,.554,1.982,1.659,1.659,0,0,0,1.381.752,1.608,1.608,0,0,0,1.343-.629,2.61,2.61,0,0,0,.489-1.647,2.61,2.61,0,0,0-.5-1.658A1.589,1.589,0,0,0,24.932,7.524Zm10.8,1.23a5.784,5.784,0,0,1-.759,3.3,2.7,2.7,0,0,1-2.372,1.08,2.718,2.718,0,0,1-2.358-1.056,5.49,5.49,0,0,1-.793-3.155V7.237a5.655,5.655,0,0,1,.759-3.261A2.719,2.719,0,0,1,32.588,2.91a2.744,2.744,0,0,1,2.365,1.029,5.458,5.458,0,0,1,.779,3.175ZM34.468,7.025a4.634,4.634,0,0,0-.451-2.341,1.553,1.553,0,0,0-1.429-.735,1.532,1.532,0,0,0-1.415.731,4.525,4.525,0,0,0-.458,2.249V8.953a4.708,4.708,0,0,0,.468,2.382A1.55,1.55,0,0,0,32.6,12.1a1.529,1.529,0,0,0,1.391-.725A4.538,4.538,0,0,0,34.468,9.1ZM43.58,9.288H40.244V8.256H43.58Zm10.992-5.53L50.45,13H49.124l4.108-8.914H47.846V3.047h6.727Zm7.677,5a5.784,5.784,0,0,1-.759,3.3,3.153,3.153,0,0,1-4.73.024,5.49,5.49,0,0,1-.793-3.155V7.237a5.655,5.655,0,0,1,.759-3.261,3.21,3.21,0,0,1,4.744-.038,5.458,5.458,0,0,1,.779,3.175ZM60.984,7.025a4.634,4.634,0,0,0-.451-2.341A1.553,1.553,0,0,0,59.1,3.949a1.532,1.532,0,0,0-1.415.731,4.525,4.525,0,0,0-.458,2.249V8.953a4.708,4.708,0,0,0,.468,2.382,1.55,1.55,0,0,0,1.418.769,1.529,1.529,0,0,0,1.391-.725A4.538,4.538,0,0,0,60.984,9.1Zm5.934,2a10.574,10.574,0,0,1-.4,2.922,8.641,8.641,0,0,1-1.224,2.581,5.361,5.361,0,0,1-1.726,1.682L63.3,15.44a5.5,5.5,0,0,0,1.692-2.505,10.839,10.839,0,0,0,.653-3.77V8.946a11.253,11.253,0,0,0-.3-2.669,9.009,9.009,0,0,0-.837-2.211A5.108,5.108,0,0,0,63.3,2.541l.267-.772a5.34,5.34,0,0,1,1.719,1.668,8.66,8.66,0,0,1,1.224,2.577A10.818,10.818,0,0,1,66.918,9.028ZM20.666,29.664H19.36v11.43h1.306v1.039H18.089V28.625h2.577Zm7.39,1.094L23.934,40H22.607l4.108-8.914H21.329V30.047h6.727Zm7.677,5a5.784,5.784,0,0,1-.759,3.3,2.7,2.7,0,0,1-2.372,1.08,2.718,2.718,0,0,1-2.358-1.056,5.49,5.49,0,0,1-.793-3.155V34.237a5.655,5.655,0,0,1,.759-3.261,2.719,2.719,0,0,1,2.379-1.066,2.744,2.744,0,0,1,2.365,1.029,5.458,5.458,0,0,1,.779,3.175Zm-1.265-1.729a4.634,4.634,0,0,0-.451-2.341,1.553,1.553,0,0,0-1.429-.735,1.532,1.532,0,0,0-1.415.731,4.525,4.525,0,0,0-.458,2.249v2.023a4.708,4.708,0,0,0,.468,2.382A1.55,1.55,0,0,0,32.6,39.1a1.529,1.529,0,0,0,1.391-.725,4.538,4.538,0,0,0,.475-2.283Zm9.112,2.263H40.244V35.256H43.58Zm10.6-3.644a2.311,2.311,0,0,1-.393,1.326,2.674,2.674,0,0,1-1.063.909,2.853,2.853,0,0,1,1.234.978,2.46,2.46,0,0,1,.455,1.456,2.6,2.6,0,0,1-.872,2.058,3.821,3.821,0,0,1-4.594,0,2.613,2.613,0,0,1-.865-2.054,2.533,2.533,0,0,1,.441-1.456,2.744,2.744,0,0,1,1.22-.984,2.608,2.608,0,0,1-1.046-.909,2.344,2.344,0,0,1-.383-1.319,2.573,2.573,0,0,1,.807-2,3.425,3.425,0,0,1,4.249,0A2.567,2.567,0,0,1,54.183,32.645ZM53.15,37.286a1.834,1.834,0,0,0-.53-1.36,1.879,1.879,0,0,0-1.384-.526,1.78,1.78,0,0,0-1.887,1.887,1.767,1.767,0,0,0,.5,1.333,2.245,2.245,0,0,0,2.792,0A1.763,1.763,0,0,0,53.15,37.286Zm-1.9-6.337a1.632,1.632,0,0,0-1.207.461,1.909,1.909,0,0,0-.007,2.481,1.806,1.806,0,0,0,2.427,0,1.871,1.871,0,0,0-.017-2.464A1.609,1.609,0,0,0,51.25,30.949Zm11,4.806a5.784,5.784,0,0,1-.759,3.3,3.153,3.153,0,0,1-4.73.024,5.49,5.49,0,0,1-.793-3.155V34.237a5.655,5.655,0,0,1,.759-3.261,3.21,3.21,0,0,1,4.744-.038,5.458,5.458,0,0,1,.779,3.175Zm-1.265-1.729a4.634,4.634,0,0,0-.451-2.341,1.553,1.553,0,0,0-1.429-.735,1.532,1.532,0,0,0-1.415.731,4.525,4.525,0,0,0-.458,2.249v2.023a4.708,4.708,0,0,0,.468,2.382,1.55,1.55,0,0,0,1.418.769,1.529,1.529,0,0,0,1.391-.725,4.538,4.538,0,0,0,.475-2.283Zm5.934,2a10.574,10.574,0,0,1-.4,2.922,8.641,8.641,0,0,1-1.224,2.581,5.361,5.361,0,0,1-1.726,1.682L63.3,42.44a5.5,5.5,0,0,0,1.692-2.505,10.839,10.839,0,0,0,.653-3.77v-.219a11.253,11.253,0,0,0-.3-2.669,9.009,9.009,0,0,0-.837-2.211A5.108,5.108,0,0,0,63.3,29.541l.267-.772a5.34,5.34,0,0,1,1.719,1.668,8.66,8.66,0,0,1,1.224,2.577A10.818,10.818,0,0,1,66.918,36.028ZM20.666,56.664H19.36v11.43h1.306v1.039H18.089V55.625h2.577Zm7,2.98a2.311,2.311,0,0,1-.393,1.326,2.674,2.674,0,0,1-1.063.909,2.853,2.853,0,0,1,1.234.978,2.46,2.46,0,0,1,.455,1.456,2.6,2.6,0,0,1-.872,2.058,3.349,3.349,0,0,1-2.293.766,3.334,3.334,0,0,1-2.3-.769,2.613,2.613,0,0,1-.865-2.054,2.533,2.533,0,0,1,.441-1.456,2.744,2.744,0,0,1,1.22-.984,2.608,2.608,0,0,1-1.046-.909,2.344,2.344,0,0,1-.383-1.319,2.573,2.573,0,0,1,.807-2,3.026,3.026,0,0,1,2.126-.738,3.029,3.029,0,0,1,2.123.738A2.567,2.567,0,0,1,27.666,59.645Zm-1.032,4.642a1.834,1.834,0,0,0-.53-1.36A1.879,1.879,0,0,0,24.72,62.4a1.78,1.78,0,0,0-1.887,1.887,1.767,1.767,0,0,0,.5,1.333,2.245,2.245,0,0,0,2.792,0A1.763,1.763,0,0,0,26.634,64.286Zm-1.9-6.337a1.632,1.632,0,0,0-1.207.461,1.909,1.909,0,0,0-.007,2.481,1.806,1.806,0,0,0,2.427,0,1.871,1.871,0,0,0-.017-2.464A1.609,1.609,0,0,0,24.733,57.949Zm11,4.806a5.784,5.784,0,0,1-.759,3.3,2.7,2.7,0,0,1-2.372,1.08,2.718,2.718,0,0,1-2.358-1.056,5.49,5.49,0,0,1-.793-3.155V61.237a5.655,5.655,0,0,1,.759-3.261,2.719,2.719,0,0,1,2.379-1.066,2.744,2.744,0,0,1,2.365,1.029,5.458,5.458,0,0,1,.779,3.175Zm-1.265-1.729a4.634,4.634,0,0,0-.451-2.341,1.553,1.553,0,0,0-1.429-.735,1.532,1.532,0,0,0-1.415.731,4.525,4.525,0,0,0-.458,2.249v2.023a4.708,4.708,0,0,0,.468,2.382A1.55,1.55,0,0,0,32.6,66.1a1.529,1.529,0,0,0,1.391-.725,4.538,4.538,0,0,0,.475-2.283Zm9.112,2.263H40.244V62.256H43.58Zm9.413-.663a3.094,3.094,0,0,1-.947.759,2.569,2.569,0,0,1-1.207.287,2.652,2.652,0,0,1-1.5-.424,2.755,2.755,0,0,1-.988-1.193,4.067,4.067,0,0,1-.349-1.7,4.143,4.143,0,0,1,.379-1.8,2.787,2.787,0,0,1,1.077-1.224,3.07,3.07,0,0,1,1.627-.424,2.78,2.78,0,0,1,2.328,1.1,4.815,4.815,0,0,1,.851,3.011v.369a6.434,6.434,0,0,1-1.148,4.242,4.412,4.412,0,0,1-3.466,1.371H49.4V65.934h.267a3.012,3.012,0,0,0,3.322-3.309Zm-1.948,0a1.953,1.953,0,0,0,1.172-.39A2.3,2.3,0,0,0,53,61.271v-.506a3.48,3.48,0,0,0-.54-2.023,1.651,1.651,0,0,0-2.707-.14,2.637,2.637,0,0,0-.506,1.685,2.744,2.744,0,0,0,.489,1.678A1.548,1.548,0,0,0,51.045,62.625Zm11.2.13a5.784,5.784,0,0,1-.759,3.3,3.153,3.153,0,0,1-4.73.024,5.49,5.49,0,0,1-.793-3.155V61.237a5.655,5.655,0,0,1,.759-3.261,3.21,3.21,0,0,1,4.744-.038,5.458,5.458,0,0,1,.779,3.175Zm-1.265-1.729a4.634,4.634,0,0,0-.451-2.341,1.553,1.553,0,0,0-1.429-.735,1.532,1.532,0,0,0-1.415.731,4.525,4.525,0,0,0-.458,2.249v2.023a4.708,4.708,0,0,0,.468,2.382,1.55,1.55,0,0,0,1.418.769,1.529,1.529,0,0,0,1.391-.725,4.538,4.538,0,0,0,.475-2.283Zm5.934,2a10.574,10.574,0,0,1-.4,2.922,8.641,8.641,0,0,1-1.224,2.581,5.361,5.361,0,0,1-1.726,1.682L63.3,69.44a5.5,5.5,0,0,0,1.692-2.505,10.839,10.839,0,0,0,.653-3.77v-.219a11.253,11.253,0,0,0-.3-2.669,9.009,9.009,0,0,0-.837-2.211A5.108,5.108,0,0,0,63.3,56.541l.267-.772a5.34,5.34,0,0,1,1.719,1.668,8.66,8.66,0,0,1,1.224,2.577A10.818,10.818,0,0,1,66.918,63.028ZM16.735,83.664H15.43v11.43h1.306v1.039H14.158V82.625h2.577Zm5.811,5.961a3.094,3.094,0,0,1-.947.759,2.569,2.569,0,0,1-1.207.287,2.652,2.652,0,0,1-1.5-.424,2.755,2.755,0,0,1-.988-1.193,4.067,4.067,0,0,1-.349-1.7,4.143,4.143,0,0,1,.379-1.8,2.787,2.787,0,0,1,1.077-1.224,3.07,3.07,0,0,1,1.627-.424,2.78,2.78,0,0,1,2.328,1.1,4.815,4.815,0,0,1,.851,3.011v.369a6.434,6.434,0,0,1-1.148,4.242A4.412,4.412,0,0,1,19.2,94.007h-.246V92.934h.267a3.482,3.482,0,0,0,2.406-.815A3.5,3.5,0,0,0,22.546,89.625Zm-1.948,0a1.953,1.953,0,0,0,1.172-.39,2.3,2.3,0,0,0,.783-.964v-.506a3.48,3.48,0,0,0-.54-2.023,1.651,1.651,0,0,0-2.707-.14,2.637,2.637,0,0,0-.506,1.685,2.744,2.744,0,0,0,.489,1.678A1.548,1.548,0,0,0,20.6,89.625Zm11.2.13a5.784,5.784,0,0,1-.759,3.3,2.7,2.7,0,0,1-2.372,1.08,2.718,2.718,0,0,1-2.358-1.056,5.49,5.49,0,0,1-.793-3.155V88.237a5.655,5.655,0,0,1,.759-3.261,2.719,2.719,0,0,1,2.379-1.066,2.744,2.744,0,0,1,2.365,1.029,5.458,5.458,0,0,1,.779,3.175Zm-1.265-1.729a4.634,4.634,0,0,0-.451-2.341,1.553,1.553,0,0,0-1.429-.735,1.532,1.532,0,0,0-1.415.731,4.525,4.525,0,0,0-.458,2.249v2.023a4.708,4.708,0,0,0,.468,2.382,1.55,1.55,0,0,0,1.418.769,1.529,1.529,0,0,0,1.391-.725,4.538,4.538,0,0,0,.475-2.283Zm9.112,2.263H36.313V89.256h3.336ZM48.372,94H47.1V85.571l-2.55.937V85.359L48.174,84h.2Zm9.946-4.245a5.784,5.784,0,0,1-.759,3.3,3.153,3.153,0,0,1-4.73.024,5.49,5.49,0,0,1-.793-3.155V88.237a5.655,5.655,0,0,1,.759-3.261,3.21,3.21,0,0,1,4.744-.038,5.458,5.458,0,0,1,.779,3.175Zm-1.265-1.729a4.634,4.634,0,0,0-.451-2.341,1.553,1.553,0,0,0-1.429-.735,1.532,1.532,0,0,0-1.415.731A4.525,4.525,0,0,0,53.3,87.93v2.023a4.708,4.708,0,0,0,.468,2.382,1.55,1.55,0,0,0,1.418.769,1.529,1.529,0,0,0,1.391-.725,4.538,4.538,0,0,0,.475-2.283Zm9.126,1.729a5.784,5.784,0,0,1-.759,3.3,3.153,3.153,0,0,1-4.73.024,5.49,5.49,0,0,1-.793-3.155V88.237a5.655,5.655,0,0,1,.759-3.261,3.21,3.21,0,0,1,4.744-.038,5.458,5.458,0,0,1,.779,3.175Zm-1.265-1.729a4.634,4.634,0,0,0-.451-2.341,1.553,1.553,0,0,0-1.429-.735,1.532,1.532,0,0,0-1.415.731,4.525,4.525,0,0,0-.458,2.249v2.023a4.708,4.708,0,0,0,.468,2.382,1.55,1.55,0,0,0,1.418.769,1.529,1.529,0,0,0,1.391-.725,4.538,4.538,0,0,0,.475-2.283Zm5.934,2a10.574,10.574,0,0,1-.4,2.922,8.641,8.641,0,0,1-1.224,2.581A5.361,5.361,0,0,1,67.5,97.213l-.267-.772a5.5,5.5,0,0,0,1.692-2.505,10.839,10.839,0,0,0,.653-3.77v-.219a11.253,11.253,0,0,0-.3-2.669,9.009,9.009,0,0,0-.837-2.211,5.108,5.108,0,0,0-1.207-1.524l.267-.772a5.34,5.34,0,0,1,1.719,1.668,8.66,8.66,0,0,1,1.224,2.577A10.818,10.818,0,0,1,70.849,90.028ZM12.8,110.664H11.5v11.43H12.8v1.039H10.228V109.625H12.8ZM17.925,121H16.653v-8.429l-2.55.937v-1.148L17.727,111h.2Zm9.946-4.245a5.784,5.784,0,0,1-.759,3.3,2.7,2.7,0,0,1-2.372,1.08,2.718,2.718,0,0,1-2.358-1.056,5.49,5.49,0,0,1-.793-3.155v-1.688a5.655,5.655,0,0,1,.759-3.261,2.719,2.719,0,0,1,2.379-1.066,2.744,2.744,0,0,1,2.365,1.029,5.458,5.458,0,0,1,.779,3.175Zm-1.265-1.729a4.634,4.634,0,0,0-.451-2.341,1.553,1.553,0,0,0-1.429-.735,1.532,1.532,0,0,0-1.415.731,4.525,4.525,0,0,0-.458,2.249v2.023a4.708,4.708,0,0,0,.468,2.382,1.55,1.55,0,0,0,1.418.769,1.529,1.529,0,0,0,1.391-.725,4.538,4.538,0,0,0,.475-2.283Zm9.126,1.729a5.784,5.784,0,0,1-.759,3.3,2.7,2.7,0,0,1-2.372,1.08,2.718,2.718,0,0,1-2.358-1.056,5.49,5.49,0,0,1-.793-3.155v-1.688a5.655,5.655,0,0,1,.759-3.261,2.719,2.719,0,0,1,2.379-1.066,2.744,2.744,0,0,1,2.365,1.029,5.458,5.458,0,0,1,.779,3.175Zm-1.265-1.729a4.634,4.634,0,0,0-.451-2.341,1.553,1.553,0,0,0-1.429-.735,1.532,1.532,0,0,0-1.415.731,4.525,4.525,0,0,0-.458,2.249v2.023a4.708,4.708,0,0,0,.468,2.382,1.55,1.55,0,0,0,1.418.769,1.529,1.529,0,0,0,1.391-.725,4.538,4.538,0,0,0,.475-2.283Zm9.112,2.263H40.244v-1.032H43.58ZM52.3,121H51.031v-8.429l-2.55.937v-1.148L52.1,111h.2Zm7.861,0H58.893v-8.429l-2.55.937v-1.148L59.966,111h.2Zm9.946-4.245a5.784,5.784,0,0,1-.759,3.3,3.153,3.153,0,0,1-4.73.024,5.49,5.49,0,0,1-.793-3.155v-1.688a5.655,5.655,0,0,1,.759-3.261,3.21,3.21,0,0,1,4.744-.038,5.458,5.458,0,0,1,.779,3.175Zm-1.265-1.729a4.634,4.634,0,0,0-.451-2.341,1.553,1.553,0,0,0-1.429-.735,1.532,1.532,0,0,0-1.415.731,4.525,4.525,0,0,0-.458,2.249v2.023a4.708,4.708,0,0,0,.468,2.382,1.55,1.55,0,0,0,1.418.769,1.529,1.529,0,0,0,1.391-.725,4.538,4.538,0,0,0,.475-2.283Zm5.934,2a10.574,10.574,0,0,1-.4,2.922,8.641,8.641,0,0,1-1.224,2.581,5.361,5.361,0,0,1-1.726,1.682l-.267-.772a5.5,5.5,0,0,0,1.692-2.505,10.839,10.839,0,0,0,.653-3.77v-.219a11.253,11.253,0,0,0-.3-2.669,9.009,9.009,0,0,0-.837-2.211,5.108,5.108,0,0,0-1.207-1.524l.267-.772a5.34,5.34,0,0,1,1.719,1.668,8.66,8.66,0,0,1,1.224,2.577A10.818,10.818,0,0,1,74.779,117.028ZM12.8,137.664H11.5v11.43H12.8v1.039H10.228V136.625H12.8ZM17.925,148H16.653v-8.429l-2.55.937v-1.148L17.727,138h.2Zm7.861,0H24.515v-8.429l-2.55.937v-1.148L25.588,138h.2Zm9.946-4.245a5.784,5.784,0,0,1-.759,3.3,2.7,2.7,0,0,1-2.372,1.08,2.718,2.718,0,0,1-2.358-1.056,5.49,5.49,0,0,1-.793-3.155v-1.688a5.655,5.655,0,0,1,.759-3.261,2.719,2.719,0,0,1,2.379-1.066,2.744,2.744,0,0,1,2.365,1.029,5.458,5.458,0,0,1,.779,3.175Zm-1.265-1.729a4.634,4.634,0,0,0-.451-2.341,1.553,1.553,0,0,0-1.429-.735,1.532,1.532,0,0,0-1.415.731,4.525,4.525,0,0,0-.458,2.249v2.023a4.708,4.708,0,0,0,.468,2.382,1.55,1.55,0,0,0,1.418.769,1.529,1.529,0,0,0,1.391-.725,4.538,4.538,0,0,0,.475-2.283Zm9.112,2.263H40.244v-1.032H43.58ZM52.3,148H51.031v-8.429l-2.55.937v-1.148L52.1,138h.2Zm10.227,0H56.008v-.909l3.445-3.828a8.185,8.185,0,0,0,1.056-1.412,2.356,2.356,0,0,0,.291-1.125,1.786,1.786,0,0,0-.472-1.278,1.649,1.649,0,0,0-1.258-.5,1.953,1.953,0,0,0-1.466.537,2.05,2.05,0,0,0-.523,1.494H55.816a2.936,2.936,0,0,1,.885-2.222,3.282,3.282,0,0,1,2.369-.848,3.153,3.153,0,0,1,2.194.728,2.483,2.483,0,0,1,.807,1.938q0,1.47-1.873,3.5l-2.666,2.892h5Zm7.581-4.245a5.784,5.784,0,0,1-.759,3.3,3.153,3.153,0,0,1-4.73.024,5.49,5.49,0,0,1-.793-3.155v-1.688a5.655,5.655,0,0,1,.759-3.261,3.21,3.21,0,0,1,4.744-.038,5.458,5.458,0,0,1,.779,3.175Zm-1.265-1.729a4.634,4.634,0,0,0-.451-2.341,1.553,1.553,0,0,0-1.429-.735,1.532,1.532,0,0,0-1.415.731,4.525,4.525,0,0,0-.458,2.249v2.023a4.708,4.708,0,0,0,.468,2.382,1.55,1.55,0,0,0,1.418.769,1.529,1.529,0,0,0,1.391-.725,4.538,4.538,0,0,0,.475-2.283Zm5.934,2a10.574,10.574,0,0,1-.4,2.922,8.641,8.641,0,0,1-1.224,2.581,5.361,5.361,0,0,1-1.726,1.682l-.267-.772a5.5,5.5,0,0,0,1.692-2.505,10.839,10.839,0,0,0,.653-3.77v-.219a11.253,11.253,0,0,0-.3-2.669,9.009,9.009,0,0,0-.837-2.211,5.108,5.108,0,0,0-1.207-1.524l.267-.772a5.34,5.34,0,0,1,1.719,1.668,8.66,8.66,0,0,1,1.224,2.577A10.818,10.818,0,0,1,74.779,144.028Zm-39.45,22.68H32.28V175H30.229v-8.292H27.222v-1.661h8.107Zm-.69,4.525a4.387,4.387,0,0,1,.424-1.962,3.1,3.1,0,0,1,1.22-1.333,3.56,3.56,0,0,1,1.849-.472,3.368,3.368,0,0,1,2.444.916,3.676,3.676,0,0,1,1.056,2.488l.014.506a3.866,3.866,0,0,1-.95,2.731,3.683,3.683,0,0,1-5.1,0,3.934,3.934,0,0,1-.954-2.789Zm1.976.14a2.765,2.765,0,0,0,.4,1.612,1.424,1.424,0,0,0,2.256.007,3.025,3.025,0,0,0,.4-1.763,2.737,2.737,0,0,0-.4-1.6,1.311,1.311,0,0,0-1.135-.568,1.29,1.29,0,0,0-1.121.565A3.076,3.076,0,0,0,36.614,171.374Zm8.613-5.588V167.6h1.265v1.449H45.228v3.691a.881.881,0,0,0,.157.588.79.79,0,0,0,.6.178,3.15,3.15,0,0,0,.581-.048v1.5a4.067,4.067,0,0,1-1.2.178,1.886,1.886,0,0,1-2.119-2.1v-3.985h-1.08V167.6h1.08v-1.818ZM51.879,175a2.194,2.194,0,0,1-.2-.663,2.39,2.39,0,0,1-1.866.8,2.626,2.626,0,0,1-1.8-.629,2.023,2.023,0,0,1-.714-1.586,2.09,2.09,0,0,1,.872-1.8,4.3,4.3,0,0,1,2.519-.636H51.6v-.424a1.219,1.219,0,0,0-.263-.82,1.035,1.035,0,0,0-.831-.308,1.177,1.177,0,0,0-.783.239.813.813,0,0,0-.284.656H47.463a1.984,1.984,0,0,1,.4-1.189,2.621,2.621,0,0,1,1.121-.858,4.086,4.086,0,0,1,1.627-.311,3.228,3.228,0,0,1,2.17.687,2.4,2.4,0,0,1,.8,1.931v3.206a3.536,3.536,0,0,0,.294,1.593V175Zm-1.634-1.374a1.7,1.7,0,0,0,.807-.195,1.28,1.28,0,0,0,.547-.523v-1.271H50.86q-1.483,0-1.579,1.025l-.007.116a.791.791,0,0,0,.26.608A1.009,1.009,0,0,0,50.245,173.626ZM57.184,175H55.2V164.5h1.982Z" transform="translate(990 -3806)" fill="#29a2d9"/>
    <path id="Trazado_724612" data-name="Trazado 724612" d="M40.429,3.04V4.113H40.2a3.33,3.33,0,0,0-2.352.875,3.641,3.641,0,0,0-1.012,2.386,2.7,2.7,0,0,1,2.146-.9,2.581,2.581,0,0,1,2.075.916,3.533,3.533,0,0,1,.776,2.365,3.522,3.522,0,0,1-.837,2.461,2.883,2.883,0,0,1-2.246.923,2.841,2.841,0,0,1-2.317-1.1,4.348,4.348,0,0,1-.889-2.827V8.728a6.552,6.552,0,0,1,1.172-4.2A4.306,4.306,0,0,1,40.2,3.04ZM38.768,7.524a2.125,2.125,0,0,0-1.955,1.367v.465a3.265,3.265,0,0,0,.554,1.982,1.659,1.659,0,0,0,1.381.752,1.608,1.608,0,0,0,1.343-.629,2.61,2.61,0,0,0,.489-1.647,2.61,2.61,0,0,0-.5-1.658A1.589,1.589,0,0,0,38.768,7.524Zm5.141.485.506-4.963h5.1V4.216H45.487l-.3,2.714A3.212,3.212,0,0,1,46.848,6.5a2.746,2.746,0,0,1,2.16.9,3.523,3.523,0,0,1,.8,2.43,3.4,3.4,0,0,1-.831,2.423,3.027,3.027,0,0,1-2.321.885,3.146,3.146,0,0,1-2.153-.731,2.919,2.919,0,0,1-.95-2.023h1.2a2.008,2.008,0,0,0,.608,1.289,1.892,1.892,0,0,0,1.3.434,1.706,1.706,0,0,0,1.384-.6,2.515,2.515,0,0,0,.5-1.661A2.308,2.308,0,0,0,48,8.239a1.849,1.849,0,0,0-1.446-.6,2.085,2.085,0,0,0-1.3.362l-.335.273ZM41.892,30.758,37.77,40H36.443l4.108-8.914H35.165V30.047h6.727Zm2.017,4.252.506-4.963h5.1v1.169H45.487l-.3,2.714a3.212,3.212,0,0,1,1.661-.431,2.746,2.746,0,0,1,2.16.9,3.523,3.523,0,0,1,.8,2.43,3.4,3.4,0,0,1-.831,2.423,3.027,3.027,0,0,1-2.321.885,3.146,3.146,0,0,1-2.153-.731,2.919,2.919,0,0,1-.95-2.023h1.2a2.008,2.008,0,0,0,.608,1.289,1.892,1.892,0,0,0,1.3.434,1.706,1.706,0,0,0,1.384-.6,2.515,2.515,0,0,0,.5-1.661,2.308,2.308,0,0,0-.543-1.6,1.849,1.849,0,0,0-1.446-.6,2.085,2.085,0,0,0-1.3.362l-.335.273ZM41.5,59.645a2.311,2.311,0,0,1-.393,1.326,2.674,2.674,0,0,1-1.063.909,2.853,2.853,0,0,1,1.234.978,2.46,2.46,0,0,1,.455,1.456,2.6,2.6,0,0,1-.872,2.058,3.821,3.821,0,0,1-4.594,0,2.613,2.613,0,0,1-.865-2.054,2.533,2.533,0,0,1,.441-1.456,2.744,2.744,0,0,1,1.22-.984,2.608,2.608,0,0,1-1.046-.909,2.344,2.344,0,0,1-.383-1.319,2.573,2.573,0,0,1,.807-2,3.425,3.425,0,0,1,4.249,0A2.567,2.567,0,0,1,41.5,59.645ZM40.47,64.286a1.834,1.834,0,0,0-.53-1.36,1.879,1.879,0,0,0-1.384-.526,1.78,1.78,0,0,0-1.887,1.887,1.767,1.767,0,0,0,.5,1.333,2.245,2.245,0,0,0,2.792,0A1.763,1.763,0,0,0,40.47,64.286Zm-1.9-6.337a1.632,1.632,0,0,0-1.207.461,1.909,1.909,0,0,0-.007,2.481,1.806,1.806,0,0,0,2.427,0,1.871,1.871,0,0,0-.017-2.464A1.609,1.609,0,0,0,38.569,57.949Zm5.339,4.061.506-4.963h5.1v1.169H45.487l-.3,2.714a3.212,3.212,0,0,1,1.661-.431,2.746,2.746,0,0,1,2.16.9,3.523,3.523,0,0,1,.8,2.43,3.4,3.4,0,0,1-.831,2.423,3.027,3.027,0,0,1-2.321.885,3.146,3.146,0,0,1-2.153-.731,2.919,2.919,0,0,1-.95-2.023h1.2a2.008,2.008,0,0,0,.608,1.289,1.892,1.892,0,0,0,1.3.434,1.706,1.706,0,0,0,1.384-.6,2.515,2.515,0,0,0,.5-1.661,2.308,2.308,0,0,0-.543-1.6,1.849,1.849,0,0,0-1.446-.6,2.085,2.085,0,0,0-1.3.362l-.335.273Zm-3.6,27.615a3.094,3.094,0,0,1-.947.759,2.569,2.569,0,0,1-1.207.287,2.652,2.652,0,0,1-1.5-.424,2.755,2.755,0,0,1-.988-1.193,4.067,4.067,0,0,1-.349-1.7,4.143,4.143,0,0,1,.379-1.8,2.787,2.787,0,0,1,1.077-1.224,3.07,3.07,0,0,1,1.627-.424,2.78,2.78,0,0,1,2.328,1.1,4.815,4.815,0,0,1,.851,3.011v.369a6.434,6.434,0,0,1-1.148,4.242,4.412,4.412,0,0,1-3.466,1.371h-.246V92.934h.267a3.012,3.012,0,0,0,3.322-3.309Zm-1.948,0a1.953,1.953,0,0,0,1.172-.39,2.3,2.3,0,0,0,.783-.964v-.506a3.48,3.48,0,0,0-.54-2.023,1.651,1.651,0,0,0-2.707-.14,2.637,2.637,0,0,0-.506,1.685,2.744,2.744,0,0,0,.489,1.678A1.548,1.548,0,0,0,38.364,89.625Zm5.544-.615.506-4.963h5.1v1.169H45.487l-.3,2.714a3.212,3.212,0,0,1,1.661-.431,2.746,2.746,0,0,1,2.16.9,3.523,3.523,0,0,1,.8,2.43,3.4,3.4,0,0,1-.831,2.423,3.027,3.027,0,0,1-2.321.885,3.146,3.146,0,0,1-2.153-.731,2.919,2.919,0,0,1-.95-2.023h1.2a2.008,2.008,0,0,0,.608,1.289,1.892,1.892,0,0,0,1.3.434,1.706,1.706,0,0,0,1.384-.6,2.515,2.515,0,0,0,.5-1.661,2.308,2.308,0,0,0-.543-1.6,1.849,1.849,0,0,0-1.446-.6,2.085,2.085,0,0,0-1.3.362l-.335.273ZM35.691,121H34.42v-8.429l-2.55.937v-1.148L35.493,111h.2Zm9.946-4.245a5.784,5.784,0,0,1-.759,3.3,3.153,3.153,0,0,1-4.73.024,5.49,5.49,0,0,1-.793-3.155v-1.688a5.655,5.655,0,0,1,.759-3.261,2.719,2.719,0,0,1,2.379-1.066,2.744,2.744,0,0,1,2.365,1.029,5.458,5.458,0,0,1,.779,3.175Zm-1.265-1.729a4.634,4.634,0,0,0-.451-2.341,1.553,1.553,0,0,0-1.429-.735,1.532,1.532,0,0,0-1.415.731,4.525,4.525,0,0,0-.458,2.249v2.023a4.708,4.708,0,0,0,.468,2.382,1.55,1.55,0,0,0,1.418.769,1.529,1.529,0,0,0,1.391-.725,4.538,4.538,0,0,0,.475-2.283Zm3.466.984.506-4.963h5.1v1.169H49.418l-.3,2.714a3.212,3.212,0,0,1,1.661-.431,2.746,2.746,0,0,1,2.16.9,3.523,3.523,0,0,1,.8,2.43,3.4,3.4,0,0,1-.831,2.423,3.027,3.027,0,0,1-2.321.885,3.146,3.146,0,0,1-2.153-.731,2.919,2.919,0,0,1-.95-2.023h1.2a2.008,2.008,0,0,0,.608,1.289,1.892,1.892,0,0,0,1.3.434,1.706,1.706,0,0,0,1.384-.6,2.515,2.515,0,0,0,.5-1.661,2.308,2.308,0,0,0-.543-1.6,1.849,1.849,0,0,0-1.446-.6,2.085,2.085,0,0,0-1.3.362l-.335.273ZM35.691,148H34.42v-8.429l-2.55.937v-1.148L35.493,138h.2Zm7.861,0H42.281v-8.429l-2.55.937v-1.148L43.354,138h.2Zm4.286-4.99.506-4.963h5.1v1.169H49.418l-.3,2.714a3.212,3.212,0,0,1,1.661-.431,2.746,2.746,0,0,1,2.16.9,3.523,3.523,0,0,1,.8,2.43,3.4,3.4,0,0,1-.831,2.423,3.027,3.027,0,0,1-2.321.885,3.146,3.146,0,0,1-2.153-.731,2.919,2.919,0,0,1-.95-2.023h1.2a2.008,2.008,0,0,0,.608,1.289,1.892,1.892,0,0,0,1.3.434,1.706,1.706,0,0,0,1.384-.6,2.515,2.515,0,0,0,.5-1.661,2.308,2.308,0,0,0-.543-1.6,1.849,1.849,0,0,0-1.446-.6,2.085,2.085,0,0,0-1.3.362l-.335.273Z" transform="translate(1075 -3806)" fill="#12263f"/>
    <path id="Trazado_724613" data-name="Trazado 724613" d="M41.235,7.408h.95a2.088,2.088,0,0,0,1.408-.472A1.576,1.576,0,0,0,44.106,5.7a1.544,1.544,0,0,0-1.743-1.75,1.813,1.813,0,0,0-1.309.468,1.639,1.639,0,0,0-.489,1.241H39.3a2.539,2.539,0,0,1,.865-1.965,3.15,3.15,0,0,1,2.2-.783,3.113,3.113,0,0,1,2.208.745,2.692,2.692,0,0,1,.8,2.071,2.185,2.185,0,0,1-.42,1.258,2.538,2.538,0,0,1-1.145.909,2.446,2.446,0,0,1,1.268.861,2.392,2.392,0,0,1,.448,1.47,2.715,2.715,0,0,1-.875,2.126,3.277,3.277,0,0,1-2.276.786,3.363,3.363,0,0,1-2.28-.759,2.517,2.517,0,0,1-.878-2h1.271A1.627,1.627,0,0,0,41,11.633a1.95,1.95,0,0,0,1.374.472,1.914,1.914,0,0,0,1.4-.479,1.844,1.844,0,0,0,.485-1.374,1.673,1.673,0,0,0-.533-1.333,2.323,2.323,0,0,0-1.538-.479h-.95Zm-1.258,27.6.506-4.963h5.1v1.169H41.557l-.3,2.714a3.212,3.212,0,0,1,1.661-.431,2.746,2.746,0,0,1,2.16.9,3.523,3.523,0,0,1,.8,2.43,3.4,3.4,0,0,1-.831,2.423,3.027,3.027,0,0,1-2.321.885,3.146,3.146,0,0,1-2.153-.731,2.919,2.919,0,0,1-.95-2.023h1.2a2.008,2.008,0,0,0,.608,1.289,1.892,1.892,0,0,0,1.3.434,1.706,1.706,0,0,0,1.384-.6,2.515,2.515,0,0,0,.5-1.661,2.308,2.308,0,0,0-.543-1.6,1.849,1.849,0,0,0-1.446-.6,2.085,2.085,0,0,0-1.3.362l-.335.273Zm5.845,22.748L41.7,67H40.374l4.108-8.914H39.1V57.047h6.727ZM39.622,94H38.351V85.571l-2.55.937V85.359L39.424,84h.2Zm7.861,0H46.212V85.571l-2.55.937V85.359L47.285,84h.2Zm-2.051,19.645a2.311,2.311,0,0,1-.393,1.326,2.674,2.674,0,0,1-1.063.909,2.853,2.853,0,0,1,1.234.978,2.46,2.46,0,0,1,.455,1.456,2.6,2.6,0,0,1-.872,2.058,3.821,3.821,0,0,1-4.594,0,2.613,2.613,0,0,1-.865-2.054,2.533,2.533,0,0,1,.441-1.456,2.744,2.744,0,0,1,1.22-.984,2.608,2.608,0,0,1-1.046-.909,2.344,2.344,0,0,1-.383-1.319,2.573,2.573,0,0,1,.807-2,3.425,3.425,0,0,1,4.249,0A2.567,2.567,0,0,1,45.433,113.645ZM44.4,118.286a1.834,1.834,0,0,0-.53-1.36,1.879,1.879,0,0,0-1.384-.526,1.78,1.78,0,0,0-1.887,1.887,1.767,1.767,0,0,0,.5,1.333,2.245,2.245,0,0,0,2.792,0A1.763,1.763,0,0,0,44.4,118.286Zm-1.9-6.337a1.632,1.632,0,0,0-1.207.461,1.909,1.909,0,0,0-.007,2.481,1.806,1.806,0,0,0,2.427,0,1.871,1.871,0,0,0-.017-2.464A1.609,1.609,0,0,0,42.5,111.949Zm1.859,26.091v1.073h-.232a3.33,3.33,0,0,0-2.352.875,3.641,3.641,0,0,0-1.012,2.386,2.7,2.7,0,0,1,2.146-.9,2.581,2.581,0,0,1,2.075.916,4.014,4.014,0,0,1-.062,4.826,2.883,2.883,0,0,1-2.246.923,2.841,2.841,0,0,1-2.317-1.1,4.348,4.348,0,0,1-.889-2.827v-.485a6.552,6.552,0,0,1,1.172-4.2,4.306,4.306,0,0,1,3.49-1.487ZM42.7,142.524a2.125,2.125,0,0,0-1.955,1.367v.465a3.265,3.265,0,0,0,.554,1.982,1.659,1.659,0,0,0,1.381.752,1.608,1.608,0,0,0,1.343-.629,3.021,3.021,0,0,0-.007-3.305A1.589,1.589,0,0,0,42.7,142.524Zm-1.709,28.729h1.128v1.593H40.989V175H39.014v-2.153H34.933l-.089-1.244,4.149-6.556h2Zm-4.177,0h2.2V167.74l-.13.226Zm13.063-.369a5.042,5.042,0,0,1-.854,3.158,3.415,3.415,0,0,1-4.99.021,4.895,4.895,0,0,1-.882-3.076v-1.832a4.976,4.976,0,0,1,.865-3.165,3.421,3.421,0,0,1,4.98-.01,4.879,4.879,0,0,1,.882,3.073ZM47.9,168.871a3.645,3.645,0,0,0-.338-1.8,1.144,1.144,0,0,0-1.056-.564,1.123,1.123,0,0,0-1.029.537,3.411,3.411,0,0,0-.352,1.68v2.422a3.826,3.826,0,0,0,.332,1.81,1.128,1.128,0,0,0,1.063.592,1.109,1.109,0,0,0,1.046-.568,3.734,3.734,0,0,0,.335-1.738Z" transform="translate(1160 -3806)" fill="#29a2d9"/>
    <path id="Trazado_724614" data-name="Trazado 724614" d="M33.735,7.408h.95a2.088,2.088,0,0,0,1.408-.472A1.576,1.576,0,0,0,36.606,5.7a1.544,1.544,0,0,0-1.743-1.75,1.813,1.813,0,0,0-1.309.468,1.639,1.639,0,0,0-.489,1.241H31.8a2.539,2.539,0,0,1,.865-1.965,3.15,3.15,0,0,1,2.2-.783,3.113,3.113,0,0,1,2.208.745,2.692,2.692,0,0,1,.8,2.071,2.185,2.185,0,0,1-.42,1.258,2.538,2.538,0,0,1-1.145.909,2.446,2.446,0,0,1,1.268.861,2.392,2.392,0,0,1,.448,1.47,2.715,2.715,0,0,1-.875,2.126,3.277,3.277,0,0,1-2.276.786,3.363,3.363,0,0,1-2.28-.759,2.517,2.517,0,0,1-.878-2h1.271a1.627,1.627,0,0,0,.513,1.258,1.95,1.95,0,0,0,1.374.472,1.914,1.914,0,0,0,1.4-.479,1.844,1.844,0,0,0,.485-1.374,1.673,1.673,0,0,0-.533-1.333,2.323,2.323,0,0,0-1.538-.479h-.95Zm4.2,25.236a2.311,2.311,0,0,1-.393,1.326,2.674,2.674,0,0,1-1.063.909,2.853,2.853,0,0,1,1.234.978,2.46,2.46,0,0,1,.455,1.456,2.6,2.6,0,0,1-.872,2.058,3.821,3.821,0,0,1-4.594,0,2.613,2.613,0,0,1-.865-2.054,2.533,2.533,0,0,1,.441-1.456,2.744,2.744,0,0,1,1.22-.984,2.608,2.608,0,0,1-1.046-.909,2.344,2.344,0,0,1-.383-1.319,2.573,2.573,0,0,1,.807-2,3.425,3.425,0,0,1,4.249,0A2.567,2.567,0,0,1,37.933,32.645ZM36.9,37.286a1.834,1.834,0,0,0-.53-1.36,1.879,1.879,0,0,0-1.384-.526A1.78,1.78,0,0,0,33.1,37.286a1.767,1.767,0,0,0,.5,1.333,2.245,2.245,0,0,0,2.792,0A1.763,1.763,0,0,0,36.9,37.286ZM35,30.949a1.632,1.632,0,0,0-1.207.461,1.909,1.909,0,0,0-.007,2.481,1.806,1.806,0,0,0,2.427,0,1.871,1.871,0,0,0-.017-2.464A1.609,1.609,0,0,0,35,30.949ZM32.122,67H30.851V58.571l-2.55.937V58.359L31.924,57h.2Zm4.286-4.99.506-4.963h5.1v1.169H37.987l-.3,2.714a3.212,3.212,0,0,1,1.661-.431,2.746,2.746,0,0,1,2.16.9,3.523,3.523,0,0,1,.8,2.43,3.4,3.4,0,0,1-.831,2.423,3.027,3.027,0,0,1-2.321.885A3.146,3.146,0,0,1,37,66.405a2.919,2.919,0,0,1-.95-2.023h1.2a2.008,2.008,0,0,0,.608,1.289,1.892,1.892,0,0,0,1.3.434,1.706,1.706,0,0,0,1.384-.6,2.515,2.515,0,0,0,.5-1.661,2.308,2.308,0,0,0-.543-1.6,1.849,1.849,0,0,0-1.446-.6,2.085,2.085,0,0,0-1.3.362l-.335.273ZM34.487,94H27.966v-.909l3.445-3.828a8.185,8.185,0,0,0,1.056-1.412,2.356,2.356,0,0,0,.291-1.125,1.786,1.786,0,0,0-.472-1.278,1.649,1.649,0,0,0-1.258-.5,1.953,1.953,0,0,0-1.466.537,2.05,2.05,0,0,0-.523,1.494H27.774a2.936,2.936,0,0,1,.885-2.222,3.282,3.282,0,0,1,2.369-.848,3.153,3.153,0,0,1,2.194.728,2.483,2.483,0,0,1,.807,1.938q0,1.47-1.873,3.5L29.49,92.968h5Zm6.3-9.96v1.073h-.232a3.33,3.33,0,0,0-2.352.875,3.641,3.641,0,0,0-1.012,2.386,2.7,2.7,0,0,1,2.146-.9,2.581,2.581,0,0,1,2.075.916,4.014,4.014,0,0,1-.062,4.826,2.883,2.883,0,0,1-2.246.923,2.841,2.841,0,0,1-2.317-1.1,4.348,4.348,0,0,1-.889-2.827v-.485a6.552,6.552,0,0,1,1.172-4.2,4.306,4.306,0,0,1,3.49-1.487Zm-1.661,4.484a2.125,2.125,0,0,0-1.955,1.367v.465a3.265,3.265,0,0,0,.554,1.982,1.659,1.659,0,0,0,1.381.752,1.608,1.608,0,0,0,1.343-.629,3.021,3.021,0,0,0-.007-3.305A1.589,1.589,0,0,0,39.129,88.524ZM29.8,115.408h.95a2.088,2.088,0,0,0,1.408-.472,1.576,1.576,0,0,0,.513-1.237,1.544,1.544,0,0,0-1.743-1.75,1.813,1.813,0,0,0-1.309.468,1.639,1.639,0,0,0-.489,1.241H27.87a2.539,2.539,0,0,1,.865-1.965,3.15,3.15,0,0,1,2.2-.783,3.113,3.113,0,0,1,2.208.745,2.692,2.692,0,0,1,.8,2.071,2.185,2.185,0,0,1-.42,1.258,2.538,2.538,0,0,1-1.145.909,2.446,2.446,0,0,1,1.268.861,2.392,2.392,0,0,1,.448,1.47,2.715,2.715,0,0,1-.875,2.126,3.277,3.277,0,0,1-2.276.786,3.363,3.363,0,0,1-2.28-.759,2.517,2.517,0,0,1-.878-2h1.271a1.627,1.627,0,0,0,.513,1.258,1.95,1.95,0,0,0,1.374.472,1.914,1.914,0,0,0,1.4-.479,1.844,1.844,0,0,0,.485-1.374,1.673,1.673,0,0,0-.533-1.333,2.323,2.323,0,0,0-1.538-.479H29.8Zm11.361,2.249h1.381v1.032H41.166V121H39.895v-2.311H35.362v-.745l4.457-6.9h1.347Zm-4.368,0h3.1v-4.881l-.15.273Zm-3.493,27h1.381v1.032H33.3V148H32.033v-2.311H27.5v-.745l4.457-6.9H33.3Zm-4.368,0h3.1v-4.881l-.15.273Zm13.132-.9a5.784,5.784,0,0,1-.759,3.3,2.7,2.7,0,0,1-2.372,1.08,2.718,2.718,0,0,1-2.358-1.056,5.49,5.49,0,0,1-.793-3.155v-1.688a5.655,5.655,0,0,1,.759-3.261,2.719,2.719,0,0,1,2.379-1.066,2.744,2.744,0,0,1,2.365,1.029,5.458,5.458,0,0,1,.779,3.175ZM40.8,142.025a4.634,4.634,0,0,0-.451-2.341,1.553,1.553,0,0,0-1.429-.735,1.532,1.532,0,0,0-1.415.731,4.525,4.525,0,0,0-.458,2.249v2.023a4.708,4.708,0,0,0,.468,2.382,1.55,1.55,0,0,0,1.418.769,1.529,1.529,0,0,0,1.391-.725A4.538,4.538,0,0,0,40.8,144.1Z" transform="translate(1245 -3806)" fill="#12263f"/>
    <path id="Trazado_724615" data-name="Trazado 724615" d="M24.972,8.755a5.784,5.784,0,0,1-.759,3.3,2.7,2.7,0,0,1-2.372,1.08,2.718,2.718,0,0,1-2.358-1.056,5.49,5.49,0,0,1-.793-3.155V7.237a5.655,5.655,0,0,1,.759-3.261A2.719,2.719,0,0,1,21.827,2.91a2.744,2.744,0,0,1,2.365,1.029,5.458,5.458,0,0,1,.779,3.175ZM23.707,7.025a4.634,4.634,0,0,0-.451-2.341,1.553,1.553,0,0,0-1.429-.735,1.532,1.532,0,0,0-1.415.731,4.525,4.525,0,0,0-.458,2.249V8.953a4.708,4.708,0,0,0,.468,2.382,1.55,1.55,0,0,0,1.418.769,1.529,1.529,0,0,0,1.391-.725A4.538,4.538,0,0,0,23.707,9.1Zm2.974,7.957-.718-.492a3.3,3.3,0,0,0,.67-1.846V11.5H27.87v.991a3.114,3.114,0,0,1-.338,1.381A3.233,3.233,0,0,1,26.681,14.982Zm8.9-6.228a5.784,5.784,0,0,1-.759,3.3,2.7,2.7,0,0,1-2.372,1.08,2.718,2.718,0,0,1-2.358-1.056A5.49,5.49,0,0,1,29.3,8.926V7.237a5.655,5.655,0,0,1,.759-3.261A2.719,2.719,0,0,1,32.437,2.91,2.744,2.744,0,0,1,34.8,3.939a5.458,5.458,0,0,1,.779,3.175ZM34.316,7.025a4.634,4.634,0,0,0-.451-2.341,1.553,1.553,0,0,0-1.429-.735,1.532,1.532,0,0,0-1.415.731,4.525,4.525,0,0,0-.458,2.249V8.953a4.708,4.708,0,0,0,.468,2.382,1.55,1.55,0,0,0,1.418.769,1.529,1.529,0,0,0,1.391-.725A4.538,4.538,0,0,0,34.316,9.1Zm9.311-3.268L39.5,13H38.179l4.108-8.914H36.9V3.047h6.727ZM45.644,8.01l.506-4.963h5.1V4.216H47.223l-.3,2.714A3.212,3.212,0,0,1,48.583,6.5a2.746,2.746,0,0,1,2.16.9,3.523,3.523,0,0,1,.8,2.43,3.4,3.4,0,0,1-.831,2.423,3.027,3.027,0,0,1-2.321.885,3.146,3.146,0,0,1-2.153-.731,2.919,2.919,0,0,1-.95-2.023h1.2a2.008,2.008,0,0,0,.608,1.289,1.892,1.892,0,0,0,1.3.434,1.706,1.706,0,0,0,1.384-.6,2.515,2.515,0,0,0,.5-1.661,2.308,2.308,0,0,0-.543-1.6,1.849,1.849,0,0,0-1.446-.6A2.085,2.085,0,0,0,46.99,8l-.335.273ZM24.972,35.755a5.784,5.784,0,0,1-.759,3.3,2.7,2.7,0,0,1-2.372,1.08,2.718,2.718,0,0,1-2.358-1.056,5.49,5.49,0,0,1-.793-3.155V34.237a5.655,5.655,0,0,1,.759-3.261,2.719,2.719,0,0,1,2.379-1.066,2.744,2.744,0,0,1,2.365,1.029,5.458,5.458,0,0,1,.779,3.175Zm-1.265-1.729a4.634,4.634,0,0,0-.451-2.341,1.553,1.553,0,0,0-1.429-.735,1.532,1.532,0,0,0-1.415.731,4.525,4.525,0,0,0-.458,2.249v2.023a4.708,4.708,0,0,0,.468,2.382,1.55,1.55,0,0,0,1.418.769,1.529,1.529,0,0,0,1.391-.725,4.538,4.538,0,0,0,.475-2.283Zm2.974,7.957-.718-.492a3.3,3.3,0,0,0,.67-1.846V38.5H27.87v.991a3.114,3.114,0,0,1-.338,1.381A3.233,3.233,0,0,1,26.681,41.982ZM33.5,40H32.225V31.571l-2.55.937V31.359L33.3,30h.2Zm10.227,0H37.2v-.909l3.445-3.828A8.185,8.185,0,0,0,41.7,33.851a2.356,2.356,0,0,0,.291-1.125,1.786,1.786,0,0,0-.472-1.278,1.649,1.649,0,0,0-1.258-.5,1.953,1.953,0,0,0-1.466.537,2.05,2.05,0,0,0-.523,1.494H37.01a2.936,2.936,0,0,1,.885-2.222,3.282,3.282,0,0,1,2.369-.848,3.153,3.153,0,0,1,2.194.728,2.483,2.483,0,0,1,.807,1.938q0,1.47-1.873,3.5l-2.666,2.892h5Zm1.921-4.99.506-4.963h5.1v1.169H47.223l-.3,2.714a3.212,3.212,0,0,1,1.661-.431,2.746,2.746,0,0,1,2.16.9,3.523,3.523,0,0,1,.8,2.43,3.4,3.4,0,0,1-.831,2.423,3.027,3.027,0,0,1-2.321.885,3.146,3.146,0,0,1-2.153-.731,2.919,2.919,0,0,1-.95-2.023h1.2a2.008,2.008,0,0,0,.608,1.289,1.892,1.892,0,0,0,1.3.434,1.706,1.706,0,0,0,1.384-.6,2.515,2.515,0,0,0,.5-1.661,2.308,2.308,0,0,0-.543-1.6,1.849,1.849,0,0,0-1.446-.6,2.085,2.085,0,0,0-1.3.362l-.335.273ZM24.972,62.755a5.784,5.784,0,0,1-.759,3.3,2.7,2.7,0,0,1-2.372,1.08,2.718,2.718,0,0,1-2.358-1.056,5.49,5.49,0,0,1-.793-3.155V61.237a5.655,5.655,0,0,1,.759-3.261,2.719,2.719,0,0,1,2.379-1.066,2.744,2.744,0,0,1,2.365,1.029,5.458,5.458,0,0,1,.779,3.175Zm-1.265-1.729a4.634,4.634,0,0,0-.451-2.341,1.553,1.553,0,0,0-1.429-.735,1.532,1.532,0,0,0-1.415.731,4.525,4.525,0,0,0-.458,2.249v2.023a4.708,4.708,0,0,0,.468,2.382,1.55,1.55,0,0,0,1.418.769,1.529,1.529,0,0,0,1.391-.725,4.538,4.538,0,0,0,.475-2.283Zm2.974,7.957-.718-.492a3.3,3.3,0,0,0,.67-1.846V65.5H27.87v.991a3.114,3.114,0,0,1-.338,1.381A3.233,3.233,0,0,1,26.681,68.982ZM33.5,67H32.225V58.571l-2.55.937V58.359L33.3,57h.2Zm10.131-9.242L39.5,67H38.179l4.108-8.914H36.9V57.047h6.727Zm2.017,4.252.506-4.963h5.1v1.169H47.223l-.3,2.714a3.212,3.212,0,0,1,1.661-.431,2.746,2.746,0,0,1,2.16.9,3.523,3.523,0,0,1,.8,2.43,3.4,3.4,0,0,1-.831,2.423,3.027,3.027,0,0,1-2.321.885,3.146,3.146,0,0,1-2.153-.731,2.919,2.919,0,0,1-.95-2.023h1.2a2.008,2.008,0,0,0,.608,1.289,1.892,1.892,0,0,0,1.3.434,1.706,1.706,0,0,0,1.384-.6,2.515,2.515,0,0,0,.5-1.661,2.308,2.308,0,0,0-.543-1.6,1.849,1.849,0,0,0-1.446-.6,2.085,2.085,0,0,0-1.3.362l-.335.273ZM24.972,89.755a5.784,5.784,0,0,1-.759,3.3,2.7,2.7,0,0,1-2.372,1.08,2.718,2.718,0,0,1-2.358-1.056,5.49,5.49,0,0,1-.793-3.155V88.237a5.655,5.655,0,0,1,.759-3.261,2.719,2.719,0,0,1,2.379-1.066,2.744,2.744,0,0,1,2.365,1.029,5.458,5.458,0,0,1,.779,3.175Zm-1.265-1.729a4.634,4.634,0,0,0-.451-2.341,1.553,1.553,0,0,0-1.429-.735,1.532,1.532,0,0,0-1.415.731,4.525,4.525,0,0,0-.458,2.249v2.023a4.708,4.708,0,0,0,.468,2.382,1.55,1.55,0,0,0,1.418.769,1.529,1.529,0,0,0,1.391-.725,4.538,4.538,0,0,0,.475-2.283Zm2.974,7.957-.718-.492a3.3,3.3,0,0,0,.67-1.846V92.5H27.87v.991a3.114,3.114,0,0,1-.338,1.381A3.233,3.233,0,0,1,26.681,95.982ZM35.861,94H29.34v-.909l3.445-3.828a8.185,8.185,0,0,0,1.056-1.412,2.356,2.356,0,0,0,.291-1.125,1.786,1.786,0,0,0-.472-1.278,1.649,1.649,0,0,0-1.258-.5,1.953,1.953,0,0,0-1.466.537,2.05,2.05,0,0,0-.523,1.494H29.148a2.936,2.936,0,0,1,.885-2.222A3.282,3.282,0,0,1,32.4,83.91a3.153,3.153,0,0,1,2.194.728,2.483,2.483,0,0,1,.807,1.938q0,1.47-1.873,3.5l-2.666,2.892h5Zm7.766-9.242L39.5,94H38.179l4.108-8.914H36.9V84.047h6.727Zm2.017,4.252.506-4.963h5.1v1.169H47.223l-.3,2.714a3.212,3.212,0,0,1,1.661-.431,2.746,2.746,0,0,1,2.16.9,3.523,3.523,0,0,1,.8,2.43,3.4,3.4,0,0,1-.831,2.423,3.027,3.027,0,0,1-2.321.885,3.146,3.146,0,0,1-2.153-.731,2.919,2.919,0,0,1-.95-2.023h1.2a2.008,2.008,0,0,0,.608,1.289,1.892,1.892,0,0,0,1.3.434,1.706,1.706,0,0,0,1.384-.6,2.515,2.515,0,0,0,.5-1.661,2.308,2.308,0,0,0-.543-1.6,1.849,1.849,0,0,0-1.446-.6,2.085,2.085,0,0,0-1.3.362l-.335.273ZM32.833,116.755a5.784,5.784,0,0,1-.759,3.3,2.7,2.7,0,0,1-2.372,1.08,2.718,2.718,0,0,1-2.358-1.056,5.49,5.49,0,0,1-.793-3.155v-1.688a5.655,5.655,0,0,1,.759-3.261,2.719,2.719,0,0,1,2.379-1.066,2.744,2.744,0,0,1,2.365,1.029,5.458,5.458,0,0,1,.779,3.175Zm-1.265-1.729a4.634,4.634,0,0,0-.451-2.341,1.553,1.553,0,0,0-1.429-.735,1.532,1.532,0,0,0-1.415.731,4.525,4.525,0,0,0-.458,2.249v2.023a4.708,4.708,0,0,0,.468,2.382,1.55,1.55,0,0,0,1.418.769,1.529,1.529,0,0,0,1.391-.725,4.538,4.538,0,0,0,.475-2.283Zm2.974,7.957-.718-.492a3.3,3.3,0,0,0,.67-1.846V119.5h1.237v.991a3.114,3.114,0,0,1-.338,1.381A3.233,3.233,0,0,1,34.542,122.982ZM43.723,121H37.2v-.909l3.445-3.828a8.185,8.185,0,0,0,1.056-1.412,2.356,2.356,0,0,0,.291-1.125,1.786,1.786,0,0,0-.472-1.278,1.649,1.649,0,0,0-1.258-.5,1.953,1.953,0,0,0-1.466.537,2.05,2.05,0,0,0-.523,1.494H37.01a2.936,2.936,0,0,1,.885-2.222,3.282,3.282,0,0,1,2.369-.848,3.153,3.153,0,0,1,2.194.728,2.483,2.483,0,0,1,.807,1.938q0,1.47-1.873,3.5l-2.666,2.892h5ZM28.9,143.755a5.784,5.784,0,0,1-.759,3.3,2.7,2.7,0,0,1-2.372,1.08,2.718,2.718,0,0,1-2.358-1.056,5.49,5.49,0,0,1-.793-3.155v-1.688a5.655,5.655,0,0,1,.759-3.261,2.719,2.719,0,0,1,2.379-1.066,2.744,2.744,0,0,1,2.365,1.029,5.458,5.458,0,0,1,.779,3.175Zm-1.265-1.729a4.634,4.634,0,0,0-.451-2.341,1.553,1.553,0,0,0-1.429-.735,1.532,1.532,0,0,0-1.415.731,4.525,4.525,0,0,0-.458,2.249v2.023a4.708,4.708,0,0,0,.468,2.382,1.55,1.55,0,0,0,1.418.769,1.529,1.529,0,0,0,1.391-.725,4.538,4.538,0,0,0,.475-2.283Zm2.974,7.957-.718-.492a3.3,3.3,0,0,0,.67-1.846V146.5H31.8v.991a3.114,3.114,0,0,1-.338,1.381A3.233,3.233,0,0,1,30.611,149.982ZM37.427,148H36.155v-8.429l-2.55.937v-1.148L37.229,138h.2Zm4.286-4.99.506-4.963h5.1v1.169H43.292l-.3,2.714a3.212,3.212,0,0,1,1.661-.431,2.746,2.746,0,0,1,2.16.9,3.523,3.523,0,0,1,.8,2.43,3.4,3.4,0,0,1-.831,2.423,3.027,3.027,0,0,1-2.321.885,3.146,3.146,0,0,1-2.153-.731,2.919,2.919,0,0,1-.95-2.023h1.2a2.008,2.008,0,0,0,.608,1.289,1.892,1.892,0,0,0,1.3.434,1.706,1.706,0,0,0,1.384-.6,2.515,2.515,0,0,0,.5-1.661,2.308,2.308,0,0,0-.543-1.6,1.849,1.849,0,0,0-1.446-.6,2.085,2.085,0,0,0-1.3.362l-.335.273ZM36.459,175H34.484v-7.626l-2.358.728V166.51l4.122-1.477h.212Z" transform="translate(1315 -3806)" fill="#29a2d9"/>
    <path id="Trazado_724616" data-name="Trazado 724616" d="M24.972,8.755a5.784,5.784,0,0,1-.759,3.3,2.7,2.7,0,0,1-2.372,1.08,2.718,2.718,0,0,1-2.358-1.056,5.49,5.49,0,0,1-.793-3.155V7.237a5.655,5.655,0,0,1,.759-3.261A2.719,2.719,0,0,1,21.827,2.91a2.744,2.744,0,0,1,2.365,1.029,5.458,5.458,0,0,1,.779,3.175ZM23.707,7.025a4.634,4.634,0,0,0-.451-2.341,1.553,1.553,0,0,0-1.429-.735,1.532,1.532,0,0,0-1.415.731,4.525,4.525,0,0,0-.458,2.249V8.953a4.708,4.708,0,0,0,.468,2.382,1.55,1.55,0,0,0,1.418.769,1.529,1.529,0,0,0,1.391-.725A4.538,4.538,0,0,0,23.707,9.1Zm2.974,7.957-.718-.492a3.3,3.3,0,0,0,.67-1.846V11.5H27.87v.991a3.114,3.114,0,0,1-.338,1.381A3.233,3.233,0,0,1,26.681,14.982Zm8.9-6.228a5.784,5.784,0,0,1-.759,3.3,2.7,2.7,0,0,1-2.372,1.08,2.718,2.718,0,0,1-2.358-1.056A5.49,5.49,0,0,1,29.3,8.926V7.237a5.655,5.655,0,0,1,.759-3.261A2.719,2.719,0,0,1,32.437,2.91,2.744,2.744,0,0,1,34.8,3.939a5.458,5.458,0,0,1,.779,3.175ZM34.316,7.025a4.634,4.634,0,0,0-.451-2.341,1.553,1.553,0,0,0-1.429-.735,1.532,1.532,0,0,0-1.415.731,4.525,4.525,0,0,0-.458,2.249V8.953a4.708,4.708,0,0,0,.468,2.382,1.55,1.55,0,0,0,1.418.769,1.529,1.529,0,0,0,1.391-.725A4.538,4.538,0,0,0,34.316,9.1Zm9.311-3.268L39.5,13H38.179l4.108-8.914H36.9V3.047h6.727ZM45.644,8.01l.506-4.963h5.1V4.216H47.223l-.3,2.714A3.212,3.212,0,0,1,48.583,6.5a2.746,2.746,0,0,1,2.16.9,3.523,3.523,0,0,1,.8,2.43,3.4,3.4,0,0,1-.831,2.423,3.027,3.027,0,0,1-2.321.885,3.146,3.146,0,0,1-2.153-.731,2.919,2.919,0,0,1-.95-2.023h1.2a2.008,2.008,0,0,0,.608,1.289,1.892,1.892,0,0,0,1.3.434,1.706,1.706,0,0,0,1.384-.6,2.515,2.515,0,0,0,.5-1.661,2.308,2.308,0,0,0-.543-1.6,1.849,1.849,0,0,0-1.446-.6A2.085,2.085,0,0,0,46.99,8l-.335.273ZM32.833,35.755a5.784,5.784,0,0,1-.759,3.3,2.7,2.7,0,0,1-2.372,1.08,2.718,2.718,0,0,1-2.358-1.056,5.49,5.49,0,0,1-.793-3.155V34.237a5.655,5.655,0,0,1,.759-3.261,2.719,2.719,0,0,1,2.379-1.066,2.744,2.744,0,0,1,2.365,1.029,5.458,5.458,0,0,1,.779,3.175Zm-1.265-1.729a4.634,4.634,0,0,0-.451-2.341,1.553,1.553,0,0,0-1.429-.735,1.532,1.532,0,0,0-1.415.731,4.525,4.525,0,0,0-.458,2.249v2.023a4.708,4.708,0,0,0,.468,2.382A1.55,1.55,0,0,0,29.7,39.1a1.529,1.529,0,0,0,1.391-.725,4.538,4.538,0,0,0,.475-2.283Zm2.974,7.957-.718-.492a3.3,3.3,0,0,0,.67-1.846V38.5h1.237v.991a3.114,3.114,0,0,1-.338,1.381A3.233,3.233,0,0,1,34.542,41.982ZM43.723,40H37.2v-.909l3.445-3.828A8.185,8.185,0,0,0,41.7,33.851a2.356,2.356,0,0,0,.291-1.125,1.786,1.786,0,0,0-.472-1.278,1.649,1.649,0,0,0-1.258-.5,1.953,1.953,0,0,0-1.466.537,2.05,2.05,0,0,0-.523,1.494H37.01a2.936,2.936,0,0,1,.885-2.222,3.282,3.282,0,0,1,2.369-.848,3.153,3.153,0,0,1,2.194.728,2.483,2.483,0,0,1,.807,1.938q0,1.47-1.873,3.5l-2.666,2.892h5ZM24.972,62.755a5.784,5.784,0,0,1-.759,3.3,2.7,2.7,0,0,1-2.372,1.08,2.718,2.718,0,0,1-2.358-1.056,5.49,5.49,0,0,1-.793-3.155V61.237a5.655,5.655,0,0,1,.759-3.261,2.719,2.719,0,0,1,2.379-1.066,2.744,2.744,0,0,1,2.365,1.029,5.458,5.458,0,0,1,.779,3.175Zm-1.265-1.729a4.634,4.634,0,0,0-.451-2.341,1.553,1.553,0,0,0-1.429-.735,1.532,1.532,0,0,0-1.415.731,4.525,4.525,0,0,0-.458,2.249v2.023a4.708,4.708,0,0,0,.468,2.382,1.55,1.55,0,0,0,1.418.769,1.529,1.529,0,0,0,1.391-.725,4.538,4.538,0,0,0,.475-2.283Zm2.974,7.957-.718-.492a3.3,3.3,0,0,0,.67-1.846V65.5H27.87v.991a3.114,3.114,0,0,1-.338,1.381A3.233,3.233,0,0,1,26.681,68.982Zm4.5-7.574h.95a2.088,2.088,0,0,0,1.408-.472A1.576,1.576,0,0,0,34.05,59.7a1.544,1.544,0,0,0-1.743-1.75A1.813,1.813,0,0,0,31,58.417a1.639,1.639,0,0,0-.489,1.241H29.244a2.539,2.539,0,0,1,.865-1.965,3.15,3.15,0,0,1,2.2-.783,3.113,3.113,0,0,1,2.208.745,2.692,2.692,0,0,1,.8,2.071,2.185,2.185,0,0,1-.42,1.258,2.538,2.538,0,0,1-1.145.909,2.446,2.446,0,0,1,1.268.861,2.392,2.392,0,0,1,.448,1.47,2.715,2.715,0,0,1-.875,2.126,3.277,3.277,0,0,1-2.276.786,3.363,3.363,0,0,1-2.28-.759,2.517,2.517,0,0,1-.878-2h1.271a1.627,1.627,0,0,0,.513,1.258,1.95,1.95,0,0,0,1.374.472,1.914,1.914,0,0,0,1.4-.479,1.844,1.844,0,0,0,.485-1.374,1.673,1.673,0,0,0-.533-1.333,2.323,2.323,0,0,0-1.538-.479h-.95Zm12.448-3.65L39.5,67H38.179l4.108-8.914H36.9V57.047h6.727Zm2.017,4.252.506-4.963h5.1v1.169H47.223l-.3,2.714a3.212,3.212,0,0,1,1.661-.431,2.746,2.746,0,0,1,2.16.9,3.523,3.523,0,0,1,.8,2.43,3.4,3.4,0,0,1-.831,2.423,3.027,3.027,0,0,1-2.321.885,3.146,3.146,0,0,1-2.153-.731,2.919,2.919,0,0,1-.95-2.023h1.2a2.008,2.008,0,0,0,.608,1.289,1.892,1.892,0,0,0,1.3.434,1.706,1.706,0,0,0,1.384-.6,2.515,2.515,0,0,0,.5-1.661,2.308,2.308,0,0,0-.543-1.6,1.849,1.849,0,0,0-1.446-.6,2.085,2.085,0,0,0-1.3.362l-.335.273ZM28.9,89.755a5.784,5.784,0,0,1-.759,3.3,2.7,2.7,0,0,1-2.372,1.08,2.718,2.718,0,0,1-2.358-1.056,5.49,5.49,0,0,1-.793-3.155V88.237a5.655,5.655,0,0,1,.759-3.261,2.719,2.719,0,0,1,2.379-1.066,2.744,2.744,0,0,1,2.365,1.029,5.458,5.458,0,0,1,.779,3.175Zm-1.265-1.729a4.634,4.634,0,0,0-.451-2.341,1.553,1.553,0,0,0-1.429-.735,1.532,1.532,0,0,0-1.415.731,4.525,4.525,0,0,0-.458,2.249v2.023a4.708,4.708,0,0,0,.468,2.382,1.55,1.55,0,0,0,1.418.769,1.529,1.529,0,0,0,1.391-.725,4.538,4.538,0,0,0,.475-2.283Zm2.974,7.957-.718-.492a3.3,3.3,0,0,0,.67-1.846V92.5H31.8v.991a3.114,3.114,0,0,1-.338,1.381A3.233,3.233,0,0,1,30.611,95.982ZM38.233,84.04v1.073H38a3.33,3.33,0,0,0-2.352.875,3.641,3.641,0,0,0-1.012,2.386,2.7,2.7,0,0,1,2.146-.9,2.581,2.581,0,0,1,2.075.916,4.014,4.014,0,0,1-.062,4.826,2.883,2.883,0,0,1-2.246.923,2.841,2.841,0,0,1-2.317-1.1,4.348,4.348,0,0,1-.889-2.827v-.485a6.552,6.552,0,0,1,1.172-4.2,4.306,4.306,0,0,1,3.49-1.487Zm-1.661,4.484a2.125,2.125,0,0,0-1.955,1.367v.465a3.265,3.265,0,0,0,.554,1.982,1.659,1.659,0,0,0,1.381.752,1.608,1.608,0,0,0,1.343-.629,3.021,3.021,0,0,0-.007-3.305A1.589,1.589,0,0,0,36.572,88.524Zm5.141.485.506-4.963h5.1v1.169H43.292l-.3,2.714a3.212,3.212,0,0,1,1.661-.431,2.746,2.746,0,0,1,2.16.9,3.523,3.523,0,0,1,.8,2.43,3.4,3.4,0,0,1-.831,2.423,3.027,3.027,0,0,1-2.321.885,3.146,3.146,0,0,1-2.153-.731,2.919,2.919,0,0,1-.95-2.023h1.2a2.008,2.008,0,0,0,.608,1.289,1.892,1.892,0,0,0,1.3.434,1.706,1.706,0,0,0,1.384-.6,2.515,2.515,0,0,0,.5-1.661,2.308,2.308,0,0,0-.543-1.6,1.849,1.849,0,0,0-1.446-.6,2.085,2.085,0,0,0-1.3.362l-.335.273ZM28.9,116.755a5.784,5.784,0,0,1-.759,3.3,2.7,2.7,0,0,1-2.372,1.08,2.718,2.718,0,0,1-2.358-1.056,5.49,5.49,0,0,1-.793-3.155v-1.688a5.655,5.655,0,0,1,.759-3.261,2.719,2.719,0,0,1,2.379-1.066,2.744,2.744,0,0,1,2.365,1.029,5.458,5.458,0,0,1,.779,3.175Zm-1.265-1.729a4.634,4.634,0,0,0-.451-2.341,1.553,1.553,0,0,0-1.429-.735,1.532,1.532,0,0,0-1.415.731,4.525,4.525,0,0,0-.458,2.249v2.023a4.708,4.708,0,0,0,.468,2.382,1.55,1.55,0,0,0,1.418.769,1.529,1.529,0,0,0,1.391-.725,4.538,4.538,0,0,0,.475-2.283Zm2.974,7.957-.718-.492a3.3,3.3,0,0,0,.67-1.846V119.5H31.8v.991a3.114,3.114,0,0,1-.338,1.381A3.233,3.233,0,0,1,30.611,122.982Zm8.7-9.338a2.311,2.311,0,0,1-.393,1.326,2.674,2.674,0,0,1-1.063.909,2.853,2.853,0,0,1,1.234.978,2.46,2.46,0,0,1,.455,1.456,2.6,2.6,0,0,1-.872,2.058,3.821,3.821,0,0,1-4.594,0,2.613,2.613,0,0,1-.865-2.054,2.533,2.533,0,0,1,.441-1.456,2.744,2.744,0,0,1,1.22-.984,2.608,2.608,0,0,1-1.046-.909,2.344,2.344,0,0,1-.383-1.319,2.573,2.573,0,0,1,.807-2,3.425,3.425,0,0,1,4.249,0A2.567,2.567,0,0,1,39.307,113.645Zm-1.032,4.642a1.834,1.834,0,0,0-.53-1.36,1.879,1.879,0,0,0-1.384-.526,1.78,1.78,0,0,0-1.887,1.887,1.767,1.767,0,0,0,.5,1.333,2.245,2.245,0,0,0,2.792,0A1.763,1.763,0,0,0,38.274,118.286Zm-1.9-6.337a1.632,1.632,0,0,0-1.207.461,1.909,1.909,0,0,0-.007,2.481,1.806,1.806,0,0,0,2.427,0,1.871,1.871,0,0,0-.017-2.464A1.609,1.609,0,0,0,36.374,111.949Zm5.339,4.061.506-4.963h5.1v1.169H43.292l-.3,2.714a3.212,3.212,0,0,1,1.661-.431,2.746,2.746,0,0,1,2.16.9,3.523,3.523,0,0,1,.8,2.43,3.4,3.4,0,0,1-.831,2.423,3.027,3.027,0,0,1-2.321.885,3.146,3.146,0,0,1-2.153-.731,2.919,2.919,0,0,1-.95-2.023h1.2a2.008,2.008,0,0,0,.608,1.289,1.892,1.892,0,0,0,1.3.434,1.706,1.706,0,0,0,1.384-.6,2.515,2.515,0,0,0,.5-1.661,2.308,2.308,0,0,0-.543-1.6,1.849,1.849,0,0,0-1.446-.6,2.085,2.085,0,0,0-1.3.362l-.335.273ZM36.053,148H34.781v-8.429l-2.55.937v-1.148L35.854,138h.2Z" transform="translate(1385 -3806)" fill="#12263f"/>
    <path id="Trazado_724617" data-name="Trazado 724617" d="M14.192,13H12.142V3.047h2.051Zm3.589-7.4.062.854a2.582,2.582,0,0,1,2.126-.991,2.146,2.146,0,0,1,1.75.69,3.221,3.221,0,0,1,.588,2.064V13H20.331V8.259a1.287,1.287,0,0,0-.273-.915,1.222,1.222,0,0,0-.909-.284,1.359,1.359,0,0,0-1.251.713V13H15.922V5.6Zm8.388-1.818V5.6h1.265V7.053H26.169v3.691a.881.881,0,0,0,.157.588.79.79,0,0,0,.6.178,3.15,3.15,0,0,0,.581-.048v1.5a4.067,4.067,0,0,1-1.2.178,1.886,1.886,0,0,1-2.119-2.1V7.053h-1.08V5.6h1.08V3.785Zm5.77,9.352a3.631,3.631,0,0,1-2.649-1,3.548,3.548,0,0,1-1.022-2.659V9.288A4.468,4.468,0,0,1,28.7,7.3a3.161,3.161,0,0,1,1.22-1.354,3.425,3.425,0,0,1,1.8-.475,3.07,3.07,0,0,1,2.389.957,3.889,3.889,0,0,1,.872,2.714v.807h-4.71a1.835,1.835,0,0,0,.578,1.162,1.746,1.746,0,0,0,1.22.438,2.132,2.132,0,0,0,1.784-.827l.971,1.087a2.966,2.966,0,0,1-1.2.981A3.947,3.947,0,0,1,31.938,13.137ZM31.713,7.06a1.234,1.234,0,0,0-.954.4,2.062,2.062,0,0,0-.468,1.14h2.748V8.44a1.471,1.471,0,0,0-.355-1.02A1.274,1.274,0,0,0,31.713,7.06Zm8.545.4a5.367,5.367,0,0,0-.711-.055,1.447,1.447,0,0,0-1.47.759V13H36.1V5.6h1.866l.055.882A1.831,1.831,0,0,1,39.67,5.467a2.07,2.07,0,0,1,.615.089ZM44.1,10.587,45.474,5.6h2.064l-2.5,7.4H43.156l-2.5-7.4h2.064ZM52.59,13a2.194,2.194,0,0,1-.2-.663,2.39,2.39,0,0,1-1.866.8,2.626,2.626,0,0,1-1.8-.629,2.023,2.023,0,0,1-.714-1.586,2.09,2.09,0,0,1,.872-1.8A4.3,4.3,0,0,1,51.4,8.481h.909V8.058a1.219,1.219,0,0,0-.263-.82,1.035,1.035,0,0,0-.831-.308,1.177,1.177,0,0,0-.783.239.813.813,0,0,0-.284.656H48.174a1.984,1.984,0,0,1,.4-1.189,2.621,2.621,0,0,1,1.121-.858,4.086,4.086,0,0,1,1.627-.311,3.228,3.228,0,0,1,2.17.687,2.4,2.4,0,0,1,.8,1.931v3.206a3.536,3.536,0,0,0,.294,1.593V13Zm-1.634-1.374a1.7,1.7,0,0,0,.807-.195,1.28,1.28,0,0,0,.547-.523V9.637h-.738q-1.483,0-1.579,1.025l-.007.116a.791.791,0,0,0,.26.608A1.009,1.009,0,0,0,50.956,11.626ZM57.895,13H55.912V2.5h1.982Zm1.319-3.767a4.387,4.387,0,0,1,.424-1.962,3.1,3.1,0,0,1,1.22-1.333,3.56,3.56,0,0,1,1.849-.472,3.368,3.368,0,0,1,2.444.916,3.676,3.676,0,0,1,1.056,2.488l.014.506a3.866,3.866,0,0,1-.95,2.731,3.683,3.683,0,0,1-5.1,0,3.934,3.934,0,0,1-.954-2.789Zm1.976.14a2.765,2.765,0,0,0,.4,1.612,1.424,1.424,0,0,0,2.256.007,3.025,3.025,0,0,0,.4-1.763,2.737,2.737,0,0,0-.4-1.6,1.311,1.311,0,0,0-1.135-.568,1.29,1.29,0,0,0-1.121.565A3.076,3.076,0,0,0,61.189,9.374Zm10.254,1.582a.637.637,0,0,0-.359-.571,4.077,4.077,0,0,0-1.152-.373q-2.639-.554-2.639-2.242a2.032,2.032,0,0,1,.817-1.644,3.3,3.3,0,0,1,2.136-.66A3.547,3.547,0,0,1,72.5,6.13a2.09,2.09,0,0,1,.844,1.723H71.368a.956.956,0,0,0-.273-.7,1.157,1.157,0,0,0-.854-.277,1.182,1.182,0,0,0-.772.226.712.712,0,0,0-.273.574.609.609,0,0,0,.311.53,3.2,3.2,0,0,0,1.049.349,8.571,8.571,0,0,1,1.244.332,2.044,2.044,0,0,1,1.565,1.989,1.929,1.929,0,0,1-.868,1.637,3.745,3.745,0,0,1-2.242.625,3.912,3.912,0,0,1-1.651-.332,2.77,2.77,0,0,1-1.131-.909,2.113,2.113,0,0,1-.41-1.248h1.873a1.031,1.031,0,0,0,.39.807,1.546,1.546,0,0,0,.971.28,1.43,1.43,0,0,0,.858-.215A.67.67,0,0,0,71.443,10.956ZM26.972,27.531l2.071-4.484h2.242l-3.268,6.344V33H25.933V29.391l-3.268-6.344h2.249ZM32.965,38H31.809V33.686h1.156Zm-1.224-5.431a.567.567,0,0,1,.173-.427.747.747,0,0,1,.943,0,.609.609,0,0,1,0,.857.739.739,0,0,1-.937,0A.566.566,0,0,1,31.741,32.569Zm9.817-3.035H37.71V27.941h3.849Zm8.634-2,2.071-4.484h2.242l-3.268,6.344V33H49.153V29.391l-3.268-6.344h2.249ZM56.185,38H55.029V33.686h1.156Zm-1.224-5.431a.567.567,0,0,1,.173-.427.747.747,0,0,1,.943,0,.609.609,0,0,1,0,.857.739.739,0,0,1-.937,0A.566.566,0,0,1,54.961,32.569Zm4.5,2.181H60.9v1.041H59.459v1.627h-1.1V35.791H56.919V34.75h1.443V33.191h1.1ZM64.343,38H63.191V33.552l-1.376.425v-.929l2.4-.861h.124Z" transform="translate(990 -3859)" fill="#fff"/>
    <path id="Trazado_724618" data-name="Trazado 724618" d="M16.821,3.047l2.557,7.219L21.92,3.047h2.693V13H22.556V10.279l.205-4.7L20.075,13H18.667l-2.68-7.41.205,4.689V13H14.141V3.047ZM30.561,13a2.194,2.194,0,0,1-.2-.663,2.39,2.39,0,0,1-1.866.8,2.626,2.626,0,0,1-1.8-.629,2.023,2.023,0,0,1-.714-1.586,2.09,2.09,0,0,1,.872-1.8,4.3,4.3,0,0,1,2.519-.636h.909V8.058a1.219,1.219,0,0,0-.263-.82,1.035,1.035,0,0,0-.831-.308,1.177,1.177,0,0,0-.783.239.813.813,0,0,0-.284.656H26.145a1.984,1.984,0,0,1,.4-1.189,2.621,2.621,0,0,1,1.121-.858,4.086,4.086,0,0,1,1.627-.311,3.228,3.228,0,0,1,2.17.687,2.4,2.4,0,0,1,.8,1.931v3.206a3.536,3.536,0,0,0,.294,1.593V13Zm-1.634-1.374a1.7,1.7,0,0,0,.807-.195,1.28,1.28,0,0,0,.547-.523V9.637h-.738q-1.483,0-1.579,1.025l-.007.116a.791.791,0,0,0,.26.608A1.009,1.009,0,0,0,28.927,11.626Zm9.01-4.17a5.367,5.367,0,0,0-.711-.055,1.447,1.447,0,0,0-1.47.759V13H33.781V5.6h1.866l.055.882a1.831,1.831,0,0,1,1.647-1.019,2.07,2.07,0,0,1,.615.089Zm3.9,4.088a1.3,1.3,0,0,0,.889-.3,1.054,1.054,0,0,0,.355-.8H44.93a2.534,2.534,0,0,1-.41,1.377,2.706,2.706,0,0,1-1.1.971,3.455,3.455,0,0,1-1.548.345,3.211,3.211,0,0,1-2.5-1.008,3.99,3.99,0,0,1-.916-2.786v-.13a3.944,3.944,0,0,1,.909-2.728,3.174,3.174,0,0,1,2.5-1.019,3.111,3.111,0,0,1,2.225.79,2.8,2.8,0,0,1,.851,2.1H43.078a1.358,1.358,0,0,0-.355-.938,1.321,1.321,0,0,0-1.945.142A2.916,2.916,0,0,0,40.425,9.2V9.4a2.953,2.953,0,0,0,.349,1.643A1.2,1.2,0,0,0,41.833,11.544ZM50.344,13a2.194,2.194,0,0,1-.2-.663,2.39,2.39,0,0,1-1.866.8,2.626,2.626,0,0,1-1.8-.629,2.023,2.023,0,0,1-.714-1.586,2.09,2.09,0,0,1,.872-1.8,4.3,4.3,0,0,1,2.519-.636h.909V8.058a1.219,1.219,0,0,0-.263-.82,1.035,1.035,0,0,0-.831-.308,1.177,1.177,0,0,0-.783.239.813.813,0,0,0-.284.656H45.928a1.984,1.984,0,0,1,.4-1.189,2.621,2.621,0,0,1,1.121-.858,4.086,4.086,0,0,1,1.627-.311,3.228,3.228,0,0,1,2.17.687,2.4,2.4,0,0,1,.8,1.931v3.206a3.536,3.536,0,0,0,.294,1.593V13ZM48.71,11.626a1.7,1.7,0,0,0,.807-.195,1.28,1.28,0,0,0,.547-.523V9.637h-.738q-1.483,0-1.579,1.025l-.007.116a.791.791,0,0,0,.26.608A1.009,1.009,0,0,0,48.71,11.626Zm8.032-2.379a4.457,4.457,0,0,1,.776-2.755,2.517,2.517,0,0,1,2.123-1.025,2.265,2.265,0,0,1,1.784.807V2.5h1.982V13H61.624l-.1-.786a2.325,2.325,0,0,1-1.9.923,2.511,2.511,0,0,1-2.1-1.029A4.6,4.6,0,0,1,56.743,9.247Zm1.976.141a2.936,2.936,0,0,0,.362,1.6,1.179,1.179,0,0,0,1.053.556,1.321,1.321,0,0,0,1.292-.776V7.836a1.3,1.3,0,0,0-1.278-.776Q58.718,7.06,58.718,9.388Zm9.625,3.749a3.631,3.631,0,0,1-2.649-1,3.548,3.548,0,0,1-1.022-2.659V9.288A4.468,4.468,0,0,1,65.1,7.3a3.161,3.161,0,0,1,1.22-1.354,3.425,3.425,0,0,1,1.8-.475,3.07,3.07,0,0,1,2.389.957,3.889,3.889,0,0,1,.872,2.714v.807h-4.71a1.835,1.835,0,0,0,.578,1.162,1.746,1.746,0,0,0,1.22.438,2.132,2.132,0,0,0,1.784-.827l.971,1.087a2.966,2.966,0,0,1-1.2.981A3.947,3.947,0,0,1,68.343,13.137ZM68.118,7.06a1.234,1.234,0,0,0-.954.4A2.062,2.062,0,0,0,66.7,8.6h2.748V8.44a1.471,1.471,0,0,0-.355-1.02A1.274,1.274,0,0,0,68.118,7.06ZM19.537,31.544a1.3,1.3,0,0,0,.889-.3,1.054,1.054,0,0,0,.355-.8h1.853a2.534,2.534,0,0,1-.41,1.377,2.706,2.706,0,0,1-1.1.971,3.455,3.455,0,0,1-1.548.345,3.211,3.211,0,0,1-2.5-1.008,3.99,3.99,0,0,1-.916-2.786v-.13a3.944,3.944,0,0,1,.909-2.728,3.174,3.174,0,0,1,2.5-1.019,3.111,3.111,0,0,1,2.225.79,2.8,2.8,0,0,1,.851,2.1H20.781a1.358,1.358,0,0,0-.355-.938,1.321,1.321,0,0,0-1.945.142,2.916,2.916,0,0,0-.352,1.633V29.4a2.953,2.953,0,0,0,.349,1.643A1.2,1.2,0,0,0,19.537,31.544ZM25.846,33H23.864V22.5h1.982Zm5.913,0a2.194,2.194,0,0,1-.2-.663,2.39,2.39,0,0,1-1.866.8,2.626,2.626,0,0,1-1.8-.629,2.023,2.023,0,0,1-.714-1.586,2.09,2.09,0,0,1,.872-1.8,4.3,4.3,0,0,1,2.519-.636h.909v-.424a1.219,1.219,0,0,0-.263-.82,1.035,1.035,0,0,0-.831-.308,1.177,1.177,0,0,0-.783.239.813.813,0,0,0-.284.656H27.343a1.985,1.985,0,0,1,.4-1.189,2.621,2.621,0,0,1,1.121-.858,4.086,4.086,0,0,1,1.627-.311,3.228,3.228,0,0,1,2.17.687,2.4,2.4,0,0,1,.8,1.931v3.206a3.536,3.536,0,0,0,.294,1.593V33Zm-1.634-1.374a1.7,1.7,0,0,0,.807-.195,1.28,1.28,0,0,0,.547-.523V29.637h-.738q-1.483,0-1.579,1.025l-.007.116a.791.791,0,0,0,.26.608A1.009,1.009,0,0,0,30.126,31.626Zm8.859-.67a.637.637,0,0,0-.359-.571,4.077,4.077,0,0,0-1.152-.373q-2.639-.554-2.639-2.242a2.032,2.032,0,0,1,.817-1.644,3.3,3.3,0,0,1,2.136-.66,3.547,3.547,0,0,1,2.252.663,2.09,2.09,0,0,1,.844,1.723H38.91a.956.956,0,0,0-.273-.7,1.157,1.157,0,0,0-.854-.277,1.182,1.182,0,0,0-.772.226.712.712,0,0,0-.273.574.609.609,0,0,0,.311.53,3.2,3.2,0,0,0,1.049.349,8.571,8.571,0,0,1,1.244.332,2.044,2.044,0,0,1,1.565,1.989,1.929,1.929,0,0,1-.868,1.637,3.745,3.745,0,0,1-2.242.625,3.912,3.912,0,0,1-1.651-.332,2.77,2.77,0,0,1-1.131-.909,2.113,2.113,0,0,1-.41-1.248h1.873a1.031,1.031,0,0,0,.39.807,1.546,1.546,0,0,0,.971.28,1.43,1.43,0,0,0,.858-.215A.67.67,0,0,0,38.985,30.956Zm6.6,2.181a3.631,3.631,0,0,1-2.649-1,3.548,3.548,0,0,1-1.022-2.659v-.191a4.468,4.468,0,0,1,.431-1.993,3.161,3.161,0,0,1,1.22-1.354,3.425,3.425,0,0,1,1.8-.475,3.07,3.07,0,0,1,2.389.957,3.889,3.889,0,0,1,.872,2.714v.807h-4.71a1.835,1.835,0,0,0,.578,1.162,1.746,1.746,0,0,0,1.22.438,2.132,2.132,0,0,0,1.784-.827l.971,1.087a2.966,2.966,0,0,1-1.2.981A3.947,3.947,0,0,1,45.582,33.137Zm-.226-6.077a1.234,1.234,0,0,0-.954.4,2.062,2.062,0,0,0-.468,1.14h2.748V28.44a1.471,1.471,0,0,0-.355-1.02A1.274,1.274,0,0,0,45.356,27.06Zm14.923.472,2.071-4.484h2.242l-3.268,6.344V33H59.24V29.391l-3.268-6.344h2.249ZM67.807,38H66.655V33.552l-1.376.425v-.929l2.4-.861h.124Z" transform="translate(1075 -3859)" fill="#fff"/>
    <path id="Trazado_724619" data-name="Trazado 724619" d="M14.828,8.933H10.891V13H8.84V3.047h6.48V4.708h-4.43v2.57h3.938Zm5.53-1.477a5.367,5.367,0,0,0-.711-.055,1.447,1.447,0,0,0-1.47.759V13H16.2V5.6h1.866l.055.882a1.831,1.831,0,0,1,1.647-1.019,2.07,2.07,0,0,1,.615.089Zm4.225,5.681a3.631,3.631,0,0,1-2.649-1,3.548,3.548,0,0,1-1.022-2.659V9.288A4.468,4.468,0,0,1,21.343,7.3a3.161,3.161,0,0,1,1.22-1.354,3.425,3.425,0,0,1,1.8-.475,3.07,3.07,0,0,1,2.389.957,3.889,3.889,0,0,1,.872,2.714v.807h-4.71a1.835,1.835,0,0,0,.578,1.162,1.746,1.746,0,0,0,1.22.438,2.132,2.132,0,0,0,1.784-.827l.971,1.087a2.966,2.966,0,0,1-1.2.981A3.947,3.947,0,0,1,24.583,13.137ZM24.357,7.06a1.234,1.234,0,0,0-.954.4,2.062,2.062,0,0,0-.468,1.14h2.748V8.44a1.471,1.471,0,0,0-.355-1.02A1.274,1.274,0,0,0,24.357,7.06Zm7.465,4.484a1.3,1.3,0,0,0,.889-.3,1.054,1.054,0,0,0,.355-.8h1.853a2.534,2.534,0,0,1-.41,1.377,2.706,2.706,0,0,1-1.1.971,3.455,3.455,0,0,1-1.548.345,3.211,3.211,0,0,1-2.5-1.008,3.99,3.99,0,0,1-.916-2.786v-.13a3.944,3.944,0,0,1,.909-2.728,3.174,3.174,0,0,1,2.5-1.019,3.111,3.111,0,0,1,2.225.79,2.8,2.8,0,0,1,.851,2.1H33.066a1.358,1.358,0,0,0-.355-.938,1.321,1.321,0,0,0-1.945.142A2.916,2.916,0,0,0,30.414,9.2V9.4a2.953,2.953,0,0,0,.349,1.643A1.2,1.2,0,0,0,31.822,11.544Zm8.654.7a2.477,2.477,0,0,1-2.023.889,2.337,2.337,0,0,1-1.815-.684,2.918,2.918,0,0,1-.639-2V5.6h1.976v4.784q0,1.157,1.053,1.157a1.426,1.426,0,0,0,1.381-.7V5.6h1.982V13H40.531Zm6.809.889a3.631,3.631,0,0,1-2.649-1,3.548,3.548,0,0,1-1.022-2.659V9.288A4.468,4.468,0,0,1,44.045,7.3a3.161,3.161,0,0,1,1.22-1.354,3.425,3.425,0,0,1,1.8-.475,3.07,3.07,0,0,1,2.389.957,3.889,3.889,0,0,1,.872,2.714v.807h-4.71a1.835,1.835,0,0,0,.578,1.162,1.746,1.746,0,0,0,1.22.438,2.132,2.132,0,0,0,1.784-.827L50.17,11.8a2.966,2.966,0,0,1-1.2.981A3.947,3.947,0,0,1,47.285,13.137ZM47.06,7.06a1.234,1.234,0,0,0-.954.4,2.062,2.062,0,0,0-.468,1.14h2.748V8.44a1.471,1.471,0,0,0-.355-1.02A1.274,1.274,0,0,0,47.06,7.06ZM53.267,5.6l.062.854a2.582,2.582,0,0,1,2.126-.991,2.146,2.146,0,0,1,1.75.69,3.221,3.221,0,0,1,.588,2.064V13H55.816V8.259a1.287,1.287,0,0,0-.273-.915,1.222,1.222,0,0,0-.909-.284,1.359,1.359,0,0,0-1.251.713V13H51.407V5.6Zm9.1,5.94a1.3,1.3,0,0,0,.889-.3,1.054,1.054,0,0,0,.355-.8h1.853a2.534,2.534,0,0,1-.41,1.377,2.706,2.706,0,0,1-1.1.971,3.455,3.455,0,0,1-1.548.345,3.211,3.211,0,0,1-2.5-1.008,3.99,3.99,0,0,1-.916-2.786v-.13a3.944,3.944,0,0,1,.909-2.728,3.174,3.174,0,0,1,2.5-1.019,3.111,3.111,0,0,1,2.225.79,2.8,2.8,0,0,1,.851,2.1H63.609a1.358,1.358,0,0,0-.355-.938,1.321,1.321,0,0,0-1.945.142A2.916,2.916,0,0,0,60.957,9.2V9.4a2.953,2.953,0,0,0,.349,1.643A1.2,1.2,0,0,0,62.365,11.544ZM68.675,13H66.692V5.6h1.982Zm-2.1-9.311a.973.973,0,0,1,.3-.731,1.281,1.281,0,0,1,1.617,0,.967.967,0,0,1,.3.731.97.97,0,0,1-.3.738,1.267,1.267,0,0,1-1.606,0A.97.97,0,0,1,66.576,3.689ZM74.588,13a2.194,2.194,0,0,1-.2-.663,2.39,2.39,0,0,1-1.866.8,2.626,2.626,0,0,1-1.8-.629,2.023,2.023,0,0,1-.714-1.586,2.09,2.09,0,0,1,.872-1.8A4.3,4.3,0,0,1,73.4,8.481h.909V8.058a1.219,1.219,0,0,0-.263-.82,1.035,1.035,0,0,0-.831-.308,1.177,1.177,0,0,0-.783.239.813.813,0,0,0-.284.656H70.172a1.985,1.985,0,0,1,.4-1.189,2.621,2.621,0,0,1,1.121-.858,4.086,4.086,0,0,1,1.627-.311,3.228,3.228,0,0,1,2.17.687,2.4,2.4,0,0,1,.8,1.931v3.206a3.536,3.536,0,0,0,.294,1.593V13Zm-1.634-1.374a1.7,1.7,0,0,0,.807-.195,1.28,1.28,0,0,0,.547-.523V9.637h-.738q-1.483,0-1.579,1.025l-.007.116a.791.791,0,0,0,.26.608A1.009,1.009,0,0,0,72.954,11.626ZM15.068,33a2.194,2.194,0,0,1-.2-.663,2.39,2.39,0,0,1-1.866.8,2.626,2.626,0,0,1-1.8-.629,2.023,2.023,0,0,1-.714-1.586,2.09,2.09,0,0,1,.872-1.8,4.3,4.3,0,0,1,2.519-.636h.909v-.424a1.219,1.219,0,0,0-.263-.82,1.035,1.035,0,0,0-.831-.308,1.177,1.177,0,0,0-.783.239.813.813,0,0,0-.284.656H10.652a1.984,1.984,0,0,1,.4-1.189,2.621,2.621,0,0,1,1.121-.858,4.086,4.086,0,0,1,1.627-.311,3.228,3.228,0,0,1,2.17.687,2.4,2.4,0,0,1,.8,1.931v3.206a3.536,3.536,0,0,0,.294,1.593V33Zm-1.634-1.374a1.7,1.7,0,0,0,.807-.195,1.28,1.28,0,0,0,.547-.523V29.637H14.05q-1.483,0-1.579,1.025l-.007.116a.791.791,0,0,0,.26.608A1.009,1.009,0,0,0,13.435,31.626ZM24.953,29.37a4.479,4.479,0,0,1-.759,2.772,2.513,2.513,0,0,1-2.119.995,2.309,2.309,0,0,1-1.921-.923L20.065,33H18.288V22.5h1.976v3.767a2.25,2.25,0,0,1,1.8-.8,2.534,2.534,0,0,1,2.123.995,4.485,4.485,0,0,1,.769,2.8Zm-1.976-.151a2.959,2.959,0,0,0-.355-1.642,1.2,1.2,0,0,0-1.06-.518,1.3,1.3,0,0,0-1.3.775v2.928a1.32,1.32,0,0,0,1.313.782,1.22,1.22,0,0,0,1.258-.946A4.9,4.9,0,0,0,22.977,29.22Zm7.2,1.737a.637.637,0,0,0-.359-.571,4.077,4.077,0,0,0-1.152-.373q-2.639-.554-2.639-2.242a2.032,2.032,0,0,1,.817-1.644,3.3,3.3,0,0,1,2.136-.66,3.547,3.547,0,0,1,2.252.663,2.09,2.09,0,0,1,.844,1.723H30.1a.956.956,0,0,0-.273-.7,1.157,1.157,0,0,0-.854-.277,1.182,1.182,0,0,0-.772.226.712.712,0,0,0-.273.574.609.609,0,0,0,.311.53,3.2,3.2,0,0,0,1.049.349,8.571,8.571,0,0,1,1.244.332A2.044,2.044,0,0,1,32.1,30.874a1.929,1.929,0,0,1-.868,1.637,3.745,3.745,0,0,1-2.242.625,3.912,3.912,0,0,1-1.651-.332A2.77,2.77,0,0,1,26.2,31.9a2.113,2.113,0,0,1-.41-1.248h1.873a1.031,1.031,0,0,0,.39.807,1.546,1.546,0,0,0,.971.28,1.43,1.43,0,0,0,.858-.215A.67.67,0,0,0,30.176,30.956Zm2.885-1.723a4.387,4.387,0,0,1,.424-1.962,3.1,3.1,0,0,1,1.22-1.333,3.56,3.56,0,0,1,1.849-.472A3.368,3.368,0,0,1,39,26.383a3.676,3.676,0,0,1,1.056,2.488l.014.506a3.866,3.866,0,0,1-.95,2.731,3.683,3.683,0,0,1-5.1,0,3.934,3.934,0,0,1-.954-2.789Zm1.976.14a2.765,2.765,0,0,0,.4,1.612,1.424,1.424,0,0,0,2.256.007,3.025,3.025,0,0,0,.4-1.763,2.737,2.737,0,0,0-.4-1.6,1.311,1.311,0,0,0-1.135-.568,1.29,1.29,0,0,0-1.121.565A3.076,3.076,0,0,0,35.036,29.374ZM43.369,33H41.387V22.5h1.982Zm6.057-.752a2.477,2.477,0,0,1-2.023.889,2.337,2.337,0,0,1-1.815-.684,2.918,2.918,0,0,1-.639-2V25.6h1.976v4.784q0,1.157,1.053,1.157a1.426,1.426,0,0,0,1.381-.7V25.6H51.34V33H49.48Zm5.77-8.463V25.6H56.46v1.449H55.2v3.691a.881.881,0,0,0,.157.588.79.79,0,0,0,.6.178,3.151,3.151,0,0,0,.581-.048v1.5a4.067,4.067,0,0,1-1.2.178,1.886,1.886,0,0,1-2.119-2.1V27.053H52.14V25.6h1.08V23.785ZM61.847,33a2.194,2.194,0,0,1-.2-.663,2.39,2.39,0,0,1-1.866.8,2.626,2.626,0,0,1-1.8-.629,2.023,2.023,0,0,1-.714-1.586,2.09,2.09,0,0,1,.872-1.8,4.3,4.3,0,0,1,2.519-.636h.909v-.424a1.219,1.219,0,0,0-.263-.82,1.035,1.035,0,0,0-.831-.308,1.177,1.177,0,0,0-.783.239.813.813,0,0,0-.284.656H57.431a1.984,1.984,0,0,1,.4-1.189,2.621,2.621,0,0,1,1.121-.858,4.086,4.086,0,0,1,1.627-.311,3.228,3.228,0,0,1,2.17.687,2.4,2.4,0,0,1,.8,1.931v3.206a3.536,3.536,0,0,0,.294,1.593V33Zm-1.634-1.374a1.7,1.7,0,0,0,.807-.195,1.28,1.28,0,0,0,.547-.523V29.637h-.738q-1.483,0-1.579,1.025l-.007.116a.791.791,0,0,0,.26.608A1.009,1.009,0,0,0,60.213,31.626ZM69.093,33V27.053h-1.1V25.6h1.1v-.629a2.553,2.553,0,0,1,.714-1.931,2.767,2.767,0,0,1,2-.687,4.656,4.656,0,0,1,1,.136l-.021,1.519a2.519,2.519,0,0,0-.6-.062q-1.114,0-1.114,1.055v.6h1.47v1.449h-1.47V33Zm5.378,5H73.314V33.686H74.47Zm-1.224-5.431a.567.567,0,0,1,.173-.427.748.748,0,0,1,.943,0,.609.609,0,0,1,0,.857.739.739,0,0,1-.937,0A.566.566,0,0,1,73.246,32.569Z" transform="translate(1160 -3859)" fill="#fff"/>
    <path id="Trazado_724620" data-name="Trazado 724620" d="M36.959,8.933H33.022V13H30.971V3.047h6.48V4.708h-4.43v2.57h3.938ZM39.411,18H38.255V13.686h1.156Zm-1.224-5.431a.567.567,0,0,1,.173-.427.747.747,0,0,1,.943,0,.609.609,0,0,1,0,.857.739.739,0,0,1-.937,0A.566.566,0,0,1,38.187,12.569Z" transform="translate(1245 -3849)" fill="#fff"/>
    <path id="Trazado_724621" data-name="Trazado 724621" d="M32.687,6.41a2.466,2.466,0,0,1,1.976-.943q2.406,0,2.44,2.8V13H35.127V8.307a1.38,1.38,0,0,0-.273-.942,1.171,1.171,0,0,0-.909-.3,1.344,1.344,0,0,0-1.258.671V13H30.711V2.5h1.976ZM39.493,18H38.337V13.686h1.156Zm-1.224-5.431a.567.567,0,0,1,.173-.427.747.747,0,0,1,.943,0,.609.609,0,0,1,0,.857.739.739,0,0,1-.937,0A.566.566,0,0,1,38.269,12.569Z" transform="translate(1315 -3849)" fill="#fff"/>
    <path id="Trazado_724622" data-name="Trazado 724622" d="M37.961,13H35.91V8.734h-4V13H29.86V3.047h2.051V7.08h4V3.047h2.051Zm2.561,5H39.366V13.686h1.156ZM39.3,12.569a.567.567,0,0,1,.173-.427.747.747,0,0,1,.943,0,.609.609,0,0,1,0,.857.739.739,0,0,1-.937,0A.566.566,0,0,1,39.3,12.569Z" transform="translate(1385 -3849)" fill="#fff"/>
    <path id="Trazado_720753" data-name="Trazado 720753" d="M1075-3868v247.533" fill="none" stroke="#d9f2fe" stroke-width="1"/>
    <path id="Trazado_720754" data-name="Trazado 720754" d="M1075-3868v247.533" transform="translate(85)" fill="none" stroke="#d9f2fe" stroke-width="1"/>
    <path id="Trazado_720755" data-name="Trazado 720755" d="M1075-3868v247.533" transform="translate(170)" fill="none" stroke="#d9f2fe" stroke-width="1"/>
    <path id="Trazado_720756" data-name="Trazado 720756" d="M1075-3868v247.533" transform="translate(240)" fill="none" stroke="#d9f2fe" stroke-width="1"/>
    <path id="Trazado_720757" data-name="Trazado 720757" d="M1075-3868v247.533" transform="translate(310)" fill="none" stroke="#d9f2fe" stroke-width="1"/>
    <path id="Trazado_720758" data-name="Trazado 720758" d="M990-3785.333h465.733" fill="none" stroke="#d9f2fe" stroke-width="1"/>
    <path id="Trazado_720761" data-name="Trazado 720761" d="M990-3785.333h465.733" transform="translate(0 54)" fill="none" stroke="#d9f2fe" stroke-width="1"/>
    <path id="Trazado_720763" data-name="Trazado 720763" d="M990-3785.333h465.733" transform="translate(0 109)" fill="none" stroke="#d9f2fe" stroke-width="1"/>
    <path id="Trazado_720759" data-name="Trazado 720759" d="M990-3785.333h465.733" transform="translate(0 27)" fill="none" stroke="#d9f2fe" stroke-width="1"/>
    <path id="Trazado_720760" data-name="Trazado 720760" d="M990-3785.333h465.733" transform="translate(0 81)" fill="none" stroke="#d9f2fe" stroke-width="1"/>
    <path id="Trazado_720762" data-name="Trazado 720762" d="M990-3785.333h465.733" transform="translate(0 136)" fill="none" stroke="#d9f2fe" stroke-width="1"/>
  </g>
</svg>
