<svg xmlns="http://www.w3.org/2000/svg" xmlns:xlink="http://www.w3.org/1999/xlink" width="610" height="360.88" viewBox="0 0 610 360.88">
  <defs>
    <radialGradient id="radial-gradient" cx="0.5" cy="0.5" r="0.5" gradientUnits="objectBoundingBox">
      <stop offset="0" stop-color="#fff"/>
      <stop offset="1" stop-color="#81d4fa"/>
    </radialGradient>
    <clipPath id="clip-path">
      <rect id="Rectángulo_351793" data-name="Rectángulo 351793" width="498.424" height="310.867" fill="none"/>
    </clipPath>
  </defs>
  <g id="Grupo_1009262" data-name="Grupo 1009262" transform="translate(-810 -8181)">
    <path id="farmaceutica-asiatica-que-trabaja-farmacia-o-farmacia" d="M15,0H595a15,15,0,0,1,15,15V345.88a15,15,0,0,1-15,15H15a15,15,0,0,1-15-15V15A15,15,0,0,1,15,0Z" transform="translate(810 8181)" opacity="0.15" fill="url(#radial-gradient)"/>
    <path id="Trazado_724706" data-name="Trazado 724706" d="M0,0H480.693V.16H0Z" transform="translate(883.731 8221.805)" fill="#eaeaeb"/>
    <path id="Trazado_724707" data-name="Trazado 724707" d="M0,0H480.693V.161H0Z" transform="translate(883.731 8253.091)" fill="#eaeaeb"/>
    <path id="Trazado_724708" data-name="Trazado 724708" d="M0,0H480.693V.16H0Z" transform="translate(883.731 8284.377)" fill="#eaeaeb"/>
    <path id="Trazado_724709" data-name="Trazado 724709" d="M0,0H480.693V.16H0Z" transform="translate(883.731 8315.664)" fill="#eaeaeb"/>
    <path id="Trazado_724710" data-name="Trazado 724710" d="M0,0H480.693V.161H0Z" transform="translate(883.731 8346.95)" fill="#eaeaeb"/>
    <path id="Trazado_724711" data-name="Trazado 724711" d="M0,0H480.693V.16H0Z" transform="translate(883.731 8378.237)" fill="#eaeaeb"/>
    <path id="Trazado_724712" data-name="Trazado 724712" d="M0,0H480.693V.16H0Z" transform="translate(883.731 8409.523)" fill="#eaeaeb"/>
    <path id="Trazado_724713" data-name="Trazado 724713" d="M0,0H480.693V.161H0Z" transform="translate(883.731 8440.809)" fill="#eaeaeb"/>
    <path id="Trazado_724714" data-name="Trazado 724714" d="M0,0H480.693V.16H0Z" transform="translate(883.731 8472.096)" fill="#eaeaeb"/>
    <path id="Trazado_724715" data-name="Trazado 724715" d="M0,0H480.693V.482H0Z" transform="translate(883.731 8206)" fill="#eaeaeb"/>
    <path id="Trazado_724716" data-name="Trazado 724716" d="M0,0H480.693V.482H0Z" transform="translate(883.731 8237.287)" fill="#eaeaeb"/>
    <path id="Trazado_724717" data-name="Trazado 724717" d="M0,0H480.693V.481H0Z" transform="translate(883.731 8268.574)" fill="#eaeaeb"/>
    <path id="Trazado_724718" data-name="Trazado 724718" d="M0,0H480.693V.481H0Z" transform="translate(883.731 8299.86)" fill="#eaeaeb"/>
    <path id="Trazado_724719" data-name="Trazado 724719" d="M0,0H480.693V.482H0Z" transform="translate(883.731 8331.146)" fill="#eaeaeb"/>
    <path id="Trazado_724720" data-name="Trazado 724720" d="M0,0H480.693V.482H0Z" transform="translate(883.731 8362.432)" fill="#eaeaeb"/>
    <path id="Trazado_724721" data-name="Trazado 724721" d="M0,0H480.693V.482H0Z" transform="translate(883.731 8393.719)" fill="#eaeaeb"/>
    <path id="Trazado_724722" data-name="Trazado 724722" d="M0,0H480.693V.482H0Z" transform="translate(883.731 8425.005)" fill="#eaeaeb"/>
    <path id="Trazado_724723" data-name="Trazado 724723" d="M0,0H480.693V.482H0Z" transform="translate(883.731 8456.291)" fill="#eaeaeb"/>
    <path id="Trazado_724724" data-name="Trazado 724724" d="M0,0H480.693V.482H0Z" transform="translate(883.731 8487.578)" fill="#eaeaeb"/>
    <g id="Grupo_1009087" data-name="Grupo 1009087" transform="translate(866 8206.001)">
      <g id="Grupo_1009086" data-name="Grupo 1009086" clip-path="url(#clip-path)">
        <path id="Trazado_723911" data-name="Trazado 723911" d="M8.1,277.414c0,3.582-.963,4.558-2.542,4.558S3.017,281,3.017,277.414s.95-4.557,2.542-4.557,2.542.975,2.542,4.557m-3.479-.449v.9c0,1.926.154,2.811.937,2.811s.938-.885.938-2.811v-.9c0-1.926-.155-2.812-.938-2.812s-.937.886-.937,2.812" fill="#6d6b72"/>
        <path id="Trazado_723912" data-name="Trazado 723912" d="M3.736,217.949h1.81v1.3H.218v-1.3H2.195v-5.5H.2v-1.027a7.7,7.7,0,0,0,2.773-.989h.758Z" fill="#6d6b72"/>
        <path id="Trazado_723913" data-name="Trazado 723913" d="M7.794,215.176l1.887-2.683h1.644l-2,2.747,2.105,4.006H9.72l-1.361-2.8-.565.693v2.106H6.253v-9.282H7.794Z" fill="#6d6b72"/>
        <path id="Trazado_723914" data-name="Trazado 723914" d="M5.02,150.125A2.087,2.087,0,0,1,3.877,152.1v.051a2.115,2.115,0,0,1,1.3,2.157,2.379,2.379,0,0,1-2.542,2.517,2.413,2.413,0,0,1-2.606-2.645v-.231H1.631v.27c0,.834.334,1.309.975,1.309.578,0,.963-.411.963-1.3,0-1.1-.5-1.386-1.053-1.386H2.093v-1.3h.449c.488,0,.873-.449.873-1.361,0-.822-.308-1.181-.809-1.181-.526,0-.821.411-.821,1.233v.243H.18v-.359a2.291,2.291,0,0,1,2.414-2.414,2.23,2.23,0,0,1,2.426,2.414" fill="#6d6b72"/>
        <path id="Trazado_723915" data-name="Trazado 723915" d="M7.794,152.6l1.887-2.683h1.644l-2,2.747,2.105,4.006H9.72l-1.361-2.8-.565.693v2.106H6.253V147.39H7.794Z" fill="#6d6b72"/>
        <path id="Trazado_723916" data-name="Trazado 723916" d="M4.891,86.73H1.99l-.128,2.08a1.9,1.9,0,0,1,1.257-.437c1.194,0,2.144.912,2.144,2.851s-.988,3.03-2.579,3.03c-1.566,0-2.6-1.092-2.6-2.889H1.694c0,.976.361,1.605.99,1.605.589,0,.987-.591.987-1.746,0-1.027-.385-1.592-.9-1.592a1.052,1.052,0,0,0-.95.744l-1.49-.205.3-4.879H4.891Z" fill="#6d6b72"/>
        <path id="Trazado_723917" data-name="Trazado 723917" d="M7.794,90.03l1.887-2.683h1.644l-2,2.747L11.427,94.1H9.72L8.359,91.3l-.565.693V94.1H6.253V84.818H7.794Z" fill="#6d6b72"/>
        <path id="Trazado_723918" data-name="Trazado 723918" d="M5.264,23.759C4.109,25.5,2.671,28.175,2.671,30.872c0,.243,0,.346.012.654H.976A12.872,12.872,0,0,1,3.6,24.157H0V22.719H5.264Z" fill="#6d6b72"/>
        <path id="Trazado_723919" data-name="Trazado 723919" d="M7.794,27.457l1.887-2.683h1.644l-2,2.747,2.105,4.006H9.72l-1.361-2.8-.565.693v2.106H6.253V22.245H7.794Z" fill="#6d6b72"/>
        <rect id="Rectángulo_351772" data-name="Rectángulo 351772" width="13.484" height="125.146" transform="translate(66.56 156.673)" fill="#74d7e2"/>
        <rect id="Rectángulo_351773" data-name="Rectángulo 351773" width="13.484" height="46.93" transform="translate(66.56 109.743)" fill="#00a8c3"/>
        <rect id="Rectángulo_351774" data-name="Rectángulo 351774" width="13.484" height="93.571" transform="translate(108.063 188.247)" fill="#d3d4d6"/>
        <rect id="Rectángulo_351775" data-name="Rectángulo 351775" width="13.484" height="35.089" transform="translate(108.063 153.158)" fill="#94959b"/>
        <rect id="Rectángulo_351776" data-name="Rectángulo 351776" width="13.484" height="156.432" transform="translate(149.566 125.386)" fill="#74d7e2"/>
        <rect id="Rectángulo_351777" data-name="Rectángulo 351777" width="13.484" height="78.348" transform="translate(149.566 47.038)" fill="#00a8c3"/>
        <rect id="Rectángulo_351778" data-name="Rectángulo 351778" width="13.484" height="93.859" transform="translate(211.019 187.959)" fill="#4bbbdf"/>
        <rect id="Rectángulo_351779" data-name="Rectángulo 351779" width="13.484" height="46.93" transform="translate(211.019 141.029)" fill="#0088bd"/>
        <rect id="Rectángulo_351780" data-name="Rectángulo 351780" width="13.484" height="156.432" transform="translate(252.522 125.386)" fill="#74d7e2"/>
        <rect id="Rectángulo_351781" data-name="Rectángulo 351781" width="13.484" height="46.93" transform="translate(252.522 78.456)" fill="#00a8c3"/>
        <rect id="Rectángulo_351782" data-name="Rectángulo 351782" width="13.484" height="100.411" transform="translate(294.025 181.407)" fill="#4bbbdf"/>
        <rect id="Rectángulo_351783" data-name="Rectángulo 351783" width="13.484" height="71.664" transform="translate(294.025 109.743)" fill="#0088bd"/>
        <rect id="Rectángulo_351784" data-name="Rectángulo 351784" width="13.484" height="203.362" transform="translate(355.478 78.456)" fill="#ff9661"/>
        <rect id="Rectángulo_351785" data-name="Rectángulo 351785" width="13.484" height="62.573" transform="translate(355.478 15.884)" fill="#f36817"/>
        <rect id="Rectángulo_351786" data-name="Rectángulo 351786" width="13.484" height="125.146" transform="translate(396.981 156.673)" fill="#74d7e2"/>
        <rect id="Rectángulo_351787" data-name="Rectángulo 351787" width="13.484" height="31.286" transform="translate(396.981 125.386)" fill="#00a8c3"/>
        <rect id="Rectángulo_351788" data-name="Rectángulo 351788" width="13.484" height="93.859" transform="translate(438.484 187.959)" fill="#4bbbdf"/>
        <rect id="Rectángulo_351789" data-name="Rectángulo 351789" width="13.484" height="93.859" transform="translate(438.484 94.1)" fill="#0088bd"/>
        <path id="Trazado_723920" data-name="Trazado 723920" d="M82,307.3v3.415H80.356V301.9H83.5a2.5,2.5,0,0,1,2.761,2.645A2.6,2.6,0,0,1,83.5,307.3Zm0-3.929v2.478h1.336a1.153,1.153,0,0,0,1.232-1.3,1.114,1.114,0,0,0-1.232-1.181Z" fill="#6d6b72"/>
        <path id="Trazado_723921" data-name="Trazado 723921" d="M87.379,310.713v-8.807H92.99v1.463H89.022v2.106h3.4v1.464h-3.4v2.31h4.045v1.464Z" fill="#6d6b72"/>
        <path id="Trazado_723922" data-name="Trazado 723922" d="M96.046,307.041v3.672H94.4V301.9h3.684a2.413,2.413,0,0,1,2.7,2.517,2.339,2.339,0,0,1-1.477,2.259L101,310.713H99.217l-1.463-3.672Zm0-3.672v2.221h1.81a1.035,1.035,0,0,0,1.156-1.168.96.96,0,0,0-1.091-1.053Z" fill="#6d6b72"/>
        <rect id="Rectángulo_351790" data-name="Rectángulo 351790" width="1.643" height="8.807" transform="translate(101.877 301.906)" fill="#6d6b72"/>
        <path id="Trazado_723923" data-name="Trazado 723923" d="M111.917,306.309c0,3.107-1.387,4.558-3.66,4.558s-3.658-1.451-3.658-4.558,1.386-4.558,3.658-4.558,3.66,1.451,3.66,4.558m-5.624-.321v.642c0,1.759.655,2.824,1.964,2.824s1.965-1.065,1.965-2.824v-.642c0-1.759-.655-2.825-1.965-2.825s-1.964,1.066-1.964,2.825" fill="#6d6b72"/>
        <path id="Trazado_723924" data-name="Trazado 723924" d="M128.122,306.309c0,3.107-1.386,4.558-3.659,4.558s-3.658-1.451-3.658-4.558,1.386-4.558,3.658-4.558,3.659,1.451,3.659,4.558m-5.623-.321v.642c0,1.759.655,2.824,1.964,2.824s1.965-1.065,1.965-2.824v-.642c0-1.759-.655-2.825-1.965-2.825s-1.964,1.066-1.964,2.825" fill="#6d6b72"/>
        <path id="Trazado_723925" data-name="Trazado 723925" d="M113.125,310.713V301.9h2.863c2.195,0,3.53,1.438,3.53,4.276,0,3.017-1.335,4.532-3.53,4.532Zm1.643-7.344v5.88h1.066c1.219,0,1.99-.912,1.99-2.747v-.642c0-1.656-.771-2.491-1.99-2.491Z" fill="#6d6b72"/>
        <path id="Trazado_723926" data-name="Trazado 723926" d="M137.558,309.416h1.81v1.3H134.04v-1.3h1.977v-5.495h-1.99v-1.027a7.71,7.71,0,0,0,2.774-.989h.757Z" fill="#6d6b72"/>
        <path id="Trazado_723927" data-name="Trazado 723927" d="M224.409,307.3v3.415h-1.643V301.9h3.145a2.5,2.5,0,0,1,2.761,2.645,2.6,2.6,0,0,1-2.761,2.748Zm0-3.929v2.478h1.336a1.153,1.153,0,0,0,1.232-1.3,1.114,1.114,0,0,0-1.232-1.181Z" fill="#6d6b72"/>
        <path id="Trazado_723928" data-name="Trazado 723928" d="M229.789,310.713v-8.807H235.4v1.463h-3.968v2.106h3.4v1.464h-3.4v2.31h4.045v1.464Z" fill="#6d6b72"/>
        <path id="Trazado_723929" data-name="Trazado 723929" d="M238.456,307.041v3.672h-1.643V301.9H240.5a2.413,2.413,0,0,1,2.7,2.517,2.339,2.339,0,0,1-1.477,2.259l1.7,4.032h-1.785l-1.463-3.672Zm0-3.672v2.221h1.81a1.035,1.035,0,0,0,1.156-1.168.96.96,0,0,0-1.091-1.053Z" fill="#6d6b72"/>
        <rect id="Rectángulo_351791" data-name="Rectángulo 351791" width="1.643" height="8.807" transform="translate(244.287 301.906)" fill="#6d6b72"/>
        <path id="Trazado_723930" data-name="Trazado 723930" d="M254.326,306.309c0,3.107-1.386,4.558-3.659,4.558s-3.658-1.451-3.658-4.558,1.386-4.558,3.658-4.558,3.659,1.451,3.659,4.558m-5.623-.321v.642c0,1.759.655,2.824,1.964,2.824s1.965-1.065,1.965-2.824v-.642c0-1.759-.655-2.825-1.965-2.825s-1.964,1.066-1.964,2.825" fill="#6d6b72"/>
        <path id="Trazado_723931" data-name="Trazado 723931" d="M270.532,306.309c0,3.107-1.386,4.558-3.659,4.558s-3.658-1.451-3.658-4.558,1.386-4.558,3.658-4.558,3.659,1.451,3.659,4.558m-5.623-.321v.642c0,1.759.655,2.824,1.964,2.824s1.965-1.065,1.965-2.824v-.642c0-1.759-.655-2.825-1.965-2.825s-1.964,1.066-1.964,2.825" fill="#6d6b72"/>
        <path id="Trazado_723932" data-name="Trazado 723932" d="M255.535,310.713V301.9H258.4c2.195,0,3.53,1.438,3.53,4.276,0,3.017-1.335,4.532-3.53,4.532Zm1.643-7.344v5.88h1.066c1.219,0,1.99-.912,1.99-2.747v-.642c0-1.656-.771-2.491-1.99-2.491Z" fill="#6d6b72"/>
        <path id="Trazado_723933" data-name="Trazado 723933" d="M366.191,307.3v3.415h-1.643V301.9h3.145a2.5,2.5,0,0,1,2.761,2.645,2.6,2.6,0,0,1-2.761,2.748Zm0-3.929v2.478h1.336a1.153,1.153,0,0,0,1.232-1.3,1.114,1.114,0,0,0-1.232-1.181Z" fill="#6d6b72"/>
        <path id="Trazado_723934" data-name="Trazado 723934" d="M371.572,310.713v-8.807h5.611v1.463h-3.968v2.106h3.4v1.464h-3.4v2.31h4.045v1.464Z" fill="#6d6b72"/>
        <path id="Trazado_723935" data-name="Trazado 723935" d="M380.239,307.041v3.672H378.6V301.9h3.685a2.412,2.412,0,0,1,2.7,2.517,2.339,2.339,0,0,1-1.477,2.259l1.7,4.032H383.41l-1.463-3.672Zm0-3.672v2.221h1.81a1.035,1.035,0,0,0,1.156-1.168.96.96,0,0,0-1.091-1.053Z" fill="#6d6b72"/>
        <rect id="Rectángulo_351792" data-name="Rectángulo 351792" width="1.643" height="8.807" transform="translate(386.07 301.906)" fill="#6d6b72"/>
        <path id="Trazado_723936" data-name="Trazado 723936" d="M396.11,306.309c0,3.107-1.387,4.558-3.66,4.558s-3.658-1.451-3.658-4.558,1.386-4.558,3.658-4.558,3.66,1.451,3.66,4.558m-5.624-.321v.642c0,1.759.655,2.824,1.964,2.824s1.965-1.065,1.965-2.824v-.642c0-1.759-.655-2.825-1.965-2.825s-1.964,1.066-1.964,2.825" fill="#6d6b72"/>
        <path id="Trazado_723937" data-name="Trazado 723937" d="M412.316,306.309c0,3.107-1.387,4.558-3.66,4.558S405,309.416,405,306.309s1.386-4.558,3.658-4.558,3.66,1.451,3.66,4.558m-5.624-.321v.642c0,1.759.655,2.824,1.964,2.824s1.965-1.065,1.965-2.824v-.642c0-1.759-.655-2.825-1.965-2.825s-1.964,1.066-1.964,2.825" fill="#6d6b72"/>
        <path id="Trazado_723938" data-name="Trazado 723938" d="M397.318,310.713V301.9h2.863c2.2,0,3.53,1.438,3.53,4.276,0,3.017-1.335,4.532-3.53,4.532Zm1.643-7.344v5.88h1.066c1.219,0,1.99-.912,1.99-2.747v-.642c0-1.656-.771-2.491-1.99-2.491Z" fill="#6d6b72"/>
        <path id="Trazado_723939" data-name="Trazado 723939" d="M282.23,304.037c0,2.324-2.542,4.172-3.081,5.238h3.12v1.438h-5.046V310.4c0-2.76,3.389-3.967,3.389-6.381,0-.411-.179-.95-.808-.95s-.886.616-.886,1.335v.527h-1.579a3.048,3.048,0,0,1-.039-.514,2.413,2.413,0,0,1,2.568-2.67,2.123,2.123,0,0,1,2.362,2.285" fill="#6d6b72"/>
        <path id="Trazado_723940" data-name="Trazado 723940" d="M425.387,304.165a2.087,2.087,0,0,1-1.143,1.977v.051a2.115,2.115,0,0,1,1.3,2.157A2.379,2.379,0,0,1,423,310.867a2.413,2.413,0,0,1-2.606-2.645v-.231H422v.27c0,.834.333,1.309.975,1.309.578,0,.963-.411.963-1.3,0-1.1-.5-1.386-1.053-1.386h-.423v-1.3h.449c.488,0,.873-.449.873-1.361,0-.822-.308-1.181-.809-1.181-.526,0-.821.411-.821,1.232v.244h-1.605v-.359a2.291,2.291,0,0,1,2.414-2.414,2.23,2.23,0,0,1,2.426,2.414" fill="#6d6b72"/>
      </g>
    </g>
  </g>
</svg>
