<svg xmlns="http://www.w3.org/2000/svg" xmlns:xlink="http://www.w3.org/1999/xlink" width="505" height="261.88" viewBox="0 0 505 261.88">
  <defs>
    <clipPath id="clip-path">
      <rect id="Rectángulo_351812" data-name="Rectángulo 351812" width="424.739" height="239.432" fill="none"/>
    </clipPath>
  </defs>
  <g id="Grupo_1009096" data-name="Grupo 1009096" transform="translate(-180 -7152)">
    <rect id="farmaceutica-asiatica-que-trabaja-farmacia-o-farmacia" width="505" height="261.88" rx="15" transform="translate(180 7152)" fill="none"/>
    <rect id="Rectángulo_351751" data-name="Rectángulo 351751" width="363" height="201" transform="translate(279 7166)" fill="#f3f9ff"/>
    <g id="Grupo_1009095" data-name="Grupo 1009095" transform="translate(220 7163)">
      <line id="Línea_602" data-name="Línea 602" transform="translate(59.176 28.858)" fill="none" stroke="#bababa" stroke-linecap="round" stroke-linejoin="round" stroke-width="0.901"/>
      <line id="Línea_603" data-name="Línea 603" x2="355.793" transform="translate(63.243 28.858)" fill="none" stroke="#bababa" stroke-linecap="round" stroke-linejoin="round" stroke-width="0.901" stroke-dasharray="0 4.066"/>
      <line id="Línea_604" data-name="Línea 604" transform="translate(421.068 28.858)" fill="none" stroke="#bababa" stroke-linecap="round" stroke-linejoin="round" stroke-width="0.901"/>
      <line id="Línea_605" data-name="Línea 605" transform="translate(59.176 54.218)" fill="none" stroke="#bababa" stroke-linecap="round" stroke-linejoin="round" stroke-width="0.901"/>
      <line id="Línea_606" data-name="Línea 606" x2="355.793" transform="translate(63.243 54.218)" fill="none" stroke="#bababa" stroke-linecap="round" stroke-linejoin="round" stroke-width="0.901" stroke-dasharray="0 4.066"/>
      <line id="Línea_607" data-name="Línea 607" transform="translate(421.068 54.218)" fill="none" stroke="#bababa" stroke-linecap="round" stroke-linejoin="round" stroke-width="0.901"/>
      <line id="Línea_608" data-name="Línea 608" transform="translate(59.176 3.498)" fill="none" stroke="#bababa" stroke-linecap="round" stroke-linejoin="round" stroke-width="0.901"/>
      <line id="Línea_609" data-name="Línea 609" x2="355.793" transform="translate(63.243 3.498)" fill="none" stroke="#bababa" stroke-linecap="round" stroke-linejoin="round" stroke-width="0.901" stroke-dasharray="0 4.066"/>
      <line id="Línea_610" data-name="Línea 610" transform="translate(421.068 3.498)" fill="none" stroke="#bababa" stroke-linecap="round" stroke-linejoin="round" stroke-width="0.901"/>
      <line id="Línea_611" data-name="Línea 611" transform="translate(59.176 79.579)" fill="none" stroke="#bababa" stroke-linecap="round" stroke-linejoin="round" stroke-width="0.901"/>
      <line id="Línea_612" data-name="Línea 612" x2="355.793" transform="translate(63.243 79.579)" fill="none" stroke="#bababa" stroke-linecap="round" stroke-linejoin="round" stroke-width="0.901" stroke-dasharray="0 4.066"/>
      <line id="Línea_613" data-name="Línea 613" transform="translate(421.068 79.579)" fill="none" stroke="#bababa" stroke-linecap="round" stroke-linejoin="round" stroke-width="0.901"/>
      <line id="Línea_614" data-name="Línea 614" transform="translate(59.176 104.939)" fill="none" stroke="#bababa" stroke-linecap="round" stroke-linejoin="round" stroke-width="0.901"/>
      <line id="Línea_615" data-name="Línea 615" x2="355.793" transform="translate(63.243 104.939)" fill="none" stroke="#bababa" stroke-linecap="round" stroke-linejoin="round" stroke-width="0.901" stroke-dasharray="0 4.066"/>
      <line id="Línea_616" data-name="Línea 616" transform="translate(421.068 104.939)" fill="none" stroke="#bababa" stroke-linecap="round" stroke-linejoin="round" stroke-width="0.901"/>
      <line id="Línea_617" data-name="Línea 617" transform="translate(59.176 130.299)" fill="none" stroke="#bababa" stroke-linecap="round" stroke-linejoin="round" stroke-width="0.901"/>
      <line id="Línea_618" data-name="Línea 618" x2="355.793" transform="translate(63.243 130.299)" fill="none" stroke="#bababa" stroke-linecap="round" stroke-linejoin="round" stroke-width="0.901" stroke-dasharray="0 4.066"/>
      <line id="Línea_619" data-name="Línea 619" transform="translate(421.068 130.299)" fill="none" stroke="#bababa" stroke-linecap="round" stroke-linejoin="round" stroke-width="0.901"/>
      <line id="Línea_620" data-name="Línea 620" transform="translate(59.176 155.66)" fill="none" stroke="#bababa" stroke-linecap="round" stroke-linejoin="round" stroke-width="0.901"/>
      <line id="Línea_621" data-name="Línea 621" x2="355.793" transform="translate(63.243 155.66)" fill="none" stroke="#bababa" stroke-linecap="round" stroke-linejoin="round" stroke-width="0.901" stroke-dasharray="0 4.066"/>
      <line id="Línea_622" data-name="Línea 622" transform="translate(421.068 155.66)" fill="none" stroke="#bababa" stroke-linecap="round" stroke-linejoin="round" stroke-width="0.901"/>
      <line id="Línea_623" data-name="Línea 623" transform="translate(59.176 181.02)" fill="none" stroke="#bababa" stroke-linecap="round" stroke-linejoin="round" stroke-width="0.901"/>
      <line id="Línea_624" data-name="Línea 624" x2="355.793" transform="translate(63.243 181.02)" fill="none" stroke="#bababa" stroke-linecap="round" stroke-linejoin="round" stroke-width="0.901" stroke-dasharray="0 4.066"/>
      <line id="Línea_625" data-name="Línea 625" transform="translate(421.068 181.02)" fill="none" stroke="#bababa" stroke-linecap="round" stroke-linejoin="round" stroke-width="0.901"/>
      <rect id="Rectángulo_351798" data-name="Rectángulo 351798" width="43.619" height="104.949" transform="translate(103.352 98.975)" fill="#00a8c3"/>
      <rect id="Rectángulo_351799" data-name="Rectángulo 351799" width="43.619" height="104.949" transform="translate(103.352 98.975)" fill="none" stroke="#fff" stroke-miterlimit="10" stroke-width="1.945"/>
      <rect id="Rectángulo_351800" data-name="Rectángulo 351800" width="43.619" height="185.982" transform="translate(146.971 17.942)" fill="#00a8c3"/>
      <rect id="Rectángulo_351801" data-name="Rectángulo 351801" width="43.619" height="185.982" transform="translate(146.971 17.942)" fill="none" stroke="#fff" stroke-miterlimit="10" stroke-width="2.59"/>
      <rect id="Rectángulo_351802" data-name="Rectángulo 351802" width="43.619" height="67.859" transform="translate(190.59 136.065)" fill="#00a8c3"/>
      <rect id="Rectángulo_351803" data-name="Rectángulo 351803" width="43.619" height="67.859" transform="translate(190.59 136.065)" fill="none" stroke="#fff" stroke-miterlimit="10" stroke-width="1.564"/>
      <rect id="Rectángulo_351804" data-name="Rectángulo 351804" width="43.619" height="60.602" transform="translate(234.209 143.322)" fill="#00a8c3"/>
      <rect id="Rectángulo_351805" data-name="Rectángulo 351805" width="43.619" height="60.602" transform="translate(234.209 143.322)" fill="none" stroke="#fff" stroke-miterlimit="10" stroke-width="1.478"/>
      <rect id="Rectángulo_351806" data-name="Rectángulo 351806" width="43.619" height="24.226" transform="translate(277.271 179.698)" fill="#00a8c3"/>
      <rect id="Rectángulo_351807" data-name="Rectángulo 351807" width="43.619" height="24.226" transform="translate(277.271 179.698)" fill="none" stroke="#fff" stroke-miterlimit="10" stroke-width="0.935"/>
      <rect id="Rectángulo_351808" data-name="Rectángulo 351808" width="43.619" height="37.219" transform="translate(320.89 166.705)" fill="#00a8c3"/>
      <rect id="Rectángulo_351809" data-name="Rectángulo 351809" width="43.619" height="37.219" transform="translate(320.89 166.705)" fill="none" stroke="#fff" stroke-miterlimit="10" stroke-width="1.158"/>
      <g id="Grupo_1009094" data-name="Grupo 1009094">
        <g id="Grupo_1009093" data-name="Grupo 1009093" clip-path="url(#clip-path)">
          <path id="Trazado_724042" data-name="Trazado 724042" d="M424.739,203.924H59.177V3.857" fill="none" stroke="#5d5d5d" stroke-miterlimit="10" stroke-width="1.352"/>
          <path id="Trazado_724043" data-name="Trazado 724043" d="M34.732,4.559a4.194,4.194,0,0,1-.621,2.5,2.191,2.191,0,0,1-1.888.842,2.219,2.219,0,0,1-1.878-.821A4.011,4.011,0,0,1,29.7,4.649V3.317A4.134,4.134,0,0,1,30.318.83,2.213,2.213,0,0,1,32.212,0,2.226,2.226,0,0,1,34.1.808a4.009,4.009,0,0,1,.637,2.42ZM33.448,3.122a3.254,3.254,0,0,0-.3-1.587,1.13,1.13,0,0,0-1.864-.027A2.994,2.994,0,0,0,30.976,3V4.744a3.332,3.332,0,0,0,.3,1.605,1.011,1.011,0,0,0,.946.529.992.992,0,0,0,.913-.489,3.135,3.135,0,0,0,.312-1.529Z" fill="#0f576b"/>
          <path id="Trazado_724044" data-name="Trazado 724044" d="M36.131,9.529l-.692-.412a3.76,3.76,0,0,0,.42-.837,2.508,2.508,0,0,0,.119-.727v-1h1.157l-.006.925A2.565,2.565,0,0,1,36.847,8.6a2.8,2.8,0,0,1-.716.927" fill="#0f576b"/>
          <path id="Trazado_724045" data-name="Trazado 724045" d="M42.586,5.055h.956v1.03h-.956V7.8H41.3V6.085H37.98L37.943,5.3,41.26.106h1.326Zm-3.3,0H41.3V1.843l-.095.169Z" fill="#0f576b"/>
          <path id="Trazado_724046" data-name="Trazado 724046" d="M49.4,4.559a4.194,4.194,0,0,1-.621,2.5A2.191,2.191,0,0,1,46.9,7.9a2.219,2.219,0,0,1-1.878-.821,4.011,4.011,0,0,1-.647-2.432V3.317A4.134,4.134,0,0,1,44.991.83,2.587,2.587,0,0,1,48.768.808a4.009,4.009,0,0,1,.637,2.42ZM48.121,3.122a3.254,3.254,0,0,0-.3-1.587,1.13,1.13,0,0,0-1.864-.027A3,3,0,0,0,45.649,3V4.744a3.332,3.332,0,0,0,.3,1.605,1.011,1.011,0,0,0,.946.529.992.992,0,0,0,.913-.489,3.135,3.135,0,0,0,.312-1.529Z" fill="#0f576b"/>
          <path id="Trazado_724047" data-name="Trazado 724047" d="M34.732,29.8a4.194,4.194,0,0,1-.621,2.5,2.191,2.191,0,0,1-1.888.842,2.219,2.219,0,0,1-1.878-.821A4.011,4.011,0,0,1,29.7,29.89V28.558a4.134,4.134,0,0,1,.62-2.487,2.213,2.213,0,0,1,1.894-.83,2.226,2.226,0,0,1,1.883.808,4.009,4.009,0,0,1,.637,2.42Zm-1.284-1.437a3.254,3.254,0,0,0-.3-1.587,1.13,1.13,0,0,0-1.864-.027,2.994,2.994,0,0,0-.312,1.493v1.743a3.332,3.332,0,0,0,.3,1.6,1.011,1.011,0,0,0,.946.529.992.992,0,0,0,.913-.489,3.135,3.135,0,0,0,.312-1.529Z" fill="#0f576b"/>
          <path id="Trazado_724048" data-name="Trazado 724048" d="M36.131,34.771l-.692-.412a3.76,3.76,0,0,0,.42-.837,2.508,2.508,0,0,0,.119-.727v-1h1.157l-.006.925a2.565,2.565,0,0,1-.282,1.122,2.8,2.8,0,0,1-.716.927" fill="#0f576b"/>
          <path id="Trazado_724049" data-name="Trazado 724049" d="M39.728,28.606h.782a1.4,1.4,0,0,0,.937-.306,1.094,1.094,0,0,0,.346-.872,1.19,1.19,0,0,0-.288-.853,1.159,1.159,0,0,0-.879-.3,1.223,1.223,0,0,0-.85.3,1,1,0,0,0-.333.779H38.159a1.947,1.947,0,0,1,.314-1.078,2.12,2.12,0,0,1,.877-.758,2.861,2.861,0,0,1,1.26-.272,2.642,2.642,0,0,1,1.809.579,2.026,2.026,0,0,1,.658,1.608,1.637,1.637,0,0,1-.33.975,2.078,2.078,0,0,1-.853.689,1.786,1.786,0,0,1,1.294,1.791,2.066,2.066,0,0,1-.711,1.648,3.121,3.121,0,0,1-3.684.021,1.949,1.949,0,0,1-.708-1.574h1.284a1.072,1.072,0,0,0,.341.824,1.292,1.292,0,0,0,.916.317,1.333,1.333,0,0,0,.94-.317,1.4,1.4,0,0,0-.016-1.854,1.531,1.531,0,0,0-1.067-.328h-.755Z" fill="#0f576b"/>
          <path id="Trazado_724050" data-name="Trazado 724050" d="M44.736,29.224l.417-3.877h4.13v1.109H46.219l-.211,1.838a2.377,2.377,0,0,1,1.2-.306,2.141,2.141,0,0,1,1.709.7,2.781,2.781,0,0,1,.61,1.891,2.562,2.562,0,0,1-.676,1.867A2.468,2.468,0,0,1,47,33.143a2.583,2.583,0,0,1-1.751-.6,2.169,2.169,0,0,1-.753-1.582h1.242a1.355,1.355,0,0,0,.4.858,1.222,1.222,0,0,0,.856.3,1.105,1.105,0,0,0,.922-.423,1.817,1.817,0,0,0,.33-1.151,1.611,1.611,0,0,0-.365-1.112,1.274,1.274,0,0,0-1-.41,1.4,1.4,0,0,0-1.12.455Z" fill="#0f576b"/>
          <path id="Trazado_724051" data-name="Trazado 724051" d="M34.732,55.042a4.194,4.194,0,0,1-.621,2.5,2.191,2.191,0,0,1-1.888.842,2.219,2.219,0,0,1-1.878-.821,4.011,4.011,0,0,1-.647-2.432V53.8a4.134,4.134,0,0,1,.62-2.487,2.213,2.213,0,0,1,1.894-.83,2.226,2.226,0,0,1,1.883.808,4.009,4.009,0,0,1,.637,2.42ZM33.448,53.6a3.254,3.254,0,0,0-.3-1.587,1.13,1.13,0,0,0-1.864-.027,2.994,2.994,0,0,0-.312,1.493v1.743a3.332,3.332,0,0,0,.3,1.6,1.011,1.011,0,0,0,.946.529.992.992,0,0,0,.913-.489,3.135,3.135,0,0,0,.312-1.529Z" fill="#0f576b"/>
          <path id="Trazado_724052" data-name="Trazado 724052" d="M36.131,60.012l-.692-.412a3.76,3.76,0,0,0,.42-.837,2.508,2.508,0,0,0,.119-.727v-1h1.157l-.006.925a2.565,2.565,0,0,1-.282,1.122,2.8,2.8,0,0,1-.716.927" fill="#0f576b"/>
          <path id="Trazado_724053" data-name="Trazado 724053" d="M39.728,53.848h.782a1.4,1.4,0,0,0,.937-.306,1.094,1.094,0,0,0,.346-.872,1.19,1.19,0,0,0-.288-.853,1.159,1.159,0,0,0-.879-.3,1.223,1.223,0,0,0-.85.3,1,1,0,0,0-.333.779H38.159a1.947,1.947,0,0,1,.314-1.078,2.12,2.12,0,0,1,.877-.758,2.861,2.861,0,0,1,1.26-.272,2.642,2.642,0,0,1,1.809.579,2.026,2.026,0,0,1,.658,1.608,1.637,1.637,0,0,1-.33.975,2.078,2.078,0,0,1-.853.689,1.786,1.786,0,0,1,1.294,1.791,2.066,2.066,0,0,1-.711,1.648,3.121,3.121,0,0,1-3.684.021,1.949,1.949,0,0,1-.708-1.574h1.284a1.072,1.072,0,0,0,.341.824,1.292,1.292,0,0,0,.916.317,1.333,1.333,0,0,0,.94-.317,1.4,1.4,0,0,0-.016-1.854,1.532,1.532,0,0,0-1.067-.328h-.755Z" fill="#0f576b"/>
          <path id="Trazado_724054" data-name="Trazado 724054" d="M49.4,55.042a4.194,4.194,0,0,1-.621,2.5,2.191,2.191,0,0,1-1.888.842,2.219,2.219,0,0,1-1.878-.821,4.011,4.011,0,0,1-.647-2.432V53.8a4.134,4.134,0,0,1,.62-2.487,2.587,2.587,0,0,1,3.777-.022,4.009,4.009,0,0,1,.637,2.42ZM48.121,53.6a3.254,3.254,0,0,0-.3-1.587,1.13,1.13,0,0,0-1.864-.027,3,3,0,0,0-.312,1.493v1.743a3.332,3.332,0,0,0,.3,1.6,1.011,1.011,0,0,0,.946.529.992.992,0,0,0,.913-.489,3.135,3.135,0,0,0,.312-1.529Z" fill="#0f576b"/>
          <path id="Trazado_724055" data-name="Trazado 724055" d="M34.732,80.284a4.194,4.194,0,0,1-.621,2.5,2.191,2.191,0,0,1-1.888.842,2.219,2.219,0,0,1-1.878-.821,4.011,4.011,0,0,1-.647-2.432V79.042a4.134,4.134,0,0,1,.62-2.487,2.213,2.213,0,0,1,1.894-.83,2.226,2.226,0,0,1,1.883.808,4.009,4.009,0,0,1,.637,2.42Zm-1.284-1.437a3.254,3.254,0,0,0-.3-1.587,1.13,1.13,0,0,0-1.864-.027,2.994,2.994,0,0,0-.312,1.493v1.743a3.332,3.332,0,0,0,.3,1.6,1.011,1.011,0,0,0,.946.529.992.992,0,0,0,.913-.489,3.135,3.135,0,0,0,.312-1.529Z" fill="#0f576b"/>
          <path id="Trazado_724056" data-name="Trazado 724056" d="M36.131,85.254l-.692-.412a3.76,3.76,0,0,0,.42-.837,2.508,2.508,0,0,0,.119-.727v-1h1.157l-.006.925a2.565,2.565,0,0,1-.282,1.122,2.8,2.8,0,0,1-.716.927" fill="#0f576b"/>
          <path id="Trazado_724057" data-name="Trazado 724057" d="M43.415,83.521H38.244v-.882l2.562-2.794a6.39,6.39,0,0,0,.789-1.033,1.67,1.67,0,0,0,.235-.832,1.263,1.263,0,0,0-.309-.887,1.069,1.069,0,0,0-.832-.338,1.233,1.233,0,0,0-.966.38,1.493,1.493,0,0,0-.344,1.04H38.1a2.516,2.516,0,0,1,.319-1.265,2.2,2.2,0,0,1,.914-.874,2.905,2.905,0,0,1,1.371-.311,2.6,2.6,0,0,1,1.767.562,1.955,1.955,0,0,1,.647,1.556,2.635,2.635,0,0,1-.325,1.207,6.879,6.879,0,0,1-1.064,1.434L39.844,82.5h3.571Z" fill="#0f576b"/>
          <path id="Trazado_724058" data-name="Trazado 724058" d="M44.736,79.708l.417-3.877h4.13V76.94H46.219l-.211,1.838a2.377,2.377,0,0,1,1.2-.306,2.141,2.141,0,0,1,1.709.7,2.781,2.781,0,0,1,.61,1.891,2.562,2.562,0,0,1-.676,1.867A2.468,2.468,0,0,1,47,83.627a2.583,2.583,0,0,1-1.751-.6,2.169,2.169,0,0,1-.753-1.582h1.242a1.355,1.355,0,0,0,.4.858,1.222,1.222,0,0,0,.856.3,1.105,1.105,0,0,0,.922-.423,1.817,1.817,0,0,0,.33-1.151,1.611,1.611,0,0,0-.365-1.112,1.274,1.274,0,0,0-1-.41,1.4,1.4,0,0,0-1.12.455Z" fill="#0f576b"/>
          <path id="Trazado_724059" data-name="Trazado 724059" d="M34.732,105.525a4.194,4.194,0,0,1-.621,2.5,2.191,2.191,0,0,1-1.888.842,2.219,2.219,0,0,1-1.878-.821,4.011,4.011,0,0,1-.647-2.432v-1.332a4.134,4.134,0,0,1,.62-2.487,2.213,2.213,0,0,1,1.894-.83,2.226,2.226,0,0,1,1.883.808,4.009,4.009,0,0,1,.637,2.42Zm-1.284-1.437a3.254,3.254,0,0,0-.3-1.587,1.13,1.13,0,0,0-1.864-.027,2.994,2.994,0,0,0-.312,1.493v1.743a3.332,3.332,0,0,0,.3,1.605,1.011,1.011,0,0,0,.946.529.992.992,0,0,0,.913-.489,3.135,3.135,0,0,0,.312-1.529Z" fill="#0f576b"/>
          <path id="Trazado_724060" data-name="Trazado 724060" d="M36.131,110.5l-.692-.412a3.76,3.76,0,0,0,.42-.837,2.508,2.508,0,0,0,.119-.727v-1h1.157l-.006.925a2.565,2.565,0,0,1-.282,1.122,2.8,2.8,0,0,1-.716.927" fill="#0f576b"/>
          <path id="Trazado_724061" data-name="Trazado 724061" d="M43.415,108.763H38.244v-.882l2.562-2.794a6.389,6.389,0,0,0,.789-1.033,1.67,1.67,0,0,0,.235-.832,1.263,1.263,0,0,0-.309-.887,1.069,1.069,0,0,0-.832-.338,1.233,1.233,0,0,0-.966.38,1.493,1.493,0,0,0-.344,1.04H38.1a2.516,2.516,0,0,1,.319-1.265,2.2,2.2,0,0,1,.914-.874,2.905,2.905,0,0,1,1.371-.311,2.6,2.6,0,0,1,1.767.562,1.955,1.955,0,0,1,.647,1.556,2.635,2.635,0,0,1-.325,1.207,6.879,6.879,0,0,1-1.064,1.434l-1.881,2.012h3.571Z" fill="#0f576b"/>
          <path id="Trazado_724062" data-name="Trazado 724062" d="M49.4,105.525a4.194,4.194,0,0,1-.621,2.5,2.191,2.191,0,0,1-1.888.842,2.219,2.219,0,0,1-1.878-.821,4.011,4.011,0,0,1-.647-2.432v-1.332a4.134,4.134,0,0,1,.62-2.487,2.587,2.587,0,0,1,3.777-.022,4.009,4.009,0,0,1,.637,2.42Zm-1.284-1.437a3.254,3.254,0,0,0-.3-1.587,1.13,1.13,0,0,0-1.864-.027,3,3,0,0,0-.312,1.493v1.743a3.332,3.332,0,0,0,.3,1.605,1.011,1.011,0,0,0,.946.529.992.992,0,0,0,.913-.489,3.135,3.135,0,0,0,.312-1.529Z" fill="#0f576b"/>
          <path id="Trazado_724063" data-name="Trazado 724063" d="M34.732,130.767a4.194,4.194,0,0,1-.621,2.5,2.191,2.191,0,0,1-1.888.842,2.219,2.219,0,0,1-1.878-.821,4.011,4.011,0,0,1-.647-2.432v-1.332a4.134,4.134,0,0,1,.62-2.487,2.213,2.213,0,0,1,1.894-.83,2.226,2.226,0,0,1,1.883.808,4.009,4.009,0,0,1,.637,2.42Zm-1.284-1.437a3.254,3.254,0,0,0-.3-1.587,1.13,1.13,0,0,0-1.864-.027,2.994,2.994,0,0,0-.312,1.493v1.743a3.332,3.332,0,0,0,.3,1.605,1.011,1.011,0,0,0,.946.529.992.992,0,0,0,.913-.489,3.135,3.135,0,0,0,.312-1.529Z" fill="#0f576b"/>
          <path id="Trazado_724064" data-name="Trazado 724064" d="M36.131,135.737l-.692-.412a3.76,3.76,0,0,0,.42-.837,2.509,2.509,0,0,0,.119-.727v-1h1.157l-.006.925a2.565,2.565,0,0,1-.282,1.122,2.8,2.8,0,0,1-.716.927" fill="#0f576b"/>
          <path id="Trazado_724065" data-name="Trazado 724065" d="M41.719,134H40.441v-6.178l-1.886.642v-1.077l3-1.1h.164Z" fill="#0f576b"/>
          <path id="Trazado_724066" data-name="Trazado 724066" d="M44.736,130.191l.417-3.877h4.13v1.109H46.219l-.211,1.838a2.377,2.377,0,0,1,1.2-.306,2.143,2.143,0,0,1,1.709.7,2.785,2.785,0,0,1,.61,1.892,2.562,2.562,0,0,1-.676,1.867A2.468,2.468,0,0,1,47,134.11a2.583,2.583,0,0,1-1.751-.6,2.169,2.169,0,0,1-.753-1.582h1.242a1.355,1.355,0,0,0,.4.858,1.222,1.222,0,0,0,.856.3,1.105,1.105,0,0,0,.922-.423,1.819,1.819,0,0,0,.33-1.151,1.611,1.611,0,0,0-.365-1.112,1.274,1.274,0,0,0-1-.41,1.4,1.4,0,0,0-1.12.455Z" fill="#0f576b"/>
          <path id="Trazado_724067" data-name="Trazado 724067" d="M34.732,156.009a4.194,4.194,0,0,1-.621,2.5,2.191,2.191,0,0,1-1.888.842,2.219,2.219,0,0,1-1.878-.821A4.011,4.011,0,0,1,29.7,156.1v-1.332a4.134,4.134,0,0,1,.62-2.487,2.213,2.213,0,0,1,1.894-.83,2.226,2.226,0,0,1,1.883.808,4.009,4.009,0,0,1,.637,2.42Zm-1.284-1.437a3.254,3.254,0,0,0-.3-1.587,1.13,1.13,0,0,0-1.864-.027,2.994,2.994,0,0,0-.312,1.493v1.743a3.332,3.332,0,0,0,.3,1.6,1.011,1.011,0,0,0,.946.529.992.992,0,0,0,.913-.489,3.135,3.135,0,0,0,.312-1.529Z" fill="#0f576b"/>
          <path id="Trazado_724068" data-name="Trazado 724068" d="M36.131,160.979l-.692-.412a3.76,3.76,0,0,0,.42-.837,2.508,2.508,0,0,0,.119-.727v-1h1.157l-.006.925a2.565,2.565,0,0,1-.282,1.122,2.8,2.8,0,0,1-.716.927" fill="#0f576b"/>
          <path id="Trazado_724069" data-name="Trazado 724069" d="M41.719,159.247H40.441v-6.178l-1.886.642v-1.077l3-1.1h.164Z" fill="#0f576b"/>
          <path id="Trazado_724070" data-name="Trazado 724070" d="M49.4,156.009a4.194,4.194,0,0,1-.621,2.5,2.191,2.191,0,0,1-1.888.842,2.219,2.219,0,0,1-1.878-.821,4.011,4.011,0,0,1-.647-2.432v-1.332a4.134,4.134,0,0,1,.62-2.487,2.587,2.587,0,0,1,3.777-.022,4.009,4.009,0,0,1,.637,2.42Zm-1.284-1.437a3.254,3.254,0,0,0-.3-1.587,1.13,1.13,0,0,0-1.864-.027,3,3,0,0,0-.312,1.493v1.743a3.332,3.332,0,0,0,.3,1.6,1.011,1.011,0,0,0,.946.529.992.992,0,0,0,.913-.489,3.135,3.135,0,0,0,.312-1.529Z" fill="#0f576b"/>
          <path id="Trazado_724071" data-name="Trazado 724071" d="M34.732,181.251a4.194,4.194,0,0,1-.621,2.5,2.191,2.191,0,0,1-1.888.842,2.219,2.219,0,0,1-1.878-.821,4.011,4.011,0,0,1-.647-2.432v-1.332a4.134,4.134,0,0,1,.62-2.487,2.213,2.213,0,0,1,1.894-.83,2.226,2.226,0,0,1,1.883.808,4.009,4.009,0,0,1,.637,2.42Zm-1.284-1.437a3.254,3.254,0,0,0-.3-1.587,1.13,1.13,0,0,0-1.864-.027,2.994,2.994,0,0,0-.312,1.493v1.743a3.332,3.332,0,0,0,.3,1.6,1.011,1.011,0,0,0,.946.529.992.992,0,0,0,.913-.489,3.135,3.135,0,0,0,.312-1.529Z" fill="#0f576b"/>
          <path id="Trazado_724072" data-name="Trazado 724072" d="M36.131,186.221l-.692-.412a3.76,3.76,0,0,0,.42-.837,2.508,2.508,0,0,0,.119-.727v-1h1.157l-.006.925a2.565,2.565,0,0,1-.282,1.122,2.8,2.8,0,0,1-.716.927" fill="#0f576b"/>
          <path id="Trazado_724073" data-name="Trazado 724073" d="M43.257,181.251a4.194,4.194,0,0,1-.621,2.5,2.191,2.191,0,0,1-1.888.842,2.219,2.219,0,0,1-1.878-.821,4.011,4.011,0,0,1-.647-2.432v-1.332a4.134,4.134,0,0,1,.62-2.487,2.587,2.587,0,0,1,3.777-.022,4.009,4.009,0,0,1,.637,2.42Zm-1.284-1.437a3.254,3.254,0,0,0-.3-1.587,1.13,1.13,0,0,0-1.864-.027,3,3,0,0,0-.312,1.493v1.743a3.332,3.332,0,0,0,.3,1.6,1.011,1.011,0,0,0,.946.529.992.992,0,0,0,.913-.489,3.135,3.135,0,0,0,.312-1.529Z" fill="#0f576b"/>
          <path id="Trazado_724074" data-name="Trazado 724074" d="M44.736,180.675l.417-3.877h4.13v1.109H46.219l-.211,1.838a2.377,2.377,0,0,1,1.2-.306,2.143,2.143,0,0,1,1.709.7,2.785,2.785,0,0,1,.61,1.892,2.562,2.562,0,0,1-.676,1.867,2.468,2.468,0,0,1-1.854.694,2.583,2.583,0,0,1-1.751-.6,2.169,2.169,0,0,1-.753-1.582h1.242a1.355,1.355,0,0,0,.4.858,1.222,1.222,0,0,0,.856.3,1.105,1.105,0,0,0,.922-.423,1.819,1.819,0,0,0,.33-1.151,1.611,1.611,0,0,0-.365-1.112,1.274,1.274,0,0,0-1-.41,1.4,1.4,0,0,0-1.12.455Z" fill="#0f576b"/>
          <path id="Trazado_724075" data-name="Trazado 724075" d="M34.732,206.492a4.194,4.194,0,0,1-.621,2.5,2.191,2.191,0,0,1-1.888.842,2.219,2.219,0,0,1-1.878-.821,4.011,4.011,0,0,1-.647-2.432V205.25a4.134,4.134,0,0,1,.62-2.487,2.213,2.213,0,0,1,1.894-.83,2.226,2.226,0,0,1,1.883.808,4.009,4.009,0,0,1,.637,2.42Zm-1.284-1.437a3.254,3.254,0,0,0-.3-1.587,1.13,1.13,0,0,0-1.864-.027,2.994,2.994,0,0,0-.312,1.493v1.743a3.332,3.332,0,0,0,.3,1.6,1.011,1.011,0,0,0,.946.529.992.992,0,0,0,.913-.489,3.135,3.135,0,0,0,.312-1.529Z" fill="#0f576b"/>
          <path id="Trazado_724076" data-name="Trazado 724076" d="M36.131,211.462l-.692-.412a3.76,3.76,0,0,0,.42-.837,2.508,2.508,0,0,0,.119-.727v-1h1.157l-.006.925a2.565,2.565,0,0,1-.282,1.122,2.8,2.8,0,0,1-.716.927" fill="#0f576b"/>
          <path id="Trazado_724077" data-name="Trazado 724077" d="M43.257,206.492a4.194,4.194,0,0,1-.621,2.5,2.191,2.191,0,0,1-1.888.842,2.219,2.219,0,0,1-1.878-.821,4.011,4.011,0,0,1-.647-2.432V205.25a4.134,4.134,0,0,1,.62-2.487,2.587,2.587,0,0,1,3.777-.022,4.009,4.009,0,0,1,.637,2.42Zm-1.284-1.437a3.254,3.254,0,0,0-.3-1.587,1.13,1.13,0,0,0-1.864-.027,3,3,0,0,0-.312,1.493v1.743a3.332,3.332,0,0,0,.3,1.6,1.011,1.011,0,0,0,.946.529.992.992,0,0,0,.913-.489,3.135,3.135,0,0,0,.312-1.529Z" fill="#0f576b"/>
          <path id="Trazado_724078" data-name="Trazado 724078" d="M49.4,206.492a4.194,4.194,0,0,1-.621,2.5,2.191,2.191,0,0,1-1.888.842,2.219,2.219,0,0,1-1.878-.821,4.011,4.011,0,0,1-.647-2.432V205.25a4.134,4.134,0,0,1,.62-2.487,2.587,2.587,0,0,1,3.777-.022,4.009,4.009,0,0,1,.637,2.42Zm-1.284-1.437a3.254,3.254,0,0,0-.3-1.587,1.13,1.13,0,0,0-1.864-.027,3,3,0,0,0-.312,1.493v1.743a3.332,3.332,0,0,0,.3,1.6,1.011,1.011,0,0,0,.946.529.992.992,0,0,0,.913-.489,3.135,3.135,0,0,0,.312-1.529Z" fill="#0f576b"/>
          <path id="Trazado_724079" data-name="Trazado 724079" d="M102.731,218.105h-1.278v-6.178l-1.886.642v-1.077l3-1.1h.164Z" fill="#0f576b"/>
          <path id="Trazado_724080" data-name="Trazado 724080" d="M106.286,216.753a.738.738,0,0,1,.555.2.709.709,0,0,1,.195.51.681.681,0,0,1-.195.5.867.867,0,0,1-1.1,0,.67.67,0,0,1-.2-.5.706.706,0,0,1,.2-.51.727.727,0,0,1,.549-.2" fill="#0f576b"/>
          <path id="Trazado_724081" data-name="Trazado 724081" d="M108.769,214.292l.417-3.877h4.131v1.109h-3.064l-.211,1.838a2.377,2.377,0,0,1,1.2-.306,2.141,2.141,0,0,1,1.709.7,2.781,2.781,0,0,1,.61,1.891,2.562,2.562,0,0,1-.676,1.867,2.468,2.468,0,0,1-1.854.694,2.583,2.583,0,0,1-1.751-.6,2.169,2.169,0,0,1-.753-1.582h1.242a1.355,1.355,0,0,0,.4.858,1.222,1.222,0,0,0,.856.3,1.105,1.105,0,0,0,.922-.423,1.823,1.823,0,0,0,.33-1.151,1.611,1.611,0,0,0-.365-1.112,1.274,1.274,0,0,0-1-.41,1.4,1.4,0,0,0-1.12.455Z" fill="#0f576b"/>
          <path id="Trazado_724082" data-name="Trazado 724082" d="M145.059,218.1h-5.171v-.882l2.562-2.794a6.39,6.39,0,0,0,.789-1.033,1.67,1.67,0,0,0,.235-.832,1.263,1.263,0,0,0-.309-.887,1.069,1.069,0,0,0-.832-.338,1.233,1.233,0,0,0-.966.38,1.493,1.493,0,0,0-.344,1.04H139.74a2.516,2.516,0,0,1,.319-1.265,2.2,2.2,0,0,1,.914-.874,2.905,2.905,0,0,1,1.371-.311,2.6,2.6,0,0,1,1.767.562,1.955,1.955,0,0,1,.647,1.556,2.635,2.635,0,0,1-.325,1.207,6.879,6.879,0,0,1-1.064,1.434l-1.881,2.012h3.571Z" fill="#0f576b"/>
          <path id="Trazado_724083" data-name="Trazado 724083" d="M146.918,216.753a.738.738,0,0,1,.555.2.709.709,0,0,1,.195.51.682.682,0,0,1-.195.5.867.867,0,0,1-1.1,0,.67.67,0,0,1-.2-.5.706.706,0,0,1,.2-.51.727.727,0,0,1,.549-.2" fill="#0f576b"/>
          <path id="Trazado_724084" data-name="Trazado 724084" d="M153.4,215.364h.956v1.03H153.4V218.1h-1.284v-1.711h-3.322l-.037-.782,3.317-5.2H153.4Zm-3.3,0h2.012v-3.212l-.1.169Z" fill="#0f576b"/>
          <path id="Trazado_724085" data-name="Trazado 724085" d="M184.991,213.674h.782a1.4,1.4,0,0,0,.937-.306,1.094,1.094,0,0,0,.346-.872,1.19,1.19,0,0,0-.288-.853,1.159,1.159,0,0,0-.879-.3,1.223,1.223,0,0,0-.85.3,1,1,0,0,0-.333.779h-1.284a1.947,1.947,0,0,1,.314-1.078,2.12,2.12,0,0,1,.877-.758,2.861,2.861,0,0,1,1.26-.272,2.642,2.642,0,0,1,1.809.579,2.026,2.026,0,0,1,.658,1.608,1.637,1.637,0,0,1-.33.975,2.078,2.078,0,0,1-.853.689,1.786,1.786,0,0,1,1.294,1.791,2.066,2.066,0,0,1-.711,1.648,3.121,3.121,0,0,1-3.684.021,1.949,1.949,0,0,1-.708-1.574h1.284a1.072,1.072,0,0,0,.341.824,1.292,1.292,0,0,0,.916.317,1.333,1.333,0,0,0,.94-.317,1.4,1.4,0,0,0-.016-1.854,1.531,1.531,0,0,0-1.067-.328h-.755Z" fill="#0f576b"/>
          <path id="Trazado_724086" data-name="Trazado 724086" d="M190.537,216.753a.738.738,0,0,1,.555.2.709.709,0,0,1,.2.51.681.681,0,0,1-.2.5.867.867,0,0,1-1.1,0,.67.67,0,0,1-.2-.5.706.706,0,0,1,.2-.51.727.727,0,0,1,.549-.2" fill="#0f576b"/>
          <path id="Trazado_724087" data-name="Trazado 724087" d="M194.161,213.674h.782a1.4,1.4,0,0,0,.937-.306,1.094,1.094,0,0,0,.346-.872,1.19,1.19,0,0,0-.288-.853,1.159,1.159,0,0,0-.879-.3,1.223,1.223,0,0,0-.85.3,1,1,0,0,0-.333.779h-1.284a1.947,1.947,0,0,1,.314-1.078,2.12,2.12,0,0,1,.877-.758,2.861,2.861,0,0,1,1.26-.272,2.642,2.642,0,0,1,1.809.579,2.026,2.026,0,0,1,.658,1.608,1.637,1.637,0,0,1-.33.975,2.078,2.078,0,0,1-.853.689,1.786,1.786,0,0,1,1.294,1.791,2.066,2.066,0,0,1-.711,1.648,3.121,3.121,0,0,1-3.684.021,1.949,1.949,0,0,1-.708-1.574H193.8a1.072,1.072,0,0,0,.341.824,1.292,1.292,0,0,0,.916.317,1.333,1.333,0,0,0,.94-.317,1.4,1.4,0,0,0-.016-1.854,1.531,1.531,0,0,0-1.067-.328h-.755Z" fill="#0f576b"/>
          <path id="Trazado_724088" data-name="Trazado 724088" d="M231.468,215.364h.956v1.03h-.956V218.1h-1.284v-1.711h-3.322l-.037-.782,3.317-5.2h1.326Zm-3.3,0h2.012v-3.212l-.1.169Z" fill="#0f576b"/>
          <path id="Trazado_724089" data-name="Trazado 724089" d="M234.157,216.753a.738.738,0,0,1,.555.2.709.709,0,0,1,.195.51.682.682,0,0,1-.195.5.867.867,0,0,1-1.1,0,.67.67,0,0,1-.2-.5.706.706,0,0,1,.2-.51.727.727,0,0,1,.549-.2" fill="#0f576b"/>
          <path id="Trazado_724090" data-name="Trazado 724090" d="M241.467,218.1H236.3v-.882l2.562-2.794a6.39,6.39,0,0,0,.789-1.033,1.67,1.67,0,0,0,.235-.832,1.263,1.263,0,0,0-.309-.887,1.069,1.069,0,0,0-.832-.338,1.233,1.233,0,0,0-.966.38,1.493,1.493,0,0,0-.344,1.04h-1.283a2.516,2.516,0,0,1,.319-1.265,2.2,2.2,0,0,1,.914-.874,2.905,2.905,0,0,1,1.371-.311,2.6,2.6,0,0,1,1.767.562,1.955,1.955,0,0,1,.647,1.556,2.635,2.635,0,0,1-.325,1.207,6.916,6.916,0,0,1-1.064,1.434L237.9,217.08h3.571Z" fill="#0f576b"/>
          <path id="Trazado_724091" data-name="Trazado 724091" d="M270.53,214.292l.417-3.877h4.131v1.109h-3.064l-.211,1.838a2.377,2.377,0,0,1,1.2-.306,2.141,2.141,0,0,1,1.709.7,2.781,2.781,0,0,1,.61,1.891,2.562,2.562,0,0,1-.676,1.867,2.468,2.468,0,0,1-1.854.694,2.583,2.583,0,0,1-1.751-.6,2.169,2.169,0,0,1-.753-1.582h1.242a1.355,1.355,0,0,0,.4.858,1.222,1.222,0,0,0,.856.3,1.1,1.1,0,0,0,.921-.423,1.817,1.817,0,0,0,.331-1.151,1.611,1.611,0,0,0-.365-1.112,1.274,1.274,0,0,0-1-.41,1.4,1.4,0,0,0-1.12.455Z" fill="#0f576b"/>
          <path id="Trazado_724092" data-name="Trazado 724092" d="M277.218,216.753a.738.738,0,0,1,.555.2.709.709,0,0,1,.195.51.681.681,0,0,1-.195.5.867.867,0,0,1-1.1,0,.67.67,0,0,1-.2-.5.706.706,0,0,1,.2-.51.727.727,0,0,1,.549-.2" fill="#0f576b"/>
          <path id="Trazado_724093" data-name="Trazado 724093" d="M282.833,218.105h-1.278v-6.178l-1.886.642v-1.077l3-1.1h.164Z" fill="#0f576b"/>
          <path id="Trazado_724094" data-name="Trazado 724094" d="M317.8,210.378v1.062h-.159a2.545,2.545,0,0,0-1.722.591,2.479,2.479,0,0,0-.766,1.632,2.085,2.085,0,0,1,1.58-.649,1.969,1.969,0,0,1,1.608.718,2.828,2.828,0,0,1,.589,1.854,2.647,2.647,0,0,1-.689,1.9,2.381,2.381,0,0,1-1.809.726,2.325,2.325,0,0,1-1.868-.85,3.346,3.346,0,0,1-.715-2.229v-.439a4.706,4.706,0,0,1,.985-3.169,3.531,3.531,0,0,1,2.834-1.146Zm-1.379,3.671a1.347,1.347,0,0,0-.774.238,1.383,1.383,0,0,0-.515.634v.39a2.309,2.309,0,0,0,.359,1.361,1.1,1.1,0,0,0,.93.5,1.084,1.084,0,0,0,.9-.428,1.78,1.78,0,0,0,.333-1.125,1.812,1.812,0,0,0-.338-1.136,1.078,1.078,0,0,0-.9-.438" fill="#0f576b"/>
          <path id="Trazado_724095" data-name="Trazado 724095" d="M320.837,216.753a.738.738,0,0,1,.555.2.709.709,0,0,1,.2.51.681.681,0,0,1-.2.5.867.867,0,0,1-1.1,0,.67.67,0,0,1-.2-.5.706.706,0,0,1,.2-.51.727.727,0,0,1,.549-.2" fill="#0f576b"/>
          <path id="Trazado_724096" data-name="Trazado 724096" d="M327.989,214.868a4.194,4.194,0,0,1-.621,2.5,2.191,2.191,0,0,1-1.888.842,2.219,2.219,0,0,1-1.878-.821,4.011,4.011,0,0,1-.647-2.432v-1.332a4.133,4.133,0,0,1,.62-2.487,2.587,2.587,0,0,1,3.777-.022,4.009,4.009,0,0,1,.637,2.42Zm-1.284-1.437a3.254,3.254,0,0,0-.3-1.587,1.13,1.13,0,0,0-1.864-.027,3,3,0,0,0-.312,1.493v1.743a3.332,3.332,0,0,0,.3,1.605,1.011,1.011,0,0,0,.946.529.992.992,0,0,0,.913-.489,3.135,3.135,0,0,0,.312-1.529Z" fill="#0f576b"/>
          <path id="Trazado_724097" data-name="Trazado 724097" d="M361.419,210.378v1.062h-.159a2.545,2.545,0,0,0-1.722.591,2.479,2.479,0,0,0-.766,1.632,2.085,2.085,0,0,1,1.58-.649,1.969,1.969,0,0,1,1.608.718,2.828,2.828,0,0,1,.589,1.854,2.647,2.647,0,0,1-.689,1.9,2.381,2.381,0,0,1-1.809.726,2.324,2.324,0,0,1-1.868-.85,3.346,3.346,0,0,1-.715-2.229v-.439a4.706,4.706,0,0,1,.985-3.169,3.531,3.531,0,0,1,2.834-1.146Zm-1.379,3.671a1.347,1.347,0,0,0-.774.238,1.383,1.383,0,0,0-.515.634v.39a2.309,2.309,0,0,0,.359,1.361,1.1,1.1,0,0,0,.93.5,1.084,1.084,0,0,0,.9-.428,1.78,1.78,0,0,0,.333-1.125,1.812,1.812,0,0,0-.338-1.136,1.078,1.078,0,0,0-.9-.438" fill="#0f576b"/>
          <path id="Trazado_724098" data-name="Trazado 724098" d="M364.456,216.753a.738.738,0,0,1,.555.2.709.709,0,0,1,.2.51.681.681,0,0,1-.2.5.867.867,0,0,1-1.1,0,.67.67,0,0,1-.2-.5.706.706,0,0,1,.2-.51.727.727,0,0,1,.549-.2" fill="#0f576b"/>
          <path id="Trazado_724099" data-name="Trazado 724099" d="M370.235,214.888a2.1,2.1,0,0,1-3.122-.029,2.79,2.79,0,0,1-.6-1.867,3.066,3.066,0,0,1,.306-1.379,2.289,2.289,0,0,1,.872-.961,2.471,2.471,0,0,1,1.31-.343,2.219,2.219,0,0,1,1.843.866,3.643,3.643,0,0,1,.682,2.319v.359a4.745,4.745,0,0,1-.94,3.175,3.544,3.544,0,0,1-2.805,1.109h-.153v-1.062h.185a2.63,2.63,0,0,0,1.743-.547,2.276,2.276,0,0,0,.681-1.64M369,214.566a1.3,1.3,0,0,0,.724-.222,1.469,1.469,0,0,0,.523-.613v-.5a2.412,2.412,0,0,0-.349-1.368,1.049,1.049,0,0,0-.9-.518,1.037,1.037,0,0,0-.885.457,1.919,1.919,0,0,0-.33,1.154,1.9,1.9,0,0,0,.333,1.167,1.052,1.052,0,0,0,.887.444" fill="#0f576b"/>
          <path id="Trazado_724100" data-name="Trazado 724100" d="M226.746,238.175a3.208,3.208,0,0,1-1.411.928,5.935,5.935,0,0,1-2.022.329,4.006,4.006,0,0,1-2.043-.508,3.4,3.4,0,0,1-1.356-1.476,5.211,5.211,0,0,1-.489-2.274v-.61a5.528,5.528,0,0,1,.452-2.326,3.354,3.354,0,0,1,1.307-1.5,4.3,4.3,0,0,1,4.5.241,3.253,3.253,0,0,1,1.066,2.215h-1.8a1.789,1.789,0,0,0-.546-1.128,1.741,1.741,0,0,0-1.161-.358,1.64,1.64,0,0,0-1.436.709,3.725,3.725,0,0,0-.5,2.108v.573a3.543,3.543,0,0,0,.536,2.132,1.834,1.834,0,0,0,1.571.721,2.049,2.049,0,0,0,1.485-.444v-1.547h-1.682V234.6h3.531Z"/>
          <path id="Trazado_724101" data-name="Trazado 724101" d="M231.99,239.309a1.994,1.994,0,0,1-.179-.6,2.153,2.153,0,0,1-1.682.721,2.363,2.363,0,0,1-1.624-.567,1.824,1.824,0,0,1-.644-1.43,1.888,1.888,0,0,1,.785-1.627,3.9,3.9,0,0,1,2.272-.573h.819v-.382a1.1,1.1,0,0,0-.237-.739.934.934,0,0,0-.749-.278,1.063,1.063,0,0,0-.705.216.733.733,0,0,0-.256.592h-1.781a1.8,1.8,0,0,1,.357-1.073,2.37,2.37,0,0,1,1.011-.773,3.683,3.683,0,0,1,1.467-.28,2.909,2.909,0,0,1,1.956.619,2.166,2.166,0,0,1,.724,1.741v2.89a3.206,3.206,0,0,0,.265,1.436v.105Zm-1.473-1.239a1.534,1.534,0,0,0,.727-.175,1.15,1.15,0,0,0,.493-.472v-1.146h-.665q-1.338,0-1.424.924l-.006.1a.711.711,0,0,0,.234.548.9.9,0,0,0,.641.216"/>
          <rect id="Rectángulo_351810" data-name="Rectángulo 351810" width="1.787" height="9.466" transform="translate(234.985 229.843)"/>
          <path id="Trazado_724102" data-name="Trazado 724102" d="M237.961,235.913a3.961,3.961,0,0,1,.382-1.768,2.8,2.8,0,0,1,1.1-1.2,3.2,3.2,0,0,1,1.666-.425,3.041,3.041,0,0,1,2.2.825,3.324,3.324,0,0,1,.951,2.244l.013.456a3.487,3.487,0,0,1-.857,2.462,3.322,3.322,0,0,1-4.6,0,3.554,3.554,0,0,1-.859-2.515Zm1.781.127a2.491,2.491,0,0,0,.357,1.453,1.285,1.285,0,0,0,2.034.007,2.729,2.729,0,0,0,.364-1.589,2.47,2.47,0,0,0-.364-1.445,1.181,1.181,0,0,0-1.023-.512,1.162,1.162,0,0,0-1.011.509,2.775,2.775,0,0,0-.357,1.577"/>
          <path id="Trazado_724103" data-name="Trazado 724103" d="M247.014,232.641l.055.77a2.331,2.331,0,0,1,1.917-.893,1.938,1.938,0,0,1,1.578.622,2.9,2.9,0,0,1,.53,1.861v4.308h-1.781v-4.274a1.158,1.158,0,0,0-.247-.825,1.1,1.1,0,0,0-.82-.256,1.225,1.225,0,0,0-1.127.642v4.713h-1.781v-6.668Z"/>
          <path id="Trazado_724104" data-name="Trazado 724104" d="M255.512,239.432a3.272,3.272,0,0,1-2.388-.9,3.2,3.2,0,0,1-.921-2.4v-.173a4.023,4.023,0,0,1,.388-1.8,2.85,2.85,0,0,1,1.1-1.22,3.085,3.085,0,0,1,1.624-.429,2.769,2.769,0,0,1,2.154.863,3.511,3.511,0,0,1,.786,2.446v.728h-4.246a1.652,1.652,0,0,0,.52,1.047,1.578,1.578,0,0,0,1.1.395,1.925,1.925,0,0,0,1.609-.746l.875.98a2.687,2.687,0,0,1-1.085.885,3.566,3.566,0,0,1-1.516.316m-.2-5.478a1.112,1.112,0,0,0-.859.359,1.863,1.863,0,0,0-.423,1.028h2.478V235.2a1.327,1.327,0,0,0-.321-.919,1.146,1.146,0,0,0-.875-.325"/>
          <path id="Trazado_724105" data-name="Trazado 724105" d="M262.877,237.466a.574.574,0,0,0-.323-.514,3.659,3.659,0,0,0-1.039-.336q-2.378-.5-2.379-2.022a1.833,1.833,0,0,1,.736-1.481,2.971,2.971,0,0,1,1.927-.6,3.2,3.2,0,0,1,2.03.6,1.884,1.884,0,0,1,.761,1.553h-1.781a.862.862,0,0,0-.246-.631,1.046,1.046,0,0,0-.771-.25,1.069,1.069,0,0,0-.7.2.64.64,0,0,0-.246.518.549.549,0,0,0,.28.478,2.9,2.9,0,0,0,.946.314,7.618,7.618,0,0,1,1.121.3,1.842,1.842,0,0,1,1.412,1.793,1.738,1.738,0,0,1-.783,1.476,3.374,3.374,0,0,1-2.021.564,3.535,3.535,0,0,1-1.489-.3,2.492,2.492,0,0,1-1.019-.819,1.9,1.9,0,0,1-.37-1.125h1.688a.929.929,0,0,0,.352.727,1.387,1.387,0,0,0,.875.253,1.3,1.3,0,0,0,.774-.194.606.606,0,0,0,.261-.509"/>
          <path id="Trazado_724106" data-name="Trazado 724106" d="M5.8,151.27v3.55H9.466v1.848H.493v-5.842h1.5v3.994H4.308v-3.55Z"/>
          <path id="Trazado_724107" data-name="Trazado 724107" d="M4.468,146.285a4.806,4.806,0,0,0-.049.641,1.306,1.306,0,0,0,.684,1.325H9.466v1.781H2.8v-1.683l.795-.049a1.649,1.649,0,0,1-.918-1.485,1.885,1.885,0,0,1,.08-.555Z"/>
          <path id="Trazado_724108" data-name="Trazado 724108" d="M9.589,142.477a3.272,3.272,0,0,1-.9,2.388,3.2,3.2,0,0,1-2.4.921H6.119a4.037,4.037,0,0,1-1.8-.388,2.85,2.85,0,0,1-1.22-1.1,3.086,3.086,0,0,1-.429-1.624,2.769,2.769,0,0,1,.863-2.154,3.511,3.511,0,0,1,2.446-.786h.728v4.246a1.652,1.652,0,0,0,1.047-.52,1.578,1.578,0,0,0,.395-1.1,1.925,1.925,0,0,0-.746-1.609l.98-.875a2.687,2.687,0,0,1,.885,1.085,3.566,3.566,0,0,1,.317,1.516m-5.479.2a1.112,1.112,0,0,0,.359.859,1.863,1.863,0,0,0,1.028.423v-2.478H5.354a1.328,1.328,0,0,0-.919.321,1.146,1.146,0,0,0-.325.875"/>
          <path id="Trazado_724109" data-name="Trazado 724109" d="M8.153,135.95a1.167,1.167,0,0,0-.271-.8.951.951,0,0,0-.721-.321v-1.67a2.3,2.3,0,0,1,1.242.37,2.44,2.44,0,0,1,.875.995,3.123,3.123,0,0,1,.311,1.4,2.9,2.9,0,0,1-.909,2.256A3.6,3.6,0,0,1,6.169,139H6.052a3.553,3.553,0,0,1-2.459-.819,2.862,2.862,0,0,1-.918-2.249,2.8,2.8,0,0,1,.712-2.006,2.514,2.514,0,0,1,1.894-.768v1.67a1.224,1.224,0,0,0-.845.321,1.189,1.189,0,0,0,.129,1.753,2.622,2.622,0,0,0,1.472.317h.184A2.657,2.657,0,0,0,7.7,136.9a1.084,1.084,0,0,0,.451-.955"/>
          <path id="Trazado_724110" data-name="Trazado 724110" d="M8.788,128.148a2.233,2.233,0,0,1,.8,1.824,2.109,2.109,0,0,1-.616,1.637,2.628,2.628,0,0,1-1.806.575H2.8V130.4H7.111q1.043,0,1.042-.949a1.285,1.285,0,0,0-.629-1.244H2.8v-1.788H9.466V128.1Z"/>
          <path id="Trazado_724111" data-name="Trazado 724111" d="M9.589,122.011a3.272,3.272,0,0,1-.9,2.388,3.2,3.2,0,0,1-2.4.921H6.119a4.023,4.023,0,0,1-1.8-.388,2.85,2.85,0,0,1-1.22-1.1,3.085,3.085,0,0,1-.429-1.624,2.769,2.769,0,0,1,.863-2.154,3.511,3.511,0,0,1,2.446-.786h.728v4.246a1.652,1.652,0,0,0,1.047-.52,1.578,1.578,0,0,0,.395-1.1,1.925,1.925,0,0,0-.746-1.609l.98-.875a2.687,2.687,0,0,1,.885,1.085,3.566,3.566,0,0,1,.317,1.516m-5.479.2a1.112,1.112,0,0,0,.359.859A1.863,1.863,0,0,0,5.5,123.5v-2.478H5.354a1.327,1.327,0,0,0-.919.321,1.146,1.146,0,0,0-.325.875"/>
          <path id="Trazado_724112" data-name="Trazado 724112" d="M2.8,116.618l.77-.055a2.331,2.331,0,0,1-.893-1.917,1.938,1.938,0,0,1,.622-1.578,2.9,2.9,0,0,1,1.861-.53H9.466v1.781H5.192a1.158,1.158,0,0,0-.825.247,1.1,1.1,0,0,0-.256.819,1.226,1.226,0,0,0,.642,1.128H9.466v1.781H2.8Z"/>
          <path id="Trazado_724113" data-name="Trazado 724113" d="M8.153,108.416a1.167,1.167,0,0,0-.271-.8.951.951,0,0,0-.721-.321v-1.67a2.3,2.3,0,0,1,1.242.37,2.44,2.44,0,0,1,.875.995,3.123,3.123,0,0,1,.311,1.4,2.9,2.9,0,0,1-.909,2.256,3.6,3.6,0,0,1-2.511.825H6.052a3.553,3.553,0,0,1-2.459-.819,2.862,2.862,0,0,1-.918-2.249,2.8,2.8,0,0,1,.712-2.006,2.514,2.514,0,0,1,1.894-.768v1.67a1.224,1.224,0,0,0-.845.321,1.189,1.189,0,0,0,.129,1.753,2.622,2.622,0,0,0,1.472.317h.184a2.657,2.657,0,0,0,1.481-.314,1.084,1.084,0,0,0,.451-.955"/>
          <path id="Trazado_724114" data-name="Trazado 724114" d="M1.072,104.62a.873.873,0,0,1-.659-.269,1.154,1.154,0,0,1,0-1.457.875.875,0,0,1,.659-.271.879.879,0,0,1,.666.274,1.143,1.143,0,0,1,0,1.449.879.879,0,0,1-.666.274m8.394-.105H2.8v-1.787H9.466Z"/>
          <path id="Trazado_724115" data-name="Trazado 724115" d="M9.466,97.4a1.994,1.994,0,0,1-.6.179,2.153,2.153,0,0,1,.721,1.682,2.363,2.363,0,0,1-.567,1.624,1.824,1.824,0,0,1-1.43.644,1.888,1.888,0,0,1-1.627-.785,3.9,3.9,0,0,1-.573-2.272V97.65H5.01a1.1,1.1,0,0,0-.739.237.934.934,0,0,0-.278.749,1.063,1.063,0,0,0,.216.705A.733.733,0,0,0,4.8,99.6v1.781a1.8,1.8,0,0,1-1.073-.357,2.37,2.37,0,0,1-.773-1.011,3.683,3.683,0,0,1-.28-1.467,2.909,2.909,0,0,1,.619-1.956,2.166,2.166,0,0,1,1.741-.724h2.89A3.206,3.206,0,0,0,9.361,95.6h.1ZM8.227,98.87a1.534,1.534,0,0,0-.175-.727,1.15,1.15,0,0,0-.472-.493H6.434v.665q0,1.338.924,1.424l.105.006a.711.711,0,0,0,.548-.234.9.9,0,0,0,.216-.641"/>
          <path id="Trazado_724116" data-name="Trazado 724116" d="M4.468,87.605a4.806,4.806,0,0,0-.049.641A1.306,1.306,0,0,0,5.1,89.571H9.466v1.781H2.8V89.669l.795-.049a1.649,1.649,0,0,1-.918-1.485,1.885,1.885,0,0,1,.08-.555Z"/>
          <path id="Trazado_724117" data-name="Trazado 724117" d="M9.589,83.8a3.272,3.272,0,0,1-.9,2.388,3.2,3.2,0,0,1-2.4.921H6.119a4.037,4.037,0,0,1-1.8-.388,2.85,2.85,0,0,1-1.22-1.1,3.085,3.085,0,0,1-.429-1.624,2.769,2.769,0,0,1,.863-2.154,3.511,3.511,0,0,1,2.446-.786h.728V85.3a1.652,1.652,0,0,0,1.047-.52,1.578,1.578,0,0,0,.395-1.1,1.925,1.925,0,0,0-.746-1.609l.98-.875a2.687,2.687,0,0,1,.885,1.085A3.566,3.566,0,0,1,9.589,83.8M4.11,84a1.112,1.112,0,0,0,.359.859,1.863,1.863,0,0,0,1.028.423V82.8H5.354a1.327,1.327,0,0,0-.919.321A1.146,1.146,0,0,0,4.11,84"/>
          <rect id="Rectángulo_351811" data-name="Rectángulo 351811" width="9.466" height="1.787" transform="translate(0 78.164)"/>
          <path id="Trazado_724118" data-name="Trazado 724118" d="M9.466,72.833a1.994,1.994,0,0,1-.6.179,2.153,2.153,0,0,1,.721,1.682,2.363,2.363,0,0,1-.567,1.624,1.824,1.824,0,0,1-1.43.644,1.888,1.888,0,0,1-1.627-.785A3.9,3.9,0,0,1,5.392,73.9v-.819H5.01a1.1,1.1,0,0,0-.739.237.934.934,0,0,0-.278.749,1.063,1.063,0,0,0,.216.705.733.733,0,0,0,.592.256v1.781a1.8,1.8,0,0,1-1.073-.357,2.37,2.37,0,0,1-.773-1.011,3.683,3.683,0,0,1-.28-1.467,2.909,2.909,0,0,1,.619-1.956A2.166,2.166,0,0,1,5.035,71.3h2.89a3.206,3.206,0,0,0,1.436-.265h.1ZM8.227,74.306a1.534,1.534,0,0,0-.175-.727,1.15,1.15,0,0,0-.472-.493H6.434v.665q0,1.338.924,1.424l.105.006a.711.711,0,0,0,.548-.234.9.9,0,0,0,.216-.641"/>
          <path id="Trazado_724119" data-name="Trazado 724119" d="M1.159,67.8H2.8v-1.14H4.105V67.8H7.432a.8.8,0,0,0,.53-.142.705.705,0,0,0,.161-.542,2.824,2.824,0,0,0-.043-.524H9.429a3.634,3.634,0,0,1,.16,1.079A1.7,1.7,0,0,1,7.7,69.58H4.105v.974H2.8V69.58H1.159Z"/>
          <path id="Trazado_724120" data-name="Trazado 724120" d="M1.072,65.679a.873.873,0,0,1-.659-.269,1.154,1.154,0,0,1,0-1.457.875.875,0,0,1,.659-.271.879.879,0,0,1,.666.274,1.143,1.143,0,0,1,0,1.449.879.879,0,0,1-.666.274m8.394-.105H2.8V63.787H9.466Z"/>
          <path id="Trazado_724121" data-name="Trazado 724121" d="M7.29,59.824,2.8,58.585V56.724l6.667,2.25v1.7L2.8,62.924V61.063Z"/>
          <path id="Trazado_724122" data-name="Trazado 724122" d="M9.466,52.17a1.994,1.994,0,0,1-.6.179,2.153,2.153,0,0,1,.721,1.682,2.363,2.363,0,0,1-.567,1.624,1.824,1.824,0,0,1-1.43.644,1.888,1.888,0,0,1-1.627-.785,3.9,3.9,0,0,1-.573-2.272v-.819H5.01a1.1,1.1,0,0,0-.739.237.934.934,0,0,0-.278.749,1.063,1.063,0,0,0,.216.7.733.733,0,0,0,.592.256v1.781a1.8,1.8,0,0,1-1.073-.357,2.37,2.37,0,0,1-.773-1.011,3.683,3.683,0,0,1-.28-1.467,2.909,2.909,0,0,1,.619-1.956,2.166,2.166,0,0,1,1.741-.724h2.89a3.206,3.206,0,0,0,1.436-.265h.1ZM8.227,53.643a1.534,1.534,0,0,0-.175-.727,1.15,1.15,0,0,0-.472-.493H6.434v.665q0,1.338.924,1.424l.105.006a.711.711,0,0,0,.548-.234.9.9,0,0,0,.216-.641"/>
        </g>
      </g>
    </g>
  </g>
</svg>
