<svg xmlns="http://www.w3.org/2000/svg" xmlns:xlink="http://www.w3.org/1999/xlink" width="505" height="299" viewBox="0 0 505 299">
  <defs>
    <clipPath id="clip-path">
      <rect id="Rectángulo_351342" data-name="Rectángulo 351342" width="494.895" height="298" fill="none"/>
    </clipPath>
    <clipPath id="clip-path-3">
      <rect id="Rectángulo_351279" data-name="Rectángulo 351279" width="14.485" height="17.639" transform="translate(248.719 48.267)" fill="none"/>
    </clipPath>
    <clipPath id="clip-path-4">
      <rect id="Rectángulo_351280" data-name="Rectángulo 351280" width="14.541" height="17.549" transform="translate(264.701 48.312)" fill="none"/>
    </clipPath>
    <clipPath id="clip-path-5">
      <rect id="Rectángulo_351293" data-name="Rectángulo 351293" width="3.357" height="24.756" transform="translate(258.604 108.923)" fill="none"/>
    </clipPath>
    <clipPath id="clip-path-6">
      <rect id="Rectángulo_351295" data-name="Rectángulo 351295" width="3.357" height="36.041" transform="translate(271.565 97.638)" fill="none"/>
    </clipPath>
    <clipPath id="clip-path-7">
      <rect id="Rectángulo_351297" data-name="Rectángulo 351297" width="3.357" height="19.288" transform="translate(284.526 114.391)" fill="none"/>
    </clipPath>
    <clipPath id="clip-path-8">
      <rect id="Rectángulo_351299" data-name="Rectángulo 351299" width="3.357" height="27.576" transform="translate(297.487 106.103)" fill="none"/>
    </clipPath>
    <clipPath id="clip-path-9">
      <rect id="Rectángulo_351301" data-name="Rectángulo 351301" width="3.357" height="22.089" transform="translate(310.448 111.59)" fill="none"/>
    </clipPath>
    <clipPath id="clip-path-10">
      <rect id="Rectángulo_351327" data-name="Rectángulo 351327" width="3.479" height="2.462" transform="translate(368 294.198)" fill="none"/>
    </clipPath>
    <clipPath id="clip-path-11">
      <rect id="Rectángulo_351328" data-name="Rectángulo 351328" width="15.863" height="1.675" transform="translate(355.547 295.211)" fill="none"/>
    </clipPath>
    <clipPath id="clip-path-12">
      <rect id="Rectángulo_351329" data-name="Rectángulo 351329" width="11.596" height="1.479" transform="translate(403.315 295.632)" fill="none"/>
    </clipPath>
    <clipPath id="clip-path-13">
      <rect id="Rectángulo_351330" data-name="Rectángulo 351330" width="13.555" height="64.957" transform="translate(385.39 199.838)" fill="none"/>
    </clipPath>
    <clipPath id="clip-path-14">
      <rect id="Rectángulo_351332" data-name="Rectángulo 351332" width="14.532" height="11.5" transform="translate(286.437 284.642)" fill="none"/>
    </clipPath>
    <clipPath id="clip-path-15">
      <rect id="Rectángulo_351333" data-name="Rectángulo 351333" width="9.442" height="7.197" transform="translate(289.278 281.518)" fill="none"/>
    </clipPath>
    <clipPath id="clip-path-16">
      <rect id="Rectángulo_351334" data-name="Rectángulo 351334" width="18.351" height="1.856" transform="translate(244.032 295.299)" fill="none"/>
    </clipPath>
    <clipPath id="clip-path-17">
      <rect id="Rectángulo_351335" data-name="Rectángulo 351335" width="10.974" height="1.383" transform="translate(251.409 291.718)" fill="none"/>
    </clipPath>
    <clipPath id="clip-path-18">
      <rect id="Rectángulo_351336" data-name="Rectángulo 351336" width="25.212" height="28.143" transform="translate(288.876 194.359)" fill="none"/>
    </clipPath>
    <clipPath id="clip-path-19">
      <rect id="Rectángulo_351337" data-name="Rectángulo 351337" width="3.5" height="15.616" transform="translate(83.092 230.252)" fill="none"/>
    </clipPath>
    <clipPath id="clip-path-20">
      <rect id="Rectángulo_351338" data-name="Rectángulo 351338" width="3.923" height="15.463" transform="translate(70.063 252.953)" fill="none"/>
    </clipPath>
    <clipPath id="clip-path-21">
      <rect id="Rectángulo_351339" data-name="Rectángulo 351339" width="7.522" height="13.912" transform="translate(90.077 220.52)" fill="none"/>
    </clipPath>
    <clipPath id="clip-path-22">
      <rect id="Rectángulo_351340" data-name="Rectángulo 351340" width="12.714" height="9.385" transform="translate(76.434 249.473)" fill="none"/>
    </clipPath>
  </defs>
  <g id="Grupo_1008705" data-name="Grupo 1008705" transform="translate(-180 -3700)">
    <rect id="Rectángulo_351058" data-name="Rectángulo 351058" width="505" height="299" transform="translate(180 3700)" fill="none"/>
    <g id="Grupo_1008704" data-name="Grupo 1008704" transform="translate(180 3701)">
      <g id="Grupo_1008703" data-name="Grupo 1008703" clip-path="url(#clip-path)">
        <rect id="Rectángulo_351265" data-name="Rectángulo 351265" width="30.72" height="4.104" transform="translate(314.602 183.971)" fill="#e0e0e0"/>
        <g id="Grupo_1008702" data-name="Grupo 1008702">
          <g id="Grupo_1008701" data-name="Grupo 1008701" clip-path="url(#clip-path)">
            <path id="Trazado_721089" data-name="Trazado 721089" d="M318.787,184.141a9.67,9.67,0,0,1,0,3.845,9.672,9.672,0,0,1,0-3.845" fill="#fafafa"/>
            <path id="Trazado_721090" data-name="Trazado 721090" d="M318.118,184.057a9.677,9.677,0,0,1,0,3.846,9.675,9.675,0,0,1,0-3.846" fill="#fafafa"/>
            <path id="Trazado_721091" data-name="Trazado 721091" d="M342.946,184.141a9.672,9.672,0,0,1,0,3.845,9.67,9.67,0,0,1,0-3.845" fill="#fafafa"/>
            <path id="Trazado_721092" data-name="Trazado 721092" d="M342.278,184.057a9.677,9.677,0,0,1,0,3.846,9.675,9.675,0,0,1,0-3.846" fill="#fafafa"/>
            <path id="Trazado_721093" data-name="Trazado 721093" d="M338.265,186.147c0,.107-3.519.193-7.858.193s-7.858-.086-7.858-.193,3.518-.193,7.858-.193,7.858.086,7.858.193" fill="#fafafa"/>
            <rect id="Rectángulo_351266" data-name="Rectángulo 351266" width="30.72" height="8.208" transform="translate(314.469 202.448)" fill="#e0e0e0"/>
            <path id="Trazado_721094" data-name="Trazado 721094" d="M345.583,208.348a.741.741,0,0,1-.167.1c-.112.058-.284.137-.512.234a8.927,8.927,0,0,1-2.082.6,5.427,5.427,0,0,1-3.38-.48,4.493,4.493,0,0,1-1.6-1.455,3.377,3.377,0,0,1-.559-2.364,2.487,2.487,0,0,1,.565-1.223,1.616,1.616,0,0,1,1.3-.588,1.86,1.86,0,0,1,1.3.7,2.547,2.547,0,0,1,.6,1.4,3.728,3.728,0,0,1-1.059,2.909,4.672,4.672,0,0,1-2.953,1.443,7.836,7.836,0,0,1-3.427-.425,6.326,6.326,0,0,1-2.994-2.012,3.3,3.3,0,0,1-.7-1.773,2.3,2.3,0,0,1,.654-1.844,1.5,1.5,0,0,1,.961-.421,1.755,1.755,0,0,1,1,.283,2.666,2.666,0,0,1,1.13,1.656,3.864,3.864,0,0,1-1.211,3.615,6.046,6.046,0,0,1-3.459,1.408,8.507,8.507,0,0,1-3.585-.353,4.955,4.955,0,0,1-2.728-2.12,3.632,3.632,0,0,1-.341-3.261,1.714,1.714,0,0,1,1.253-1.06,1.978,1.978,0,0,1,1.547.373,2.564,2.564,0,0,1,.732,2.766,4.779,4.779,0,0,1-1.549,2.181,6.967,6.967,0,0,1-4.212,1.636,6.759,6.759,0,0,1-3.338-.758,6.687,6.687,0,0,1-1.74-1.29,4.735,4.735,0,0,1-.368-.427.739.739,0,0,1-.109-.159,7.817,7.817,0,0,0,2.284,1.741,6.678,6.678,0,0,0,3.261.677,6.779,6.779,0,0,0,4.045-1.628,4.517,4.517,0,0,0,1.44-2.058,2.263,2.263,0,0,0-.639-2.425,1.656,1.656,0,0,0-1.291-.305,1.375,1.375,0,0,0-1.005.872,3.3,3.3,0,0,0,.336,2.942,4.6,4.6,0,0,0,2.542,1.954,8.181,8.181,0,0,0,3.425.326,5.683,5.683,0,0,0,3.24-1.316,3.489,3.489,0,0,0,1.094-3.244,2.289,2.289,0,0,0-.958-1.416,1.176,1.176,0,0,0-1.5.091,1.925,1.925,0,0,0-.537,1.538,2.923,2.923,0,0,0,.619,1.57,5.971,5.971,0,0,0,2.811,1.891,7.494,7.494,0,0,0,3.266.421,4.327,4.327,0,0,0,2.746-1.321,3.4,3.4,0,0,0,.989-2.642,1.961,1.961,0,0,0-1.593-1.839,1.324,1.324,0,0,0-1.066.48,2.223,2.223,0,0,0-.51,1.078,3.135,3.135,0,0,0,.5,2.185,4.3,4.3,0,0,0,1.5,1.4,5.326,5.326,0,0,0,3.255.519,9.743,9.743,0,0,0,2.075-.519c.462-.168.7-.272.707-.257" fill="#fafafa"/>
            <rect id="Rectángulo_351267" data-name="Rectángulo 351267" width="27.976" height="14.241" transform="translate(317.213 188.193)" fill="#ebebeb"/>
            <path id="Trazado_721095" data-name="Trazado 721095" d="M321.861,188.682a61.587,61.587,0,0,1,.193,6.892,61.6,61.6,0,0,1-.193,6.893,61.6,61.6,0,0,1-.193-6.893,61.587,61.587,0,0,1,.193-6.892" fill="#e0e0e0"/>
            <path id="Trazado_721096" data-name="Trazado 721096" d="M323.982,188.505a60.034,60.034,0,0,1,.193,6.8,60.02,60.02,0,0,1-.193,6.8,60.02,60.02,0,0,1-.193-6.8,60.034,60.034,0,0,1,.193-6.8" fill="#e0e0e0"/>
            <path id="Trazado_721097" data-name="Trazado 721097" d="M342.026,188.048a66.545,66.545,0,0,1,.193,7.165,66.557,66.557,0,0,1-.193,7.166,66.557,66.557,0,0,1-.193-7.166,66.545,66.545,0,0,1,.193-7.165" fill="#e0e0e0"/>
            <path id="Trazado_721098" data-name="Trazado 721098" d="M339.534,188.24a63.174,63.174,0,0,1,.193,6.98,63.171,63.171,0,0,1-.193,6.981,63.171,63.171,0,0,1-.193-6.981,63.174,63.174,0,0,1,.193-6.98" fill="#e0e0e0"/>
            <rect id="Rectángulo_351268" data-name="Rectángulo 351268" width="188.605" height="125.105" transform="translate(150.644 26.057)" fill="#e0e0e0"/>
            <path id="Trazado_721099" data-name="Trazado 721099" d="M0,35.2A31.957,31.957,0,1,1,32.47,66.782,32.073,32.073,0,0,1,0,35.2m47.231-.763A15.28,15.28,0,1,0,32.2,50.03,15.331,15.331,0,0,0,47.235,34.435" fill="#f5f5f5"/>
            <path id="Trazado_721100" data-name="Trazado 721100" d="M0,35.2A32.073,32.073,0,0,1,31.444,2.582l.268,16.752a15.351,15.351,0,0,0,.49,30.7l.268,16.752A32.062,32.062,0,0,1,0,35.2" fill="#e0e0e0"/>
            <path id="Trazado_721101" data-name="Trazado 721101" d="M28.575,0A36.513,36.513,0,0,1,65.962,36.378l-19.508.314c-.158-9.9-7.692-16.135-17.548-15.976Z" fill="#ebebeb"/>
            <path id="Trazado_721102" data-name="Trazado 721102" d="M152.879,292.68c-.821-.7-2.653-2.936-1.24-5.532a4.927,4.927,0,0,1,2.613-1.841,10.629,10.629,0,0,0,2.866-1.485c1.554-1.322,1.983-3.518,3.014-5.282a6.6,6.6,0,0,1,5.73-3.435c2.674.122,4.9,2.306,5.915,4.8a21.44,21.44,0,0,1,1.067,7.944c.012,1.487-.054,3.164-1.146,4.168-1.007.926-2.522.937-3.886.895l-14.613-.449" fill="#f5f5f5"/>
            <path id="Trazado_721103" data-name="Trazado 721103" d="M180.828,252.5H142.4l6.923,41.279a4.61,4.61,0,0,0,3.281,3.675c.044.014.09.024.135.036.114.03.224.068.342.089a4.889,4.889,0,0,0,.781.09l.007.039.187-.029h17.129a4.859,4.859,0,0,0,.941-.094,4.627,4.627,0,0,0,3.888-4.035l3.337-28.441.151-1.131h-.018L180.8,252.71Zm-7.25,26.331h-3.944l.4-11.98H174.6Zm1.406-11.98h3.776l-1.406,11.98h-3.393Zm-11.267,25.26-.24-10.407h5.68l-.346,10.407Zm-6.14-10.407H163.1l.239,10.407h-4.949ZM158,292.107h-4.626c-.44-2.81-1.012-6.461-1.631-10.407H157.2Zm-.649-13.28-.931-11.98h6.33l.276,11.98Zm6.057,0-.276-11.98h6.515l-.4,11.98Zm-.342-14.853-.256-11.094h7.3l-.369,11.094Zm-.382,0H156.2l-.862-11.094h7.1Zm-6.87,0h-6.864c-.243-1.532-.474-2.983-.682-4.288-.716-4.485-.985-6.172-1.135-6.806h7.819Zm.223,2.873.931,11.98h-5.677c-.191-1.216-.384-2.445-.577-3.676-.445-2.828-.891-5.655-1.31-8.3Zm-5.132,11.98H147.2l-2.009-11.98h3.83c.585,3.7,1.234,7.823,1.887,11.98m.452,2.873c.565,3.6,1.121,7.152,1.631,10.407h-3.564L147.682,281.7Zm17.833,10.407.346-10.407h3.793l-.889,10.407Zm.934-28.133.369-11.094h5.3l-.948,11.094ZM146.773,252.88c.152.8.853,5.167,1.793,11.094h-3.857l-1.861-11.094ZM175.8,292.107h-2.97l.889-10.407h3.3Zm3.3-28.133H175.23l.947-11.094H180.4Z" fill="#e0e0e0"/>
            <rect id="Rectángulo_351269" data-name="Rectángulo 351269" width="8.275" height="33.056" transform="translate(450.655 45.556)" fill="#e0e0e0"/>
            <rect id="Rectángulo_351270" data-name="Rectángulo 351270" width="8.275" height="25.845" transform="translate(462.825 52.767)" fill="#e0e0e0"/>
            <rect id="Rectángulo_351271" data-name="Rectángulo 351271" width="8.275" height="19.942" transform="translate(475.181 58.67)" fill="#e0e0e0"/>
            <rect id="Rectángulo_351272" data-name="Rectángulo 351272" width="8.275" height="11.842" transform="translate(486.62 66.77)" fill="#e0e0e0"/>
            <path id="Trazado_721104" data-name="Trazado 721104" d="M481.58,119.717a28.637,28.637,0,0,0-40.256,1.364A28.222,28.222,0,0,0,442.7,161.1a28.636,28.636,0,0,0,40.256-1.363,28.225,28.225,0,0,0-1.371-40.015m-9.491,29.929a13.692,13.692,0,0,1-19.248.652,13.5,13.5,0,0,1-.656-19.132,13.694,13.694,0,0,1,19.249-.651,13.493,13.493,0,0,1,.655,19.131" fill="#f5f5f5"/>
            <path id="Trazado_721105" data-name="Trazado 721105" d="M441.324,121.081a28.637,28.637,0,0,1,40.256-1.363l-10.146,10.8a13.692,13.692,0,0,0-19.248.651,13.494,13.494,0,0,0,.655,19.132L442.7,161.1a28.222,28.222,0,0,1-1.371-40.014" fill="#ebebeb"/>
            <path id="Trazado_721106" data-name="Trazado 721106" d="M480.417,115.091c14.059,13.054,15.742,34.275,2.609,48.25l-14.262-12.355c6.279-6.682,7.643-15.6.922-21.845Z" fill="#fafafa"/>
            <path id="Trazado_721107" data-name="Trazado 721107" d="M172.728,189.28H96.746a2.36,2.36,0,0,1-2.36-2.36V168.909a2.361,2.361,0,0,1,2.36-2.36h75.982a2.36,2.36,0,0,1,2.36,2.36V186.92a2.36,2.36,0,0,1-2.36,2.36" fill="#e0e0e0"/>
            <path id="Trazado_721108" data-name="Trazado 721108" d="M111.4,181.705a4.9,4.9,0,0,1-6.913.764,4.957,4.957,0,0,1-.76-6.945,4.9,4.9,0,0,1,6.913-.764,4.956,4.956,0,0,1,.76,6.945" fill="#f5f5f5"/>
            <path id="Trazado_721109" data-name="Trazado 721109" d="M110.325,176.938a20,20,0,0,1-2.644,2.857l-.65.629-.133.129-.128-.13a13.926,13.926,0,0,1-1.973-2.245,13.841,13.841,0,0,1,2.236,1.984l-.261,0,.643-.637a20.018,20.018,0,0,1,2.91-2.585" fill="#e0e0e0"/>
            <path id="Trazado_721110" data-name="Trazado 721110" d="M167.144,176.175c0,.1-10.832.19-24.19.19s-24.193-.085-24.193-.19,10.829-.19,24.193-.19,24.19.085,24.19.19" fill="#fafafa"/>
            <path id="Trazado_721111" data-name="Trazado 721111" d="M167.357,180.292c0,.1-10.832.19-24.19.19s-24.193-.085-24.193-.19,10.829-.19,24.193-.19,24.19.085,24.19.19" fill="#fafafa"/>
            <path id="Trazado_721112" data-name="Trazado 721112" d="M422.207,183.288,420.73,298h66V184.852Z" fill="#f5f5f5"/>
            <path id="Trazado_721113" data-name="Trazado 721113" d="M457.763,184.15,457.178,298h29.55V184.852Z" fill="#e0e0e0"/>
            <path id="Trazado_721114" data-name="Trazado 721114" d="M424.281,185.353v23.463h31.262V186.461Z" fill="#e0e0e0"/>
            <path id="Trazado_721115" data-name="Trazado 721115" d="M435.059,191.807v3.466h9.565v-3.781Z" fill="#f5f5f5"/>
            <rect id="Rectángulo_351273" data-name="Rectángulo 351273" width="9.878" height="1.418" transform="translate(435.059 198.187)" fill="#f5f5f5"/>
            <path id="Trazado_721116" data-name="Trazado 721116" d="M424.281,267.571v23.463h31.262V268.68Z" fill="#e0e0e0"/>
            <path id="Trazado_721117" data-name="Trazado 721117" d="M435.059,274.026v3.466h9.565v-3.781Z" fill="#f5f5f5"/>
            <rect id="Rectángulo_351274" data-name="Rectángulo 351274" width="9.878" height="1.418" transform="translate(435.059 280.406)" fill="#f5f5f5"/>
            <path id="Trazado_721118" data-name="Trazado 721118" d="M424.281,211.8v23.463h31.262V212.911Z" fill="#e0e0e0"/>
            <path id="Trazado_721119" data-name="Trazado 721119" d="M435.059,218.257v3.466h9.565v-3.781Z" fill="#f5f5f5"/>
            <rect id="Rectángulo_351275" data-name="Rectángulo 351275" width="9.878" height="1.418" transform="translate(435.059 224.637)" fill="#f5f5f5"/>
            <rect id="Rectángulo_351276" data-name="Rectángulo 351276" width="31.262" height="23.463" transform="translate(423.874 239.895)" fill="#e0e0e0"/>
            <path id="Trazado_721120" data-name="Trazado 721120" d="M434.862,250.469v3.258h8.99v-3.554Z" fill="#f5f5f5"/>
            <rect id="Rectángulo_351277" data-name="Rectángulo 351277" width="9.285" height="1.333" transform="translate(434.862 256.466)" fill="#f5f5f5"/>
            <path id="Trazado_721121" data-name="Trazado 721121" d="M489.209,297.005c0,.1-108.212.19-241.667.19-133.5,0-241.69-.085-241.69-.19s108.189-.19,241.69-.19c133.455,0,241.667.085,241.667.19" fill="#263238"/>
            <rect id="Rectángulo_351278" data-name="Rectángulo 351278" width="195.322" height="128.115" transform="translate(139.337 29.197)" fill="#fafafa"/>
            <path id="Trazado_721122" data-name="Trazado 721122" d="M334.659,157.312c0-1.233-.059-49.976-.151-128.115l.151.152-195.306.039h-.016l.191-.191c-.006,45.562-.011,88.92-.016,128.115l-.175-.175,195.322.175-195.322.175h-.174v-.175c0-39.195-.01-82.553-.016-128.115v-.19h.206l195.306.039h.151V29.2c-.092,78.139-.15,126.882-.151,128.115" fill="#263238"/>
            <path id="Trazado_721123" data-name="Trazado 721123" d="M199.03,99.946l19.212.265a19.128,19.128,0,0,1-19.212,18.582h-.113Z" fill="#455a64"/>
            <path id="Trazado_721124" data-name="Trazado 721124" d="M230.8,125.958a1.924,1.924,0,0,1-.411.033l-1.174.031-4.293.049h-.054l-.035-.044-6.338-7.985-5.109-6.514.1.048-5.654-.053-1.581-.035a3.106,3.106,0,0,1-.559-.038,2.922,2.922,0,0,1,.559-.039l1.581-.035,5.654-.052h.061l.038.049,5.143,6.488,6.284,8.027-.089-.043,4.293.049,1.174.031a1.924,1.924,0,0,1,.411.033" fill="#263238"/>
            <path id="Trazado_721125" data-name="Trazado 721125" d="M237.688,128.173c0,.081-2.784.147-6.217.147s-6.216-.066-6.216-.147,2.783-.147,6.216-.147,6.217.066,6.217.147" fill="#263238"/>
            <path id="Trazado_721126" data-name="Trazado 721126" d="M237.688,130.475c0,.081-2.784.147-6.217.147s-6.216-.066-6.216-.147,2.783-.147,6.216-.147,6.217.066,6.217.147" fill="#263238"/>
            <path id="Trazado_721127" data-name="Trazado 721127" d="M195.991,97.212l-.27,18.845A18.853,18.853,0,1,1,215.2,97.212Z" fill="#755edf"/>
            <path id="Trazado_721128" data-name="Trazado 721128" d="M188.49,91.048a1.245,1.245,0,0,1-.334.078l-.955.153-3.451.484-.057.008-.043-.041-4.6-4.479c-2.212-2.169-4.2-4.144-5.632-5.584l-1.683-1.717a5.035,5.035,0,0,1-.589-.658,5.182,5.182,0,0,1,.669.576l1.749,1.65c1.467,1.4,3.481,3.354,5.692,5.523l4.566,4.516-.1-.033,3.464-.382.963-.088a1.252,1.252,0,0,1,.343-.006" fill="#263238"/>
            <path id="Trazado_721129" data-name="Trazado 721129" d="M166.277,78.463c0,.081-2.783.147-6.216.147s-6.216-.066-6.216-.147,2.783-.147,6.216-.147,6.216.066,6.216.147" fill="#263238"/>
            <path id="Trazado_721130" data-name="Trazado 721130" d="M166.277,80.764c0,.081-2.783.147-6.216.147s-6.216-.066-6.216-.147,2.783-.147,6.216-.147,6.216.066,6.216.147" fill="#263238"/>
            <path id="Trazado_721131" data-name="Trazado 721131" d="M263.2,59.979l-.076-11.711a14.948,14.948,0,0,0-9.662,3.767,13.851,13.851,0,0,0-4.656,12.129,16.769,16.769,0,0,0,.273,1.7l.008.041h0L263.2,62.731Z" fill="#755edf"/>
            <g id="Grupo_1008643" data-name="Grupo 1008643" opacity="0.3">
              <g id="Grupo_1008642" data-name="Grupo 1008642">
                <g id="Grupo_1008641" data-name="Grupo 1008641" clip-path="url(#clip-path-3)">
                  <path id="Trazado_721132" data-name="Trazado 721132" d="M263.2,59.979l-.076-11.711a14.948,14.948,0,0,0-9.662,3.767,13.851,13.851,0,0,0-4.656,12.129,16.769,16.769,0,0,0,.273,1.7l.008.041h0L263.2,62.731Z" fill="#fff"/>
                </g>
              </g>
            </g>
            <path id="Trazado_721133" data-name="Trazado 721133" d="M277.748,56.373A13.891,13.891,0,0,0,266.359,48.4c-.148-.015-.3-.029-.447-.04-.1-.006-.189-.016-.285-.021-.279-.015-.563-.023-.85-.025H264.7v0l.076,11.711.018,2.753,14.116,3.079.017,0a13.92,13.92,0,0,0,.313-3.036,15.2,15.2,0,0,0-1.493-6.452" fill="#755edf"/>
            <g id="Grupo_1008646" data-name="Grupo 1008646" opacity="0.3">
              <g id="Grupo_1008645" data-name="Grupo 1008645">
                <g id="Grupo_1008644" data-name="Grupo 1008644" clip-path="url(#clip-path-4)">
                  <path id="Trazado_721134" data-name="Trazado 721134" d="M277.748,56.373A13.891,13.891,0,0,0,266.359,48.4c-.148-.015-.3-.029-.447-.04-.1-.006-.189-.016-.285-.021-.279-.015-.563-.023-.85-.025H264.7v0l.076,11.711.018,2.753,14.116,3.079.017,0a13.92,13.92,0,0,0,.313-3.036,15.2,15.2,0,0,0-1.493-6.452"/>
                </g>
              </g>
            </g>
            <path id="Trazado_721135" data-name="Trazado 721135" d="M263.961,64.193,249.85,67.368a14.464,14.464,0,0,0,28.244-.095l-14.115-3.08" fill="#755edf"/>
            <path id="Trazado_721136" data-name="Trazado 721136" d="M318.89,62.084c0,.1-7.3.19-16.294.19s-16.3-.085-16.3-.19,7.294-.19,16.3-.19,16.294.085,16.294.19" fill="#263238"/>
            <path id="Trazado_721137" data-name="Trazado 721137" d="M318.89,58.369c0,.1-7.3.19-16.294.19s-16.3-.085-16.3-.19,7.294-.19,16.3-.19,16.294.085,16.294.19" fill="#263238"/>
            <path id="Trazado_721138" data-name="Trazado 721138" d="M318.89,54.655c0,.1-7.3.19-16.294.19s-16.3-.085-16.3-.19,7.294-.19,16.3-.19,16.294.085,16.294.19" fill="#263238"/>
            <path id="Trazado_721139" data-name="Trazado 721139" d="M318.89,65.54c0,.1-7.3.19-16.294.19s-16.3-.085-16.3-.19,7.294-.19,16.3-.19,16.294.085,16.294.19" fill="#263238"/>
            <path id="Trazado_721140" data-name="Trazado 721140" d="M308.8,69.3c0,.1-5.011.19-11.191.19s-11.192-.085-11.192-.19,5.01-.19,11.192-.19,11.191.085,11.191.19" fill="#263238"/>
            <rect id="Rectángulo_351281" data-name="Rectángulo 351281" width="3.357" height="37.488" transform="translate(252.124 96.191)" fill="#755edf"/>
            <rect id="Rectángulo_351282" data-name="Rectángulo 351282" width="3.357" height="24.756" transform="translate(258.604 108.923)" fill="#755edf"/>
            <rect id="Rectángulo_351283" data-name="Rectángulo 351283" width="3.357" height="33.019" transform="translate(265.085 100.85)" fill="#755edf"/>
            <rect id="Rectángulo_351284" data-name="Rectángulo 351284" width="3.357" height="36.041" transform="translate(271.565 97.638)" fill="#755edf"/>
            <rect id="Rectángulo_351285" data-name="Rectángulo 351285" width="3.357" height="23.994" transform="translate(278.046 109.685)" fill="#755edf"/>
            <rect id="Rectángulo_351286" data-name="Rectángulo 351286" width="3.357" height="19.288" transform="translate(284.526 114.391)" fill="#755edf"/>
            <rect id="Rectángulo_351287" data-name="Rectángulo 351287" width="3.357" height="33.641" transform="translate(291.007 100.038)" fill="#755edf"/>
            <rect id="Rectángulo_351288" data-name="Rectángulo 351288" width="3.357" height="27.575" transform="translate(297.487 106.104)" fill="#755edf"/>
            <rect id="Rectángulo_351289" data-name="Rectángulo 351289" width="3.357" height="32.422" transform="translate(303.968 101.257)" fill="#755edf"/>
            <rect id="Rectángulo_351290" data-name="Rectángulo 351290" width="3.357" height="22.089" transform="translate(310.448 111.59)" fill="#755edf"/>
            <rect id="Rectángulo_351291" data-name="Rectángulo 351291" width="3.357" height="26.292" transform="translate(316.929 107.387)" fill="#755edf"/>
            <path id="Trazado_721141" data-name="Trazado 721141" d="M321.656,136.29c0,.076-15.922.138-35.559.138s-35.562-.062-35.562-.138,15.919-.138,35.562-.138,35.559.062,35.559.138" fill="#263238"/>
            <path id="Trazado_721142" data-name="Trazado 721142" d="M256.912,139.24a22.551,22.551,0,0,1-4.982,0,22.713,22.713,0,0,1,4.982,0" fill="#263238"/>
            <path id="Trazado_721143" data-name="Trazado 721143" d="M265.175,139.391a32.179,32.179,0,0,1-5.954,0,32.179,32.179,0,0,1,5.954,0" fill="#263238"/>
            <path id="Trazado_721144" data-name="Trazado 721144" d="M272.223,139.391a32.179,32.179,0,0,1-5.954,0,32.179,32.179,0,0,1,5.954,0" fill="#263238"/>
            <path id="Trazado_721145" data-name="Trazado 721145" d="M279.271,139.391a32.18,32.18,0,0,1-5.954,0,32.18,32.18,0,0,1,5.954,0" fill="#263238"/>
            <path id="Trazado_721146" data-name="Trazado 721146" d="M286.319,139.391a32.18,32.18,0,0,1-5.954,0,32.18,32.18,0,0,1,5.954,0" fill="#263238"/>
            <path id="Trazado_721147" data-name="Trazado 721147" d="M293.366,139.391a32.18,32.18,0,0,1-5.954,0,32.18,32.18,0,0,1,5.954,0" fill="#263238"/>
            <path id="Trazado_721148" data-name="Trazado 721148" d="M300.414,139.391a32.18,32.18,0,0,1-5.954,0,32.18,32.18,0,0,1,5.954,0" fill="#263238"/>
            <path id="Trazado_721149" data-name="Trazado 721149" d="M307.462,139.391a32.18,32.18,0,0,1-5.954,0,32.18,32.18,0,0,1,5.954,0" fill="#263238"/>
            <path id="Trazado_721150" data-name="Trazado 721150" d="M314.51,139.391a32.18,32.18,0,0,1-5.954,0,32.18,32.18,0,0,1,5.954,0" fill="#263238"/>
            <path id="Trazado_721151" data-name="Trazado 721151" d="M321.558,139.391a32.18,32.18,0,0,1-5.954,0,32.18,32.18,0,0,1,5.954,0" fill="#263238"/>
            <g id="Grupo_1008649" data-name="Grupo 1008649" opacity="0.3">
              <g id="Grupo_1008648" data-name="Grupo 1008648">
                <g id="Grupo_1008647" data-name="Grupo 1008647" clip-path="url(#clip-path-5)">
                  <rect id="Rectángulo_351292" data-name="Rectángulo 351292" width="3.357" height="24.756" transform="translate(258.604 108.923)" fill="#fff"/>
                </g>
              </g>
            </g>
            <g id="Grupo_1008652" data-name="Grupo 1008652" opacity="0.3">
              <g id="Grupo_1008651" data-name="Grupo 1008651">
                <g id="Grupo_1008650" data-name="Grupo 1008650" clip-path="url(#clip-path-6)">
                  <rect id="Rectángulo_351294" data-name="Rectángulo 351294" width="3.357" height="36.041" transform="translate(271.565 97.638)" fill="#fff"/>
                </g>
              </g>
            </g>
            <g id="Grupo_1008655" data-name="Grupo 1008655" opacity="0.3">
              <g id="Grupo_1008654" data-name="Grupo 1008654">
                <g id="Grupo_1008653" data-name="Grupo 1008653" clip-path="url(#clip-path-7)">
                  <rect id="Rectángulo_351296" data-name="Rectángulo 351296" width="3.357" height="19.288" transform="translate(284.526 114.391)" fill="#fff"/>
                </g>
              </g>
            </g>
            <g id="Grupo_1008658" data-name="Grupo 1008658" opacity="0.3">
              <g id="Grupo_1008657" data-name="Grupo 1008657">
                <g id="Grupo_1008656" data-name="Grupo 1008656" clip-path="url(#clip-path-8)">
                  <rect id="Rectángulo_351298" data-name="Rectángulo 351298" width="3.357" height="27.575" transform="translate(297.487 106.104)" fill="#fff"/>
                </g>
              </g>
            </g>
            <g id="Grupo_1008661" data-name="Grupo 1008661" opacity="0.3">
              <g id="Grupo_1008660" data-name="Grupo 1008660">
                <g id="Grupo_1008659" data-name="Grupo 1008659" clip-path="url(#clip-path-9)">
                  <rect id="Rectángulo_351300" data-name="Rectángulo 351300" width="3.357" height="22.089" transform="translate(310.448 111.59)" fill="#fff"/>
                </g>
              </g>
            </g>
            <path id="Trazado_721152" data-name="Trazado 721152" d="M163.068,53.277a3.231,3.231,0,1,1-3.231-3.23,3.231,3.231,0,0,1,3.231,3.23" fill="#755edf"/>
            <path id="Trazado_721153" data-name="Trazado 721153" d="M218.617,50.729c0,.1-10.894.19-24.33.19s-24.332-.085-24.332-.19,10.892-.19,24.332-.19,24.33.085,24.33.19" fill="#755edf"/>
            <path id="Trazado_721154" data-name="Trazado 721154" d="M189.491,54.636a2.939,2.939,0,0,1-.754.074c-.485.023-1.187.043-2.055.061-1.736.034-4.133.055-6.781.055s-5.047-.021-6.782-.055c-.868-.018-1.57-.038-2.055-.061a2.939,2.939,0,0,1-.754-.074,2.939,2.939,0,0,1,.754-.074c.485-.023,1.187-.043,2.055-.061,1.735-.034,4.133-.055,6.782-.055s5.045.021,6.781.055c.868.018,1.57.038,2.055.061a2.939,2.939,0,0,1,.754.074" fill="#755edf"/>
            <rect id="Rectángulo_351302" data-name="Rectángulo 351302" width="102.226" height="116.667" transform="translate(33.133 40.795)" fill="#fafafa"/>
            <path id="Trazado_721155" data-name="Trazado 721155" d="M135.359,157.462s-.006-.19-.01-.555-.005-.91-.009-1.621c0-1.432-.011-3.545-.02-6.3-.01-5.508-.025-13.568-.044-23.8-.021-20.455-.05-49.6-.085-84.39l.168.168-102.215.022h-.011l.191-.19c-.011,43.013-.021,83.124-.03,116.667l-.161-.161,74.146.083,20.731.042,5.464.018c1.238.006,1.885.018,1.885.018s-.624.012-1.85.018l-5.434.018-20.694.042-74.248.083h-.16v-.161c-.009-33.543-.019-73.654-.03-116.667V40.6h.2l102.215.022h.168v.168c-.035,34.834-.064,64.017-.085,84.5-.019,10.22-.034,18.267-.044,23.766-.009,2.738-.015,4.84-.02,6.265q-.006,1.054-.009,1.6c0,.359-.01.536-.01.536" fill="#263238"/>
            <path id="Trazado_721156" data-name="Trazado 721156" d="M126.572,100.366c-.034.07-1.133-.567-3.287-1.249a21.148,21.148,0,0,0-9.428-.7,20.615,20.615,0,0,0-6.217,2,29.324,29.324,0,0,0-6.114,4.4c-2,1.769-3.994,3.778-6.289,5.635a21.71,21.71,0,0,1-8.029,4.345,12.122,12.122,0,0,1-4.687.282,15.171,15.171,0,0,1-4.345-1.341,75.9,75.9,0,0,1-7.274-4.326,22.707,22.707,0,0,0-6.843-3.068,20.32,20.32,0,0,0-6.51-.5,20.982,20.982,0,0,0-8.986,2.925c-1.927,1.179-2.837,2.065-2.889,2a4.509,4.509,0,0,1,.653-.642,15.634,15.634,0,0,1,2.092-1.591,20.5,20.5,0,0,1,15.775-2.759,23.035,23.035,0,0,1,7.044,3.081,77.815,77.815,0,0,0,7.227,4.255,12.377,12.377,0,0,0,8.572,1,21.219,21.219,0,0,0,7.772-4.2c2.258-1.815,4.257-3.811,6.292-5.584a29.409,29.409,0,0,1,6.278-4.43,20.818,20.818,0,0,1,15.99-1.04,16.526,16.526,0,0,1,2.415,1.039,4.584,4.584,0,0,1,.788.468" fill="#755edf"/>
            <rect id="Rectángulo_351303" data-name="Rectángulo 351303" width="8.691" height="23.505" transform="translate(61.271 116.035)" fill="#755edf"/>
            <rect id="Rectángulo_351304" data-name="Rectángulo 351304" width="8.691" height="23.505" transform="translate(98.149 116.035)" fill="#755edf"/>
            <rect id="Rectángulo_351305" data-name="Rectángulo 351305" width="8.691" height="37.308" transform="translate(110.442 102.232)" fill="#755edf"/>
            <rect id="Rectángulo_351306" data-name="Rectángulo 351306" width="8.691" height="7.91" transform="translate(50.024 132.142)" fill="#755edf"/>
            <rect id="Rectángulo_351307" data-name="Rectángulo 351307" width="8.691" height="12.891" transform="translate(73.563 126.649)" fill="#755edf"/>
            <rect id="Rectángulo_351308" data-name="Rectángulo 351308" width="8.691" height="15.85" transform="translate(85.856 123.69)" fill="#755edf"/>
            <path id="Trazado_721157" data-name="Trazado 721157" d="M70.312,142.311c0,.193-2.1.349-4.695.349s-4.7-.156-4.7-.349,2.1-.349,4.7-.349,4.695.156,4.695.349" fill="#263238"/>
            <path id="Trazado_721158" data-name="Trazado 721158" d="M59.5,142.311c0,.193-2.1.349-4.7.349s-4.7-.156-4.7-.349,2.1-.349,4.7-.349,4.7.156,4.7.349" fill="#263238"/>
            <path id="Trazado_721159" data-name="Trazado 721159" d="M120.845,142.311c0,.193-2.377.349-5.308.349s-5.307-.156-5.307-.349,2.375-.349,5.307-.349,5.308.156,5.308.349" fill="#263238"/>
            <path id="Trazado_721160" data-name="Trazado 721160" d="M107.934,142.311c0,.193-2.377.349-5.308.349s-5.308-.156-5.308-.349,2.376-.349,5.308-.349,5.308.156,5.308.349" fill="#263238"/>
            <path id="Trazado_721161" data-name="Trazado 721161" d="M94.547,142.311c0,.193-2.1.35-4.695.35s-4.7-.157-4.7-.35,2.1-.349,4.7-.349,4.695.156,4.695.349" fill="#263238"/>
            <path id="Trazado_721162" data-name="Trazado 721162" d="M81.846,142.311c0,.193-2.1.35-4.695.35s-4.7-.157-4.7-.35,2.1-.349,4.7-.349,4.695.156,4.695.349" fill="#263238"/>
            <rect id="Rectángulo_351309" data-name="Rectángulo 351309" width="71.026" height="29.496" transform="translate(49.819 57.803)" fill="#e0e0e0"/>
            <path id="Trazado_721163" data-name="Trazado 721163" d="M64.576,67.125a3.311,3.311,0,1,1-3.312-3.311,3.311,3.311,0,0,1,3.312,3.311" fill="#263238"/>
            <rect id="Rectángulo_351310" data-name="Rectángulo 351310" width="23.071" height="1.281" transform="translate(67.886 64.838)" fill="#263238"/>
            <rect id="Rectángulo_351311" data-name="Rectángulo 351311" width="44.88" height="1.281" transform="translate(67.887 67.749)" fill="#fff"/>
            <path id="Trazado_721164" data-name="Trazado 721164" d="M64.576,77.305a3.311,3.311,0,1,1-3.312-3.311,3.311,3.311,0,0,1,3.312,3.311" fill="#755edf"/>
            <rect id="Rectángulo_351312" data-name="Rectángulo 351312" width="11.781" height="1.281" transform="translate(67.887 75.018)" fill="#755edf"/>
            <rect id="Rectángulo_351313" data-name="Rectángulo 351313" width="44.88" height="1.281" transform="translate(67.887 77.929)" fill="#fff"/>
            <rect id="Rectángulo_351314" data-name="Rectángulo 351314" width="112.256" height="128.115" transform="translate(344.242 19.851)" fill="#fafafa"/>
            <path id="Trazado_721165" data-name="Trazado 721165" d="M456.5,147.967s-.006-.208-.01-.608-.005-1-.009-1.78c-.005-1.57-.011-3.891-.02-6.913-.01-6.047-.025-14.9-.044-26.138-.021-22.462-.05-54.47-.085-92.676l.168.168-112.245.023h-.011l.19-.191c-.011,47.234-.021,91.281-.029,128.115l-.161-.161,81.426.083,22.763.042,6,.018c1.358.006,2.068.018,2.068.018s-.686.012-2.034.018L448.5,148l-22.727.042-81.528.083h-.161v-.161c-.008-36.834-.018-80.881-.029-128.115v-.19h.2l112.245.022h.168v.168c-.035,38.25-.064,70.3-.085,92.785-.019,11.224-.034,20.061-.044,26.1-.009,3.007-.015,5.316-.02,6.88q-.006,1.159-.009,1.761c0,.394-.01.589-.01.589" fill="#263238"/>
            <rect id="Rectángulo_351315" data-name="Rectángulo 351315" width="90.939" height="72.951" transform="translate(353.222 30.095)" fill="#e0e0e0"/>
            <rect id="Rectángulo_351316" data-name="Rectángulo 351316" width="2.985" height="0.86" transform="translate(359.577 90.076)" fill="#263238"/>
            <rect id="Rectángulo_351317" data-name="Rectángulo 351317" width="3.817" height="0.86" transform="translate(366.33 94.674)" fill="#263238"/>
            <rect id="Rectángulo_351318" data-name="Rectángulo 351318" width="3.817" height="0.86" transform="translate(379.616 94.674)" fill="#263238"/>
            <rect id="Rectángulo_351319" data-name="Rectángulo 351319" width="3.817" height="0.86" transform="translate(392.903 94.674)" fill="#263238"/>
            <rect id="Rectángulo_351320" data-name="Rectángulo 351320" width="3.817" height="0.86" transform="translate(406.19 94.674)" fill="#263238"/>
            <rect id="Rectángulo_351321" data-name="Rectángulo 351321" width="3.817" height="0.86" transform="translate(419.477 94.674)" fill="#263238"/>
            <rect id="Rectángulo_351322" data-name="Rectángulo 351322" width="3.817" height="0.86" transform="translate(432.764 94.674)" fill="#263238"/>
            <rect id="Rectángulo_351323" data-name="Rectángulo 351323" width="2.985" height="0.86" transform="translate(359.577 78.589)" fill="#263238"/>
            <rect id="Rectángulo_351324" data-name="Rectángulo 351324" width="2.985" height="0.86" transform="translate(359.577 56.97)" fill="#263238"/>
            <rect id="Rectángulo_351325" data-name="Rectángulo 351325" width="2.985" height="0.86" transform="translate(359.577 46.106)" fill="#263238"/>
            <rect id="Rectángulo_351326" data-name="Rectángulo 351326" width="2.985" height="0.86" transform="translate(359.729 67.78)" fill="#263238"/>
            <path id="Trazado_721166" data-name="Trazado 721166" d="M436.474,90.936a1.911,1.911,0,0,1-.32.019l-.939.019-3.611.036-13.282.061-43.819.055-10.384,0h-.188v-.188c.025-14.648.048-27.539.064-36.79.024-4.6.043-8.3.056-10.864.014-1.258.025-2.238.033-2.924.007-.32.013-.57.017-.757a1.5,1.5,0,0,1,.017-.257,1.408,1.408,0,0,1,.018.257c0,.187.01.437.017.757.007.686.018,1.666.032,2.924.014,2.566.033,6.262.057,10.864.016,9.251.038,22.142.064,36.79l-.188-.188,10.384,0,43.819.055,13.282.061,3.611.036.939.019a1.911,1.911,0,0,1,.32.019" fill="#263238"/>
            <path id="Trazado_721167" data-name="Trazado 721167" d="M437.315,68.21c0,.105-15.741.19-35.154.19s-35.156-.085-35.156-.19,15.738-.19,35.156-.19,35.154.085,35.154.19" fill="#263238"/>
            <path id="Trazado_721168" data-name="Trazado 721168" d="M437.315,57.4c0,.1-15.741.19-35.154.19s-35.156-.085-35.156-.19,15.738-.19,35.156-.19,35.154.085,35.154.19" fill="#263238"/>
            <path id="Trazado_721169" data-name="Trazado 721169" d="M437.315,46.536c0,.1-15.741.19-35.154.19s-35.156-.085-35.156-.19,15.738-.19,35.156-.19,35.154.085,35.154.19" fill="#263238"/>
            <path id="Trazado_721170" data-name="Trazado 721170" d="M437.315,79.019c0,.105-15.741.19-35.154.19s-35.156-.085-35.156-.19,15.738-.19,35.156-.19,35.154.085,35.154.19" fill="#263238"/>
            <path id="Trazado_721171" data-name="Trazado 721171" d="M367.731,88.61V79.019l5.978-9.28,4.056,3.113,8.326-12.933L391,63.377l6.832-11.931,5.55,4.522,8.326-15.827,8.967,17.689,7.259-8.851,8.539-2.443V88.61Z" fill="#455a64"/>
            <path id="Trazado_721172" data-name="Trazado 721172" d="M437.315,43.13a.6.6,0,0,1-.151.015l-.445.014-1.733.027-6.552.05.083-.041L421.5,52.38l-.043.058h-.076l-17.58.033.156-.089c-2.314,3.853-4.809,8.009-7.389,12.307-2.519,4.184-4.956,8.234-7.258,12.06l-.143.237-.162-.223c-3.471-4.777-6.681-9.194-9.518-13.1l.256-.008-8.7,13.526-2.433,3.736-.647.973c-.148.219-.236.325-.236.325s.06-.123.2-.35c.148-.243.35-.575.609-1,.555-.889,1.35-2.163,2.361-3.781l8.59-13.6.122-.193.133.185c2.851,3.9,6.077,8.3,9.564,13.066l-.3.013,7.246-12.068c2.585-4.294,5.085-8.448,7.4-12.3l.055-.089h.1l17.58.032-.118.059,7.082-9.13.033-.042h.052l6.552.05,1.733.027.445.014a.6.6,0,0,1,.151.015" fill="#755edf"/>
            <path id="Trazado_721173" data-name="Trazado 721173" d="M382.5,66.646a.675.675,0,1,1-.674-.649.662.662,0,0,1,.674.649" fill="#755edf"/>
            <path id="Trazado_721174" data-name="Trazado 721174" d="M402.777,55.12a.675.675,0,1,1-.675-.649.662.662,0,0,1,.675.649" fill="#755edf"/>
            <path id="Trazado_721175" data-name="Trazado 721175" d="M418.541,52.288a.675.675,0,1,1-.675-.649.662.662,0,0,1,.675.649" fill="#755edf"/>
            <path id="Trazado_721176" data-name="Trazado 721176" d="M440.063,113.891c0,.106-19.189.19-42.855.19s-42.859-.084-42.859-.19,19.185-.189,42.859-.189,42.855.084,42.855.189" fill="#263238"/>
            <path id="Trazado_721177" data-name="Trazado 721177" d="M440.063,118.525c0,.1-19.189.19-42.855.19s-42.859-.085-42.859-.19,19.185-.19,42.859-.19,42.855.085,42.855.19" fill="#263238"/>
            <path id="Trazado_721178" data-name="Trazado 721178" d="M440.063,123.159c0,.105-19.189.19-42.855.19s-42.859-.085-42.859-.19,19.185-.19,42.859-.19,42.855.085,42.855.19" fill="#263238"/>
            <path id="Trazado_721179" data-name="Trazado 721179" d="M440.063,127.793c0,.105-19.189.19-42.855.19s-42.859-.085-42.859-.19,19.185-.19,42.859-.19,42.855.085,42.855.19" fill="#263238"/>
            <path id="Trazado_721180" data-name="Trazado 721180" d="M406.215,125.974c2.345-3.937,3.029-9.187,3.632-13.73.284-2.137.781-5.18-.719-6.523-1.607-1.437-1.755-3.647-3.6-4.758a5.686,5.686,0,0,0-6.108.05" fill="#263238"/>
            <path id="Trazado_721181" data-name="Trazado 721181" d="M399.708,139.923h0a6.328,6.328,0,0,1-6.807-6.067c-.132-3.444-.248-6.926-.248-6.926s-5.219-.489-5.6-5.655-.206-17.09-.206-17.09a18,18,0,0,1,18.19,1.17l-.321,18.179v9.781c-.035,3.28-1.74,6.357-5.011,6.608" fill="#ffbe9d"/>
            <path id="Trazado_721182" data-name="Trazado 721182" d="M392.2,114.969a2.648,2.648,0,0,1,3.53-.771,3,3,0,0,1,1,3.754,3.957,3.957,0,0,1-2.534,1.916A1.983,1.983,0,0,0,392.647,122c.148,1.3,2.3,1.784,3.279,2.857,1.514,1.669,4.837,2.375,7.074,2.64,2.2.26,1.935.281,3.215-1.527a6.937,6.937,0,0,0,1.256-4.194l.237-11.425a16.344,16.344,0,0,0-.261-4.1,5.5,5.5,0,0,0-2.162-3.39c-1.256-.827-2.848-.9-4.279-1.36a35.422,35.422,0,0,1-4.982-2.621c-1.674-.857-3.726-1.368-5.406-.525-1.206.6-2.015,1.809-3.188,2.476-1.67.95-3.943.734-4.754,3.19a4.164,4.164,0,0,0,.027,2.627c1.133,3.341,5.272,4.689,8.252,3.244a8.189,8.189,0,0,0,.1,3.614c.19.571.258,1.443,1.151,1.459" fill="#263238"/>
            <path id="Trazado_721183" data-name="Trazado 721183" d="M393.128,118.194c.039-.033.216.273.645.246a1.2,1.2,0,0,0,.966-1.179,1.291,1.291,0,0,0-.886-1.286c-.425-.157-.73-.076-.744-.136-.022-.035.284-.233.818-.122a1.543,1.543,0,0,1,.811.466,1.494,1.494,0,0,1,.381,1.1,1.425,1.425,0,0,1-1.344,1.429.773.773,0,0,1-.577-.29c-.092-.127-.092-.217-.07-.225" fill="#eb996e"/>
            <path id="Trazado_721184" data-name="Trazado 721184" d="M398.5,102.619c-.013-.011.112-.2.433-.438a3.479,3.479,0,0,1,1.569-.61,4.525,4.525,0,0,1,2.472.377,5.659,5.659,0,0,1,2.279,2.037,11.557,11.557,0,0,1,1.6,5.23,13.364,13.364,0,0,1,.136,2.256,13.263,13.263,0,0,1-.4-2.221,12.475,12.475,0,0,0-1.654-5.054,5.5,5.5,0,0,0-2.112-1.931,4.148,4.148,0,0,0-4.324.354" fill="#455a64"/>
            <path id="Trazado_721185" data-name="Trazado 721185" d="M383.958,107.9c0,.011-.07.014-.2-.015a1.485,1.485,0,0,1-.515-.231,1.871,1.871,0,0,1-.6-.674,1.716,1.716,0,0,1-.162-1.2,1.969,1.969,0,0,1,.837-1.206,2.8,2.8,0,0,1,1.634-.32,2.256,2.256,0,0,0,1.56-.4,11.308,11.308,0,0,0,1.262-1.361A6.441,6.441,0,0,1,391,100.648a6.848,6.848,0,0,1,3.031-.067,5.863,5.863,0,0,1,1.9.732,2.188,2.188,0,0,1,.591.456,8.892,8.892,0,0,0-2.544-.923,6.871,6.871,0,0,0-2.9.142,6.256,6.256,0,0,0-3.023,1.774,10.739,10.739,0,0,1-1.319,1.4,2.117,2.117,0,0,1-.889.4,4.277,4.277,0,0,1-.9.048,2.547,2.547,0,0,0-1.461.236,1.7,1.7,0,0,0-.744,1,1.661,1.661,0,0,0,.588,1.687,4,4,0,0,0,.622.365" fill="#455a64"/>
            <path id="Trazado_721186" data-name="Trazado 721186" d="M397.778,122.274c-.012-.032.26-.128.682-.412a4.274,4.274,0,0,0,1.409-1.57,3.931,3.931,0,0,0,.237-3.028,3.889,3.889,0,0,0-.938-1.553,7.5,7.5,0,0,0-1.614-1.18c-.6-.351-1.218-.677-1.779-1.059a5.989,5.989,0,0,1-1.43-1.348,6.248,6.248,0,0,1-1.209-3.057,5.656,5.656,0,0,1,.169-2.207,3.392,3.392,0,0,1,.206-.565c.058-.125.093-.187.105-.183a7.681,7.681,0,0,0-.213,2.92,6.184,6.184,0,0,0,1.22,2.879,5.8,5.8,0,0,0,1.361,1.253c.541.362,1.147.681,1.761,1.038a7.621,7.621,0,0,1,1.69,1.249,4.193,4.193,0,0,1,1.005,1.708,4.143,4.143,0,0,1-.335,3.261,4.1,4.1,0,0,1-1.567,1.568,1.832,1.832,0,0,1-.76.286" fill="#455a64"/>
            <path id="Trazado_721187" data-name="Trazado 721187" d="M406.734,114.695a2.366,2.366,0,0,1-.665.149,9.7,9.7,0,0,1-1.857.056,11.508,11.508,0,0,1-5.762-1.981,9.117,9.117,0,0,1-3.78-4.756,3.925,3.925,0,0,1-.078-1.872,1.494,1.494,0,0,1,.257-.636,4.562,4.562,0,0,0,.079,2.432,9.37,9.37,0,0,0,3.735,4.517,12.115,12.115,0,0,0,5.571,2.028c1.533.167,2.492-.015,2.5.063" fill="#455a64"/>
            <path id="Trazado_721188" data-name="Trazado 721188" d="M407.556,111.156a9.119,9.119,0,0,1,7.121-3.225,6.558,6.558,0,0,1,5.975,4.625c.494,1.968-.109,4.02-.365,6.034s-.008,4.367,1.635,5.559a9.5,9.5,0,0,0,3.459,1.139,3.781,3.781,0,0,1,2.867,2.037,2.908,2.908,0,0,1-1.779,3.384,6.548,6.548,0,0,1-4.132.057,3.462,3.462,0,0,1-1.532,4.14,4.576,4.576,0,0,1-4.588-.192,6.852,6.852,0,0,1-2.8-3.8,3.406,3.406,0,0,1-4.7.892,4.928,4.928,0,0,1-1.9-4.723,9.214,9.214,0,0,1,2.38-4.721,11.636,11.636,0,0,0,1.663-2.117,2.7,2.7,0,0,0,.1-2.581,1.562,1.562,0,0,0-2.3-.462" fill="#263238"/>
            <path id="Trazado_721189" data-name="Trazado 721189" d="M410.664,116.576a1.784,1.784,0,0,1-1.553-.018,3.738,3.738,0,0,1-2.253-2.941,3.851,3.851,0,0,1,.246-2.1,3.994,3.994,0,0,1,.99-1.4,2.55,2.55,0,0,1,1.358-.757,12.324,12.324,0,0,0-1.169.949,3.827,3.827,0,0,0-1.049,3.248,3.3,3.3,0,0,0,3.43,3.018" fill="#755edf"/>
            <path id="Trazado_721190" data-name="Trazado 721190" d="M392.481,126.844a2.444,2.444,0,0,1-1.179-.116,6.357,6.357,0,0,1-4.186-3.695,2.447,2.447,0,0,1-.262-1.155,7.371,7.371,0,0,1,.507,1.044,7.3,7.3,0,0,0,4.021,3.549,7.486,7.486,0,0,1,1.1.373" fill="#eb996e"/>
            <path id="Trazado_721191" data-name="Trazado 721191" d="M412.367,131.078c0,.013-.089,0-.253-.037a2.535,2.535,0,0,1-.673-.3,3.68,3.68,0,0,1-1.467-2.232,4.59,4.59,0,0,1-.064-1.878,7.57,7.57,0,0,1,.682-2.032c.651-1.363,1.679-2.656,2.438-4.159a7.4,7.4,0,0,0,.764-2.3,4.447,4.447,0,0,0-2.869-4.789,4.748,4.748,0,0,0-2.557-.159c-.606.127-.914.3-.93.264-.006-.012.067-.06.213-.141a3.608,3.608,0,0,1,.681-.267,4.582,4.582,0,0,1,5.54,2.766,4.721,4.721,0,0,1,.292,2.373,7.615,7.615,0,0,1-.794,2.422c-.788,1.554-1.818,2.832-2.463,4.144a5.522,5.522,0,0,0-.671,3.7,3.66,3.66,0,0,0,1.29,2.171,6.832,6.832,0,0,0,.841.458" fill="#455a64"/>
            <path id="Trazado_721192" data-name="Trazado 721192" d="M420.162,134.857a1.065,1.065,0,0,1-.326.019,3.678,3.678,0,0,1-.922-.165,5.187,5.187,0,0,1-2.69-2.1,7.973,7.973,0,0,1-1.161-4.923,50.185,50.185,0,0,1,1-6.117,14.293,14.293,0,0,0,.217-3.145,8.1,8.1,0,0,0-.661-2.824,5.149,5.149,0,0,0-3.626-3.026,7.538,7.538,0,0,0-3.326.012c-.778.174-1.191.346-1.2.313a1.078,1.078,0,0,1,.288-.151,6.488,6.488,0,0,1,.88-.306,7.269,7.269,0,0,1,3.421-.13,5.463,5.463,0,0,1,2.184.981,5.554,5.554,0,0,1,1.7,2.162,8.333,8.333,0,0,1,.714,2.945,14.359,14.359,0,0,1-.214,3.231,54.9,54.9,0,0,0-1.021,6.072,7.83,7.83,0,0,0,1.036,4.758,5.214,5.214,0,0,0,2.513,2.1,7.854,7.854,0,0,0,1.2.286" fill="#455a64"/>
            <path id="Trazado_721193" data-name="Trazado 721193" d="M421.717,158.383l-11,8.583,4.616,7.58,13.249-9.761Z" fill="#ffbe9d"/>
            <path id="Trazado_721194" data-name="Trazado 721194" d="M392.287,129.549s.054-.918-2.345-1.05a24.909,24.909,0,0,0-2.667-.089,6.119,6.119,0,0,1-1.148-2.225,6.674,6.674,0,0,1,.514-2.26l2.428-.224-.659-1.648-1.712.119-4.833.58-1.923,8.461-13.191,24.624a6.358,6.358,0,0,0,2.518,9.257c3.41,1.648,7.981-1.851,9.244-5.422l7.3-27.388,2.568-2.006,3.68-.675" fill="#ffbe9d"/>
            <path id="Trazado_721195" data-name="Trazado 721195" d="M362.217,293.44l17.96-103.324-.025-.006c.038-.153.075-.3.113-.448l0-.019h0c3.056-12.119,7.768-16,7.768-16l27.485,1.724c2.337,4.2,2.633,14.28,2.633,14.28.32,1.235-5.807,101.352-5.807,101.352l-9.192-.253-4.985-94.721-26.748,97.812Z" fill="#ffbe9d"/>
            <path id="Trazado_721196" data-name="Trazado 721196" d="M362,294.368l.035-.933,9.455.273-.082,3.078-.584.019c-2.6.064-13.233.157-14.954-.379-1.919-.6,6.13-2.058,6.13-2.058" fill="#755edf"/>
            <g id="Grupo_1008664" data-name="Grupo 1008664" opacity="0.6">
              <g id="Grupo_1008663" data-name="Grupo 1008663">
                <g id="Grupo_1008662" data-name="Grupo 1008662" clip-path="url(#clip-path-10)">
                  <path id="Trazado_721197" data-name="Trazado 721197" d="M368,296.625a3.025,3.025,0,0,1,1.259-1.834,3.356,3.356,0,0,1,2.22-.577l-.074,2.446Z" fill="#fff"/>
                </g>
              </g>
            </g>
            <g id="Grupo_1008667" data-name="Grupo 1008667" opacity="0.6">
              <g id="Grupo_1008666" data-name="Grupo 1008666">
                <g id="Grupo_1008665" data-name="Grupo 1008665" clip-path="url(#clip-path-11)">
                  <path id="Trazado_721198" data-name="Trazado 721198" d="M358.065,295.211s-2.826.676-2.49,1.115,11.083.721,15.836.46l-.01-.2-12.538-.23s-.251-1.113-.8-1.149" fill="#fff"/>
                </g>
              </g>
            </g>
            <path id="Trazado_721199" data-name="Trazado 721199" d="M371.549,296.588a.859.859,0,0,1-.162.012l-.466.014-1.713.023c-1.446.011-3.445,0-5.651-.056s-4.2-.148-5.647-.233l-1.709-.111-.464-.037a.86.86,0,0,1-.161-.021,1.011,1.011,0,0,1,.163,0l.465.018,1.71.077c1.445.065,3.44.145,5.646.2s4.2.079,5.648.087l1.713.011.465.006a.855.855,0,0,1,.163.009" fill="#263238"/>
            <path id="Trazado_721200" data-name="Trazado 721200" d="M358.861,296.495a3.438,3.438,0,0,0-.3-.768A3.741,3.741,0,0,0,358,295.1a1.251,1.251,0,0,1,.664.57,1.113,1.113,0,0,1,.2.821" fill="#263238"/>
            <path id="Trazado_721201" data-name="Trazado 721201" d="M361.678,295.259c-.027.015-.155-.139-.287-.344s-.215-.382-.188-.4.155.138.286.343.216.383.189.4" fill="#263238"/>
            <path id="Trazado_721202" data-name="Trazado 721202" d="M362.452,294.9c-.022.021-.168-.075-.326-.214s-.268-.271-.246-.292.167.075.325.215.269.27.247.291" fill="#263238"/>
            <path id="Trazado_721203" data-name="Trazado 721203" d="M362.959,294.091a1.184,1.184,0,0,1-.493.045,1.166,1.166,0,0,1-.491-.061,2.31,2.31,0,0,1,.984.016" fill="#263238"/>
            <path id="Trazado_721204" data-name="Trazado 721204" d="M363.142,293.512a1,1,0,0,1-.553.135,1.025,1.025,0,0,1-.563-.085,3.105,3.105,0,0,1,.558-.021,3.563,3.563,0,0,1,.558-.029" fill="#263238"/>
            <path id="Trazado_721205" data-name="Trazado 721205" d="M361.382,294.487a1.871,1.871,0,0,1-.6-.02,3.737,3.737,0,0,1-.64-.148,1.918,1.918,0,0,1-.364-.151.3.3,0,0,1-.144-.179.214.214,0,0,1,.1-.222,1.159,1.159,0,0,1,1.363.337.984.984,0,0,1,.186.381.3.3,0,0,1,.011.152,1.584,1.584,0,0,0-.261-.487,1.1,1.1,0,0,0-.507-.326,1.008,1.008,0,0,0-.723.027c-.1.064-.064.17.041.232a1.932,1.932,0,0,0,.336.144,4.516,4.516,0,0,0,.619.167c.36.069.591.076.59.093" fill="#263238"/>
            <path id="Trazado_721206" data-name="Trazado 721206" d="M361.224,294.51a.517.517,0,0,1-.058-.392.893.893,0,0,1,.178-.406.615.615,0,0,1,.512-.274.224.224,0,0,1,.179.265.583.583,0,0,1-.111.248,1.745,1.745,0,0,1-.3.334.89.89,0,0,1-.353.218c-.01-.014.124-.1.3-.271a2.07,2.07,0,0,0,.263-.331c.087-.117.15-.329,0-.358a.545.545,0,0,0-.4.228.886.886,0,0,0-.182.361,1.832,1.832,0,0,0-.022.378" fill="#263238"/>
            <path id="Trazado_721207" data-name="Trazado 721207" d="M371.43,294.189c0,.02-.269-.031-.7,0a3.194,3.194,0,0,0-1.535.542,2.857,2.857,0,0,0-.986,1.221c-.155.371-.176.623-.2.62a.458.458,0,0,1,.005-.177,2.144,2.144,0,0,1,.117-.469,2.716,2.716,0,0,1,.993-1.28,3.046,3.046,0,0,1,1.6-.531,2.587,2.587,0,0,1,.517.026.587.587,0,0,1,.184.044" fill="#263238"/>
            <path id="Trazado_721208" data-name="Trazado 721208" d="M366.841,295.741a8.284,8.284,0,0,1-2.751-.048c0-.031.617.02,1.375.033s1.373-.016,1.376.015" fill="#263238"/>
            <path id="Trazado_721209" data-name="Trazado 721209" d="M368.686,295.787c.022.022-.054.12-.121.249s-.1.245-.137.242-.044-.139.035-.288.2-.225.223-.2" fill="#263238"/>
            <path id="Trazado_721210" data-name="Trazado 721210" d="M369.406,295c.022.021-.042.111-.142.2s-.2.144-.221.123.042-.111.142-.2.2-.144.221-.123" fill="#263238"/>
            <path id="Trazado_721211" data-name="Trazado 721211" d="M370.412,294.659c-.008.03-.133.025-.272.067s-.242.107-.266.087.059-.14.232-.189.316.008.306.035" fill="#263238"/>
            <path id="Trazado_721212" data-name="Trazado 721212" d="M371.125,294.5c.011.029-.045.072-.124.1s-.151.025-.162,0,.045-.072.124-.1.151-.025.162,0" fill="#263238"/>
            <path id="Trazado_721213" data-name="Trazado 721213" d="M408.177,132.455a18.115,18.115,0,0,1,7.275,2.865c8.691,5.633,23.224,17.546,22.018,23.063-1.026,4.7-12.362,10.4-12.362,10.4l-7.362-8.855,4.514-2.581-11.1-7.38Z" fill="#263238"/>
            <path id="Trazado_721214" data-name="Trazado 721214" d="M413.133,150.39l-.361,1.321-1.278,6.106-.315,8.949c6.592,8.488,6.691,15.634,6.691,15.634l-33.3,3.889c.006-6.577,2.4-14.86,2.4-14.86,1.926-3.267,1.834-13.043,1.474-13.4-2.081-2.061-2.585-3.573-.924-6.214,0,0-10.322,10.843-11.385,11.817-3.647,3.344-7.155,2.411-8.783.958-4.559-4.068.121-9.316.121-9.316l17.386-19.926a8.658,8.658,0,0,1,4.518-2.755c1.854-.437,3.724-.66,3.724-.66l11.609.1a19.527,19.527,0,0,1,3.458.422,8.3,8.3,0,0,1,5.07,6.284c1.04,4.99-.114,11.652-.114,11.652" fill="#263238"/>
            <path id="Trazado_721215" data-name="Trazado 721215" d="M413.5,142.409a4.734,4.734,0,0,1,.071.965c.015.622,0,1.523-.063,2.633a69.946,69.946,0,0,1-1.146,8.608c-.218,1.137-.447,2.231-.687,3.245l.005-.036c-.1,2.586-.2,4.823-.293,6.412q-.07,1.109-.119,1.862a2.761,2.761,0,0,1-.086.669,2.822,2.822,0,0,1-.038-.673c0-.5.007-1.125.012-1.866.024-1.592.078-3.83.158-6.417v-.017l0-.019c.229-1.006.452-2.1.669-3.231.634-3.32,1.055-6.352,1.252-8.557.1-1.1.153-2,.183-2.615a4.778,4.778,0,0,1,.077-.963" fill="#455a64"/>
            <path id="Trazado_721216" data-name="Trazado 721216" d="M413.609,151.36a69.255,69.255,0,0,1,6.078,3.975,69.673,69.673,0,0,1,5.863,4.287,68.968,68.968,0,0,1-6.079-3.975,69.483,69.483,0,0,1-5.862-4.287" fill="#455a64"/>
            <path id="Trazado_721217" data-name="Trazado 721217" d="M392.083,138.312c.009-.009.067.035.171.129a3.384,3.384,0,0,1,.414.452,5.029,5.029,0,0,1,.9,2.063,6.816,6.816,0,0,1-.19,3.337,13.584,13.584,0,0,1-1.868,3.629,12.942,12.942,0,0,1-1.373,1.615c-.483.492-1,.9-1.454,1.31-.92.825-1.715,1.608-2.371,2.276s-1.174,1.223-1.532,1.606a3.688,3.688,0,0,1-.581.576,3.094,3.094,0,0,1,.469-.672c.325-.414.814-1,1.449-1.695s1.414-1.5,2.33-2.351c.458-.43.965-.837,1.426-1.313A13.377,13.377,0,0,0,391.2,147.7a14,14,0,0,0,1.842-3.513,6.793,6.793,0,0,0,.259-3.182,5.962,5.962,0,0,0-1.221-2.693" fill="#455a64"/>
            <path id="Trazado_721218" data-name="Trazado 721218" d="M388.208,167.744l.385-4.473H411.3l-.123,3.495Z" fill="#455a64"/>
            <path id="Trazado_721219" data-name="Trazado 721219" d="M368.836,154.394c.042.057-.574.43-1.259,1.315a6.051,6.051,0,0,0,.323,7.934,18.073,18.073,0,0,0,1.361,1.208c-.011.021-.181-.037-.464-.193a5.176,5.176,0,0,1-1.091-.828,6,6,0,0,1-.337-8.291,5.213,5.213,0,0,1,1.02-.915c.27-.178.435-.25.447-.23" fill="#455a64"/>
            <path id="Trazado_721220" data-name="Trazado 721220" d="M412.349,290.994l2.575,5.992-11.524-.138-.243-6.107Z" fill="#755edf"/>
            <path id="Trazado_721221" data-name="Trazado 721221" d="M403.315,295.813a10.435,10.435,0,0,0,1.614.082c1,.018,2.376.012,3.9-.012l3.891-.081a12.257,12.257,0,0,0,1.612-.081,10.65,10.65,0,0,0-1.614-.08c-1-.015-2.377-.009-3.9.015l-3.89.079a12.223,12.223,0,0,0-1.612.078" fill="#263238"/>
            <path id="Trazado_721222" data-name="Trazado 721222" d="M408.119,290.864a16.211,16.211,0,0,0,.268,4.841,16.209,16.209,0,0,0-.268-4.841" fill="#263238"/>
            <g id="Grupo_1008670" data-name="Grupo 1008670" opacity="0.6">
              <g id="Grupo_1008669" data-name="Grupo 1008669">
                <g id="Grupo_1008668" data-name="Grupo 1008668" clip-path="url(#clip-path-12)">
                  <path id="Trazado_721223" data-name="Trazado 721223" d="M414.906,297.111l-11.518-.386-.074-1.093,11.013.1.583,1.254" fill="#fff"/>
                </g>
              </g>
            </g>
            <path id="Trazado_721224" data-name="Trazado 721224" d="M417.135,176.631c8.67,27.363-2.507,60.577.173,92.46.263,3.132,1.535,6.88-1.394,8.663a4.773,4.773,0,0,1-2.644.645c-2.341-.076-4.3-1.29-6.385-2.124a18.967,18.967,0,0,0-12.566-.487c-2.767.862-5.51,2.386-8.375,1.953-3.8-.575-6.27-4.336-9.773-5.93-3.278-1.492-7.065-.935-10.667-1.026l-.108,0a8.081,8.081,0,0,1-7.463-10.233c5.234-19.169,22.592-81.437,30.275-92.805l22.971-.978c2.116,2.558,4.837,6.378,5.956,9.865" fill="#755edf"/>
            <path id="Trazado_721225" data-name="Trazado 721225" d="M409.088,189.512a10.292,10.292,0,0,1-1.249,1.571,35.876,35.876,0,0,1-3.392,3.466,22.762,22.762,0,0,1-4,2.753,8.919,8.919,0,0,1-1.823.844,57.117,57.117,0,0,0,5.576-3.885c1.412-1.23,2.577-2.479,3.442-3.36a10.839,10.839,0,0,1,1.448-1.389" fill="#263238"/>
            <g id="Grupo_1008673" data-name="Grupo 1008673" opacity="0.1">
              <g id="Grupo_1008672" data-name="Grupo 1008672">
                <g id="Grupo_1008671" data-name="Grupo 1008671" clip-path="url(#clip-path-13)">
                  <path id="Trazado_721226" data-name="Trazado 721226" d="M398.945,199.838a97.876,97.876,0,0,0-3.849,58.568c.412,1.672.833,3.574-.119,5.009-1.234,1.858-4.218,1.73-5.906.272s-2.363-3.752-2.786-5.942c-3.153-16.325,2.558-32.729,8.728-48.168"/>
                </g>
              </g>
            </g>
            <rect id="Rectángulo_351331" data-name="Rectángulo 351331" width="43.536" height="2.118" transform="translate(225.12 209.059)" fill="#263238"/>
            <path id="Trazado_721227" data-name="Trazado 721227" d="M218.374,211.177l-8.166-30.6H244.2l7.4,30.6Z" fill="#263238"/>
            <path id="Trazado_721228" data-name="Trazado 721228" d="M249.558,208.86H219.19l-7.069-26.871h30.525Z" fill="#f5f5f5"/>
            <path id="Trazado_721229" data-name="Trazado 721229" d="M212.63,183.921h30.53l-.514-1.931H212.122Z" fill="#ebebeb"/>
            <path id="Trazado_721230" data-name="Trazado 721230" d="M215.927,182.955a.333.333,0,1,0,.334-.333.334.334,0,0,0-.334.333" fill="#fafafa"/>
            <path id="Trazado_721231" data-name="Trazado 721231" d="M214.778,182.955a.334.334,0,1,0,.334-.333.334.334,0,0,0-.334.333" fill="#fafafa"/>
            <path id="Trazado_721232" data-name="Trazado 721232" d="M213.63,182.955a.333.333,0,1,0,.332-.333.333.333,0,0,0-.332.333" fill="#fafafa"/>
            <path id="Trazado_721233" data-name="Trazado 721233" d="M235.573,195.7l3.343,3.825a4.725,4.725,0,0,0,2.053-3.846,5.424,5.424,0,0,0-10.792.042Z" fill="#755edf"/>
            <path id="Trazado_721234" data-name="Trazado 721234" d="M235.148,196.307a7.615,7.615,0,0,1,.954.956c.6.641,1.45,1.576,2.471,2.718l.116.13-.144.107a5.783,5.783,0,0,1-5.636.554,5.518,5.518,0,0,1-2.319-1.865,4.754,4.754,0,0,1-.86-2.511l-.006-.17h.167c1.6-.008,2.924,0,3.842.013a8.143,8.143,0,0,1,1.415.069,9.989,9.989,0,0,1-1.472.113c-.92.043-2.223.091-3.78.132l.16-.171a4.5,4.5,0,0,0,.833,2.314,5.24,5.24,0,0,0,2.171,1.728,5.543,5.543,0,0,0,5.3-.467l-.028.237c-.968-1.134-1.767-2.089-2.324-2.769a9.147,9.147,0,0,1-.859-1.117" fill="#263238"/>
            <path id="Trazado_721235" data-name="Trazado 721235" d="M232.965,192.809a.3.3,0,1,0,.3-.3.3.3,0,0,0-.3.3" fill="#263238"/>
            <path id="Trazado_721236" data-name="Trazado 721236" d="M226.951,190.619a17.28,17.28,0,0,1,3.612-.2h.56l.055.055a14.324,14.324,0,0,1,2.09,2.339,14.251,14.251,0,0,1-2.356-2.071l.134.054-.482,0a17.306,17.306,0,0,1-3.613-.176" fill="#263238"/>
            <path id="Trazado_721237" data-name="Trazado 721237" d="M220.114,194.446a11.045,11.045,0,0,1-.346-1.41c-.2-.928-.494-2.284-.827-3.945l-.036-.182h.188l7.555-.066.189.156v.01l0,.011,0,.023.009.045.017.09.034.181.068.358c.044.238.089.474.133.708q.132.7.258,1.381c.166.9.325,1.763.476,2.579l.038.205h-.207c-2.269-.006-4.179-.034-5.505-.061l-1.533-.04a2.2,2.2,0,0,1-.519-.042,3.4,3.4,0,0,1,.585-.046l1.566-.053c1.335-.037,3.2-.08,5.4-.1l-.168.2c-.159-.814-.327-1.676-.5-2.574q-.129-.676-.265-1.379c-.044-.234-.089-.471-.135-.708l-.068-.359-.034-.18-.017-.09-.009-.045,0-.023,0-.011v-.009h0l.187.154-7.556-.006.152-.183c.287,1.605.507,2.941.658,3.888a14.686,14.686,0,0,1,.21,1.524" fill="#263238"/>
            <path id="Trazado_721238" data-name="Trazado 721238" d="M232.515,198.893a.3.3,0,1,0,.3-.3.3.3,0,0,0-.3.3" fill="#263238"/>
            <path id="Trazado_721239" data-name="Trazado 721239" d="M227.329,198.913a19.918,19.918,0,0,1,5.489-.022,19.918,19.918,0,0,1-5.489.022" fill="#263238"/>
            <path id="Trazado_721240" data-name="Trazado 721240" d="M220.141,201.3a6.348,6.348,0,0,1-.332-1.01c-.2-.673-.485-1.667-.821-2.908l-.048-.175.186,0c2.057-.037,4.794-.066,7.791-.078-.165-.127.226.175.185.144h0v.006l0,.008,0,.017.008.032.017.066.033.13.067.26.131.514q.13.512.257,1.008c.166.661.327,1.3.482,1.914l.056.223h-.229c-2.311,0-4.28-.031-5.655-.059l-1.594-.043a2.212,2.212,0,0,1-.543-.046,3.4,3.4,0,0,1,.611-.05l1.627-.056c1.382-.039,3.308-.081,5.553-.1l-.172.223q-.24-.918-.5-1.91-.129-.495-.261-1.007l-.133-.514-.066-.26-.034-.13-.017-.065-.008-.033,0-.016,0-.008v-.006h0c-.04-.032.35.27.184.142-3,.012-5.734.005-7.791-.016l.138-.179c.288,1.195.51,2.178.662,2.872a8.8,8.8,0,0,1,.214,1.117" fill="#263238"/>
            <path id="Trazado_721241" data-name="Trazado 721241" d="M220.713,190.713a17.588,17.588,0,0,1,5.17-.02,17.679,17.679,0,0,1-5.17.02" fill="#263238"/>
            <path id="Trazado_721242" data-name="Trazado 721242" d="M220.777,191.559a17.931,17.931,0,0,1,5.2-.021,17.838,17.838,0,0,1-5.2.021" fill="#263238"/>
            <path id="Trazado_721243" data-name="Trazado 721243" d="M220.931,192.375a16.662,16.662,0,0,1,5.018-.02,16.662,16.662,0,0,1-5.018.02" fill="#263238"/>
            <path id="Trazado_721244" data-name="Trazado 721244" d="M220.866,198.844a16.073,16.073,0,0,1,4.928-.018,16.156,16.156,0,0,1-4.928.018" fill="#263238"/>
            <path id="Trazado_721245" data-name="Trazado 721245" d="M221.172,199.781a11.681,11.681,0,0,1,4.2-.017,11.682,11.682,0,0,1-4.2.017" fill="#263238"/>
            <path id="Trazado_721246" data-name="Trazado 721246" d="M173.563,211.076v4.013h2.628v81.255h5.393V215.089H210.2v81.255H215.6V215.089H339.755v81.236h5.393V215.089h2.334v-4.013Z" fill="#263238"/>
            <path id="Trazado_721247" data-name="Trazado 721247" d="M290.492,241.353a41.894,41.894,0,0,0,7.013,0,41.894,41.894,0,0,0-7.013,0" fill="#263238"/>
            <path id="Trazado_721248" data-name="Trazado 721248" d="M239.416,242.182c-.1,0-.19-.042-.19-.093s.085-.094.19-.094.19.042.19.094-.085.093-.19.093" fill="#455a64"/>
            <path id="Trazado_721249" data-name="Trazado 721249" d="M273.778,169.858,253.635,149.4l-.435-2.216c-.084-.4-.168-.857-.246-1.372a5.429,5.429,0,0,1,.032-1.8,8.192,8.192,0,0,1,.62-2.144c.34-.593-.2-1.307-.765-1.063s-1.535,1.854-1.745,4.065-2.1-.723-2.8-1.779-3.038-4.221-3.525-4.259c-.713-.055-.9.718-.166,1.756s2.7,4.308,2.143,4.658l-.021,0a2.636,2.636,0,0,0-2.783,1.381c-.508.976-1.075,2.361-.61,3a36.128,36.128,0,0,0,3.211,3.4l.675.58s17.426,25.25,21.224,26.07c2.362.511,38.88,3.54,38.88,3.54l2.754-10.061Z" fill="#b78876"/>
            <path id="Trazado_721250" data-name="Trazado 721250" d="M243.176,149.19l1.863,1.79a2.218,2.218,0,0,0,.7.514.668.668,0,0,0,.924-.879,2.22,2.22,0,0,0-.429-.663l-1.811-2.177" fill="#b78876"/>
            <path id="Trazado_721251" data-name="Trazado 721251" d="M244.426,147.775c.039-.034.39.312.922.9l.922,1.043a3.49,3.49,0,0,1,.513.7.985.985,0,0,1-.051,1.035.913.913,0,0,1-1.018.234,2.062,2.062,0,0,1-.73-.514l-.977-.994a4.455,4.455,0,0,1-.831-.984,4.393,4.393,0,0,1,1.017.79l1.032.934a1.821,1.821,0,0,0,.608.415.556.556,0,0,0,.6-.117.633.633,0,0,0,.013-.639,3.518,3.518,0,0,0-.446-.632c-.3-.376-.582-.74-.86-1.1a4.3,4.3,0,0,1-.715-1.071" fill="#aa6550"/>
            <path id="Trazado_721252" data-name="Trazado 721252" d="M244.5,147.887l1.863,1.79a2.218,2.218,0,0,0,.7.514.668.668,0,0,0,.924-.879,2.22,2.22,0,0,0-.429-.663l-1.811-2.177" fill="#b78876"/>
            <path id="Trazado_721253" data-name="Trazado 721253" d="M245.748,146.473c.04-.034.39.312.923.9l.921,1.043a3.453,3.453,0,0,1,.514.7.987.987,0,0,1-.051,1.035.914.914,0,0,1-1.019.234,2.062,2.062,0,0,1-.73-.514l-.976-.994a4.359,4.359,0,0,1-.831-.984,4.394,4.394,0,0,1,1.017.79c.334.3.677.612,1.031.934a1.825,1.825,0,0,0,.609.415.554.554,0,0,0,.6-.117.631.631,0,0,0,.013-.639,3.467,3.467,0,0,0-.446-.632c-.3-.376-.581-.74-.859-1.1a4.361,4.361,0,0,1-.716-1.071" fill="#aa6550"/>
            <path id="Trazado_721254" data-name="Trazado 721254" d="M245.95,146.82l1.863,1.79a2.218,2.218,0,0,0,.7.514.668.668,0,0,0,.924-.879,2.22,2.22,0,0,0-.429-.663L247.2,145.4" fill="#b78876"/>
            <path id="Trazado_721255" data-name="Trazado 721255" d="M247.2,145.4c.04-.034.39.312.923.9l.921,1.043a3.454,3.454,0,0,1,.514.7.987.987,0,0,1-.051,1.035.914.914,0,0,1-1.019.234,2.062,2.062,0,0,1-.73-.514l-.976-.994a4.393,4.393,0,0,1-.831-.984,4.394,4.394,0,0,1,1.017.79l1.031.934a1.826,1.826,0,0,0,.609.415.554.554,0,0,0,.6-.117.631.631,0,0,0,.013-.639,3.5,3.5,0,0,0-.446-.632c-.3-.376-.581-.74-.859-1.1a4.361,4.361,0,0,1-.716-1.071" fill="#aa6550"/>
            <path id="Trazado_721256" data-name="Trazado 721256" d="M248.9,149.916c-.005-.06.462-.154,1.135.053l-.214.184a3.182,3.182,0,0,1-.048-1.28,3.251,3.251,0,0,1,.7-1.557c.287-.336.529-.468.56-.432a6.651,6.651,0,0,0-.883,2.05,3.838,3.838,0,0,0-.011,1.155l.04.292-.254-.109c-.583-.248-1.026-.281-1.023-.356" fill="#aa6550"/>
            <path id="Trazado_721257" data-name="Trazado 721257" d="M300.162,139.18l.086,28.031-10.93.521-.442-6.718s-5.273.8-6.375-3.166c-.7-2.534-.528-22.118-.528-22.118Z" fill="#b78876"/>
            <path id="Trazado_721258" data-name="Trazado 721258" d="M279.257,138.494c.81,1.675,4.667,4.74,4.667,4.74l1.743,4.67c1.513-1.185,3.545-1.117,3.93,1.542.278,1.922-2.111,2.311-2.111,2.311a34.832,34.832,0,0,0,4.36,6.534c2.192,2.437,3.42,2.682,5.8,2.722h2.622s5.365-4.483,4.3-16.289-11.674-8.362-14.208-11.312c-4.126-4.805-13.808-.51-11.1,5.082" fill="#263238"/>
            <path id="Trazado_721259" data-name="Trazado 721259" d="M303.974,154.6a3.777,3.777,0,0,1-1.3-.059,6.756,6.756,0,0,1-3.132-1.611,17.027,17.027,0,0,1-3.166-4.187,15.08,15.08,0,0,0-4.016-4.912c-1.9-1.272-4.137-1.531-6.056-1.924a11.415,11.415,0,0,1-4.889-1.861,5.247,5.247,0,0,1-1.959-2.9,3.007,3.007,0,0,1-.053-1.3,4.411,4.411,0,0,0,.11,1.282,5.264,5.264,0,0,0,1.967,2.831,11.444,11.444,0,0,0,4.851,1.808c1.914.386,4.169.637,6.114,1.936a15.058,15.058,0,0,1,4.051,4.966,17.2,17.2,0,0,0,3.117,4.178,6.823,6.823,0,0,0,3.072,1.634,5.413,5.413,0,0,0,.95.113c.22,0,.336,0,.336,0" fill="#455a64"/>
            <path id="Trazado_721260" data-name="Trazado 721260" d="M304.593,144.993s-.195-.057-.565-.171a8.506,8.506,0,0,0-1.645-.366,3.689,3.689,0,0,0-2.532.567,2.078,2.078,0,0,0-.88,1.329,1.846,1.846,0,0,0,.51,1.672,1.407,1.407,0,0,0,.883.351,1.87,1.87,0,0,0,.974-.266,2.99,2.99,0,0,0,1.321-1.687,4.184,4.184,0,0,0-3.527-5.486,7.336,7.336,0,0,0-2.716.356,19.074,19.074,0,0,1-2.812.676,11.446,11.446,0,0,1-2.982.008,9.836,9.836,0,0,1-2.875-.8,3.478,3.478,0,0,1-1.968-2.075,2.712,2.712,0,0,1,.668-2.648,2.337,2.337,0,0,1,2.568-.379,1.962,1.962,0,0,1,.952.9,2.143,2.143,0,0,1,.2,1.257,2.854,2.854,0,0,1-1.279,2,4.1,4.1,0,0,1-2.159.6,6.369,6.369,0,0,1-2.048-.315,7.348,7.348,0,0,1-3.009-1.855,7.714,7.714,0,0,1-2.081-3.8c-.065-.382-.091-.584-.091-.584s.047.2.121.578a8.205,8.205,0,0,0,.568,1.586,7.7,7.7,0,0,0,1.543,2.157,7.268,7.268,0,0,0,2.981,1.813,6.292,6.292,0,0,0,2.013.3,4,4,0,0,0,2.094-.589,2.733,2.733,0,0,0,1.215-1.915,1.878,1.878,0,0,0-1.08-2.008,2.193,2.193,0,0,0-2.408.356,2.568,2.568,0,0,0-.626,2.5,3.331,3.331,0,0,0,1.89,1.979,9.737,9.737,0,0,0,2.83.783,11.315,11.315,0,0,0,2.942-.007,19.217,19.217,0,0,0,2.792-.669,7.455,7.455,0,0,1,2.771-.358,4.317,4.317,0,0,1,3.632,5.671,3.11,3.11,0,0,1-1.383,1.749,1.99,1.99,0,0,1-1.036.277,1.519,1.519,0,0,1-.951-.384,1.945,1.945,0,0,1-.533-1.769,2.168,2.168,0,0,1,.926-1.382,3.74,3.74,0,0,1,2.587-.556,7.986,7.986,0,0,1,1.648.4c.367.124.556.2.556.2" fill="#455a64"/>
            <path id="Trazado_721261" data-name="Trazado 721261" d="M290.7,289.5l-3.572-4.584,8.543-6.746,5.3,6.65-.5.452c-2.254,1.993-11.6,9.973-13.554,10.74-2.179.855,3.789-6.512,3.789-6.512" fill="#755edf"/>
            <g id="Grupo_1008676" data-name="Grupo 1008676" opacity="0.4">
              <g id="Grupo_1008675" data-name="Grupo 1008675">
                <g id="Grupo_1008674" data-name="Grupo 1008674" clip-path="url(#clip-path-14)">
                  <path id="Trazado_721262" data-name="Trazado 721262" d="M287.884,293.227s-1.965,2.743-1.316,2.911,10.4-7.54,14.4-11.317l-.164-.18-11.3,9.089s-1.11-.875-1.624-.5" fill="#fff"/>
                </g>
              </g>
            </g>
            <path id="Trazado_721263" data-name="Trazado 721263" d="M300.934,284.53a.928.928,0,0,1-.134.132l-.4.359-1.5,1.294c-1.273,1.083-3.053,2.557-5.053,4.142s-3.843,2.978-5.19,3.97l-1.6,1.162-.441.309a1.039,1.039,0,0,1-.159.1,1.126,1.126,0,0,1,.143-.122l.427-.328,1.577-1.2c1.332-1.01,3.164-2.415,5.164-4s3.787-3.045,5.075-4.11l1.526-1.261.418-.34a1.019,1.019,0,0,1,.151-.112" fill="#263238"/>
            <path id="Trazado_721264" data-name="Trazado 721264" d="M289.616,293.861a4.5,4.5,0,0,0-.876-.512,4.407,4.407,0,0,0-1-.175,1.755,1.755,0,0,1,1.875.687" fill="#263238"/>
            <path id="Trazado_721265" data-name="Trazado 721265" d="M291.125,290.591a1.151,1.151,0,0,1-.528-.115c-.28-.1-.5-.205-.485-.239a1.153,1.153,0,0,1,.528.115c.28.1.5.205.485.239" fill="#263238"/>
            <path id="Trazado_721266" data-name="Trazado 721266" d="M291.527,289.679c0,.036-.208.053-.46.037s-.453-.058-.451-.094.208-.053.46-.038.453.059.451.095" fill="#263238"/>
            <path id="Trazado_721267" data-name="Trazado 721267" d="M291.327,288.527c.023.028-.156.212-.4.409s-.46.335-.483.306.156-.211.4-.408.461-.335.484-.307" fill="#263238"/>
            <path id="Trazado_721268" data-name="Trazado 721268" d="M291.028,287.84a1.6,1.6,0,0,1-.95.875c-.019-.033.22-.2.478-.434s.44-.462.472-.441" fill="#263238"/>
            <path id="Trazado_721269" data-name="Trazado 721269" d="M290.246,290.075a2.009,2.009,0,0,1-.551.43,4.07,4.07,0,0,1-.686.334,2.055,2.055,0,0,1-.444.126.372.372,0,0,1-.27-.063.275.275,0,0,1-.091-.285,1.285,1.285,0,0,1,1.478-.69,1.255,1.255,0,0,1,.468.225c.1.077.137.131.131.137a1.927,1.927,0,0,0-.62-.27,1.257,1.257,0,0,0-.709.066,1.084,1.084,0,0,0-.619.561c-.036.134.079.209.221.19a2.071,2.071,0,0,0,.413-.112,4.8,4.8,0,0,0,.681-.3c.375-.2.585-.367.6-.35" fill="#263238"/>
            <path id="Trazado_721270" data-name="Trazado 721270" d="M290.125,290.214c0,.013-.2-.063-.365-.33a1.157,1.157,0,0,1-.167-.519.7.7,0,0,1,.236-.641.276.276,0,0,1,.369.12.77.77,0,0,1,.1.317,2.109,2.109,0,0,1,0,.538,1.026,1.026,0,0,1-.138.471c-.02-.006.032-.185.045-.479a2.386,2.386,0,0,0-.03-.51c-.017-.176-.13-.425-.287-.341s-.18.343-.177.519a1.143,1.143,0,0,0,.127.479,2.341,2.341,0,0,0,.283.376" fill="#263238"/>
            <path id="Trazado_721271" data-name="Trazado 721271" d="M298.912,282.332c.013.021-.263.17-.613.521a3.409,3.409,0,0,0-.827,3.551c.159.469.341.725.32.738a.66.66,0,0,1-.137-.172,2.879,2.879,0,0,1-.27-.534,3.31,3.31,0,0,1,.849-3.651,2.919,2.919,0,0,1,.48-.359.628.628,0,0,1,.2-.094" fill="#263238"/>
            <path id="Trazado_721272" data-name="Trazado 721272" d="M295.218,279.478a37.685,37.685,0,0,1,2.819,3.474,38.037,38.037,0,0,1-2.819-3.474" fill="#263238"/>
            <path id="Trazado_721273" data-name="Trazado 721273" d="M296.085,287.218a8.97,8.97,0,0,1-2.477,2c-.02-.033.564-.439,1.246-.99s1.2-1.034,1.231-1.007" fill="#263238"/>
            <path id="Trazado_721274" data-name="Trazado 721274" d="M297.757,285.892c.037,0,.048.154.092.327s.1.311.072.333-.151-.1-.2-.3,0-.365.036-.359" fill="#263238"/>
            <path id="Trazado_721275" data-name="Trazado 721275" d="M297.767,284.608c.036.005.051.137.034.3s-.061.284-.1.281-.052-.136-.034-.3.061-.285.1-.281" fill="#263238"/>
            <path id="Trazado_721276" data-name="Trazado 721276" d="M298.386,283.536c.017.034-.1.122-.188.266s-.128.281-.166.28-.059-.176.056-.352.286-.227.3-.194" fill="#263238"/>
            <path id="Trazado_721277" data-name="Trazado 721277" d="M298.894,282.859c.031.019.017.1-.032.185s-.115.136-.146.117-.017-.1.032-.184.115-.136.146-.118" fill="#263238"/>
            <g id="Grupo_1008679" data-name="Grupo 1008679" opacity="0.3">
              <g id="Grupo_1008678" data-name="Grupo 1008678">
                <g id="Grupo_1008677" data-name="Grupo 1008677" clip-path="url(#clip-path-15)">
                  <path id="Trazado_721278" data-name="Trazado 721278" d="M298.72,282.112l-8.643,6.6-.8-1.039,9.082-6.158Z"/>
                </g>
              </g>
            </g>
            <path id="Trazado_721279" data-name="Trazado 721279" d="M251.414,294.1l.016-5.811,10.886-.04.066,8.5-.674.046c-3,.178-15.283.692-17.293.091-2.242-.671,7-2.788,7-2.788" fill="#755edf"/>
            <g id="Grupo_1008682" data-name="Grupo 1008682" opacity="0.4">
              <g id="Grupo_1008681" data-name="Grupo 1008681">
                <g id="Grupo_1008680" data-name="Grupo 1008680" clip-path="url(#clip-path-16)">
                  <path id="Trazado_721280" data-name="Trazado 721280" d="M246.9,295.3s-3.238.947-2.832,1.479,12.835.48,18.315-.023l-.018-.243-14.5.185s-.334-1.374-.968-1.4" fill="#fff"/>
                </g>
              </g>
            </g>
            <path id="Trazado_721281" data-name="Trazado 721281" d="M262.535,296.5a.924.924,0,0,1-.187.021l-.537.035-1.979.093c-1.67.068-3.98.13-6.531.143s-4.863-.026-6.534-.077l-1.979-.074-.538-.029a1.056,1.056,0,0,1-.187-.019.98.98,0,0,1,.188-.008l.538.005,1.98.032c1.671.026,3.98.051,6.531.038s4.858-.06,6.529-.1l1.979-.051.539-.01a1.085,1.085,0,0,1,.188.005" fill="#263238"/>
            <path id="Trazado_721282" data-name="Trazado 721282" d="M247.871,296.866a2.879,2.879,0,0,0-1.051-1.7,1.757,1.757,0,0,1,1.051,1.7" fill="#263238"/>
            <path id="Trazado_721283" data-name="Trazado 721283" d="M251.076,295.223c-.031.02-.185-.167-.345-.416s-.265-.468-.234-.488.185.167.345.417.265.467.234.487" fill="#263238"/>
            <path id="Trazado_721284" data-name="Trazado 721284" d="M251.956,294.753c-.024.027-.2-.087-.385-.254s-.321-.326-.3-.353.2.086.385.254.321.326.3.353" fill="#263238"/>
            <path id="Trazado_721285" data-name="Trazado 721285" d="M252.508,293.723a2.481,2.481,0,1,1-.57-.057,1.294,1.294,0,0,1,.57.057" fill="#263238"/>
            <path id="Trazado_721286" data-name="Trazado 721286" d="M252.7,293a1.1,1.1,0,0,1-.633.187,1.121,1.121,0,0,1-.655-.084,3.452,3.452,0,0,1,.645-.047A3.509,3.509,0,0,1,252.7,293" fill="#263238"/>
            <path id="Trazado_721287" data-name="Trazado 721287" d="M250.7,294.275a2.008,2.008,0,0,1-.7,0,4.113,4.113,0,0,1-.745-.161,2.044,2.044,0,0,1-.427-.174.379.379,0,0,1-.174-.217.275.275,0,0,1,.1-.28,1.283,1.283,0,0,1,1.588.369,1.258,1.258,0,0,1,.23.465.393.393,0,0,1,.019.189,2,2,0,0,0-.321-.6,1.268,1.268,0,0,0-.6-.386,1.083,1.083,0,0,0-.833.061c-.111.082-.067.213.057.286a2.051,2.051,0,0,0,.394.166,4.923,4.923,0,0,0,.721.185c.419.072.686.072.686.093" fill="#263238"/>
            <path id="Trazado_721288" data-name="Trazado 721288" d="M250.522,294.31a.689.689,0,0,1-.083-.485,1.161,1.161,0,0,1,.189-.512.7.7,0,0,1,.581-.359.278.278,0,0,1,.217.322.76.76,0,0,1-.118.313,2.1,2.1,0,0,1-.328.424,1.01,1.01,0,0,1-.4.285c-.013-.017.139-.126.33-.348a2.4,2.4,0,0,0,.292-.421c.1-.148.16-.414-.016-.445s-.353.159-.46.3a1.15,1.15,0,0,0-.2.455,2.481,2.481,0,0,0-.01.472" fill="#263238"/>
            <path id="Trazado_721289" data-name="Trazado 721289" d="M262.3,293.527c0,.025-.312-.028-.8.032a3.408,3.408,0,0,0-2.841,2.285c-.164.467-.179.781-.2.778a.641.641,0,0,1,0-.22,2.945,2.945,0,0,1,.116-.588,3.31,3.31,0,0,1,2.921-2.348,2.838,2.838,0,0,1,.6.013.619.619,0,0,1,.214.048" fill="#263238"/>
            <path id="Trazado_721290" data-name="Trazado 721290" d="M261.153,289a37.94,37.94,0,0,1,.076,4.473,18.849,18.849,0,0,1-.1-2.235,19.132,19.132,0,0,1,.028-2.238" fill="#263238"/>
            <path id="Trazado_721291" data-name="Trazado 721291" d="M257.061,295.628a8.917,8.917,0,0,1-3.181.044c0-.039.715,0,1.591-.011s1.586-.071,1.59-.033" fill="#263238"/>
            <path id="Trazado_721292" data-name="Trazado 721292" d="M259.194,295.616c.027.026-.058.151-.129.314s-.111.309-.149.306-.057-.172.028-.36.226-.286.25-.26" fill="#263238"/>
            <path id="Trazado_721293" data-name="Trazado 721293" d="M259.994,294.612c.026.025-.044.139-.156.254s-.224.187-.25.161.044-.139.156-.254.224-.186.25-.161" fill="#263238"/>
            <path id="Trazado_721294" data-name="Trazado 721294" d="M261.143,294.15c-.007.037-.152.036-.312.093s-.274.143-.3.118.062-.175.26-.242.366,0,.355.031" fill="#263238"/>
            <path id="Trazado_721295" data-name="Trazado 721295" d="M261.961,293.931c.013.034-.049.09-.139.125s-.174.037-.188,0,.049-.09.14-.125.174-.037.187,0" fill="#263238"/>
            <g id="Grupo_1008685" data-name="Grupo 1008685" opacity="0.3">
              <g id="Grupo_1008684" data-name="Grupo 1008684">
                <g id="Grupo_1008683" data-name="Grupo 1008683" clip-path="url(#clip-path-17)">
                  <path id="Trazado_721296" data-name="Trazado 721296" d="M262.383,293.089l-10.974.011.012-1.311,10.922-.071Z"/>
                </g>
              </g>
            </g>
            <path id="Trazado_721297" data-name="Trazado 721297" d="M278.285,193.8l-4.359,13.126c-1.177,3.545-4.274,4.152-8.009,4.152H241.669v-5.44l22.152-3.163,5.279-13.486Z" fill="#b78876"/>
            <path id="Trazado_721298" data-name="Trazado 721298" d="M239,204.507l-1.923-.911s-2.073-4.008-2.551-3.847-.615,1.34.218,3.181l-2.556-.73s-5.542,2.56-5.3,2.9a1.28,1.28,0,0,0,1.906.545c1.207-.618,2.788-1.342,2.788-1.342l2.986.853-3.85.488-3.62,3.295a1.772,1.772,0,0,0,2.214-.054l9.405,2.02,2.945.167v-5.44Z" fill="#b78876"/>
            <path id="Trazado_721299" data-name="Trazado 721299" d="M229.318,208.889c.04.026.215-.252.554-.621a2.4,2.4,0,0,1,1.7-.795,14.091,14.091,0,0,0,2.822-.481,13.927,13.927,0,0,0-2.858.189,2.783,2.783,0,0,0-1.116.323,2.625,2.625,0,0,0-.706.628,1.678,1.678,0,0,0-.4.757" fill="#aa6550"/>
            <path id="Trazado_721300" data-name="Trazado 721300" d="M230.79,209.267c.036,0,.065-.194.329-.251s.7-.1,1.142-.146a9.258,9.258,0,0,0,1.654-.168,3.321,3.321,0,0,0-1.682-.125,5.07,5.07,0,0,0-1.184.243.475.475,0,0,0-.286.3c-.024.1.009.154.027.151" fill="#aa6550"/>
            <path id="Trazado_721301" data-name="Trazado 721301" d="M280.339,190.937l-1.865,6.317L266.64,191.9c.425-1.322,2.382-7.214,6.129-16.562a16.074,16.074,0,0,1,12.268-9.889,70.185,70.185,0,0,1,11.332-1.111c6.636.074,16.406,4.222,17.719,10.727,1,4.966.035,13.733.035,24.386l-.866,20.353-34.008,1.154Z" fill="#755edf"/>
            <g id="Grupo_1008688" data-name="Grupo 1008688" opacity="0.3">
              <g id="Grupo_1008687" data-name="Grupo 1008687">
                <g id="Grupo_1008686" data-name="Grupo 1008686" clip-path="url(#clip-path-18)">
                  <path id="Trazado_721302" data-name="Trazado 721302" d="M314.088,194.736c-4.138.846-8.387-.007-12.6-.257-2.557-.152-5.393-.428-7.415,1.143-1.6,1.246-2.249,3.341-2.712,5.318-1.764,7.537-2.085,12.59-2.481,20.32l20.471,1.241Z"/>
                </g>
              </g>
            </g>
            <path id="Trazado_721303" data-name="Trazado 721303" d="M279.467,168.846c-.005.03.341.05.9.272a4.713,4.713,0,0,1,1.959,1.585,6.61,6.61,0,0,1,1.171,3.544,22.356,22.356,0,0,1-.358,4.662,78.193,78.193,0,0,1-1.9,8.336c-.281,1.021-.512,1.865-.688,2.505a5.788,5.788,0,0,0-.218.929,6.1,6.1,0,0,0,.328-.9c.192-.583.462-1.429.778-2.48a64.869,64.869,0,0,0,1.991-8.348,21.509,21.509,0,0,0,.337-4.728,6.7,6.7,0,0,0-1.274-3.649,4.634,4.634,0,0,0-2.085-1.567,3.383,3.383,0,0,0-.7-.159.789.789,0,0,0-.249-.006" fill="#263238"/>
            <path id="Trazado_721304" data-name="Trazado 721304" d="M267.01,190.284a11.407,11.407,0,0,0,1.667.956c1.051.551,2.522,1.276,4.173,2.021s3.168,1.366,4.277,1.79a11.415,11.415,0,0,0,1.82.616,13.584,13.584,0,0,0-1.741-.809c-1.087-.472-2.588-1.123-4.235-1.866s-3.128-1.436-4.2-1.938a13.664,13.664,0,0,0-1.76-.77" fill="#263238"/>
            <path id="Trazado_721305" data-name="Trazado 721305" d="M261.588,222.5a12.12,12.12,0,0,0-4.949,16.232l29.6,50.821,13.656-8.249L276.91,235.422l16.659-10.874" fill="#263238"/>
            <path id="Trazado_721306" data-name="Trazado 721306" d="M297.628,219.981l-40.633,1.438a12.121,12.121,0,0,0-11.69,12.3l1.687,58.035,17.088-.038-.57-54.872,34.118-.9Z" fill="#263238"/>
            <path id="Trazado_721307" data-name="Trazado 721307" d="M263.51,238.83a2.825,2.825,0,0,1,.049.536c.017.39.039.9.066,1.54.051,1.338.1,3.274.153,5.667.1,4.785.171,11.4.207,18.7s.071,13.878.1,18.7c.013,2.361.024,4.286.032,5.666,0,.64,0,1.152-.005,1.542a2.9,2.9,0,0,1-.028.537,2.811,2.811,0,0,1-.049-.536c-.017-.389-.039-.9-.066-1.54-.051-1.337-.1-3.273-.153-5.666-.1-4.785-.171-11.4-.207-18.7-.038-7.282-.071-13.874-.1-18.7-.013-2.362-.024-4.287-.032-5.668,0-.639,0-1.151.005-1.541a2.92,2.92,0,0,1,.028-.538" fill="#455a64"/>
            <path id="Trazado_721308" data-name="Trazado 721308" d="M315.23,183.152H302.937a8.96,8.96,0,0,0-8.96,8.96V235H269.416a6.2,6.2,0,0,0-6.2,6.2H319.29v-.035a5.117,5.117,0,0,0,4.9-5.111V192.112a8.96,8.96,0,0,0-8.96-8.96" fill="#455a64"/>
            <path id="Trazado_721309" data-name="Trazado 721309" d="M297.551,184.567c.105,0,.19,12.6.19,28.149s-.085,28.151-.19,28.151-.19-12.6-.19-28.151.085-28.149.19-28.149" fill="#263238"/>
            <path id="Trazado_721310" data-name="Trazado 721310" d="M296,286.223V241.23h-4v44.993c-2.44,4.81-8.176,8.065-15.164,10.729h35.63c-7.236-2.94-13.766-5.2-16.469-10.729" fill="#455a64"/>
            <path id="Trazado_721311" data-name="Trazado 721311" d="M70.916,280.4a1.6,1.6,0,0,1,.111-.267l.358-.763a19.177,19.177,0,0,0,1.052-3.056,26.967,26.967,0,0,0-.09-11.8,63.26,63.26,0,0,0-2.189-7.926c-.926-2.814-2-5.8-2.881-9.025a34.934,34.934,0,0,1-1.423-10.376,40.644,40.644,0,0,1,2.415-10.98,53.289,53.289,0,0,0,2.8-10.814,16.482,16.482,0,0,0-1.982-9.987C67.5,202.49,65.51,200,64.021,197.416a27.74,27.74,0,0,1-3.042-7.679,28.59,28.59,0,0,1-.192-11.9,22.075,22.075,0,0,1,1.241-4.2,1.645,1.645,0,0,1-.074.279l-.251.805a30.643,30.643,0,0,0-.771,3.145,28.968,28.968,0,0,0,.308,11.808,27.688,27.688,0,0,0,3.052,7.581c1.486,2.551,3.485,5.033,5.1,7.982a16.805,16.805,0,0,1,2.045,10.189,53.383,53.383,0,0,1-2.8,10.894,40.478,40.478,0,0,0-2.4,10.877,34.771,34.771,0,0,0,1.389,10.271c.865,3.211,1.928,6.2,2.843,9.017a62.463,62.463,0,0,1,2.153,7.974,26.675,26.675,0,0,1-.03,11.889,17.654,17.654,0,0,1-1.126,3.051l-.393.749a1.555,1.555,0,0,1-.145.249" fill="#263238"/>
            <path id="Trazado_721312" data-name="Trazado 721312" d="M66.043,199.963s-3.024-9.67,2.4-15.332a.335.335,0,0,1,.574.166c.29,1.6.652,6.461-2.975,15.166" fill="#755edf"/>
            <path id="Trazado_721313" data-name="Trazado 721313" d="M67.855,187.853a8.9,8.9,0,0,1-.2,1.784c-.2,1.229-.432,2.672-.69,4.265l-.677,4.265a9.592,9.592,0,0,1-.32,1.765,7.483,7.483,0,0,1,.054-1.8c.1-1.1.3-2.625.569-4.294s.564-3.171.8-4.253a8.094,8.094,0,0,1,.467-1.735" fill="#263238"/>
            <path id="Trazado_721314" data-name="Trazado 721314" d="M69.6,222.77s1.849-9.962,9.292-12.43a.336.336,0,0,1,.431.416c-.491,1.547-2.446,6.016-9.723,12.014" fill="#755edf"/>
            <path id="Trazado_721315" data-name="Trazado 721315" d="M76.86,212.914a8.879,8.879,0,0,1-1.014,1.482l-2.605,3.447L70.648,221.3a9.807,9.807,0,0,1-1.108,1.411,7.447,7.447,0,0,1,.888-1.564c.6-.93,1.488-2.182,2.511-3.529s1.981-2.539,2.7-3.385a8.064,8.064,0,0,1,1.224-1.315" fill="#263238"/>
            <path id="Trazado_721316" data-name="Trazado 721316" d="M67.584,247.762s-1.123-10.069,5.282-14.593a.335.335,0,0,1,.532.273c-.02,1.623-.593,6.467-5.814,14.32" fill="#755edf"/>
            <path id="Trazado_721317" data-name="Trazado 721317" d="M71.673,236.22a8.823,8.823,0,0,1-.54,1.712l-1.491,4.056c-.553,1.516-1.053,2.888-1.478,4.057a9.661,9.661,0,0,1-.652,1.672,7.493,7.493,0,0,1,.4-1.754c.309-1.066.79-2.521,1.377-4.107s1.159-3.005,1.6-4.022a8.13,8.13,0,0,1,.79-1.614" fill="#263238"/>
            <path id="Trazado_721318" data-name="Trazado 721318" d="M73.191,272.9s-.762-10.1,5.8-14.394a.335.335,0,0,1,.522.292c-.078,1.62-.824,6.441-6.323,14.1" fill="#755edf"/>
            <path id="Trazado_721319" data-name="Trazado 721319" d="M77.69,261.511a8.844,8.844,0,0,1-.6,1.692l-1.635,4c-.607,1.5-1.156,2.849-1.623,4a9.659,9.659,0,0,1-.711,1.647,7.571,7.571,0,0,1,.459-1.738c.347-1.054.88-2.491,1.524-4.055s1.265-2.961,1.74-3.962a8.068,8.068,0,0,1,.847-1.585" fill="#263238"/>
            <path id="Trazado_721320" data-name="Trazado 721320" d="M61.7,191.467s-8.981-4.69-9.157-12.529a.335.335,0,0,1,.523-.29c1.335.923,5.034,4.1,8.634,12.819" fill="#755edf"/>
            <path id="Trazado_721321" data-name="Trazado 721321" d="M54.4,181.63a8.962,8.962,0,0,1,1.119,1.4c.729,1.009,1.586,2.193,2.532,3.5s1.809,2.486,2.541,3.492A9.748,9.748,0,0,1,61.62,191.5a7.508,7.508,0,0,1-1.234-1.308c-.712-.852-1.65-2.063-2.638-3.436s-1.846-2.639-2.445-3.571a8.129,8.129,0,0,1-.9-1.556" fill="#263238"/>
            <path id="Trazado_721322" data-name="Trazado 721322" d="M71.341,212.234s-9.249-4.135-9.9-11.949a.335.335,0,0,1,.505-.321c1.388.839,5.273,3.789,9.4,12.27" fill="#755edf"/>
            <path id="Trazado_721323" data-name="Trazado 721323" d="M63.465,202.859a8.825,8.825,0,0,1,1.2,1.334c.79.962,1.716,2.092,2.74,3.341l2.748,3.331a9.762,9.762,0,0,1,1.111,1.408,7.44,7.44,0,0,1-1.311-1.23c-.762-.807-1.772-1.959-2.841-3.269s-2-2.522-2.658-3.416a8.027,8.027,0,0,1-.991-1.5" fill="#263238"/>
            <path id="Trazado_721324" data-name="Trazado 721324" d="M66.019,235.4s-6.351-7.895-3.372-15.148a.335.335,0,0,1,.6-.056c.853,1.381,2.969,5.776,2.776,15.2" fill="#755edf"/>
            <path id="Trazado_721325" data-name="Trazado 721325" d="M63.278,223.466a9,9,0,0,1,.462,1.735c.264,1.217.575,2.644.917,4.222s.662,3,.93,4.217a9.738,9.738,0,0,1,.347,1.76,7.471,7.471,0,0,1-.607-1.693c-.311-1.065-.685-2.551-1.04-4.2s-.634-3.157-.81-4.251a8,8,0,0,1-.2-1.786" fill="#263238"/>
            <path id="Trazado_721326" data-name="Trazado 721326" d="M72.31,262.66s-9.179-4.291-9.7-12.115a.335.335,0,0,1,.51-.312c1.375.863,5.21,3.877,9.189,12.427" fill="#755edf"/>
            <path id="Trazado_721327" data-name="Trazado 721327" d="M64.592,253.154a8.934,8.934,0,0,1,1.18,1.354l2.683,3.386,2.692,3.377a9.824,9.824,0,0,1,1.087,1.427,7.443,7.443,0,0,1-1.291-1.252c-.748-.82-1.739-1.989-2.785-3.317s-1.961-2.555-2.6-3.46a8.055,8.055,0,0,1-.966-1.515" fill="#263238"/>
            <path id="Trazado_721328" data-name="Trazado 721328" d="M90.592,222.825a.758.758,0,0,1,.012.223c0,.177-.01.389-.016.648-.027.609-.064,1.431-.109,2.457-.118,2.159-.283,5.171-.481,8.773v.008l0,.013a34.058,34.058,0,0,1-5.031,11.675c-1.84,2.907-3.768,5.549-5.432,8.006a56.739,56.739,0,0,0-4.072,6.732,28.552,28.552,0,0,0-1.9,4.94c-.161.605-.283,1.077-.352,1.4a2.546,2.546,0,0,1-.135.488,2.606,2.606,0,0,1,.06-.5c.045-.329.144-.808.284-1.422a26.092,26.092,0,0,1,1.807-5.02,53.719,53.719,0,0,1,4.024-6.81c1.652-2.475,3.57-5.121,5.4-8.013a34.5,34.5,0,0,0,5.032-11.535l0,.021c.253-3.6.464-6.607.616-8.765.083-1.024.149-1.844.2-2.451.026-.258.047-.469.065-.645a.716.716,0,0,1,.039-.22" fill="#263238"/>
            <path id="Trazado_721329" data-name="Trazado 721329" d="M85.127,245.868s3.887-9.357-1-15.487a.336.336,0,0,0-.588.114c-.433,1.564-1.234,6.375,1.59,15.373" fill="#755edf"/>
            <path id="Trazado_721330" data-name="Trazado 721330" d="M84.419,233.644a8.051,8.051,0,0,1,.308,1.77c.138,1.1.292,2.622.412,4.308s.179,3.218.178,4.328a7.46,7.46,0,0,1-.109,1.795,9.788,9.788,0,0,1-.159-1.787c-.083-1.241-.18-2.7-.288-4.309s-.214-3.068-.3-4.31a8.956,8.956,0,0,1-.041-1.795" fill="#263238"/>
            <g id="Grupo_1008691" data-name="Grupo 1008691" opacity="0.3">
              <g id="Grupo_1008690" data-name="Grupo 1008690">
                <g id="Grupo_1008689" data-name="Grupo 1008689" clip-path="url(#clip-path-19)">
                  <path id="Trazado_721331" data-name="Trazado 721331" d="M85.127,245.868s3.887-9.357-1-15.487a.336.336,0,0,0-.588.114c-.433,1.564-1.234,6.375,1.59,15.373"/>
                </g>
              </g>
            </g>
            <path id="Trazado_721332" data-name="Trazado 721332" d="M73.087,268.416s3.116-9.641-2.255-15.354a.335.335,0,0,0-.576.16c-.305,1.594-.713,6.455,2.831,15.194" fill="#755edf"/>
            <path id="Trazado_721333" data-name="Trazado 721333" d="M71.39,256.289a8.086,8.086,0,0,1,.451,1.739c.226,1.085.5,2.59.76,4.261s.438,3.193.528,4.3a7.463,7.463,0,0,1,.037,1.8,9.806,9.806,0,0,1-.3-1.768c-.184-1.231-.4-2.675-.637-4.272s-.462-3.04-.649-4.271a8.869,8.869,0,0,1-.187-1.786" fill="#263238"/>
            <g id="Grupo_1008694" data-name="Grupo 1008694" opacity="0.3">
              <g id="Grupo_1008693" data-name="Grupo 1008693">
                <g id="Grupo_1008692" data-name="Grupo 1008692" clip-path="url(#clip-path-20)">
                  <path id="Trazado_721334" data-name="Trazado 721334" d="M73.087,268.416s3.116-9.641-2.255-15.354a.335.335,0,0,0-.576.16c-.305,1.594-.713,6.455,2.831,15.194"/>
                </g>
              </g>
            </g>
            <path id="Trazado_721335" data-name="Trazado 721335" d="M90.077,234.433s8.3-5.811,7.463-13.607a.336.336,0,0,0-.557-.22c-1.205,1.088-4.462,4.719-6.906,13.827" fill="#755edf"/>
            <g id="Grupo_1008697" data-name="Grupo 1008697" opacity="0.3">
              <g id="Grupo_1008696" data-name="Grupo 1008696">
                <g id="Grupo_1008695" data-name="Grupo 1008695" clip-path="url(#clip-path-21)">
                  <path id="Trazado_721336" data-name="Trazado 721336" d="M90.077,234.433s8.3-5.811,7.463-13.607a.336.336,0,0,0-.557-.22c-1.205,1.088-4.462,4.719-6.906,13.827"/>
                </g>
              </g>
            </g>
            <path id="Trazado_721337" data-name="Trazado 721337" d="M96.038,223.737a8.07,8.07,0,0,1-.69,1.659c-.473,1-1.16,2.369-1.963,3.857s-1.576,2.811-2.172,3.747a7.453,7.453,0,0,1-1.055,1.457,9.806,9.806,0,0,1,.825-1.594l2.068-3.79c.769-1.42,1.466-2.7,2.059-3.8a8.868,8.868,0,0,1,.928-1.537" fill="#263238"/>
            <path id="Trazado_721338" data-name="Trazado 721338" d="M76.434,258.857s10.011-1.56,12.693-8.928a.335.335,0,0,0-.4-.443c-1.561.445-6.084,2.271-12.29,9.371" fill="#755edf"/>
            <g id="Grupo_1008700" data-name="Grupo 1008700" opacity="0.3">
              <g id="Grupo_1008699" data-name="Grupo 1008699">
                <g id="Grupo_1008698" data-name="Grupo 1008698" clip-path="url(#clip-path-22)">
                  <path id="Trazado_721339" data-name="Trazado 721339" d="M76.434,258.857s10.011-1.56,12.693-8.928a.335.335,0,0,0-.4-.443c-1.561.445-6.084,2.271-12.29,9.371"/>
                </g>
              </g>
            </g>
            <path id="Trazado_721340" data-name="Trazado 721340" d="M86.5,251.88a7.994,7.994,0,0,1-1.35,1.186c-.866.69-2.085,1.616-3.461,2.6s-2.654,1.829-3.6,2.407a7.418,7.418,0,0,1-1.588.843,9.785,9.785,0,0,1,1.442-1.067l3.527-2.492,3.521-2.5a8.943,8.943,0,0,1,1.51-.971" fill="#263238"/>
            <path id="Trazado_721341" data-name="Trazado 721341" d="M66.884,277.281l-2.92,19.655h18.2L79.8,277.281Z" fill="#455a64"/>
            <path id="Trazado_721342" data-name="Trazado 721342" d="M80.53,283.371a71.188,71.188,0,0,1-7.338.189,71.184,71.184,0,0,1-7.339-.189,71,71,0,0,1,7.339-.19,71,71,0,0,1,7.338.19" fill="#263238"/>
            <path id="Trazado_721343" data-name="Trazado 721343" d="M80.891,284.935a75.731,75.731,0,0,1-7.579.19,75.715,75.715,0,0,1-7.579-.19c0-.105,3.393-.189,7.579-.189s7.579.084,7.579.189" fill="#263238"/>
          </g>
        </g>
      </g>
    </g>
  </g>
</svg>
